<?xml version="1.0" encoding="UTF-8" standalone="no"?>
<svg
   xmlns:dc="http://purl.org/dc/elements/1.1/"
   xmlns:cc="http://creativecommons.org/ns#"
   xmlns:rdf="http://www.w3.org/1999/02/22-rdf-syntax-ns#"
   xmlns:svg="http://www.w3.org/2000/svg"
   xmlns="http://www.w3.org/2000/svg"
   xmlns:xlink="http://www.w3.org/1999/xlink"
   xmlns:sodipodi="http://sodipodi.sourceforge.net/DTD/sodipodi-0.dtd"
   xmlns:inkscape="http://www.inkscape.org/namespaces/inkscape"
   id="Layer_1"
   data-name="Layer 1"
   viewBox="0 0 961.2793 446.8071"
   version="1.1"
   sodipodi:docname="camel-quarkus-with-text-vertical.svg"
   width="961.2793"
   height="446.8071"
   inkscape:version="0.92.4 (unknown)">
  <metadata
     id="metadata45">
    <rdf:RDF>
      <cc:Work
         rdf:about="">
        <dc:format>image/svg+xml</dc:format>
        <dc:type
           rdf:resource="http://purl.org/dc/dcmitype/StillImage" />
        <dc:title>quarkus_logo_horizontal_rgb_1280px_default</dc:title>
      </cc:Work>
    </rdf:RDF>
  </metadata>
  <sodipodi:namedview
     pagecolor="#ffffff"
     bordercolor="#666666"
     borderopacity="1"
     objecttolerance="10"
     gridtolerance="10"
     guidetolerance="10"
     inkscape:pageopacity="0"
     inkscape:pageshadow="2"
     inkscape:window-width="1830"
     inkscape:window-height="1051"
     id="namedview43"
     showgrid="false"
     inkscape:pagecheckerboard="true"
     fit-margin-top="0"
     fit-margin-left="0"
     fit-margin-right="0"
     fit-margin-bottom="0"
     inkscape:zoom="0.71594562"
     inkscape:cx="206.35862"
     inkscape:cy="190.34252"
     inkscape:window-x="82"
     inkscape:window-y="0"
     inkscape:window-maximized="1"
     inkscape:current-layer="Layer_1" />
  <defs
     id="defs4">
    <style
       id="style2">.cls-1{fill:#091313;}.cls-2{fill:#4695eb;}.cls-3{fill:#ff004a;}</style>
    <linearGradient
       y2="563.7301"
       x2="477.00238"
       y1="702.59973"
       x1="333.48315"
       gradientUnits="userSpaceOnUse"
       id="linearGradient4866"
       xlink:href="#SVGID_1_-0"
       inkscape:collect="always" />
    <linearGradient
       gradientTransform="matrix(0.4226,-0.9063,0.9063,0.4226,6189.0356,-1936.8361)"
       y2="-3860.573"
       x2="-3987.5886"
       y1="-4143.6401"
       x1="-4229.6655"
       gradientUnits="userSpaceOnUse"
       id="SVGID_1_-0">
      <stop
         id="stop3286-8"
         style="stop-color:#F69923"
         offset="0" />
      <stop
         id="stop3288-2"
         style="stop-color:#F79A23"
         offset="0.10995827" />
      <stop
         id="stop3290-2"
         style="stop-color:#E97826"
         offset="0.94502056" />
    </linearGradient>
    <linearGradient
       y2="563.7301"
       x2="477.00238"
       y1="702.59973"
       x1="333.48315"
       gradientUnits="userSpaceOnUse"
       id="linearGradient4868"
       xlink:href="#linearGradient3949"
       inkscape:collect="always" />
    <linearGradient
       id="linearGradient3949"
       gradientUnits="userSpaceOnUse"
       x1="-4229.6655"
       y1="-4143.6401"
       x2="-3987.5886"
       y2="-3860.573"
       gradientTransform="matrix(0.4226,-0.9063,0.9063,0.4226,6189.0356,-1936.8361)">
      <stop
         offset="0"
         style="stop-color:#F69923"
         id="stop3951" />
      <stop
         offset="0.08047844"
         style="stop-color:#F79A23"
         id="stop3953" />
      <stop
         offset="0.41874287"
         style="stop-color:#E97826"
         id="stop3955" />
    </linearGradient>
    <linearGradient
       y2="909.11664"
       x2="566.47131"
       y1="814.59906"
       x1="633.55072"
       gradientUnits="userSpaceOnUse"
       id="linearGradient4870"
       xlink:href="#linearGradient4556"
       inkscape:collect="always" />
    <linearGradient
       id="linearGradient4556"
       gradientUnits="userSpaceOnUse"
       x1="-4229.6655"
       y1="-4143.6401"
       x2="-3987.5886"
       y2="-3860.573"
       gradientTransform="matrix(0.4226,-0.9063,0.9063,0.4226,6189.0356,-1936.8361)">
      <stop
         offset="0"
         style="stop-color:#f6e423;stop-opacity:1"
         id="stop4558" />
      <stop
         offset="0.41190839"
         style="stop-color:#F79A23"
         id="stop4560" />
      <stop
         offset="0.73270744"
         style="stop-color:#E97826"
         id="stop4562" />
    </linearGradient>
  </defs>
  <title
     id="title6">quarkus_logo_horizontal_rgb_1280px_default</title>
  <path
     style="fill:#010101;fill-opacity:1;stroke-width:1.67513025"
     inkscape:connector-curvature="0"
     class="cls-1"
     d="m 339.92007,347.16168 q 0,18.39223 -7.44921,30.58508 a 37.14663,37.14663 0 0 1 -21.02679,16.5033 l 22.93703,23.71107 h -16.26896 l -18.7828,-21.6162 -3.62874,0.13492 q -21.30375,0 -32.85748,-12.93847 -11.55373,-12.93848 -11.56793,-36.51462 0,-23.38442 11.60344,-36.25188 11.60344,-12.86746 32.95689,-12.88876 20.76405,0 32.4243,13.1018 11.66025,13.1018 11.66025,36.17376 z m -76.7929,0 q 0,19.45032 8.33687,29.50569 8.33686,10.05536 24.22236,10.04826 16.02041,0 24.19395,-10.01986 8.17354,-10.01986 8.17354,-29.53409 0,-19.3225 -8.14514,-29.30685 -8.14513,-9.98436 -24.07323,-9.99146 -16.02041,0 -24.35728,10.05537 -8.33687,10.05537 -8.33687,29.24294 z"
     id="path8" />
  <path
     style="fill:#010101;fill-opacity:1;stroke-width:1.67513025"
     inkscape:connector-curvature="0"
     class="cls-1"
     d="m 450.38709,299.41289 v 61.95839 q 0,16.36838 -9.94175,25.74202 -9.94174,9.37365 -27.38241,9.36655 -17.40516,0 -26.92793,-9.43756 -9.52278,-9.43756 -9.50147,-25.95506 v -61.67434 h 11.20577 v 62.49098 q 0,11.98691 6.58996,18.39934 6.58995,6.41242 19.3793,6.39112 12.18574,0 18.7828,-6.44793 6.59706,-6.44794 6.58996,-18.44905 v -62.38446 z"
     id="path10" />
  <path
     style="fill:#010101;fill-opacity:1;stroke-width:1.67513025"
     inkscape:connector-curvature="0"
     class="cls-1"
     d="m 552.67347,395.17322 -12.00111,-30.46436 h -38.62369 l -11.86618,30.46436 h -11.362 l 38.1266,-96.1509 h 9.42336 l 37.89936,96.1509 z M 537.17855,354.6961 525.97278,325.01999 q -2.18008,-5.62419 -4.48799,-13.81903 a 122.53204,122.53204 0 0 1 -4.15423,13.81903 l -11.362,29.66901 z"
     id="path12" />
  <path
     style="fill:#010101;fill-opacity:1;stroke-width:1.67513025"
     inkscape:connector-curvature="0"
     class="cls-1"
     d="m 604.93156,355.34942 v 39.8238 h -11.21287 v -95.76033 h 26.43795 q 17.75312,0 26.1965,6.74618 8.44339,6.74619 8.47179,20.30247 0,18.98874 -19.3793,25.67811 l 26.16099,43.03357 H 648.3628 l -23.33471,-39.8167 z m 0,-9.56538 h 15.3529 q 11.86619,0 17.40516,-4.68683 5.53897,-4.68682 5.53187,-14.04627 0,-9.49437 -5.63129,-13.6841 -5.63129,-4.18974 -18.09398,-4.19684 h -14.56466 z"
     id="path14" />
  <path
     style="fill:#010101;fill-opacity:1;stroke-width:1.67513025"
     inkscape:connector-curvature="0"
     class="cls-1"
     d="m 762.97695,395.17322 h -13.18702 l -35.12988,-46.44216 -10.08377,8.90496 v 37.5372 h -11.20577 v -95.76033 h 11.20577 v 47.47184 l 43.70108,-47.48605 h 13.25093 l -38.75861,41.60622 z"
     id="path16" />
  <path
     style="fill:#010101;fill-opacity:1;stroke-width:1.67513025"
     inkscape:connector-curvature="0"
     class="cls-1"
     d="m 865.19232,299.41289 v 61.95839 q 0,16.36838 -9.94175,25.74202 -9.94175,9.37365 -27.35401,9.36655 -17.39806,0 -26.92794,-9.43756 -9.52987,-9.43756 -9.53697,-25.95506 v -61.67434 h 11.20577 v 62.49098 q 0,11.98691 6.58996,18.39934 6.58996,6.41242 19.3793,6.39112 12.19285,0 18.78991,-6.44793 6.59706,-6.44794 6.58996,-18.50586 v -62.32765 z"
     id="path18" />
  <path
     style="fill:#010101;fill-opacity:1;stroke-width:1.67513025"
     inkscape:connector-curvature="0"
     class="cls-1"
     d="m 961.27931,369.68684 q 0,12.64022 -9.23163,19.71306 -9.23162,7.07285 -25.0532,7.10125 -17.13531,0 -26.36694,-4.38857 v -10.76549 a 69.464412,69.464412 0 0 0 12.92428,3.92699 67.937643,67.937643 0 0 0 13.84033,1.42025 q 11.20577,0 16.87257,-4.26075 5.66679,-4.26075 5.68099,-11.75257 0,-4.97087 -2.00965,-8.15223 -2.00965,-3.18136 -6.71778,-5.86563 -4.72233,-2.68427 -14.33742,-6.09287 -13.44976,-4.77204 -19.21598,-11.362 -5.76621,-6.58996 -5.76621,-17.0927 0,-11.06375 8.37237,-17.6182 8.37237,-6.55445 22.14169,-6.54735 a 65.722054,65.722054 0 0 1 26.43085,5.23362 l -3.48671,9.6932 q -11.9443,-4.97087 -23.20688,-4.97087 -8.89787,0 -13.90425,3.79917 -5.00638,3.79916 -5.01348,10.54535 0,4.97087 1.84633,8.15223 1.84632,3.18136 6.22779,5.83013 4.38857,2.64876 13.41426,5.86563 15.16826,5.36854 20.86347,11.52533 5.6952,6.15678 5.6952,16.06302 z"
     id="path20" />
  <polygon
     class="cls-2"
     points="96.61,51.59 126.05,68.59 126.05,34.6 "
     id="polygon22"
     style="fill:#4695eb"
     transform="translate(0.05500612,254.5871)" />
  <polygon
     class="cls-3"
     points="67.17,68.59 96.61,51.59 67.17,34.6 "
     id="polygon24"
     style="fill:#ff004a"
     transform="translate(0.05500612,254.5871)" />
  <polygon
     class="cls-1"
     points="126.05,68.59 96.61,51.59 67.17,68.59 96.61,85.59 "
     id="polygon26"
     style="fill:#091313"
     transform="translate(0.05500612,254.5871)" />
  <polygon
     class="cls-2"
     points="65.57,105.36 65.57,71.37 36.13,88.36 "
     id="polygon28"
     style="fill:#4695eb"
     transform="translate(0.05500612,254.5871)" />
  <polygon
     class="cls-3"
     points="95.01,122.36 65.57,105.36 65.57,139.35 "
     id="polygon30"
     style="fill:#ff004a"
     transform="translate(0.05500612,254.5871)" />
  <polygon
     class="cls-1"
     points="65.57,71.37 65.57,105.36 95.01,122.36 95.01,88.36 "
     id="polygon32"
     style="fill:#091313"
     transform="translate(0.05500612,254.5871)" />
  <polygon
     class="cls-2"
     points="127.65,105.36 98.21,122.36 127.65,139.35 "
     id="polygon34"
     style="fill:#4695eb"
     transform="translate(0.05500612,254.5871)" />
  <polygon
     class="cls-3"
     points="127.65,71.37 127.65,105.36 157.09,88.36 "
     id="polygon36"
     style="fill:#ff004a"
     transform="translate(0.05500612,254.5871)" />
  <polygon
     class="cls-1"
     points="98.21,122.36 127.65,105.36 127.65,71.37 98.21,88.36 "
     id="polygon38"
     style="fill:#091313"
     transform="translate(0.05500612,254.5871)" />
  <path
     class="cls-2"
     d="M 160.55501,255.5871 H 32.775006 a 31.81,31.81 0 0 0 -31.7199999,31.72 v 127.78 a 31.81,31.81 0 0 0 31.7199999,31.72 h 87.510004 l -23.620002,-57.37 -17.130002,36.22 h -46.76 a 10.71,10.71 0 0 1 -10.57,-10.57 v -127.78 a 10.71,10.71 0 0 1 10.57,-10.57 H 160.55501 a 10.71,10.71 0 0 1 10.57,10.57 v 127.78 a 10.71,10.71 0 0 1 -10.57,10.57 h -27.73 l 8.71,21.15 h 19 a 31.81,31.81 0 0 0 31.72,-31.72 v -127.78 a 31.81,31.81 0 0 0 -31.7,-31.72 z"
     id="path40"
     inkscape:connector-curvature="0"
     style="fill:#4695eb" />
  <g
     transform="matrix(5.6832913,0,0,5.6832913,508.68915,-31.885339)"
     id="layer1"
     inkscape:label="Layer 1"
     style="stroke-width:0.66502446">
    <g
       transform="matrix(0.26458333,0,0,0.26458333,-125.60509,-155.91366)"
       id="g4839"
       style="stroke-width:0.66502446">
      <g
         inkscape:export-ydpi="106.96"
         inkscape:export-xdpi="106.96"
         inkscape:export-filename="/home/zregvart/workspaces/camel-salesforce/camel/docs/img/logo-medium.png"
         transform="translate(73.918961,19.51005)"
         id="g4763"
         style="stroke-width:0.66502446">
        <g
           id="g4765"
           transform="translate(-72.023152,20.160046)"
           style="stroke-width:0.66502446">
          <g
             id="g4767"
             style="font-size:27.92029381px;font-family:Sans;letter-spacing:0px;word-spacing:0px;fill:#6c5d53;stroke-width:0.66502446">
            <path
               id="path4769"
               style="-inkscape-font-specification:'Judson Medium';stroke-width:0.66502446"
               d="m 335.43979,637.17977 c 9.45999,0 13.75,5.28001 14.63,11.33 h 2.42 l -1.1,-13.97 h -2.53 c 0,1.32 -0.55,2.2 -1.32,2.2 -2.09,0 -6.6,-3.3 -12.21,-3.3 -17.26998,0 -33.33,12.87002 -33.33,34.21 0,16.71998 11.22002,32.34 31.68,32.34 13.52999,0 19.91,-7.70001 22.66,-14.3 l -2.64,-1.32 c -1.98,5.39 -10.12001,11.88 -17.82,11.88 -11.43999,0 -22.44,-10.56002 -22.44,-31.02 0,-16.71998 9.46001,-28.05 22,-28.05"
               inkscape:connector-curvature="0" />
            <path
               id="path4771"
               style="-inkscape-font-specification:'Judson Medium';stroke-width:0.66502446"
               d="m 371.57479,658.62977 c 1.1,-4.29 5.50001,-5.28 11.22,-5.28 8.57999,0 11,6.05001 11,17.82 -11.10999,3.19 -31.02,5.17001 -31.02,15.4 0,10.55999 7.26001,13.42 16.5,13.42 7.69999,0 12.98,-2.42 16.17,-4.73 1.76,3.52 4.62,4.51 7.81,4.51 7.58999,0 10.12,-1.87 10.12,-5.94 h -1.98 c 0,1.54 -1.87,2.64 -3.74,2.64 -1.87,0 -3.96,-1.76 -3.96,-6.82 v -21.78 c 0,-10.22999 -5.39001,-18.48 -19.8,-18.48 -11.54999,0 -18.15,4.40001 -18.15,12.1 0,3.3 1.87,5.5 4.73,5.5 2.31,0 4.95,-1.1 4.95,-3.85 0,-3.41 -2.09,-4.51 -3.85,-4.51 m 22.88,33.88 c -3.41,2.09 -8.91,3.74 -13.31,3.74 -4.94999,0 -8.14,-1.98001 -8.14,-9.46 0,-8.90999 13.09001,-10.78 20.79,-13.2 v 12.98 c 0,2.31 0.22,4.29 0.66,5.94"
               inkscape:connector-curvature="0" />
            <path
               id="path4773"
               style="-inkscape-font-specification:'Judson Medium';stroke-width:0.66502446"
               d="m 415.7312,698.88977 h 23.76 v -2.31 c -4.62,0 -6.27,-0.66 -6.93,-2.2 v -36.41 c 2.52999,-2.31 6.49,-4.84 11.55,-4.84 6.59999,0 9.24,3.19001 9.24,12.87 v 28.38 c -0.66,1.54 -2.31001,2.2 -6.93,2.2 v 2.31 h 23.76 v -2.31 c -4.62,0 -6.27,-0.66 -6.93,-2.2 v -32.45 c 0,-1.21 -0.11,-2.42 -0.44,-3.52 2.52999,-2.42 6.6,-5.28 11.99,-5.28 6.59999,0 9.24,3.19001 9.24,12.87 v 28.38 c -0.66,1.54 -2.31001,2.2 -6.93,2.2 v 2.31 h 23.76 v -2.31 c -4.62,0 -6.27,-0.66 -6.93,-2.2 v -32.45 c 0,-7.91999 -5.50002,-12.54 -18.48,-12.54 -6.16,0 -11.00001,3.52 -13.75,6.38 -2.42,-4.07 -7.81001,-6.38 -16.94,-6.38 -5.17,0 -9.35001,2.53 -12.21,4.95 v -4.95 c -4.95,0 -12.54001,4.73 -16.83,4.73 v 2.53 c 1.65,0 4.18,0.33 6.93,0.55 v 37.18 c -0.66,1.54 -2.31001,2.2 -6.93,2.2 v 2.31"
               inkscape:connector-curvature="0" />
            <path
               id="path4775"
               style="-inkscape-font-specification:'Judson Medium';stroke-width:0.66502446"
               d="m 517.08073,672.37977 h 35.31 c 0,-12.09999 -6.60002,-22.99 -23.1,-22.99 -14.73999,0 -22.66,10.56001 -22.66,22.88 0,22.21998 13.64001,27.72 23.76,27.72 11.43999,0 17.6,-3.30001 21.78,-10.12 l -2.64,-1.32 c -4.4,5.5 -9.02001,7.26 -15.4,7.26 -8.68999,0 -16.83,-11.11001 -17.05,-23.43 m 0.11,-3.41 c 0.99,-10.11999 6.82,-16.28 11.66,-16.28 9.78999,0 11.99,7.15001 12.76,16.28 h -24.42"
               inkscape:connector-curvature="0" />
            <path
               id="path4777"
               style="-inkscape-font-specification:'Judson Medium';stroke-width:0.66502446"
               d="m 558.79135,698.88977 h 23.76 v -2.31 c -4.61999,0 -6.27,-0.66 -6.93,-2.2 v -64.79 c -4.94999,0 -12.54,4.73 -16.83,4.73 v 2.53 c 1.65,0 4.18001,0.33 6.93,0.55 v 56.98 c -0.66,1.54 -2.31,2.2 -6.93,2.2 v 2.31"
               inkscape:connector-curvature="0" />
          </g>
          <g
             id="g4779"
             transform="matrix(0.35549945,0,0,0.35549945,203.40098,388.26524)"
             style="stroke-width:0.66502446">
            <path
               id="path4781"
               d="m 280.2335,639.49652 27.23347,-65.09625 h 5.22662 l 27.23347,65.09625 h -6.87714 l -8.43962,-20.35633 h -29.24709 l -8.3406,20.35633 z m 29.89629,-57.58091 -13.39116,32.18501 h 26.40821 z"
               inkscape:connector-curvature="0"
               style="fill:#d22128;stroke-width:0.66502446" />
            <path
               id="path4783"
               d="m 346.95825,639.49652 v -65.09625 h 26.95838 c 11.19048,0 19.25599,10.36523 19.25599,20.44436 0,10.64031 -7.51534,20.63142 -18.70582,20.63142 h -21.18159 v 24.02047 z m 6.32696,-29.70924 h 20.80748 c 7.70239,0 12.65393,-7.0642 12.65393,-14.94265 0,-8.16454 -6.05188,-14.76659 -13.20411,-14.76659 h -20.2573 z"
               inkscape:connector-curvature="0"
               style="fill:#d22128;stroke-width:0.66502446" />
            <path
               id="path4785"
               d="m 389.60751,639.49652 27.23347,-65.09625 h 5.22663 l 27.23346,65.09625 h -6.87713 l -8.43963,-20.35633 h -29.24709 l -8.3406,20.35633 z m 29.8853,-57.58091 -13.39117,32.18501 h 26.40821 z"
               inkscape:connector-curvature="0"
               style="fill:#d22128;stroke-width:0.66502446" />
            <path
               id="path4787"
               d="m 480.09965,574.03716 c 11.5536,0 19.98222,5.86482 24.02047,14.21642 l -5.1386,3.11397 c -4.12628,-8.61568 -12.19179,-11.55359 -19.25598,-11.55359 -15.59185,0 -24.1085,13.94133 -24.1085,27.04641 0,14.39247 10.54128,27.40952 24.38358,27.40952 7.33928,0 15.95496,-3.66414 20.08125,-12.10376 l 5.31465,2.75085 c -4.21431,9.71602 -15.7679,15.12971 -25.75901,15.12971 -17.88056,0 -30.43547,-17.05531 -30.43547,-33.56044 0,-15.67988 11.26751,-32.44909 30.89761,-32.44909 z"
               inkscape:connector-curvature="0"
               style="fill:#d22128;stroke-width:0.66502446" />
            <path
               id="path4789"
               d="m 565.69527,574.40027 v 65.09625 h -6.41499 v -30.43547 h -38.6 v 30.43547 h -6.32698 v -65.09625 h 6.32698 v 28.97201 h 38.6 v -28.97201 z"
               inkscape:connector-curvature="0"
               style="fill:#d22128;stroke-width:0.66502446" />
            <path
               id="path4791"
               d="m 624.13445,633.80775 v 5.68877 h -43.7386 v -65.09625 h 42.91334 v 5.68877 h -36.58638 v 23.4703 h 31.90993 v 5.40268 h -31.90993 v 24.84573 z"
               inkscape:connector-curvature="0"
               style="fill:#d22128;stroke-width:0.66502446" />
            <path
               id="path4793"
               d="m 640.17744,573.74007 c 0.99031,0.99031 1.48546,2.18968 1.48546,3.58711 0,1.39744 -0.49515,2.59681 -1.48546,3.59812 -0.99031,1.00131 -2.20069,1.50747 -3.60912,1.50747 -1.41945,0 -2.61882,-0.49515 -3.59812,-1.48546 -0.97931,-0.99031 -1.47446,-2.18968 -1.47446,-3.58712 0,-1.39743 0.49515,-2.5968 1.48546,-3.59812 0.99031,-1.00131 2.18968,-1.50746 3.59812,-1.50746 1.40844,0 2.60781,0.49515 3.59812,1.48546 z m -0.42914,6.7671 c 0.86927,-0.88027 1.29841,-1.9366 1.29841,-3.16898 0,-1.23239 -0.42914,-2.27771 -1.2874,-3.14698 -0.85827,-0.86927 -1.9146,-1.30941 -3.15798,-1.30941 -1.24339,0 -2.29972,0.44014 -3.16899,1.30941 -0.85827,0.88027 -1.2984,1.9366 -1.2984,3.16898 0,1.23239 0.42913,2.28871 1.27639,3.15798 0.85827,0.86928 1.9036,1.30941 3.14698,1.30941 1.24339,0 2.32172,-0.44013 3.19099,-1.32041 z m -0.71522,-4.14829 c 0,0.91329 -0.39612,1.48546 -1.19937,1.71654 l 1.46345,1.98061 h -1.17736 l -1.32041,-1.83757 h -1.21038 v 1.83757 h -0.9573 v -5.50171 h 2.06865 c 0.83626,0 1.43044,0.14304 1.79355,0.42913 0.36312,0.28609 0.53917,0.74824 0.53917,1.37543 z m -1.22138,0.77024 c 0.18706,-0.15405 0.28609,-0.41813 0.28609,-0.78124 0,-0.36311 -0.099,-0.61619 -0.29709,-0.74823 -0.19806,-0.14305 -0.53917,-0.20907 -1.04533,-0.20907 h -1.16636 v 1.98062 h 1.14436 c 0.52816,0 0.88027,-0.077 1.07833,-0.24208 z"
               inkscape:connector-curvature="0"
               style="fill:#6d6e71;stroke-width:0.66502446" />
          </g>
        </g>
        <g
           id="g4795"
           transform="translate(-5.4017408,7.3976335)"
           style="stroke-width:0.66502446" />
      </g>
      <g
         transform="translate(-386.87395,-169.40258)"
         id="g4801"
         style="stroke-width:0.66502446">
        <g
           id="g4803"
           transform="translate(216.2639,-21.04569)"
           style="stroke-width:0.66502446">
          <circle
             transform="matrix(0.99205956,0,0,0.99205956,-36.8047,240.87219)"
             id="path4805"
             style="fill:url(#linearGradient4866);stroke:url(#linearGradient4868);stroke-width:3.32512212;stroke-linejoin:round"
             cx="412.33255"
             cy="629.22614"
             r="63.02026" />
        </g>
        <path
           inkscape:connector-curvature="0"
           style="opacity:0.75;fill:url(#linearGradient4870);stroke-width:0.66502446"
           d="m 573.3125,817.40625 c -0.88906,-10e-4 -1.78972,0.005 -2.6875,0.0312 -1.0437,0.0308 -2.44587,0.36218 -4.0625,0.90625 27.30936,20.73702 37.12671,58.14612 20.25,90.65625 0.57317,0.0149 1.14197,0.0625 1.71875,0.0625 30.8438,0 56.61984,-21.49325 63.28125,-50.3125 -19.57261,-22.9434 -46.11809,-41.29445 -78.5,-41.34375 z"
           id="path4807" />
        <path
           inkscape:connector-curvature="0"
           style="opacity:0.75;fill:#28170b;stroke-width:0.66502446"
           d="m 566.5625,818.34375 c -9.06824,3.05185 -26.36759,13.8017 -43,28.15625 1.26312,34.19531 28.96142,61.60672 63.25,62.5 16.87671,-32.51013 7.05936,-69.91923 -20.25,-90.65625 z"
           id="path4809" />
        <g
           id="g4811"
           style="stroke-width:0.66502446">
          <path
             inkscape:connector-curvature="0"
             style="fill:#ffffff;stroke-width:0.66502446"
             d="m 590.31114,806.30878 c -0.47239,-0.0321 -0.93151,0.0284 -1.375,0.25 -5.59922,2.80111 0,14 0,14 -16.80659,14.00851 -13.23603,37.9375 -32.84375,37.9375 -10.68885,0 -21.32208,-12.29336 -32.53125,-19.8125 -0.1443,1.77333 -0.25,3.56448 -0.25,5.375 0,24.51458 13.51013,45.86312 33.46875,57.06251 5.58277,-0.70321 11.15751,-2.11392 15.34375,-4.90625 21.99196,-14.6623 27.4523,-42.55657 36.4375,-56.03126 5.59618,-8.4063 31.82432,-7.67689 33.59375,-11.21875 2.80409,-5.6022 -5.60209,-14 -8.40625,-14 h -22.40625 c -1.56551,0 -4.02528,-2.78125 -5.59375,-2.78125 h -8.40625 c 0,0 -3.72451,-5.65027 -7.03125,-5.875 z"
             id="path4813" />
        </g>
      </g>
    </g>
  </g>
</svg>
