<?xml version="1.0" encoding="UTF-8"?>
<!DOCTYPE svg PUBLIC "-//W3C//DTD SVG 1.1//EN" "http://www.w3.org/Graphics/SVG/1.1/DTD/svg11.dtd">
<svg xmlns="http://www.w3.org/2000/svg" version="1.1" width="654px" height="899px" style="shape-rendering:geometricPrecision; text-rendering:geometricPrecision; image-rendering:optimizeQuality; fill-rule:evenodd; clip-rule:evenodd" xmlns:xlink="http://www.w3.org/1999/xlink">
<g><path style="opacity:1" fill="#1da361" d="M 49.5,-0.5 C 175.833,-0.5 302.167,-0.5 428.5,-0.5C 428.5,-0.166667 428.5,0.166667 428.5,0.5C 428.5,75.1667 428.5,149.833 428.5,224.5C 503.167,224.5 577.833,224.5 652.5,224.5C 652.833,224.5 653.167,224.5 653.5,224.5C 653.5,432.5 653.5,640.5 653.5,848.5C 653.167,848.5 652.833,848.5 652.5,848.5C 651.232,850.905 650.565,853.572 650.5,856.5C 643.833,875.833 630.833,888.833 611.5,895.5C 608.572,895.565 605.905,896.232 603.5,897.5C 603.5,897.833 603.5,898.167 603.5,898.5C 418.833,898.5 234.167,898.5 49.5,898.5C 49.5,898.167 49.5,897.833 49.5,897.5C 47.0948,896.232 44.4282,895.565 41.5,895.5C 28.9297,891.586 18.9297,884.253 11.5,873.5C 10.6597,871.147 9.3264,869.147 7.5,867.5C 5.04308,864.249 3.37641,860.582 2.5,856.5C 2.43487,853.572 1.7682,850.905 0.5,848.5C 0.166667,848.5 -0.166667,848.5 -0.5,848.5C -0.5,582.167 -0.5,315.833 -0.5,49.5C -0.166667,49.5 0.166667,49.5 0.5,49.5C 1.7682,47.0948 2.43487,44.4282 2.5,41.5C 3.37641,37.4179 5.04308,33.7512 7.5,30.5C 9.3264,28.8525 10.6597,26.8525 11.5,24.5C 18.9297,13.7473 28.9297,6.41392 41.5,2.5C 44.4282,2.43487 47.0948,1.7682 49.5,0.5C 49.5,0.166667 49.5,-0.166667 49.5,-0.5 Z"/></g>
<g><path style="opacity:1" fill="#8cd0af" d="M 428.5,0.5 C 503.5,74.8333 578.167,149.5 652.5,224.5C 577.833,224.5 503.167,224.5 428.5,224.5C 428.5,149.833 428.5,75.1667 428.5,0.5 Z"/></g>
<g><path style="opacity:0.775" fill="#0dc84f" d="M 49.5,0.5 C 47.0948,1.7682 44.4282,2.43487 41.5,2.5C 43.8383,0.960457 46.5049,0.29379 49.5,0.5 Z"/></g>
<g><path style="opacity:0.588" fill="#0fc949" d="M 11.5,24.5 C 10.6597,26.8525 9.3264,28.8525 7.5,30.5C 7.8449,27.8021 9.17823,25.8021 11.5,24.5 Z"/></g>
<g><path style="opacity:0.055" fill="#05a533" d="M 428.5,0.5 C 428.5,0.166667 428.5,-0.166667 428.5,-0.5C 429.167,-0.5 429.833,-0.5 430.5,-0.5C 504.5,74.1667 578.833,148.5 653.5,222.5C 653.5,223.167 653.5,223.833 653.5,224.5C 653.167,224.5 652.833,224.5 652.5,224.5C 578.167,149.5 503.5,74.8333 428.5,0.5 Z"/></g>
<g><path style="opacity:0.416" fill="#0cc84f" d="M 2.5,41.5 C 2.43487,44.4282 1.7682,47.0948 0.5,49.5C 0.29379,46.5049 0.960457,43.8383 2.5,41.5 Z"/></g>
<g><path style="opacity:1" fill="#78de9a" d="M 121.5,351.5 C 258.167,351.5 394.833,351.5 531.5,351.5C 531.5,447.167 531.5,542.833 531.5,638.5C 394.833,638.5 258.167,638.5 121.5,638.5C 121.5,542.833 121.5,447.167 121.5,351.5 Z"/></g>
<g><path style="opacity:1" fill="#fcfefe" d="M 122.5,352.5 C 258.5,352.5 394.5,352.5 530.5,352.5C 530.5,447.5 530.5,542.5 530.5,637.5C 394.5,637.5 258.5,637.5 122.5,637.5C 122.5,542.5 122.5,447.5 122.5,352.5 Z"/></g>
<g><path style="opacity:1" fill="#21a463" d="M 173.5,402.5 C 215.835,402.333 258.168,402.5 300.5,403C 301.494,425.091 301.827,447.258 301.5,469.5C 258.833,469.5 216.167,469.5 173.5,469.5C 173.5,447.167 173.5,424.833 173.5,402.5 Z"/></g>
<g><path style="opacity:1" fill="#21a463" d="M 352.5,402.5 C 394.833,402.5 437.167,402.5 479.5,402.5C 479.5,424.833 479.5,447.167 479.5,469.5C 436.833,469.5 394.167,469.5 351.5,469.5C 351.178,447.092 351.511,424.758 352.5,402.5 Z"/></g>
<g><path style="opacity:1" fill="#21a463" d="M 173.5,520.5 C 216.167,520.5 258.833,520.5 301.5,520.5C 301.827,542.742 301.494,564.909 300.5,587C 258.168,587.5 215.835,587.667 173.5,587.5C 173.5,565.167 173.5,542.833 173.5,520.5 Z"/></g>
<g><path style="opacity:1" fill="#21a463" d="M 351.5,520.5 C 394.167,520.5 436.833,520.5 479.5,520.5C 479.5,542.833 479.5,565.167 479.5,587.5C 437.165,587.667 394.832,587.5 352.5,587C 351.506,564.909 351.173,542.742 351.5,520.5 Z"/></g>
<g><path style="opacity:0.62" fill="#0fc74b" d="M 652.5,848.5 C 652.706,851.495 652.04,854.162 650.5,856.5C 650.565,853.572 651.232,850.905 652.5,848.5 Z"/></g>
<g><path style="opacity:0.771" fill="#0ec64e" d="M 0.5,848.5 C 1.7682,850.905 2.43487,853.572 2.5,856.5C 0.960457,854.162 0.29379,851.495 0.5,848.5 Z"/></g>
<g><path style="opacity:0.629" fill="#0ec849" d="M 7.5,867.5 C 9.3264,869.147 10.6597,871.147 11.5,873.5C 9.17823,872.198 7.8449,870.198 7.5,867.5 Z"/></g>
<g><path style="opacity:0.624" fill="#0ec749" d="M 41.5,895.5 C 44.4282,895.565 47.0948,896.232 49.5,897.5C 46.5049,897.706 43.8383,897.04 41.5,895.5 Z"/></g>
<g><path style="opacity:0.621" fill="#0fcb47" d="M 611.5,895.5 C 609.162,897.04 606.495,897.706 603.5,897.5C 605.905,896.232 608.572,895.565 611.5,895.5 Z"/></g>
</svg>
