<?xml version="1.0" encoding="UTF-8" standalone="no"?>
<svg
   xmlns:dc="http://purl.org/dc/elements/1.1/"
   xmlns:cc="http://creativecommons.org/ns#"
   xmlns:rdf="http://www.w3.org/1999/02/22-rdf-syntax-ns#"
   xmlns:svg="http://www.w3.org/2000/svg"
   xmlns="http://www.w3.org/2000/svg"
   xmlns:sodipodi="http://sodipodi.sourceforge.net/DTD/sodipodi-0.dtd"
   xmlns:inkscape="http://www.inkscape.org/namespaces/inkscape"
   version="1.0"
   width="228.47505"
   height="120.38954"
   viewBox="0 0 2284.7504 1203.8955"
   preserveAspectRatio="xMidYMid meet"
   id="svg30"
   sodipodi:docname="special.svg"
   inkscape:version="0.92.4 (unknown)">
  <metadata
     id="metadata36">
    <rdf:RDF>
      <cc:Work
         rdf:about="">
        <dc:format>image/svg+xml</dc:format>
        <dc:type
           rdf:resource="http://purl.org/dc/dcmitype/StillImage" />
        <dc:title />
      </cc:Work>
    </rdf:RDF>
  </metadata>
  <defs
     id="defs34">
    <filter
       inkscape:collect="always"
       style="color-interpolation-filters:sRGB"
       id="filter1112"
       x="-0.059015435"
       width="1.1180309"
       y="-0.047432322"
       height="1.0948646">
      <feGaussianBlur
         inkscape:collect="always"
         stdDeviation="15.332397"
         id="feGaussianBlur1114" />
    </filter>
    <filter
       inkscape:collect="always"
       style="color-interpolation-filters:sRGB"
       id="filter1116"
       x="-0.028287249"
       width="1.0565745"
       y="-0.06110034"
       height="1.1222007">
      <feGaussianBlur
         inkscape:collect="always"
         stdDeviation="15.332397"
         id="feGaussianBlur1118" />
    </filter>
    <filter
       inkscape:collect="always"
       style="color-interpolation-filters:sRGB"
       id="filter1120"
       x="-0.26734923"
       width="1.5346985"
       y="-0.1103791"
       height="1.2207582">
      <feGaussianBlur
         inkscape:collect="always"
         stdDeviation="15.332397"
         id="feGaussianBlur1122" />
    </filter>
    <filter
       inkscape:collect="always"
       style="color-interpolation-filters:sRGB"
       id="filter1153"
       x="-0.03326523"
       width="1.0665305"
       y="-0.086167911"
       height="1.1723358">
      <feGaussianBlur
         inkscape:collect="always"
         stdDeviation="17.509278"
         id="feGaussianBlur1155" />
    </filter>
  </defs>
  <sodipodi:namedview
     pagecolor="#ffffff"
     bordercolor="#666666"
     borderopacity="1"
     objecttolerance="10"
     gridtolerance="10"
     guidetolerance="10"
     inkscape:pageopacity="0"
     inkscape:pageshadow="2"
     inkscape:window-width="1830"
     inkscape:window-height="1051"
     id="namedview32"
     showgrid="false"
     fit-margin-top="10"
     fit-margin-left="10"
     fit-margin-right="10"
     fit-margin-bottom="10"
     inkscape:zoom="2.7981997"
     inkscape:cx="58.563657"
     inkscape:cy="48.877436"
     inkscape:window-x="82"
     inkscape:window-y="0"
     inkscape:window-maximized="1"
     inkscape:current-layer="svg30"
     inkscape:pagecheckerboard="true" />
  <g
     aria-label="special"
     transform="rotate(16.9192)"
     style="font-style:normal;font-variant:normal;font-weight:normal;font-stretch:normal;font-size:426.66665649px;line-height:1.25;font-family:'Domestic Manners';-inkscape-font-specification:'Domestic Manners, Normal';font-variant-ligatures:normal;font-variant-caps:normal;font-variant-numeric:normal;font-feature-settings:normal;text-align:start;letter-spacing:0px;word-spacing:0px;writing-mode:lr-tb;text-anchor:start;fill:#000000;fill-opacity:1;stroke:#130000;stroke-width:20;stroke-miterlimit:4;stroke-dasharray:none;stroke-opacity:1;filter:url(#filter1153)"
     id="text59-5-5">
    <path
       d="m 1152.3198,112.29447 q 0.4167,2.91666 0.4167,5.625 0,18.75 -18.75,18.75 -8.5417,0 -25.2084,-4.16667 -16.4583,-4.375 -24.7916,-4.375 -10.625,0 -20,6.25 -10.625,7.08333 -10.625,17.08333 0,10.20834 22.7083,25 21.25,13.54167 42.5,27.08334 22.7083,17.08333 22.7083,32.49999 0,13.54167 -10.4166,21.04167 -9.1667,6.66667 -22.9167,6.66667 -16.0417,0 -47.9167,-6.25 -31.875,-6.25 -48.125,-6.25 -11.0416,0 -20.41663,1.875 -4.79167,-1.875 -11.875,-13.54167 -8.54167,-14.375 -10.41667,-16.45833 11.45834,-2.5 26.04167,-2.5 23.33333,0 61.45833,7.91666 38.125,7.91667 43.5417,7.91667 7.7083,0 7.7083,-3.95833 0,-9.79167 -22.9167,-23.33333 -40.8333,-23.95834 -42.9166,-25.41667 -22.9167,-16.875 -22.9167,-34.79167 0,-25.83333 26.4583,-43.75 23.5417,-16.041662 50.625,-16.041662 34.1667,0 56.0417,23.125002 z"
       style="fill:#000000;fill-opacity:1;stroke:#130000;stroke-width:20;stroke-miterlimit:4;stroke-dasharray:none;stroke-opacity:1"
       id="path860"
       inkscape:connector-curvature="0" />
    <path
       d="m 1282.3198,262.08613 q -31.4583,0 -65.2083,-20.20833 -9.7917,33.54166 -19.375,66.875 -15,45.20833 -29.375,59.16666 -19.1667,-3.125 -19.1667,-19.375 0,-7.08333 9.375,-33.95833 19.5833,-55.83333 19.5833,-91.45833 0,-11.875 -1.6666,-22.5 13.9583,-11.66667 25.2083,-45.20833 16.0417,-47.29167 18.9583,-52.91667 12.7084,-25.624998 33.125,-25.624998 32.9167,0 60.8334,41.458328 25.4166,37.91667 25.4166,72.70834 0,23.95833 -10.2083,43.74999 -12.2917,23.33334 -33.75,26.45834 -5.625,0.83333 -13.75,0.83333 z m -16.6667,-147.5 q -20,0 -31.0416,36.45834 -5.625,27.08333 -11.25,54.16666 29.5833,21.04167 53.3333,21.04167 15.2083,0 24.1667,-10 9.1666,-10 9.1666,-25.20833 0,-19.79167 -12.9166,-46.25 -14.5834,-30.20834 -31.4584,-30.20834 z"
       style="fill:#000000;fill-opacity:1;stroke:#130000;stroke-width:20;stroke-miterlimit:4;stroke-dasharray:none;stroke-opacity:1"
       id="path862"
       inkscape:connector-curvature="0" />
    <path
       d="m 1573.5698,115.6278 q 0,10.625 -9.7917,23.125 -58.5416,34.58333 -123.3333,34.58333 -11.875,0 -24.375,-1.25 -10.625,7.5 -10.625,20.41667 0,13.33333 10.8333,21.45833 9.5834,7.5 23.3334,7.5 19.375,0 61.0416,-16.875 41.6667,-16.875 59.375,-16.875 10.2084,0 16.6667,4.79167 -70.8333,62.29166 -128.9583,62.29166 -32.7084,0 -51.25,-15.20833 -20,-16.45833 -20,-48.33333 0,-4.79167 0.4166,-13.95833 0.4167,-9.375 0.4167,-14.16667 0,-14.58333 -4.1667,-21.875 18.3334,-3.125 42.7084,-25.625 26.0416,-23.958332 39.1666,-28.124999 21.6667,-6.874999 48.5417,-6.874999 21.875,0 42.2917,7.291666 27.7083,10 27.7083,27.708332 z m -30.2083,0 q -15.4167,-7.70833 -34.1667,-7.70833 -17.2917,0 -35.625,6.875 -20.625,7.70833 -29.5833,20 -4.7917,6.66666 -4.7917,10.41666 0,7.08334 12.7083,7.08334 19.375,0 48.3334,-11.66667 28.9583,-11.66667 43.125,-25 z"
       style="fill:#000000;fill-opacity:1;stroke:#130000;stroke-width:20;stroke-miterlimit:4;stroke-dasharray:none;stroke-opacity:1"
       id="path864"
       inkscape:connector-curvature="0" />
    <path
       d="m 1792.1115,108.7528 q -4.375,12.91667 -24.1667,12.91667 -5,0 -15.2083,-0.625 -10,-0.625 -15,-0.625 -26.875,0 -62.7084,29.79166 -36.875,30.625 -36.875,56.66667 0,12.29166 8.5417,20.83333 8.5417,8.33333 20.8333,8.33333 15.8334,0 57.7084,-21.04166 41.875,-21.25 58.3333,-21.25 19.5833,0 19.5833,14.16667 0,6.25 -2.5,11.04166 -90.4166,45.20833 -134.7916,45.20833 -23.9584,0 -41.875,-12.08333 -20.4167,-13.75 -20.4167,-36.66666 0,-37.08334 41.25,-78.95834 30,-30.41666 73.125,-55.833328 l 5.2083,-0.208334 q 16.4584,-0.833333 36.0417,9.166667 16.4583,9.583333 32.9167,19.166665 z"
       style="fill:#000000;fill-opacity:1;stroke:#130000;stroke-width:20;stroke-miterlimit:4;stroke-dasharray:none;stroke-opacity:1"
       id="path867"
       inkscape:connector-curvature="0" />
    <path
       d="m 1947.7365,67.086135 q -5.625,7.708333 -12.9167,7.708333 -6.875,0 -12.7083,-7.708333 -3.75,0.833334 -16.25,11.25 -11.6667,10 -17.0833,10 -11.4584,0 -11.4584,-25.208333 0,-23.749999 24.1667,-26.874999 14.1667,4.583333 28.5417,9.374999 15.625,6.875 17.7083,21.458333 z m -68.75,60.624995 q -1.0417,13.75 -12.5,42.91667 -10.8333,27.5 -10.8333,42.70833 0,14.58333 15.2083,14.58333 11.4583,0 32.2917,-6.875 16.0416,-5.83333 32.0833,-11.45833 3.9583,5 3.9583,11.04167 0,7.29166 -6.4583,17.08333 -41.4583,24.79167 -72.5,24.79167 -32.0833,0 -32.0833,-34.16667 0,-22.70833 13.5416,-58.54166 16.6667,-43.75 19.375,-57.5 6.875,2.5 17.9167,15.41666 z"
       style="fill:#000000;fill-opacity:1;stroke:#130000;stroke-width:20;stroke-miterlimit:4;stroke-dasharray:none;stroke-opacity:1"
       id="path869"
       inkscape:connector-curvature="0" />
    <path
       d="m 2108.3615,80.211135 q 0,22.916665 -13.75,64.791665 -14.1667,43.54167 -15.2083,65 5.4166,8.125 14.375,9.375 12.9166,1.45833 16.25,3.33333 3.75,7.29167 3.75,14.16667 0,14.375 -26.875,37.08333 -40.4167,2.91667 -45.2084,2.91667 -28.125,0 -48.75,-11.04167 -25.4166,-13.95833 -25.4166,-40 0,-19.79166 18.5416,-33.125 16.6667,-12.08333 37.2917,-12.08333 15,0 27.7083,6.25 20.2084,-33.33333 23.9584,-81.04167 -16.4584,3.125 -51.875,22.5 -32.2917,17.29167 -53.125,18.54167 -13.9584,-11.25 -13.9584,-29.58333 0,-4.58334 1.25,-8.95834 14.7917,-6.45833 68.75,-27.083328 58.5417,-22.291667 63.125,-22.291667 19.1667,0 19.1667,21.25 z m -48.75,155.416665 q -7.7083,-3.54167 -13.5417,-20.625 -8.5416,-3.75 -18.75,-3.75 -23.3333,0 -22.5,18.33333 l 0.2084,3.33333 q 10.2083,10.83334 29.5833,10.83334 16.0417,0 25,-8.125 z"
       style="fill:#000000;fill-opacity:1;stroke:#130000;stroke-width:20;stroke-miterlimit:4;stroke-dasharray:none;stroke-opacity:1"
       id="path871"
       inkscape:connector-curvature="0" />
    <path
       d="m 2217.5282,-7.4971963 q 0,28.5416663 -23.125,44.1666653 -10.2084,92.500001 -17.9167,199.791661 5.8333,5.41667 5.8333,13.125 0,6.875 -4.1666,12.70833 -4.7917,6.45834 -11.4584,6.45834 -7.9166,0 -13.3333,-9.375 3.125,-103.95833 10.625,-182.499998 2.0833,-27.916666 9.7917,-78.5416651 1.875,-8.1249998 12.2916,-16.8749999 10.4167,-8.749999 18.5417,-8.749999 12.9167,0 12.9167,19.7916657 z"
       style="fill:#000000;fill-opacity:1;stroke:#130000;stroke-width:20;stroke-miterlimit:4;stroke-dasharray:none;stroke-opacity:1"
       id="path873"
       inkscape:connector-curvature="0" />
  </g>
  <g
     aria-label="!"
     transform="rotate(16.919198)"
     style="font-style:normal;font-variant:normal;font-weight:normal;font-stretch:normal;font-size:426.66665649px;line-height:1.25;font-family:'Domestic Manners';-inkscape-font-specification:'Domestic Manners, Normal';font-variant-ligatures:normal;font-variant-caps:normal;font-variant-numeric:normal;font-feature-settings:normal;text-align:start;letter-spacing:0px;word-spacing:0px;writing-mode:lr-tb;text-anchor:start;fill:none;fill-opacity:1;stroke:#0d0000;stroke-width:30.00000026;stroke-opacity:1;stroke-miterlimit:4;stroke-dasharray:none;filter:url(#filter1120)"
     id="text928">
    <path
       d="m 664.27917,227.84132 q 0,2.08334 -2.5,10.20834 -2.70833,9.58333 -3.125,11.25 -3.95833,19.58333 -6.25,48.75 -1.66666,23.75 -8.54166,70.41666 -21.25,-24.16666 -21.25,-66.45833 0,-13.75 2.91666,-43.33333 0.41667,-14.79167 2.91667,-43.75 2.70833,-19.375 2.70833,-25.625 0,-4.58333 -0.41666,-13.75 -0.20834,-9.375 -0.20834,-13.95833 0,-26.45834 8.125,-41.45834 26.04167,14.375 26.04167,77.91667 0,5.83333 -0.20833,16.04166 -0.20834,10 -0.20834,13.75 z m -9.375,216.66667 q 0,10.41666 -6.04166,17.70833 -6.04167,7.08333 -16.45834,7.08333 -10.625,0 -18.54166,-11.25 -5.625,-10.20833 -11.04167,-20.41666 0,-16.04167 0.41667,-18.54167 1.875,-12.08333 10,-12.08333 15.41666,0 28.33333,10.83333 13.33333,11.45833 13.33333,26.66667 z"
       style="fill:none;stroke:#0d0000;stroke-opacity:1;stroke-width:30.00000026;stroke-miterlimit:4;stroke-dasharray:none"
       id="path938" />
  </g>
  <g
     id="g932"
     style="font-style:normal;font-variant:normal;font-weight:normal;font-stretch:normal;font-size:867.06665039px;line-height:1.25;font-family:'Comic Sans MS';-inkscape-font-specification:'Comic Sans MS, Normal';font-variant-ligatures:normal;font-variant-caps:normal;font-variant-numeric:normal;font-feature-settings:normal;text-align:start;letter-spacing:0px;word-spacing:0px;writing-mode:lr-tb;text-anchor:start;fill:none;fill-opacity:1;stroke:#0d0000;stroke-width:30.0000004;stroke-opacity:1;stroke-miterlimit:4;stroke-dasharray:none;filter:url(#filter1112)"
     transform="matrix(1.0059972,0.27676635,-0.30601355,0.90984919,-9.7237578,-87.925016)"
     aria-label="Δ">
    <path
       sodipodi:nodetypes="sccccssccssssssccccsccccccccc"
       inkscape:connector-curvature="0"
       id="path930"
       style="font-style:normal;font-variant:normal;font-weight:normal;font-stretch:normal;font-size:867.06665039px;font-family:'Comic Sans MS';-inkscape-font-specification:'Comic Sans MS, Normal';font-variant-ligatures:normal;font-variant-caps:normal;font-variant-numeric:normal;font-feature-settings:normal;text-align:start;writing-mode:lr-tb;text-anchor:start;stroke-width:30.0000004;fill:none;stroke:#0d0000;stroke-opacity:1;stroke-miterlimit:4;stroke-dasharray:none"
       d="m 649.56129,10.71187 c 17.21714,0 33.16417,14.253537 47.84108,42.760611 l 27.94257,66.892839 107.95996,237.08854 c 41.49049,92.57743 75.07804,172.73593 100.76263,240.47551 18.91063,49.67569 28.36595,82.13424 28.36595,97.37565 0,33.30529 -21.87424,49.95794 -65.62272,49.95794 -19.19288,0 -43.46623,-1.55236 -72.82005,-4.65709 l -72.82005,-7.62071 c -28.22483,-2.25799 -60.26,-3.38698 -96.10553,-3.38698 -20.88637,0 -52.07481,0.28225 -93.5653,0.84675 -41.49049,0.56449 -72.67893,0.84674 -93.5653,0.84674 -11.85443,0 -29.77719,0.98787 -53.76829,2.96361 -23.9911,1.97574 -41.91386,2.96361 -53.76829,2.96361 -22.86211,0 -34.29317,-10.01981 -34.29317,-30.05944 0,-12.41893 17.78164,-56.16741 53.34492,-131.24544 l 67.31621,-143.09987 99.49251,-248.09622 c 9.31419,-27.94257 25.1201,-69.00969 47.41771,-123.201363 C 609.76428,27.646766 628.39267,10.71187 649.56129,10.71187 Z M 909.0776,681.40414 C 883.11076,608.86634 844.48729,496.55425 798.76307,397.76735 L 646.98083,82.883327 C 608.31282,186.75069 549.3971,341.88159 514.39832,424.86257 l -45.49199,106.09121 c -19.19289,43.46623 -69.9167,126.39507 -85.15811,153.77315 l 245.64834,-15.17952 c 49.39345,0 110.53438,-4.24103 144.40417,-0.85405 21.16862,3.10473 92.65738,8.47706 135.27687,12.71078 z" />
  </g>
  <g
     aria-label="limited"
     transform="rotate(16.9192,672.35834,-100)"
     style="font-style:normal;font-variant:normal;font-weight:normal;font-stretch:normal;font-size:426.66665649px;line-height:1.25;font-family:'Domestic Manners';-inkscape-font-specification:'Domestic Manners, Normal';font-variant-ligatures:normal;font-variant-caps:normal;font-variant-numeric:normal;font-feature-settings:normal;text-align:start;letter-spacing:0px;word-spacing:0px;writing-mode:lr-tb;text-anchor:start;fill:none;fill-opacity:1;stroke:#0d0000;stroke-width:30;stroke-miterlimit:4;stroke-dasharray:none;stroke-opacity:1;filter:url(#filter1116)"
     id="text936" />
  <text
     xml:space="preserve"
     style="font-style:normal;font-variant:normal;font-weight:normal;font-stretch:normal;font-size:400px;line-height:1.25;font-family:Judson;-inkscape-font-specification:Judson;letter-spacing:0px;word-spacing:0px;fill:#000000;fill-opacity:1;stroke:none;stroke-width:10"
     x="635.20563"
     y="445.83975"
     id="text868"><tspan
       sodipodi:role="line"
       id="tspan866"
       x="635.20563"
       y="808.18231"
       style="stroke-width:10" /></text>
  <text
     xml:space="preserve"
     style="font-style:normal;font-variant:normal;font-weight:normal;font-stretch:normal;font-size:426.66665649px;line-height:1.25;font-family:'Domestic Manners';-inkscape-font-specification:'Domestic Manners, Normal';font-variant-ligatures:normal;font-variant-caps:normal;font-variant-numeric:normal;font-feature-settings:normal;text-align:start;letter-spacing:0px;word-spacing:0px;writing-mode:lr-tb;text-anchor:start;fill:#fffe00;fill-opacity:1;stroke:none;stroke-width:10"
     x="573.02917"
     y="471.79965"
     id="text59"
     transform="rotate(16.919198)"><tspan
       sodipodi:role="line"
       id="tspan869"
       x="573.02917"
       y="471.79965">!</tspan></text>
  <g
     aria-label="Δ"
     transform="matrix(1.0059972,0.27676635,-0.30601355,0.90984919,-9.7237578,-87.925016)"
     style="font-style:normal;font-variant:normal;font-weight:normal;font-stretch:normal;font-size:867.06665039px;line-height:1.25;font-family:'Comic Sans MS';-inkscape-font-specification:'Comic Sans MS, Normal';font-variant-ligatures:normal;font-variant-caps:normal;font-variant-numeric:normal;font-feature-settings:normal;text-align:start;letter-spacing:0px;word-spacing:0px;writing-mode:lr-tb;text-anchor:start;fill:#ffff00;fill-opacity:1;stroke:none;stroke-width:10.00000095"
     id="text59-3">
    <path
       d="m 649.56129,10.71187 c 17.21714,0 33.16417,14.253537 47.84108,42.760611 l 27.94257,66.892839 107.95996,237.08854 c 41.49049,92.57743 75.07804,172.73593 100.76263,240.47551 18.91063,49.67569 28.36595,82.13424 28.36595,97.37565 0,33.30529 -21.87424,49.95794 -65.62272,49.95794 -19.19288,0 -43.46623,-1.55236 -72.82005,-4.65709 l -72.82005,-7.62071 c -28.22483,-2.25799 -60.26,-3.38698 -96.10553,-3.38698 -20.88637,0 -52.07481,0.28225 -93.5653,0.84675 -41.49049,0.56449 -72.67893,0.84674 -93.5653,0.84674 -11.85443,0 -29.77719,0.98787 -53.76829,2.96361 -23.9911,1.97574 -41.91386,2.96361 -53.76829,2.96361 -22.86211,0 -34.29317,-10.01981 -34.29317,-30.05944 0,-12.41893 17.78164,-56.16741 53.34492,-131.24544 l 67.31621,-143.09987 99.49251,-248.09622 c 9.31419,-27.94257 25.1201,-69.00969 47.41771,-123.201363 C 609.76428,27.646766 628.39267,10.71187 649.56129,10.71187 Z M 909.0776,681.40414 C 883.11076,608.86634 844.48729,496.55425 798.76307,397.76735 L 646.98083,82.883327 C 608.31282,186.75069 549.3971,341.88159 514.39832,424.86257 l -45.49199,106.09121 c -19.19289,43.46623 -69.9167,126.39507 -85.15811,153.77315 l 245.64834,-15.17952 c 49.39345,0 110.53438,-4.24103 144.40417,-0.85405 21.16862,3.10473 92.65738,8.47706 135.27687,12.71078 z"
       style="font-style:normal;font-variant:normal;font-weight:normal;font-stretch:normal;font-size:867.06665039px;font-family:'Comic Sans MS';-inkscape-font-specification:'Comic Sans MS, Normal';font-variant-ligatures:normal;font-variant-caps:normal;font-variant-numeric:normal;font-feature-settings:normal;text-align:start;writing-mode:lr-tb;text-anchor:start;stroke-width:10.00000095"
       id="path866"
       inkscape:connector-curvature="0"
       sodipodi:nodetypes="sccccssccssssssccccsccccccccc" />
  </g>
  <text
     xml:space="preserve"
     style="font-style:normal;font-variant:normal;font-weight:normal;font-stretch:normal;font-size:426.66665649px;line-height:1.25;font-family:'Domestic Manners';-inkscape-font-specification:'Domestic Manners, Normal';font-variant-ligatures:normal;font-variant-caps:normal;font-variant-numeric:normal;font-feature-settings:normal;text-align:start;letter-spacing:0px;word-spacing:0px;writing-mode:lr-tb;text-anchor:start;fill:#fffe00;fill-opacity:1;stroke:none;stroke-width:10"
     x="948.63739"
     y="256.125"
     id="text59-5"
     transform="rotate(16.9192)"><tspan
       sodipodi:role="line"
       id="tspan840"
       x="948.63739"
       y="256.125">special</tspan></text>
</svg>
