<?xml version="1.0" encoding="UTF-8" standalone="no"?>
<!DOCTYPE svg PUBLIC "-//W3C//DTD SVG 1.1//EN"
 "http://www.w3.org/Graphics/SVG/1.1/DTD/svg11.dtd">
<!-- Generated by graphviz version 2.38.0 (20140413.2041)
 -->
<!-- Title: %3 Pages: 1 -->
<svg width="910pt" height="340pt"
 viewBox="0.00 0.00 910.00 340.00" xmlns="http://www.w3.org/2000/svg" xmlns:xlink="http://www.w3.org/1999/xlink">
<g id="graph0" class="graph" transform="scale(1 1) rotate(0) translate(4 336)">
<title>%3</title>
<!-- org.wildfly -->
<g id="node1" class="node"><title>org.wildfly</title>
<polygon fill="beige" stroke="black" stroke-width="2" points="571.5,-332 494.5,-332 494.5,-296 571.5,-296 571.5,-332"/>
<text text-anchor="middle" x="533" y="-310.3" font-family="Helvetica,sans-Serif" font-size="14.00">org.wildfly</text>
</g>
<!-- org.wildfly.core -->
<g id="node2" class="node"><title>org.wildfly.core</title>
<polygon fill="beige" stroke="black" stroke-width="2" points="646.5,-259 539.5,-259 539.5,-223 646.5,-223 646.5,-259"/>
<text text-anchor="middle" x="593" y="-237.3" font-family="Helvetica,sans-Serif" font-size="14.00">org.wildfly.core</text>
</g>
<!-- org.wildfly&#45;&gt;org.wildfly.core -->
<g id="edge6" class="edge"><title>org.wildfly&#45;&gt;org.wildfly.core</title>
<path fill="none" stroke="black" d="M547.524,-295.813C554.894,-287.092 563.98,-276.34 572.088,-266.746"/>
<polygon fill="black" stroke="black" points="574.828,-268.926 578.609,-259.029 569.482,-264.408 574.828,-268.926"/>
</g>
<!-- org.jboss.log* -->
<g id="node4" class="node"><title>org.jboss.log*</title>
<polygon fill="beige" stroke="black" stroke-width="2" points="98,-111 0,-111 0,-75 98,-75 98,-111"/>
<text text-anchor="middle" x="49" y="-89.3" font-family="Helvetica,sans-Serif" font-size="14.00">org.jboss.log*</text>
</g>
<!-- org.wildfly&#45;&gt;org.jboss.log* -->
<g id="edge2" class="edge"><title>org.wildfly&#45;&gt;org.jboss.log*</title>
<path fill="none" stroke="black" d="M494.472,-313.632C408.924,-312.874 201.66,-298.76 87,-186 69.1631,-168.459 59.3478,-141.337 54.1857,-121.079"/>
<polygon fill="black" stroke="black" points="57.5627,-120.148 51.8925,-111.198 50.7439,-121.73 57.5627,-120.148"/>
</g>
<!-- 20+ other jboss\ncomponents -->
<g id="node6" class="node"><title>20+ other jboss\ncomponents</title>
<polygon fill="none" stroke="royalblue" points="406,-260 296,-260 296,-222 406,-222 406,-260"/>
<text text-anchor="middle" x="351" y="-244.8" font-family="Helvetica,sans-Serif" font-size="14.00" fill="royalblue">20+ other jboss</text>
<text text-anchor="middle" x="351" y="-229.8" font-family="Helvetica,sans-Serif" font-size="14.00" fill="royalblue">components</text>
</g>
<!-- org.wildfly&#45;&gt;20+ other jboss\ncomponents -->
<g id="edge7" class="edge"><title>org.wildfly&#45;&gt;20+ other jboss\ncomponents</title>
<path fill="none" stroke="royalblue" d="M494.402,-297.943C468.903,-287.995 435.077,-274.799 406.681,-263.722"/>
<polygon fill="royalblue" stroke="royalblue" points="407.868,-260.428 397.279,-260.054 405.323,-266.949 407.868,-260.428"/>
</g>
<!-- 50+ 3rd party\ncomponents -->
<g id="node7" class="node"><title>50+ 3rd party\ncomponents</title>
<polygon fill="none" stroke="dimgray" points="521.5,-260 424.5,-260 424.5,-222 521.5,-222 521.5,-260"/>
<text text-anchor="middle" x="473" y="-244.8" font-family="Helvetica,sans-Serif" font-size="14.00" fill="dimgray">50+ 3rd party</text>
<text text-anchor="middle" x="473" y="-229.8" font-family="Helvetica,sans-Serif" font-size="14.00" fill="dimgray">components</text>
</g>
<!-- org.wildfly&#45;&gt;50+ 3rd party\ncomponents -->
<g id="edge8" class="edge"><title>org.wildfly&#45;&gt;50+ 3rd party\ncomponents</title>
<path fill="none" stroke="dimgray" d="M518.476,-295.813C511.394,-287.433 502.728,-277.178 494.868,-267.877"/>
<polygon fill="dimgray" stroke="dimgray" points="497.356,-265.398 488.228,-260.02 492.009,-269.917 497.356,-265.398"/>
</g>
<!-- org.jboss\n.jandex -->
<g id="node12" class="node"><title>org.jboss\n.jandex</title>
<polygon fill="none" stroke="black" points="690.5,-186 619.5,-186 619.5,-148 690.5,-148 690.5,-186"/>
<text text-anchor="middle" x="655" y="-170.8" font-family="Helvetica,sans-Serif" font-size="14.00">org.jboss</text>
<text text-anchor="middle" x="655" y="-155.8" font-family="Helvetica,sans-Serif" font-size="14.00">.jandex</text>
</g>
<!-- org.wildfly&#45;&gt;org.jboss\n.jandex -->
<g id="edge1" class="edge"><title>org.wildfly&#45;&gt;org.jboss\n.jandex</title>
<path fill="none" stroke="black" d="M571.562,-307.54C599.935,-301.284 636.636,-288 655,-260 667.252,-241.32 666.116,-215.59 662.564,-196.09"/>
<polygon fill="black" stroke="black" points="665.977,-195.313 660.479,-186.256 659.13,-196.765 665.977,-195.313"/>
</g>
<!-- org.jboss\n.shrinkwrap.* -->
<g id="node13" class="node"><title>org.jboss\n.shrinkwrap.*</title>
<polygon fill="none" stroke="black" points="803.5,-186 708.5,-186 708.5,-148 803.5,-148 803.5,-186"/>
<text text-anchor="middle" x="756" y="-170.8" font-family="Helvetica,sans-Serif" font-size="14.00">org.jboss</text>
<text text-anchor="middle" x="756" y="-155.8" font-family="Helvetica,sans-Serif" font-size="14.00">.shrinkwrap.*</text>
</g>
<!-- org.wildfly&#45;&gt;org.jboss\n.shrinkwrap.* -->
<g id="edge3" class="edge"><title>org.wildfly&#45;&gt;org.jboss\n.shrinkwrap.*</title>
<path fill="none" stroke="black" d="M571.593,-303.93C601.364,-295.7 642.621,-281.522 674,-260 699.783,-242.316 722.849,-214.846 737.899,-194.522"/>
<polygon fill="black" stroke="black" points="740.821,-196.454 743.843,-186.299 735.148,-192.353 740.821,-196.454"/>
</g>
<!-- org.jboss.spec.* -->
<g id="node14" class="node"><title>org.jboss.spec.*</title>
<polygon fill="none" stroke="black" points="562.5,-111 449.5,-111 449.5,-75 562.5,-75 562.5,-111"/>
<text text-anchor="middle" x="506" y="-89.3" font-family="Helvetica,sans-Serif" font-size="14.00">org.jboss.spec.*</text>
</g>
<!-- org.wildfly&#45;&gt;org.jboss.spec.* -->
<g id="edge4" class="edge"><title>org.wildfly&#45;&gt;org.jboss.spec.*</title>
<path fill="none" stroke="black" d="M494.362,-310.431C431.777,-305.375 312.629,-291.738 287,-260 275.912,-246.269 273.074,-168.596 290,-148 331.574,-97.4108 369.981,-126.143 439.176,-111.928"/>
<polygon fill="black" stroke="black" points="440.192,-115.285 449.148,-109.624 438.616,-108.465 440.192,-115.285"/>
</g>
<!-- org.picket* -->
<g id="node15" class="node"><title>org.picket*</title>
<polygon fill="none" stroke="black" points="902,-185 822,-185 822,-149 902,-149 902,-185"/>
<text text-anchor="middle" x="862" y="-163.3" font-family="Helvetica,sans-Serif" font-size="14.00">org.picket*</text>
</g>
<!-- org.wildfly&#45;&gt;org.picket* -->
<g id="edge5" class="edge"><title>org.wildfly&#45;&gt;org.picket*</title>
<path fill="none" stroke="black" d="M571.514,-304.223C607.631,-295.326 662.708,-280.025 708,-260 751.943,-240.572 798.849,-211.149 829.19,-190.833"/>
<polygon fill="black" stroke="black" points="831.346,-193.601 837.672,-185.101 827.426,-187.801 831.346,-193.601"/>
</g>
<!-- io.undertow -->
<g id="node3" class="node"><title>io.undertow</title>
<polygon fill="beige" stroke="black" stroke-width="2" points="243,-185 157,-185 157,-149 243,-149 243,-185"/>
<text text-anchor="middle" x="200" y="-163.3" font-family="Helvetica,sans-Serif" font-size="14.00">io.undertow</text>
</g>
<!-- org.wildfly.core&#45;&gt;io.undertow -->
<g id="edge10" class="edge"><title>org.wildfly.core&#45;&gt;io.undertow</title>
<path fill="none" stroke="black" d="M539.16,-224.121C536.071,-223.365 533.002,-222.651 530,-222 424.591,-199.136 396.247,-204.582 290,-186 278.105,-183.92 265.366,-181.494 253.325,-179.109"/>
<polygon fill="black" stroke="black" points="253.901,-175.655 243.408,-177.124 252.527,-182.519 253.901,-175.655"/>
</g>
<!-- org.wildfly.core&#45;&gt;org.jboss.log* -->
<g id="edge12" class="edge"><title>org.wildfly.core&#45;&gt;org.jboss.log*</title>
<path fill="none" stroke="black" d="M539.202,-223.913C536.102,-223.209 533.019,-222.564 530,-222 443.575,-205.853 215.082,-224.418 136,-186 105.761,-171.31 80.6032,-141.339 65.247,-119.587"/>
<polygon fill="black" stroke="black" points="67.9994,-117.411 59.4703,-111.126 62.2182,-121.358 67.9994,-117.411"/>
</g>
<!-- org.jboss.modules -->
<g id="node5" class="node"><title>org.jboss.modules</title>
<polygon fill="beige" stroke="black" stroke-width="2" points="446.5,-37 319.5,-37 319.5,-1 446.5,-1 446.5,-37"/>
<text text-anchor="middle" x="383" y="-15.3" font-family="Helvetica,sans-Serif" font-size="14.00">org.jboss.modules</text>
</g>
<!-- org.wildfly.core&#45;&gt;org.jboss.modules -->
<g id="edge13" class="edge"><title>org.wildfly.core&#45;&gt;org.jboss.modules</title>
<path fill="none" stroke="black" d="M596.274,-222.767C601.503,-189.644 607.729,-116.608 571,-74 542.793,-41.2777 496.193,-27.7423 456.446,-22.405"/>
<polygon fill="black" stroke="black" points="456.849,-18.9282 446.504,-21.218 456.019,-25.8789 456.849,-18.9282"/>
</g>
<!-- 25+ other jboss\ncomponents -->
<g id="node8" class="node"><title>25+ other jboss\ncomponents</title>
<polygon fill="none" stroke="royalblue" points="409,-186 299,-186 299,-148 409,-148 409,-186"/>
<text text-anchor="middle" x="354" y="-170.8" font-family="Helvetica,sans-Serif" font-size="14.00" fill="royalblue">25+ other jboss</text>
<text text-anchor="middle" x="354" y="-155.8" font-family="Helvetica,sans-Serif" font-size="14.00" fill="royalblue">components</text>
</g>
<!-- org.wildfly.core&#45;&gt;25+ other jboss\ncomponents -->
<g id="edge17" class="edge"><title>org.wildfly.core&#45;&gt;25+ other jboss\ncomponents</title>
<path fill="none" stroke="royalblue" d="M539.364,-223.842C503.737,-213.109 456.751,-198.954 419,-187.581"/>
<polygon fill="royalblue" stroke="royalblue" points="419.7,-184.137 409.115,-184.604 417.68,-190.84 419.7,-184.137"/>
</g>
<!-- 20+ 3rd party\ncomponents -->
<g id="node9" class="node"><title>20+ 3rd party\ncomponents</title>
<polygon fill="none" stroke="dimgray" points="524.5,-186 427.5,-186 427.5,-148 524.5,-148 524.5,-186"/>
<text text-anchor="middle" x="476" y="-170.8" font-family="Helvetica,sans-Serif" font-size="14.00" fill="dimgray">20+ 3rd party</text>
<text text-anchor="middle" x="476" y="-155.8" font-family="Helvetica,sans-Serif" font-size="14.00" fill="dimgray">components</text>
</g>
<!-- org.wildfly.core&#45;&gt;20+ 3rd party\ncomponents -->
<g id="edge18" class="edge"><title>org.wildfly.core&#45;&gt;20+ 3rd party\ncomponents</title>
<path fill="none" stroke="dimgray" d="M565.273,-222.937C550.106,-213.604 531.082,-201.897 514.497,-191.69"/>
<polygon fill="dimgray" stroke="dimgray" points="515.925,-188.459 505.574,-186.199 512.256,-194.421 515.925,-188.459"/>
</g>
<!-- org.wildfly.core&#45;&gt;org.jboss\n.jandex -->
<g id="edge9" class="edge"><title>org.wildfly.core&#45;&gt;org.jboss\n.jandex</title>
<path fill="none" stroke="black" d="M607.693,-222.937C615.135,-214.295 624.329,-203.618 632.627,-193.982"/>
<polygon fill="black" stroke="black" points="635.455,-196.061 639.328,-186.199 630.151,-191.493 635.455,-196.061"/>
</g>
<!-- org.wildfly.core&#45;&gt;org.jboss\n.shrinkwrap.* -->
<g id="edge14" class="edge"><title>org.wildfly.core&#45;&gt;org.jboss\n.shrinkwrap.*</title>
<path fill="none" stroke="black" d="M631.629,-222.937C653.819,-213.135 681.938,-200.715 705.823,-190.164"/>
<polygon fill="black" stroke="black" points="707.354,-193.314 715.087,-186.072 704.525,-186.911 707.354,-193.314"/>
</g>
<!-- org.wildfly.core&#45;&gt;org.jboss.spec.* -->
<g id="edge15" class="edge"><title>org.wildfly.core&#45;&gt;org.jboss.spec.*</title>
<path fill="none" stroke="black" d="M582.85,-222.966C567.739,-197.607 539.209,-149.73 521.483,-119.983"/>
<polygon fill="black" stroke="black" points="524.481,-118.177 516.355,-111.378 518.468,-121.76 524.481,-118.177"/>
</g>
<!-- org.wildfly.core&#45;&gt;org.picket* -->
<g id="edge16" class="edge"><title>org.wildfly.core&#45;&gt;org.picket*</title>
<path fill="none" stroke="black" d="M646.524,-228.436C691.124,-218.411 756.15,-202.889 812,-186 812.099,-185.97 812.199,-185.94 812.298,-185.91"/>
<polygon fill="black" stroke="black" points="813.267,-189.274 821.732,-182.902 811.141,-182.605 813.267,-189.274"/>
</g>
<!-- org.jboss\n.classfilewriter -->
<g id="node16" class="node"><title>org.jboss\n.classfilewriter</title>
<polygon fill="none" stroke="black" points="217.5,-112 116.5,-112 116.5,-74 217.5,-74 217.5,-112"/>
<text text-anchor="middle" x="167" y="-96.8" font-family="Helvetica,sans-Serif" font-size="14.00">org.jboss</text>
<text text-anchor="middle" x="167" y="-81.8" font-family="Helvetica,sans-Serif" font-size="14.00">.classfilewriter</text>
</g>
<!-- org.wildfly.core&#45;&gt;org.jboss\n.classfilewriter -->
<g id="edge11" class="edge"><title>org.wildfly.core&#45;&gt;org.jboss\n.classfilewriter</title>
<path fill="none" stroke="black" d="M539.2,-223.923C536.101,-223.217 533.018,-222.568 530,-222 446.208,-206.221 205.393,-249.056 148,-186 132.173,-168.611 140.198,-141.631 150.23,-121.376"/>
<polygon fill="black" stroke="black" points="153.44,-122.794 155.06,-112.324 147.264,-119.498 153.44,-122.794"/>
</g>
<!-- io.undertow&#45;&gt;org.jboss.log* -->
<g id="edge21" class="edge"><title>io.undertow&#45;&gt;org.jboss.log*</title>
<path fill="none" stroke="black" d="M164.215,-148.937C143.23,-138.931 116.521,-126.196 94.1046,-115.507"/>
<polygon fill="black" stroke="black" points="95.3222,-112.21 84.7894,-111.065 92.3094,-118.528 95.3222,-112.21"/>
</g>
<!-- 8 3rd party\ncomponents -->
<g id="node10" class="node"><title>8 3rd party\ncomponents</title>
<polygon fill="none" stroke="dimgray" points="431.5,-112 340.5,-112 340.5,-74 431.5,-74 431.5,-112"/>
<text text-anchor="middle" x="386" y="-96.8" font-family="Helvetica,sans-Serif" font-size="14.00" fill="dimgray">8 3rd party</text>
<text text-anchor="middle" x="386" y="-81.8" font-family="Helvetica,sans-Serif" font-size="14.00" fill="dimgray">components</text>
</g>
<!-- io.undertow&#45;&gt;8 3rd party\ncomponents -->
<g id="edge23" class="edge"><title>io.undertow&#45;&gt;8 3rd party\ncomponents</title>
<path fill="none" stroke="dimgray" d="M243.14,-149.301C269.251,-139.193 302.808,-126.203 330.837,-115.353"/>
<polygon fill="dimgray" stroke="dimgray" points="332.437,-118.487 340.499,-111.613 329.91,-111.959 332.437,-118.487"/>
</g>
<!-- io.undertow&#45;&gt;org.jboss.spec.* -->
<g id="edge22" class="edge"><title>io.undertow&#45;&gt;org.jboss.spec.*</title>
<path fill="none" stroke="black" d="M243.114,-151.828C247.78,-150.461 252.475,-149.156 257,-148 334.177,-128.289 357.489,-130.686 438.954,-112.142"/>
<polygon fill="black" stroke="black" points="440.231,-115.439 449.184,-109.774 438.653,-108.62 440.231,-115.439"/>
</g>
<!-- io.undertow&#45;&gt;org.jboss\n.classfilewriter -->
<g id="edge20" class="edge"><title>io.undertow&#45;&gt;org.jboss\n.classfilewriter</title>
<path fill="none" stroke="black" d="M192.179,-148.937C188.417,-140.727 183.812,-130.681 179.574,-121.434"/>
<polygon fill="black" stroke="black" points="182.69,-119.832 175.341,-112.199 176.326,-122.748 182.69,-119.832"/>
</g>
<!-- io.undertow\n.jastow -->
<g id="node17" class="node"><title>io.undertow\n.jastow</title>
<polygon fill="none" stroke="black" points="322,-112 236,-112 236,-74 322,-74 322,-112"/>
<text text-anchor="middle" x="279" y="-96.8" font-family="Helvetica,sans-Serif" font-size="14.00">io.undertow</text>
<text text-anchor="middle" x="279" y="-81.8" font-family="Helvetica,sans-Serif" font-size="14.00">.jastow</text>
</g>
<!-- io.undertow&#45;&gt;io.undertow\n.jastow -->
<g id="edge19" class="edge"><title>io.undertow&#45;&gt;io.undertow\n.jastow</title>
<path fill="none" stroke="black" d="M218.722,-148.937C228.488,-140.036 240.624,-128.976 251.441,-119.117"/>
<polygon fill="black" stroke="black" points="253.998,-121.522 259.031,-112.199 249.283,-116.348 253.998,-121.522"/>
</g>
<!-- org.jboss.log*&#45;&gt;org.jboss.modules -->
<g id="edge24" class="edge"><title>org.jboss.log*&#45;&gt;org.jboss.modules</title>
<path fill="none" stroke="black" d="M98.2586,-76.3169C101.207,-75.5013 104.138,-74.722 107,-74 174.856,-56.8855 253.246,-42.008 309.104,-32.2274"/>
<polygon fill="black" stroke="black" points="310.011,-35.6223 319.264,-30.4611 308.812,-28.7257 310.011,-35.6223"/>
</g>
<!-- ? 3rd party\ncomponents -->
<g id="node11" class="node"><title>? 3rd party\ncomponents</title>
<polygon fill="none" stroke="dimgray" points="94.5,-38 3.5,-38 3.5,-0 94.5,-0 94.5,-38"/>
<text text-anchor="middle" x="49" y="-22.8" font-family="Helvetica,sans-Serif" font-size="14.00" fill="dimgray">? 3rd party</text>
<text text-anchor="middle" x="49" y="-7.8" font-family="Helvetica,sans-Serif" font-size="14.00" fill="dimgray">components</text>
</g>
<!-- org.jboss.log*&#45;&gt;? 3rd party\ncomponents -->
<g id="edge25" class="edge"><title>org.jboss.log*&#45;&gt;? 3rd party\ncomponents</title>
<path fill="none" stroke="dimgray" d="M49,-74.937C49,-66.9865 49,-57.3134 49,-48.3127"/>
<polygon fill="dimgray" stroke="dimgray" points="52.5001,-48.1991 49,-38.1992 45.5001,-48.1992 52.5001,-48.1991"/>
</g>
</g>
</svg>
