<?xml version="1.0" encoding="UTF-8" standalone="no"?>
<svg
   xmlns:dc="http://purl.org/dc/elements/1.1/"
   xmlns:cc="http://creativecommons.org/ns#"
   xmlns:rdf="http://www.w3.org/1999/02/22-rdf-syntax-ns#"
   xmlns:svg="http://www.w3.org/2000/svg"
   xmlns="http://www.w3.org/2000/svg"
   xmlns:sodipodi="http://sodipodi.sourceforge.net/DTD/sodipodi-0.dtd"
   xmlns:inkscape="http://www.inkscape.org/namespaces/inkscape"
   height="147.61mm"
   width="821.11mm"
   version="1.1"
   viewBox="0 0 2909.4342 523.03042"
   id="svg934"
   sodipodi:docname="openshift-white.svg"
   inkscape:version="0.92.2 (5c3e80d, 2017-08-06)">
  <metadata
     id="metadata940">
    <rdf:RDF>
      <cc:Work
         rdf:about="">
        <dc:format>image/svg+xml</dc:format>
        <dc:type
           rdf:resource="http://purl.org/dc/dcmitype/StillImage" />
        <dc:title></dc:title>
      </cc:Work>
    </rdf:RDF>
  </metadata>
  <defs
     id="defs938" />
  <sodipodi:namedview
     pagecolor="#ffffff"
     bordercolor="#666666"
     borderopacity="1"
     objecttolerance="10"
     gridtolerance="10"
     guidetolerance="10"
     inkscape:pageopacity="0"
     inkscape:pageshadow="2"
     inkscape:window-width="1912"
     inkscape:window-height="1051"
     id="namedview936"
     showgrid="false"
     inkscape:pagecheckerboard="true"
     inkscape:zoom="0.30486128"
     inkscape:cx="1510.8339"
     inkscape:cy="119.94312"
     inkscape:window-x="1920"
     inkscape:window-y="0"
     inkscape:window-maximized="1"
     inkscape:current-layer="svg934" />
  <path
     inkscape:connector-curvature="0"
     d="m 825.89,119.83 c -14.78,0 -28.02,1.97 -39.74,5.92 -11.72,3.82 -22.1,9.11 -31.14,15.86 -8.92,6.62 -16.56,14.52 -22.93,23.69 -6.37,9.04 -11.59,18.85 -15.67,29.42 -3.95,10.45 -6.87,21.4 -8.79,32.87 -1.78,11.33 -2.67,22.61 -2.67,33.81 0,11.34 0.89,22.74 2.67,34.2 1.92,11.34 4.84,22.29 8.79,32.86 4.08,10.45 9.3,20.26 15.67,29.43 6.37,9.04 14.01,16.94 22.93,23.69 9.04,6.62 19.42,11.91 31.14,15.86 11.72,3.82 24.97,5.73 39.74,5.73 14.78,0 27.96,-1.91 39.55,-5.73 11.72,-3.95 22.04,-9.24 30.95,-15.86 8.92,-6.75 16.56,-14.65 22.93,-23.69 6.37,-9.17 11.53,-18.98 15.48,-29.43 4.07,-10.57 7,-21.52 8.79,-32.86 1.91,-11.46 2.86,-22.86 2.86,-34.2 0,-11.2 -0.95,-22.48 -2.86,-33.81 -1.79,-11.47 -4.72,-22.42 -8.79,-32.87 -3.95,-10.57 -9.11,-20.38 -15.48,-29.42 -6.37,-9.17 -14.01,-17.07 -22.93,-23.69 -8.91,-6.75 -19.23,-12.04 -30.95,-15.86 -11.59,-3.95 -24.77,-5.92 -39.55,-5.92 z m 1065.9,0 c -13.9,0 -26.3,1.91 -37.1,5.73 -10.8,3.83 -19.9,9.05 -27.3,15.67 -7.4,6.5 -13.1,14.08 -17,22.74 -3.8,8.66 -5.8,17.83 -5.8,27.51 0,11.59 2.1,21.4 6.2,29.43 4,8.02 9.4,14.9 16,20.63 6.6,5.73 14.2,10.57 22.6,14.52 8.5,3.95 17.2,7.52 25.9,10.7 9,3.18 17.6,6.31 26,9.36 8.6,3.06 16.1,6.63 22.8,10.7 6.6,4.08 11.9,8.92 16,14.52 4.1,5.48 6.1,12.3 6.1,20.45 0,6.88 -1.2,12.99 -3.6,18.34 -2.4,5.22 -5.8,9.62 -10.1,13.18 -4.4,3.57 -9.6,6.24 -15.7,8.03 -6.1,1.78 -12.9,2.67 -20.2,2.67 -7.4,0 -14.4,-1.02 -20.9,-3.06 -6.3,-2.03 -12.2,-4.84 -17.6,-8.4 -5.3,-3.7 -10.1,-8.09 -14.3,-13.19 -4.1,-5.09 -7.5,-10.7 -10.3,-16.81 l -38.4,13.95 c 3.4,10.19 8.3,19.42 14.5,27.7 6.3,8.15 13.6,15.16 22.2,21.02 8.6,5.73 18.3,10.13 28.8,13.18 10.7,3.19 22.2,4.78 34.4,4.78 13.1,0 25.4,-1.79 36.7,-5.35 11.5,-3.7 21.4,-8.98 29.8,-15.86 8.4,-7.01 15,-15.54 19.7,-25.6 4.8,-10.19 7.3,-21.85 7.3,-34.97 0,-12.35 -2.1,-22.93 -6.2,-31.71 -4,-8.92 -9.4,-16.5 -16,-22.74 -6.6,-6.37 -14.2,-11.72 -22.7,-16.05 -8.5,-4.46 -17.1,-8.34 -26,-11.66 -8.8,-3.44 -17.5,-6.56 -26,-9.36 -8.4,-2.93 -15.9,-6.11 -22.6,-9.55 -6.6,-3.44 -11.9,-7.39 -16,-11.85 -4.1,-4.58 -6.1,-10.12 -6.1,-16.62 0,-10.44 3.7,-18.53 11.1,-24.26 7.3,-5.74 17.6,-8.6 30.7,-8.6 6.6,0 12.6,0.7 18,2.1 5.5,1.4 10.3,3.38 14.5,5.92 4.2,2.42 7.8,5.35 10.7,8.79 2.9,3.31 5.2,6.94 6.9,10.89 v 0.01 l 37.6,-12.61 c -2.4,-7.77 -6,-14.97 -10.7,-21.59 -4.7,-6.63 -10.6,-12.36 -17.8,-17.2 -7,-4.84 -15.2,-8.6 -24.6,-11.27 -9.4,-2.81 -19.9,-4.21 -31.5,-4.21 z m 748.2,4.58 v 39.17 h 77.5 V 398.4 h 40.7 V 163.58 h 77.4 v -39.17 z m -1632.6,0.02 v 273.97 0.01 h 52.9 V 297.53 h 64.6 c 11,0 21,-1.21 30,-3.63 9,-2.42 17,-5.74 23.8,-9.94 7,-4.33 13,-9.3 18,-14.9 5,-5.61 9,-11.59 12.2,-17.96 3.2,-6.5 5.6,-13.12 7.1,-19.87 1.5,-6.88 2.3,-13.63 2.3,-20.25 0,-10.58 -1.7,-21.02 -5,-31.34 -3.2,-10.31 -8.4,-19.55 -15.8,-27.7 -7.4,-8.28 -17,-14.9 -28.9,-19.87 -11.8,-5.1 -26.4,-7.64 -43.7,-7.64 z m 262.3,0 v 273.97 0.01 h 195.2 v -50.06 h -142.3 v -66.11 h 78.9 v -50.05 h -78.9 v -57.51 h 134.1 v -50.25 z m 252.2,0 V 398.4 h 52.5 V 238.67 c 0,-2.93 -0.1,-6.37 -0.4,-10.32 -0.1,-3.95 -0.3,-7.38 -0.7,-10.31 1.5,3.31 3.3,6.94 5.3,10.89 2.2,3.82 4.2,7.07 5.9,9.74 l 108.8,159.73 h 47 V 124.43 h -52.4 v 157.81 c 0,2.55 0.1,5.74 0.2,9.56 0.3,3.69 0.6,7.39 1,11.08 -1.7,-3.57 -3.6,-7.26 -5.8,-11.08 -2.1,-3.82 -4.1,-7.01 -5.7,-9.56 l -106,-157.81 z m 524.9,0 V 398.4 h 40.7 V 276.31 h 125 V 398.4 h 40.6 V 124.43 h -40.6 v 113.49 h -125 V 124.43 Z m 278.8,0 V 398.4 h 40.7 V 124.43 Z m 113.3,0 v 273.97 0.01 h 40.7 V 276.32 h 83.5 v -38.4 h -83.5 v -75.09 h 129.1 v -38.4 z m 452.2,1.77 c -1.7,0 -3.4,0.22 -5,0.65 -1.6,0.42 -3.1,1.03 -4.4,1.82 -1.4,0.79 -2.6,1.74 -3.7,2.85 -1.2,1.11 -2.1,2.36 -2.9,3.74 -0.8,1.37 -1.4,2.85 -1.8,4.44 -0.5,1.58 -0.7,3.25 -0.7,4.99 0,2.63 0.5,5.08 1.4,7.34 1,2.25 2.3,4.2 4,5.86 1.6,1.65 3.6,2.95 5.8,3.9 2.3,0.94 4.7,1.42 7.3,1.42 1.8,0 3.4,-0.22 5,-0.65 1.6,-0.43 3.1,-1.04 4.5,-1.82 1.3,-0.78 2.6,-1.73 3.7,-2.85 1.1,-1.13 2.1,-2.38 2.9,-3.74 0.8,-1.36 1.4,-2.84 1.8,-4.44 0.4,-1.6 0.6,-3.27 0.6,-5.02 0,-1.74 -0.2,-3.41 -0.6,-4.99 -0.4,-1.59 -1,-3.07 -1.8,-4.44 -0.8,-1.38 -1.8,-2.63 -2.9,-3.74 -1.1,-1.11 -2.4,-2.06 -3.7,-2.85 -1.4,-0.79 -2.9,-1.4 -4.5,-1.82 -1.6,-0.43 -3.2,-0.65 -5,-0.65 z m 0,3.67 c 2.1,0 4.1,0.38 5.9,1.15 1.7,0.75 3.3,1.79 4.6,3.12 1.3,1.31 2.3,2.88 3,4.69 0.7,1.8 1.1,3.75 1.1,5.86 0,2.12 -0.4,4.08 -1.1,5.89 -0.7,1.8 -1.7,3.36 -3,4.69 -1.3,1.32 -2.9,2.36 -4.6,3.12 -1.8,0.75 -3.8,1.13 -5.9,1.13 -2.1,0 -4,-0.38 -5.8,-1.13 -1.8,-0.76 -3.3,-1.8 -4.6,-3.12 -1.3,-1.33 -2.3,-2.89 -3,-4.69 -0.8,-1.81 -1.1,-3.77 -1.1,-5.89 0,-2.11 0.3,-4.06 1.1,-5.86 0.7,-1.81 1.7,-3.38 3,-4.69 1.3,-1.33 2.8,-2.37 4.6,-3.12 1.8,-0.77 3.7,-1.15 5.8,-1.15 z m -7.3,4.04 v 21.56 h 3.8 v -8.63 h 3.2 l 4.1,8.63 h 4.4 c -0.7,-1.43 -1.4,-2.92 -2.2,-4.46 -0.8,-1.57 -1.5,-3.07 -2.2,-4.52 0.8,-0.25 1.5,-0.59 2,-1.02 0.6,-0.44 1.1,-0.92 1.4,-1.47 0.4,-0.55 0.7,-1.14 0.8,-1.75 0.2,-0.63 0.3,-1.27 0.3,-1.9 0,-0.81 -0.1,-1.6 -0.4,-2.37 -0.2,-0.78 -0.6,-1.47 -1.1,-2.07 -0.6,-0.6 -1.3,-1.08 -2.2,-1.45 -0.9,-0.36 -2.1,-0.55 -3.4,-0.55 z m 3.8,3.62 h 4.7 c 0.6,0 1.2,0.08 1.6,0.25 0.4,0.17 0.7,0.39 0.9,0.68 0.3,0.26 0.4,0.56 0.5,0.89 0.1,0.34 0.1,0.67 0.1,1 0,0.38 0,0.75 -0.1,1.1 -0.1,0.35 -0.3,0.66 -0.5,0.92 -0.3,0.27 -0.6,0.48 -1,0.63 -0.4,0.15 -0.9,0.22 -1.5,0.22 h -4.7 z m -2061.7,33.12 c 8.15,0 15.41,1.27 21.78,3.82 6.5,2.55 12.17,6.05 17.01,10.51 4.84,4.33 8.98,9.49 12.42,15.47 3.43,5.86 6.24,12.17 8.4,18.92 2.17,6.62 3.7,13.56 4.59,20.82 1.02,7.14 1.53,14.21 1.53,21.21 0,9.94 -1.15,20.25 -3.44,30.95 -2.29,10.58 -6.05,20.32 -11.28,29.24 -5.09,8.91 -11.84,16.24 -20.25,21.97 -8.28,5.73 -18.53,8.6 -30.76,8.6 -12.35,0 -22.74,-2.74 -31.14,-8.22 -8.41,-5.6 -15.22,-12.74 -20.45,-21.4 -5.09,-8.79 -8.78,-18.53 -11.08,-29.23 -2.29,-10.83 -3.44,-21.46 -3.44,-31.91 0,-6.62 0.45,-13.44 1.34,-20.44 1.02,-7.01 2.61,-13.88 4.78,-20.64 2.16,-6.75 4.97,-13.12 8.4,-19.1 3.44,-5.99 7.58,-11.21 12.42,-15.67 4.97,-4.58 10.64,-8.21 17.01,-10.89 6.49,-2.67 13.88,-4.01 22.16,-4.01 z m 234.41,4.02 h 66.9 c 7.1,0 13,1.14 17.7,3.44 4.7,2.29 8.4,5.22 11.1,8.78 2.8,3.57 4.7,7.52 5.7,11.85 1.2,4.2 1.8,8.28 1.8,12.23 0,4.33 -0.7,8.66 -2,12.99 -1.2,4.33 -3.3,8.22 -6.3,11.66 -2.8,3.43 -6.5,6.24 -11,8.4 -4.6,2.17 -10.3,3.25 -17,3.25 h -66.9 z"
     id="path8481"
     style="fill:#ffffff;fill-opacity:1" />
  <path
     style="fill:#db212f"
     inkscape:connector-curvature="0"
     d="m 165.4,234.58 -91.447,33.275 c 1.172,14.661 3.6972,29.144 7.2524,43.333 l 86.858,-31.631 c -2.8164,-14.686 -3.8215,-29.819 -2.6637,-44.977"
     id="path3985" />
  <path
     style="fill:#db212f"
     inkscape:connector-curvature="0"
     d="m 569.5,133.46 c -6.3787,-13.155 -13.755,-25.87 -22.3,-37.849 l -91.422,33.275 c 10.641,10.882 19.562,23.114 26.864,36.194 z"
     id="path3989" />
  <path
     style="fill:#db212f"
     inkscape:connector-curvature="0"
     d="m 368.3,107.57 c 19.022,8.8754 35.502,20.983 49.396,35.182 l 91.425,-33.278 C 483.802,73.94 449.305,44.245 407.031,24.523 276.341,-36.419 120.411,20.3321 59.471,151.003 39.749,193.292 32.418,238.216 35.856,281.703 l 91.436,-33.271 c 1.5166,-19.811 6.3538,-39.661 15.215,-58.694 39.604,-84.915 140.89,-121.76 225.79,-82.173"
     id="path3993" />
  <path
     style="fill:#ea2227"
     inkscape:connector-curvature="0"
     d="M 86.9,309.09 0.024,340.731 c 7.984,31.673 21.832,61.766 40.854,88.548 l 91.23,-33.211 C 108.689,372.02 93.119,341.597 86.9,309.089"
     id="path3997" />
  <path
     style="fill:#db212f"
     inkscape:connector-curvature="0"
     d="m 465.8,274.64 c -1.4455,19.8 -6.4497,39.661 -15.336,58.708 -39.604,84.919 -140.88,121.77 -225.79,82.17 -19.047,-8.8826 -35.64,-20.894 -49.492,-35.118 l -91.234,33.215 c 25.266,35.537 59.727,65.239 102.01,84.976 130.7,60.931 286.6,4.1802 347.55,-126.5 19.733,-42.282 27.02,-87.188 23.529,-130.65 l -91.205,33.2 z"
     id="path4001" />
  <path
     style="fill:#ea2227"
     inkscape:connector-curvature="0"
     d="m 488.3,163.01 -86.869,31.62 c 16.135,28.906 23.753,62.199 21.26,95.673 l 91.234,-33.19 C 511.3146,224.371 502.581,192.414 488.3,163.01"
     id="path4005" />
</svg>
