<?xml version="1.0" encoding="UTF-8" standalone="no"?>
<svg
   xmlns:dc="http://purl.org/dc/elements/1.1/"
   xmlns:cc="http://creativecommons.org/ns#"
   xmlns:rdf="http://www.w3.org/1999/02/22-rdf-syntax-ns#"
   xmlns:svg="http://www.w3.org/2000/svg"
   xmlns="http://www.w3.org/2000/svg"
   xmlns:sodipodi="http://sodipodi.sourceforge.net/DTD/sodipodi-0.dtd"
   xmlns:inkscape="http://www.inkscape.org/namespaces/inkscape"
   id="Layer_1"
   data-name="Layer 1"
   viewBox="0 0 961.24718 211.22"
   version="1.1"
   sodipodi:docname="quarkus-with-text-small.svg"
   width="961.24719"
   height="211.22"
   inkscape:version="0.92.4 (unknown)">
  <metadata
     id="metadata45">
    <rdf:RDF>
      <cc:Work
         rdf:about="">
        <dc:format>image/svg+xml</dc:format>
        <dc:type
           rdf:resource="http://purl.org/dc/dcmitype/StillImage" />
        <dc:title>quarkus_logo_horizontal_rgb_1280px_default</dc:title>
      </cc:Work>
    </rdf:RDF>
  </metadata>
  <sodipodi:namedview
     pagecolor="#ffffff"
     bordercolor="#666666"
     borderopacity="1"
     objecttolerance="10"
     gridtolerance="10"
     guidetolerance="10"
     inkscape:pageopacity="0"
     inkscape:pageshadow="2"
     inkscape:window-width="1830"
     inkscape:window-height="1051"
     id="namedview43"
     showgrid="false"
     inkscape:pagecheckerboard="true"
     fit-margin-top="10"
     fit-margin-left="10"
     fit-margin-right="10"
     fit-margin-bottom="10"
     inkscape:zoom="2.8637825"
     inkscape:cx="121.32278"
     inkscape:cy="64.054729"
     inkscape:window-x="82"
     inkscape:window-y="0"
     inkscape:window-maximized="1"
     inkscape:current-layer="Layer_1" />
  <defs
     id="defs4">
    <style
       id="style2">.cls-1{fill:#091313;}.cls-2{fill:#4695eb;}.cls-3{fill:#ff004a;}</style>
    <linearGradient
       gradientTransform="matrix(0.4226,-0.9063,0.9063,0.4226,6189.0356,-1936.8361)"
       y2="-3860.573"
       x2="-3987.5886"
       y1="-4143.6401"
       x1="-4229.6655"
       gradientUnits="userSpaceOnUse"
       id="SVGID_1_-0">
      <stop
         id="stop3286-8"
         style="stop-color:#F69923"
         offset="0" />
      <stop
         id="stop3288-2"
         style="stop-color:#F79A23"
         offset="0.10995827" />
      <stop
         id="stop3290-2"
         style="stop-color:#E97826"
         offset="0.94502056" />
    </linearGradient>
    <linearGradient
       id="linearGradient3949"
       gradientUnits="userSpaceOnUse"
       x1="-4229.6655"
       y1="-4143.6401"
       x2="-3987.5886"
       y2="-3860.573"
       gradientTransform="matrix(0.4226,-0.9063,0.9063,0.4226,6189.0356,-1936.8361)">
      <stop
         offset="0"
         style="stop-color:#F69923"
         id="stop3951" />
      <stop
         offset="0.08047844"
         style="stop-color:#F79A23"
         id="stop3953" />
      <stop
         offset="0.41874287"
         style="stop-color:#E97826"
         id="stop3955" />
    </linearGradient>
    <linearGradient
       id="linearGradient4556"
       gradientUnits="userSpaceOnUse"
       x1="-4229.6655"
       y1="-4143.6401"
       x2="-3987.5886"
       y2="-3860.573"
       gradientTransform="matrix(0.4226,-0.9063,0.9063,0.4226,6189.0356,-1936.8361)">
      <stop
         offset="0"
         style="stop-color:#f6e423;stop-opacity:1"
         id="stop4558" />
      <stop
         offset="0.41190839"
         style="stop-color:#F79A23"
         id="stop4560" />
      <stop
         offset="0.73270744"
         style="stop-color:#E97826"
         id="stop4562" />
    </linearGradient>
  </defs>
  <title
     id="title6">quarkus_logo_horizontal_rgb_1280px_default</title>
  <g
     id="g1044"
     transform="matrix(0.71012484,0,0,0.71012484,42.997532,46.400293)"
     style="stroke-width:1.40820312;fill:#ffffff;fill-opacity:1">
    <path
       id="path8"
       d="m 404,89.39 q 0,25.9 -10.49,43.07 A 52.31,52.31 0 0 1 363.9,155.7 l 32.3,33.39 h -22.91 l -26.45,-30.44 -5.11,0.19 q -30,0 -46.27,-18.22 -16.27,-18.22 -16.29,-51.42 0,-32.93 16.34,-51.05 Q 311.85,20.03 341.92,20 371.16,20 387.58,38.45 404,56.9 404,89.39 Z m -108.14,0 q 0,27.39 11.74,41.55 11.74,14.16 34.11,14.15 22.56,0 34.07,-14.11 11.51,-14.11 11.51,-41.59 0,-27.21 -11.47,-41.27 -11.47,-14.06 -33.9,-14.07 -22.56,0 -34.3,14.16 -11.74,14.16 -11.74,41.18 z"
       class="cls-1"
       inkscape:connector-curvature="0"
       style="fill:#ffffff;stroke-width:2.35892367;fill-opacity:1" />
    <path
       id="path10"
       d="m 559.56,22.15 v 87.25 q 0,23.05 -14,36.25 -14,13.2 -38.56,13.19 -24.51,0 -37.92,-13.29 Q 455.67,132.26 455.7,109 V 22.15 h 15.78 v 88 q 0,16.88 9.28,25.91 9.28,9.03 27.29,9 17.16,0 26.45,-9.08 9.29,-9.08 9.28,-25.98 V 22.15 Z"
       class="cls-1"
       inkscape:connector-curvature="0"
       style="fill:#ffffff;stroke-width:2.35892367;fill-opacity:1" />
    <path
       id="path12"
       d="M 703.6,157 686.7,114.1 H 632.31 L 615.6,157 h -16 L 653.29,21.6 h 13.27 L 719.93,157 Z M 681.78,100 666,58.21 q -3.07,-7.92 -6.32,-19.46 a 172.55,172.55 0 0 1 -5.85,19.46 l -16,41.78 z"
       class="cls-1"
       inkscape:connector-curvature="0"
       style="fill:#ffffff;stroke-width:2.35892367;fill-opacity:1" />
    <path
       id="path14"
       d="M 777.19,100.92 V 157 H 761.4 V 22.15 h 37.23 q 25,0 36.89,9.5 11.89,9.5 11.93,28.59 0,26.74 -27.29,36.16 L 857,157 h -18.65 l -32.86,-56.07 z m 0,-13.47 h 21.62 q 16.71,0 24.51,-6.6 7.8,-6.6 7.79,-19.78 0,-13.37 -7.93,-19.27 -7.93,-5.9 -25.48,-5.91 h -20.51 z"
       class="cls-1"
       inkscape:connector-curvature="0"
       style="fill:#ffffff;stroke-width:2.35892367;fill-opacity:1" />
    <path
       id="path16"
       d="m 999.75,157 h -18.57 l -49.47,-65.4 -14.2,12.54 V 157 H 901.73 V 22.15 h 15.78 V 89 l 61.54,-66.87 h 18.66 l -54.58,58.59 z"
       class="cls-1"
       inkscape:connector-curvature="0"
       style="fill:#ffffff;stroke-width:2.35892367;fill-opacity:1" />
    <path
       id="path18"
       d="m 1143.69,22.15 v 87.25 q 0,23.05 -14,36.25 -14,13.2 -38.52,13.19 -24.5,0 -37.92,-13.29 -13.42,-13.29 -13.43,-36.55 V 22.15 h 15.78 v 88 q 0,16.88 9.28,25.91 9.28,9.03 27.29,9 17.17,0 26.46,-9.08 9.29,-9.08 9.28,-26.06 V 22.15 Z"
       class="cls-1"
       inkscape:connector-curvature="0"
       style="fill:#ffffff;stroke-width:2.35892367;fill-opacity:1" />
    <path
       id="path20"
       d="m 1279,121.11 q 0,17.8 -13,27.76 -13,9.96 -35.28,10 -24.13,0 -37.13,-6.18 v -15.16 a 97.82,97.82 0 0 0 18.2,5.53 95.67,95.67 0 0 0 19.49,2 q 15.78,0 23.76,-6 7.98,-6 8,-16.55 0,-7 -2.83,-11.48 -2.83,-4.48 -9.46,-8.26 -6.65,-3.78 -20.19,-8.58 -18.94,-6.72 -27.06,-16 -8.12,-9.28 -8.12,-24.07 0,-15.58 11.79,-24.81 11.79,-9.23 31.18,-9.22 a 92.55,92.55 0 0 1 37.22,7.37 l -4.91,13.65 q -16.82,-7 -32.68,-7 -12.53,0 -19.58,5.35 -7.05,5.35 -7.06,14.85 0,7 2.6,11.48 2.6,4.48 8.77,8.21 6.18,3.73 18.89,8.26 21.36,7.56 29.38,16.23 8.02,8.67 8.02,22.62 z"
       class="cls-1"
       inkscape:connector-curvature="0"
       style="fill:#ffffff;stroke-width:2.35892367;fill-opacity:1" />
  </g>
  <polygon
     class="cls-2"
     points="96.61,51.59 126.05,68.59 126.05,34.6 "
     id="polygon22"
     style="fill:#4695eb"
     transform="translate(9,9)" />
  <polygon
     class="cls-3"
     points="67.17,68.59 96.61,51.59 67.17,34.6 "
     id="polygon24"
     style="fill:#ff004a"
     transform="translate(9,9)" />
  <polygon
     class="cls-1"
     points="96.61,85.59 126.05,68.59 96.61,51.59 67.17,68.59 "
     id="polygon26"
     style="fill:#ffffff;fill-opacity:1"
     transform="translate(9,9)" />
  <polygon
     class="cls-2"
     points="65.57,105.36 65.57,71.37 36.13,88.36 "
     id="polygon28"
     style="fill:#4695eb"
     transform="translate(9,9)" />
  <polygon
     class="cls-3"
     points="95.01,122.36 65.57,105.36 65.57,139.35 "
     id="polygon30"
     style="fill:#ff004a"
     transform="translate(9,9)" />
  <polygon
     class="cls-1"
     points="95.01,88.36 65.57,71.37 65.57,105.36 95.01,122.36 "
     id="polygon32"
     style="fill:#ffffff;fill-opacity:1"
     transform="translate(9,9)" />
  <polygon
     class="cls-2"
     points="127.65,105.36 98.21,122.36 127.65,139.35 "
     id="polygon34"
     style="fill:#4695eb"
     transform="translate(9,9)" />
  <polygon
     class="cls-3"
     points="127.65,71.37 127.65,105.36 157.09,88.36 "
     id="polygon36"
     style="fill:#ff004a"
     transform="translate(9,9)" />
  <polygon
     class="cls-1"
     points="98.21,88.36 98.21,122.36 127.65,105.36 127.65,71.37 "
     id="polygon38"
     style="fill:#ffffff;fill-opacity:1"
     transform="translate(9,9)" />
  <path
     class="cls-2"
     d="M 169.5,10 H 41.72 A 31.81,31.81 0 0 0 10,41.72 V 169.5 a 31.81,31.81 0 0 0 31.72,31.72 h 87.51 L 105.61,143.85 88.48,180.07 H 41.72 A 10.71,10.71 0 0 1 31.15,169.5 V 41.72 A 10.71,10.71 0 0 1 41.72,31.15 H 169.5 a 10.71,10.71 0 0 1 10.57,10.57 V 169.5 a 10.71,10.71 0 0 1 -10.57,10.57 h -27.73 l 8.71,21.15 h 19 A 31.81,31.81 0 0 0 201.2,169.5 V 41.72 A 31.81,31.81 0 0 0 169.5,10 Z"
     id="path40"
     inkscape:connector-curvature="0"
     style="fill:#4695eb" />
</svg>
