<?xml version="1.0" encoding="UTF-8" standalone="no"?>
<svg
   xmlns:dc="http://purl.org/dc/elements/1.1/"
   xmlns:cc="http://creativecommons.org/ns#"
   xmlns:rdf="http://www.w3.org/1999/02/22-rdf-syntax-ns#"
   xmlns:svg="http://www.w3.org/2000/svg"
   xmlns="http://www.w3.org/2000/svg"
   xmlns:sodipodi="http://sodipodi.sourceforge.net/DTD/sodipodi-0.dtd"
   xmlns:inkscape="http://www.inkscape.org/namespaces/inkscape"
   version="1.1"
   viewBox="0 0 850.60657 295.81488"
   stroke-miterlimit="10"
   id="svg234"
   sodipodi:docname="unify-imperative-reactive.svg"
   width="850.60657"
   height="295.81488"
   style="fill:none;stroke:none;stroke-linecap:square;stroke-miterlimit:10"
   inkscape:version="0.92.4 (unknown)">
  <metadata
     id="metadata240">
    <rdf:RDF>
      <cc:Work
         rdf:about="">
        <dc:format>image/svg+xml</dc:format>
        <dc:type
           rdf:resource="http://purl.org/dc/dcmitype/StillImage" />
        <dc:title></dc:title>
      </cc:Work>
    </rdf:RDF>
  </metadata>
  <defs
     id="defs238">
    <defs
       id="defs48">
      <filter
         filterUnits="userSpaceOnUse"
         id="shadowFilter-g473d69ed28_0_216.3">
        <feGaussianBlur
           id="feGaussianBlur35"
           result="blur"
           stdDeviation="4.888889"
           in="SourceAlpha" />
        <feComponentTransfer
           id="feComponentTransfer45"
           in="blur"
           style="color-interpolation-filters:sRGB">
          <feFuncR
             id="feFuncR37"
             intercept="0.0"
             slope="0"
             type="linear" />
          <feFuncG
             id="feFuncG39"
             intercept="0.0"
             slope="0"
             type="linear" />
          <feFuncB
             id="feFuncB41"
             intercept="0.0"
             slope="0"
             type="linear" />
          <feFuncA
             id="feFuncA43"
             intercept="0"
             slope="0.498"
             type="linear" />
        </feComponentTransfer>
      </filter>
    </defs>
    <defs
       id="defs81">
      <filter
         filterUnits="userSpaceOnUse"
         id="shadowFilter-g473d69ed28_0_216.5">
        <feGaussianBlur
           id="feGaussianBlur68"
           result="blur"
           stdDeviation="4.888889"
           in="SourceAlpha" />
        <feComponentTransfer
           id="feComponentTransfer78"
           in="blur"
           style="color-interpolation-filters:sRGB">
          <feFuncR
             id="feFuncR70"
             intercept="0.0"
             slope="0"
             type="linear" />
          <feFuncG
             id="feFuncG72"
             intercept="0.0"
             slope="0"
             type="linear" />
          <feFuncB
             id="feFuncB74"
             intercept="0.0"
             slope="0"
             type="linear" />
          <feFuncA
             id="feFuncA76"
             intercept="0"
             slope="0.498"
             type="linear" />
        </feComponentTransfer>
      </filter>
    </defs>
    <defs
       id="defs114">
      <filter
         filterUnits="userSpaceOnUse"
         id="shadowFilter-g473d69ed28_0_216.7">
        <feGaussianBlur
           id="feGaussianBlur101"
           result="blur"
           stdDeviation="4.888889"
           in="SourceAlpha" />
        <feComponentTransfer
           id="feComponentTransfer111"
           in="blur"
           style="color-interpolation-filters:sRGB">
          <feFuncR
             id="feFuncR103"
             intercept="0.0"
             slope="0"
             type="linear" />
          <feFuncG
             id="feFuncG105"
             intercept="0.0"
             slope="0"
             type="linear" />
          <feFuncB
             id="feFuncB107"
             intercept="0.0"
             slope="0"
             type="linear" />
          <feFuncA
             id="feFuncA109"
             intercept="0"
             slope="0.498"
             type="linear" />
        </feComponentTransfer>
      </filter>
    </defs>
    <defs
       id="defs147">
      <filter
         filterUnits="userSpaceOnUse"
         id="shadowFilter-g473d69ed28_0_216.9">
        <feGaussianBlur
           id="feGaussianBlur134"
           result="blur"
           stdDeviation="4.888889"
           in="SourceAlpha" />
        <feComponentTransfer
           id="feComponentTransfer144"
           in="blur"
           style="color-interpolation-filters:sRGB">
          <feFuncR
             id="feFuncR136"
             intercept="0.0"
             slope="0"
             type="linear" />
          <feFuncG
             id="feFuncG138"
             intercept="0.0"
             slope="0"
             type="linear" />
          <feFuncB
             id="feFuncB140"
             intercept="0.0"
             slope="0"
             type="linear" />
          <feFuncA
             id="feFuncA142"
             intercept="0"
             slope="0.498"
             type="linear" />
        </feComponentTransfer>
      </filter>
    </defs>
    <defs
       id="defs180">
      <filter
         filterUnits="userSpaceOnUse"
         id="shadowFilter-g473d69ed28_0_216.11">
        <feGaussianBlur
           id="feGaussianBlur167"
           result="blur"
           stdDeviation="4.888889"
           in="SourceAlpha" />
        <feComponentTransfer
           id="feComponentTransfer177"
           in="blur"
           style="color-interpolation-filters:sRGB">
          <feFuncR
             id="feFuncR169"
             intercept="0.0"
             slope="0"
             type="linear" />
          <feFuncG
             id="feFuncG171"
             intercept="0.0"
             slope="0"
             type="linear" />
          <feFuncB
             id="feFuncB173"
             intercept="0.0"
             slope="0"
             type="linear" />
          <feFuncA
             id="feFuncA175"
             intercept="0"
             slope="0.498"
             type="linear" />
        </feComponentTransfer>
      </filter>
    </defs>
    <defs
       id="defs88">
      <linearGradient
         id="g473d69ed28_0_216.6"
         gradientUnits="userSpaceOnUse"
         gradientTransform="scale(7.5899408)"
         spreadMethod="pad"
         x1="8.6118479"
         y1="47.728054"
         x2="8.6118212"
         y2="55.317997">
        <stop
           offset="0.0"
           stop-color="#3c8fd6"
           id="stop83" />
        <stop
           offset="1.0"
           stop-color="#225d8f"
           id="stop85" />
      </linearGradient>
    </defs>
    <defs
       id="defs187">
      <linearGradient
         id="g473d69ed28_0_216.12"
         gradientUnits="userSpaceOnUse"
         gradientTransform="scale(7.5899408)"
         spreadMethod="pad"
         x1="46.684258"
         y1="47.728054"
         x2="46.684231"
         y2="55.317997">
        <stop
           offset="0.0"
           stop-color="#3c8fd6"
           id="stop182" />
        <stop
           offset="1.0"
           stop-color="#225d8f"
           id="stop184" />
      </linearGradient>
    </defs>
    <defs
       id="defs121">
      <linearGradient
         id="g473d69ed28_0_216.8"
         gradientUnits="userSpaceOnUse"
         gradientTransform="scale(7.5899408)"
         spreadMethod="pad"
         x1="84.75666"
         y1="47.728054"
         x2="84.756638"
         y2="55.317997">
        <stop
           offset="0.0"
           stop-color="#3c8fd6"
           id="stop116" />
        <stop
           offset="1.0"
           stop-color="#225d8f"
           id="stop118" />
      </linearGradient>
    </defs>
    <defs
       id="defs154">
      <linearGradient
         id="g473d69ed28_0_216.10"
         gradientUnits="userSpaceOnUse"
         gradientTransform="scale(7.5899408)"
         spreadMethod="pad"
         x1="46.684258"
         y1="33.441036"
         x2="46.684231"
         y2="41.030975">
        <stop
           offset="0.0"
           stop-color="#3c8fd6"
           id="stop149" />
        <stop
           offset="1.0"
           stop-color="#225d8f"
           id="stop151" />
      </linearGradient>
    </defs>
    <defs
       id="defs55">
      <linearGradient
         id="g473d69ed28_0_216.4"
         gradientUnits="userSpaceOnUse"
         gradientTransform="scale(7.5899422)"
         spreadMethod="pad"
         x1="46.68425"
         y1="19.154016"
         x2="46.684223"
         y2="26.743958">
        <stop
           offset="0.0"
           stop-color="#3072aa"
           id="stop50" />
        <stop
           offset="1.0"
           stop-color="#153855"
           id="stop52" />
      </linearGradient>
    </defs>
  </defs>
  <sodipodi:namedview
     pagecolor="#ffffff"
     bordercolor="#666666"
     borderopacity="1"
     objecttolerance="10"
     gridtolerance="10"
     guidetolerance="10"
     inkscape:pageopacity="0"
     inkscape:pageshadow="2"
     inkscape:window-width="1830"
     inkscape:window-height="1051"
     id="namedview236"
     showgrid="false"
     inkscape:pagecheckerboard="true"
     fit-margin-top="10"
     fit-margin-left="10"
     fit-margin-bottom="10"
     fit-margin-right="10"
     inkscape:zoom="1.35"
     inkscape:cx="346.85292"
     inkscape:cy="133.4609"
     inkscape:window-x="82"
     inkscape:window-y="0"
     inkscape:window-maximized="1"
     inkscape:current-layer="svg234" />
  <clipPath
     id="g473d69ed28_0_216.0">
    <path
       d="M 0,0 H 960 V 540 H 0 Z"
       id="path2"
       inkscape:connector-curvature="0"
       style="clip-rule:nonzero" />
  </clipPath>
  <path
     d="m 299.63401,21.211497 v 0 c 0,-5.82375 4.72107,-10.54483 10.54483,-10.54483 h 230.24893 c 2.79663,0 5.47876,1.11096 7.4563,3.08852 1.97754,1.97754 3.0885,4.65965 3.0885,7.45631 v 36.51663 c 0,5.82375 -4.72107,10.54483 -10.5448,10.54483 H 310.17884 c -5.82376,0 -10.54483,-4.72108 -10.54483,-10.54483 z"
     id="path59"
     inkscape:connector-curvature="0"
     style="fill-rule:evenodd;stroke:#00ffff;stroke-width:1.33333337;stroke-linecap:butt;stroke-linejoin:round;stroke-opacity:1" />
  <path
     d="m 333.29981,47.206617 v -16.21875 h 2.20313 l 8.53125,12.73437 v -12.73437 h 2.04687 v 16.21875 h -2.20312 l -8.51563,-12.75 v 12.75 z m 24.1741,-3.78125 2.0625,0.25 q -0.48437,1.8125 -1.8125,2.8125 -1.3125,0.98437 -3.35937,0.98437 -2.57813,0 -4.09375,-1.57812 -1.5,-1.59375 -1.5,-4.46875 0,-2.95313 1.53125,-4.59375 1.53125,-1.64063 3.95312,-1.64063 2.35938,0 3.84375,1.60938 1.5,1.59375 1.5,4.51562 0,0.17188 0,0.53125 h -8.76562 q 0.10937,1.9375 1.09375,2.96875 0.98437,1.01563 2.45312,1.01563 1.09375,0 1.85938,-0.5625 0.78125,-0.57813 1.23437,-1.84375 z m -6.53125,-3.21875 h 6.5625 q -0.14062,-1.48438 -0.75,-2.21875 -0.95312,-1.15625 -2.46875,-1.15625 -1.375,0 -2.3125,0.92187 -0.9375,0.90625 -1.03125,2.45313 z m 15.4441,5.21875 0.28125,1.76562 q -0.84375,0.17188 -1.5,0.17188 -1.07813,0 -1.6875,-0.34375 -0.59375,-0.34375 -0.84375,-0.89063 -0.23438,-0.5625 -0.23438,-2.35937 v -6.76563 h -1.46875 v -1.54687 h 1.46875 v -2.90625 l 1.98438,-1.20313 v 4.10938 h 2 v 1.54687 h -2 v 6.875 q 0,0.84375 0.0937,1.09375 0.10937,0.25 0.34375,0.39063 0.25,0.14062 0.6875,0.14062 0.32812,0 0.875,-0.0781 z m 6.29461,0 0.28125,1.76562 q -0.84375,0.17188 -1.5,0.17188 -1.07812,0 -1.6875,-0.34375 -0.59375,-0.34375 -0.84375,-0.89063 -0.23437,-0.5625 -0.23437,-2.35937 v -6.76563 h -1.46875 v -1.54687 h 1.46875 v -2.90625 l 1.98437,-1.20313 v 4.10938 h 2 v 1.54687 h -2 v 6.875 q 0,0.84375 0.0937,1.09375 0.10938,0.25 0.34375,0.39063 0.25,0.14062 0.6875,0.14062 0.32813,0 0.875,-0.0781 z m 1.85715,6.3125 -0.21875,-1.875 q 0.65625,0.17187 1.14062,0.17187 0.65625,0 1.04688,-0.21875 0.40625,-0.21875 0.65625,-0.625 0.1875,-0.29687 0.60937,-1.46875 0.0625,-0.17187 0.1875,-0.5 l -4.46875,-11.76562 h 2.15625 l 2.4375,6.8125 q 0.48438,1.28125 0.85938,2.71875 0.34375,-1.375 0.8125,-2.6875 l 2.51562,-6.84375 h 1.98438 l -4.46875,11.95312 q -0.71875,1.9375 -1.10938,2.65625 -0.53125,0.98438 -1.21875,1.4375 -0.6875,0.46875 -1.64062,0.46875 -0.57813,0 -1.28125,-0.23437 z m 18.02899,-4.53125 v -16.21875 h 2.14063 v 6.65625 h 8.4375 v -6.65625 h 2.14062 v 16.21875 h -2.14062 v -7.64063 h -8.4375 v 7.64063 z m 20.42413,0 v -14.29688 h -5.34375 v -1.92187 h 12.85938 v 1.92187 h -5.375 v 14.29688 z m 13.83933,0 v -14.29688 h -5.34375 v -1.92187 h 12.85937 v 1.92187 h -5.375 v 14.29688 z m 9.71435,0 v -16.21875 h 6.10938 q 1.625,0 2.46875,0.15625 1.20312,0.20312 2,0.76562 0.8125,0.54688 1.29687,1.5625 0.5,1 0.5,2.20313 0,2.07812 -1.3125,3.51562 -1.3125,1.42188 -4.76562,1.42188 h -4.15625 v 6.59375 z m 2.14063,-8.5 h 4.20312 q 2.07813,0 2.95313,-0.78125 0.875,-0.78125 0.875,-2.17188 0,-1.03125 -0.51563,-1.75 -0.51562,-0.71875 -1.35937,-0.95312 -0.54688,-0.14063 -2,-0.14063 h -4.15625 z m 30.82806,2.8125 2.15625,0.54687 q -0.67187,2.64063 -2.4375,4.03125 -1.75,1.39063 -4.28125,1.39063 -2.625,0 -4.26562,-1.0625 -1.64063,-1.07813 -2.5,-3.09375 -0.85938,-2.03125 -0.85938,-4.35938 0,-2.53125 0.96875,-4.40625 0.96875,-1.89062 2.75,-2.875 1.79688,-0.98437 3.9375,-0.98437 2.4375,0 4.09375,1.25 1.65625,1.23437 2.3125,3.48437 l -2.10937,0.5 q -0.5625,-1.78125 -1.64063,-2.57812 -1.07812,-0.8125 -2.70312,-0.8125 -1.85938,0 -3.125,0.90625 -1.25,0.89062 -1.76563,2.40625 -0.5,1.5 -0.5,3.10937 0,2.0625 0.59375,3.60938 0.60938,1.53125 1.875,2.29687 1.28125,0.76563 2.76563,0.76563 1.79687,0 3.04687,-1.03125 1.25,-1.04688 1.6875,-3.09375 z m 3.79908,-0.1875 q 0,-3.26563 1.8125,-4.82813 1.51562,-1.3125 3.70312,-1.3125 2.42188,0 3.95313,1.59375 1.54687,1.57813 1.54687,4.375 0,2.28125 -0.6875,3.57813 -0.67187,1.29687 -1.98437,2.01562 -1.29688,0.71875 -2.82813,0.71875 -2.46875,0 -4,-1.57812 -1.51562,-1.57813 -1.51562,-4.5625 z m 2.04687,0 q 0,2.25 0.98438,3.375 0.98437,1.125 2.48437,1.125 1.48438,0 2.46875,-1.125 0.98438,-1.125 0.98438,-3.4375 0,-2.1875 -1,-3.29688 -0.98438,-1.125 -2.45313,-1.125 -1.5,0 -2.48437,1.125 -0.98438,1.10938 -0.98438,3.35938 z m 18.91284,5.875 v -1.48438 q -1.10937,1.75 -3.28125,1.75 -1.40625,0 -2.59375,-0.76562 -1.17187,-0.78125 -1.8125,-2.17188 -0.64062,-1.39062 -0.64062,-3.1875 0,-1.76562 0.57812,-3.1875 0.59375,-1.4375 1.76563,-2.20312 1.17187,-0.76563 2.60937,-0.76563 1.0625,0 1.89063,0.45313 0.84375,0.4375 1.35937,1.15625 v -5.8125 h 1.98438 v 16.21875 z m -6.28125,-5.85938 q 0,2.25 0.9375,3.375 0.95313,1.10938 2.25,1.10938 1.3125,0 2.21875,-1.0625 0.92188,-1.0625 0.92188,-3.26563 0,-2.40625 -0.9375,-3.53125 -0.92188,-1.125 -2.29688,-1.125 -1.3125,0 -2.20312,1.07813 -0.89063,1.07812 -0.89063,3.42187 z m 19.30347,2.07813 2.0625,0.25 q -0.48438,1.8125 -1.8125,2.8125 -1.3125,0.98437 -3.35938,0.98437 -2.57812,0 -4.09375,-1.57812 -1.5,-1.59375 -1.5,-4.46875 0,-2.95313 1.53125,-4.59375 1.53125,-1.64063 3.95313,-1.64063 2.35937,0 3.84375,1.60938 1.5,1.59375 1.5,4.51562 0,0.17188 0,0.53125 h -8.76563 q 0.10938,1.9375 1.09375,2.96875 0.98438,1.01563 2.45313,1.01563 1.09375,0 1.85937,-0.5625 0.78125,-0.57813 1.23438,-1.84375 z m -6.53125,-3.21875 h 6.5625 q -0.14063,-1.48438 -0.75,-2.21875 -0.95313,-1.15625 -2.46875,-1.15625 -1.375,0 -2.3125,0.92187 -0.9375,0.90625 -1.03125,2.45313 z m 18.75659,2.70312 1.96875,0.25 q -0.32812,2.01563 -1.65625,3.17188 -1.3125,1.14062 -3.23437,1.14062 -2.42188,0 -3.89063,-1.57812 -1.45312,-1.57813 -1.45312,-4.51563 0,-1.90625 0.625,-3.32812 0.625,-1.4375 1.90625,-2.14063 1.29687,-0.71875 2.8125,-0.71875 1.92187,0 3.14062,0.96875 1.21875,0.96875 1.5625,2.75 l -1.9375,0.29688 q -0.28125,-1.1875 -0.98437,-1.78125 -0.70313,-0.59375 -1.70313,-0.59375 -1.5,0 -2.4375,1.07812 -0.9375,1.07813 -0.9375,3.40625 0,2.375 0.90625,3.45313 0.90625,1.0625 2.35938,1.0625 1.17187,0 1.95312,-0.71875 0.79688,-0.71875 1,-2.20313 z"
     id="path61"
     inkscape:connector-curvature="0"
     style="fill:#00ffff;fill-rule:nonzero;stroke:none;stroke-opacity:1;fill-opacity:1" />
  <path
     d="m 10.666667,239.06893 v 0 c 0,-6.36618 5.160828,-11.52701 11.527023,-11.52701 h 228.28455 c 3.05716,0 5.98908,1.21445 8.15082,3.37619 2.16174,2.16175 3.37619,5.09369 3.37619,8.15082 v 34.55228 c 0,6.36618 -5.16083,11.52701 -11.52701,11.52701 H 22.19369 c -6.366196,0 -11.527023,-5.16083 -11.527023,-11.52701 z"
     id="path92"
     inkscape:connector-curvature="0"
     style="fill-rule:evenodd;stroke:#00ffff;stroke-width:1.33333337;stroke-linecap:butt;stroke-linejoin:round;stroke-opacity:1" />
  <path
     d="m 84.054457,264.08187 v -16.21875 h 7.1875 q 2.17187,0 3.29687,0.4375 1.125,0.4375 1.79688,1.54687 0.6875,1.10938 0.6875,2.4375 0,1.73438 -1.125,2.92188 -1.10938,1.17187 -3.45313,1.5 0.85938,0.40625 1.29688,0.79687 0.9375,0.875 1.78125,2.17188 l 2.82812,4.40625 h -2.70312 l -2.14063,-3.375 q -0.95312,-1.45313 -1.5625,-2.23438 -0.59375,-0.78125 -1.07812,-1.07812 -0.48438,-0.3125 -0.98438,-0.4375 -0.35937,-0.0781 -1.1875,-0.0781 h -2.5 v 7.20313 z m 2.14062,-9.0625 h 4.625 q 1.46875,0 2.29688,-0.29688 0.82812,-0.3125 1.25,-0.96875 0.4375,-0.67187 0.4375,-1.46875 0,-1.14062 -0.84375,-1.875 -0.82813,-0.75 -2.625,-0.75 h -5.14063 z m 14.236623,9.0625 v -16.21875 h 11.71875 v 1.92187 h -9.57812 v 4.95313 h 8.96875 v 1.90625 h -8.96875 v 5.53125 h 9.95312 v 1.90625 z m 14.33029,-5.20313 2.03125,-0.1875 q 0.14063,1.21875 0.65625,2 0.53125,0.78125 1.64063,1.26563 1.10937,0.48437 2.48437,0.48437 1.23438,0 2.17188,-0.35937 0.9375,-0.375 1.39062,-1.01563 0.46875,-0.64062 0.46875,-1.39062 0,-0.76563 -0.45312,-1.32813 -0.4375,-0.57812 -1.45313,-0.95312 -0.65625,-0.26563 -2.89062,-0.79688 -2.23438,-0.53125 -3.125,-1.01562 -1.15625,-0.60938 -1.73438,-1.5 -0.5625,-0.90625 -0.5625,-2.03125 0,-1.21875 0.6875,-2.28125 0.70313,-1.07813 2.03125,-1.625 1.34375,-0.5625 2.98438,-0.5625 1.8125,0 3.1875,0.59375 1.375,0.57812 2.10937,1.70312 0.75,1.125 0.79688,2.54688 l -2.04688,0.15625 q -0.17187,-1.53125 -1.14062,-2.3125 -0.95313,-0.79688 -2.8125,-0.79688 -1.95313,0 -2.84375,0.71875 -0.89063,0.71875 -0.89063,1.71875 0,0.875 0.64063,1.4375 0.60937,0.5625 3.21875,1.15625 2.625,0.59375 3.59375,1.03125 1.42187,0.65625 2.09375,1.65625 0.67187,1 0.67187,2.3125 0,1.29688 -0.73437,2.4375 -0.73438,1.14063 -2.125,1.78125 -1.39063,0.64063 -3.125,0.64063 -2.20313,0 -3.70313,-0.64063 -1.48437,-0.64062 -2.32812,-1.92187 -0.84375,-1.29688 -0.89063,-2.92188 z m 19.97092,5.20313 v -14.29688 h -5.34375 v -1.92187 h 12.85938 v 1.92187 h -5.375 v 14.29688 z m 9.76122,0 v -16.21875 h 11.71875 v 1.92187 h -9.57813 v 4.95313 h 8.96875 v 1.90625 h -8.96875 v 5.53125 h 9.95313 v 1.90625 z m 22.47091,-1.45313 q -1.10937,0.9375 -2.14062,1.32813 -1.01563,0.39062 -2.1875,0.39062 -1.9375,0 -2.98438,-0.9375 -1.03125,-0.95312 -1.03125,-2.42187 0,-0.85938 0.39063,-1.57813 0.40625,-0.71875 1.03125,-1.14062 0.64062,-0.4375 1.4375,-0.65625 0.59375,-0.15625 1.76562,-0.29688 2.42188,-0.29687 3.5625,-0.6875 0,-0.40625 0,-0.51562 0,-1.21875 -0.5625,-1.71875 -0.76562,-0.67188 -2.26562,-0.67188 -1.40625,0 -2.07813,0.5 -0.67187,0.48438 -0.98437,1.73438 l -1.95313,-0.26563 q 0.26563,-1.25 0.875,-2.01562 0.60938,-0.78125 1.75,-1.1875 1.15625,-0.42188 2.67188,-0.42188 1.51562,0 2.45312,0.35938 0.9375,0.34375 1.375,0.89062 0.45313,0.53125 0.625,1.34375 0.0937,0.51563 0.0937,1.84375 v 2.65625 q 0,2.78125 0.125,3.51563 0.14063,0.73437 0.51563,1.40625 h -2.07813 q -0.3125,-0.625 -0.40625,-1.45313 z m -0.15625,-4.4375 q -1.09375,0.4375 -3.26562,0.75 -1.21875,0.17188 -1.73438,0.39063 -0.5,0.21875 -0.78125,0.65625 -0.28125,0.42187 -0.28125,0.9375 0,0.79687 0.60938,1.32812 0.60937,0.53125 1.76562,0.53125 1.14063,0 2.03125,-0.5 0.90625,-0.5 1.32813,-1.375 0.32812,-0.67187 0.32812,-2 z m 4.30346,2.39063 1.96875,-0.3125 q 0.15625,1.17187 0.90625,1.8125 0.76562,0.625 2.125,0.625 1.375,0 2.03125,-0.54688 0.67187,-0.5625 0.67187,-1.3125 0,-0.6875 -0.57812,-1.0625 -0.42188,-0.26562 -2.04688,-0.6875 -2.1875,-0.54687 -3.03125,-0.95312 -0.84375,-0.40625 -1.28125,-1.10938 -0.4375,-0.71875 -0.4375,-1.57812 0,-0.79688 0.35938,-1.45313 0.35937,-0.67187 0.98437,-1.125 0.45313,-0.32812 1.25,-0.5625 0.8125,-0.25 1.73438,-0.25 1.375,0 2.42187,0.40625 1.04688,0.39063 1.54688,1.07813 0.5,0.67187 0.6875,1.8125 l -1.95313,0.26562 q -0.125,-0.90625 -0.76562,-1.40625 -0.64063,-0.51562 -1.79688,-0.51562 -1.375,0 -1.96875,0.45312 -0.57812,0.45313 -0.57812,1.0625 0,0.39063 0.25,0.6875 0.23437,0.32813 0.75,0.53125 0.3125,0.125 1.76562,0.51563 2.10938,0.5625 2.9375,0.92187 0.84375,0.35938 1.3125,1.04688 0.48438,0.6875 0.48438,1.70312 0,1 -0.57813,1.875 -0.57812,0.875 -1.67187,1.35938 -1.09375,0.48437 -2.48438,0.48437 -2.29687,0 -3.5,-0.95312 -1.1875,-0.95313 -1.51562,-2.8125 z m 12.03125,8.03125 -0.21875,-1.875 q 0.65625,0.17187 1.14062,0.17187 0.65625,0 1.04688,-0.21875 0.40625,-0.21875 0.65625,-0.625 0.1875,-0.29687 0.60937,-1.46875 0.0625,-0.17187 0.1875,-0.5 l -4.46875,-11.76562 h 2.15625 l 2.4375,6.8125 q 0.48438,1.28125 0.85938,2.71875 0.34375,-1.375 0.8125,-2.6875 l 2.51562,-6.84375 h 1.98438 l -4.46875,11.95312 q -0.71875,1.9375 -1.10938,2.65625 -0.53125,0.98438 -1.21875,1.4375 -0.6875,0.46875 -1.64062,0.46875 -0.57813,0 -1.28125,-0.23437 z"
     id="path94"
     inkscape:connector-curvature="0"
     style="fill:#00ffff;fill-rule:nonzero;stroke:none;stroke-opacity:1;fill-opacity:1" />
  <path
     d="m 588.60136,238.08675 v 0 c 0,-5.82376 4.72107,-10.54483 10.5448,-10.54483 h 230.24896 c 2.79663,0 5.47876,1.11096 7.4563,3.0885 1.97754,1.97754 3.0885,4.65967 3.0885,7.45633 v 36.51663 c 0,5.82376 -4.72107,10.54483 -10.5448,10.54483 H 599.14616 c -5.82373,0 -10.5448,-4.72107 -10.5448,-10.54483 z"
     id="path125"
     inkscape:connector-curvature="0"
     style="fill-rule:evenodd;stroke:#00ffff;stroke-width:1.33333337;stroke-linecap:butt;stroke-linejoin:round;stroke-opacity:1" />
  <path
     d="m 692.40766,264.08187 -6.29687,-16.21875 h 2.32812 l 4.21875,11.78125 q 0.5,1.42187 0.84375,2.65625 0.375,-1.32813 0.875,-2.65625 l 4.39063,-11.78125 h 2.1875 l -6.35938,16.21875 z m 18.25214,-3.78125 2.0625,0.25 q -0.48438,1.8125 -1.8125,2.8125 -1.3125,0.98437 -3.35938,0.98437 -2.57812,0 -4.09375,-1.57812 -1.5,-1.59375 -1.5,-4.46875 0,-2.95313 1.53125,-4.59375 1.53125,-1.64063 3.95313,-1.64063 2.35937,0 3.84375,1.60938 1.5,1.59375 1.5,4.51562 0,0.17188 0,0.53125 h -8.76563 q 0.10938,1.9375 1.09375,2.96875 0.98438,1.01563 2.45313,1.01563 1.09375,0 1.85937,-0.5625 0.78125,-0.57813 1.23438,-1.84375 z m -6.53125,-3.21875 h 6.5625 q -0.14063,-1.48438 -0.75,-2.21875 -0.95313,-1.15625 -2.46875,-1.15625 -1.375,0 -2.3125,0.92187 -0.9375,0.90625 -1.03125,2.45313 z m 11.06909,7 v -11.75 h 1.79687 v 1.78125 q 0.6875,-1.25 1.26563,-1.64063 0.57812,-0.40625 1.28125,-0.40625 1,0 2.04687,0.64063 l -0.6875,1.84375 q -0.73437,-0.42188 -1.46875,-0.42188 -0.64062,0 -1.17187,0.39063 -0.51563,0.39062 -0.73438,1.09375 -0.32812,1.0625 -0.32812,2.3125 v 6.15625 z m 11.91968,-1.78125 0.28125,1.76562 q -0.84375,0.17188 -1.5,0.17188 -1.07813,0 -1.6875,-0.34375 -0.59375,-0.34375 -0.84375,-0.89063 -0.23438,-0.5625 -0.23438,-2.35937 v -6.76563 h -1.46875 v -1.54687 h 1.46875 v -2.90625 l 1.98438,-1.20313 v 4.10938 h 2 v 1.54687 h -2 v 6.875 q 0,0.84375 0.0937,1.09375 0.10937,0.25 0.34375,0.39063 0.25,0.14062 0.6875,0.14062 0.32812,0 0.875,-0.0781 z m 2.51342,1.78125 v -2.26563 h 2.26563 v 2.26563 z m 4.404,0 4.28125,-6.10938 -3.96875,-5.64062 h 2.48437 l 1.8125,2.75 q 0.5,0.79687 0.8125,1.32812 0.48438,-0.73437 0.90625,-1.29687 l 1.96875,-2.78125 h 2.39063 l -4.0625,5.53125 4.35937,6.21875 h -2.4375 l -2.40625,-3.65625 -0.64062,-0.98438 -3.09375,4.64063 z"
     id="path127"
     inkscape:connector-curvature="0"
     style="fill:#00ffff;fill-rule:nonzero;stroke:none;stroke-opacity:1;fill-opacity:1" />
  <path
     d="m 299.63401,129.64909 v 0 c 0,-5.82376 4.72107,-10.54483 10.54483,-10.54483 h 230.24893 c 2.79663,0 5.47876,1.11098 7.4563,3.0885 1.97754,1.97754 3.0885,4.65967 3.0885,7.45633 v 36.51663 c 0,5.82376 -4.72107,10.54483 -10.5448,10.54483 H 310.17884 c -5.82376,0 -10.54483,-4.72107 -10.54483,-10.54483 z"
     id="path158"
     inkscape:connector-curvature="0"
     style="fill-rule:evenodd;stroke:#00ffff;stroke-width:1.33333337;stroke-linecap:butt;stroke-linejoin:round;stroke-opacity:1" />
  <path
     d="m 325.19614,155.64421 v -16.21875 h 2.14062 v 6.65625 h 8.4375 v -6.65625 h 2.14063 v 16.21875 h -2.14063 v -7.64063 h -8.4375 v 7.64063 z m 20.42413,0 v -14.29688 h -5.34375 v -1.92187 h 12.85938 v 1.92187 h -5.375 v 14.29688 z m 13.83933,0 v -14.29688 h -5.34375 v -1.92187 h 12.85937 v 1.92187 h -5.375 v 14.29688 z m 9.71435,0 v -16.21875 h 6.10938 q 1.625,0 2.46875,0.15625 1.20312,0.20312 2,0.76562 0.8125,0.54688 1.29687,1.5625 0.5,1 0.5,2.20313 0,2.07812 -1.3125,3.51562 -1.3125,1.42188 -4.76562,1.42188 h -4.15625 v 6.59375 z m 2.14063,-8.5 h 4.20312 q 2.07813,0 2.95313,-0.78125 0.875,-0.78125 0.875,-2.17188 0,-1.03125 -0.51563,-1.75 -0.51562,-0.71875 -1.35937,-0.95312 -0.54688,-0.14063 -2,-0.14063 h -4.15625 z m 19.29678,8.5 v -16.21875 h 7.1875 q 2.17188,0 3.29688,0.4375 1.125,0.4375 1.79687,1.54687 0.6875,1.10938 0.6875,2.4375 0,1.73438 -1.125,2.92188 -1.10937,1.17187 -3.45312,1.5 0.85937,0.40625 1.29687,0.79687 0.9375,0.875 1.78125,2.17188 l 2.82813,4.40625 h -2.70313 l -2.14062,-3.375 q -0.95313,-1.45313 -1.5625,-2.23438 -0.59375,-0.78125 -1.07813,-1.07812 -0.48437,-0.3125 -0.98437,-0.4375 -0.35938,-0.0781 -1.1875,-0.0781 h -2.5 v 7.20313 z m 2.14063,-9.0625 h 4.625 q 1.46875,0 2.29687,-0.29688 0.82813,-0.3125 1.25,-0.96875 0.4375,-0.67187 0.4375,-1.46875 0,-1.14062 -0.84375,-1.875 -0.82812,-0.75 -2.625,-0.75 h -5.14062 z m 13.18975,3.1875 q 0,-3.26563 1.8125,-4.82813 1.51563,-1.3125 3.70313,-1.3125 2.42187,0 3.95312,1.59375 1.54688,1.57813 1.54688,4.375 0,2.28125 -0.6875,3.57813 -0.67188,1.29687 -1.98438,2.01562 -1.29687,0.71875 -2.82812,0.71875 -2.46875,0 -4,-1.57812 -1.51563,-1.57813 -1.51563,-4.5625 z m 2.04688,0 q 0,2.25 0.98437,3.375 0.98438,1.125 2.48438,1.125 1.48437,0 2.46875,-1.125 0.98437,-1.125 0.98437,-3.4375 0,-2.1875 -1,-3.29688 -0.98437,-1.125 -2.45312,-1.125 -1.5,0 -2.48438,1.125 -0.98437,1.10938 -0.98437,3.35938 z m 18.99093,5.875 v -1.71875 q -1.35937,1.98437 -3.71875,1.98437 -1.04687,0 -1.95312,-0.39062 -0.89063,-0.40625 -1.32813,-1 -0.4375,-0.60938 -0.60937,-1.48438 -0.125,-0.59375 -0.125,-1.85937 v -7.28125 h 1.98437 v 6.51562 q 0,1.5625 0.125,2.10938 0.1875,0.78125 0.79688,1.23437 0.60937,0.4375 1.5,0.4375 0.90625,0 1.6875,-0.45312 0.78125,-0.46875 1.10937,-1.25 0.32813,-0.79688 0.32813,-2.29688 v -6.29687 h 1.98437 v 11.75 z m 9.2566,-1.78125 0.28125,1.76562 q -0.84375,0.17188 -1.5,0.17188 -1.07813,0 -1.6875,-0.34375 -0.59375,-0.34375 -0.84375,-0.89063 -0.23438,-0.5625 -0.23438,-2.35937 v -6.76563 h -1.46875 v -1.54687 h 1.46875 v -2.90625 l 1.98438,-1.20313 v 4.10938 h 2 v 1.54687 h -2 v 6.875 q 0,0.84375 0.0937,1.09375 0.10937,0.25 0.34375,0.39063 0.25,0.14062 0.6875,0.14062 0.32812,0 0.875,-0.0781 z m 1.95086,-12.14063 v -2.29687 h 2 v 2.29687 z m 0,13.92188 v -11.75 h 2 v 11.75 z m 5.03351,0 v -11.75 h 1.78125 v 1.67187 q 1.29688,-1.9375 3.75,-1.9375 1.0625,0 1.95313,0.39063 0.89062,0.375 1.32812,1 0.4375,0.60937 0.625,1.46875 0.10938,0.54687 0.10938,1.9375 v 7.21875 h -2 v -7.14063 q 0,-1.21875 -0.23438,-1.8125 -0.23437,-0.60937 -0.82812,-0.96875 -0.57813,-0.35937 -1.375,-0.35937 -1.28125,0 -2.20313,0.8125 -0.92187,0.79687 -0.92187,3.04687 v 6.42188 z m 12.22531,0.96875 1.9375,0.29687 q 0.125,0.89063 0.67188,1.29688 0.75,0.5625 2.03125,0.5625 1.375,0 2.125,-0.5625 0.76562,-0.54688 1.03125,-1.54688 0.15625,-0.60937 0.14062,-2.54687 -1.3125,1.53125 -3.25,1.53125 -2.42187,0 -3.75,-1.75 -1.32812,-1.75 -1.32812,-4.1875 0,-1.6875 0.60937,-3.10938 0.60938,-1.42187 1.76563,-2.1875 1.15625,-0.78125 2.70312,-0.78125 2.09375,0 3.4375,1.6875 v -1.42187 h 1.82813 v 10.15625 q 0,2.75 -0.5625,3.89062 -0.54688,1.14063 -1.76563,1.79688 -1.20312,0.67187 -2.96875,0.67187 -2.10937,0 -3.40625,-0.95312 -1.29687,-0.9375 -1.25,-2.84375 z m 1.65625,-7.04688 q 0,2.3125 0.90625,3.375 0.92188,1.0625 2.3125,1.0625 1.375,0 2.29688,-1.0625 0.92187,-1.0625 0.92187,-3.3125 0,-2.15625 -0.95312,-3.25 -0.95313,-1.09375 -2.29688,-1.09375 -1.32812,0 -2.26562,1.07813 -0.92188,1.07812 -0.92188,3.20312 z m 17.76996,6.07813 v -16.21875 h 2.15625 v 14.3125 h 7.98438 v 1.90625 z m 20.10034,-1.45313 q -1.10937,0.9375 -2.14062,1.32813 -1.01563,0.39062 -2.1875,0.39062 -1.9375,0 -2.98438,-0.9375 -1.03125,-0.95312 -1.03125,-2.42187 0,-0.85938 0.39063,-1.57813 0.40625,-0.71875 1.03125,-1.14062 0.64062,-0.4375 1.4375,-0.65625 0.59375,-0.15625 1.76562,-0.29688 2.42188,-0.29687 3.5625,-0.6875 0,-0.40625 0,-0.51562 0,-1.21875 -0.5625,-1.71875 -0.76562,-0.67188 -2.26562,-0.67188 -1.40625,0 -2.07813,0.5 -0.67187,0.48438 -0.98437,1.73438 l -1.95313,-0.26563 q 0.26563,-1.25 0.875,-2.01562 0.60938,-0.78125 1.75,-1.1875 1.15625,-0.42188 2.67188,-0.42188 1.51562,0 2.45312,0.35938 0.9375,0.34375 1.375,0.89062 0.45313,0.53125 0.625,1.34375 0.0937,0.51563 0.0937,1.84375 v 2.65625 q 0,2.78125 0.125,3.51563 0.14063,0.73437 0.51563,1.40625 h -2.07813 q -0.3125,-0.625 -0.40625,-1.45313 z m -0.15625,-4.4375 q -1.09375,0.4375 -3.26562,0.75 -1.21875,0.17188 -1.73438,0.39063 -0.5,0.21875 -0.78125,0.65625 -0.28125,0.42187 -0.28125,0.9375 0,0.79687 0.60938,1.32812 0.60937,0.53125 1.76562,0.53125 1.14063,0 2.03125,-0.5 0.90625,-0.5 1.32813,-1.375 0.32812,-0.67187 0.32812,-2 z m 5.00659,10.42188 -0.21875,-1.875 q 0.65625,0.17187 1.14063,0.17187 0.65625,0 1.04687,-0.21875 0.40625,-0.21875 0.65625,-0.625 0.1875,-0.29687 0.60938,-1.46875 0.0625,-0.17187 0.1875,-0.5 l -4.46875,-11.76562 h 2.15625 l 2.4375,6.8125 q 0.48437,1.28125 0.85937,2.71875 0.34375,-1.375 0.8125,-2.6875 l 2.51563,-6.84375 h 1.98437 l -4.46875,11.95312 q -0.71875,1.9375 -1.10937,2.65625 -0.53125,0.98438 -1.21875,1.4375 -0.6875,0.46875 -1.64063,0.46875 -0.57812,0 -1.28125,-0.23437 z m 19.45313,-8.3125 2.0625,0.25 q -0.48438,1.8125 -1.8125,2.8125 -1.3125,0.98437 -3.35938,0.98437 -2.57812,0 -4.09375,-1.57812 -1.5,-1.59375 -1.5,-4.46875 0,-2.95313 1.53125,-4.59375 1.53125,-1.64063 3.95313,-1.64063 2.35937,0 3.84375,1.60938 1.5,1.59375 1.5,4.51562 0,0.17188 0,0.53125 h -8.76563 q 0.10938,1.9375 1.09375,2.96875 0.98438,1.01563 2.45313,1.01563 1.09375,0 1.85937,-0.5625 0.78125,-0.57813 1.23438,-1.84375 z m -6.53125,-3.21875 h 6.5625 q -0.14063,-1.48438 -0.75,-2.21875 -0.95313,-1.15625 -2.46875,-1.15625 -1.375,0 -2.3125,0.92187 -0.9375,0.90625 -1.03125,2.45313 z m 11.06903,7 v -11.75 h 1.79688 v 1.78125 q 0.6875,-1.25 1.26562,-1.64063 0.57813,-0.40625 1.28125,-0.40625 1,0 2.04688,0.64063 l -0.6875,1.84375 q -0.73438,-0.42188 -1.46875,-0.42188 -0.64063,0 -1.17188,0.39063 -0.51562,0.39062 -0.73437,1.09375 -0.32813,1.0625 -0.32813,2.3125 v 6.15625 z"
     id="path160"
     inkscape:connector-curvature="0"
     style="fill:#00ffff;fill-rule:nonzero;stroke:none;stroke-opacity:1;fill-opacity:1" />
  <path
     d="m 299.63401,239.06893 v 0 c 0,-6.36618 5.16083,-11.52701 11.52701,-11.52701 H 539.4456 c 3.05713,0 5.98907,1.21445 8.15082,3.37619 2.16174,2.16175 3.37616,5.09369 3.37616,8.15082 v 34.55228 c 0,6.36618 -5.16083,11.52701 -11.52698,11.52701 H 311.16102 c -6.36618,0 -11.52701,-5.16083 -11.52701,-11.52701 z"
     id="path191"
     inkscape:connector-curvature="0"
     style="fill-rule:evenodd;stroke:#00ffff;stroke-width:1.33333337;stroke-linecap:butt;stroke-linejoin:round;stroke-opacity:1" />
  <path
     d="m 390.54533,247.86312 h 2.14062 v 9.375 q 0,2.4375 -0.54687,3.875 -0.54688,1.4375 -2,2.34375 -1.4375,0.90625 -3.78125,0.90625 -2.28125,0 -3.73438,-0.78125 -1.45312,-0.79688 -2.07812,-2.28125 -0.60938,-1.48438 -0.60938,-4.0625 v -9.375 h 2.14063 v 9.35937 q 0,2.10938 0.39062,3.10938 0.40625,1 1.35938,1.54687 0.95312,0.54688 2.34375,0.54688 2.35937,0 3.35937,-1.07813 1.01563,-1.07812 1.01563,-4.125 z m 5.47098,16.21875 v -11.75 h 1.78125 v 1.67187 q 1.29687,-1.9375 3.75,-1.9375 1.0625,0 1.95312,0.39063 0.89063,0.375 1.32813,1 0.4375,0.60937 0.625,1.46875 0.10937,0.54687 0.10937,1.9375 v 7.21875 h -2 v -7.14063 q 0,-1.21875 -0.23437,-1.8125 -0.23438,-0.60937 -0.82813,-0.96875 -0.57812,-0.35937 -1.375,-0.35937 -1.28125,0 -2.20312,0.8125 -0.92188,0.79687 -0.92188,3.04687 v 6.42188 z m 20.20972,0 v -1.48438 q -1.10938,1.75 -3.28125,1.75 -1.40625,0 -2.59375,-0.76562 -1.17188,-0.78125 -1.8125,-2.17188 -0.64063,-1.39062 -0.64063,-3.1875 0,-1.76562 0.57813,-3.1875 0.59375,-1.4375 1.76562,-2.20312 1.17188,-0.76563 2.60938,-0.76563 1.0625,0 1.89062,0.45313 0.84375,0.4375 1.35938,1.15625 v -5.8125 h 1.98437 v 16.21875 z m -6.28125,-5.85938 q 0,2.25 0.9375,3.375 0.95312,1.10938 2.25,1.10938 1.3125,0 2.21875,-1.0625 0.92187,-1.0625 0.92187,-3.26563 0,-2.40625 -0.9375,-3.53125 -0.92187,-1.125 -2.29687,-1.125 -1.3125,0 -2.20313,1.07813 -0.89062,1.07812 -0.89062,3.42187 z m 19.30343,2.07813 2.0625,0.25 q -0.48437,1.8125 -1.8125,2.8125 -1.3125,0.98437 -3.35937,0.98437 -2.57813,0 -4.09375,-1.57812 -1.5,-1.59375 -1.5,-4.46875 0,-2.95313 1.53125,-4.59375 1.53125,-1.64063 3.95312,-1.64063 2.35938,0 3.84375,1.60938 1.5,1.59375 1.5,4.51562 0,0.17188 0,0.53125 h -8.76562 q 0.10937,1.9375 1.09375,2.96875 0.98437,1.01563 2.45312,1.01563 1.09375,0 1.85938,-0.5625 0.78125,-0.57813 1.23437,-1.84375 z m -6.53125,-3.21875 h 6.5625 q -0.14062,-1.48438 -0.75,-2.21875 -0.95312,-1.15625 -2.46875,-1.15625 -1.375,0 -2.3125,0.92187 -0.9375,0.90625 -1.03125,2.45313 z m 11.06909,7 v -11.75 h 1.79688 v 1.78125 q 0.6875,-1.25 1.26562,-1.64063 0.57813,-0.40625 1.28125,-0.40625 1,0 2.04688,0.64063 l -0.6875,1.84375 q -0.73438,-0.42188 -1.46875,-0.42188 -0.64063,0 -1.17188,0.39063 -0.51562,0.39062 -0.73437,1.09375 -0.32813,1.0625 -0.32813,2.3125 v 6.15625 z m 11.91971,-1.78125 0.28125,1.76562 q -0.84375,0.17188 -1.5,0.17188 -1.07812,0 -1.6875,-0.34375 -0.59375,-0.34375 -0.84375,-0.89063 -0.23437,-0.5625 -0.23437,-2.35937 v -6.76563 h -1.46875 v -1.54687 h 1.46875 v -2.90625 l 1.98437,-1.20313 v 4.10938 h 2 v 1.54687 h -2 v 6.875 q 0,0.84375 0.0937,1.09375 0.10938,0.25 0.34375,0.39063 0.25,0.14062 0.6875,0.14062 0.32813,0 0.875,-0.0781 z m 1.20087,-4.09375 q 0,-3.26563 1.8125,-4.82813 1.51562,-1.3125 3.70312,-1.3125 2.42188,0 3.95313,1.59375 1.5469,1.57813 1.5469,4.375 0,2.28125 -0.68753,3.57813 -0.67187,1.29687 -1.98437,2.01562 -1.29688,0.71875 -2.82813,0.71875 -2.46875,0 -4,-1.57812 -1.51562,-1.57813 -1.51562,-4.5625 z m 2.04687,0 q 0,2.25 0.98438,3.375 0.98437,1.125 2.48437,1.125 1.48438,0 2.46875,-1.125 0.98438,-1.125 0.98438,-3.4375 0,-2.1875 -1,-3.29688 -0.98438,-1.125 -2.45313,-1.125 -1.5,0 -2.48437,1.125 -0.98438,1.10938 -0.98438,3.35938 z m 13.45969,5.875 -3.59375,-11.75 h 2.0625 l 1.875,6.78125 0.6875,2.53125 q 0.0469,-0.20313 0.60937,-2.4375 l 1.875,-6.875 h 2.04688 l 1.75,6.8125 0.59375,2.25 0.67187,-2.26563 2.01563,-6.79687 h 1.9375 l -3.67188,11.75 h -2.07812 l -1.85938,-7.03125 -0.45312,-2 -2.39063,9.03125 z"
     id="path193"
     inkscape:connector-curvature="0"
     style="fill:#00ffff;fill-rule:nonzero;stroke:none;stroke-opacity:1;fill-opacity:1" />
  <path
     style="fill:#000000;fill-opacity:0;fill-rule:evenodd;stroke:#00ffff;stroke-opacity:1"
     inkscape:connector-curvature="0"
     id="path196"
     d="m 299.63401,147.90743 c -81.65353,0 -163.30708,39.811 -163.30708,79.62204" />
  <path
     style="fill-rule:evenodd;stroke:#00ffff;stroke-width:2;stroke-linecap:butt;stroke-linejoin:round;stroke-opacity:1"
     inkscape:connector-curvature="0"
     id="path198"
     d="m 287.63736,148.19103 -1.38629,0.0671 c -0.63602,0.0331 -1.27173,0.0685 -1.90717,0.10614 -5.08343,0.3013 -10.14688,0.74838 -15.1705,1.33154 -10.04721,1.16635 -19.93494,2.87698 -29.50372,5.05414 -19.13755,4.35434 -36.99927,10.5748 -52.3093,18.03937 -15.31004,7.46457 -28.0684,16.17324 -36.99927,25.50393 -4.46542,4.66538 -7.97396,9.48627 -10.36618,14.38489 -0.29901,0.61231 -0.58058,1.22583 -0.84442,1.84046 -0.13191,0.30728 -0.2594,0.61486 -0.38238,0.92269 l -0.12322,0.31421" />
  <path
     style="fill:#595959;fill-rule:evenodd;stroke:#00ffff;stroke-width:2;stroke-linecap:butt;stroke-opacity:1"
     inkscape:connector-curvature="0"
     id="path200"
     d="m 287.71543,151.49359 8.99561,-3.51706 -9.15174,-3.08804 z" />
  <path
     style="fill:#595959;fill-rule:evenodd;stroke:#00ffff;stroke-width:2;stroke-linecap:butt;stroke-opacity:1"
     inkscape:connector-curvature="0"
     id="path202"
     d="m 135.40366,215.11739 1.48804,9.54337 4.99446,-8.26716 z" />
  <path
     style="fill:#000000;fill-opacity:0;fill-rule:evenodd;stroke:#00ffff;stroke-opacity:1"
     inkscape:connector-curvature="0"
     id="path204"
     d="m 550.97256,147.90743 c 81.65356,0 163.30713,39.811 163.30713,79.62204" />
  <path
     style="fill-rule:evenodd;stroke:#00ffff;stroke-width:2;stroke-linecap:butt;stroke-linejoin:round;stroke-opacity:1"
     inkscape:connector-curvature="0"
     id="path206"
     d="m 562.96921,148.19103 1.38629,0.0671 c 0.63605,0.0331 1.27179,0.0685 1.90717,0.10614 5.08343,0.3013 10.14691,0.74838 15.17053,1.33154 10.04718,1.16635 19.93494,2.87698 29.50372,5.05414 19.13751,4.35434 36.99921,10.5748 52.30927,18.03937 15.30999,7.46457 28.06836,16.17324 36.99926,25.50393 4.46546,4.66538 7.974,9.48627 10.36609,14.38489 0.29908,0.61231 0.58063,1.22583 0.84455,1.84046 0.13183,0.30728 0.25934,0.61486 0.38238,0.92269 l 0.12317,0.31421" />
  <path
     style="fill:#595959;fill-rule:evenodd;stroke:#00ffff;stroke-width:2;stroke-linecap:butt;stroke-opacity:1"
     inkscape:connector-curvature="0"
     id="path208"
     d="m 563.04736,144.88849 -9.15173,3.08804 8.99554,3.51706 z" />
  <path
     style="fill:#595959;fill-rule:evenodd;stroke:#00ffff;stroke-width:2;stroke-linecap:butt;stroke-opacity:1"
     inkscape:connector-curvature="0"
     id="path210"
     d="m 708.72036,216.39359 4.99451,8.26715 1.48803,-9.54336 z" />
  <path
     style="fill:#000000;fill-opacity:0;fill-rule:evenodd;stroke:#00ffff;stroke-opacity:1"
     inkscape:connector-curvature="0"
     id="path212"
     d="m 425.30329,176.71056 c 0,12.70792 0.0158,19.06146 0.0315,25.4158 0.0158,6.35434 0.0315,12.70941 0.0315,25.41886" />
  <path
     style="fill-rule:evenodd;stroke:#00ffff;stroke-width:2;stroke-linecap:butt;stroke-linejoin:round;stroke-opacity:1"
     inkscape:connector-curvature="0"
     id="path214"
     d="m 425.30982,188.71056 0.003,3.09048 c 0.006,3.9712 0.0138,7.14817 0.0216,10.32532 0.008,3.17719 0.0158,6.35452 0.0217,10.32626 l 0.003,3.09263" />
  <path
     style="fill:#595959;fill-rule:evenodd;stroke:#00ffff;stroke-width:2;stroke-linecap:butt;stroke-opacity:1"
     inkscape:connector-curvature="0"
     id="path216"
     d="m 428.61329,188.70876 -3.30841,-9.0744 -3.29852,9.078 z" />
  <path
     style="fill:#595959;fill-rule:evenodd;stroke:#00ffff;stroke-width:2;stroke-linecap:butt;stroke-opacity:1"
     inkscape:connector-curvature="0"
     id="path218"
     d="m 422.05631,215.54701 3.30838,9.0744 3.29855,-9.07797 z" />
  <path
     style="fill:#000000;fill-opacity:0;fill-rule:evenodd;stroke:#00ffff;stroke-opacity:1"
     inkscape:connector-curvature="0"
     id="path220"
     d="m 425.30329,68.272967 c 0,12.7079 0.0158,19.06148 0.0315,25.4158 0.0158,6.354343 0.0315,12.709433 0.0315,25.418863" />
  <path
     style="fill-rule:evenodd;stroke:#00ffff;stroke-width:2;stroke-linecap:butt;stroke-linejoin:round;stroke-opacity:1"
     inkscape:connector-curvature="0"
     id="path222"
     d="m 425.30982,80.272967 0.003,3.09048 c 0.006,3.97118 0.0138,7.14815 0.0216,10.32532 0.008,3.17717 0.0158,6.354513 0.0217,10.326263 l 0.003,3.09258" />
  <path
     style="fill:#595959;fill-rule:evenodd;stroke:#00ffff;stroke-width:2;stroke-linecap:butt;stroke-opacity:1"
     inkscape:connector-curvature="0"
     id="path224"
     d="m 428.61329,80.271167 -3.30841,-9.0744 -3.29852,9.07799 z" />
  <path
     style="fill:#595959;fill-rule:evenodd;stroke:#00ffff;stroke-width:2;stroke-linecap:butt;stroke-opacity:1"
     inkscape:connector-curvature="0"
     id="path226"
     d="m 422.05631,107.10941 3.30838,9.0744 3.29855,-9.078 z" />
</svg>
