<?xml version="1.0" encoding="UTF-8" standalone="no"?>
<svg
   xmlns:dc="http://purl.org/dc/elements/1.1/"
   xmlns:cc="http://creativecommons.org/ns#"
   xmlns:rdf="http://www.w3.org/1999/02/22-rdf-syntax-ns#"
   xmlns:svg="http://www.w3.org/2000/svg"
   xmlns="http://www.w3.org/2000/svg"
   xmlns:sodipodi="http://sodipodi.sourceforge.net/DTD/sodipodi-0.dtd"
   xmlns:inkscape="http://www.inkscape.org/namespaces/inkscape"
   viewBox="0 0 1192.1212 865.03107"
   version="1.1"
   id="svg3148"
   sodipodi:docname="eap-wildfly-logo.svg"
   inkscape:version="0.92.4 (unknown)"
   width="1192.1212"
   height="865.03107">
  <metadata
     id="metadata3152">
    <rdf:RDF>
      <cc:Work
         rdf:about="">
        <dc:format>image/svg+xml</dc:format>
        <dc:type
           rdf:resource="http://purl.org/dc/dcmitype/StillImage" />
        <dc:title>Logo-Red_Hat-JBoss_Enterprise_Application_Platform-B-Standard-RGB</dc:title>
      </cc:Work>
    </rdf:RDF>
  </metadata>
  <sodipodi:namedview
     pagecolor="#ffffff"
     bordercolor="#666666"
     borderopacity="1"
     objecttolerance="10"
     gridtolerance="10"
     guidetolerance="10"
     inkscape:pageopacity="0"
     inkscape:pageshadow="2"
     inkscape:window-width="1830"
     inkscape:window-height="1051"
     id="namedview3150"
     showgrid="false"
     inkscape:pagecheckerboard="true"
     inkscape:zoom="0.54316848"
     inkscape:cx="392.80685"
     inkscape:cy="554.78662"
     inkscape:window-x="82"
     inkscape:window-y="0"
     inkscape:window-maximized="1"
     inkscape:current-layer="svg3148"
     fit-margin-top="0"
     fit-margin-left="0"
     fit-margin-right="0"
     fit-margin-bottom="0" />
  <defs
     id="defs3070">
    <style
       id="style3068">.a{fill:#e00;}</style>
  </defs>
  <title
     id="title3072">Logo-Red_Hat-JBoss_Enterprise_Application_Platform-B-Standard-RGB</title>
  <path
     d="m 248.84564,218.68 c -13.42,0 -23.4,-7.18 -27.66,-19.76 l 9.96,-3.92 c 3.43,9.15 9.15,13.73 17.78,13.73 10.61,0 17.69,-7.6 17.69,-19.14 v -44.86 h 10.92 v 45 c 0.02,17.61 -11.32,28.95 -28.69,28.95 z"
     id="path3074"
     style="fill:#ffffff;fill-opacity:1"
     inkscape:connector-curvature="0" />
  <path
     d="m 322.47564,144.73 c 14.46,0 23.61,7.8 23.61,19.25 0,7 -3.85,12.58 -10.09,15.7 7.91,3 12.9,9.26 12.9,17.16 0,12.17 -9.57,20.7 -25.07,20.7 h -32.86 v -72.81 z m -20.59,9.27 v 21.63 h 20 c 8.42,0 13.41,-4.36 13.41,-10.81 0,-6.45 -5,-10.82 -13.41,-10.82 z m 36,42.33 c 0,-7.07 -5.61,-12 -14.87,-12 h -21.13 v 23.92 h 21.11 c 9.26,0.03 14.87,-4.86 14.87,-11.93 z"
     id="path3076"
     style="fill:#ffffff;fill-opacity:1"
     inkscape:connector-curvature="0" />
  <path
     d="m 384.66564,163.56 a 27.51,27.51 0 1 1 -27.52,27.44 27.17,27.17 0 0 1 27.52,-27.44 z m 0,9.15 c -9.67,0 -17.37,8 -17.37,18.31 0,10.31 7.6,18.4 17.37,18.4 9.77,0 17.37,-8.11 17.37,-18.4 0,-10.29 -7.69,-18.31 -17.37,-18.31 z"
     id="path3078"
     style="fill:#ffffff;fill-opacity:1"
     inkscape:connector-curvature="0" />
  <path
     d="m 423.14564,203.81 a 27.22,27.22 0 0 0 17.26,6.65 c 8.32,0 12.69,-3.64 12.69,-7.9 0,-3.74 -2.6,-5.93 -8.53,-6.76 l -9.56,-1.35 c -10.4,-1.46 -15.81,-6.45 -15.81,-14.67 0,-9.67 8.53,-16 20.7,-16 a 36.37,36.37 0 0 1 21.32,6.76 l -5.31,6.86 c -5.1,-3.43 -10.4,-5.51 -16.74,-5.51 -6.14,0 -10.61,2.7 -10.61,7.18 0,3.95 2.5,5.72 8.74,6.65 l 9.56,1.35 c 10.72,1.56 16,6.66 16,14.77 0,9.57 -9.57,16.64 -22.15,16.64 -8.84,0 -17.16,-2.6 -23.2,-7.8 z"
     id="path3080"
     style="fill:#ffffff;fill-opacity:1"
     inkscape:connector-curvature="0" />
  <path
     d="m 472.14564,203.81 a 27.27,27.27 0 0 0 17.27,6.65 c 8.32,0 12.69,-3.64 12.69,-7.9 0,-3.74 -2.6,-5.93 -8.53,-6.76 l -9.57,-1.35 c -10.42,-1.45 -15.86,-6.45 -15.86,-14.67 0,-9.67 8.53,-16 20.7,-16 a 36.37,36.37 0 0 1 21.32,6.76 l -5.3,6.86 c -5.1,-3.43 -10.41,-5.51 -16.75,-5.51 -6.14,0 -10.61,2.7 -10.61,7.18 0,3.95 2.5,5.72 8.74,6.65 l 9.57,1.35 c 10.71,1.56 16,6.66 16,14.77 0,9.57 -9.56,16.64 -22.15,16.64 -8.84,0 -17.16,-2.6 -23.19,-7.8 z"
     id="path3082"
     style="fill:#ffffff;fill-opacity:1"
     inkscape:connector-curvature="0" />
  <path
     d="m 542.84564,144.73 h 53.67 v 9.57 h -42.75 v 21.84 h 28.08 v 9.36 h -28.08 V 208 h 43.17 v 9.57 h -54.09 z"
     id="path3084"
     style="fill:#ffffff;fill-opacity:1"
     inkscape:connector-curvature="0" />
  <path
     d="m 606.80564,164.6 h 10.4 v 5.3 a 21.64,21.64 0 0 1 15.94,-6.34 c 12.16,0 20.59,8.53 20.59,20.7 v 33.28 h -10.3 V 186 c 0,-8.21 -5,-13.41 -13.21,-13.41 a 14.91,14.91 0 0 0 -13,6.86 v 38.07 h -10.4 z"
     id="path3086"
     style="fill:#ffffff;fill-opacity:1"
     inkscape:connector-curvature="0" />
  <path
     d="m 670.66564,173.34 h -11.23 v -8.74 h 11.23 v -13.52 l 10.29,-2.5 v 16 h 15.6 v 8.74 h -15.6 V 202 c 0,5.41 2.19,7.38 7.8,7.38 a 20.23,20.23 0 0 0 7.6,-1.24 v 8.73 a 35.56,35.56 0 0 1 -9.88,1.56 c -10.3,0 -15.81,-4.88 -15.81,-14 z"
     id="path3088"
     style="fill:#ffffff;fill-opacity:1"
     inkscape:connector-curvature="0" />
  <path
     d="m 727.23564,163.77 c 14.57,0 25.59,12.06 25.59,27.66 v 3 h -41.81 a 17.86,17.86 0 0 0 17.89,15.18 20.62,20.62 0 0 0 13.42,-4.61 l 6.65,6.55 a 31.19,31.19 0 0 1 -20.49,7 c -15.6,0 -27.77,-12 -27.77,-27.45 0,-15.27 11.55,-27.33 26.52,-27.33 z m -16.09,22.88 h 31.41 c -1.45,-8.11 -7.8,-14.15 -15.49,-14.15 -8.15,0 -14.39,5.83 -15.92,14.15 z"
     id="path3090"
     style="fill:#ffffff;fill-opacity:1"
     inkscape:connector-curvature="0" />
  <path
     d="m 762.59564,164.6 h 10.4 v 6.55 a 17,17 0 0 1 14.46,-7.69 15.17,15.17 0 0 1 5.41,0.83 v 9.36 a 18.36,18.36 0 0 0 -6.24,-1.15 c -5.51,0 -10.71,2.71 -13.63,9.57 v 35.47 h -10.4 z"
     id="path3092"
     style="fill:#ffffff;fill-opacity:1"
     inkscape:connector-curvature="0" />
  <path
     d="m 801.28564,164.6 h 10.3 v 5 a 25,25 0 0 1 16.22,-5.82 c 15.08,0 26.73,12.06 26.73,27.25 0,15.19 -11.65,27.35 -27,27.35 a 26.18,26.18 0 0 1 -15.81,-5.2 v 25.9 h -10.4 z m 10.4,14.46 v 24.12 a 19.69,19.69 0 0 0 14.67,6.14 c 10.29,0 18,-7.9 18,-18.2 0,-10.5 -7.91,-18.3 -18,-18.3 -6.14,0 -11.21,2.28 -14.67,6.24 z"
     id="path3094"
     style="fill:#ffffff;fill-opacity:1"
     inkscape:connector-curvature="0" />
  <path
     d="m 864.30564,164.6 h 10.4 v 6.55 a 17,17 0 0 1 14.44,-7.69 15.17,15.17 0 0 1 5.41,0.83 v 9.36 a 18.41,18.41 0 0 0 -6.24,-1.15 c -5.51,0 -10.71,2.71 -13.63,9.57 v 35.47 h -10.4 z"
     id="path3096"
     style="fill:#ffffff;fill-opacity:1"
     inkscape:connector-curvature="0" />
  <path
     d="m 901.74564,149.62 a 6.49,6.49 0 0 1 6.45,-6.45 6.45,6.45 0 0 1 0,12.9 6.49,6.49 0 0 1 -6.45,-6.45 z m 11.65,67.92 h -10.4 V 164.6 h 10.4 z"
     id="path3098"
     style="fill:#ffffff;fill-opacity:1"
     inkscape:connector-curvature="0" />
  <path
     d="m 926.14564,203.81 a 27.25,27.25 0 0 0 17.27,6.65 c 8.32,0 12.69,-3.64 12.69,-7.9 0,-3.74 -2.6,-5.93 -8.53,-6.76 l -9.57,-1.35 c -10.4,-1.46 -15.81,-6.45 -15.81,-14.67 0,-9.67 8.53,-16 20.7,-16 a 36.37,36.37 0 0 1 21.32,6.76 l -5.31,6.86 c -5.09,-3.43 -10.4,-5.51 -16.74,-5.51 -6.14,0 -10.61,2.7 -10.61,7.18 0,3.95 2.5,5.72 8.74,6.65 l 9.56,1.35 c 10.72,1.56 16,6.66 16,14.77 0,9.57 -9.57,16.64 -22.15,16.64 -8.84,0 -17.16,-2.6 -23.19,-7.8 z"
     id="path3100"
     style="fill:#ffffff;fill-opacity:1"
     inkscape:connector-curvature="0" />
  <path
     d="m 998.57564,163.77 c 14.56006,0 25.58006,12.06 25.58006,27.66 v 3 h -41.81006 a 17.86,17.86 0 0 0 17.89006,15.18 20.62,20.62 0 0 0 13.42,-4.68 l 6.65,6.55 a 31.19,31.19 0 0 1 -20.49006,7 c -15.6,0 -27.76,-12 -27.76,-27.45 0,-15.2 11.54,-27.26 26.52,-27.26 z m -16.12,22.88 h 31.40006 c -1.45,-8.11 -7.8,-14.15 -15.49006,-14.15 -8.11,0 -14.35,5.83 -15.91,14.15 z"
     id="path3102"
     style="fill:#ffffff;fill-opacity:1"
     inkscape:connector-curvature="0" />
  <path
     d="m 249.67564,252.73 h 12.8 l 29.74,72.81 h -11.86 l -8.42,-21.32 h -32.55 l -8.53,21.32 h -11.34 z m 18.72,42.44 -12.68,-31.93 -12.69,31.93 z"
     id="path3104"
     style="fill:#ffffff;fill-opacity:1"
     inkscape:connector-curvature="0" />
  <path
     d="m 298.34564,272.6 h 10.3 v 5 a 25,25 0 0 1 16.22,-5.82 c 15.08,0 26.73,12.06 26.73,27.25 0,15.19 -11.65,27.35 -27,27.35 a 26.2,26.2 0 0 1 -15.81,-5.2 v 25.9 h -10.44 z m 10.4,14.46 v 24.12 a 19.69,19.69 0 0 0 14.67,6.14 c 10.29,0 18,-7.9 18,-18.2 0,-10.5 -7.9,-18.3 -18,-18.3 -6.14,0 -11.27,2.28 -14.67,6.24 z"
     id="path3106"
     style="fill:#ffffff;fill-opacity:1"
     inkscape:connector-curvature="0" />
  <path
     d="m 361.37564,272.6 h 10.29 v 5 a 25,25 0 0 1 16.23,-5.82 c 15.08,0 26.73,12.06 26.73,27.25 0,15.19 -11.65,27.35 -27.05,27.35 a 26.17,26.17 0 0 1 -15.8,-5.2 v 25.9 h -10.4 z m 10.4,14.46 v 24.12 a 19.65,19.65 0 0 0 14.66,6.14 c 10.3,0 18,-7.9 18,-18.2 0,-10.5 -7.9,-18.3 -18,-18.3 -6.14,0 -11.23,2.28 -14.66,6.24 z"
     id="path3108"
     style="fill:#ffffff;fill-opacity:1"
     inkscape:connector-curvature="0" />
  <path
     d="m 434.79564,325.54 h -10.4 v -72.81 l 10.4,-2.28 z"
     id="path3110"
     style="fill:#ffffff;fill-opacity:1"
     inkscape:connector-curvature="0" />
  <path
     d="m 445.60564,257.62 a 6.49,6.49 0 0 1 6.45,-6.45 6.45,6.45 0 0 1 0,12.9 6.48,6.48 0 0 1 -6.45,-6.45 z m 11.65,67.92 h -10.4 V 272.6 h 10.4 z"
     id="path3112"
     style="fill:#ffffff;fill-opacity:1"
     inkscape:connector-curvature="0" />
  <path
     d="m 508.94564,310.87 6.24,6.76 a 29.26,29.26 0 0 1 -20.91,8.84 27.46,27.46 0 0 1 0,-54.91 30.34,30.34 0 0 1 21.33,8.84 l -6.56,7.07 a 19.65,19.65 0 0 0 -14.56,-6.65 c -9.67,0 -17.16,8 -17.16,18.2 0,10.4 7.59,18.3 17.37,18.3 5.45,0 10.09,-2.18 14.25,-6.45 z"
     id="path3114"
     style="fill:#ffffff;fill-opacity:1"
     inkscape:connector-curvature="0" />
  <path
     d="m 521.00564,310.35 c 0,-10.61 9,-16.12 21.42,-16.12 a 36.63,36.63 0 0 1 14.46,2.91 v -5.61 c 0,-7.49 -4.47,-11.23 -12.9,-11.23 -5.09,0 -10.29,1.56 -16.43,4.47 l -3.85,-7.8 c 7.49,-3.54 14.36,-5.41 21.74,-5.41 13.62,0 21.63,6.66 21.63,18.93 v 35.05 h -10.19 V 321 c -4.58,3.75 -10,5.51 -16.43,5.51 -11.55,-0.04 -19.45,-6.69 -19.45,-16.16 z m 21.84,8.43 a 20.34,20.34 0 0 0 14,-5 v -9.25 a 27.78,27.78 0 0 0 -13.62,-3.12 c -7.28,0 -12.28,3.22 -12.28,8.73 0.04,5.2 4.93,8.64 11.9,8.64 z"
     id="path3116"
     style="fill:#ffffff;fill-opacity:1"
     inkscape:connector-curvature="0" />
  <path
     d="m 583.92564,281.34 h -11.23 v -8.74 h 11.23 v -13.52 l 10.3,-2.5 v 16 h 15.6 v 8.74 h -15.6 V 310 c 0,5.41 2.18,7.38 7.8,7.38 a 20.21,20.21 0 0 0 7.59,-1.24 v 8.73 a 35.44,35.44 0 0 1 -9.88,1.56 c -10.3,0 -15.81,-4.88 -15.81,-14 z"
     id="path3118"
     style="fill:#ffffff;fill-opacity:1"
     inkscape:connector-curvature="0" />
  <path
     d="m 616.14564,257.62 a 6.49,6.49 0 0 1 6.45,-6.45 6.45,6.45 0 0 1 0,12.9 6.48,6.48 0 0 1 -6.45,-6.45 z m 11.65,67.92 h -10.4 V 272.6 h 10.4 z"
     id="path3120"
     style="fill:#ffffff;fill-opacity:1"
     inkscape:connector-curvature="0" />
  <path
     d="m 665.14564,271.56 a 27.51,27.51 0 1 1 -27.56,27.44 27.17,27.17 0 0 1 27.56,-27.44 z m 0,9.15 c -9.67,0 -17.37,8 -17.37,18.31 0,10.31 7.6,18.4 17.37,18.4 9.77,0 17.37,-8.11 17.37,-18.4 0,-10.29 -7.69,-18.31 -17.37,-18.31 z"
     id="path3122"
     style="fill:#ffffff;fill-opacity:1"
     inkscape:connector-curvature="0" />
  <path
     d="m 702.37564,272.6 h 10.4 v 5.3 a 21.64,21.64 0 0 1 15.92,-6.34 c 12.17,0 20.59,8.53 20.59,20.7 v 33.28 h -10.3 V 294 c 0,-8.21 -5,-13.41 -13.2,-13.41 a 14.92,14.92 0 0 0 -13,6.86 v 38.07 h -10.4 z"
     id="path3124"
     style="fill:#ffffff;fill-opacity:1"
     inkscape:connector-curvature="0" />
  <path
     d="m 784.43564,252.73 h 33.71 c 14.35,0 23.81,9 23.81,21.85 0,12.58 -9.46,21.63 -23.81,21.63 h -22.79 v 29.33 h -10.92 z m 10.92,9.57 V 287 h 21.63 c 8.84,0 13.94,-5.09 13.94,-12.37 0,-7.28 -5.1,-12.28 -13.94,-12.28 z"
     id="path3126"
     style="fill:#ffffff;fill-opacity:1"
     inkscape:connector-curvature="0" />
  <path
     d="m 862.22564,325.54 h -10.4 v -72.81 l 10.4,-2.28 z"
     id="path3128"
     style="fill:#ffffff;fill-opacity:1"
     inkscape:connector-curvature="0" />
  <path
     d="m 871.68564,310.35 c 0,-10.61 9.05,-16.12 21.43,-16.12 a 36.59,36.59 0 0 1 14.45,2.91 v -5.61 c 0,-7.49 -4.47,-11.23 -12.89,-11.23 -5.1,0 -10.3,1.56 -16.44,4.47 l -3.84,-7.8 c 7.49,-3.54 14.35,-5.41 21.73,-5.41 13.63,0 21.64,6.66 21.64,18.93 v 35.05 h -10.2 V 321 c -4.57,3.75 -10,5.51 -16.43,5.51 -11.54,-0.04 -19.45,-6.69 -19.45,-16.16 z m 21.84,8.43 a 20.34,20.34 0 0 0 14,-5 v -9.25 a 27.73,27.73 0 0 0 -13.62,-3.12 c -7.28,0 -12.27,3.22 -12.27,8.73 0.04,5.2 4.92,8.64 11.89,8.64 z"
     id="path3130"
     style="fill:#ffffff;fill-opacity:1"
     inkscape:connector-curvature="0" />
  <path
     d="m 934.60564,281.34 h -11.23 v -8.74 h 11.23 v -13.52 l 10.3,-2.5 v 16 h 15.6 v 8.74 h -15.6 V 310 c 0,5.41 2.18,7.38 7.8,7.38 a 20.18,20.18 0 0 0 7.59,-1.24 v 8.73 a 35.44,35.44 0 0 1 -9.88,1.56 c -10.29,0 -15.81,-4.88 -15.81,-14 z"
     id="path3132"
     style="fill:#ffffff;fill-opacity:1"
     inkscape:connector-curvature="0" />
  <path
     d="m 977.14564,272.6 v -8 c 0,-10.71 6.13,-17.06 18,-17.06 a 29.16,29.16 0 0 1 7.49006,0.94 v 9 a 20,20 0 0 0 -6.55006,-0.94 c -5.83,0 -8.64,2.5 -8.64,8.22 v 7.8 h 15.19006 v 8.74 h -15.20006 v 44.2 h -10.29 v -44.2 h -12.27 v -8.7 z"
     id="path3134"
     style="fill:#ffffff;fill-opacity:1"
     inkscape:connector-curvature="0" />
  <path
     d="m 1033.5157,271.56 a 27.51,27.51 0 1 1 -27.57,27.44 27.16,27.16 0 0 1 27.57,-27.44 z m 0,9.15 c -9.68,0 -17.37,8 -17.37,18.31 0,10.31 7.59,18.4 17.37,18.4 9.78,0 17.36,-8.11 17.36,-18.4 0,-10.29 -7.73,-18.31 -17.36,-18.31 z"
     id="path3136"
     style="fill:#ffffff;fill-opacity:1"
     inkscape:connector-curvature="0" />
  <path
     d="m 1070.7457,272.6 h 10.4 v 6.55 a 17,17 0 0 1 14.45,-7.69 15.09,15.09 0 0 1 5.41,0.83 v 9.36 a 18.36,18.36 0 0 0 -6.24,-1.15 c -5.51,0 -10.71,2.71 -13.62,9.57 v 35.47 h -10.4 z"
     id="path3138"
     style="fill:#ffffff;fill-opacity:1"
     inkscape:connector-curvature="0" />
  <path
     d="m 1109.4257,272.6 h 10.4 v 4.89 a 20.23,20.23 0 0 1 14.77,-5.93 18.9,18.9 0 0 1 16.44,8.74 c 4.26,-5.72 10.29,-8.74 17.88,-8.74 11.65,0 19.77,8.53 19.77,20.7 v 33.28 h -10.3 V 294 c 0,-8.21 -4.58,-13.41 -12.17,-13.41 -5.3,0 -9.46,2.49 -12.38,7.07 a 21.57,21.57 0 0 1 0.42,4.58 v 33.28 h -10.4 V 294 c 0,-8.21 -4.58,-13.41 -12.06,-13.41 a 13.77,13.77 0 0 0 -12,6.34 v 38.59 h -10.4 z"
     id="path3140"
     style="fill:#ffffff;fill-opacity:1"
     inkscape:connector-curvature="0" />
  <path
     class="a"
     d="m 127.14564,83 c 12.51,0 30.61,-2.58 30.61,-17.46 a 14,14 0 0 0 -0.31,-3.42 l -7.45,-32.36 c -1.72,-7.12 -3.23,-10.35 -15.73,-16.6 C 124.53564,8.19 103.40564,0 97.145634,0 c -5.82,0 -7.55,7.54 -14.45,7.54 -6.68,0 -11.64,-5.6 -17.89,-5.6 -6,0 -9.91,4.09 -12.93,12.5 0,0 -8.41,23.72 -9.49,27.16 a 6.43,6.43 0 0 0 -0.24,1.94 c 0,9.22 36.33,39.46 85.000006,39.46 m 32.55,-11.42 c 1.73,8.19 1.73,9.05 1.73,10.13 0,14 -15.74,21.77 -36.43,21.77 C 78.145634,103.47 37.225634,76.1 37.225634,58 a 18.45,18.45 0 0 1 1.51,-7.33 c -16.82,0.85 -38.59000135,3.87 -38.59000135,23.05 0,31.48 74.59000135,70.28 133.65000735,70.28 45.28,0 56.7,-20.48 56.7,-36.65 0,-12.72 -11,-27.16 -30.83,-35.78"
     id="path3142"
     inkscape:connector-curvature="0"
     style="fill:#ee0000" />
  <path
     d="m 159.66564,71.57 c 1.73,8.19 1.73,9.05 1.73,10.13 0,14 -15.74,21.77 -36.43,21.77 C 78.145634,103.47 37.225634,76.1 37.225634,58 a 18.45,18.45 0 0 1 1.51,-7.33 l 3.66,-9.06 a 6.43,6.43 0 0 0 -0.25,1.93 c 0,9.22 36.33,39.46 85.000006,39.46 12.51,0 30.61,-2.58 30.61,-17.46 a 14,14 0 0 0 -0.31,-3.42 z"
     id="path3144"
     inkscape:connector-curvature="0" />
  <path
     d="m 579.38564,92.3 c 0,11.89 7.15,17.67 20.19,17.67 a 52.11,52.11 0 0 0 11.89,-1.68 V 94.51 a 24.84,24.84 0 0 1 -7.68,1.16 c -5.37,0 -7.36,-1.68 -7.36,-6.73 V 67.8 h 15.56 V 53.6 h -15.56 v -18 l -17,3.68 V 53.6 h -11.28 v 14.2 h 11.25 z m -53,0.32 c 0,-3.68 3.69,-5.47 9.26,-5.47 a 43.12,43.12 0 0 1 10.1,1.26 v 7.15 a 21.51,21.51 0 0 1 -10.6,2.63 c -5.46,0 -8.73,-2.1 -8.73,-5.57 m 5.2,17.56 c 6,0 10.84,-1.26 15.36,-4.31 v 3.37 h 16.82 V 73.58 c 0,-13.56 -9.14,-21 -24.39,-21 -8.52,0 -16.94,2 -26,6.1 l 6.1,12.52 c 6.52,-2.74 12,-4.42 16.83,-4.42 7,0 10.62,2.73 10.62,8.31 v 2.73 a 49.53,49.53 0 0 0 -12.62,-1.58 c -14.31,0 -22.93,6 -22.93,16.73 0,9.78 7.78,17.24 20.19,17.24 m -92.44,-0.94 h 18.09 V 80.42 h 30.29 v 28.82 h 18.09 V 35.62 h -18.05 v 28.29 h -30.29 V 35.62 h -18.09 z m -68.89,-27.9 c 0,-8 6.31,-14.1 14.62,-14.1 a 17.22,17.22 0 0 1 11.78,4.32 V 91 a 16.36,16.36 0 0 1 -11.78,4.42 c -8.2,0 -14.62,-6.1 -14.62,-14.09 m 26.61,27.87 h 16.83 V 31.94 l -17,3.68 v 20.93 a 28.3,28.3 0 0 0 -14.2,-3.68 c -16.19,0 -28.92,12.51 -28.92,28.5 a 28.25,28.25 0 0 0 28.36,28.63 25.12,25.12 0 0 0 14.93,-4.83 z m -77.19,-42.7 c 5.36,0 9.88,3.47 11.67,8.83 h -23.21 c 1.68,-5.57 5.89,-8.83 11.57,-8.83 m -28.74,14.97 c 0,16.2 13.25,28.82 30.28,28.82 9.36,0 16.2,-2.53 23.25,-8.42 l -11.26,-10 c -2.63,2.74 -6.52,4.21 -11.14,4.21 a 14.39,14.39 0 0 1 -13.68,-8.83 h 39.65 v -4.2 c 0,-17.67 -11.88,-30.39 -28.08,-30.39 a 28.57,28.57 0 0 0 -29,28.81 m -29.36,-30.39 c 6,0 9.36,3.78 9.36,8.31 0,4.53 -3.37,8.31 -9.36,8.31 h -17.88 V 51.08 Z m -36,58.16 h 18.09 V 82.42 h 13.77 l 13.89,26.82 h 20.19 l -16.2,-29.45 a 22.27,22.27 0 0 0 13.88,-20.72 c 0,-13.25 -10.41,-23.45 -26,-23.45 h -37.59 z"
     id="path3146"
     style="fill:#ffffff;fill-opacity:1"
     inkscape:connector-curvature="0" />
  <style
     id="style3987"
     type="text/css">
	.st0{fill:#FFFFFF;}
	.st1{opacity:0.7;fill:#FFFFFF;}
	.st2{opacity:0.5;fill:#E1EEF4;}
	.st3{fill:#293644;}
	.st4{fill:#D4DFE5;}
	.st5{fill:#DFEEF6;}
	.st6{fill:none;stroke:#E2E2E2;stroke-width:0.8378;stroke-miterlimit:10;}
	.st7{fill:none;stroke:#E2E2E2;stroke-width:0.2793;stroke-miterlimit:10;}
	.st8{fill:none;stroke:#E2E2E2;stroke-width:0.1396;stroke-miterlimit:10;}
	.st9{fill:none;stroke:#E2E2E2;stroke-width:0.6265;stroke-miterlimit:10;}
</style>
  <g
     id="g4043"
     transform="matrix(2.0353785,0,0,2.0353785,2654.7442,512.09646)"
     style="stroke-width:0.49130911">
	<g
   id="g4007"
   style="stroke-width:0.49130911">
		<g
   id="g4005"
   style="stroke-width:0.49130911">
			<g
   id="g4003"
   style="stroke-width:0.49130911">
				<path
   style="fill:#ffffff;stroke-width:0.49130911"
   inkscape:connector-curvature="0"
   class="st0"
   d="m -1299.8,39.9 18,84 h 4.8 l 19.6,-82.8 h 5 l 20.2,82.8 h 4.8 l 17.4,-84 h 4.4 l -18.2,88.3 h -12.1 l -19.1,-81.1 -18.4,81.1 h -12.1 l -18.8,-88.3 z"
   id="path3989" />

				<path
   style="fill:#ffffff;stroke-width:0.49130911"
   inkscape:connector-curvature="0"
   class="st0"
   d="m -1195.7,39.9 h 4.4 v 6.9 h -4.4 z m 0,25.2 h 4.4 v 63.1 h -4.4 z"
   id="path3991" />

				<path
   style="fill:#ffffff;stroke-width:0.49130911"
   inkscape:connector-curvature="0"
   class="st0"
   d="m -1175.2,36.1 h 4.4 v 92.1 h -4.4 z"
   id="path3993" />

				<path
   style="fill:#ffffff;stroke-width:0.49130911"
   inkscape:connector-curvature="0"
   class="st0"
   d="m -1110.8,128.2 h -4.4 v -5.3 c 0,0 -10.3,6.4 -21.8,6.4 -7.8,0 -21.3,-1.1 -21.3,-31.8 0,-21.7 5.8,-33.6 26.5,-33.6 5.9,0 13.5,1 16.7,1.5 V 39.9 h 4.4 v 88.3 z m -4.4,-9.5 V 69.5 c -3.3,-0.4 -11.7,-1.5 -16.7,-1.5 -17.9,0 -22.1,10.7 -22.1,29.9 0,25.1 9.8,27.4 16.9,27.4 10.9,0 21.9,-6.6 21.9,-6.6 z"
   id="path3995" />

				<path
   style="fill:#ffffff;stroke-width:0.49130911"
   inkscape:connector-curvature="0"
   class="st0"
   d="m -1096.4,41.1 h 55.3 v 16.7 h -38.1 v 25.1 h 30.5 v 16.5 h -30.5 v 28.8 h -17.2 z"
   id="path3997" />

				<path
   style="fill:#ffffff;stroke-width:0.49130911"
   inkscape:connector-curvature="0"
   class="st0"
   d="m -1036.1,39.9 h 16.9 v 88.3 h -16.9 z"
   id="path3999" />

				<path
   style="fill:#ffffff;stroke-width:0.49130911"
   inkscape:connector-curvature="0"
   class="st0"
   d="m -1000.3,65.2 11.5,46.4 h 2.9 l 11.5,-46.4 h 16.7 l -22.1,89.3 h -16.7 l 6.4,-26.4 h -11.4 l -15.5,-63 h 16.7 z"
   id="path4001" />

			</g>

		</g>

	</g>

	<g
   id="g4013"
   style="stroke-width:0.49130911">
		<path
   style="opacity:0.7;fill:#ffffff;stroke-width:0.49130911"
   inkscape:connector-curvature="0"
   class="st1"
   d="m -894.3,81 c -2.2,-0.7 -4.4,-1.2 -6.7,-1.7 -1.1,-0.3 -2.3,-0.5 -3.4,-0.7 -1.1,-0.2 -2.3,-0.5 -3.4,-0.7 -0.6,-0.1 -1.1,-0.2 -1.7,-0.3 l -1.7,-0.2 c -1.2,-0.2 -2.3,-0.3 -3.5,-0.4 -1.2,-0.1 -2.3,-0.2 -3.5,-0.3 l -3.5,-0.3 c -2.3,-0.1 -4.7,-0.2 -7,-0.3 -1.2,0 -2.3,-0.1 -3.5,-0.1 -1.2,0 -2.4,0 -3.5,0 -2.4,0 -4.8,0 -7.1,0.1 l -3.6,0.2 -3.5,0.3 -3.5,0.4 c -1.2,0.1 -2.4,0.3 -3.5,0.4 -2.4,0.3 -4.7,0.7 -7.1,1.1 -2.4,0.4 -4.7,0.9 -7.1,1.4 -4.8,1 -9.5,2 -14.2,3.1 -2.4,0.6 -4.7,1.2 -7,1.9 -1.2,0.4 -2.4,0.7 -3.6,1.1 0.4,0.1 0.9,0.3 1.3,0.4 1.6,0.4 3.4,0.6 5.2,0.8 0.9,0.1 1.8,0.2 2.7,0.4 l 1.3,0.3 0.6,0.1 0.6,0.1 c 1.7,0.2 3.4,0.1 5.1,0 3.5,-0.2 7,-0.6 10.6,-1 1.8,-0.2 3.6,-0.3 5.4,-0.4 0.9,0 1.8,0 2.7,0 l 2.7,0.1 c 1.8,0 3.5,0.1 5.3,0.2 h 0.1 c 0.1,0 0.3,-0.1 0.4,-0.1 l 0.4,-0.1 0.5,-0.1 c 0.3,-0.1 0.6,-0.1 1,-0.2 0.6,-0.1 1.3,-0.2 1.9,-0.3 1.3,-0.1 2.5,-0.2 3.7,-0.2 2.4,-0.1 4.8,0 7.2,0 2.4,0.1 4.7,0.1 7.1,0.2 2.3,0.1 4.7,0.4 7,0.7 2.3,0.3 4.7,0.4 7,0.3 l 2.6,-0.1 -2.4,0.7 c -1.7,0.5 -3.4,0.7 -5.1,0.9 -1.7,0.2 -3.4,0.3 -5.2,0.4 -3.5,0.1 -6.9,0.2 -10.4,0.1 -1.4,0 -2.8,-0.1 -4.2,-0.2 -1.1,0 -2.3,0 -3.4,0.1 -1.2,0.1 -2.3,0.1 -3.4,0.3 -0.6,0.1 -1.1,0.2 -1.6,0.3 -0.3,0.1 -0.5,0.1 -0.8,0.2 l -0.4,0.1 -0.4,0.1 c -1.1,0.3 -2.2,0.7 -3.1,1.1 -0.2,0.1 -0.4,0.2 -0.5,0.3 0.4,0.2 0.8,0.3 1.2,0.5 1,0.3 2.2,0.6 3.3,0.8 1.1,0.2 2.3,0.5 3.4,0.6 0.6,0.1 1.2,0.2 1.7,0.3 0.5,0.1 1.1,0.1 1.7,0.2 2.3,0.2 4.6,0.3 6.9,0.3 2.3,0 4.6,-0.1 6.9,-0.3 4.6,-0.4 9.1,-1.1 13.6,-2 2.2,-0.5 4.5,-1 6.7,-1.5 l 1.7,-0.4 1.6,-0.4 c 1.1,-0.3 2.1,-0.6 3.2,-0.9 2.1,-0.7 4.3,-1.4 6.4,-2.1 2.2,-0.7 4.4,-1.3 6.6,-1.8 l 0.2,-0.3 c 0.2,-0.5 -0.1,-1 -0.7,-1.5 -0.4,-0.2 -0.7,-0.4 -1.2,-0.6 -0.9,-0.8 -2,-1.1 -3.1,-1.4 z"
   id="path4009" />

		<path
   style="opacity:0.7;fill:#ffffff;stroke-width:0.49130911"
   inkscape:connector-curvature="0"
   class="st1"
   d="m -850.3,96.8 c 0.9,0.6 1.8,1.3 2.8,1.9 l 1.4,0.9 1.4,0.9 c 1.9,1.2 3.9,2.4 5.9,3.5 4,2.3 8.1,4.3 12.3,6.2 2.1,0.9 4.3,1.7 6.4,2.5 2.2,0.8 4.4,1.4 6.6,1.9 0.6,0.1 1.1,0.3 1.7,0.4 0.5,0.1 1.1,0.2 1.7,0.3 1.1,0.2 2.3,0.3 3.4,0.5 1.1,0.1 2.3,0.2 3.4,0.2 0.5,0 0.9,0 1.3,0 -0.1,-0.1 -0.3,-0.3 -0.4,-0.4 -0.8,-0.7 -1.7,-1.4 -2.6,-2 l -0.4,-0.2 -0.3,-0.2 c -0.2,-0.1 -0.5,-0.3 -0.7,-0.4 -0.5,-0.3 -1,-0.5 -1.5,-0.8 -1,-0.5 -2.1,-0.9 -3.1,-1.4 -1,-0.4 -2.1,-0.8 -3.2,-1.2 -1.4,-0.4 -2.7,-0.7 -4,-1.2 -3.3,-1.1 -6.6,-2.2 -9.9,-3.4 -1.6,-0.6 -3.2,-1.3 -4.8,-2 -1.6,-0.7 -3.1,-1.4 -4.6,-2.5 l -2.1,-1.5 2.4,0.9 c 2.2,0.8 4.4,1.5 6.7,2 2.3,0.5 4.6,0.9 6.9,1.6 2.3,0.6 4.5,1.3 6.8,2 2.3,0.7 4.6,1.4 6.8,2.2 1.1,0.4 2.3,0.9 3.4,1.4 0.6,0.3 1.1,0.5 1.7,0.9 0.3,0.2 0.6,0.3 0.8,0.5 l 0.4,0.3 0.4,0.2 c 0.1,0.1 0.2,0.2 0.4,0.3 h 0.1 c 1.7,0.5 3.4,1 5.1,1.5 l 2.5,0.8 c 0.8,0.3 1.7,0.5 2.6,0.8 1.7,0.6 3.4,1.3 5,2 3.3,1.5 6.5,3 9.7,4.3 1.6,0.6 3.3,1.2 4.9,1.6 l 0.6,0.1 0.6,0.1 1.4,0.2 c 0.9,0.1 1.8,0.3 2.7,0.5 1.8,0.3 3.5,0.7 5.2,0.8 0.5,0 0.9,0.1 1.4,0.1 -1,-0.8 -2,-1.5 -3,-2.2 -2,-1.4 -4,-2.7 -6.1,-4 -4.1,-2.6 -8.3,-5 -12.5,-7.4 -2.1,-1.2 -4.2,-2.4 -6.3,-3.5 -2.1,-1.1 -4.2,-2.2 -6.3,-3.3 -1.1,-0.5 -2.1,-1 -3.2,-1.5 l -3.2,-1.5 -3.2,-1.4 -3.3,-1.3 c -2.2,-0.8 -4.5,-1.6 -6.7,-2.3 -1.1,-0.4 -2.2,-0.7 -3.4,-1.1 -1.1,-0.4 -2.2,-0.7 -3.4,-1.1 -2.2,-0.7 -4.5,-1.3 -6.8,-1.9 l -3.4,-0.9 c -1.1,-0.3 -2.3,-0.5 -3.4,-0.8 -1.1,-0.3 -2.3,-0.5 -3.4,-0.7 l -1.7,-0.3 c -0.6,-0.1 -1.1,-0.2 -1.7,-0.3 -1.1,-0.2 -2.3,-0.3 -3.4,-0.4 -1.1,-0.1 -2.3,-0.3 -3.4,-0.4 -2.3,-0.2 -4.6,-0.4 -6.9,-0.5 -1.1,0 -2.3,0 -3.4,0.1 -0.4,0 -0.9,0.1 -1.3,0.2 -0.8,0.3 -1.2,0.7 -1.2,1.2 l 0.1,0.3 c 2,1.1 3.9,2.4 5.7,3.8 2,1.5 3.8,2.8 5.6,4.1 z"
   id="path4011" />

	</g>

	<path
   style="opacity:0.5;fill:#e1eef4;stroke-width:0.49130911"
   inkscape:connector-curvature="0"
   class="st2"
   d="m -943,74.9 c -10.3,0.2 -20,1.8 -30.2,3.9 -7.3,1.5 -20.3,4.3 -27.1,7.2 2.9,2.6 9.8,2.6 13.7,3.4 6.5,1.2 17.2,-1.5 23.9,-1.5 4.6,0 9.2,0 13.7,0.2 -0.9,0.1 -1.7,0.3 -2.4,0.5 -1.6,0.4 -6.4,1.8 -6.1,3.3 0.3,1.8 8.4,3.2 10,3.5 12.3,2.2 27.8,-0.4 40.4,-3.9 6.8,-1.9 11,-4.3 17.6,-6.9 -2.3,0.4 -4.5,1.1 -6.6,1.8 -2.2,0.7 -4.3,1.4 -6.4,2.1 -1.1,0.3 -2.1,0.6 -3.2,0.9 l -1.6,0.4 -1.7,0.4 c -2.2,0.6 -4.4,1.1 -6.7,1.5 -4.5,0.9 -9,1.6 -13.6,2 -2.3,0.2 -4.6,0.3 -6.9,0.3 -2.3,0 -4.6,-0.1 -6.9,-0.3 -0.6,-0.1 -1.1,-0.1 -1.7,-0.2 -0.5,-0.1 -1.1,-0.2 -1.7,-0.3 -1.1,-0.2 -2.3,-0.4 -3.4,-0.6 -1.1,-0.2 -2.2,-0.5 -3.3,-0.8 -0.4,-0.1 -0.9,-0.3 -1.2,-0.5 0.2,-0.1 0.4,-0.2 0.5,-0.3 0.9,-0.4 2,-0.8 3.1,-1.1 l 0.4,-0.1 0.4,-0.1 c 0.2,-0.1 0.5,-0.1 0.8,-0.2 0.5,-0.1 1.1,-0.2 1.6,-0.3 1.1,-0.1 2.3,-0.2 3.4,-0.3 1.1,-0.1 2.2,-0.1 3.4,-0.1 1.4,0.1 2.8,0.1 4.2,0.2 3.5,0 7,0 10.4,-0.1 1.7,-0.1 3.5,-0.2 5.2,-0.4 1.7,-0.2 3.4,-0.4 5.1,-0.9 l 2.4,-0.7 -2.5,0.1 c -2.3,0.1 -4.7,0 -7,-0.3 -2.3,-0.2 -4.7,-0.6 -7,-0.7 -2.3,-0.1 -4.7,-0.2 -7.1,-0.2 -2.4,-0.1 -4.8,-0.1 -7.2,0 -1.2,0 -2.5,0.1 -3.7,0.2 -0.6,0.1 -1.3,0.2 -1.9,0.3 -0.3,0.1 -0.6,0.1 -1,0.2 l -0.5,0.1 -0.4,0.1 c -0.1,0 -0.3,0.1 -0.4,0.1 h -0.1 c -1.8,-0.1 -3.5,-0.2 -5.3,-0.2 l -2.7,-0.1 c -0.9,0 -1.8,0 -2.7,0 -1.8,0 -3.6,0.2 -5.4,0.4 -3.6,0.4 -7.1,0.8 -10.6,1 -1.7,0.1 -3.5,0.1 -5.1,0 l -0.6,-0.1 -0.6,-0.1 -1.3,-0.3 c -0.9,-0.2 -1.8,-0.3 -2.7,-0.4 -1.8,-0.2 -3.5,-0.5 -5.2,-0.8 -0.5,-0.1 -0.9,-0.2 -1.3,-0.4 1.2,-0.4 2.4,-0.8 3.6,-1.1 2.3,-0.7 4.7,-1.3 7,-1.9 4.7,-1.2 9.5,-2.2 14.2,-3.1 2.4,-0.5 4.7,-0.9 7.1,-1.4 2.4,-0.4 4.7,-0.8 7.1,-1.1 1.2,-0.1 2.3,-0.3 3.5,-0.4 l 3.5,-0.4 3.5,-0.3 3.6,-0.2 c 2.3,-0.1 4.7,-0.1 7.1,-0.1 1.2,0 2.4,0 3.5,0 1.2,0 2.4,0 3.5,0.1 2.4,0 4.7,0.2 7,0.3 l 3.5,0.3 c 1.2,0.1 2.3,0.2 3.5,0.3 1.1,0.1 2.3,0.3 3.5,0.4 l 1.7,0.2 c 0.5,0.1 1.1,0.2 1.7,0.3 1.1,0.2 2.3,0.4 3.4,0.7 1.1,0.2 2.3,0.5 3.4,0.7 2.3,0.5 4.5,1 6.7,1.7 1.1,0.3 2.2,0.7 3.2,1.1 0.4,0.2 0.8,0.4 1.2,0.6 -3.5,-2.8 -17.4,-5.6 -19.9,-6 -10.5,-1.5 -22.8,-1.8 -33.3,-1.6 z"
   id="path4015" />

	<g
   id="g4021"
   style="stroke-width:0.49130911">
		<path
   style="fill:#293644;stroke-width:0.49130911"
   inkscape:connector-curvature="0"
   class="st3"
   d="m -888.5,83 c -0.2,-0.3 -0.4,-0.6 -0.6,-0.8 -0.5,-0.4 -1,-0.8 -1.5,-1.1 -1,-0.6 -2.1,-1.1 -3.2,-1.5 -2.2,-0.9 -4.4,-1.6 -6.7,-2.2 -2.3,-0.6 -4.6,-1.2 -6.9,-1.7 -0.6,-0.1 -1.2,-0.2 -1.8,-0.4 L -911,75 c -1.2,-0.2 -2.3,-0.4 -3.5,-0.5 -1.2,-0.1 -2.4,-0.3 -3.6,-0.4 l -3.5,-0.3 c -2.4,-0.2 -4.7,-0.3 -7.1,-0.4 -1.2,-0.1 -2.4,-0.1 -3.6,-0.1 -1.2,0 -2.4,-0.1 -3.6,-0.1 -2.4,0 -4.8,-0.1 -7.2,0 l -3.6,0.1 -3.7,0.2 -3.6,0.3 c -1.2,0.1 -2.4,0.3 -3.6,0.4 -2.4,0.3 -4.8,0.7 -7.2,1.1 -2.4,0.4 -4.8,0.9 -7.2,1.3 -2.4,0.5 -4.8,1 -7.2,1.5 -2.4,0.5 -4.8,1.1 -7.2,1.7 -2.4,0.6 -4.8,1.2 -7.2,2 -2.4,0.7 -4.8,1.5 -7.2,2.5 l -2.3,1 1.8,1.6 c 0.9,0.8 1.9,1.3 2.9,1.6 1,0.4 1.9,0.6 2.9,0.8 1.9,0.4 3.7,0.6 5.5,0.8 0.9,0.1 1.8,0.2 2.6,0.3 l 1.3,0.2 c 0.2,0 0.5,0.1 0.8,0.1 l 0.7,0.1 c 1.9,0.1 3.8,0 5.6,-0.2 3.6,-0.4 7.2,-1 10.7,-1.5 1.7,-0.2 3.5,-0.5 5.2,-0.6 1.7,-0.1 3.5,-0.1 5.3,-0.2 0.5,0 0.9,0 1.4,0 -0.4,0.2 -0.7,0.4 -1.1,0.7 -0.3,0.3 -0.7,0.5 -1.1,1.1 -0.2,0.3 -0.3,0.7 -0.4,1.1 0,0.1 0,0.2 0,0.3 v 0.2 0.1 0.1 0.1 c 0,0 0,0.1 0.1,0.2 0.1,0.2 0.1,0.3 0.2,0.3 0.4,0.7 0.8,1 1.2,1.2 0.4,0.2 0.7,0.4 1,0.6 0.7,0.3 1.3,0.5 1.9,0.7 1.2,0.4 2.4,0.7 3.6,1 1.2,0.3 2.4,0.5 3.6,0.7 0.6,0.1 1.2,0.2 1.8,0.3 0.6,0.1 1.2,0.2 1.9,0.2 2.5,0.3 4.9,0.3 7.4,0.3 2.4,0 4.8,-0.2 7.2,-0.4 1.2,-0.1 2.4,-0.3 3.6,-0.4 1.2,-0.2 2.4,-0.3 3.5,-0.6 2.3,-0.4 4.6,-0.9 6.9,-1.4 2.3,-0.5 4.5,-1.1 6.8,-1.7 l 1.7,-0.5 0.2,-0.1 0.2,-0.1 0.4,-0.1 0.8,-0.3 c 1.1,-0.3 2.2,-0.8 3.3,-1.2 2.1,-0.9 4.2,-1.9 6.2,-3 2,-1.1 3.9,-2.2 5.8,-3.4 -6.7,2.6 -10.8,5 -17.6,6.9 -12.6,3.5 -28,6.1 -40.4,3.9 -1.6,-0.3 -9.7,-1.7 -10,-3.5 -0.3,-1.5 4.5,-2.9 6.1,-3.3 0.7,-0.2 1.5,-0.3 2.4,-0.5 -4.6,-0.3 -9.1,-0.3 -13.7,-0.2 -6.7,0.1 -17.5,2.8 -23.9,1.5 -4,-0.8 -10.9,-0.8 -13.7,-3.4 6.8,-2.9 19.8,-5.8 27.1,-7.2 10.2,-2.1 19.9,-3.7 30.2,-3.9 10.5,-0.2 22.8,0.1 33.2,1.9 2.5,0.4 16.4,3.2 19.9,6 0.1,0.1 0.2,0.1 0.2,0.2 0.2,0.2 0.4,0.3 0.5,0.5 0.1,0.1 0.1,0.2 0.1,0.2 0,0 0,0.1 0,0.1 0,0 0,0.1 0,0.2 l 0.7,0.2 c 0,-0.1 0.1,-0.1 0.1,-0.2 0,-0.1 0,-0.2 0,-0.3 0.2,0 0.1,-0.2 0,-0.4 z"
   id="path4017" />

		<path
   style="fill:#293644;stroke-width:0.49130911"
   inkscape:connector-curvature="0"
   class="st3"
   d="m -755.9,123.9 c -1.9,-1.7 -4,-3.2 -6,-4.7 -2,-1.4 -4.1,-2.8 -6.2,-4.1 -2.1,-1.3 -4.2,-2.6 -6.3,-3.9 -2.1,-1.3 -4.2,-2.5 -6.3,-3.7 -2.1,-1.2 -4.2,-2.4 -6.4,-3.5 -2.1,-1.1 -4.3,-2.3 -6.5,-3.3 -1.1,-0.5 -2.2,-1 -3.3,-1.6 l -3.3,-1.5 -3.4,-1.4 -3.4,-1.2 c -2.3,-0.8 -4.6,-1.5 -6.9,-2.2 -1.1,-0.4 -2.3,-0.7 -3.4,-1 -1.1,-0.3 -2.3,-0.7 -3.4,-1 -2.3,-0.7 -4.6,-1.2 -6.9,-1.8 l -3.5,-0.8 c -1.2,-0.3 -2.3,-0.5 -3.5,-0.7 -1.2,-0.3 -2.3,-0.4 -3.5,-0.6 l -1.8,-0.3 c -0.6,-0.1 -1.2,-0.2 -1.8,-0.2 -2.3,-0.3 -4.7,-0.4 -7,-0.6 -2.3,-0.1 -4.7,-0.1 -7.1,0 -1.2,0.1 -2.4,0.2 -3.5,0.4 -0.6,0.1 -1.2,0.3 -1.8,0.6 -0.3,0.1 -0.6,0.3 -0.8,0.6 -0.1,0.1 -0.2,0.3 -0.3,0.5 0,0.1 -0.1,0.2 -0.1,0.3 0,0.1 0,0.2 0,0.2 h 0.7 c 0,-0.1 0,-0.2 0,-0.2 0,0 0,-0.1 0,-0.1 0,-0.1 0.1,-0.1 0.2,-0.2 0.2,-0.1 0.4,-0.2 0.6,-0.3 0.1,0 0.2,0 0.3,-0.1 4.2,-1.6 18.3,0.1 20.7,0.6 10.4,1.7 22.1,5.2 32.1,8.7 9.7,3.4 18.4,8 27.4,13.2 6.4,3.7 17.9,10.5 23.4,15.4 -3.5,1.6 -10.1,-0.6 -14.1,-1.1 -6.5,-0.9 -15.8,-6.8 -22.2,-9 -4.4,-1.5 -8.7,-2.9 -13.1,-4.1 0.8,0.4 1.5,0.8 2.1,1.2 1.3,0.9 5.5,3.7 4.7,5.1 -0.9,1.6 -9,0.4 -10.6,0.1 -12.4,-1.8 -26.2,-9.1 -37.1,-16.4 -5.9,-3.9 -9,-7.5 -14.5,-12.1 1.4,1.8 2.9,3.4 4.4,5.1 1.5,1.7 3.1,3.3 4.9,4.8 0.9,0.7 1.8,1.5 2.7,2.2 l 0.7,0.5 0.3,0.3 0.2,0.1 0.2,0.1 1.4,1 c 1.9,1.3 3.9,2.6 5.9,3.8 2,1.2 4.1,2.4 6.1,3.5 1,0.6 2.1,1.1 3.2,1.6 1.1,0.5 2.2,1 3.3,1.5 2.2,1 4.4,1.9 6.7,2.7 2.3,0.8 4.7,1.5 7.1,2 0.6,0.1 1.2,0.3 1.8,0.4 0.6,0.1 1.2,0.2 1.8,0.3 1.2,0.2 2.4,0.3 3.7,0.4 1.2,0.1 2.5,0.2 3.8,0.2 0.7,0 1.3,0 2,-0.1 0.4,0 0.7,-0.1 1.2,-0.2 0.4,-0.1 0.9,-0.2 1.5,-0.8 0.1,-0.1 0.1,-0.1 0.3,-0.3 0,-0.1 0.1,-0.2 0.1,-0.2 v 0 l 0.1,-0.1 v -0.1 l 0.1,-0.2 c 0,-0.1 0.1,-0.2 0.1,-0.3 0.1,-0.5 0.1,-0.8 0,-1.2 -0.2,-0.6 -0.4,-1 -0.7,-1.4 -0.3,-0.4 -0.6,-0.7 -0.9,-1 0.4,0.2 0.9,0.3 1.3,0.5 1.6,0.6 3.3,1.2 4.9,1.8 1.6,0.6 3.2,1.4 4.7,2.2 3.2,1.6 6.3,3.3 9.6,4.8 1.7,0.7 3.4,1.4 5.3,1.9 l 0.7,0.2 c 0.2,0.1 0.5,0.1 0.7,0.2 l 1.3,0.2 c 0.8,0.2 1.7,0.4 2.6,0.6 1.8,0.4 3.6,0.8 5.5,1 1,0.1 1.9,0.2 3,0.1 1,0 2.1,-0.2 3.2,-0.7 l 2.2,-0.9 z"
   id="path4019" />

	</g>

	<path
   style="opacity:0.5;fill:#e1eef4;stroke-width:0.49130911"
   inkscape:connector-curvature="0"
   class="st2"
   d="m -809.8,117.5 c 1.6,0.2 9.7,1.4 10.6,-0.1 0.8,-1.4 -3.4,-4.2 -4.7,-5.1 -0.6,-0.4 -1.3,-0.8 -2.1,-1.2 4.4,1.2 8.7,2.6 13.1,4.1 6.4,2.2 15.7,8.1 22.2,9 4,0.5 10.6,2.7 14.1,1.1 -5.5,-4.9 -17,-11.7 -23.4,-15.4 -9,-5.2 -17.7,-9.8 -27.4,-13.2 -10,-3.5 -21.7,-7 -32.1,-8.7 -2.5,-0.4 -16.6,-2.1 -20.7,-0.6 0.4,-0.1 0.8,-0.2 1.3,-0.2 1.1,-0.1 2.2,-0.1 3.4,-0.1 2.3,0.1 4.6,0.3 6.9,0.5 1.1,0.1 2.3,0.2 3.4,0.4 1.1,0.1 2.3,0.3 3.4,0.4 0.6,0.1 1.1,0.2 1.7,0.3 l 1.7,0.3 c 1.1,0.2 2.3,0.4 3.4,0.7 1.1,0.3 2.3,0.5 3.4,0.8 l 3.4,0.9 c 2.3,0.6 4.5,1.2 6.8,1.9 1.1,0.3 2.2,0.7 3.4,1.1 1.1,0.4 2.2,0.7 3.4,1.1 2.2,0.7 4.5,1.5 6.7,2.3 l 3.3,1.3 3.2,1.4 3.2,1.5 c 1.1,0.5 2.1,1 3.2,1.5 2.1,1.1 4.2,2.2 6.3,3.3 2.1,1.1 4.2,2.3 6.3,3.5 4.2,2.4 8.4,4.9 12.5,7.4 2.1,1.3 4.1,2.6 6.1,4 1,0.7 2,1.5 3,2.2 -0.5,0 -0.9,0 -1.4,-0.1 -1.7,-0.2 -3.4,-0.5 -5.2,-0.8 -0.9,-0.2 -1.8,-0.3 -2.7,-0.5 l -1.4,-0.2 -0.6,-0.1 -0.6,-0.1 c -1.6,-0.4 -3.3,-1 -4.9,-1.6 -3.3,-1.3 -6.5,-2.8 -9.7,-4.3 -1.6,-0.7 -3.3,-1.4 -5,-2 -0.9,-0.3 -1.7,-0.5 -2.6,-0.8 l -2.5,-0.8 c -1.7,-0.5 -3.4,-1 -5.1,-1.5 h -0.1 c -0.1,-0.1 -0.2,-0.2 -0.4,-0.3 l -0.4,-0.2 -0.4,-0.3 c -0.3,-0.2 -0.6,-0.3 -0.8,-0.5 -0.6,-0.3 -1.1,-0.6 -1.7,-0.9 -1.1,-0.5 -2.3,-1 -3.4,-1.4 -2.3,-0.8 -4.6,-1.6 -6.8,-2.2 -2.3,-0.7 -4.5,-1.4 -6.8,-2 -2.3,-0.6 -4.6,-1.1 -6.9,-1.6 -2.3,-0.5 -4.6,-1.1 -6.7,-2 l -2.4,-0.9 2.1,1.5 c 1.4,1 3,1.7 4.6,2.5 1.6,0.7 3.2,1.3 4.8,2 3.2,1.2 6.5,2.4 9.9,3.4 1.3,0.4 2.7,0.8 4,1.2 1.1,0.4 2.1,0.8 3.2,1.2 1.1,0.4 2.1,0.9 3.1,1.4 0.5,0.2 1,0.5 1.5,0.8 0.2,0.1 0.5,0.3 0.7,0.4 l 0.3,0.2 0.4,0.2 c 0.9,0.7 1.8,1.3 2.6,2 0.2,0.1 0.3,0.3 0.4,0.4 -0.4,0 -0.9,0 -1.3,0 -1.1,0 -2.2,-0.1 -3.4,-0.2 -1.1,-0.1 -2.3,-0.3 -3.4,-0.5 -0.6,-0.1 -1.2,-0.2 -1.7,-0.3 -0.5,-0.1 -1.1,-0.2 -1.7,-0.4 -2.2,-0.5 -4.4,-1.1 -6.6,-1.9 -2.2,-0.8 -4.3,-1.6 -6.4,-2.5 -4.2,-1.8 -8.3,-3.9 -12.3,-6.2 -2,-1.1 -3.9,-2.3 -5.9,-3.5 l -1.4,-0.9 -1.4,-0.9 c -1,-0.6 -1.8,-1.3 -2.8,-1.9 -1.8,-1.3 -3.6,-2.7 -5.4,-4 -1.8,-1.3 -3.7,-2.6 -5.7,-3.8 5.5,4.6 8.7,8.1 14.5,12.1 10.5,7.3 24.4,14.7 36.8,16.4 z"
   id="path4023" />

	<path
   style="fill:#d4dfe5;stroke-width:0.49130911"
   inkscape:connector-curvature="0"
   class="st4"
   d="m -900,95.2 c -0.2,4.1 2.3,7.9 4.6,11.3 3.4,5 1.6,11.5 1.7,16.9 0.2,8.4 -2.9,41.7 4.3,49.6 v 0 0 c 9.1,-3.8 16.5,-35.4 19.3,-43.2 1.8,-5 2.2,-13.5 7,-16.8 3.6,-2.5 8.5,-5.1 9.4,-9.6 L -875,81.5 c 0,0 -25,13.4 -25,13.7 z"
   id="path4025" />

	<path
   style="fill:#dfeef6;stroke-width:0.49130911"
   inkscape:connector-curvature="0"
   class="st5"
   d="m -857,103.4 c -0.6,0.3 -1.2,0.5 -1.8,0.8 0.8,-0.5 1.5,-1 2.2,-1.6 0.8,-0.7 -0.7,-1.4 -1.3,-1.3 -1,0.2 -2,0.5 -3,0.8 0.5,-0.6 0.9,-1.3 1.2,-2 0.3,-0.8 -0.8,-1.2 -1.4,-1.1 -6.2,1.1 -10.5,5.3 -16.1,8.1 -2.7,1.4 -5.5,2.5 -8.4,3.5 -0.4,0.1 -0.8,0.2 -1.2,0.3 -0.7,0.2 -1.5,0.3 -2.3,0.4 -0.7,0.2 -1.2,0 -1.5,-0.7 0.5,-0.5 2.1,-0.8 2.8,-1 2.6,-0.7 5.1,-1.5 7.6,-2.6 2.2,-1 4.2,-2.2 6.1,-3.6 4,-1.3 7.8,-3.3 10.8,-6.4 0.6,-0.7 -1,-1.2 -1.4,-1.1 -3.4,0.5 -6,2.2 -8.5,4.4 -0.8,0.7 -1.6,1.3 -2.5,2 -1.6,0.5 -3.3,1 -4.9,1.4 -1.1,0.3 -2.3,0.4 -3.5,0.6 1.6,-0.9 3.2,-1.8 4.8,-2.7 4.4,-2.4 9.5,-3.8 13.1,-7.4 0.9,-0.8 -0.9,-1.4 -1.5,-1.2 -4.7,1.3 -9,3.4 -13.3,5.4 0,0 0,0 0.1,0 3.9,-1.9 7.6,-3.9 11.4,-6.1 0.9,-0.5 -0.7,-1.3 -1.3,-1.3 0.3,-0.2 0.7,-0.3 1,-0.5 1.2,-0.6 -0.5,-1.7 -1.3,-1.3 -4.2,1.6 -8.2,3.5 -12.2,5.6 -3.1,1.7 -7.1,4.9 -10.9,5.8 2.2,-2.1 5.5,-3.2 8,-4.7 3.8,-2.2 7.6,-4.5 11.3,-6.9 0.7,-0.4 -0.1,-1 -0.8,-1.2 0.8,-0.5 1.7,-1 2.5,-1.5 0.7,-0.4 -0.2,-1.1 -0.9,-1.3 0.3,-0.5 0.4,-0.9 0.1,-1.3 -0.3,-0.4 -0.9,-0.7 -1.4,-0.6 -0.7,0.1 -1.2,0.6 -1.8,0.9 -2.4,1.6 -4.7,3.1 -7.2,4.4 -3.3,1.6 -6.7,2.9 -10,4.5 -1,0.3 -1.9,0.6 -2.9,0.9 -0.5,0.2 -0.5,0.4 -0.3,0.7 -0.2,0.1 -0.4,0.2 -0.7,0.4 -0.2,0.1 -0.3,0.5 -0.1,0.7 0.5,0.9 1.5,1.2 2.6,1.1 -0.9,0.4 -1.9,0.9 -2.8,1.3 -1,0.5 0.1,1.4 0.8,1.4 0.7,0 1.4,-0.1 2,-0.3 -0.7,0.6 -1.3,1.2 -1.7,2 -0.4,0.7 0.7,1.1 1.2,1.2 0.5,0 0.9,0 1.4,0 -0.3,0.2 -0.6,0.4 -0.8,0.6 -0.9,0.7 0.9,1.6 1.5,1.2 0.1,0 0.1,-0.1 0.2,-0.1 v 0 c 0,0 0,0 0,0 0.2,-0.1 0.4,-0.2 0.7,-0.4 -0.1,0.1 -0.2,0.1 -0.2,0.2 -0.8,0.8 0.7,1.3 1.3,1.3 3.6,-0.2 6.8,-2.3 9.8,-4.1 3.2,-1.8 6.7,-3.5 10.2,-4.8 -2.6,1.5 -5.5,2.6 -8.2,3.9 -3.2,1.6 -6.2,3.4 -9.4,4.9 -1.4,0.3 -2.8,0.8 -4,1.5 -1,0.6 1,1.4 1.5,1.2 1.2,-0.4 2.4,-0.8 3.6,-1.3 1.8,-0.4 3.7,-0.4 5.5,-0.7 1,-0.2 1.9,-0.4 2.9,-0.6 -1.4,0.7 -2.8,1.4 -4.4,2 -2.2,0.9 -5.9,0.9 -7.6,2.7 -0.8,0.9 0.4,2.3 1.2,2.6 0.1,0 0.2,0.1 0.3,0.1 -0.3,0.2 -0.6,0.3 -0.9,0.5 -0.6,0.3 0.1,1 0.5,1.2 1.5,0.5 2.9,0.5 4.3,0.3 -1.1,0.4 -2.2,0.9 -3.3,1.3 -0.9,0.4 -0.2,1.1 0.6,1.3 -2,1.2 -3.3,2.5 -2.1,3.3 1.2,0.8 2.9,0 4,-0.4 1.2,-0.4 2.3,-0.9 3.5,-1.4 -0.1,0.1 -0.3,0.2 -0.4,0.3 -0.3,0.2 -0.3,0.4 -0.2,0.5 -0.7,0.4 -1.4,0.8 -2,1.2 -0.4,0.2 -0.3,0.5 0,0.8 -2,0.6 -4,1.4 -5.5,2.9 -0.7,0.7 0.4,1.2 1,1.3 2.6,0.2 5.1,-0.2 7.7,-1 -0.4,0.6 0.7,1.1 1.1,1.1 1.3,0.1 2.6,-0.1 3.9,-0.4 -0.2,0.1 -0.4,0.2 -0.6,0.3 -1,0.5 -1.9,0.9 -3,1.3 -3,0.8 -6,1.7 -8.9,2.9 -1.2,0.5 0.5,1.7 1.3,1.3 2.2,-1 4.5,-1.6 6.9,-2.4 0.2,-0.1 0.5,-0.1 0.7,-0.2 -2.9,1.5 -5.7,3.1 -8.4,5 -1,0.7 0.9,1.4 1.5,1.2 0.5,-0.2 0.9,-0.3 1.3,-0.5 -0.8,0.7 -1.5,1.5 -2.2,2.4 -0.5,0.7 1,1.3 1.4,1.1 2.1,-0.5 4,-1.2 5.9,-2.1 -1.5,1.3 -2.8,2.7 -3.8,4.4 -0.3,0.5 0.2,0.9 0.7,1 -0.5,0.3 -0.9,0.6 -1.4,1 -0.9,0.7 1,1.6 1.7,1.1 0.9,-0.6 1.8,-1.2 2.7,-1.8 1.5,-0.9 3.1,-1.7 4.9,-2 -0.8,1.3 -2.5,2 -3.8,2.6 -1.2,0.5 0.5,1.7 1.3,1.3 2,-0.9 4.6,-2.1 5,-4.6 0.1,-0.6 -0.8,-1 -1.2,-1 -0.6,0 -1.2,0 -1.7,0.1 1,-0.9 2,-1.9 3,-2.9 0.6,-0.7 -1.2,-1.3 -1.6,-1.1 -2.1,1.1 -3.8,3.2 -5.8,4.6 3.1,-3.4 7.6,-5.7 11.2,-8.3 0.9,-0.7 -0.9,-1.5 -1.5,-1.2 -4.3,2.1 -8.5,4.6 -13,6.2 3.4,-3 8,-4.7 11.7,-7.2 0.8,-0.5 -0.3,-1.1 -1,-1.2 0.3,-0.2 0.7,-0.4 1,-0.6 0,0 0,0 0,0 v 0 c 0.1,0 0.1,-0.1 0.2,-0.1 0.5,-0.3 0.2,-0.7 -0.3,-0.9 2.3,-1.1 4.5,-2.3 6.1,-3.9 0.8,-0.9 -0.9,-1.4 -1.5,-1.2 -3.3,1 -6.6,3.1 -10.1,3.8 3.5,-2.4 7.6,-4.1 11.3,-5.7 1.2,-0.5 -0.5,-1.6 -1.3,-1.3 -3.4,1.1 -6.6,2.6 -9.9,4 -2.8,1.2 -6,2.6 -9.2,3 3,-1.8 7.2,-2.5 10.2,-3.8 5.1,-2.2 10.1,-4.4 14.9,-7.1 0.8,-0.5 -0.3,-1.1 -1,-1.3 2.1,-1.1 4.1,-2.3 6.2,-3.4 1.2,-0.6 -0.5,-1.5 -1.3,-1.3 -0.4,0.1 -0.7,0.2 -1,0.3 1.7,-0.9 3.5,-1.7 5.3,-2.5 1.1,-0.4 -0.5,-1.6 -1.3,-1.2 z M -882.8,99 c -2,1.1 -3.9,2.4 -6,3.3 2,-1.2 4,-2.3 6,-3.3 z m -3,13.4 c -0.7,0.3 -1.4,0.5 -2.1,0.6 0.4,-0.1 0.7,-0.3 1.1,-0.4 0.3,0 0.7,-0.1 1,-0.2 z m 12.4,-5.6 c 3.5,-2.2 6.9,-4.6 10.8,-5.8 -0.7,0.9 -1.5,1.8 -2.4,2.5 -2.9,0.9 -5.6,2.1 -8.4,3.3 z m -14.8,11.4 c 0.8,-0.5 1.7,-0.9 2.6,-1.3 2.2,-1.1 4.5,-2 6.7,-2.9 4.2,-1.8 8.1,-4 12.1,-6 0.8,-0.3 1.5,-0.6 2.3,-0.9 -3.5,1.9 -6.9,3.8 -10.5,5.5 -4.4,2 -8.8,3.8 -13.2,5.6 z m 17.1,-5.3 c -0.3,0.2 -0.6,0.3 -0.9,0.5 0,0 0,0 -0.1,0 0.1,-0.1 0.2,-0.1 0.3,-0.2 0.2,0 0.5,-0.2 0.7,-0.3 z"
   id="path4027" />

	<path
   style="fill:#293644;stroke-width:0.49130911"
   inkscape:connector-curvature="0"
   class="st3"
   d="m -826.9,128.8 c -0.6,-0.6 -1.4,-1.4 -2.5,-2.4 -2.1,-2.1 -5.2,-5.1 -8.8,-8.8 -1.8,-1.9 -3.8,-3.9 -5.8,-6 -2.1,-2.1 -4.3,-4.4 -6.5,-6.8 -2.3,-2.4 -4.6,-4.8 -7,-7.3 -2.4,-2.5 -4.8,-5.1 -7.2,-7.7 -2.7,-2.9 -5.3,-5.7 -8,-8.5 1.8,-1 3.5,-2 5.3,-2.9 1.5,-0.8 2.9,-1.6 4.3,-2.4 1.4,-0.8 2.8,-1.5 4.2,-2.2 2.7,-1.5 5.3,-3 7.6,-4.5 2.3,-1.5 4.3,-3 6,-4.4 1.7,-1.4 3.1,-2.9 4,-4.2 1,-1.3 1.5,-2.5 1.9,-3.3 0.2,-0.4 0.3,-0.7 0.3,-1 0.1,-0.2 0.1,-0.3 0.1,-0.3 0,0 0,0.1 -0.1,0.3 -0.1,0.2 -0.2,0.5 -0.4,0.9 -0.4,0.8 -1,1.9 -2,3.1 -1,1.2 -2.5,2.5 -4.2,3.8 -1.8,1.3 -3.9,2.6 -6.2,3.9 -2.4,1.3 -5,2.5 -7.8,3.8 -1.4,0.7 -2.9,1.3 -4.3,2 -1.4,0.7 -2.9,1.5 -4.4,2.3 -1.9,1 -3.9,2 -5.9,3.1 -1.5,-1.6 -3.1,-3.3 -4.6,-4.9 -1.2,-1.2 -2.3,-2.4 -3.4,-3.6 -1.1,-1.2 -2.3,-2.3 -3.4,-3.3 -2.2,-2.1 -4.3,-4.2 -6.1,-6.2 -1.8,-2 -3.4,-3.9 -4.6,-5.7 -1.2,-1.8 -2.2,-3.5 -2.8,-5 -0.6,-1.5 -0.8,-2.7 -0.9,-3.6 0,-0.4 0,-0.8 0,-1 0,-0.2 0,-0.3 0,-0.3 0,0 0,0.1 0,0.3 0,0.2 0,0.6 0,1 0,0.9 0.2,2.2 0.7,3.7 0.5,1.5 1.3,3.3 2.4,5.3 1.1,1.9 2.6,4 4.3,6.1 1.7,2.2 3.6,4.4 5.7,6.7 1,1.1 2.1,2.3 3.2,3.5 1.1,1.2 2.2,2.4 3.3,3.6 1.3,1.5 2.7,3 4,4.5 -3.4,1.8 -6.9,3.6 -10.3,5.5 -3.1,1.7 -6.2,3.3 -9.3,4.9 -1.1,0.6 -7.2,3.7 -9,4.7 -2.9,1.5 -5.7,3 -8.4,4.3 -2.6,1.4 -5.2,2.6 -7.5,3.8 -4.6,2.3 -8.5,4.2 -11.2,5.5 -1.4,0.6 -2.4,1.1 -3.2,1.5 -0.7,0.3 -1.1,0.5 -1.1,0.5 0,0 0.4,-0.1 1.2,-0.4 0.8,-0.2 1.9,-0.6 3.3,-1.1 1.4,-0.5 3.2,-1.1 5.1,-1.9 2,-0.7 4.2,-1.7 6.6,-2.6 2.4,-1 5,-2.1 7.7,-3.4 2.7,-1.2 5.6,-2.6 8.6,-4 1.3,-0.6 2.5,-1.3 3.8,-1.9 0,0.7 0.1,1.4 0.3,2.1 0.4,1.7 1.1,3.4 2,4.9 0.8,1.5 1.9,3 2.8,4.4 0.8,1.5 1.3,3.1 1.5,4.8 0.4,3.4 -0.2,6.8 -0.2,10.2 0,0.1 0,0.2 0,0.3 -0.2,0.2 -0.5,0.3 -0.6,0.5 -0.3,0.3 -0.5,0.6 -0.6,0.9 -0.1,0.2 0,0.4 0,0.4 0,0 0,-0.1 0.1,-0.3 0.1,-0.2 0.3,-0.4 0.7,-0.6 0.1,-0.1 0.3,-0.2 0.4,-0.2 0,1.5 0,2.9 -0.1,4.3 l -0.2,5.1 c -0.3,6.8 -0.4,13.7 -0.2,20.6 0.2,3.4 0.4,6.9 1,10.3 0.3,1.7 0.7,3.4 1.2,5.1 0.6,1.6 1.3,3.3 2.5,4.7 l 0.1,0.1 h 0.1 v 0 h 0.1 0.1 c 1.7,-0.7 2.9,-2 4,-3.4 1.1,-1.4 2,-2.9 2.8,-4.4 1.6,-3 3,-6.2 4.2,-9.4 1.9,-5 3.5,-10.2 5.1,-15.3 h 0.1 c 0,0 0,-0.1 0,-0.2 0.4,-1.4 0.8,-2.7 1.2,-4.1 0.5,-1.6 1,-3.3 1.5,-4.9 0.3,-0.8 0.5,-1.6 0.8,-2.4 0.3,-0.8 0.5,-1.7 0.7,-2.5 0.1,-0.3 0.1,-0.6 0.2,-0.8 0.2,0.1 0.4,0.3 0.5,0.4 0.7,0.5 1.1,0.8 1.1,0.8 0,0 -0.4,-0.3 -1,-0.9 -0.2,-0.1 -0.3,-0.3 -0.5,-0.5 0.3,-1.3 0.6,-2.7 1,-4 0.4,-1.6 1,-3.3 1.7,-4.7 0.7,-1.5 1.7,-2.8 3.1,-3.8 1.4,-0.9 2.8,-1.8 4.1,-2.8 1.3,-1 2.6,-2.1 3.7,-3.4 0.5,-0.6 0.9,-1.3 1.2,-2.1 0.5,0.5 1,1 1.5,1.5 2.3,2.3 4.6,4.5 6.8,6.6 2.2,2.1 4.3,4 6.2,5.7 2,1.7 3.7,3.3 5.4,4.6 1.6,1.3 3,2.5 4.2,3.4 1.2,0.9 2.2,1.6 2.8,2.1 0.6,0.5 1,0.7 1,0.7 0,0 -0.5,-0.2 -1.1,-0.8 z m -42.5,-2.3 c -0.2,0.8 -0.4,1.7 -0.7,2.5 -0.3,0.8 -0.6,1.6 -0.8,2.4 -0.5,1.6 -1,3.3 -1.5,4.9 -0.3,1.1 -0.6,2.1 -1,3.2 -0.1,-0.3 -0.2,-0.5 -0.4,-0.8 -0.2,-0.4 -0.5,-0.9 -0.9,-1.3 -0.4,-0.5 -0.8,-0.9 -1.3,-1.4 -0.5,-0.4 -1.1,-0.9 -1.7,-1.2 -0.6,-0.4 -1.3,-0.7 -2,-1 -0.7,-0.3 -1.5,-0.5 -2.2,-0.6 -1.5,-0.3 -3,-0.3 -4.4,-0.2 -0.7,0.1 -1.4,0.2 -2,0.3 -0.6,0.2 -1.2,0.3 -1.7,0.6 -0.5,0.2 -1,0.4 -1.4,0.7 -0.4,0.2 -0.7,0.5 -1,0.7 -0.3,0.2 -0.4,0.4 -0.6,0.5 -0.1,0.1 -0.2,0.2 -0.2,0.2 v 0.1 c 0,0 0.1,0 0.2,-0.1 0.2,-0.1 0.4,-0.1 0.7,-0.2 0.1,-0.1 0.3,-0.1 0.5,-0.1 0.2,0 0.4,-0.1 0.6,-0.1 0.4,-0.1 0.9,-0.2 1.4,-0.2 0.5,-0.1 1.1,-0.1 1.7,-0.2 0.6,0 1.2,0 1.9,0 0.6,0 1.3,0.1 2,0.1 0.7,0.1 1.3,0.2 2,0.3 0.7,0.1 1.3,0.2 2,0.4 0.7,0.2 1.3,0.3 1.9,0.6 1.2,0.4 2.3,1 3.1,1.7 0.8,0.7 1.3,1.4 1.6,2 0,0.1 0.1,0.1 0.1,0.2 -1.6,5.3 -3.3,10.5 -5.2,15.7 -1.2,3.2 -2.6,6.4 -4.2,9.3 -0.8,1.5 -1.7,2.9 -2.8,4.3 -1,1.2 -2.1,2.4 -3.5,3 -1,-1.2 -1.6,-2.7 -2.1,-4.2 -0.5,-1.6 -0.9,-3.3 -1.2,-5 -0.6,-3.4 -0.8,-6.8 -1,-10.2 -0.3,-6.8 -0.2,-13.7 0.1,-20.5 l 0.2,-5.1 c 0,-1.5 0,-3.1 0,-4.6 0.6,-0.2 1.3,-0.4 2.2,-0.5 1.4,-0.2 3,-0.4 4.8,-0.5 0.9,0 1.8,-0.1 2.7,-0.1 0.9,0 1.8,0 2.8,0 0.5,0 0.9,0 1.3,0 0.5,0 1,0.1 1.4,0.1 0.9,0.1 1.8,0.2 2.6,0.4 0.8,0.2 1.7,0.5 2.4,0.8 0.7,0.3 1.4,0.7 2.1,1.1 0.7,0.4 1.3,0.9 1.9,1.3 -0.3,0 -0.4,0.4 -0.4,0.7 z m 13.9,-19.9 c -1,1.3 -2.3,2.3 -3.6,3.3 -1.3,1 -2.7,1.8 -4.1,2.8 -1.4,1 -2.5,2.4 -3.2,4 -0.8,1.5 -1.3,3.2 -1.7,4.9 -0.3,1.2 -0.6,2.5 -0.9,3.7 -0.5,-0.4 -1,-0.9 -1.7,-1.4 -1.2,-0.9 -2.6,-1.9 -4.4,-2.7 -0.9,-0.4 -1.8,-0.8 -2.8,-1 -0.5,-0.2 -1,-0.2 -1.4,-0.3 -0.5,-0.1 -1,-0.1 -1.5,-0.2 -1,-0.1 -2,0 -3,0.1 -1,0.1 -1.9,0.3 -2.8,0.4 -1.8,0.4 -3.5,0.8 -4.9,1.3 -0.7,0.3 -1.3,0.5 -1.9,0.8 0.1,-3.3 0.6,-6.7 0.2,-10.2 -0.2,-1.7 -0.7,-3.5 -1.6,-5 -0.9,-1.5 -2,-2.9 -2.8,-4.4 -0.8,-1.5 -1.6,-3.1 -1.9,-4.7 -0.2,-0.8 -0.3,-1.5 -0.3,-2.3 1.6,-0.8 3.1,-1.6 4.7,-2.4 3.1,-1.6 6.2,-3.2 9.3,-4.9 3.1,-1.7 6.2,-3.4 9.3,-5 0.5,-0.3 1,-0.5 1.5,-0.8 0.4,0.4 0.7,0.8 1.1,1.2 1.2,1.4 2.5,2.7 3.7,4.1 l 0.1,0.2 c 0.4,0.5 0.8,1 1.2,1.4 0.4,0.5 0.8,1 1.2,1.4 l 1.2,1.4 c 0.4,0.5 0.8,0.9 1.2,1.4 l 1.3,1.3 1.3,1.3 c 0.4,0.4 0.9,0.8 1.4,1.2 0.3,0.3 0.6,0.6 1,0.8 0.3,0.3 0.5,0.6 0.8,0.9 1.7,1.8 3.5,3.6 5.2,5.3 -0.3,0.8 -0.7,1.5 -1.2,2.1 z"
   id="path4029" />

	<path
   style="fill:none;stroke:#e2e2e2;stroke-width:0.41161877;stroke-miterlimit:10"
   inkscape:connector-curvature="0"
   class="st6"
   d="M -882.8,135"
   id="path4031" />

	<path
   style="fill:#ffffff;stroke-width:0.49130911"
   inkscape:connector-curvature="0"
   class="st0"
   d="m -874.1,139.9 c -0.1,-0.5 -1.2,-0.6 -1.5,-0.4 -0.9,0.5 -1.7,1.2 -2.4,1.9 -0.1,0 -0.1,0 -0.1,0 -4.1,1.9 -7.6,5.2 -11.3,7.9 -0.7,0.5 -1.4,0.9 -2.1,1.3 2,-1.1 3.9,-3.1 5.7,-4.6 2.7,-2.2 5.3,-4.3 7.9,-6.5 0.5,-0.4 -1.2,-0.7 -1.5,-0.6 -3.1,1.4 -6.2,3.1 -9.3,4.5 2.7,-2.4 3,-3.2 3.5,-4.5 1.1,-0.2 2.1,-0.4 2.8,-0.8 -0.3,-0.1 -1.2,-0.4 -2.1,-0.6 0.3,-0.6 -1.2,-0.7 -1.5,-0.5 -2,1.1 -4.3,1.5 -6.3,2.6 -0.6,0.3 0.9,0.9 1.4,0.7 0.7,-0.4 1.6,-0.6 2.7,-0.8 -1.9,1.7 -4.1,3.2 -4.6,5.7 -0.1,0.6 1.1,0.6 1.4,0.5 2.9,-0.9 5.6,-2.3 8.3,-3.7 -3.6,2.9 -6.9,5.6 -10.5,8.6 -0.2,0.1 0,0.4 0.1,0.5 1.5,1.2 3.2,0.3 4.7,-0.6 2.7,-1.7 5,-3.9 7.6,-5.7 -3,3.1 -6.2,6 -9.3,9 -0.5,0.5 1.2,0.7 1.5,0.6 1.7,-0.8 3.3,-1.7 4.8,-2.8 -2.1,2.5 -4.3,4.8 -6.7,7 -0.5,0.4 1.1,0.7 1.3,0.6 1.7,-0.6 3.4,-1.2 5.1,-2 -2.3,2.2 -4.5,4.5 -6.6,7 -0.4,0.5 1.2,0.9 1.6,0.5 1.7,-1.8 3.4,-3.6 5.2,-5.4 -1,1.8 -2,3.7 -2.9,5.5 -1.1,1.1 -2,2.2 -2.8,3.6 -0.2,0.4 0.3,0.6 0.7,0.6 -0.1,0.2 -0.2,0.3 -0.2,0.5 -0.2,0.5 1.3,0.6 1.6,0.4 2.3,-2.2 3,-3.6 4.1,-6.5 0,0 0,0 0,0 2.5,-3.5 4.4,-7.3 6.2,-11.3 0.2,-0.4 -0.6,-0.6 -1.2,-0.5 0.8,-1.7 1.4,-3.5 2,-5.4 0.5,0.3 1.2,0.2 1.2,-0.2 0,-2 2.2,-4 1.5,-6.1 z m -1.9,2.6 c -0.2,-0.1 -0.5,-0.2 -0.8,-0.2 0.4,-0.4 0.8,-0.7 1.2,-1 -0.1,0.4 -0.3,0.8 -0.4,1.2 z m -7.1,6.3 c 0,0.1 -0.1,0.2 -0.1,0.3 0,0.1 0,0.1 0,0.2 -0.5,0.4 -1,0.7 -1.5,1.1 0.5,-0.6 1,-1.1 1.6,-1.6 z m 4,-1.1 c 0.2,-0.3 -0.2,-0.5 -0.7,-0.6 0.5,-0.7 1.1,-1.4 1.7,-2 -0.9,3.3 -2.2,6.4 -3.7,9.5 -1.8,1 -3.6,1.9 -5.4,2.7 2.9,-3.1 5.6,-6.2 8.1,-9.6 z"
   id="path4033" />

	<path
   style="opacity:0.5;fill:#e1eef4;stroke-width:0.49130911"
   inkscape:connector-curvature="0"
   class="st2"
   d="m -852.9,92.2 c 0.4,-0.2 0.8,-0.3 1.2,-0.4 0.8,-0.2 1.7,-0.3 2.5,-0.4 0.8,-0.1 1.7,-0.1 2.5,-0.1 h 2.5 c 0.8,0 1.6,0.1 2.4,0.1 l 2.4,-0.1 c 1.7,0 3.3,0 4.9,0 3.3,0 6.6,0.1 9.8,-0.1 0.8,0 1.6,-0.1 2.4,-0.2 l 1.2,-0.1 1.2,-0.2 4.9,-0.7 c 3.3,-0.5 6.6,-1 9.9,-1.6 3.3,-0.6 6.6,-1.3 9.8,-2.1 3.2,-0.9 6.4,-1.9 9.4,-3.3 2.4,-1.1 4.6,-2.4 6.5,-4.1 -0.3,0 -0.6,-0.1 -0.8,-0.1 -0.5,0 -1,-0.1 -1.5,-0.1 -0.5,0 -1,0 -1.5,0 -0.5,0 -1,0 -1.5,0 -0.5,0 -1,0.1 -1.5,0.1 -1,0.1 -2,0.2 -3,0.3 -1,0.1 -2,0.3 -3,0.5 -1,0.2 -2,0.4 -3,0.6 -1,0.2 -2,0.4 -3,0.7 l -3,0.7 c 1.7,-0.5 3.5,-0.9 5.2,-1.4 0.5,-0.1 0.9,-0.3 1.4,-0.4 l 2.2,-0.7 c 1,-0.3 2,-0.6 3,-0.9 0.4,-0.1 0.8,-0.2 1.1,-0.3 0.9,-0.3 1.8,-0.5 2.7,-0.8 1.7,-0.5 3.5,-1 5.3,-1.4 l 2.7,-0.6 c 0.9,-0.2 1.7,-0.4 2.6,-0.7 1.7,-0.5 3.4,-1 5.1,-1.7 1.7,-0.6 3.3,-1.3 5,-2 1.7,-0.7 3.3,-1.5 4.9,-2.3 l 4.9,-2.4 c 1.7,-0.8 3.3,-1.6 5,-2.4 3.4,-1.6 6.8,-3 10.1,-4.4 1.7,-0.8 3.3,-1.5 4.9,-2.4 0.8,-0.4 1.6,-0.9 2.3,-1.3 0.4,-0.2 0.8,-0.5 1.1,-0.7 l 1.1,-0.8 c 1.5,-1.1 3.1,-2.1 4.6,-3.1 1,-0.7 1.9,-1.5 2.8,-2.3 -2.6,-0.5 -5.2,-0.9 -7.9,-1.1 -3.2,-0.3 -6.5,-0.5 -9.7,-0.5 -3.2,0 -6.5,0.1 -9.7,0.2 -3.2,0.2 -6.5,0.4 -9.7,0.7 -1.6,0.1 -3.2,0.3 -4.8,0.5 -1.6,0.2 -3.2,0.4 -4.8,0.6 l -4.7,0.7 c -1.6,0.3 -3.1,0.5 -4.7,0.9 l -2.3,0.5 c -0.8,0.2 -1.5,0.3 -2.3,0.5 l -2.3,0.6 -1.1,0.3 -1.2,0.3 c -3.1,0.8 -6.1,1.6 -9.2,2.4 -6.1,1.6 -12.1,3.4 -18,5.4 -2.9,1 -5.9,2 -8.8,3.1 -1.4,0.6 -2.9,1.1 -4.3,1.7 -1.4,0.6 -2.8,1.2 -4.3,1.8 -1.4,0.6 -2.8,1.2 -4.2,1.9 -1.4,0.7 -2.8,1.3 -4.2,2 l -4.2,1.9 c -1.4,0.6 -2.8,1.3 -4.2,1.9 -2.7,1.3 -5.5,2.7 -8,4.3 -1.3,0.8 -2.5,1.6 -3.7,2.6 -1.2,1 -2.2,2 -3,3.3 h -0.1 c 0,0 -0.3,0.9 -0.3,1.7 0,0.7 1.5,1.3 2.7,2 1.2,0.7 7.6,5 7.6,5 v -0.4 0 0 c 0,-0.1 0.1,-0.2 0.2,-0.3 l -0.1,-0.1 c 0.8,-0.4 1.2,-0.6 1.6,-0.8 z"
   id="path4035" />

	<path
   style="fill:#293644;stroke-width:0.49130911"
   inkscape:connector-curvature="0"
   class="st3"
   d="m -720.5,47.2 c -3.2,-0.8 -6.5,-1.3 -9.8,-1.7 -3.3,-0.3 -6.6,-0.5 -9.9,-0.6 -3.3,-0.1 -6.6,-0.1 -9.9,0 -3.3,0.1 -6.5,0.2 -9.8,0.5 -1.6,0.1 -3.2,0.2 -4.9,0.4 -1.6,0.1 -3.2,0.3 -4.8,0.5 l -4.8,0.6 c -1.6,0.3 -3.2,0.5 -4.8,0.8 l -2.4,0.4 c -0.8,0.1 -1.6,0.3 -2.4,0.5 l -2.3,0.5 -0.6,0.1 -0.6,0.1 -1.2,0.3 c -3.1,0.7 -6.2,1.5 -9.3,2.3 -3.1,0.8 -6.1,1.7 -9.2,2.6 -3,0.9 -6.1,1.8 -9.1,2.8 -3,1 -6,2.1 -8.9,3.2 -2.9,1.1 -5.8,2.3 -8.7,3.7 -2.9,1.3 -5.6,2.8 -8.4,4.2 l -4.1,2.2 c -1.4,0.7 -2.7,1.5 -4.1,2.3 -1.4,0.8 -2.7,1.6 -4,2.5 -1.3,0.9 -2.6,1.8 -3.8,2.8 -1.2,1 -2.4,2 -3.4,3.2 -0.5,0.6 -1,1.2 -1.4,1.9 -0.4,0.7 -0.8,1.4 -1,2.1 h 0.1 0.1 c 0.8,-1.3 1.8,-2.4 3,-3.3 1.1,-1 2.4,-1.8 3.7,-2.6 2.6,-1.6 5.3,-3 8,-4.3 1.4,-0.7 2.8,-1.3 4.2,-1.9 l 4.2,-1.9 c 1.4,-0.6 2.8,-1.3 4.2,-2 1.4,-0.7 2.8,-1.2 4.2,-1.9 1.4,-0.6 2.8,-1.2 4.3,-1.8 1.4,-0.6 2.9,-1.1 4.3,-1.7 2.9,-1.1 5.8,-2.1 8.8,-3.1 5.9,-2 11.9,-3.8 18,-5.4 3,-0.8 6.1,-1.6 9.2,-2.4 l 1.2,-0.3 1.1,-0.3 2.3,-0.6 c 0.8,-0.2 1.6,-0.4 2.3,-0.5 l 2.3,-0.5 c 1.5,-0.3 3.1,-0.6 4.7,-0.9 l 4.7,-0.7 c 1.6,-0.2 3.2,-0.4 4.8,-0.6 1.6,-0.2 3.2,-0.4 4.8,-0.5 3.2,-0.3 6.4,-0.5 9.7,-0.7 3.2,-0.2 6.5,-0.2 9.7,-0.2 3.2,0 6.5,0.2 9.7,0.5 2.6,0.3 5.3,0.6 7.9,1.1 -0.9,0.8 -1.8,1.6 -2.8,2.3 -1.5,1.1 -3,2.1 -4.6,3.1 l -1.1,0.8 c -0.4,0.3 -0.8,0.5 -1.1,0.7 -0.8,0.5 -1.5,0.9 -2.3,1.3 -1.6,0.9 -3.2,1.6 -4.9,2.4 -3.3,1.5 -6.8,2.9 -10.1,4.4 -1.7,0.8 -3.3,1.6 -5,2.4 l -4.9,2.4 c -1.6,0.8 -3.3,1.5 -4.9,2.3 -1.7,0.7 -3.3,1.4 -5,2 -1.7,0.6 -3.4,1.2 -5.1,1.7 -0.9,0.2 -1.7,0.5 -2.6,0.7 l -2.7,0.6 c -1.8,0.4 -3.5,0.9 -5.3,1.4 -0.9,0.3 -1.8,0.5 -2.7,0.8 -0.4,0.1 -0.8,0.2 -1.1,0.3 -1,0.3 -2,0.6 -3,0.9 l -2.2,0.7 c -0.5,0.1 -0.9,0.3 -1.4,0.4 -1.7,0.5 -3.5,1 -5.2,1.4 l 5.2,-1.4 c 0.1,0 0.1,0 0.2,0 -1.8,0.5 -3.6,1 -5.4,1.4 l 3,-0.7 c 1,-0.2 2,-0.5 3,-0.7 1,-0.2 2,-0.4 3,-0.6 1,-0.2 2,-0.3 3,-0.5 1,-0.1 2,-0.2 3,-0.3 0.5,0 1,-0.1 1.5,-0.1 0.5,0 1,0 1.5,0 0.5,0 1,0 1.5,0 0.5,0 1,0.1 1.5,0.1 0.3,0 0.6,0.1 0.8,0.1 -1.9,1.7 -4.1,3 -6.5,4.1 -3,1.4 -6.2,2.4 -9.4,3.3 -3.2,0.9 -6.5,1.6 -9.8,2.1 -3.3,0.6 -6.6,1.1 -9.9,1.6 l -4.9,0.7 -1.2,0.2 -1.2,0.1 c -0.8,0.1 -1.6,0.1 -2.4,0.2 -3.3,0.2 -6.5,0.1 -9.8,0.1 -1.6,0 -3.3,0 -4.9,0 l -2.4,0.1 c -0.8,0 -1.6,0 -2.4,-0.1 h -2.5 c -0.8,0 -1.6,0 -2.5,0.1 -0.8,0.1 -1.7,0.2 -2.5,0.4 -0.4,0.1 -0.8,0.2 -1.2,0.4 -0.4,0.2 -0.8,0.4 -1.1,0.7 l 0.1,0.1 v 0 c 0.7,-0.4 1.5,-0.4 2.3,-0.4 0.8,0 1.6,0 2.4,0.1 0.8,0.1 1.6,0.1 2.4,0.2 l 2.4,0.2 c 0.8,0.1 1.6,0.1 2.5,0.2 0.9,0 1.7,0 2.5,0 1.6,0 3.3,0.1 4.9,0.1 3.3,0.1 6.6,0.2 10,0.1 0.8,0 1.7,-0.1 2.5,-0.1 l 1.3,-0.1 1.2,-0.1 5,-0.7 c 3.3,-0.4 6.7,-0.9 10,-1.5 3.4,-0.6 6.7,-1.3 10,-2.2 3.3,-0.9 6.6,-2.1 9.8,-3.6 3.2,-1.5 6.2,-3.5 8.6,-6.2 l 1.2,-1.4 -1.8,-0.3 c -0.4,-0.1 -0.9,-0.1 -1.3,-0.2 l 0.8,-0.1 c 0.9,-0.2 1.8,-0.3 2.7,-0.5 1.8,-0.4 3.6,-0.9 5.4,-1.4 1.8,-0.5 3.5,-1.2 5.3,-1.8 1.7,-0.7 3.4,-1.4 5.1,-2.1 1.7,-0.7 3.4,-1.5 5,-2.3 l 5,-2.4 c 3.3,-1.5 6.7,-3 10,-4.7 1.7,-0.8 3.3,-1.7 5,-2.7 0.8,-0.5 1.6,-1 2.4,-1.5 0.4,-0.3 0.8,-0.5 1.2,-0.8 l 1.1,-0.8 c 1.4,-1.1 3,-2.2 4.4,-3.3 1.5,-1.1 3,-2.3 4.3,-3.7 l 1.1,-1.1 z"
   id="path4037" />

	<path
   style="opacity:0.5;fill:#e1eef4;stroke-width:0.49130911"
   inkscape:connector-curvature="0"
   class="st2"
   d="m -885.8,81.5 c -0.3,-1.5 -1,-2.8 -1.8,-4.1 -0.8,-1.3 -1.7,-2.5 -2.7,-3.6 -1.9,-2.3 -4.1,-4.5 -6.3,-6.6 -1.1,-1.1 -2.2,-2.1 -3.3,-3.1 l -3.4,-3.1 c -1.2,-1.1 -2.2,-2.1 -3.4,-3.2 -1.1,-1.1 -2.3,-2.1 -3.4,-3.1 -1.2,-1 -2.3,-2 -3.5,-3 -1.2,-1 -2.4,-2 -3.5,-3 -2.4,-2 -4.9,-3.9 -7.3,-5.7 -5,-3.8 -10.1,-7.4 -15.4,-10.8 -2.6,-1.7 -5.3,-3.5 -8,-5.2 l -1,-0.6 -1,-0.6 -2,-1.3 c -0.7,-0.4 -1.4,-0.8 -2,-1.2 l -2,-1.2 c -1.4,-0.8 -2.8,-1.5 -4.2,-2.3 l -4.3,-2.2 c -1.4,-0.7 -2.9,-1.4 -4.3,-2.1 -1.5,-0.7 -2.9,-1.4 -4.4,-2 -2.9,-1.3 -5.9,-2.5 -8.9,-3.7 -3,-1.2 -6.1,-2.3 -9.1,-3.3 -3.1,-1 -6.2,-1.9 -9.4,-2.6 -2.6,-0.6 -5.2,-1.1 -7.8,-1.4 0.6,1 1.2,2.1 2,3.1 1.1,1.5 2.2,2.9 3.3,4.4 l 0.8,1.1 c 0.3,0.4 0.6,0.7 0.8,1 0.6,0.7 1.2,1.4 1.8,2 1.2,1.3 2.5,2.6 3.9,3.8 2.7,2.5 5.5,4.9 8.2,7.4 1.4,1.3 2.6,2.6 4,3.9 l 3.9,3.8 c 1.3,1.3 2.6,2.5 4,3.7 1.3,1.2 2.7,2.4 4.1,3.5 1.4,1.1 2.8,2.2 4.3,3.2 0.7,0.5 1.5,1 2.3,1.4 l 2.3,1.4 c 1.5,1 3.1,1.9 4.6,3 0.9,0.6 1.8,1.2 2.6,1.8 0.2,0.1 0.4,0.3 0.7,0.4 0.9,0.6 1.7,1.2 2.5,1.8 l 1.9,1.4 c 0.4,0.3 0.8,0.5 1.2,0.8 1.5,1 3,2 4.5,3 l -2.6,-1.6 c -0.9,-0.5 -1.7,-1.1 -2.6,-1.6 -0.9,-0.5 -1.8,-1 -2.7,-1.5 -0.9,-0.5 -1.8,-1 -2.7,-1.4 -0.9,-0.4 -1.8,-0.9 -2.8,-1.3 -0.5,-0.2 -0.9,-0.4 -1.4,-0.6 -0.5,-0.2 -0.9,-0.3 -1.4,-0.5 -0.5,-0.2 -0.9,-0.3 -1.4,-0.4 -0.5,-0.1 -0.9,-0.2 -1.4,-0.4 -0.3,-0.1 -0.6,-0.1 -0.8,-0.2 1.3,2.2 3,4.2 4.9,5.9 2.4,2.3 5.1,4.2 7.9,6.1 2.8,1.8 5.7,3.5 8.6,5.1 2.9,1.6 5.9,3.1 8.9,4.6 l 4.5,2.2 1.1,0.5 1.1,0.5 c 0.7,0.3 1.5,0.6 2.3,0.9 3,1.2 6.2,2.2 9.3,3.2 1.6,0.5 3.1,1 4.7,1.6 l 2.3,0.8 c 0.7,0.2 1.5,0.5 2.3,0.7 l 2.3,0.8 c 0.8,0.3 1.6,0.6 2.3,0.9 0.8,0.3 1.5,0.7 2.3,1.1 0.4,0.2 0.7,0.5 1,0.7 0.3,0.3 0.7,0.6 0.8,1 l -0.1,0.1 c 0,0.1 0.1,0.2 0,0.4 v 0 0 l -0.1,0.4 c 0,0 7.3,-2.1 8.8,-2.4 1.4,-0.3 2.9,-0.4 3.2,-1.1 0.1,-0.4 0.2,-1.4 0.1,-1.4 z"
   id="path4039" />

	<path
   style="fill:#293644;stroke-width:0.49130911"
   inkscape:connector-curvature="0"
   class="st3"
   d="m -886,79.3 c -0.2,-0.7 -0.5,-1.5 -0.8,-2.2 -0.6,-1.4 -1.4,-2.8 -2.2,-4.1 -0.8,-1.3 -1.8,-2.6 -2.7,-3.8 -1,-1.2 -2,-2.4 -3,-3.6 -1,-1.2 -2.1,-2.3 -3.1,-3.5 l -3.2,-3.3 c -2.1,-2.2 -4.3,-4.5 -6.6,-6.6 -2.3,-2.1 -4.7,-4.2 -7.1,-6.2 -2.4,-2 -4.9,-4 -7.5,-5.8 -2.5,-1.9 -5.1,-3.7 -7.7,-5.5 -2.6,-1.8 -5.2,-3.6 -7.9,-5.3 -2.7,-1.7 -5.4,-3.5 -8.1,-5.1 l -1,-0.6 -0.5,-0.3 -0.5,-0.3 -2.1,-1.2 c -0.7,-0.4 -1.4,-0.8 -2.1,-1.2 l -2.1,-1.2 c -1.4,-0.8 -2.9,-1.5 -4.3,-2.2 l -4.4,-2.1 c -1.5,-0.7 -3,-1.3 -4.4,-2 -1.5,-0.6 -3,-1.3 -4.5,-1.9 -3,-1.2 -6.1,-2.4 -9.1,-3.5 -3.1,-1.1 -6.2,-2.2 -9.4,-3.1 -3.2,-0.9 -6.3,-1.8 -9.6,-2.5 -3.2,-0.7 -6.5,-1.2 -9.9,-1.5 l -1.6,-0.1 0.7,1.4 c 0.8,1.7 1.8,3.3 2.9,4.9 1.1,1.5 2.2,3 3.2,4.5 l 0.8,1.1 c 0.3,0.4 0.6,0.8 0.9,1.1 0.6,0.8 1.2,1.5 1.8,2.2 1.2,1.4 2.5,2.8 3.9,4.1 2.6,2.7 5.4,5.1 8,7.6 l 4,3.8 c 1.3,1.3 2.7,2.6 4,3.8 1.4,1.2 2.8,2.5 4.2,3.6 1.4,1.2 2.9,2.3 4.4,3.4 1.5,1.1 3.1,2.1 4.7,3.1 0.8,0.5 1.6,0.9 2.4,1.4 l 0.7,0.4 c -0.4,-0.1 -0.8,-0.2 -1.3,-0.2 l -1.8,-0.3 0.7,1.7 c 1.4,3.3 3.7,6.1 6.2,8.6 2.5,2.4 5.3,4.6 8.2,6.5 2.9,1.9 5.8,3.7 8.8,5.3 3,1.6 6,3.1 9,4.6 l 4.5,2.2 1.1,0.5 1.2,0.5 c 0.8,0.3 1.6,0.6 2.4,0.9 3.2,1.2 6.4,2.1 9.5,3 1.6,0.5 3.1,0.9 4.7,1.4 0.8,0.2 1.5,0.5 2.4,0.8 0.8,0.2 1.6,0.4 2.4,0.6 l 2.4,0.5 c 0.8,0.2 1.6,0.4 2.3,0.5 0.8,0.2 1.5,0.4 2.3,0.6 0.7,0.3 1.5,0.5 2,1.1 v 0 l 0.1,-0.1 c -0.2,-0.4 -0.5,-0.8 -0.8,-1 -0.3,-0.3 -0.7,-0.5 -1,-0.7 -0.7,-0.4 -1.5,-0.8 -2.3,-1.1 -0.8,-0.3 -1.5,-0.6 -2.3,-0.9 l -2.3,-0.8 c -0.8,-0.2 -1.6,-0.5 -2.3,-0.7 l -2.3,-0.8 c -1.6,-0.6 -3.1,-1.1 -4.7,-1.6 -3.1,-1 -6.3,-2 -9.3,-3.2 -0.8,-0.3 -1.5,-0.6 -2.3,-0.9 l -1.1,-0.5 -1.1,-0.5 -4.5,-2.2 c -3,-1.5 -6,-3 -8.9,-4.6 -2.9,-1.6 -5.8,-3.3 -8.6,-5.1 -2.8,-1.9 -5.5,-3.8 -7.9,-6.1 -1.9,-1.8 -3.6,-3.8 -4.9,-5.9 0.3,0.1 0.6,0.1 0.8,0.2 0.5,0.1 0.9,0.2 1.4,0.4 0.5,0.1 0.9,0.3 1.4,0.4 0.5,0.2 0.9,0.3 1.4,0.5 0.5,0.2 0.9,0.4 1.4,0.6 0.9,0.4 1.8,0.8 2.8,1.3 0.9,0.4 1.8,0.9 2.7,1.4 0.9,0.5 1.8,1 2.7,1.5 0.9,0.5 1.7,1 2.6,1.6 l 2.6,1.6 c -1.5,-1 -3,-2 -4.5,-3 -0.4,-0.3 -0.8,-0.5 -1.2,-0.8 l -1.9,-1.4 c -0.8,-0.6 -1.7,-1.2 -2.5,-1.8 -0.2,-0.1 -0.4,-0.3 -0.7,-0.4 -0.9,-0.6 -1.8,-1.2 -2.6,-1.8 -1.5,-1 -3,-2 -4.6,-3 l -2.3,-1.4 c -0.8,-0.5 -1.5,-0.9 -2.3,-1.4 -1.5,-1 -2.9,-2.1 -4.3,-3.2 -1.4,-1.1 -2.8,-2.3 -4.1,-3.5 -1.3,-1.2 -2.7,-2.4 -4,-3.7 l -3.9,-3.8 c -1.3,-1.3 -2.6,-2.6 -4,-3.9 -2.7,-2.6 -5.5,-5 -8.2,-7.4 -1.3,-1.2 -2.6,-2.5 -3.9,-3.8 -0.6,-0.7 -1.2,-1.3 -1.8,-2 -0.3,-0.3 -0.6,-0.7 -0.8,-1 l -0.8,-1.1 c -1.1,-1.5 -2.3,-3 -3.3,-4.4 -0.7,-1 -1.4,-2 -2,-3.1 2.6,0.3 5.2,0.8 7.8,1.4 3.2,0.7 6.3,1.6 9.4,2.6 3.1,1 6.1,2.1 9.1,3.3 3,1.2 6,2.4 8.9,3.7 1.5,0.6 2.9,1.3 4.4,2 1.5,0.7 2.9,1.4 4.3,2.1 l 4.3,2.2 c 1.4,0.8 2.8,1.5 4.2,2.3 l 2,1.2 c 0.7,0.4 1.4,0.8 2,1.2 l 2,1.3 1,0.6 1,0.6 c 2.7,1.7 5.3,3.4 8,5.2 5.3,3.5 10.4,7.1 15.4,10.8 2.5,1.9 4.9,3.8 7.3,5.7 1.2,1 2.4,2 3.5,3 1.2,1 2.3,2 3.5,3 1.1,1 2.3,2 3.4,3.1 1.1,1.1 2.2,2.1 3.4,3.2 l 3.4,3.1 c 1.1,1 2.2,2.1 3.3,3.1 2.2,2.1 4.3,4.3 6.3,6.6 1,1.2 1.9,2.4 2.7,3.6 0.8,1.3 1.5,2.6 1.8,4.1 h 0.1 v 0 c 0,-0.9 -0.1,-1.7 -0.3,-2.4 z"
   id="path4041" />

</g>
</svg>
