<?xml version="1.0" encoding="UTF-8" standalone="no"?>
<svg
   xmlns:dc="http://purl.org/dc/elements/1.1/"
   xmlns:cc="http://creativecommons.org/ns#"
   xmlns:rdf="http://www.w3.org/1999/02/22-rdf-syntax-ns#"
   xmlns:svg="http://www.w3.org/2000/svg"
   xmlns="http://www.w3.org/2000/svg"
   xmlns:sodipodi="http://sodipodi.sourceforge.net/DTD/sodipodi-0.dtd"
   xmlns:inkscape="http://www.inkscape.org/namespaces/inkscape"
   width="111.11793"
   height="24.00375"
   viewBox="0 0 29.39995 6.350992"
   version="1.1"
   id="svg8"
   inkscape:version="0.92.4 (unknown)"
   sodipodi:docname="ec4j-logo-with-name.svg">
  <sodipodi:namedview
     pagecolor="#ffffff"
     bordercolor="#666666"
     borderopacity="1"
     objecttolerance="10"
     gridtolerance="10"
     guidetolerance="10"
     inkscape:pageopacity="0"
     inkscape:pageshadow="2"
     inkscape:window-width="1830"
     inkscape:window-height="1051"
     id="namedview4561"
     showgrid="false"
     inkscape:pagecheckerboard="true"
     inkscape:zoom="10.781299"
     inkscape:cx="16.785192"
     inkscape:cy="11.293484"
     inkscape:window-x="82"
     inkscape:window-y="0"
     inkscape:window-maximized="1"
     inkscape:current-layer="svg8"
     fit-margin-top="0"
     fit-margin-left="0"
     fit-margin-right="0"
     fit-margin-bottom="0" />
  <defs
     id="defs2" />
  <metadata
     id="metadata5">
    <rdf:RDF>
      <cc:Work
         rdf:about="">
        <dc:format>image/svg+xml</dc:format>
        <dc:type
           rdf:resource="http://purl.org/dc/dcmitype/StillImage" />
        <dc:title></dc:title>
      </cc:Work>
    </rdf:RDF>
  </metadata>
  <rect
     rx="1.0583336"
     ry="1.0607039"
     y="0.13327944"
     x="0.13229166"
     height="6.0854206"
     width="6.0854168"
     id="rect900"
     style="fill:#070707;fill-opacity:1;stroke:#fefefe;stroke-width:0.26458332;stroke-linecap:round;stroke-linejoin:round;stroke-miterlimit:4;stroke-dasharray:none;stroke-opacity:1" />
  <path
     inkscape:connector-curvature="0"
     id="path1007"
     d="m 5.2916588,6.3497419 -4.2281654,0.001 c -0.58763003,1.7e-4 -1.06105263,-0.47171 -1.06122073,-1.05803 l -0.00121,-4.23333 C 9.7857372e-4,0.76636185 0.03388867,0.65265185 0.31090657,0.31101185 0.58792477,-0.03062815 0.92680077,7.8185309e-4 1.0590924,7.4185309e-4 1.0583334,4.7635019 5.2916668,1.5885019 5.2916629,6.3495319 Z"
     style="fill:#ffffff;fill-opacity:1;stroke:none;stroke-width:0.26458332px;stroke-linecap:butt;stroke-linejoin:miter;stroke-opacity:1" />
  <rect
     ry="0.067564368"
     y="1.3238922"
     x="2.6458335"
     height="0.26458332"
     width="0.26458332"
     id="rect836-2"
     style="fill:#ffffff;fill-opacity:1;stroke:none;stroke-width:0.05;stroke-linecap:round;stroke-linejoin:round;stroke-miterlimit:4;stroke-dasharray:none;stroke-opacity:1"
     rx="0.067564368" />
  <rect
     ry="0.067564376"
     y="1.3238922"
     x="3.4395835"
     height="0.26458332"
     width="0.26458332"
     id="rect836-8-6"
     style="fill:#ffffff;fill-opacity:1;stroke:none;stroke-width:0.05;stroke-linecap:round;stroke-linejoin:round;stroke-miterlimit:4;stroke-dasharray:none;stroke-opacity:1"
     rx="0.067564376" />
  <rect
     ry="0.067564376"
     y="1.3238922"
     x="4.2333331"
     height="0.26458332"
     width="0.26458332"
     id="rect836-8-1-9"
     style="fill:#ffffff;fill-opacity:1;stroke:none;stroke-width:0.05;stroke-linecap:round;stroke-linejoin:round;stroke-miterlimit:4;stroke-dasharray:none;stroke-opacity:1"
     rx="0.067564376" />
  <rect
     ry="0.067564376"
     y="1.3238922"
     x="5.0270834"
     height="0.26458332"
     width="0.26458332"
     id="rect836-8-2-1"
     style="fill:#ffffff;fill-opacity:1;stroke:none;stroke-width:0.05;stroke-linecap:round;stroke-linejoin:round;stroke-miterlimit:4;stroke-dasharray:none;stroke-opacity:1"
     rx="0.067564376" />
  <path
     inkscape:connector-curvature="0"
     id="path980"
     d="M 0.92604167,4.8957919 H 3.3072919"
     style="fill:none;stroke:#000000;stroke-width:0.26499999;stroke-linecap:round;stroke-linejoin:round;stroke-miterlimit:4;stroke-dasharray:none;stroke-opacity:1" />
  <path
     inkscape:connector-curvature="0"
     id="path982"
     d="m 2.5135419,4.3666219 0.79375,0.52917 -0.79375,0.52917"
     style="fill:none;stroke:#000000;stroke-width:0.26458332px;stroke-linecap:round;stroke-linejoin:round;stroke-opacity:1" />
  <path
     inkscape:connector-curvature="0"
     id="path986"
     d="m 3.3072919,4.3666219 v 1.05834"
     style="fill:none;stroke:#000000;stroke-width:0.26458332px;stroke-linecap:round;stroke-linejoin:round;stroke-opacity:1" />
  <g
     aria-label=".editorconfig
for Java"
     style="font-style:normal;font-variant:normal;font-weight:normal;font-stretch:normal;font-size:3.88055539px;line-height:1.25;font-family:'Courier New';-inkscape-font-specification:'Courier New, Normal';font-variant-ligatures:normal;font-variant-caps:normal;font-variant-numeric:normal;font-feature-settings:normal;text-align:start;letter-spacing:0px;word-spacing:0px;writing-mode:lr-tb;text-anchor:start;fill:#000000;fill-opacity:1;stroke:none;stroke-width:0.26458332"
     id="text5126"
     transform="translate(-3.1292439e-7,9.9185309e-4)">
    <path
       d="m 8.3311256,2.2173653 h 0.049609 q 0.07717,0 0.1322917,0.055122 0.055122,0.053744 0.055122,0.1309136 0,0.079926 -0.0565,0.1336697 -0.055122,0.053744 -0.1309137,0.053744 h -0.049609 q -0.07717,0 -0.1322917,-0.053744 -0.055122,-0.055122 -0.055122,-0.1322921 0,-0.079926 0.055122,-0.1336697 0.0565,-0.053744 0.1322917,-0.053743 z"
       style="font-style:normal;font-variant:normal;font-weight:normal;font-stretch:normal;font-size:2.82222223px;font-family:'Courier New';-inkscape-font-specification:'Courier New, Normal';font-variant-ligatures:normal;font-variant-caps:normal;font-variant-numeric:normal;font-feature-settings:normal;text-align:start;writing-mode:lr-tb;text-anchor:start;fill:#f0f0f0;fill-opacity:1;stroke-width:0.26458332"
       id="path5134"
       inkscape:connector-curvature="0" />
    <path
       d="M 10.67379,1.9803428 H 9.4941898 q 0.030317,0.2246201 0.1874132,0.362424 0.1584744,0.1364257 0.391362,0.1364257 0.129536,0 0.271474,-0.042719 0.141938,-0.042719 0.23151,-0.1129992 0.02618,-0.020671 0.04548,-0.020671 0.02205,0 0.03858,0.017915 0.01654,0.016536 0.01654,0.039963 0,0.023427 -0.02205,0.045475 -0.06615,0.068902 -0.235645,0.1295356 -0.168121,0.059256 -0.345888,0.059256 -0.2976554,0 -0.4974709,-0.1943034 Q 9.3770576,2.204963 9.3770576,1.9279774 q 0,-0.252181 0.1860352,-0.4327039 0.1874131,-0.180523 0.4630202,-0.180523 0.283876,0 0.467155,0.1860351 0.183279,0.1846571 0.180523,0.4795573 z M 10.556657,1.8632095 Q 10.522206,1.6716622 10.374756,1.5517729 10.228684,1.4318836 10.026112,1.4318836 q -0.2025706,0 -0.3486431,0.1185112 -0.146072,0.1185113 -0.181901,0.3128147 z"
       style="font-style:normal;font-variant:normal;font-weight:normal;font-stretch:normal;font-size:2.82222223px;font-family:'Courier New';-inkscape-font-specification:'Courier New, Normal';font-variant-ligatures:normal;font-variant-caps:normal;font-variant-numeric:normal;font-feature-settings:normal;text-align:start;writing-mode:lr-tb;text-anchor:start;fill:#f0f0f0;fill-opacity:1;stroke-width:0.26458332"
       id="path5136"
       inkscape:connector-curvature="0" />
    <path
       d="M 12.306765,0.82003465 V 2.4337173 h 0.154341 q 0.04272,0 0.06063,0.016536 0.01792,0.015159 0.01792,0.041341 0,0.024805 -0.01792,0.041341 -0.01791,0.016536 -0.06063,0.016536 H 12.189632 V 2.3193401 q -0.201193,0.2756077 -0.511252,0.2756077 -0.157096,0 -0.30179,-0.082682 -0.143316,-0.08406 -0.227377,-0.2384006 -0.08268,-0.1543403 -0.08268,-0.3183268 0,-0.1653646 0.08268,-0.3183269 0.08406,-0.1543402 0.227377,-0.2384005 0.144694,-0.08406 0.303168,-0.08406 0.303168,0 0.509874,0.2756076 V 0.9371679 h -0.15434 q -0.04272,0 -0.06063,-0.0165365 -0.01791,-0.0165365 -0.01791,-0.0427192 0,-0.0248047 0.01791,-0.0413411 0.01792,-0.0165365 0.06063,-0.0165365 z M 12.189632,1.9555381 q 0,-0.2204861 -0.148828,-0.3720703 -0.148828,-0.1515842 -0.354156,-0.1515842 -0.206705,0 -0.355534,0.1515842 -0.148828,0.1515842 -0.148828,0.3720703 0,0.219108 0.148828,0.3720702 0.148829,0.1515842 0.355534,0.1515842 0.205328,0 0.354156,-0.1515842 0.148828,-0.1529622 0.148828,-0.3720702 z"
       style="font-style:normal;font-variant:normal;font-weight:normal;font-stretch:normal;font-size:2.82222223px;font-family:'Courier New';-inkscape-font-specification:'Courier New, Normal';font-variant-ligatures:normal;font-variant-caps:normal;font-variant-numeric:normal;font-feature-settings:normal;text-align:start;writing-mode:lr-tb;text-anchor:start;fill:#f0f0f0;fill-opacity:1;stroke-width:0.26458332"
       id="path5138"
       inkscape:connector-curvature="0" />
    <path
       d="M 13.489122,0.76215705 V 1.0611913 H 13.318245 V 0.76215705 Z m 0.0041,0.59393445 v 1.0776258 h 0.454753 q 0.04272,0 0.06063,0.016536 0.01792,0.015159 0.01792,0.041341 0,0.024805 -0.01792,0.041341 -0.01791,0.016536 -0.06063,0.016536 h -1.025261 q -0.04134,0 -0.05926,-0.016536 -0.01791,-0.016536 -0.01791,-0.041341 0,-0.026183 0.01791,-0.041341 0.01791,-0.016536 0.05926,-0.016536 h 0.454753 V 1.4732248 h -0.337585 q -0.04134,0 -0.06063,-0.016536 -0.01792,-0.016536 -0.01792,-0.041341 0,-0.026183 0.01792,-0.042719 0.01791,-0.016536 0.06063,-0.016536 z"
       style="font-style:normal;font-variant:normal;font-weight:normal;font-stretch:normal;font-size:2.82222223px;font-family:'Courier New';-inkscape-font-specification:'Courier New, Normal';font-variant-ligatures:normal;font-variant-caps:normal;font-variant-numeric:normal;font-feature-settings:normal;text-align:start;writing-mode:lr-tb;text-anchor:start;fill:#f0f0f0;fill-opacity:1;stroke-width:0.26458332"
       id="path5140"
       inkscape:connector-curvature="0" />
    <path
       d="m 14.886453,1.3560915 h 0.628385 q 0.04134,0 0.05926,0.016536 0.01792,0.016536 0.01792,0.042719 0,0.024805 -0.01792,0.041341 -0.01791,0.016536 -0.05926,0.016536 H 14.886453 V 2.243548 q 0,0.1005968 0.07993,0.1681207 0.0813,0.067524 0.237023,0.067524 0.117133,0 0.253559,-0.034451 0.136426,-0.035829 0.212218,-0.079926 0.02756,-0.017915 0.04548,-0.017915 0.02205,0 0.03858,0.017915 0.01654,0.016536 0.01654,0.039963 0,0.020671 -0.01791,0.038585 -0.0441,0.045475 -0.214974,0.099219 -0.169499,0.052366 -0.325217,0.052366 -0.202572,0 -0.322461,-0.095085 -0.119889,-0.095085 -0.119889,-0.2563151 V 1.4732248 h -0.213596 q -0.04134,0 -0.05926,-0.016536 -0.01791,-0.016536 -0.01791,-0.042719 0,-0.024805 0.01791,-0.041341 0.01792,-0.016536 0.05926,-0.016536 h 0.213596 V 1.014338 q 0,-0.0413411 0.01654,-0.0592556 0.01654,-0.0179145 0.04134,-0.0179145 0.02618,0 0.04272,0.0179145 0.01654,0.0179145 0.01654,0.0592556 z"
       style="font-style:normal;font-variant:normal;font-weight:normal;font-stretch:normal;font-size:2.82222223px;font-family:'Courier New';-inkscape-font-specification:'Courier New, Normal';font-variant-ligatures:normal;font-variant-caps:normal;font-variant-numeric:normal;font-feature-settings:normal;text-align:start;writing-mode:lr-tb;text-anchor:start;fill:#f0f0f0;fill-opacity:1;stroke-width:0.26458332"
       id="path5142"
       inkscape:connector-curvature="0" />
    <path
       d="m 17.463385,1.9555381 q 0,0.2645833 -0.19017,0.4519965 -0.188791,0.1874132 -0.45613,0.1874132 -0.270096,0 -0.458887,-0.1874132 -0.188791,-0.1887913 -0.188791,-0.4519965 0,-0.2645834 0.188791,-0.4519965 0.188791,-0.1887912 0.458887,-0.1887912 0.267339,0 0.45613,0.1874132 0.19017,0.1874131 0.19017,0.4533745 z m -0.117134,0 q 0,-0.2177301 -0.155718,-0.3706923 -0.15434,-0.1529622 -0.374826,-0.1529622 -0.220486,0 -0.376205,0.1543402 -0.15434,0.1529623 -0.15434,0.3693143 0,0.2149739 0.15434,0.3693142 0.155719,0.1543402 0.376205,0.1543402 0.220486,0 0.374826,-0.1529622 0.155718,-0.1543403 0.155718,-0.3706922 z"
       style="font-style:normal;font-variant:normal;font-weight:normal;font-stretch:normal;font-size:2.82222223px;font-family:'Courier New';-inkscape-font-specification:'Courier New, Normal';font-variant-ligatures:normal;font-variant-caps:normal;font-variant-numeric:normal;font-feature-settings:normal;text-align:start;writing-mode:lr-tb;text-anchor:start;fill:#f0f0f0;fill-opacity:1;stroke-width:0.26458332"
       id="path5144"
       inkscape:connector-curvature="0" />
    <path
       d="m 18.370133,1.3560915 v 0.2921441 q 0.225998,-0.2039496 0.33762,-0.2618273 0.112999,-0.059256 0.208083,-0.059256 0.103353,0 0.191548,0.07028 0.08957,0.068902 0.08957,0.1047309 0,0.026183 -0.01791,0.044097 -0.01654,0.016536 -0.04272,0.016536 -0.01378,0 -0.02343,-0.00413 -0.0096,-0.00551 -0.03583,-0.031695 -0.04823,-0.048231 -0.08406,-0.066146 -0.03583,-0.017915 -0.07028,-0.017915 -0.07579,0 -0.183279,0.060634 -0.106109,0.060634 -0.369314,0.2962782 v 0.6338973 h 0.51263 q 0.04272,0 0.06063,0.016536 0.01792,0.015159 0.01792,0.041341 0,0.024805 -0.01792,0.041341 -0.01791,0.016536 -0.06063,0.016536 h -0.908127 q -0.04134,0 -0.05926,-0.015158 -0.01792,-0.016536 -0.01792,-0.041341 0,-0.023427 0.01654,-0.038585 0.01791,-0.016537 0.06063,-0.016537 h 0.279742 V 1.4732248 h -0.213584 q -0.04134,0 -0.05926,-0.016536 -0.01791,-0.016536 -0.01791,-0.042719 0,-0.024805 0.01654,-0.041341 0.01791,-0.016536 0.06063,-0.016536 z"
       style="font-style:normal;font-variant:normal;font-weight:normal;font-stretch:normal;font-size:2.82222223px;font-family:'Courier New';-inkscape-font-specification:'Courier New, Normal';font-variant-ligatures:normal;font-variant-caps:normal;font-variant-numeric:normal;font-feature-settings:normal;text-align:start;writing-mode:lr-tb;text-anchor:start;fill:#f0f0f0;fill-opacity:1;stroke-width:0.26458332"
       id="path5146"
       inkscape:connector-curvature="0" />
    <path
       d="m 20.68386,1.4732248 v -0.038585 q 0,-0.042719 0.01654,-0.060634 0.01654,-0.017915 0.04134,-0.017915 0.02618,0 0.04272,0.017915 0.01654,0.017914 0.01654,0.060634 V 1.696467 q -0.0014,0.042719 -0.01791,0.060634 -0.01516,0.017914 -0.04134,0.017914 -0.02343,0 -0.03996,-0.015158 -0.01516,-0.016536 -0.01791,-0.053743 -0.0083,-0.097841 -0.129536,-0.1860351 -0.119889,-0.088194 -0.323839,-0.088194 -0.257693,0 -0.391363,0.1612304 -0.13367,0.1612305 -0.13367,0.3693142 0,0.2246202 0.147451,0.3706923 0.14745,0.146072 0.381716,0.146072 0.135048,0 0.27423,-0.049609 0.14056,-0.049609 0.253559,-0.1598525 0.02894,-0.027561 0.05099,-0.027561 0.02343,0 0.03858,0.016536 0.01654,0.015159 0.01654,0.038585 0,0.059256 -0.139182,0.1502062 -0.22462,0.1474501 -0.500228,0.1474501 -0.279742,0 -0.460265,-0.177767 -0.179145,-0.1791449 -0.179145,-0.4533745 0,-0.2797418 0.183279,-0.4643989 0.184657,-0.1846571 0.464399,-0.1846571 0.265962,0 0.446485,0.1584744 z"
       style="font-style:normal;font-variant:normal;font-weight:normal;font-stretch:normal;font-size:2.82222223px;font-family:'Courier New';-inkscape-font-specification:'Courier New, Normal';font-variant-ligatures:normal;font-variant-caps:normal;font-variant-numeric:normal;font-feature-settings:normal;text-align:start;writing-mode:lr-tb;text-anchor:start;fill:#f0f0f0;fill-opacity:1;stroke-width:0.26458332"
       id="path5148"
       inkscape:connector-curvature="0" />
    <path
       d="m 22.540077,1.9555381 q 0,0.2645833 -0.190169,0.4519965 -0.188791,0.1874132 -0.456131,0.1874132 -0.270095,0 -0.458886,-0.1874132 -0.188792,-0.1887913 -0.188792,-0.4519965 0,-0.2645834 0.188792,-0.4519965 0.188791,-0.1887912 0.458886,-0.1887912 0.26734,0 0.456131,0.1874132 0.190169,0.1874131 0.190169,0.4533745 z m -0.117133,0 q 0,-0.2177301 -0.155718,-0.3706923 -0.154341,-0.1529622 -0.374827,-0.1529622 -0.220486,0 -0.376204,0.1543402 -0.15434,0.1529623 -0.15434,0.3693143 0,0.2149739 0.15434,0.3693142 0.155718,0.1543402 0.376204,0.1543402 0.220486,0 0.374827,-0.1529622 0.155718,-0.1543403 0.155718,-0.3706922 z"
       style="font-style:normal;font-variant:normal;font-weight:normal;font-stretch:normal;font-size:2.82222223px;font-family:'Courier New';-inkscape-font-specification:'Courier New, Normal';font-variant-ligatures:normal;font-variant-caps:normal;font-variant-numeric:normal;font-feature-settings:normal;text-align:start;writing-mode:lr-tb;text-anchor:start;fill:#f0f0f0;fill-opacity:1;stroke-width:0.26458332"
       id="path5150"
       inkscape:connector-curvature="0" />
    <path
       d="M 23.211182,1.3560915 V 1.5311023 Q 23.33245,1.408457 23.43029,1.3616037 q 0.09784,-0.046853 0.220486,-0.046853 0.132292,0 0.241157,0.0565 0.07717,0.041341 0.139182,0.1378038 0.06339,0.095085 0.06339,0.1956814 V 2.433718 h 0.09784 q 0.04134,0 0.05926,0.016536 0.01792,0.015159 0.01792,0.041341 0,0.024805 -0.01792,0.041341 -0.01791,0.016536 -0.05926,0.016536 h -0.310058 q -0.04272,0 -0.06063,-0.016536 -0.01791,-0.016536 -0.01791,-0.041341 0,-0.026183 0.01791,-0.041341 0.01792,-0.016536 0.06063,-0.016536 h 0.09646 V 1.7240277 q 0,-0.1226454 -0.08957,-0.2067057 -0.08957,-0.085438 -0.239779,-0.085438 -0.114377,0 -0.198437,0.046853 -0.08406,0.045475 -0.239779,0.2287543 v 0.7262261 h 0.130914 q 0.04134,0 0.05926,0.016536 0.01792,0.015159 0.01792,0.041341 0,0.024805 -0.01792,0.041341 -0.01791,0.016536 -0.05926,0.016536 h -0.377583 q -0.04134,0 -0.05926,-0.016536 -0.01792,-0.016536 -0.01792,-0.041341 0,-0.026183 0.01792,-0.041341 0.01791,-0.016536 0.05926,-0.016536 h 0.130914 V 1.4732248 h -0.09784 q -0.04134,0 -0.05926,-0.016536 -0.01791,-0.016536 -0.01791,-0.042719 0,-0.024805 0.01791,-0.041341 0.01791,-0.016536 0.05926,-0.016536 z"
       style="font-style:normal;font-variant:normal;font-weight:normal;font-stretch:normal;font-size:2.82222223px;font-family:'Courier New';-inkscape-font-specification:'Courier New, Normal';font-variant-ligatures:normal;font-variant-caps:normal;font-variant-numeric:normal;font-feature-settings:normal;text-align:start;writing-mode:lr-tb;text-anchor:start;fill:#f0f0f0;fill-opacity:1;stroke-width:0.26458332"
       id="path5152"
       inkscape:connector-curvature="0" />
    <path
       d="m 25.20107,1.4732248 v 0.9604925 h 0.508496 q 0.04134,0 0.05926,0.016536 0.01791,0.015159 0.01791,0.041341 0,0.024805 -0.01791,0.041341 -0.01791,0.016536 -0.05926,0.016536 h -0.905371 q -0.04134,0 -0.05926,-0.016536 -0.01791,-0.016536 -0.01791,-0.041341 0,-0.026183 0.01791,-0.041341 0.01791,-0.016536 0.05926,-0.016536 h 0.279741 V 1.4732248 h -0.250803 q -0.04134,0 -0.05926,-0.016536 -0.01792,-0.016536 -0.01792,-0.042719 0,-0.024805 0.01792,-0.041341 0.01791,-0.016536 0.05926,-0.016536 h 0.250803 V 1.1810807 q 0,-0.1460721 0.118512,-0.25355907 0.118511,-0.10748698 0.314192,-0.10748698 0.163987,0 0.350022,0.0303168 0.07028,0.0110243 0.08406,0.0261827 0.01516,0.0151584 0.01516,0.0399631 0,0.0248047 -0.01654,0.0413411 -0.01654,0.0151584 -0.0441,0.0151584 -0.01102,0 -0.03721,-0.004134 -0.208084,-0.0316949 -0.3514,-0.0316949 -0.151584,0 -0.234266,0.074414 -0.0813,0.074414 -0.0813,0.1694987 v 0.1750109 h 0.541569 q 0.04134,0 0.05925,0.016536 0.01792,0.016536 0.01792,0.042719 0,0.024805 -0.01792,0.041341 -0.01791,0.016536 -0.05925,0.016536 z"
       style="font-style:normal;font-variant:normal;font-weight:normal;font-stretch:normal;font-size:2.82222223px;font-family:'Courier New';-inkscape-font-specification:'Courier New, Normal';font-variant-ligatures:normal;font-variant-caps:normal;font-variant-numeric:normal;font-feature-settings:normal;text-align:start;writing-mode:lr-tb;text-anchor:start;fill:#f0f0f0;fill-opacity:1;stroke-width:0.26458332"
       id="path5154"
       inkscape:connector-curvature="0" />
    <path
       d="M 27.02697,0.76215705 V 1.0611913 H 26.856093 V 0.76215705 Z m 0.0041,0.59393445 v 1.0776258 h 0.454752 q 0.04272,0 0.06063,0.016536 0.01791,0.015159 0.01791,0.041341 0,0.024805 -0.01791,0.041341 -0.01791,0.016536 -0.06063,0.016536 h -1.02526 q -0.04134,0 -0.05926,-0.016536 -0.01791,-0.016536 -0.01791,-0.041341 0,-0.026183 0.01791,-0.041341 0.01792,-0.016536 0.05926,-0.016536 h 0.454752 V 1.4732248 h -0.337619 q -0.04134,0 -0.06063,-0.016536 -0.01791,-0.016536 -0.01791,-0.041341 0,-0.026183 0.01791,-0.042719 0.01792,-0.016536 0.06063,-0.016536 z"
       style="font-style:normal;font-variant:normal;font-weight:normal;font-stretch:normal;font-size:2.82222223px;font-family:'Courier New';-inkscape-font-specification:'Courier New, Normal';font-variant-ligatures:normal;font-variant-caps:normal;font-variant-numeric:normal;font-feature-settings:normal;text-align:start;writing-mode:lr-tb;text-anchor:start;fill:#f0f0f0;fill-opacity:1;stroke-width:0.26458332"
       id="path5156"
       inkscape:connector-curvature="0" />
    <path
       d="M 29.051307,1.5683093 V 1.3560915 h 0.271473 q 0.04134,0 0.05926,0.016536 0.01791,0.016536 0.01791,0.042719 0,0.024805 -0.01791,0.041341 -0.01791,0.016536 -0.05926,0.016536 h -0.155718 v 1.1561739 q 0,0.1157552 -0.04961,0.2067057 -0.03307,0.060634 -0.110243,0.1254015 -0.07717,0.064768 -0.14056,0.092329 -0.06339,0.027561 -0.169499,0.027561 h -0.327973 q -0.04134,0 -0.05926,-0.016536 -0.01791,-0.015158 -0.01791,-0.041341 0,-0.026183 0.01791,-0.042719 0.01791,-0.016536 0.05926,-0.016536 l 0.332107,0.00138 q 0.101975,0 0.183279,-0.052365 0.08268,-0.052366 0.136426,-0.1529623 0.03032,-0.057878 0.03032,-0.1474501 V 2.2655966 q -0.186035,0.2549371 -0.479557,0.2549371 -0.238401,0 -0.412034,-0.1763889 -0.172255,-0.1777669 -0.172255,-0.4271918 0,-0.2494249 0.172255,-0.4258137 0.173633,-0.1763889 0.412034,-0.1763889 0.293522,0 0.479557,0.2535589 z m 0,0.3486437 q 0,-0.2039496 -0.14056,-0.3445095 -0.139182,-0.1405599 -0.333485,-0.1405599 -0.194304,0 -0.333485,0.1419379 -0.139182,0.1405599 -0.139182,0.3431315 0,0.2039496 0.139182,0.3458875 0.139181,0.1405599 0.333485,0.1405599 0.194303,0 0.333485,-0.1405599 0.14056,-0.1419379 0.14056,-0.3458875 z"
       style="font-style:normal;font-variant:normal;font-weight:normal;font-stretch:normal;font-size:2.82222223px;font-family:'Courier New';-inkscape-font-specification:'Courier New, Normal';font-variant-ligatures:normal;font-variant-caps:normal;font-variant-numeric:normal;font-feature-settings:normal;text-align:start;writing-mode:lr-tb;text-anchor:start;fill:#f0f0f0;fill-opacity:1;stroke-width:0.26458332"
       id="path5158"
       inkscape:connector-curvature="0" />
    <path
       d="m 9.8033723,4.4664681 v 0.9604926 h 0.5084957 q 0.04134,0 0.05926,0.016536 0.01791,0.015158 0.01791,0.041341 0,0.024805 -0.01791,0.041341 -0.01791,0.016536 -0.05926,0.016536 H 9.4064973 q -0.041341,0 -0.059256,-0.016536 -0.017914,-0.016536 -0.017914,-0.041341 0,-0.026183 0.017914,-0.041341 0.017914,-0.016536 0.059256,-0.016536 H 9.6862391 V 4.4664681 h -0.250803 q -0.041341,0 -0.059256,-0.016536 -0.017914,-0.016536 -0.017914,-0.042719 0,-0.024805 0.017914,-0.041341 0.017914,-0.016536 0.059256,-0.016536 h 0.250803 V 4.174324 q 0,-0.146072 0.1185113,-0.253559 0.1185108,-0.107487 0.3141926,-0.107487 0.163986,0 0.350021,0.030317 0.07028,0.011024 0.08406,0.026183 0.01516,0.015158 0.01516,0.039963 0,0.024805 -0.01654,0.041341 -0.01654,0.015158 -0.0441,0.015158 -0.01102,0 -0.03721,-0.00413 -0.208083,-0.031695 -0.351399,-0.031695 -0.1515848,0 -0.2342666,0.074414 -0.081304,0.074414 -0.081304,0.1694987 v 0.1750109 h 0.5415766 q 0.04134,0 0.05926,0.016536 0.01791,0.016536 0.01791,0.042719 0,0.024805 -0.01791,0.041341 -0.01791,0.016536 -0.05926,0.016536 z"
       style="font-style:normal;font-variant:normal;font-weight:normal;font-stretch:normal;font-size:2.82222223px;font-family:'Courier New';-inkscape-font-specification:'Courier New, Normal';font-variant-ligatures:normal;font-variant-caps:normal;font-variant-numeric:normal;font-feature-settings:normal;text-align:start;writing-mode:lr-tb;text-anchor:start;fill:#f0f0f0;fill-opacity:1;stroke-width:0.26458332"
       id="path5160"
       inkscape:connector-curvature="0" />
    <path
       d="m 12.219074,4.9487815 q 0,0.2645833 -0.19017,0.4519965 -0.188791,0.1874132 -0.45613,0.1874132 -0.270096,0 -0.458887,-0.1874132 -0.188792,-0.1887912 -0.188792,-0.4519965 0,-0.2645834 0.188792,-0.4519966 0.188791,-0.1887912 0.458887,-0.1887912 0.267339,0 0.45613,0.1874132 0.19017,0.1874132 0.19017,0.4533746 z m -0.117134,0 q 0,-0.2177301 -0.155718,-0.3706923 -0.15434,-0.1529622 -0.374826,-0.1529622 -0.220486,0 -0.376205,0.1543402 -0.15434,0.1529623 -0.15434,0.3693143 0,0.2149739 0.15434,0.3693142 0.155719,0.1543403 0.376205,0.1543403 0.220486,0 0.374826,-0.1529623 0.155718,-0.1543402 0.155718,-0.3706922 z"
       style="font-style:normal;font-variant:normal;font-weight:normal;font-stretch:normal;font-size:2.82222223px;font-family:'Courier New';-inkscape-font-specification:'Courier New, Normal';font-variant-ligatures:normal;font-variant-caps:normal;font-variant-numeric:normal;font-feature-settings:normal;text-align:start;writing-mode:lr-tb;text-anchor:start;fill:#f0f0f0;fill-opacity:1;stroke-width:0.26458332"
       id="path5162"
       inkscape:connector-curvature="0" />
    <path
       d="m 13.125823,4.3493349 v 0.292144 q 0.225998,-0.2039496 0.337619,-0.2618272 0.112999,-0.059256 0.208084,-0.059256 0.103353,0 0.191547,0.07028 0.08957,0.068902 0.08957,0.1047309 0,0.026183 -0.01792,0.044097 -0.01654,0.016536 -0.04272,0.016536 -0.01378,0 -0.02343,-0.00413 -0.0096,-0.00551 -0.03583,-0.031695 -0.04823,-0.048231 -0.08406,-0.066146 -0.03583,-0.017914 -0.07028,-0.017914 -0.07579,0 -0.183279,0.060634 -0.106109,0.060634 -0.369314,0.2962783 v 0.6338975 h 0.51263 q 0.04272,0 0.06063,0.016536 0.01791,0.015158 0.01791,0.041341 0,0.024805 -0.01791,0.041341 -0.01791,0.016536 -0.06063,0.016536 h -0.908127 q -0.04134,0 -0.05926,-0.015158 -0.01791,-0.016536 -0.01791,-0.041341 0,-0.023427 0.01654,-0.038585 0.01792,-0.016536 0.06063,-0.016536 h 0.279742 V 4.4664681 h -0.213596 q -0.04134,0 -0.05926,-0.016536 -0.01791,-0.016536 -0.01791,-0.042719 0,-0.024805 0.01654,-0.041341 0.01792,-0.016536 0.06063,-0.016536 z"
       style="font-style:normal;font-variant:normal;font-weight:normal;font-stretch:normal;font-size:2.82222223px;font-family:'Courier New';-inkscape-font-specification:'Courier New, Normal';font-variant-ligatures:normal;font-variant-caps:normal;font-variant-numeric:normal;font-feature-settings:normal;text-align:start;writing-mode:lr-tb;text-anchor:start;fill:#f0f0f0;fill-opacity:1;stroke-width:0.26458332"
       id="path5164"
       inkscape:connector-curvature="0" />
    <path
       d="m 17.101463,4.0461664 v 1.0225044 q 0,0.2108398 -0.157096,0.3651801 -0.157097,0.1543403 -0.374827,0.1543403 -0.130913,0 -0.257693,-0.059256 -0.125401,-0.060634 -0.274229,-0.1970594 V 4.9046842 q 0,-0.041341 0.01654,-0.059256 0.01654,-0.017914 0.04134,-0.017914 0.02618,0 0.04272,0.017914 0.01654,0.017914 0.01654,0.059256 l -0.0014,0.3720704 q 0.106109,0.097841 0.209462,0.14745 0.104731,0.048231 0.206705,0.048231 0.113,0 0.213596,-0.055122 0.07579,-0.041341 0.137804,-0.1391819 0.06339,-0.097841 0.06339,-0.2094618 V 4.0461664 h -0.45336 q -0.04272,0 -0.06063,-0.015158 -0.01792,-0.016536 -0.01792,-0.042719 0,-0.026183 0.01792,-0.041341 0.01791,-0.016536 0.06063,-0.016536 h 0.846116 q 0.04134,0 0.05926,0.016536 0.01791,0.015158 0.01791,0.041341 0,0.026183 -0.01791,0.042719 -0.01791,0.015158 -0.05926,0.015158 z"
       style="font-style:normal;font-variant:normal;font-weight:normal;font-stretch:normal;font-size:2.82222223px;font-family:'Courier New';-inkscape-font-specification:'Courier New, Normal';font-variant-ligatures:normal;font-variant-caps:normal;font-variant-numeric:normal;font-feature-settings:normal;text-align:start;writing-mode:lr-tb;text-anchor:start;fill:#f0f0f0;fill-opacity:1;stroke-width:0.26458332"
       id="path5166"
       inkscape:connector-curvature="0" />
    <path
       d="M 18.673805,5.5427159 V 5.3759733 q -0.252181,0.2122179 -0.538813,0.2122179 -0.208084,0 -0.325217,-0.1047309 -0.117133,-0.106109 -0.117133,-0.2590712 0,-0.1681207 0.15434,-0.2935221 0.15434,-0.1254015 0.450619,-0.1254015 0.07993,0 0.173632,0.011024 0.09371,0.00965 0.202572,0.031695 v -0.187413 q 0,-0.095085 -0.08819,-0.1653646 -0.08819,-0.07028 -0.264584,-0.07028 -0.135048,0 -0.37896,0.078548 -0.0441,0.01378 -0.0565,0.01378 -0.02205,0 -0.03859,-0.016536 -0.01516,-0.016536 -0.01516,-0.041341 0,-0.023427 0.01378,-0.037207 0.01929,-0.020671 0.155718,-0.0565 0.214974,-0.057878 0.325217,-0.057878 0.219108,0 0.341754,0.108865 0.122645,0.107487 0.122645,0.2439128 v 0.7661892 h 0.154341 q 0.04272,0 0.06063,0.016536 0.01791,0.015158 0.01791,0.041341 0,0.024805 -0.01791,0.041341 -0.01791,0.016536 -0.06063,0.016536 z m 0,-0.5760199 Q 18.592505,4.943269 18.50155,4.932245 18.4106,4.921221 18.310003,4.921221 q -0.252181,0 -0.394119,0.108865 -0.107487,0.081304 -0.107487,0.1943034 0,0.1047309 0.0813,0.1763889 0.08268,0.071658 0.239779,0.071658 0.150206,0 0.278364,-0.059256 0.129535,-0.060634 0.265961,-0.1915473 z"
       style="font-style:normal;font-variant:normal;font-weight:normal;font-stretch:normal;font-size:2.82222223px;font-family:'Courier New';-inkscape-font-specification:'Courier New, Normal';font-variant-ligatures:normal;font-variant-caps:normal;font-variant-numeric:normal;font-feature-settings:normal;text-align:start;writing-mode:lr-tb;text-anchor:start;fill:#f0f0f0;fill-opacity:1;stroke-width:0.26458332"
       id="path5168"
       inkscape:connector-curvature="0" />
    <path
       d="M 20.134525,5.5427159 H 19.938843 L 19.46342,4.4664681 h -0.118511 q -0.04134,0 -0.05926,-0.016536 -0.01791,-0.016536 -0.01791,-0.042719 0,-0.024805 0.01791,-0.041341 0.01792,-0.016536 0.05926,-0.016536 h 0.434082 q 0.04134,0 0.05926,0.016536 0.01791,0.016536 0.01791,0.042719 0,0.024805 -0.01791,0.041341 -0.01792,0.016536 -0.05926,0.016536 h -0.191547 l 0.424435,0.9604926 h 0.05099 l 0.416167,-0.9604926 h -0.192925 q -0.04134,0 -0.05926,-0.016536 -0.01791,-0.016536 -0.01791,-0.042719 0,-0.024805 0.01791,-0.041341 0.01791,-0.016536 0.05926,-0.016536 h 0.43546 q 0.04272,0 0.05926,0.016536 0.01791,0.016536 0.01791,0.042719 0,0.024805 -0.01791,0.041341 -0.01654,0.016536 -0.05926,0.016536 h -0.117133 z"
       style="font-style:normal;font-variant:normal;font-weight:normal;font-stretch:normal;font-size:2.82222223px;font-family:'Courier New';-inkscape-font-specification:'Courier New, Normal';font-variant-ligatures:normal;font-variant-caps:normal;font-variant-numeric:normal;font-feature-settings:normal;text-align:start;writing-mode:lr-tb;text-anchor:start;fill:#f0f0f0;fill-opacity:1;stroke-width:0.26458332"
       id="path5170"
       inkscape:connector-curvature="0" />
    <path
       d="M 22.058266,5.5427159 V 5.3759733 q -0.252181,0.2122179 -0.538813,0.2122179 -0.208083,0 -0.325217,-0.1047309 -0.117133,-0.106109 -0.117133,-0.2590712 0,-0.1681207 0.15434,-0.2935221 0.154341,-0.1254015 0.450619,-0.1254015 0.07993,0 0.173633,0.011024 0.09371,0.00965 0.202571,0.031695 v -0.187413 q 0,-0.095085 -0.08819,-0.1653646 -0.08819,-0.07028 -0.264583,-0.07028 -0.135048,0 -0.378961,0.078548 -0.0441,0.01378 -0.0565,0.01378 -0.02205,0 -0.03859,-0.016536 -0.01516,-0.016536 -0.01516,-0.041341 0,-0.023427 0.01378,-0.037207 0.01929,-0.020671 0.155719,-0.0565 0.214974,-0.057878 0.325217,-0.057878 0.219108,0 0.341753,0.108865 0.122646,0.107487 0.122646,0.2439128 v 0.7661892 h 0.15434 q 0.04272,0 0.06063,0.016536 0.01791,0.015158 0.01791,0.041341 0,0.024805 -0.01791,0.041341 -0.01791,0.016536 -0.06063,0.016536 z m 0,-0.5760199 q -0.0813,-0.023427 -0.172254,-0.034451 -0.09095,-0.011024 -0.191548,-0.011024 -0.252181,0 -0.394119,0.108865 -0.107487,0.081304 -0.107487,0.1943034 0,0.1047309 0.08131,0.1763889 0.08268,0.071658 0.239778,0.071658 0.150206,0 0.278364,-0.059256 0.129536,-0.060634 0.265961,-0.1915473 z"
       style="font-style:normal;font-variant:normal;font-weight:normal;font-stretch:normal;font-size:2.82222223px;font-family:'Courier New';-inkscape-font-specification:'Courier New, Normal';font-variant-ligatures:normal;font-variant-caps:normal;font-variant-numeric:normal;font-feature-settings:normal;text-align:start;writing-mode:lr-tb;text-anchor:start;fill:#f0f0f0;fill-opacity:1;stroke-width:0.26458332"
       id="path5172"
       inkscape:connector-curvature="0" />
  </g>
</svg>
