<?xml version="1.0" encoding="UTF-8" standalone="no"?>
<svg
   xmlns:dc="http://purl.org/dc/elements/1.1/"
   xmlns:cc="http://creativecommons.org/ns#"
   xmlns:rdf="http://www.w3.org/1999/02/22-rdf-syntax-ns#"
   xmlns:svg="http://www.w3.org/2000/svg"
   xmlns="http://www.w3.org/2000/svg"
   xmlns:sodipodi="http://sodipodi.sourceforge.net/DTD/sodipodi-0.dtd"
   xmlns:inkscape="http://www.inkscape.org/namespaces/inkscape"
   version="1.0"
   width="228.47505"
   height="120.38954"
   viewBox="0 0 2284.7504 1203.8955"
   preserveAspectRatio="xMidYMid meet"
   id="svg30"
   sodipodi:docname="limited-blur.svg"
   inkscape:version="0.92.4 (unknown)">
  <metadata
     id="metadata36">
    <rdf:RDF>
      <cc:Work
         rdf:about="">
        <dc:format>image/svg+xml</dc:format>
        <dc:type
           rdf:resource="http://purl.org/dc/dcmitype/StillImage" />
        <dc:title></dc:title>
      </cc:Work>
    </rdf:RDF>
  </metadata>
  <defs
     id="defs34">
    <filter
       inkscape:collect="always"
       style="color-interpolation-filters:sRGB"
       id="filter1112"
       x="-0.059015435"
       width="1.1180309"
       y="-0.047432322"
       height="1.0948646">
      <feGaussianBlur
         inkscape:collect="always"
         stdDeviation="15.332397"
         id="feGaussianBlur1114" />
    </filter>
    <filter
       inkscape:collect="always"
       style="color-interpolation-filters:sRGB"
       id="filter1116"
       x="-0.028287249"
       width="1.0565745"
       y="-0.06110034"
       height="1.1222007">
      <feGaussianBlur
         inkscape:collect="always"
         stdDeviation="15.332397"
         id="feGaussianBlur1118" />
    </filter>
    <filter
       inkscape:collect="always"
       style="color-interpolation-filters:sRGB"
       id="filter1120"
       x="-0.26734923"
       width="1.5346985"
       y="-0.1103791"
       height="1.2207582">
      <feGaussianBlur
         inkscape:collect="always"
         stdDeviation="15.332397"
         id="feGaussianBlur1122" />
    </filter>
  </defs>
  <sodipodi:namedview
     pagecolor="#ffffff"
     bordercolor="#666666"
     borderopacity="1"
     objecttolerance="10"
     gridtolerance="10"
     guidetolerance="10"
     inkscape:pageopacity="0"
     inkscape:pageshadow="2"
     inkscape:window-width="1830"
     inkscape:window-height="1051"
     id="namedview32"
     showgrid="false"
     fit-margin-top="10"
     fit-margin-left="10"
     fit-margin-right="10"
     fit-margin-bottom="10"
     inkscape:zoom="2.7981997"
     inkscape:cx="18.889097"
     inkscape:cy="48.877436"
     inkscape:window-x="82"
     inkscape:window-y="0"
     inkscape:window-maximized="1"
     inkscape:current-layer="svg30"
     inkscape:pagecheckerboard="true" />
  <g
     aria-label="!"
     transform="rotate(16.919198)"
     style="font-style:normal;font-variant:normal;font-weight:normal;font-stretch:normal;font-size:426.66665649px;line-height:1.25;font-family:'Domestic Manners';-inkscape-font-specification:'Domestic Manners, Normal';font-variant-ligatures:normal;font-variant-caps:normal;font-variant-numeric:normal;font-feature-settings:normal;text-align:start;letter-spacing:0px;word-spacing:0px;writing-mode:lr-tb;text-anchor:start;fill:none;fill-opacity:1;stroke:#0d0000;stroke-width:30.00000026;stroke-opacity:1;stroke-miterlimit:4;stroke-dasharray:none;filter:url(#filter1120)"
     id="text928">
    <path
       d="m 664.27917,227.84132 q 0,2.08334 -2.5,10.20834 -2.70833,9.58333 -3.125,11.25 -3.95833,19.58333 -6.25,48.75 -1.66666,23.75 -8.54166,70.41666 -21.25,-24.16666 -21.25,-66.45833 0,-13.75 2.91666,-43.33333 0.41667,-14.79167 2.91667,-43.75 2.70833,-19.375 2.70833,-25.625 0,-4.58333 -0.41666,-13.75 -0.20834,-9.375 -0.20834,-13.95833 0,-26.45834 8.125,-41.45834 26.04167,14.375 26.04167,77.91667 0,5.83333 -0.20833,16.04166 -0.20834,10 -0.20834,13.75 z m -9.375,216.66667 q 0,10.41666 -6.04166,17.70833 -6.04167,7.08333 -16.45834,7.08333 -10.625,0 -18.54166,-11.25 -5.625,-10.20833 -11.04167,-20.41666 0,-16.04167 0.41667,-18.54167 1.875,-12.08333 10,-12.08333 15.41666,0 28.33333,10.83333 13.33333,11.45833 13.33333,26.66667 z"
       style="fill:none;stroke:#0d0000;stroke-opacity:1;stroke-width:30.00000026;stroke-miterlimit:4;stroke-dasharray:none"
       id="path938" />
  </g>
  <g
     id="g932"
     style="font-style:normal;font-variant:normal;font-weight:normal;font-stretch:normal;font-size:867.06665039px;line-height:1.25;font-family:'Comic Sans MS';-inkscape-font-specification:'Comic Sans MS, Normal';font-variant-ligatures:normal;font-variant-caps:normal;font-variant-numeric:normal;font-feature-settings:normal;text-align:start;letter-spacing:0px;word-spacing:0px;writing-mode:lr-tb;text-anchor:start;fill:none;fill-opacity:1;stroke:#0d0000;stroke-width:30.0000004;stroke-opacity:1;stroke-miterlimit:4;stroke-dasharray:none;filter:url(#filter1112)"
     transform="matrix(1.0059972,0.27676635,-0.30601355,0.90984919,-9.7237578,-87.925016)"
     aria-label="Δ">
    <path
       sodipodi:nodetypes="sccccssccssssssccccsccccccccc"
       inkscape:connector-curvature="0"
       id="path930"
       style="font-style:normal;font-variant:normal;font-weight:normal;font-stretch:normal;font-size:867.06665039px;font-family:'Comic Sans MS';-inkscape-font-specification:'Comic Sans MS, Normal';font-variant-ligatures:normal;font-variant-caps:normal;font-variant-numeric:normal;font-feature-settings:normal;text-align:start;writing-mode:lr-tb;text-anchor:start;stroke-width:30.0000004;fill:none;stroke:#0d0000;stroke-opacity:1;stroke-miterlimit:4;stroke-dasharray:none"
       d="m 649.56129,10.71187 c 17.21714,0 33.16417,14.253537 47.84108,42.760611 l 27.94257,66.892839 107.95996,237.08854 c 41.49049,92.57743 75.07804,172.73593 100.76263,240.47551 18.91063,49.67569 28.36595,82.13424 28.36595,97.37565 0,33.30529 -21.87424,49.95794 -65.62272,49.95794 -19.19288,0 -43.46623,-1.55236 -72.82005,-4.65709 l -72.82005,-7.62071 c -28.22483,-2.25799 -60.26,-3.38698 -96.10553,-3.38698 -20.88637,0 -52.07481,0.28225 -93.5653,0.84675 -41.49049,0.56449 -72.67893,0.84674 -93.5653,0.84674 -11.85443,0 -29.77719,0.98787 -53.76829,2.96361 -23.9911,1.97574 -41.91386,2.96361 -53.76829,2.96361 -22.86211,0 -34.29317,-10.01981 -34.29317,-30.05944 0,-12.41893 17.78164,-56.16741 53.34492,-131.24544 l 67.31621,-143.09987 99.49251,-248.09622 c 9.31419,-27.94257 25.1201,-69.00969 47.41771,-123.201363 C 609.76428,27.646766 628.39267,10.71187 649.56129,10.71187 Z M 909.0776,681.40414 C 883.11076,608.86634 844.48729,496.55425 798.76307,397.76735 L 646.98083,82.883327 C 608.31282,186.75069 549.3971,341.88159 514.39832,424.86257 l -45.49199,106.09121 c -19.19289,43.46623 -69.9167,126.39507 -85.15811,153.77315 l 245.64834,-15.17952 c 49.39345,0 110.53438,-4.24103 144.40417,-0.85405 21.16862,3.10473 92.65738,8.47706 135.27687,12.71078 z" />
  </g>
  <g
     aria-label="limited"
     transform="rotate(16.9192)"
     style="font-style:normal;font-variant:normal;font-weight:normal;font-stretch:normal;font-size:426.66665649px;line-height:1.25;font-family:'Domestic Manners';-inkscape-font-specification:'Domestic Manners, Normal';font-variant-ligatures:normal;font-variant-caps:normal;font-variant-numeric:normal;font-feature-settings:normal;text-align:start;letter-spacing:0px;word-spacing:0px;writing-mode:lr-tb;text-anchor:start;fill:none;fill-opacity:1;stroke:#0d0000;stroke-width:30.00000026;stroke-opacity:1;stroke-miterlimit:4;stroke-dasharray:none;filter:url(#filter1116)"
     id="text936">
    <path
       d="m 1124.7586,183.92657 q 0,28.54167 -23.125,44.16667 -10.2083,92.49999 -17.9166,199.79166 5.8333,5.41666 5.8333,13.125 0,6.875 -4.1667,12.70833 -4.7916,6.45833 -11.4583,6.45833 -7.9167,0 -13.3333,-9.375 3.125,-103.95833 10.625,-182.49999 2.0833,-27.91667 9.7916,-78.54167 1.875,-8.125 12.2917,-16.875 10.4167,-8.75 18.5417,-8.75 12.9166,0 12.9166,19.79167 z"
       style="fill:none;stroke:#0d0000;stroke-opacity:1;stroke-width:30.00000026;stroke-miterlimit:4;stroke-dasharray:none"
       id="path941" />
    <path
       d="m 1245.3836,258.5099 q -5.625,7.70834 -12.9166,7.70834 -6.875,0 -12.7084,-7.70834 -3.75,0.83334 -16.25,11.25 -11.6666,10 -17.0833,10 -11.4583,0 -11.4583,-25.20833 0,-23.75 24.1666,-26.875 14.1667,4.58333 28.5417,9.375 15.625,6.875 17.7083,21.45833 z m -68.75,60.625 q -1.0416,13.75 -12.5,42.91667 -10.8333,27.5 -10.8333,42.70833 0,14.58333 15.2083,14.58333 11.4584,0 32.2917,-6.875 16.0417,-5.83333 32.0833,-11.45833 3.9584,5 3.9584,11.04167 0,7.29166 -6.4584,17.08333 -41.4583,24.79166 -72.5,24.79166 -32.0833,0 -32.0833,-34.16666 0,-22.70833 13.5417,-58.54167 16.6666,-43.75 19.375,-57.5 6.875,2.5 17.9166,15.41667 z"
       style="fill:none;stroke:#0d0000;stroke-opacity:1;stroke-width:30.00000026;stroke-miterlimit:4;stroke-dasharray:none"
       id="path943" />
    <path
       d="m 1407.0503,330.59323 q 0.2083,0 29.5833,-20 29.5834,-20.20833 47.0834,-20.20833 34.5833,0 34.5833,49.16667 0,5.83333 -7.2917,69.58333 -7.5,65.20833 -25.2083,65.20833 -7.0833,0 -12.2917,-7.08333 -4.5833,-6.25 -4.5833,-13.75 0,-7.70834 8.3333,-28.75 5.8334,-14.79167 10.8334,-43.75 4.5833,-27.70833 4.5833,-45 0,-16.04167 -5,-16.04167 -13.9583,0 -34.5833,15.625 -24.1667,18.33334 -55.625,65.41667 -16.0417,23.95833 -21.6667,23.95833 -8.3333,0 -14.7917,-10 -6.0416,-8.95833 -6.0416,-18.33333 0,-11.04167 5.625,-32.5 5.8333,-21.66667 5.8333,-32.70833 0,-6.45834 -1.6667,-11.45834 -23.5416,21.66667 -45,63.54167 -8.75,17.5 -31.875,72.08333 -2.5,0.41667 -3.75,0.41667 -6.6666,0 -12.7083,-4.375 -7.0833,-5 -6.4583,-11.45834 l 10.2083,-127.91666 q 0.2083,-2.29167 12.5,-2.5 2.0833,0 2.7083,-0.20833 l 15.4167,20.625 q 9.7917,-16.45834 27.2917,-30.83334 20.2083,-16.66666 36.25,-16.66666 13.75,0 21.0416,12.5 2.9167,5.20833 8.125,22.91666 3.75,12.5 8.5417,12.5 z"
       style="fill:none;stroke:#0d0000;stroke-opacity:1;stroke-width:30.00000026;stroke-miterlimit:4;stroke-dasharray:none"
       id="path945" />
    <path
       d="m 1668.717,258.5099 q -5.625,7.70834 -12.9167,7.70834 -6.875,0 -12.7083,-7.70834 -3.75,0.83334 -16.25,11.25 -11.6667,10 -17.0834,10 -11.4583,0 -11.4583,-25.20833 0,-23.75 24.1667,-26.875 14.1666,4.58333 28.5416,9.375 15.625,6.875 17.7084,21.45833 z m -68.75,60.625 q -1.0417,13.75 -12.5,42.91667 -10.8334,27.5 -10.8334,42.70833 0,14.58333 15.2084,14.58333 11.4583,0 32.2916,-6.875 16.0417,-5.83333 32.0834,-11.45833 3.9583,5 3.9583,11.04167 0,7.29166 -6.4583,17.08333 -41.4584,24.79166 -72.5,24.79166 -32.0834,0 -32.0834,-34.16666 0,-22.70833 13.5417,-58.54167 16.6667,-43.75 19.375,-57.5 6.875,2.5 17.9167,15.41667 z"
       style="fill:none;stroke:#0d0000;stroke-opacity:1;stroke-width:30.00000026;stroke-miterlimit:4;stroke-dasharray:none"
       id="path947" />
    <path
       d="m 1773.3003,207.67657 0.2083,4.16667 q 0.4167,14.58333 -7.9166,35.625 -11.0417,27.29166 -12.7084,34.375 5.4167,0.41666 12.2917,0.41666 6.875,0 20.4167,-0.625 13.75,-0.625 20.625,-0.625 17.0833,0 28.5416,3.54167 -2.2916,13.75 -28.125,17.5 -33.5416,4.79166 -45.4166,13.33333 -23.75,17.08333 -23.75,64.58333 0,31.45834 4.1666,47.5 1.25,5 5.2084,5 10.4166,0 35.625,-24.79166 19.1666,-18.54167 31.875,-35.20834 7.0833,2.91667 7.0833,11.875 0,3.125 -1.0417,9.375 -1.0416,6.25 -1.0416,9.375 -42.2917,54.58333 -73.75,54.58333 -25.2084,0 -33.3334,-39.99999 -4.1666,-19.79167 -4.1666,-59.375 0,-18.33334 1.25,-32.91667 -5.625,-3.33333 -13.3334,-3.33333 -7.7083,0 -22.7083,4.58333 -15,4.375 -22.5,4.375 -16.25,0 -18.3333,-20.83333 14.5833,-7.5 41.6666,-12.91667 32.2917,-6.45833 42.9167,-10.20833 7.9167,-12.29167 15.2083,-48.95833 6.875,-33.33334 20.625,-48.33334 8.3334,0 13.125,5.41667 2.0834,2.29167 7.2917,12.5 z"
       style="fill:none;stroke:#0d0000;stroke-opacity:1;stroke-width:30.00000026;stroke-miterlimit:4;stroke-dasharray:none"
       id="path949" />
    <path
       d="m 2051.2169,307.05157 q 0,10.625 -9.7916,23.125 -58.5417,34.58333 -123.3334,34.58333 -11.875,0 -24.375,-1.25 -10.625,7.5 -10.625,20.41667 0,13.33333 10.8334,21.45833 9.5833,7.5 23.3333,7.5 19.375,0 61.0417,-16.875 41.6666,-16.875 59.375,-16.875 10.2083,0 16.6666,4.79167 -70.8333,62.29166 -128.9583,62.29166 -32.7083,0 -51.25,-15.20833 -20,-16.45833 -20,-48.33333 0,-4.79167 0.4167,-13.95834 0.4166,-9.375 0.4166,-14.16666 0,-14.58334 -4.1666,-21.875 18.3333,-3.125 42.7083,-25.625 26.0417,-23.95833 39.1667,-28.125 21.6666,-6.875 48.5416,-6.875 21.875,0 42.2917,7.29167 27.7083,9.99999 27.7083,27.70833 z m -30.2083,0 q -15.4167,-7.70834 -34.1667,-7.70834 -17.2916,0 -35.625,6.875 -20.625,7.70834 -29.5833,20 -4.7917,6.66667 -4.7917,10.41667 0,7.08333 12.7084,7.08333 19.375,0 48.3333,-11.66666 28.9583,-11.66667 43.125,-25 z"
       style="fill:none;stroke:#0d0000;stroke-opacity:1;stroke-width:30.00000026;stroke-miterlimit:4;stroke-dasharray:none"
       id="path951" />
    <path
       d="m 2323.0919,131.21824 q 0.4167,8.54167 0.4167,17.08333 0,47.5 -16.875,110.625 -16.0417,53.95833 -32.2917,107.91666 2.2917,1.66667 4.375,1.66667 2.2917,0 10.8333,-8.54167 8.75,-8.54166 15.625,-8.54166 -2.9166,11.66666 -22.0833,38.33333 -17.0833,23.54167 -16.4583,38.33333 l 0.2083,2.70833 h 7.5 q 0.2083,11.45834 -13.5417,11.45834 -3.9583,0 -12.5,-1.66667 -8.3333,-1.66667 -12.7083,-1.66667 -14.375,0 -43.3333,4.16667 -28.75,3.95833 -43.3334,3.95833 -18.3333,0 -35.4166,-5.83333 -21.4584,-7.29167 -28.5417,-20.625 -4.5833,-8.54166 -4.5833,-25.20833 0,-49.58333 54.7916,-81.04167 46.4584,-26.45833 100,-26.45833 15,0 28.9584,2.08333 10.2083,-25.62499 22.9166,-79.37499 12.9167,-53.75 23.125,-79.375 z m -71.6667,192.08333 q -11.6666,-3.33334 -25.2083,-3.33334 -40,0 -77.7083,23.54167 -37.5,23.54167 -37.5,46.875 0,27.29167 43.125,27.29167 47.5,0 87.0833,-25.20834 0,-13.125 4.375,-34.79166 5,-25.41667 5.8333,-34.375 z"
       style="fill:none;stroke:#0d0000;stroke-opacity:1;stroke-width:30.00000026;stroke-miterlimit:4;stroke-dasharray:none"
       id="path953" />
  </g>
  <text
     xml:space="preserve"
     style="font-style:normal;font-variant:normal;font-weight:normal;font-stretch:normal;font-size:400px;line-height:1.25;font-family:Judson;-inkscape-font-specification:Judson;letter-spacing:0px;word-spacing:0px;fill:#000000;fill-opacity:1;stroke:none;stroke-width:10"
     x="635.20563"
     y="445.83975"
     id="text868"><tspan
       sodipodi:role="line"
       id="tspan866"
       x="635.20563"
       y="808.18231"
       style="stroke-width:10" /></text>
  <text
     xml:space="preserve"
     style="font-style:normal;font-variant:normal;font-weight:normal;font-stretch:normal;font-size:426.66665649px;line-height:1.25;font-family:'Domestic Manners';-inkscape-font-specification:'Domestic Manners, Normal';font-variant-ligatures:normal;font-variant-caps:normal;font-variant-numeric:normal;font-feature-settings:normal;text-align:start;letter-spacing:0px;word-spacing:0px;writing-mode:lr-tb;text-anchor:start;fill:#fffe00;fill-opacity:1;stroke:none;stroke-width:10"
     x="573.02917"
     y="471.79965"
     id="text59"
     transform="rotate(16.919198)"><tspan
       sodipodi:role="line"
       id="tspan869"
       x="573.02917"
       y="471.79965">!</tspan></text>
  <g
     aria-label="Δ"
     transform="matrix(1.0059972,0.27676635,-0.30601355,0.90984919,-9.7237578,-87.925016)"
     style="font-style:normal;font-variant:normal;font-weight:normal;font-stretch:normal;font-size:867.06665039px;line-height:1.25;font-family:'Comic Sans MS';-inkscape-font-specification:'Comic Sans MS, Normal';font-variant-ligatures:normal;font-variant-caps:normal;font-variant-numeric:normal;font-feature-settings:normal;text-align:start;letter-spacing:0px;word-spacing:0px;writing-mode:lr-tb;text-anchor:start;fill:#ffff00;fill-opacity:1;stroke:none;stroke-width:10.00000095"
     id="text59-3">
    <path
       d="m 649.56129,10.71187 c 17.21714,0 33.16417,14.253537 47.84108,42.760611 l 27.94257,66.892839 107.95996,237.08854 c 41.49049,92.57743 75.07804,172.73593 100.76263,240.47551 18.91063,49.67569 28.36595,82.13424 28.36595,97.37565 0,33.30529 -21.87424,49.95794 -65.62272,49.95794 -19.19288,0 -43.46623,-1.55236 -72.82005,-4.65709 l -72.82005,-7.62071 c -28.22483,-2.25799 -60.26,-3.38698 -96.10553,-3.38698 -20.88637,0 -52.07481,0.28225 -93.5653,0.84675 -41.49049,0.56449 -72.67893,0.84674 -93.5653,0.84674 -11.85443,0 -29.77719,0.98787 -53.76829,2.96361 -23.9911,1.97574 -41.91386,2.96361 -53.76829,2.96361 -22.86211,0 -34.29317,-10.01981 -34.29317,-30.05944 0,-12.41893 17.78164,-56.16741 53.34492,-131.24544 l 67.31621,-143.09987 99.49251,-248.09622 c 9.31419,-27.94257 25.1201,-69.00969 47.41771,-123.201363 C 609.76428,27.646766 628.39267,10.71187 649.56129,10.71187 Z M 909.0776,681.40414 C 883.11076,608.86634 844.48729,496.55425 798.76307,397.76735 L 646.98083,82.883327 C 608.31282,186.75069 549.3971,341.88159 514.39832,424.86257 l -45.49199,106.09121 c -19.19289,43.46623 -69.9167,126.39507 -85.15811,153.77315 l 245.64834,-15.17952 c 49.39345,0 110.53438,-4.24103 144.40417,-0.85405 21.16862,3.10473 92.65738,8.47706 135.27687,12.71078 z"
       style="font-style:normal;font-variant:normal;font-weight:normal;font-stretch:normal;font-size:867.06665039px;font-family:'Comic Sans MS';-inkscape-font-specification:'Comic Sans MS, Normal';font-variant-ligatures:normal;font-variant-caps:normal;font-variant-numeric:normal;font-feature-settings:normal;text-align:start;writing-mode:lr-tb;text-anchor:start;stroke-width:10.00000095"
       id="path866"
       inkscape:connector-curvature="0"
       sodipodi:nodetypes="sccccssccssssssccccsccccccccc" />
  </g>
  <text
     xml:space="preserve"
     style="font-style:normal;font-variant:normal;font-weight:normal;font-stretch:normal;font-size:426.66665649px;line-height:1.25;font-family:'Domestic Manners';-inkscape-font-specification:'Domestic Manners, Normal';font-variant-ligatures:normal;font-variant-caps:normal;font-variant-numeric:normal;font-feature-settings:normal;text-align:start;letter-spacing:0px;word-spacing:0px;writing-mode:lr-tb;text-anchor:start;fill:#fffe00;fill-opacity:1;stroke:none;stroke-width:10"
     x="1006.842"
     y="447.46823"
     id="text59-5"
     transform="rotate(16.9192)"><tspan
       sodipodi:role="line"
       id="tspan889"
       x="1006.842"
       y="447.46823">limited</tspan></text>
</svg>
