<?xml version="1.0" encoding="UTF-8" standalone="no"?>
<svg
   xmlns:dc="http://purl.org/dc/elements/1.1/"
   xmlns:cc="http://creativecommons.org/ns#"
   xmlns:rdf="http://www.w3.org/1999/02/22-rdf-syntax-ns#"
   xmlns:svg="http://www.w3.org/2000/svg"
   xmlns="http://www.w3.org/2000/svg"
   xmlns:sodipodi="http://sodipodi.sourceforge.net/DTD/sodipodi-0.dtd"
   xmlns:inkscape="http://www.inkscape.org/namespaces/inkscape"
   version="1.1"
   viewBox="0 0 839.88745 411.66177"
   stroke-miterlimit="10"
   id="svg135"
   sodipodi:docname="quarkus-arch.svg"
   width="839.88745"
   height="411.66177"
   style="fill:none;stroke:none;stroke-linecap:square;stroke-miterlimit:10"
   inkscape:version="0.92.4 (unknown)">
  <metadata
     id="metadata141">
    <rdf:RDF>
      <cc:Work
         rdf:about="">
        <dc:format>image/svg+xml</dc:format>
        <dc:type
           rdf:resource="http://purl.org/dc/dcmitype/StillImage" />
        <dc:title></dc:title>
      </cc:Work>
    </rdf:RDF>
  </metadata>
  <defs
     id="defs139" />
  <sodipodi:namedview
     pagecolor="#ffffff"
     bordercolor="#666666"
     borderopacity="1"
     objecttolerance="10"
     gridtolerance="10"
     guidetolerance="10"
     inkscape:pageopacity="0"
     inkscape:pageshadow="2"
     inkscape:window-width="1830"
     inkscape:window-height="1051"
     id="namedview137"
     showgrid="false"
     inkscape:pagecheckerboard="true"
     fit-margin-top="0"
     fit-margin-left="0"
     fit-margin-right="0"
     fit-margin-bottom="0"
     inkscape:zoom="1.35"
     inkscape:cx="461.41612"
     inkscape:cy="291.23526"
     inkscape:window-x="82"
     inkscape:window-y="0"
     inkscape:window-maximized="1"
     inkscape:current-layer="svg135" />
  <clipPath
     id="g51446ab916_0_2751.0">
    <path
       d="M 0,0 H 960 V 540 H 0 Z"
       id="path2"
       inkscape:connector-curvature="0"
       style="clip-rule:nonzero" />
  </clipPath>
  <path
     style="fill:#000000;fill-opacity:0;fill-rule:evenodd"
     inkscape:connector-curvature="0"
     id="path11"
     d="M 0.500074,0.5 H 839.33473 V 223.20866 H 0.500074 Z" />
  <path
     style="fill-rule:evenodd;stroke:#ff004a;stroke-width:1;stroke-linecap:butt;stroke-linejoin:round;fill:#ffffff;fill-opacity:1"
     inkscape:connector-curvature="0"
     id="path13"
     d="M 0.500074,0.5 H 839.33473 V 223.20866 H 0.500074 Z" />
  <path
     style="fill:#ff004a;fill-rule:nonzero"
     inkscape:connector-curvature="0"
     id="path15"
     d="m 349.70284,20.748123 q 0,2.671875 -1.15625,4.4375 -1.14063,1.75 -3.17188,2.234375 l 3.03125,3.171875 h -1.5 l -2.57812,-3.015625 -0.29688,0.03125 h -0.28125 q -2.78125,0 -4.375,-1.84375 -1.57812,-1.84375 -1.57812,-5.046875 0,-3.171875 1.59375,-5 1.60937,-1.828125 4.375,-1.828125 2.78125,0 4.35937,1.84375 1.57813,1.828125 1.57813,5.015625 z m -10.89063,0 q 0,2.859375 1.26563,4.421875 1.28125,1.5625 3.67187,1.5625 2.40625,0 3.67188,-1.546875 1.26562,-1.5625 1.26562,-4.4375 0,-2.890625 -1.26562,-4.421875 -1.26563,-1.53125 -3.65625,-1.53125 -2.375,0 -3.67188,1.546875 -1.28125,1.546875 -1.28125,4.40625 z m 14.50635,-3.234375 v 6.421875 q 0,1.484375 0.625,2.171875 0.64063,0.671875 1.95313,0.671875 1.76562,0 2.59375,-0.890625 0.84375,-0.890625 0.84375,-2.90625 v -5.46875 h 0.89062 v 9.90625 h -0.76562 l -0.15625,-1.359375 h -0.0625 q -0.96875,1.546875 -3.4375,1.546875 -3.375,0 -3.375,-3.625 v -6.46875 z m 16.23865,9.90625 -0.23438,-1.5625 h -0.0625 q -0.75,0.953125 -1.54687,1.359375 -0.78125,0.390625 -1.85938,0.390625 -1.45312,0 -2.26562,-0.75 -0.8125,-0.75 -0.8125,-2.0625 0,-1.453125 1.20312,-2.25 1.21875,-0.8125 3.5,-0.859375 l 1.89063,-0.04687 v -0.65625 q 0,-1.421875 -0.57813,-2.140625 -0.57812,-0.71875 -1.84375,-0.71875 -1.375,0 -2.85937,0.765625 l -0.32813,-0.78125 q 1.625,-0.765625 3.21875,-0.765625 1.625,0 2.42188,0.859375 0.8125,0.84375 0.8125,2.625 v 6.59375 z m -3.64063,-0.640625 q 1.57813,0 2.48438,-0.90625 0.92187,-0.90625 0.92187,-2.515625 v -0.96875 l -1.71875,0.0625 q -2.09375,0.109375 -2.98437,0.65625 -0.89063,0.546875 -0.89063,1.71875 0,0.921875 0.5625,1.4375 0.57813,0.515625 1.625,0.515625 z m 11.41507,-9.453125 q 0.625,0 1.34375,0.125 l -0.17187,0.875 q -0.625,-0.15625 -1.28125,-0.15625 -1.26563,0 -2.07813,1.078125 -0.8125,1.0625 -0.8125,2.703125 v 5.46875 h -0.90625 v -9.90625 h 0.76563 l 0.0937,1.796875 h 0.0625 q 0.60937,-1.09375 1.29687,-1.53125 0.70313,-0.453125 1.6875,-0.453125 z m 4.24466,5.75 5.04688,-5.5625 h 1.09375 l -3.89063,4.234375 4.23438,5.671875 h -1.09375 l -3.75,-5 -1.625,1.46875 v 3.53125 h -0.90625 V 13.248123 h 0.90625 v 7.109375 l -0.0625,2.71875 z m 8.91813,-5.5625 v 6.421875 q 0,1.484375 0.625,2.171875 0.64062,0.671875 1.95312,0.671875 1.76563,0 2.59375,-0.890625 0.84375,-0.890625 0.84375,-2.90625 v -5.46875 h 0.89063 v 9.90625 h -0.76563 l -0.15625,-1.359375 h -0.0625 q -0.96875,1.546875 -3.4375,1.546875 -3.375,0 -3.375,-3.625 v -6.46875 z m 16.36364,7.328125 q 0,1.328125 -1.01562,2.046875 -1,0.71875 -2.85938,0.71875 -1.98437,0 -3.15625,-0.609375 v -0.984375 q 1.5,0.75 3.15625,0.75 1.46875,0 2.21875,-0.484375 0.76563,-0.484375 0.76563,-1.296875 0,-0.75 -0.60938,-1.25 -0.60937,-0.515625 -1.98437,-1.015625 -1.48438,-0.53125 -2.09375,-0.921875 -0.59375,-0.390625 -0.90625,-0.875 -0.29688,-0.484375 -0.29688,-1.1875 0,-1.109375 0.92188,-1.75 0.9375,-0.65625 2.625,-0.65625 1.59375,0 3.03125,0.609375 l -0.32813,0.8125 q -1.46875,-0.609375 -2.70312,-0.609375 -1.21875,0 -1.9375,0.40625 -0.70313,0.40625 -0.70313,1.109375 0,0.78125 0.54688,1.25 0.5625,0.453125 2.15625,1.03125 1.34375,0.484375 1.95312,0.875 0.60938,0.375 0.90625,0.875 0.3125,0.484375 0.3125,1.15625 z m 14.91172,2.578125 h -7.28125 v -13.3125 h 7.28125 v 0.84375 h -6.35938 v 5.046875 h 6 v 0.859375 h -6 v 5.703125 h 6.35938 z m 5.2156,-5.09375 -3.45312,-4.8125 h 1.03125 l 2.95312,4.171875 2.92188,-4.171875 h 1 l -3.40625,4.8125 3.65625,5.09375 h -1.04688 l -3.125,-4.421875 -3.125,4.421875 h -1 z m 9.46356,4.46875 q 0.85938,0 1.5,-0.140625 v 0.734375 q -0.65625,0.21875 -1.51562,0.21875 -1.3125,0 -1.9375,-0.703125 -0.625,-0.703125 -0.625,-2.203125 v -6.40625 h -1.45313 v -0.515625 l 1.45313,-0.421875 0.46875,-2.234375 h 0.45312 v 2.390625 h 2.90625 v 0.78125 h -2.90625 v 6.28125 q 0,1.125 0.40625,1.671875 0.40625,0.546875 1.25,0.546875 z m 7.63974,0.8125 q -2.15625,0 -3.375,-1.328125 -1.20312,-1.34375 -1.20312,-3.734375 0,-2.359375 1.17187,-3.78125 1.17188,-1.4375 3.14063,-1.4375 1.75,0 2.76562,1.21875 1.01563,1.21875 1.01563,3.3125 v 0.734375 h -7.14063 q 0.0156,2.046875 0.95313,3.125 0.9375,1.0625 2.67187,1.0625 0.84375,0 1.48438,-0.109375 0.64062,-0.125 1.625,-0.515625 v 0.8125 q -0.82813,0.375 -1.54688,0.5 -0.70312,0.140625 -1.5625,0.140625 z m -0.26562,-9.484375 q -1.42188,0 -2.29688,0.953125 -0.85937,0.9375 -1,2.71875 h 6.10938 q 0,-1.71875 -0.75,-2.6875 -0.73438,-0.984375 -2.0625,-0.984375 z m 13.41095,9.296875 v -6.421875 q 0,-1.5 -0.625,-2.171875 -0.625,-0.6875 -1.95313,-0.6875 -1.78125,0 -2.60937,0.90625 -0.8125,0.890625 -0.8125,2.90625 v 5.46875 h -0.90625 v -9.90625 h 0.76562 l 0.17188,1.359375 h 0.0625 q 0.95312,-1.546875 3.42187,-1.546875 3.375,0 3.375,3.609375 v 6.484375 z m 10.23865,-2.578125 q 0,1.328125 -1.01563,2.046875 -1,0.71875 -2.85937,0.71875 -1.98438,0 -3.15625,-0.609375 v -0.984375 q 1.5,0.75 3.15625,0.75 1.46875,0 2.21875,-0.484375 0.76562,-0.484375 0.76562,-1.296875 0,-0.75 -0.60937,-1.25 -0.60938,-0.515625 -1.98438,-1.015625 -1.48437,-0.53125 -2.09375,-0.921875 -0.59375,-0.390625 -0.90625,-0.875 -0.29687,-0.484375 -0.29687,-1.1875 0,-1.109375 0.92187,-1.75 0.9375,-0.65625 2.625,-0.65625 1.59375,0 3.03125,0.609375 l -0.32812,0.8125 q -1.46875,-0.609375 -2.70313,-0.609375 -1.21875,0 -1.9375,0.40625 -0.70312,0.40625 -0.70312,1.109375 0,0.78125 0.54687,1.25 0.5625,0.453125 2.15625,1.03125 1.34375,0.484375 1.95313,0.875 0.60937,0.375 0.90625,0.875 0.3125,0.484375 0.3125,1.15625 z m 3.45605,2.578125 h -0.90625 v -9.90625 h 0.90625 z m -1.03125,-12.65625 q 0,-0.875 0.57813,-0.875 0.28125,0 0.4375,0.234375 0.15625,0.21875 0.15625,0.640625 0,0.40625 -0.15625,0.65625 -0.15625,0.234375 -0.4375,0.234375 -0.57813,0 -0.57813,-0.890625 z m 12.53021,7.6875 q 0,2.421875 -1.17187,3.796875 -1.17188,1.359375 -3.25,1.359375 -1.29688,0 -2.29688,-0.625 -0.98437,-0.640625 -1.51562,-1.8125 -0.53125,-1.171875 -0.53125,-2.71875 0,-2.421875 1.17187,-3.765625 1.1875,-1.359375 3.23438,-1.359375 2.04687,0 3.20312,1.375 1.15625,1.375 1.15625,3.75 z m -7.8125,0 q 0,2.046875 0.89063,3.1875 0.90625,1.140625 2.54687,1.140625 1.64063,0 2.53125,-1.140625 0.90625,-1.140625 0.90625,-3.1875 0,-2.046875 -0.90625,-3.171875 -0.90625,-1.140625 -2.54687,-1.140625 -1.64063,0 -2.53125,1.140625 -0.89063,1.125 -0.89063,3.171875 z m 17.46265,4.96875 v -6.421875 q 0,-1.5 -0.625,-2.171875 -0.625,-0.6875 -1.95313,-0.6875 -1.78125,0 -2.60937,0.90625 -0.8125,0.890625 -0.8125,2.90625 v 5.46875 h -0.90625 v -9.90625 h 0.76562 l 0.17188,1.359375 h 0.0625 q 0.95312,-1.546875 3.42187,-1.546875 3.375,0 3.375,3.609375 v 6.484375 z m 10.23865,-2.578125 q 0,1.328125 -1.01563,2.046875 -1,0.71875 -2.85937,0.71875 -1.98438,0 -3.15625,-0.609375 v -0.984375 q 1.5,0.75 3.15625,0.75 1.46875,0 2.21875,-0.484375 0.76562,-0.484375 0.76562,-1.296875 0,-0.75 -0.60937,-1.25 -0.60938,-0.515625 -1.98438,-1.015625 -1.48437,-0.53125 -2.09375,-0.921875 -0.59375,-0.390625 -0.90625,-0.875 -0.29687,-0.484375 -0.29687,-1.1875 0,-1.109375 0.92187,-1.75 0.9375,-0.65625 2.625,-0.65625 1.59375,0 3.03125,0.609375 l -0.32812,0.8125 q -1.46875,-0.609375 -2.70313,-0.609375 -1.21875,0 -1.9375,0.40625 -0.70312,0.40625 -0.70312,1.109375 0,0.78125 0.54687,1.25 0.5625,0.453125 2.15625,1.03125 1.34375,0.484375 1.95313,0.875 0.60937,0.375 0.90625,0.875 0.3125,0.484375 0.3125,1.15625 z" />
  <path
     style="fill:#4695eb;fill-rule:evenodd"
     inkscape:connector-curvature="0"
     id="path17"
     d="M 45.211194,211.88482 V 47.56986 h 40.81889 v 164.31496 z" />
  <path
     style="fill-rule:evenodd;stroke:#4695eb;stroke-width:1;stroke-linecap:butt;stroke-linejoin:round"
     inkscape:connector-curvature="0"
     id="path19"
     d="M 45.211194,211.88482 V 47.56986 h 40.81889 v 164.31496 z" />
  <path
     style="fill:#ffffff;fill-rule:nonzero"
     inkscape:connector-curvature="0"
     id="path21"
     d="m 66.496264,161.075 h 4.98437 v 0.79687 h -11.42187 v -2.71875 q 0,-2.125 0.78125,-3.14062 0.78125,-1.01563 2.35938,-1.01563 1.15625,0 1.95312,0.60938 0.78125,0.60937 1.125,1.84375 l 5.20312,-3.10938 v 0.95313 l -4.98437,2.95312 z m -0.6875,0 v -2.17188 q 0,-1.45312 -0.64062,-2.25 -0.64063,-0.79687 -1.90625,-0.79687 -1.29688,0 -1.89063,0.78125 -0.59375,0.78125 -0.59375,2.54687 v 1.89063 z m 5.67187,-14.94531 v 6.23437 h -11.42187 v -6.23437 h 0.73438 v 5.4375 h 4.3125 v -5.14063 h 0.73437 v 5.14063 h 4.90624 v -5.4375 z m -2.95313,-8.89063 q 1.4375,0 2.28125,1.04688 0.82813,1.04687 0.82813,2.79687 0,2.09375 -0.46875,3.20313 h -0.79688 q 0.53125,-1.23438 0.53125,-3.14063 0,-1.40625 -0.64062,-2.23437 -0.65625,-0.82813 -1.70313,-0.82813 -0.64061,0 -1.06249,0.28125 -0.4375,0.26563 -0.78125,0.89063 -0.35937,0.60937 -0.76562,1.8125 -0.59375,1.75 -1.29688,2.42187 -0.70312,0.65625 -1.85937,0.65625 -1.28125,0 -2.09375,-1 -0.8125,-1 -0.8125,-2.57812 0,-1.60938 0.60937,-3.03125 l 0.6875,0.29687 q -0.59375,1.42188 -0.59375,2.71875 0,1.26563 0.59375,2.01563 0.57813,0.75 1.59375,0.75 0.625,0 1.03125,-0.23438 0.40625,-0.23437 0.73438,-0.75 0.32812,-0.53125 0.78125,-1.79687 0.45312,-1.34375 0.89062,-2.01563 0.4375,-0.67187 0.98438,-0.96875 0.54687,-0.3125 1.32811,-0.3125 z m 2.95313,-5.39062 v 0.79687 h -10.67187 v 3.71875 h -0.75 v -8.23437 h 0.75 v 3.71875 z m 0,-11.64844 v 6.23437 H 60.058764 V 120.2 h 0.73438 v 5.4375 h 4.3125 v -5.14063 h 0.73437 v 5.14063 h 4.90624 V 120.2 Z m 0,-7.54688 -1.34375,0.1875 v 0.0625 q 0.8125,0.64063 1.15625,1.32813 0.34375,0.67187 0.34375,1.59375 0,1.25 -0.64063,1.95312 -0.64062,0.6875 -1.78125,0.6875 -1.23437,0 -1.92186,-1.03125 -0.6875,-1.04687 -0.73438,-3 l -0.0469,-1.625 h -0.5625 q -1.20313,0 -1.8125,0.5 -0.625,0.48438 -0.625,1.57813 0,1.1875 0.65625,2.45312 l -0.67188,0.28125 q -0.65625,-1.39062 -0.65625,-2.76562 0,-1.39063 0.73438,-2.07813 0.71875,-0.70312 2.25,-0.70312 h 5.65624 z m -0.54688,3.125 q 0,-1.35937 -0.78125,-2.14062 -0.78125,-0.79688 -2.15625,-0.79688 h -0.84374 l 0.0625,1.48438 q 0.0937,1.79687 0.5625,2.5625 0.46874,0.75 1.46874,0.75 0.79688,0 1.25,-0.48438 0.4375,-0.48437 0.4375,-1.375 z m -1.67187,-11.71093 q 1.14062,0 1.76562,0.875 0.60938,0.85937 0.60938,2.45312 0,1.70313 -0.53125,2.70313 h -0.82813 q 0.64063,-1.28125 0.64063,-2.70313 0,-1.26562 -0.42188,-1.90625 -0.42187,-0.65625 -1.10937,-0.65625 -0.64063,0 -1.07813,0.51563 -0.43749,0.51562 -0.85936,1.70312 -0.46875,1.28125 -0.79688,1.79688 -0.32812,0.51562 -0.75,0.78125 -0.42187,0.25 -1.01562,0.25 -0.95313,0 -1.5,-0.79688 -0.5625,-0.79687 -0.5625,-2.23437 0,-1.375 0.51562,-2.60938 l 0.70313,0.28125 q -0.51563,1.25 -0.51563,2.32813 0,1.03125 0.34375,1.64062 0.34375,0.60938 0.95313,0.60938 0.65625,0 1.0625,-0.46875 0.39062,-0.46875 0.89062,-1.84375 0.40625,-1.15625 0.75,-1.67188 0.32813,-0.53125 0.74999,-0.78125 0.42188,-0.26562 0.98438,-0.26562 z m -6.28124,-0.76563 v -0.79687 l 4.76562,-1.79688 q 2.20312,-0.82812 2.96874,-1.04687 v -0.0469 q -1.01562,-0.32812 -3.01561,-1.0625 l -4.71875,-1.79687 v -0.79688 l 9.87499,3.79688 q 1.20312,0.46875 1.625,0.78125 0.42187,0.3125 0.625,0.73437 0.21875,0.40625 0.21875,1 0,0.45313 -0.15625,1 h -0.67188 q 0.125,-0.45312 0.125,-0.98437 0,-0.39063 -0.1875,-0.6875 -0.1875,-0.3125 -0.59375,-0.5625 -0.39062,-0.25 -1.25,-0.5625 -0.84375,-0.32813 -1.10937,-0.42188 z" />
  <path
     style="fill:#4695eb;fill-rule:evenodd"
     inkscape:connector-curvature="0"
     id="path23"
     d="M 109.63155,211.88482 V 47.56986 h 40.81891 v 164.31496 z" />
  <path
     style="fill-rule:evenodd;stroke:#4695eb;stroke-width:1;stroke-linecap:butt;stroke-linejoin:round"
     inkscape:connector-curvature="0"
     id="path25"
     d="M 109.63155,211.88482 V 47.56986 h 40.81891 v 164.31496 z" />
  <path
     style="fill:#ffffff;fill-rule:nonzero"
     inkscape:connector-curvature="0"
     id="path27"
     d="m 135.90101,138.99688 v 0.79687 l -10.14063,6.76563 v 0.0625 q 1.8125,-0.0937 2.73438,-0.0937 h 7.40625 v 0.76562 h -11.42188 v -0.79687 l 10.125,-6.75 v -0.0469 q -1.40625,0.0625 -2.67187,0.0625 h -7.45313 v -0.76562 z m 0.15625,-6.47656 q 0,1.85937 -1.14063,2.89062 -1.14062,1.03125 -3.20312,1.03125 -2.03125,0 -3.25,-1 -1.21875,-1 -1.21875,-2.6875 0,-1.5 1.04687,-2.35937 1.04688,-0.875 2.84375,-0.875 h 0.625 v 6.10937 q 1.75,-0.0156 2.67188,-0.8125 0.92187,-0.79687 0.92187,-2.29687 0,-0.71875 -0.0937,-1.26563 -0.10937,-0.5625 -0.45312,-1.40625 h 0.70312 q 0.3125,0.71875 0.42188,1.32813 0.125,0.60937 0.125,1.34375 z m -8.125,0.23437 q 0,1.21875 0.8125,1.96875 0.79687,0.73438 2.32812,0.85938 v -5.25 q -1.48437,0 -2.3125,0.64062 -0.82812,0.64063 -0.82812,1.78125 z m 7.4375,-7.82812 q 0,-0.73438 -0.125,-1.28125 h 0.625 q 0.1875,0.5625 0.1875,1.29687 0,1.125 -0.59375,1.67188 -0.60938,0.53125 -1.90625,0.53125 h -5.48438 v 1.25 h -0.45312 l -0.34375,-1.25 -1.92188,-0.39063 v -0.40625 h 2.04688 v -2.48437 h 0.67187 v 2.48437 h 5.375 q 0.98438,0 1.45313,-0.34375 0.46875,-0.34375 0.46875,-1.07812 z m 0,-5.35938 q 0,-0.73437 -0.125,-1.28125 h 0.625 q 0.1875,0.5625 0.1875,1.29688 0,1.125 -0.59375,1.67187 -0.60938,0.53125 -1.90625,0.53125 h -5.48438 v 1.25 h -0.45312 l -0.34375,-1.25 -1.92188,-0.39062 v -0.40625 h 2.04688 v -2.48438 h 0.67187 v 2.48438 h 5.375 q 0.98438,0 1.45313,-0.34375 0.46875,-0.34375 0.46875,-1.07813 z m -7.96875,-1.6875 v -0.79687 l 4.76562,-1.79688 q 2.20313,-0.82812 2.96875,-1.04687 v -0.0469 q -1.01562,-0.32812 -3.01562,-1.0625 l -4.71875,-1.79687 v -0.79688 l 9.875,3.79688 q 1.20312,0.46875 1.625,0.78125 0.42187,0.3125 0.625,0.73437 0.21875,0.40625 0.21875,1 0,0.45313 -0.15625,1 h -0.67188 q 0.125,-0.45312 0.125,-0.98437 0,-0.39063 -0.1875,-0.6875 -0.1875,-0.3125 -0.59375,-0.5625 -0.39062,-0.25 -1.25,-0.5625 -0.84375,-0.32813 -1.10937,-0.42188 z" />
  <path
     style="fill:#4695eb;fill-rule:evenodd"
     inkscape:connector-curvature="0"
     id="path29"
     d="M 174.05193,211.88482 V 47.56986 h 40.81891 v 164.31496 z" />
  <path
     style="fill-rule:evenodd;stroke:#4695eb;stroke-width:1;stroke-linecap:butt;stroke-linejoin:round"
     inkscape:connector-curvature="0"
     id="path31"
     d="M 174.05193,211.88482 V 47.56986 h 40.81891 v 164.31496 z" />
  <path
     style="fill:#ffffff;fill-rule:nonzero"
     inkscape:connector-curvature="0"
     id="path33"
     d="m 200.32137,175.53985 v 0.79688 h -5.625 v 6.67187 h 5.625 v 0.79688 h -11.42188 v -0.79688 h 5.0625 v -6.67187 h -5.0625 v -0.79688 z m 0,-3.82031 v 0.78125 h -8.5 v -0.78125 z m -10.85938,0.89062 q -0.75,0 -0.75,-0.5 0,-0.23437 0.20313,-0.375 0.1875,-0.14062 0.54687,-0.14062 0.35938,0 0.5625,0.14062 0.20313,0.14063 0.20313,0.375 0,0.5 -0.76563,0.5 z m 2.20313,-7.32031 q 0,-1.78125 1.125,-2.67187 1.10937,-0.90625 3.26562,-0.90625 2.125,0 3.28125,0.95312 1.14063,0.9375 1.14063,2.65625 0,0.90625 -0.375,1.64063 -0.375,0.71875 -1.0625,1.14062 v 0.0781 l 1.28125,0.21875 v 0.48437 h -12.15625 v -0.78125 h 3.04687 q 0.6875,0 1.26563,0.0312 l 0.67187,0.0312 v -0.0625 q -0.76562,-0.48437 -1.125,-1.15625 -0.35937,-0.6875 -0.35937,-1.65625 z m 0.70312,0.0156 q 0,1.5 0.85938,2.15625 0.85937,0.64062 2.82812,0.64062 h 0.14063 q 1.92187,0 2.76562,-0.67187 0.82813,-0.67188 0.82813,-2.10938 0,-1.39062 -0.96875,-2.09375 -0.98438,-0.70312 -2.78125,-0.70312 -3.67188,0 -3.67188,2.78125 z m 8.10938,-9.38282 q 0,1.85938 -1.14063,2.89063 -1.14062,1.03125 -3.20312,1.03125 -2.03125,0 -3.25,-1 -1.21875,-1 -1.21875,-2.6875 0,-1.5 1.04687,-2.35938 1.04688,-0.875 2.84375,-0.875 h 0.625 v 6.10938 q 1.75,-0.0156 2.67188,-0.8125 0.92187,-0.79688 0.92187,-2.29688 0,-0.71875 -0.0937,-1.26562 -0.10937,-0.5625 -0.45312,-1.40625 h 0.70312 q 0.3125,0.71875 0.42188,1.32812 0.125,0.60938 0.125,1.34375 z m -8.125,0.23438 q 0,1.21875 0.8125,1.96875 0.79687,0.73437 2.32812,0.85937 v -5.25 q -1.48437,0 -2.3125,0.64063 -0.82812,0.64062 -0.82812,1.78125 z m -0.6875,-8.92188 q 0,-0.54687 0.10937,-1.15625 l 0.73438,0.14063 q -0.125,0.53125 -0.125,1.10937 0,1.07813 0.92187,1.78125 0.92188,0.6875 2.32813,0.6875 h 4.6875 v 0.78125 h -8.5 v -0.65625 l 1.53125,-0.0781 v -0.0625 q -0.9375,-0.51563 -1.3125,-1.10938 -0.375,-0.59375 -0.375,-1.4375 z m 8.65625,-8.80468 h -5.51563 q -1.28125,0 -1.85937,0.54687 -0.57813,0.53125 -0.57813,1.65625 0,1.53125 0.76563,2.23438 0.76562,0.70312 2.5,0.70312 h 4.6875 v 0.78125 h -8.5 v -0.65625 l 1.17187,-0.15625 v -0.0469 q -1.32812,-0.82813 -1.32812,-2.9375 0,-2.89063 3.09375,-2.89063 h 5.5625 z m 0,-8.67188 -1.34375,0.1875 v 0.0625 q 0.8125,0.64063 1.15625,1.32813 0.34375,0.67187 0.34375,1.59375 0,1.25 -0.64063,1.95312 -0.64062,0.6875 -1.78125,0.6875 -1.23437,0 -1.92187,-1.03125 -0.6875,-1.04687 -0.73438,-3 l -0.0469,-1.625 h -0.5625 q -1.20313,0 -1.8125,0.5 -0.625,0.48438 -0.625,1.57813 0,1.1875 0.65625,2.45312 l -0.67188,0.28125 q -0.65625,-1.39062 -0.65625,-2.76562 0,-1.39063 0.73438,-2.07813 0.71875,-0.70312 2.25,-0.70312 h 5.65625 z m -0.54688,3.125 q 0,-1.35937 -0.78125,-2.14062 -0.78125,-0.79688 -2.15625,-0.79688 h -0.84375 l 0.0625,1.48438 q 0.0937,1.79687 0.5625,2.5625 0.46875,0.75 1.46875,0.75 0.79688,0 1.25,-0.48438 0.4375,-0.48437 0.4375,-1.375 z m 0.0156,-8.69531 q 0,-0.73438 -0.125,-1.28125 h 0.625 q 0.1875,0.5625 0.1875,1.29687 0,1.125 -0.59375,1.67188 -0.60938,0.53125 -1.90625,0.53125 h -5.48438 v 1.25 h -0.45312 l -0.34375,-1.25 -1.92188,-0.39063 v -0.40625 h 2.04688 v -2.48437 h 0.67187 v 2.48437 h 5.375 q 0.98438,0 1.45313,-0.34375 0.46875,-0.34375 0.46875,-1.07812 z m 0.6875,-6.54688 q 0,1.85938 -1.14063,2.89063 -1.14062,1.03125 -3.20312,1.03125 -2.03125,0 -3.25,-1 -1.21875,-1 -1.21875,-2.6875 0,-1.5 1.04687,-2.35938 1.04688,-0.875 2.84375,-0.875 h 0.625 v 6.10938 q 1.75,-0.0156 2.67188,-0.8125 0.92187,-0.79688 0.92187,-2.29688 0,-0.71875 -0.0937,-1.26562 -0.10937,-0.5625 -0.45312,-1.40625 h 0.70312 q 0.3125,0.71875 0.42188,1.32812 0.125,0.60938 0.125,1.34375 z m -8.125,0.23438 q 0,1.21875 0.8125,1.96875 0.79687,0.73437 2.32812,0.85937 v -5.25 q -1.48437,0 -2.3125,0.64063 -0.82812,0.64062 -0.82812,1.78125 z m 2.23437,-19.53125 q 2.71875,0 4.3125,1.35937 1.57813,1.35938 1.57813,3.75 0,2.375 -1.57813,3.73438 -1.59375,1.35937 -4.32812,1.35937 -2.71875,0 -4.28125,-1.35937 -1.57813,-1.375 -1.57813,-3.75 0,-2.39063 1.57813,-3.73438 1.57812,-1.35937 4.29687,-1.35937 z m 0,9.34375 q 2.45313,0 3.79688,-1.09375 1.34375,-1.09375 1.34375,-3.14063 0,-2.0625 -1.32813,-3.15625 -1.32812,-1.09375 -3.8125,-1.09375 -2.46875,0 -3.78125,1.09375 -1.3125,1.09375 -1.3125,3.14063 0,2.03125 1.32813,3.14062 1.32812,1.10938 3.76562,1.10938 z m 0.75,-12.77345 h 4.98438 v 0.79689 h -11.42185 v -2.71876 q 0,-2.125 0.78125,-3.14063 0.78125,-1.01562 2.35938,-1.01562 1.15625,0 1.95312,0.60937 0.78125,0.60938 1.125,1.84375 l 5.20313,-3.10937 v 0.95312 l -4.98438,2.95313 z m -0.6875,0 v -2.17187 q 0,-1.45313 -0.64062,-2.25 -0.64063,-0.79688 -1.90625,-0.79688 -1.29688,0 -1.89063,0.78125 -0.59375,0.78125 -0.59375,2.54688 v 1.89062 z m 5.67188,-13.72655 -10.54688,4.24999 v 0.0625 q 0.96875,-0.0625 1.98438,-0.0625 h 8.5625 v 0.76562 H 188.89949 V 84.9695 l 10.04688,-4.04687 v -0.0469 l -10.04688,-4.04688 v -1.20312 h 11.42188 v 0.8125 h -8.65625 q -0.90625,0 -1.875,-0.0937 v 0.0625 l 10.53125,4.26562 z" />
  <path
     style="fill:#4695eb;fill-rule:evenodd"
     inkscape:connector-curvature="0"
     id="path35"
     d="M 238.47231,211.88482 V 47.56986 h 40.81888 v 164.31496 z" />
  <path
     style="fill-rule:evenodd;stroke:#4695eb;stroke-width:1;stroke-linecap:butt;stroke-linejoin:round"
     inkscape:connector-curvature="0"
     id="path37"
     d="M 238.47231,211.88482 V 47.56986 h 40.81888 v 164.31496 z" />
  <path
     style="fill:#ffffff;fill-rule:nonzero"
     inkscape:connector-curvature="0"
     id="path39"
     d="m 264.74175,189.72344 v 0.79687 h -5.625 v 6.67188 h 5.625 v 0.79687 h -11.42187 v -0.79687 h 5.0625 v -6.67188 h -5.0625 v -0.79687 z m 0,-3.82031 v 0.78125 h -8.5 v -0.78125 z m -10.85937,0.89062 q -0.75,0 -0.75,-0.5 0,-0.23437 0.20312,-0.375 0.1875,-0.14062 0.54688,-0.14062 0.35937,0 0.5625,0.14062 0.20312,0.14063 0.20312,0.375 0,0.5 -0.76562,0.5 z m 2.20312,-7.32031 q 0,-1.78125 1.125,-2.67188 1.10938,-0.90625 3.26563,-0.90625 2.125,0 3.28125,0.95313 1.14062,0.9375 1.14062,2.65625 0,0.90625 -0.375,1.64062 -0.375,0.71875 -1.0625,1.14063 v 0.0781 l 1.28125,0.21875 v 0.48438 H 252.5855 v -0.78125 h 3.04688 q 0.6875,0 1.26562,0.0312 l 0.67188,0.0312 v -0.0625 q -0.76563,-0.48438 -1.125,-1.15625 -0.35938,-0.6875 -0.35938,-1.65625 z m 0.70313,0.0156 q 0,1.5 0.85937,2.15625 0.85938,0.64063 2.82813,0.64063 h 0.14062 q 1.92188,0 2.76563,-0.67188 0.82812,-0.67187 0.82812,-2.10937 0,-1.39063 -0.96875,-2.09375 -0.98437,-0.70313 -2.78125,-0.70313 -3.67187,0 -3.67187,2.78125 z m 8.10937,-9.38281 q 0,1.85938 -1.14062,2.89063 -1.14063,1.03125 -3.20313,1.03125 -2.03125,0 -3.25,-1 -1.21875,-1 -1.21875,-2.6875 0,-1.5 1.04688,-2.35938 1.04687,-0.875 2.84375,-0.875 h 0.625 v 6.10938 q 1.75,-0.0156 2.67187,-0.8125 0.92188,-0.79688 0.92188,-2.29688 0,-0.71875 -0.0937,-1.26562 -0.10938,-0.5625 -0.45313,-1.40625 h 0.70313 q 0.3125,0.71875 0.42187,1.32812 0.125,0.60938 0.125,1.34375 z m -8.125,0.23438 q 0,1.21875 0.8125,1.96875 0.79688,0.73437 2.32813,0.85937 v -5.25 q -1.48438,0 -2.3125,0.64063 -0.82813,0.64062 -0.82813,1.78125 z m -0.6875,-8.92188 q 0,-0.54687 0.10938,-1.15625 l 0.73437,0.14063 q -0.125,0.53125 -0.125,1.10937 0,1.07813 0.92188,1.78125 0.92187,0.6875 2.32812,0.6875 h 4.6875 v 0.78125 h -8.5 v -0.65625 l 1.53125,-0.0781 v -0.0625 q -0.9375,-0.51563 -1.3125,-1.10938 -0.375,-0.59375 -0.375,-1.4375 z m 8.65625,-8.80469 h -5.51562 q -1.28125,0 -1.85938,0.54688 -0.57812,0.53125 -0.57812,1.65625 0,1.53125 0.76562,2.23437 0.76563,0.70313 2.5,0.70313 h 4.6875 v 0.78125 h -8.5 v -0.65625 l 1.17188,-0.15625 v -0.0469 q -1.32813,-0.82812 -1.32813,-2.9375 0,-2.89062 3.09375,-2.89062 h 5.5625 z m 0,-8.67187 -1.34375,0.1875 v 0.0625 q 0.8125,0.64062 1.15625,1.32812 0.34375,0.67188 0.34375,1.59375 0,1.25 -0.64062,1.95313 -0.64063,0.6875 -1.78125,0.6875 -1.23438,0 -1.92188,-1.03125 -0.6875,-1.04688 -0.73437,-3 l -0.0469,-1.625 h -0.5625 q -1.20312,0 -1.8125,0.5 -0.625,0.48437 -0.625,1.57812 0,1.1875 0.65625,2.45313 l -0.67187,0.28125 q -0.65625,-1.39063 -0.65625,-2.76563 0,-1.39062 0.73437,-2.07812 0.71875,-0.70313 2.25,-0.70313 h 5.65625 z m -0.54687,3.125 q 0,-1.35938 -0.78125,-2.14063 -0.78125,-0.79687 -2.15625,-0.79687 h -0.84375 l 0.0625,1.48437 q 0.0937,1.79688 0.5625,2.5625 0.46875,0.75 1.46875,0.75 0.79687,0 1.25,-0.48437 0.4375,-0.48438 0.4375,-1.375 z m 0.0156,-8.69531 q 0,-0.73438 -0.125,-1.28125 h 0.625 q 0.1875,0.5625 0.1875,1.29687 0,1.125 -0.59375,1.67188 -0.60937,0.53125 -1.90625,0.53125 h -5.48437 v 1.25 h -0.45313 l -0.34375,-1.25 -1.92187,-0.39063 v -0.40625 h 2.04687 v -2.48437 h 0.67188 v 2.48437 h 5.375 q 0.98437,0 1.45312,-0.34375 0.46875,-0.34375 0.46875,-1.07812 z m 0.6875,-6.54688 q 0,1.85938 -1.14062,2.89063 -1.14063,1.03125 -3.20313,1.03125 -2.03125,0 -3.25,-1 -1.21875,-1 -1.21875,-2.6875 0,-1.5 1.04688,-2.35938 1.04687,-0.875 2.84375,-0.875 h 0.625 v 6.10938 q 1.75,-0.0156 2.67187,-0.8125 0.92188,-0.79688 0.92188,-2.29688 0,-0.71875 -0.0937,-1.26562 -0.10938,-0.5625 -0.45313,-1.40625 h 0.70313 q 0.3125,0.71875 0.42187,1.32812 0.125,0.60938 0.125,1.34375 z m -8.125,0.23438 q 0,1.21875 0.8125,1.96875 0.79688,0.73437 2.32813,0.85937 v -5.25 q -1.48438,0 -2.3125,0.64063 -0.82813,0.64062 -0.82813,1.78125 z m -3.45312,-16.6875 v -0.85938 l 11.42187,4.26563 v 0.70312 l -11.42187,4.26563 v -0.85938 l 7.76562,-2.875 q 1.76563,-0.65625 2.64063,-0.875 -0.57813,-0.15625 -1.8125,-0.625 z m 11.42187,-7.4375 -1.34375,0.1875 v 0.0625 q 0.8125,0.64062 1.15625,1.32812 0.34375,0.67188 0.34375,1.59375 0,1.25 -0.64062,1.95313 -0.64063,0.6875 -1.78125,0.6875 -1.23438,0 -1.92188,-1.03125 -0.6875,-1.04688 -0.73437,-3 l -0.0469,-1.625 h -0.5625 q -1.20312,0 -1.8125,0.5 -0.625,0.48437 -0.625,1.57812 0,1.1875 0.65625,2.45313 l -0.67187,0.28125 q -0.65625,-1.39063 -0.65625,-2.76563 0,-1.39062 0.73437,-2.07812 0.71875,-0.70313 2.25,-0.70313 h 5.65625 z m -0.54687,3.125 q 0,-1.35938 -0.78125,-2.14063 -0.78125,-0.79687 -2.15625,-0.79687 h -0.84375 l 0.0625,1.48437 q 0.0937,1.79688 0.5625,2.5625 0.46875,0.75 1.46875,0.75 0.79687,0 1.25,-0.48437 0.4375,-0.48438 0.4375,-1.375 z m 0.54687,-7.22657 v 0.78125 h -12.15625 v -0.78125 z m 0,-3.61718 v 0.78125 h -8.5 v -0.78125 z m -10.85937,0.89062 q -0.75,0 -0.75,-0.5 0,-0.23437 0.20312,-0.375 0.1875,-0.14062 0.54688,-0.14062 0.35937,0 0.5625,0.14062 0.20312,0.14063 0.20312,0.375 0,0.5 -0.76562,0.5 z m 2.20312,-6.83594 q 0,-0.92188 0.34375,-1.59375 0.32813,-0.67188 1.14063,-1.20313 v -0.0469 q -0.98438,0.0469 -1.9375,0.0469 h -3.04688 v -0.76562 h 12.15625 v 0.5 l -1.29687,0.20312 v 0.0625 q 1.45312,0.96875 1.45312,2.78125 0,1.75001 -1.09375,2.68751 -1.09375,0.92188 -3.1875,0.92188 -2.20312,0 -3.35937,-0.92188 -1.17188,-0.92187 -1.17188,-2.67188 z m 0.70313,0 q 0,1.39063 0.98437,2.09376 0.96875,0.6875 2.82813,0.6875 3.60937,0 3.60937,-2.79689 0,-1.4375 -0.82812,-2.10937 -0.84375,-0.67188 -2.76563,-0.67188 h -0.14062 q -1.96875,0 -2.82813,0.65625 -0.85937,0.65625 -0.85937,2.14063 z m 7.95312,-11.57031 -1.34375,0.1875 v 0.0625 q 0.8125,0.64063 1.15625,1.32812 0.34375,0.67187 0.34375,1.59375 0,1.25 -0.64062,1.95312 -0.64063,0.6875 -1.78125,0.6875 -1.23438,0 -1.92188,-1.03125 -0.6875,-1.04687 -0.73437,-3 l -0.0469,-1.62499 h -0.5625 q -1.20312,0 -1.8125,0.5 -0.625,0.48438 -0.625,1.57812 0,1.1875 0.65625,2.45312 l -0.67187,0.28125 q -0.65625,-1.39062 -0.65625,-2.76562 0,-1.39062 0.73437,-2.07812 0.71875,-0.70312 2.25,-0.70312 h 5.65625 z m -0.54687,3.12499 q 0,-1.35937 -0.78125,-2.14061 -0.78125,-0.79688 -2.15625,-0.79688 h -0.84375 l 0.0625,1.48437 q 0.0937,1.79687 0.5625,2.5625 0.46875,0.75 1.46875,0.75 0.79687,0 1.25,-0.48438 0.4375,-0.48437 0.4375,-1.375 z m 0.0156,-8.6953 q 0,-0.73438 -0.125,-1.28125 h 0.625 q 0.1875,0.5625 0.1875,1.29687 0,1.125 -0.59375,1.67188 -0.60937,0.53125 -1.90625,0.53125 h -5.48437 v 1.25 h -0.45313 l -0.34375,-1.25 -1.92187,-0.39063 v -0.40625 h 2.04687 v -2.48437 h 0.67188 v 2.48437 h 5.375 q 0.98437,0 1.45312,-0.34375 0.46875,-0.34375 0.46875,-1.07812 z m -3.73437,-10.140625 q 2.07812,0 3.25,1.015625 1.17187,1 1.17187,2.78125 0,1.10937 -0.53125,1.96875 -0.54687,0.84375 -1.54687,1.29687 -1.01563,0.45313 -2.34375,0.45313 -2.07813,0 -3.23438,-1 -1.15625,-1.01563 -1.15625,-2.76563 0,-1.75 1.17188,-2.75 1.17187,-0.999995 3.21875,-0.999995 z m 0,6.703125 q 1.75,0 2.73437,-0.76563 0.98438,-0.76562 0.98438,-2.17187 0,-1.40625 -0.98438,-2.17188 -0.98437,-0.78125 -2.73437,-0.78125 -1.75,0 -2.71875,0.78125 -0.96875,0.78125 -0.96875,2.1875 0,1.40625 0.96875,2.17188 0.95312,0.75 2.71875,0.75 z m -4.39063,-12.390625 q 0,-0.546875 0.10938,-1.15625 l 0.73437,0.140625 q -0.125,0.53125 -0.125,1.109375 0,1.078125 0.92188,1.78125 0.92187,0.6875 2.32812,0.6875 h 4.6875 v 0.78125 h -8.5 v -0.65625 l 1.53125,-0.07813 v -0.0625 q -0.9375,-0.515625 -1.3125,-1.109375 -0.375,-0.59375 -0.375,-1.4375 z" />
  <path
     style="fill:#4695eb;fill-rule:evenodd"
     inkscape:connector-curvature="0"
     id="path41"
     d="M 302.89266,211.88482 V 47.56986 h 40.81891 v 164.31496 z" />
  <path
     style="fill-rule:evenodd;stroke:#4695eb;stroke-width:1;stroke-linecap:butt;stroke-linejoin:round"
     inkscape:connector-curvature="0"
     id="path43"
     d="M 302.89266,211.88482 V 47.56986 h 40.81891 v 164.31496 z" />
  <path
     style="fill:#ffffff;fill-rule:nonzero"
     inkscape:connector-curvature="0"
     id="path45"
     d="m 329.16213,168.22735 -10.54688,4.25 v 0.0625 q 0.96875,-0.0625 1.98438,-0.0625 h 8.5625 v 0.76563 h -11.42188 v -1.23438 l 10.04688,-4.04687 v -0.0469 l -10.04688,-4.04687 v -1.20313 h 11.42188 v 0.8125 h -8.65625 q -0.90625,0 -1.875,-0.0937 v 0.0625 l 10.53125,4.26563 z m -8.14063,-15.66406 q 1.65625,0 2.54688,1.125 0.875,1.125 0.875,3.1875 v 1.76562 h 4.71875 v 0.79688 h -11.42188 v -2.79688 q 0,-4.07812 3.28125,-4.07812 z m 2.73438,6.07812 v -1.5625 q 0,-1.9375 -0.64063,-2.79687 -0.64062,-0.85938 -2.0625,-0.85938 -1.32812,0 -1.95312,0.8125 -0.64063,0.8125 -0.64063,2.51563 v 1.89062 z m -0.32813,-22.3125 q 2.71875,0 4.3125,1.35938 1.57813,1.35937 1.57813,3.75 0,2.375 -1.57813,3.73437 -1.59375,1.35938 -4.32812,1.35938 -2.71875,0 -4.28125,-1.35938 -1.57813,-1.375 -1.57813,-3.75 0,-2.39062 1.57813,-3.73437 1.57812,-1.35938 4.29687,-1.35938 z m 0,9.34375 q 2.45313,0 3.79688,-1.09375 1.34375,-1.09375 1.34375,-3.14062 0,-2.0625 -1.32813,-3.15625 -1.32812,-1.09375 -3.8125,-1.09375 -2.46875,0 -3.78125,1.09375 -1.3125,1.09375 -1.3125,3.14062 0,2.03125 1.32813,3.14063 1.32812,1.10937 3.76562,1.10937 z m 5.89063,-15.41406 q 0,1.96875 -1.46875,2.85938 v 0.0625 l 0.65625,-0.0312 q 0.57812,-0.0312 1.26562,-0.0312 h 3.23438 v 0.78125 h -12.34375 v -0.65625 l 1.21875,-0.15625 v -0.0469 q -1.375,-0.875 -1.375,-2.79687 0,-1.71875 1.125,-2.60938 1.125,-0.90625 3.28125,-0.90625 2.09375,0 3.25,0.95313 1.15625,0.9375 1.15625,2.57812 z m -0.6875,0.0156 q 0,-1.29688 -0.96875,-2.01563 -0.96875,-0.71875 -2.71875,-0.71875 -3.73438,0 -3.73438,2.70313 0,1.48437 0.8125,2.1875 0.8125,0.6875 2.65625,0.6875 h 0.25 q 2,0 2.85938,-0.65625 0.84375,-0.67188 0.84375,-2.1875 z m 0.6875,-9.33594 q 0,1.85937 -1.14063,2.89062 -1.14062,1.03125 -3.20312,1.03125 -2.03125,0 -3.25,-1 -1.21875,-1 -1.21875,-2.6875 0,-1.5 1.04687,-2.35937 1.04688,-0.875 2.84375,-0.875 h 0.625 v 6.10937 q 1.75,-0.0156 2.67188,-0.8125 0.92187,-0.79687 0.92187,-2.29687 0,-0.71875 -0.0937,-1.26563 -0.10937,-0.5625 -0.45312,-1.40625 h 0.70312 q 0.3125,0.71875 0.42188,1.32813 0.125,0.60937 0.125,1.34375 z m -8.125,0.23437 q 0,1.21875 0.8125,1.96875 0.79687,0.73438 2.32812,0.85938 v -5.25 q -1.48437,0 -2.3125,0.64062 -0.82812,0.64063 -0.82812,1.78125 z m 7.96875,-11.5 h -5.51563 q -1.28125,0 -1.85937,0.54688 -0.57813,0.53125 -0.57813,1.65625 0,1.53125 0.76563,2.23437 0.76562,0.70313 2.5,0.70313 h 4.6875 v 0.78125 h -8.5 v -0.65625 l 1.17187,-0.15625 v -0.0469 q -1.32812,-0.82812 -1.32812,-2.9375 0,-2.89062 3.09375,-2.89062 h 5.5625 z m -4.03125,-9.21875 v 4.64063 l 4.03125,1.59375 v 0.89062 l -11.46875,-4.59375 v -0.51562 l 11.46875,-4.5 v 0.90625 z m -0.71875,4.35938 v -4.09375 l -4.125,1.5625 q -0.48438,0.1875 -1.34375,0.46875 0.75,0.20312 1.35937,0.45312 z M 321.0215,89.47731 q 1.65625,0 2.54688,1.125 0.875,1.125 0.875,3.1875 v 1.76564 h 4.71875 v 0.79687 h -11.42188 v -2.79688 q 0,-4.07813 3.28125,-4.07813 z m 2.73438,6.07814 v -1.56251 q 0,-1.9375 -0.64063,-2.79688 -0.64062,-0.85937 -2.0625,-0.85937 -1.32812,0 -1.95312,0.8125 -0.64063,0.8125 -0.64063,2.51562 v 1.89064 z m 5.40625,-8.56251 h -11.42188 v -0.79688 h 11.42188 z" />
  <path
     style="fill:#4695eb;fill-rule:evenodd"
     inkscape:connector-curvature="0"
     id="path47"
     d="M 367.31304,211.88482 V 47.56986 h 40.81891 v 164.31496 z" />
  <path
     style="fill-rule:evenodd;stroke:#4695eb;stroke-width:1;stroke-linecap:butt;stroke-linejoin:round"
     inkscape:connector-curvature="0"
     id="path49"
     d="M 367.31304,211.88482 V 47.56986 h 40.81891 v 164.31496 z" />
  <path
     style="fill:#ffffff;fill-rule:nonzero"
     inkscape:connector-curvature="0"
     id="path51"
     d="m 393.58249,150.05156 -10.54688,4.25 v 0.0625 q 0.96875,-0.0625 1.98438,-0.0625 h 8.5625 v 0.76562 h -11.42188 v -1.23437 l 10.04688,-4.04688 v -0.0469 l -10.04688,-4.04688 v -1.20312 h 11.42188 v 0.8125 h -8.65625 q -0.90625,0 -1.875,-0.0937 v 0.0625 l 10.53125,4.26562 z m -8.14063,-15.66406 q 1.65625,0 2.54688,1.125 0.875,1.125 0.875,3.1875 v 1.76562 h 4.71875 v 0.79688 h -11.42188 v -2.79688 q 0,-4.07812 3.28125,-4.07812 z m 2.73438,6.07812 v -1.5625 q 0,-1.9375 -0.64063,-2.79687 -0.64062,-0.85938 -2.0625,-0.85938 -1.32812,0 -1.95312,0.8125 -0.64063,0.8125 -0.64063,2.51563 v 1.89062 z m 8.29687,-10.82812 q 0,0.71875 -0.21875,1.17187 h -0.6875 q 0.15625,-0.60937 0.15625,-1.15625 0,-1.90625 -2.0625,-1.90625 h -11.5 V 126.95 h 11.42188 q 2.89062,0 2.89062,2.6875 z M 393.58249,114.7 v 0.65625 l -8.8125,2.5 q -1.09375,0.3125 -1.78125,0.46875 0.67187,0.125 1.5625,0.35937 0.875,0.23438 9.03125,2.51563 v 0.67187 l -11.42188,3.14063 v -0.82813 l 7.35938,-2 q 0.4375,-0.125 0.82812,-0.21875 0.375,-0.10937 0.70313,-0.1875 0.32812,-0.0781 0.64062,-0.14062 0.3125,-0.0781 0.625,-0.125 -1.0625,-0.1875 -3.23437,-0.79688 l -6.92188,-1.95312 v -0.89063 l 7.95313,-2.28125 q 1.375,-0.40625 2.21875,-0.57812 -0.5625,-0.0937 -1.1875,-0.25 -0.64063,-0.17188 -8.98438,-2.42188 v -0.79687 z m 0,-8.14844 v 0.79687 h -10.67188 v 3.71875 h -0.75 v -8.23437 h 0.75 v 3.71875 z" />
  <path
     style="fill:#4695eb;fill-rule:evenodd"
     inkscape:connector-curvature="0"
     id="path53"
     d="M 431.73342,211.88482 V 47.56986 h 40.81891 v 164.31496 z" />
  <path
     style="fill-rule:evenodd;stroke:#4695eb;stroke-width:1;stroke-linecap:butt;stroke-linejoin:round"
     inkscape:connector-curvature="0"
     id="path55"
     d="M 431.73342,211.88482 V 47.56986 h 40.81891 v 164.31496 z" />
  <path
     style="fill:#ffffff;fill-rule:nonzero"
     inkscape:connector-curvature="0"
     id="path57"
     d="m 458.00289,169.66485 v 6.23438 h -11.42191 v -6.23438 h 0.73438 v 5.4375 h 4.3125 v -5.14062 h 0.7344 v 5.14062 h 4.90625 v -5.4375 z m 0.15625,-5.78125 q 0,1.8125 -1.14063,2.84375 -1.15625,1.03125 -3.21875,1.03125 -2.1094,0 -3.28128,-1.0625 -1.17187,-1.07812 -1.17187,-2.9375 0,-1.09375 0.375,-2.10937 l 0.6875,0.21875 q -0.35938,1.09375 -0.35938,1.90625 0,1.5625 0.96875,2.375 0.95316,0.79687 2.76566,0.79687 1.71875,0 2.70312,-0.79687 0.96875,-0.8125 0.96875,-2.25 0,-1.15625 -0.42187,-2.15625 h 0.71875 q 0.40625,0.8125 0.40625,2.14062 z m -0.15625,-4.99219 v 0.78125 h -12.15628 v -0.78125 z m 0,-3.61718 v 0.78125 h -8.50003 v -0.78125 z m -10.85941,0.89062 q -0.75,0 -0.75,-0.5 0,-0.23437 0.20313,-0.375 0.1875,-0.14062 0.54687,-0.14062 0.35938,0 0.5625,0.14062 0.20313,0.14063 0.20313,0.375 0,0.5 -0.76563,0.5 z m 11.01566,-7.36719 q 0,1.96875 -1.46875,2.85938 v 0.0625 l 0.65625,-0.0312 q 0.57812,-0.0312 1.26562,-0.0312 h 3.23438 v 0.78125 h -12.34378 v -0.65625 l 1.21875,-0.15625 v -0.0469 q -1.375,-0.875 -1.375,-2.79687 0,-1.71875 1.125,-2.60938 1.125,-0.90625 3.28128,-0.90625 2.09375,0 3.25,0.95313 1.15625,0.9375 1.15625,2.57812 z m -0.6875,0.0156 q 0,-1.29688 -0.96875,-2.01563 -0.96875,-0.71875 -2.71875,-0.71875 -3.73441,0 -3.73441,2.70313 0,1.48437 0.8125,2.1875 0.8125,0.6875 2.65628,0.6875 h 0.25 q 2,0 2.85938,-0.65625 0.84375,-0.67188 0.84375,-2.1875 z m -1.6875,-11.16406 q 1.14062,0 1.76562,0.875 0.60938,0.85937 0.60938,2.45312 0,1.70313 -0.53125,2.70313 h -0.82813 q 0.64063,-1.28125 0.64063,-2.70313 0,-1.26562 -0.42188,-1.90625 -0.42187,-0.65625 -1.10937,-0.65625 -0.64063,0 -1.07813,0.51563 -0.4375,0.51562 -0.85937,1.70312 -0.46875,1.28125 -0.79688,1.79688 -0.32812,0.51562 -0.75,0.78125 -0.42187,0.25 -1.01565,0.25 -0.95313,0 -1.5,-0.79688 -0.5625,-0.79687 -0.5625,-2.23437 0,-1.375 0.51562,-2.60938 l 0.70313,0.28125 q -0.51563,1.25 -0.51563,2.32813 0,1.03125 0.34375,1.64062 0.34375,0.60938 0.95313,0.60938 0.65628,0 1.06253,-0.46875 0.39062,-0.46875 0.89062,-1.84375 0.40625,-1.15625 0.75,-1.67188 0.32813,-0.53125 0.75,-0.78125 0.42188,-0.26562 0.98438,-0.26562 z m 2.375,-5.625 q 0,1.85937 -1.14063,2.89062 -1.14062,1.03125 -3.20312,1.03125 -2.03128,0 -3.25003,-1 -1.21875,-1 -1.21875,-2.6875 0,-1.5 1.04687,-2.35937 1.04688,-0.875 2.84378,-0.875 h 0.625 v 6.10937 q 1.75,-0.0156 2.67188,-0.8125 0.92187,-0.79687 0.92187,-2.29687 0,-0.71875 -0.0937,-1.26563 -0.10937,-0.5625 -0.45312,-1.40625 h 0.70312 q 0.3125,0.71875 0.42188,1.32813 0.125,0.60937 0.125,1.34375 z m -8.12503,0.23437 q 0,1.21875 0.8125,1.96875 0.79687,0.73438 2.32815,0.85938 v -5.25 q -1.4844,0 -2.31253,0.64062 -0.82812,0.64063 -0.82812,1.78125 z m -3.45313,-16.6875 v -0.85937 l 11.42191,4.26562 v 0.70313 l -11.42191,4.26562 v -0.85937 l 7.76566,-2.875 q 1.76562,-0.65625 2.64062,-0.875 -0.57812,-0.15625 -1.8125,-0.625 z m 11.57816,-5.71875 q 0,1.85938 -1.14063,2.89063 -1.14062,1.03125 -3.20312,1.03125 -2.03128,0 -3.25003,-1 -1.21875,-1 -1.21875,-2.6875 0,-1.5 1.04687,-2.35938 1.04688,-0.875 2.84378,-0.875 h 0.625 v 6.10938 q 1.75,-0.0156 2.67188,-0.8125 0.92187,-0.79688 0.92187,-2.29688 0,-0.71875 -0.0937,-1.26562 -0.10937,-0.5625 -0.45312,-1.40625 h 0.70312 q 0.3125,0.71875 0.42188,1.32812 0.125,0.60938 0.125,1.34375 z m -8.12503,0.23438 q 0,1.21875 0.8125,1.96875 0.79687,0.73437 2.32815,0.85937 v -5.25 q -1.4844,0 -2.31253,0.64063 -0.82812,0.64062 -0.82812,1.78125 z m -0.6875,-8.92188 q 0,-0.54687 0.10937,-1.15625 l 0.73438,0.14063 q -0.125,0.53125 -0.125,1.10937 0,1.07813 0.92187,1.78125 0.92188,0.6875 2.32816,0.6875 h 4.6875 v 0.78125 h -8.50003 v -0.65625 l 1.53125,-0.0781 v -0.0625 q -0.9375,-0.51563 -1.3125,-1.10938 -0.375,-0.59375 -0.375,-1.4375 z m 8.12503,-5.13281 q 0,-0.73439 -0.125,-1.28126 h 0.625 q 0.1875,0.56251 0.1875,1.29688 0,1.125 -0.59375,1.67188 -0.60938,0.53125 -1.90625,0.53125 h -5.48441 v 1.25 h -0.45312 l -0.34375,-1.25 -1.92188,-0.39063 v -0.40625 h 2.04688 V 94.9695 h 0.67187 v 2.48438 h 5.37503 q 0.98438,0 1.45313,-0.34375 0.46875,-0.34375 0.46875,-1.07812 z m -0.0781,-2.95314 q -0.76562,0 -0.76562,-0.625 0,-0.64062 0.76562,-0.64062 0.76563,0 0.76563,0.64062 0,0.625 -0.76563,0.625 z m 0.60938,-11.14843 v 0.90625 l -5.32813,3.375 5.32813,3.4375 v 0.89062 l -5.95313,-3.84375 -5.46878,3.48438 v -0.89063 l 4.89063,-3.09375 -4.89063,-3.12499 v -0.85938 l 5.45316,3.54687 z" />
  <path
     style="fill:#4695eb;fill-rule:evenodd"
     inkscape:connector-curvature="0"
     id="path59"
     d="M 496.15379,211.88482 V 47.56986 h 40.81891 v 164.31496 z" />
  <path
     style="fill-rule:evenodd;stroke:#4695eb;stroke-width:1;stroke-linecap:butt;stroke-linejoin:round"
     inkscape:connector-curvature="0"
     id="path61"
     d="M 496.15379,211.88482 V 47.56986 h 40.81891 v 164.31496 z" />
  <path
     style="fill:#ffffff;fill-rule:nonzero"
     inkscape:connector-curvature="0"
     id="path63"
     d="m 518.39199,187.81328 v 4.64062 l 4.03125,1.59375 v 0.89063 l -11.46875,-4.59375 v -0.51563 l 11.46875,-4.5 v 0.90625 z m -0.71875,4.35937 v -4.09375 l -4.125,1.5625 q -0.48438,0.1875 -1.34375,0.46875 0.75,0.20313 1.35937,0.45313 z m -3.75,-14.88281 h 0.54687 l 0.10938,1.75 q 0.875,-0.70312 1.92187,-0.70312 1.21875,0 1.98438,0.82812 0.76562,0.8125 0.76562,2.1875 0,0.57813 -0.0469,0.8125 0.23437,0.45313 0.5625,0.70313 0.32812,0.23437 0.70312,0.23437 0.40625,0 0.59375,-0.29687 0.1875,-0.3125 0.1875,-1.04688 v -1.48437 q 0,-1.375 0.5625,-2.10938 0.54688,-0.73437 1.65625,-0.73437 1.34375,0 2.0625,1.09375 0.73438,1.07812 0.73438,3.09375 0,1.60937 -0.625,2.48437 -0.60938,0.875 -1.70313,0.875 -0.875,0 -1.46875,-0.53125 -0.57812,-0.54687 -0.78125,-1.48437 -0.17187,0.39062 -0.46875,0.625 -0.29687,0.21875 -0.6875,0.21875 -0.85937,0 -1.5,-1.07813 -0.3125,0.73438 -0.95312,1.15625 -0.65625,0.40625 -1.5,0.40625 -1.28125,0 -2.04688,-0.79687 -0.76562,-0.8125 -0.76562,-2.1875 0,-0.84375 0.15625,-1.29688 z m 9.9375,6.875 q 1.75,0 1.75,-2.60937 0,-3.34375 -2.125,-3.34375 -0.76563,0 -1.10938,0.53125 -0.35937,0.51562 -0.35937,1.6875 v 1.39062 q 0,2.34375 1.84375,2.34375 z m -7.28125,-0.65625 q 0.98437,0 1.53125,-0.59375 0.53125,-0.59375 0.53125,-1.59375 0,-1.0625 -0.53125,-1.625 -0.54688,-0.57812 -1.5625,-0.57812 -1.09375,0 -1.625,0.59375 -0.54688,0.57812 -0.54688,1.625 0,1.01562 0.57813,1.59375 0.57812,0.57812 1.625,0.57812 z m -2.8125,-11.30469 q 0,-0.54687 0.10937,-1.15625 l 0.73438,0.14063 q -0.125,0.53125 -0.125,1.10937 0,1.07813 0.92187,1.78125 0.92188,0.6875 2.32813,0.6875 h 4.6875 v 0.78125 h -8.5 v -0.65625 l 1.53125,-0.0781 v -0.0625 q -0.9375,-0.51563 -1.3125,-1.10938 -0.375,-0.59375 -0.375,-1.4375 z m 4.39062,-9.91406 q 2.07813,0 3.25,1.01563 1.17188,1 1.17188,2.78125 0,1.10937 -0.53125,1.96875 -0.54688,0.84375 -1.54688,1.29687 -1.01562,0.45313 -2.34375,0.45313 -2.07812,0 -3.23437,-1 -1.15625,-1.01563 -1.15625,-2.76563 0,-1.75 1.17187,-2.75 1.17188,-1 3.21875,-1 z m 0,6.70313 q 1.75,0 2.73438,-0.76563 0.98437,-0.76562 0.98437,-2.17187 0,-1.40625 -0.98437,-2.17188 -0.98438,-0.78125 -2.73438,-0.78125 -1.75,0 -2.71875,0.78125 -0.96875,0.78125 -0.96875,2.1875 0,1.40625 0.96875,2.17188 0.95313,0.75 2.71875,0.75 z m 4.26563,-14.20313 -1.34375,0.1875 v 0.0625 q 0.8125,0.64063 1.15625,1.32813 0.34375,0.67187 0.34375,1.59375 0,1.25 -0.64063,1.95312 -0.64062,0.6875 -1.78125,0.6875 -1.23437,0 -1.92187,-1.03125 -0.6875,-1.04687 -0.73438,-3 l -0.0469,-1.625 h -0.5625 q -1.20313,0 -1.8125,0.5 -0.625,0.48438 -0.625,1.57813 0,1.1875 0.65625,2.45312 l -0.67188,0.28125 q -0.65625,-1.39062 -0.65625,-2.76562 0,-1.39063 0.73438,-2.07813 0.71875,-0.70312 2.25,-0.70312 h 5.65625 z m -0.54688,3.125 q 0,-1.35937 -0.78125,-2.14062 -0.78125,-0.79688 -2.15625,-0.79688 h -0.84375 l 0.0625,1.48438 q 0.0937,1.79687 0.5625,2.5625 0.46875,0.75 1.46875,0.75 0.79688,0 1.25,-0.48438 0.4375,-0.48437 0.4375,-1.375 z m 0.54688,-7.22656 v 0.78125 h -12.15625 v -0.78125 z m -4.39063,-6.21094 q -2.0625,0 -3.85937,-0.60937 -1.8125,-0.60938 -3.17188,-1.75 v -0.875 q 1.42188,1.15625 3.21875,1.78125 1.79688,0.60937 3.79688,0.60937 3.78125,0 6.9375,-2.375 v 0.85938 q -1.32813,1.15625 -3.09375,1.76562 -1.78125,0.59375 -3.82813,0.59375 z m 4.54688,-8.52344 q 0,1.8125 -1.14063,2.84375 -1.15625,1.03125 -3.21875,1.03125 -2.10937,0 -3.28125,-1.0625 -1.17187,-1.07812 -1.17187,-2.9375 0,-1.09375 0.375,-2.10937 l 0.6875,0.21875 q -0.35938,1.09375 -0.35938,1.90625 0,1.5625 0.96875,2.375 0.95313,0.79687 2.76563,0.79687 1.71875,0 2.70312,-0.79687 0.96875,-0.8125 0.96875,-2.25 0,-1.15625 -0.42187,-2.15625 h 0.71875 q 0.40625,0.8125 0.40625,2.14062 z m -4.42188,-11.24218 q 2.07813,0 3.25,1.01562 1.17188,1 1.17188,2.78125 0,1.10938 -0.53125,1.96875 -0.54688,0.84375 -1.54688,1.29688 -1.01562,0.45312 -2.34375,0.45312 -2.07812,0 -3.23437,-1 -1.15625,-1.01562 -1.15625,-2.76562 0,-1.75 1.17187,-2.75 1.17188,-1 3.21875,-1 z m 0,6.70312 q 1.75,0 2.73438,-0.76562 0.98437,-0.76563 0.98437,-2.17188 0,-1.40625 -0.98437,-2.17187 -0.98438,-0.78125 -2.73438,-0.78125 -1.75,0 -2.71875,0.78125 -0.96875,0.78125 -0.96875,2.1875 0,1.40625 0.96875,2.17187 0.95313,0.75 2.71875,0.75 z m 4.26563,-14.96875 h -5.51563 q -1.28125,0 -1.85937,0.54688 -0.57813,0.53125 -0.57813,1.65625 0,1.53125 0.76563,2.23437 0.76562,0.70313 2.5,0.70313 h 4.6875 v 0.78125 h -8.5 v -0.65625 l 1.17187,-0.15625 v -0.0469 q -1.32812,-0.82812 -1.32812,-2.9375 0,-2.89062 3.09375,-2.89062 h 5.5625 z m 0,-9.4375 h -5.51563 q -1.28125,0 -1.85937,0.54688 -0.57813,0.53125 -0.57813,1.65625 0,1.53125 0.76563,2.23437 0.76562,0.70313 2.5,0.70313 h 4.6875 v 0.78125 h -8.5 v -0.65625 l 1.17187,-0.15625 v -0.0469 q -1.32812,-0.82812 -1.32812,-2.9375 0,-2.89062 3.09375,-2.89062 h 5.5625 z m 0.15625,-11.3125 q 0,1.96875 -1.46875,2.85938 v 0.0625 l 0.65625,-0.0312 q 0.57812,-0.0312 1.26562,-0.0312 h 3.23438 v 0.78125 h -12.34375 v -0.65625 l 1.21875,-0.15625 v -0.0469 q -1.375,-0.875 -1.375,-2.79687 0,-1.71876 1.125,-2.60939 1.125,-0.90625 3.28125,-0.90625 2.09375,0 3.25,0.95313 1.15625,0.9375 1.15625,2.57813 z m -0.6875,0.0156 q 0,-1.29689 -0.96875,-2.01564 -0.96875,-0.71875 -2.71875,-0.71875 -3.73438,0 -3.73438,2.70314 0,1.48437 0.8125,2.1875 0.8125,0.6875 2.65625,0.6875 h 0.25 q 2,0 2.85938,-0.65625 0.84375,-0.67188 0.84375,-2.1875 z M 518.15761,82.782 q 2.07813,0 3.25,1.01563 1.17188,0.99999 1.17188,2.78124 0,1.10937 -0.53125,1.96875 -0.54688,0.84375 -1.54688,1.29687 -1.01562,0.45313 -2.34375,0.45313 -2.07812,0 -3.23437,-1 -1.15625,-1.01563 -1.15625,-2.76563 0,-1.75 1.17187,-2.74999 1.17188,-1 3.21875,-1 z m 0,6.70312 q 1.75,0 2.73438,-0.76563 0.98437,-0.76562 0.98437,-2.17187 0,-1.40625 -0.98437,-2.17188 -0.98438,-0.78124 -2.73438,-0.78124 -1.75,0 -2.71875,0.78124 -0.96875,0.78125 -0.96875,2.1875 0,1.40625 0.96875,2.17188 0.95313,0.75 2.71875,0.75 z m 0,-16.07812 q 2.07813,0 3.25,1.01563 1.17188,1 1.17188,2.78125 0,1.10937 -0.53125,1.96875 -0.54688,0.84375 -1.54688,1.29687 -1.01562,0.45313 -2.34375,0.45313 -2.07812,0 -3.23437,-1 -1.15625,-1.01563 -1.15625,-2.76563 0,-1.75 1.17187,-2.75 1.17188,-1 3.21875,-1 z m 0,6.70313 q 1.75,0 2.73438,-0.76563 0.98437,-0.76562 0.98437,-2.17187 0,-1.40625 -0.98437,-2.17188 -0.98438,-0.78125 -2.73438,-0.78125 -1.75,0 -2.71875,0.78125 -0.96875,0.78125 -0.96875,2.1875 0,1.40625 0.96875,2.17188 0.95313,0.75 2.71875,0.75 z m 4.26563,-9.82813 v 0.78125 H 510.26699 V 70.282 Z m -4.39063,-5.132812 q 2.0625,0 3.84375,0.609375 1.76563,0.609375 3.07813,1.749997 v 0.85938 q -3.15625,-2.375002 -6.9375,-2.375002 -2,0 -3.79688,0.625 -1.8125,0.609375 -3.21875,1.765622 v -0.875 q 1.35938,-1.156247 3.17188,-1.749997 1.8125,-0.609375 3.85937,-0.609375 z" />
  <path
     style="fill:#4695eb;fill-rule:evenodd"
     inkscape:connector-curvature="0"
     id="path65"
     d="M 560.57419,211.88482 V 47.56986 h 40.81891 v 164.31496 z" />
  <path
     style="fill-rule:evenodd;stroke:#4695eb;stroke-width:1;stroke-linecap:butt;stroke-linejoin:round"
     inkscape:connector-curvature="0"
     id="path67"
     d="M 560.57419,211.88482 V 47.56986 h 40.81891 v 164.31496 z" />
  <path
     style="fill:#ffffff;fill-rule:nonzero"
     inkscape:connector-curvature="0"
     id="path69"
     d="m 586.84359,167.07891 v 0.79687 l -10.14063,6.76563 v 0.0625 q 1.8125,-0.0937 2.73438,-0.0937 h 7.40625 v 0.76562 h -11.42188 v -0.79687 l 10.125,-6.75 v -0.0469 q -1.40625,0.0625 -2.67187,0.0625 h -7.45313 v -0.76562 z m 0,-8.19531 -1.34375,0.1875 v 0.0625 q 0.8125,0.64062 1.15625,1.32812 0.34375,0.67188 0.34375,1.59375 0,1.25 -0.64063,1.95313 -0.64062,0.6875 -1.78125,0.6875 -1.23437,0 -1.92187,-1.03125 -0.6875,-1.04688 -0.73438,-3 l -0.0469,-1.625 h -0.5625 q -1.20313,0 -1.8125,0.5 -0.625,0.48437 -0.625,1.57812 0,1.1875 0.65625,2.45313 l -0.67188,0.28125 q -0.65625,-1.39063 -0.65625,-2.76563 0,-1.39062 0.73438,-2.07812 0.71875,-0.70313 2.25,-0.70313 h 5.65625 z m -0.54688,3.125 q 0,-1.35938 -0.78125,-2.14063 -0.78125,-0.79687 -2.15625,-0.79687 h -0.84375 l 0.0625,1.48437 q 0.0937,1.79688 0.5625,2.5625 0.46875,0.75 1.46875,0.75 0.79688,0 1.25,-0.48437 0.4375,-0.48438 0.4375,-1.375 z m -8.10937,-9.78907 q 0,-0.54687 0.10937,-1.15625 l 0.73438,0.14063 q -0.125,0.53125 -0.125,1.10937 0,1.07813 0.92187,1.78125 0.92188,0.6875 2.32813,0.6875 h 4.6875 v 0.78125 h -8.5 v -0.65625 l 1.53125,-0.0781 v -0.0625 q -0.9375,-0.51563 -1.3125,-1.10938 -0.375,-0.59375 -0.375,-1.4375 z m 8.65625,-8.03906 -1.34375,0.1875 v 0.0625 q 0.8125,0.64063 1.15625,1.32813 0.34375,0.67187 0.34375,1.59375 0,1.25 -0.64063,1.95312 -0.64062,0.6875 -1.78125,0.6875 -1.23437,0 -1.92187,-1.03125 -0.6875,-1.04687 -0.73438,-3 l -0.0469,-1.625 h -0.5625 q -1.20313,0 -1.8125,0.5 -0.625,0.48438 -0.625,1.57813 0,1.1875 0.65625,2.45312 l -0.67188,0.28125 q -0.65625,-1.39062 -0.65625,-2.76562 0,-1.39063 0.73438,-2.07813 0.71875,-0.70312 2.25,-0.70312 h 5.65625 z m -0.54688,3.125 q 0,-1.35937 -0.78125,-2.14062 -0.78125,-0.79688 -2.15625,-0.79688 h -0.84375 l 0.0625,1.48438 q 0.0937,1.79687 0.5625,2.5625 0.46875,0.75 1.46875,0.75 0.79688,0 1.25,-0.48438 0.4375,-0.48437 0.4375,-1.375 z m -7.95312,-5.02344 v -0.79687 l 4.76562,-1.79688 q 2.20313,-0.82812 2.96875,-1.04687 v -0.0469 q -1.01562,-0.32812 -3.01562,-1.0625 l -4.71875,-1.79687 v -0.79688 l 9.875,3.79688 q 1.20312,0.46875 1.625,0.78125 0.42187,0.3125 0.625,0.73437 0.21875,0.40625 0.21875,1 0,0.45313 -0.15625,1 h -0.67188 q 0.125,-0.45312 0.125,-0.98437 0,-0.39063 -0.1875,-0.6875 -0.1875,-0.3125 -0.59375,-0.5625 -0.39062,-0.25 -1.25,-0.5625 -0.84375,-0.32813 -1.10937,-0.42188 z m 8.5,-13.92187 -1.34375,0.1875 v 0.0625 q 0.8125,0.64062 1.15625,1.32812 0.34375,0.67188 0.34375,1.59375 0,1.25 -0.64063,1.95313 -0.64062,0.6875 -1.78125,0.6875 -1.23437,0 -1.92187,-1.03125 -0.6875,-1.04688 -0.73438,-3 l -0.0469,-1.625 h -0.5625 q -1.20313,0 -1.8125,0.5 -0.625,0.48437 -0.625,1.57812 0,1.1875 0.65625,2.45313 l -0.67188,0.28125 q -0.65625,-1.39063 -0.65625,-2.76563 0,-1.39062 0.73438,-2.07812 0.71875,-0.70313 2.25,-0.70313 h 5.65625 z m -0.54688,3.125 q 0,-1.35938 -0.78125,-2.14063 -0.78125,-0.79687 -2.15625,-0.79687 h -0.84375 l 0.0625,1.48437 q 0.0937,1.79688 0.5625,2.5625 0.46875,0.75 1.46875,0.75 0.79688,0 1.25,-0.48437 0.4375,-0.48438 0.4375,-1.375 z m 0.54688,-12.36719 h -5.51563 q -1.28125,0 -1.85937,0.54688 -0.57813,0.53125 -0.57813,1.65625 0,1.53125 0.76563,2.23437 0.76562,0.70313 2.5,0.70313 h 4.6875 v 0.78125 h -8.5 v -0.65625 l 1.17187,-0.15625 v -0.0469 q -1.32812,-0.82812 -1.32812,-2.9375 0,-2.89062 3.09375,-2.89062 h 5.5625 z m 0,-8.67187 -1.34375,0.1875 v 0.0625 q 0.8125,0.64062 1.15625,1.32812 0.34375,0.67188 0.34375,1.59375 0,1.25 -0.64063,1.95313 -0.64062,0.6875 -1.78125,0.6875 -1.23437,0 -1.92187,-1.03125 -0.6875,-1.04688 -0.73438,-3 l -0.0469,-1.625 h -0.5625 q -1.20313,0 -1.8125,0.5 -0.625,0.48437 -0.625,1.57812 0,1.1875 0.65625,2.45313 l -0.67188,0.28125 q -0.65625,-1.39063 -0.65625,-2.76563 0,-1.39062 0.73438,-2.07812 0.71875,-0.70313 2.25,-0.70313 h 5.65625 z m -0.54688,3.125 q 0,-1.35938 -0.78125,-2.14063 -0.78125,-0.79687 -2.15625,-0.79687 h -0.84375 l 0.0625,1.48437 q 0.0937,1.79688 0.5625,2.5625 0.46875,0.75 1.46875,0.75 0.79688,0 1.25,-0.48437 0.4375,-0.48438 0.4375,-1.375 z m 3.4375,-8.91407 q 0,0.71875 -0.21875,1.17188 h -0.6875 q 0.15625,-0.60938 0.15625,-1.15625 0,-1.90625 -2.0625,-1.90625 h -11.5 v -0.79688 h 11.42188 q 2.89062,0 2.89062,2.6875 z m -2.89062,-8.8125 v 0.79688 h -10.67188 v 3.71875 h -0.75 v -8.23438 h 0.75 v 3.71875 z m -4.03125,-10.91407 v 4.64063 l 4.03125,1.59375 v 0.89062 l -11.46875,-4.59375 v -0.51562 l 11.46875,-4.49999 v 0.90625 z m -0.71875,4.35938 v -4.09375 l -4.125,1.5625 q -0.48438,0.1875 -1.34375,0.46875 0.75,0.20312 1.35937,0.45312 z" />
  <path
     style="fill:#4695eb;fill-rule:evenodd"
     inkscape:connector-curvature="0"
     id="path71"
     d="M 624.99453,211.88482 V 47.56986 h 40.81891 v 164.31496 z" />
  <path
     style="fill-rule:evenodd;stroke:#4695eb;stroke-width:1;stroke-linecap:butt;stroke-linejoin:round"
     inkscape:connector-curvature="0"
     id="path73"
     d="M 624.99453,211.88482 V 47.56986 h 40.81891 v 164.31496 z" />
  <path
     style="fill:#ffffff;fill-rule:nonzero"
     inkscape:connector-curvature="0"
     id="path75"
     d="m 641.76399,166.48125 -10.54687,4.25 v 0.0625 q 0.96875,-0.0625 1.98437,-0.0625 h 8.5625 v 0.76562 h -11.42187 v -1.23437 l 10.04687,-4.04688 v -0.0469 l -10.04687,-4.04688 v -1.20312 h 11.42187 v 0.8125 h -8.65625 q -0.90625,0 -1.875,-0.0937 v 0.0625 l 10.53125,4.26562 z m -8.14062,-15.66406 q 1.65625,0 2.54687,1.125 0.875,1.125 0.875,3.1875 v 1.76562 h 4.71875 v 0.79688 h -11.42187 v -2.79688 q 0,-4.07812 3.28125,-4.07812 z m 2.73437,6.07812 v -1.5625 q 0,-1.9375 -0.64062,-2.79687 -0.64063,-0.85938 -2.0625,-0.85938 -1.32813,0 -1.95313,0.8125 -0.64062,0.8125 -0.64062,2.51563 v 1.89062 z m 0.42188,-13.51562 h 4.98437 v 0.79687 h -11.42187 v -2.71875 q 0,-2.125 0.78125,-3.14062 0.78125,-1.01563 2.35937,-1.01563 1.15625,0 1.95313,0.60938 0.78125,0.60937 1.125,1.84375 l 5.20312,-3.10938 v 0.95313 l -4.98437,2.95312 z m -0.6875,0 v -2.17188 q 0,-1.45312 -0.64063,-2.25 -0.64062,-0.79687 -1.90625,-0.79687 -1.29687,0 -1.89062,0.78125 -0.59375,0.78125 -0.59375,2.54687 v 1.89063 z m 5.82812,-11.94532 q 0,1.85938 -1.14062,2.89063 -1.14063,1.03125 -3.20313,1.03125 -2.03125,0 -3.25,-1 -1.21875,-1 -1.21875,-2.6875 0,-1.5 1.04688,-2.35938 1.04687,-0.875 2.84375,-0.875 h 0.625 v 6.10938 q 1.75,-0.0156 2.67187,-0.8125 0.92188,-0.79688 0.92188,-2.29688 0,-0.71875 -0.0937,-1.26562 -0.10938,-0.5625 -0.45313,-1.40625 h 0.70313 q 0.3125,0.71875 0.42187,1.32812 0.125,0.60938 0.125,1.34375 z m -8.125,0.23438 q 0,1.21875 0.8125,1.96875 0.79688,0.73437 2.32813,0.85937 v -5.25 q -1.48438,0 -2.3125,0.64063 -0.82813,0.64062 -0.82813,1.78125 z m 7.96875,-10.73438 -1.34375,0.1875 v 0.0625 q 0.8125,0.64063 1.15625,1.32813 0.34375,0.67187 0.34375,1.59375 0,1.25 -0.64062,1.95312 -0.64063,0.6875 -1.78125,0.6875 -1.23438,0 -1.92188,-1.03125 -0.6875,-1.04687 -0.73437,-3 l -0.0469,-1.625 h -0.5625 q -1.20312,0 -1.8125,0.5 -0.625,0.48438 -0.625,1.57813 0,1.1875 0.65625,2.45312 l -0.67187,0.28125 q -0.65625,-1.39062 -0.65625,-2.76562 0,-1.39063 0.73437,-2.07813 0.71875,-0.70312 2.25,-0.70312 h 5.65625 z m -0.54687,3.125 q 0,-1.35937 -0.78125,-2.14062 -0.78125,-0.79688 -2.15625,-0.79688 h -0.84375 l 0.0625,1.48438 q 0.0937,1.79687 0.5625,2.5625 0.46875,0.75 1.46875,0.75 0.79687,0 1.25,-0.48438 0.4375,-0.48437 0.4375,-1.375 z m 0.70312,-9.83593 q 0,1.8125 -1.14062,2.84375 -1.15625,1.03125 -3.21875,1.03125 -2.10938,0 -3.28125,-1.0625 -1.17188,-1.07813 -1.17188,-2.9375 0,-1.09375 0.375,-2.10938 l 0.6875,0.21875 q -0.35937,1.09375 -0.35937,1.90625 0,1.5625 0.96875,2.375 0.95312,0.79688 2.76562,0.79688 1.71875,0 2.70313,-0.79688 0.96875,-0.8125 0.96875,-2.25 0,-1.15625 -0.42188,-2.15625 h 0.71875 q 0.40625,0.8125 0.40625,2.14063 z m -0.6875,-6.46094 q 0,-0.73438 -0.125,-1.28125 h 0.625 q 0.1875,0.5625 0.1875,1.29687 0,1.125 -0.59375,1.67188 -0.60937,0.53125 -1.90625,0.53125 h -5.48437 v 1.25 h -0.45313 l -0.34375,-1.25 -1.92187,-0.39063 v -0.40625 h 2.04687 V 106.7 h 0.67188 v 2.48437 h 5.375 q 0.98437,0 1.45312,-0.34375 0.46875,-0.34375 0.46875,-1.07812 z m 0.53125,-3.89063 v 0.78125 h -8.5 v -0.78125 z m -10.85937,0.89063 q -0.75,0 -0.75,-0.5 0,-0.23438 0.20312,-0.375 0.1875,-0.14063 0.54688,-0.14063 0.35937,0 0.5625,0.14063 0.20312,0.14062 0.20312,0.375 0,0.5 -0.76562,0.5 z m 10.85937,-5.58594 -8.5,3.28125 v -0.79687 l 5.78125,-2.20313 q 1.10938,-0.4375 1.9375,-0.65625 v -0.0469 q -1.0625,-0.3125 -1.95312,-0.65625 l -5.76563,-2.1875 v -0.79689 l 8.5,3.28126 z m 0.15625,-8.92188 q 0,1.85937 -1.14062,2.89062 -1.14063,1.03125 -3.20313,1.03125 -2.03125,0 -3.25,-1 -1.21875,-1 -1.21875,-2.6875 0,-1.5 1.04688,-2.35937 1.04687,-0.875 2.84375,-0.875 h 0.625 v 6.10937 q 1.75,-0.0156 2.67187,-0.8125 0.92188,-0.79687 0.92188,-2.29687 0,-0.71875 -0.0937,-1.26563 -0.10938,-0.5625 -0.45313,-1.40625 h 0.70313 q 0.3125,0.71875 0.42187,1.32813 0.125,0.60937 0.125,1.34375 z m -8.125,0.23437 q 0,1.21875 0.8125,1.96875 0.79688,0.73438 2.32813,0.85938 v -5.25 q -1.48438,0 -2.3125,0.64062 -0.82813,0.64063 -0.82813,1.78125 z" />
  <path
     style="fill:#ffffff;fill-rule:nonzero"
     inkscape:connector-curvature="0"
     id="path77"
     d="m 660.76399,160.96563 -10.54687,4.25 v 0.0625 q 0.96875,-0.0625 1.98437,-0.0625 h 8.5625 v 0.76562 h -11.42187 v -1.23437 L 659.38899,160.7 v -0.0469 l -10.04687,-4.04688 v -1.20312 h 11.42187 v 0.8125 h -8.65625 q -0.90625,0 -1.875,-0.0937 v 0.0625 l 10.53125,4.26562 z m 0.15625,-12.02344 q 0,1.85938 -1.14062,2.89063 -1.14063,1.03125 -3.20313,1.03125 -2.03125,0 -3.25,-1 -1.21875,-1 -1.21875,-2.6875 0,-1.5 1.04688,-2.35938 1.04687,-0.875 2.84375,-0.875 h 0.625 v 6.10938 q 1.75,-0.0156 2.67187,-0.8125 0.92188,-0.79688 0.92188,-2.29688 0,-0.71875 -0.0937,-1.26562 -0.10938,-0.5625 -0.45313,-1.40625 h 0.70313 q 0.3125,0.71875 0.42187,1.32812 0.125,0.60938 0.125,1.34375 z m -8.125,0.23438 q 0,1.21875 0.8125,1.96875 0.79688,0.73437 2.32813,0.85937 v -5.25 q -1.48438,0 -2.3125,0.64063 -0.82813,0.64062 -0.82813,1.78125 z m 5.75,-10.84375 q 1.14063,0 1.76563,0.875 0.60937,0.85937 0.60937,2.45312 0,1.70313 -0.53125,2.70313 h -0.82812 q 0.64062,-1.28125 0.64062,-2.70313 0,-1.26562 -0.42187,-1.90625 -0.42188,-0.65625 -1.10938,-0.65625 -0.64062,0 -1.07812,0.51563 -0.4375,0.51562 -0.85938,1.70312 -0.46875,1.28125 -0.79687,1.79688 -0.32813,0.51562 -0.75,0.78125 -0.42188,0.25 -1.01563,0.25 -0.95312,0 -1.5,-0.79688 -0.5625,-0.79687 -0.5625,-2.23437 0,-1.375 0.51563,-2.60938 l 0.70312,0.28125 q -0.51562,1.25 -0.51562,2.32813 0,1.03125 0.34375,1.64062 0.34375,0.60938 0.95312,0.60938 0.65625,0 1.0625,-0.46875 0.39063,-0.46875 0.89063,-1.84375 0.40625,-1.15625 0.75,-1.67188 0.32812,-0.53125 0.75,-0.78125 0.42187,-0.26562 0.98437,-0.26562 z m 0,-7.45313 q 1.14063,0 1.76563,0.875 0.60937,0.85938 0.60937,2.45313 0,1.70312 -0.53125,2.70312 h -0.82812 q 0.64062,-1.28125 0.64062,-2.70312 0,-1.26563 -0.42187,-1.90625 -0.42188,-0.65625 -1.10938,-0.65625 -0.64062,0 -1.07812,0.51562 -0.4375,0.51563 -0.85938,1.70313 -0.46875,1.28125 -0.79687,1.79687 -0.32813,0.51563 -0.75,0.78125 -0.42188,0.25 -1.01563,0.25 -0.95312,0 -1.5,-0.79687 -0.5625,-0.79688 -0.5625,-2.23438 0,-1.375 0.51563,-2.60937 l 0.70312,0.28125 q -0.51562,1.25 -0.51562,2.32812 0,1.03125 0.34375,1.64063 0.34375,0.60937 0.95312,0.60937 0.65625,0 1.0625,-0.46875 0.39063,-0.46875 0.89063,-1.84375 0.40625,-1.15625 0.75,-1.67187 0.32812,-0.53125 0.75,-0.78125 0.42187,-0.26563 0.98437,-0.26563 z m 2.21875,-7.34375 -1.34375,0.1875 v 0.0625 q 0.8125,0.64063 1.15625,1.32813 0.34375,0.67187 0.34375,1.59375 0,1.25 -0.64062,1.95312 -0.64063,0.6875 -1.78125,0.6875 -1.23438,0 -1.92188,-1.03125 -0.6875,-1.04687 -0.73437,-3 l -0.0469,-1.625 h -0.5625 q -1.20312,0 -1.8125,0.5 -0.625,0.48438 -0.625,1.57813 0,1.1875 0.65625,2.45312 l -0.67187,0.28125 q -0.65625,-1.39062 -0.65625,-2.76562 0,-1.39063 0.73437,-2.07813 0.71875,-0.70312 2.25,-0.70312 h 5.65625 z m -0.54687,3.125 q 0,-1.35937 -0.78125,-2.14062 -0.78125,-0.79688 -2.15625,-0.79688 h -0.84375 l 0.0625,1.48438 q 0.0937,1.79687 0.5625,2.5625 0.46875,0.75 1.46875,0.75 0.79687,0 1.25,-0.48438 0.4375,-0.48437 0.4375,-1.375 z m -7.95313,-13.07031 h 0.54688 l 0.10937,1.75 q 0.875,-0.70313 1.92188,-0.70313 1.21875,0 1.98437,0.82813 0.76563,0.8125 0.76563,2.1875 0,0.57812 -0.0469,0.8125 0.23438,0.45312 0.5625,0.70312 0.32813,0.23438 0.70313,0.23438 0.40625,0 0.59375,-0.29688 0.1875,-0.3125 0.1875,-1.04687 V 116.575 q 0,-1.375 0.5625,-2.10937 0.54687,-0.73438 1.65625,-0.73438 1.34375,0 2.0625,1.09375 0.73437,1.07813 0.73437,3.09375 0,1.60938 -0.625,2.48438 -0.60937,0.875 -1.70312,0.875 -0.875,0 -1.46875,-0.53125 -0.57813,-0.54688 -0.78125,-1.48438 -0.17188,0.39063 -0.46875,0.625 -0.29688,0.21875 -0.6875,0.21875 -0.85938,0 -1.5,-1.07812 -0.3125,0.73437 -0.95313,1.15625 -0.65625,0.40625 -1.5,0.40625 -1.28125,0 -2.04687,-0.79688 -0.76563,-0.8125 -0.76563,-2.1875 0,-0.84375 0.15625,-1.29687 z m 9.9375,6.875 q 1.75,0 1.75,-2.60938 0,-3.34375 -2.125,-3.34375 -0.76562,0 -1.10937,0.53125 -0.35938,0.51563 -0.35938,1.6875 v 1.39063 q 0,2.34375 1.84375,2.34375 z m -7.28125,-0.65625 q 0.98438,0 1.53125,-0.59375 0.53125,-0.59375 0.53125,-1.59375 0,-1.0625 -0.53125,-1.625 -0.54687,-0.57813 -1.5625,-0.57813 -1.09375,0 -1.625,0.59375 -0.54687,0.57813 -0.54687,1.625 0,1.01563 0.57812,1.59375 0.57813,0.57813 1.625,0.57813 z m 5.84375,-8.74219 v 0.78125 h -8.5 v -0.78125 z m -10.85937,0.89063 q -0.75,0 -0.75,-0.5 0,-0.23438 0.20312,-0.375 0.1875,-0.14063 0.54688,-0.14063 0.35937,0 0.5625,0.14063 0.20312,0.14062 0.20312,0.375 0,0.5 -0.76562,0.5 z m 10.85937,-9.64844 h -5.51562 q -1.28125,0 -1.85938,0.54687 -0.57812,0.53125 -0.57812,1.65625 0,1.53125 0.76562,2.23438 0.76563,0.70312 2.5,0.70312 h 4.6875 v 0.78125 h -8.5 V 107.575 l 1.17188,-0.15625 v -0.0469 q -1.32813,-0.82813 -1.32813,-2.9375 0,-2.89063 3.09375,-2.89063 h 5.5625 z m -8.5,-10.14063 h 0.54688 l 0.10937,1.75 q 0.875,-0.70313 1.92188,-0.70313 1.21875,0 1.98437,0.82813 0.76563,0.8125 0.76563,2.1875 0,0.57813 -0.0469,0.8125 0.23438,0.45313 0.5625,0.70313 0.32813,0.23437 0.70313,0.23437 0.40625,0 0.59375,-0.29687 0.1875,-0.3125 0.1875,-1.04688 v -1.48438 q 0,-1.375 0.5625,-2.10937 0.54687,-0.73438 1.65625,-0.73438 1.34375,0 2.0625,1.09375 0.73437,1.07813 0.73437,3.09376 0,1.60937 -0.625,2.48437 -0.60937,0.875 -1.70312,0.875 -0.875,0 -1.46875,-0.53125 -0.57813,-0.54687 -0.78125,-1.48437 -0.17188,0.39062 -0.46875,0.625 -0.29688,0.21875 -0.6875,0.21875 -0.85938,0 -1.5,-1.07813 -0.3125,0.73438 -0.95313,1.15625 -0.65625,0.40625 -1.5,0.40625 -1.28125,0 -2.04687,-0.79687 -0.76563,-0.8125 -0.76563,-2.1875 0,-0.84375 0.15625,-1.29688 z m 9.9375,6.875 q 1.75,0 1.75,-2.60937 0,-3.34376 -2.125,-3.34376 -0.76562,0 -1.10937,0.53125 -0.35938,0.51563 -0.35938,1.68751 V 96.7 q 0,2.34375 1.84375,2.34375 z m -7.28125,-0.65625 q 0.98438,0 1.53125,-0.59375 0.53125,-0.59375 0.53125,-1.59375 0,-1.0625 -0.53125,-1.625 -0.54687,-0.57813 -1.5625,-0.57813 -1.09375,0 -1.625,0.59375 -0.54687,0.57813 -0.54687,1.62501 0,1.01562 0.57812,1.59375 0.57813,0.57812 1.625,0.57812 z" />
  <path
     style="fill:#4695eb;fill-rule:evenodd"
     inkscape:connector-curvature="0"
     id="path79"
     d="M 689.41489,211.88482 V 47.56986 h 40.81891 v 164.31496 z" />
  <path
     style="fill-rule:evenodd;stroke:#4695eb;stroke-width:1;stroke-linecap:butt;stroke-linejoin:round"
     inkscape:connector-curvature="0"
     id="path81"
     d="M 689.41489,211.88482 V 47.56986 h 40.81891 v 164.31496 z" />
  <path
     style="fill:#ffffff;fill-rule:nonzero"
     inkscape:connector-curvature="0"
     id="path83"
     d="m 711.65309,173.86015 v 4.64062 l 4.03125,1.59375 v 0.89063 l -11.46875,-4.59375 v -0.51563 l 11.46875,-4.5 v 0.90625 z m -0.71875,4.35937 v -4.09375 l -4.125,1.5625 q -0.48437,0.1875 -1.34375,0.46875 0.75,0.20313 1.35938,0.45313 z m 4.90625,-11.89843 q 0,1.96875 -1.46875,2.85937 v 0.0625 l 0.65625,-0.0312 q 0.57813,-0.0312 1.26563,-0.0312 h 3.23437 v 0.78125 h -12.34375 v -0.65625 l 1.21875,-0.15625 v -0.0469 q -1.375,-0.875 -1.375,-2.79688 0,-1.71875 1.125,-2.60937 1.125,-0.90625 3.28125,-0.90625 2.09375,0 3.25,0.95312 1.15625,0.9375 1.15625,2.57813 z m -0.6875,0.0156 q 0,-1.29687 -0.96875,-2.01562 -0.96875,-0.71875 -2.71875,-0.71875 -3.73437,0 -3.73437,2.70312 0,1.48438 0.8125,2.1875 0.8125,0.6875 2.65625,0.6875 h 0.25 q 2,0 2.85937,-0.65625 0.84375,-0.67187 0.84375,-2.1875 z m 0.53125,-11.05469 -1.34375,0.1875 v 0.0625 q 0.8125,0.64063 1.15625,1.32813 0.34375,0.67187 0.34375,1.59375 0,1.25 -0.64062,1.95312 -0.64063,0.6875 -1.78125,0.6875 -1.23438,0 -1.92188,-1.03125 -0.6875,-1.04687 -0.73437,-3 l -0.0469,-1.625 h -0.5625 q -1.20312,0 -1.8125,0.5 -0.625,0.48438 -0.625,1.57813 0,1.1875 0.65625,2.45312 l -0.67187,0.28125 q -0.65625,-1.39062 -0.65625,-2.76562 0,-1.39063 0.73437,-2.07813 0.71875,-0.70312 2.25,-0.70312 h 5.65625 z m -0.54687,3.125 q 0,-1.35937 -0.78125,-2.14062 -0.78125,-0.79688 -2.15625,-0.79688 h -0.84375 l 0.0625,1.48438 q 0.0937,1.79687 0.5625,2.5625 0.46875,0.75 1.46875,0.75 0.79687,0 1.25,-0.48438 0.4375,-0.48437 0.4375,-1.375 z m 0.70312,-9.83593 q 0,1.8125 -1.14062,2.84375 -1.15625,1.03125 -3.21875,1.03125 -2.10938,0 -3.28125,-1.0625 -1.17188,-1.07813 -1.17188,-2.9375 0,-1.09375 0.375,-2.10938 l 0.6875,0.21875 q -0.35937,1.09375 -0.35937,1.90625 0,1.5625 0.96875,2.375 0.95312,0.79688 2.76562,0.79688 1.71875,0 2.70313,-0.79688 0.96875,-0.8125 0.96875,-2.25 0,-1.15625 -0.42188,-2.15625 h 0.71875 q 0.40625,0.8125 0.40625,2.14063 z m -0.15625,-10.13282 h -5.51562 q -1.28125,0 -1.85938,0.54688 -0.57812,0.53125 -0.57812,1.65625 0,1.53125 0.76562,2.23437 0.76563,0.70313 2.5,0.70313 h 4.6875 v 0.78127 h -12.15625 v -0.78125 h 3.85938 l 1.09375,0.0469 v -0.0625 q -0.76563,-0.46875 -1.10938,-1.1875 -0.34375,-0.73437 -0.34375,-1.8125 0,-2.89062 3.09375,-2.89062 h 5.5625 z m 0.15625,-6.95312 q 0,1.85937 -1.14062,2.89062 -1.14063,1.03125 -3.20313,1.03125 -2.03125,0 -3.25,-1 -1.21875,-1 -1.21875,-2.6875 0,-1.5 1.04688,-2.35937 1.04687,-0.875 2.84375,-0.875 h 0.625 v 6.10937 q 1.75,-0.0156 2.67187,-0.8125 0.92188,-0.79687 0.92188,-2.29687 0,-0.71875 -0.0937,-1.26563 -0.10938,-0.5625 -0.45313,-1.40625 h 0.70313 q 0.3125,0.71875 0.42187,1.32813 0.125,0.60937 0.125,1.34375 z m -8.125,0.23437 q 0,1.21875 0.8125,1.96875 0.79688,0.73438 2.32813,0.85938 v -5.25 q -1.48438,0 -2.3125,0.64062 -0.82813,0.64063 -0.82813,1.78125 z m -2.90625,-14.8125 q 0,2.15625 1.375,3.39063 1.375,1.23437 3.76563,1.23437 2.45312,0 3.8125,-1.15625 1.34375,-1.17187 1.34375,-3.34375 0,-1.4375 -0.375,-2.64062 h 0.70312 q 0.40625,1.14062 0.40625,2.82812 0,2.40625 -1.54687,3.79688 -1.5625,1.375 -4.35938,1.375 -1.73437,0 -3.0625,-0.65625 -1.32812,-0.65625 -2.04687,-1.89063 -0.73438,-1.25 -0.73438,-2.89062 0,-1.67188 0.625,-2.98438 l 0.71875,0.3125 q -0.625,1.25 -0.625,2.625 z m 10.875,-10.01562 -1.34375,0.1875 v 0.0625 q 0.8125,0.64062 1.15625,1.32812 0.34375,0.67188 0.34375,1.59375 0,1.25 -0.64062,1.95313 -0.64063,0.6875 -1.78125,0.6875 -1.23438,0 -1.92188,-1.03125 -0.6875,-1.04688 -0.73437,-3 l -0.0469,-1.625 h -0.5625 q -1.20312,0 -1.8125,0.5 -0.625,0.48437 -0.625,1.57812 0,1.1875 0.65625,2.45313 l -0.67187,0.28125 q -0.65625,-1.39063 -0.65625,-2.76563 0,-1.39062 0.73437,-2.07812 0.71875,-0.70313 2.25,-0.70313 h 5.65625 z m -0.54687,3.125 q 0,-1.35938 -0.78125,-2.14063 -0.78125,-0.79687 -2.15625,-0.79687 h -0.84375 l 0.0625,1.48437 q 0.0937,1.79688 0.5625,2.5625 0.46875,0.75 1.46875,0.75 0.79687,0 1.25,-0.48437 0.4375,-0.48438 0.4375,-1.375 z m 0.54687,-17.0547 h -5.57812 q -1.23438,0 -1.79688,0.48438 -0.57812,0.48437 -0.57812,1.48437 0,1.29689 0.71875,1.92189 0.71875,0.625 2.25,0.625 h 4.98437 v 0.79687 h -5.8125 q -2.14062,0 -2.14062,1.96875 0,1.32813 0.78125,1.9375 0.76562,0.60938 2.48437,0.60938 h 4.6875 v 0.78125 h -8.5 v -0.64063 l 1.17188,-0.17187 v -0.0469 q -0.64063,-0.34375 -0.98438,-0.98437 -0.34375,-0.65625 -0.34375,-1.4375 0,-2.01563 1.5,-2.57813 v -0.0312 q -0.71875,-0.42187 -1.10937,-1.10937 -0.39063,-0.70313 -0.39063,-1.59376 0,-1.39063 0.75,-2.07813 0.73438,-0.70312 2.34375,-0.70312 h 5.5625 z m 0.15625,-6.95312 q 0,1.85937 -1.14062,2.89062 -1.14063,1.03125 -3.20313,1.03125 -2.03125,0 -3.25,-1 -1.21875,-1 -1.21875,-2.6875 0,-1.5 1.04688,-2.35936 1.04687,-0.875 2.84375,-0.875 h 0.625 v 6.10936 q 1.75,-0.0156 2.67187,-0.8125 0.92188,-0.79687 0.92188,-2.29687 0,-0.71875 -0.0937,-1.26563 -0.10938,-0.5625 -0.45313,-1.40624 h 0.70313 q 0.3125,0.71874 0.42187,1.32812 0.125,0.60937 0.125,1.34375 z m -8.125,0.23437 q 0,1.21875 0.8125,1.96875 0.79688,0.73438 2.32813,0.85938 v -5.24999 q -1.48438,0 -2.3125,0.64061 -0.82813,0.64063 -0.82813,1.78125 z m 7.96875,-6.35936 v 0.78125 h -12.15625 v -0.78125 z" />
  <path
     style="fill:#4695eb;fill-rule:evenodd"
     inkscape:connector-curvature="0"
     id="path85"
     d="M 753.83529,211.88482 V 47.56986 h 40.81891 v 164.31496 z" />
  <path
     style="fill-rule:evenodd;stroke:#4695eb;stroke-width:1;stroke-linecap:butt;stroke-linejoin:round"
     inkscape:connector-curvature="0"
     id="path87"
     d="M 753.83529,211.88482 V 47.56986 h 40.81891 v 164.31496 z" />
  <path
     style="fill:#ffffff;fill-rule:nonzero"
     inkscape:connector-curvature="0"
     id="path89"
     d="m 779.49532,134.16875 q -0.76563,0 -0.76563,-0.625 0,-0.64063 0.76563,-0.64063 0.76562,0 0.76562,0.64063 0,0.625 -0.76562,0.625 z m 0,-3.80469 q -0.76563,0 -0.76563,-0.625 0,-0.64062 0.76563,-0.64062 0.76562,0 0.76562,0.64062 0,0.625 -0.76562,0.625 z m 0,-3.80469 q -0.76563,0 -0.76563,-0.625 0,-0.64062 0.76563,-0.64062 0.76562,0 0.76562,0.64062 0,0.625 -0.76562,0.625 z" />
  <path
     style="fill:#4695eb;fill-rule:evenodd"
     inkscape:connector-curvature="0"
     id="path91"
     d="m 0.5,237.36089 h 616.75586 v 50.01575 H 0.5 Z" />
  <path
     style="fill-rule:evenodd;stroke:#4695eb;stroke-width:1;stroke-linecap:butt;stroke-linejoin:round"
     inkscape:connector-curvature="0"
     id="path93"
     d="m 0.5,237.36089 h 616.75586 v 50.01575 H 0.5 Z" />
  <path
     style="fill:#ffffff;fill-rule:nonzero"
     inkscape:connector-curvature="0"
     id="path95"
     d="m 260.53426,262.6169 q 0,2.42188 -0.92187,4.07813 -0.92188,1.65625 -2.6875,2.32812 l 3.1875,3.4375 h -2.9375 l -2.51563,-2.98437 h -0.35937 q -3,0 -4.625,-1.78125 -1.60938,-1.79688 -1.60938,-5.10938 0,-3.29687 1.625,-5.0625 1.625,-1.76562 4.64063,-1.76562 2.96875,0 4.57812,1.79687 1.625,1.79688 1.625,5.0625 z m -10.15625,0 q 0,2.45313 0.98438,3.73438 1,1.26562 2.9375,1.26562 1.95312,0 2.9375,-1.25 0.98437,-1.26562 0.98437,-3.75 0,-2.45312 -0.98437,-3.71875 -0.96875,-1.26562 -2.90625,-1.26562 -1.96875,0 -2.96875,1.26562 -0.98438,1.26563 -0.98438,3.71875 z m 19.90326,6.67188 -0.3125,-1.32813 h -0.10938 q -0.4375,0.70313 -1.26562,1.10938 -0.82813,0.40625 -1.875,0.40625 -1.82813,0 -2.73438,-0.90625 -0.90625,-0.92188 -0.90625,-2.76563 v -6.59375 h 2.15625 v 6.21875 q 0,1.15625 0.46875,1.73438 0.48438,0.57812 1.5,0.57812 1.34375,0 1.96875,-0.79687 0.64063,-0.8125 0.64063,-2.71875 v -5.01563 h 2.15625 v 10.07813 z m 11.02985,0 -0.42188,-1.40625 h -0.0781 q -0.71875,0.92187 -1.46875,1.26562 -0.73438,0.32813 -1.89063,0.32813 -1.48437,0 -2.32812,-0.79688 -0.82813,-0.8125 -0.82813,-2.28125 0,-1.5625 1.15625,-2.34375 1.17188,-0.79687 3.53125,-0.875 l 1.73438,-0.0469 v -0.54688 q 0,-0.95312 -0.45313,-1.4375 -0.4375,-0.48437 -1.39062,-0.48437 -0.76563,0 -1.48438,0.23437 -0.70312,0.23438 -1.35937,0.53125 l -0.70313,-1.51562 q 0.82813,-0.4375 1.79688,-0.65625 0.98437,-0.21875 1.84375,-0.21875 1.92187,0 2.89062,0.84375 0.98438,0.82812 0.98438,2.625 v 6.78125 z m -3.1875,-1.45313 q 1.17187,0 1.875,-0.65625 0.70312,-0.65625 0.70312,-1.82812 v -0.875 l -1.28125,0.0625 q -1.51562,0.0469 -2.20312,0.5 -0.6875,0.45312 -0.6875,1.375 0,0.67187 0.39062,1.04687 0.40625,0.375 1.20313,0.375 z m 12.82208,-8.79687 q 0.64062,0 1.0625,0.0781 l -0.20313,2 q -0.45312,-0.10937 -0.95312,-0.10937 -1.28125,0 -2.07813,0.84375 -0.79687,0.82812 -0.79687,2.17187 v 5.26563 h -2.14063 v -10.07811 h 1.67188 l 0.28125,1.78125 h 0.10937 q 0.5,-0.90625 1.3125,-1.42187 0.8125,-0.53125 1.73438,-0.53125 z m 4.99679,4.9375 1.21875,-1.51563 3.04688,-3.25 h 2.46875 l -4.0625,4.32813 4.3125,5.75 h -2.51563 l -3.23437,-4.42188 -1.17188,0.96875 v 3.45313 h -2.125 V 255.1169 h 2.125 v 6.90625 l -0.10937,1.95313 z m 15.71412,5.3125 -0.3125,-1.32813 h -0.10938 q -0.4375,0.70313 -1.26562,1.10938 -0.82813,0.40625 -1.875,0.40625 -1.82813,0 -2.73438,-0.90625 -0.90625,-0.92188 -0.90625,-2.76563 v -6.59375 h 2.15625 v 6.21875 q 0,1.15625 0.46875,1.73438 0.48438,0.57812 1.5,0.57812 1.34375,0 1.96875,-0.79687 0.64063,-0.8125 0.64063,-2.71875 v -5.01563 h 2.15625 v 10.07813 z m 11.49859,-2.875 q 0,1.48437 -1.07812,2.28125 -1.0625,0.78125 -3.07813,0.78125 -2.01562,0 -3.23437,-0.60938 v -1.85937 q 1.78125,0.82812 3.3125,0.82812 1.96875,0 1.96875,-1.20312 0,-0.375 -0.21875,-0.625 -0.21875,-0.26563 -0.71875,-0.53125 -0.5,-0.28125 -1.39063,-0.625 -1.73437,-0.67188 -2.35937,-1.34375 -0.60938,-0.67188 -0.60938,-1.75 0,-1.29688 1.04688,-2 1.04687,-0.71875 2.82812,-0.71875 1.78125,0 3.375,0.71875 l -0.70312,1.60937 q -1.625,-0.67187 -2.73438,-0.67187 -1.70312,0 -1.70312,0.95312 0,0.48438 0.4375,0.8125 0.45312,0.32813 1.9375,0.89063 1.25,0.48437 1.8125,0.89062 0.5625,0.40625 0.82812,0.9375 0.28125,0.51563 0.28125,1.23438 z m 13.05341,-8.76563 q -1.875,0 -2.95313,1.32813 -1.07812,1.32812 -1.07812,3.67187 0,2.45313 1.03125,3.71875 1.04687,1.25 3,1.25 0.84375,0 1.64062,-0.17187 0.79688,-0.17188 1.65625,-0.4375 v 1.875 q -1.57812,0.59375 -3.5625,0.59375 -2.92187,0 -4.48437,-1.76563 -1.5625,-1.78125 -1.5625,-5.07812 0,-2.07813 0.75,-3.625 0.76562,-1.5625 2.20312,-2.39063 1.4375,-0.84375 3.375,-0.84375 2.04688,0 3.78125,0.85938 l -0.78125,1.8125 q -0.6875,-0.3125 -1.4375,-0.54688 -0.75,-0.25 -1.57812,-0.25 z m 14.87103,6.57813 q 0,2.46875 -1.26562,3.85937 -1.26563,1.39063 -3.53125,1.39063 -1.40625,0 -2.5,-0.64063 -1.07813,-0.64062 -1.67188,-1.82812 -0.57812,-1.20313 -0.57812,-2.78125 0,-2.4375 1.25,-3.8125 1.26562,-1.375 3.5625,-1.375 2.1875,0 3.45312,1.40625 1.28125,1.40625 1.28125,3.78125 z m -7.32812,0 q 0,3.5 2.57812,3.5 2.54688,0 2.54688,-3.5 0,-3.45313 -2.57813,-3.45313 -1.34375,0 -1.95312,0.90625 -0.59375,0.89063 -0.59375,2.54688 z m 14.89596,-5.1875 q 0.64063,0 1.0625,0.0781 l -0.20312,2 q -0.45313,-0.10937 -0.95313,-0.10937 -1.28125,0 -2.07812,0.84375 -0.79688,0.82812 -0.79688,2.17187 v 5.26563 h -2.14062 v -10.07811 h 1.67187 l 0.28125,1.78125 h 0.10938 q 0.5,-0.90625 1.3125,-1.42187 0.8125,-0.53125 1.73437,-0.53125 z m 7.34055,10.4375 q -2.35938,0 -3.6875,-1.375 -1.32813,-1.375 -1.32813,-3.78125 0,-2.46875 1.23438,-3.875 1.23437,-1.40625 3.375,-1.40625 2,0 3.15625,1.21875 1.15625,1.20312 1.15625,3.3125 v 1.15625 h -6.70313 q 0.0312,1.46875 0.78125,2.26562 0.75,0.78125 2.10938,0.78125 0.89062,0 1.65625,-0.15625 0.78125,-0.17187 1.65625,-0.5625 v 1.73438 q -0.78125,0.375 -1.59375,0.53125 -0.79688,0.15625 -1.8125,0.15625 z m -0.40625,-8.82813 q -1.01563,0 -1.64063,0.65625 -0.60937,0.64063 -0.71875,1.875 h 4.57813 q -0.0312,-1.23437 -0.60938,-1.875 -0.57812,-0.65625 -1.60937,-0.65625 z" />
  <path
     style="fill:#4695eb;fill-rule:evenodd"
     inkscape:connector-curvature="0"
     id="path97"
     d="M 640.84909,237.36089 H 839.33725 V 356.03805 H 640.84909 Z" />
  <path
     style="fill-rule:evenodd;stroke:#4695eb;stroke-width:1;stroke-linecap:butt;stroke-linejoin:round"
     inkscape:connector-curvature="0"
     id="path99"
     d="M 640.84909,237.36089 H 839.33725 V 356.03805 H 640.84909 Z" />
  <path
     style="fill:#ffffff;fill-rule:nonzero"
     inkscape:connector-curvature="0"
     id="path101"
     d="m 718.29684,298.91635 h -5.40625 l -1.85938,4.70312 h -1.03125 l 5.35938,-13.375 h 0.59375 l 5.25,13.375 h -1.0625 z m -5.07813,-0.82813 h 4.76563 l -1.8125,-4.8125 q -0.21875,-0.5625 -0.54688,-1.5625 -0.23437,0.875 -0.53125,1.57813 z m 13.53931,-4.5625 q 0.625,0 1.34375,0.125 l -0.17187,0.875 q -0.625,-0.15625 -1.28125,-0.15625 -1.26563,0 -2.07813,1.07813 -0.8125,1.0625 -0.8125,2.70312 v 5.46875 h -0.90625 v -9.90625 h 0.76563 l 0.0937,1.79688 h 0.0625 q 0.60937,-1.09375 1.29687,-1.53125 0.70313,-0.45313 1.6875,-0.45313 z m 7.30713,10.28125 q -2.125,0 -3.32812,-1.34375 -1.20313,-1.34375 -1.20313,-3.73437 0,-2.45313 1.25,-3.82813 1.25,-1.375 3.42188,-1.375 1.28125,0 2.45312,0.45313 l -0.23437,0.79687 q -1.29688,-0.4375 -2.23438,-0.4375 -1.82812,0 -2.76562,1.14063 -0.9375,1.125 -0.9375,3.23437 0,2 0.9375,3.14063 0.9375,1.125 2.625,1.125 1.34375,0 2.5,-0.48438 v 0.84375 q -0.9375,0.46875 -2.48438,0.46875 z m 8.85046,-5.29687 q 0,-2.42188 0.70313,-4.51563 0.70312,-2.10937 2.03125,-3.6875 h 1.03125 q -1.34375,1.65625 -2.0625,3.76563 -0.71875,2.09375 -0.71875,4.42187 0,4.39063 2.76562,8.07813 h -1.01562 q -1.32813,-1.54688 -2.03125,-3.60938 -0.70313,-2.07812 -0.70313,-4.45312 z m 16.32398,-1.67188 q 0,3.34375 -1.76562,5.0625 -1.75,1.71875 -5.15625,1.71875 h -3.1875 v -13.3125 h 3.59375 q 3.1875,0 4.84375,1.67188 1.67187,1.65625 1.67187,4.85937 z m -1.01562,0.0312 q 0,-2.85937 -1.45313,-4.29687 -1.45312,-1.45313 -4.26562,-1.45313 h -2.45313 v 11.6875 h 2.20313 q 5.96875,0 5.96875,-5.9375 z m 4.07855,6.75 v -13.3125 h 0.92187 v 13.3125 z m 7.138,-5.10937 q 0,2.39062 -0.70313,4.46875 -0.70312,2.0625 -2.04687,3.59375 h -1 q 2.76562,-3.6875 2.76562,-8.07813 0,-2.34375 -0.71875,-4.4375 -0.71875,-2.10937 -2.0625,-3.75 h 1.01563 q 1.34375,1.59375 2.04687,3.70313 0.70313,2.10937 0.70313,4.5 z" />
  <path
     style="fill:#4695eb;fill-rule:evenodd"
     inkscape:connector-curvature="0"
     id="path103"
     d="m 0.5,306.01027 h 192.94489 v 50.01575 H 0.5 Z" />
  <path
     style="fill-rule:evenodd;stroke:#4695eb;stroke-width:1;stroke-linecap:butt;stroke-linejoin:round"
     inkscape:connector-curvature="0"
     id="path105"
     d="m 0.5,306.01027 h 192.94489 v 50.01575 H 0.5 Z" />
  <path
     style="fill:#ffffff;fill-rule:nonzero"
     inkscape:connector-curvature="0"
     id="path107"
     d="m 68.609204,341.29755 q -0.84375,0 -1.375,-0.25 v -0.79688 q 0.70313,0.1875 1.35938,0.1875 2.20312,0 2.20312,-2.40625 v -13.40625 h 0.92188 v 13.3125 q 0,3.35938 -3.10938,3.35938 z m 12.57816,-3.35938 -0.23438,-1.5625 h -0.0625 q -0.75,0.95313 -1.54687,1.35938 -0.78125,0.39062 -1.85938,0.39062 -1.45312,0 -2.26562,-0.75 -0.8125,-0.75 -0.8125,-2.0625 0,-1.45312 1.20312,-2.25 1.21875,-0.8125 3.5,-0.85937 l 1.89063,-0.0469 v -0.65625 q 0,-1.42187 -0.57813,-2.14062 -0.57812,-0.71875 -1.84375,-0.71875 -1.375,0 -2.85937,0.76562 l -0.32813,-0.78125 q 1.625,-0.76562 3.21875,-0.76562 1.625,0 2.42188,0.85937 0.8125,0.84375 0.8125,2.625 v 6.59375 z m -3.64063,-0.64062 q 1.57813,0 2.48438,-0.90625 0.92187,-0.90625 0.92187,-2.51563 v -0.96875 l -1.71875,0.0625 q -2.09375,0.10938 -2.98437,0.65625 -0.89063,0.54688 -0.89063,1.71875 0,0.92188 0.5625,1.4375 0.57813,0.51563 1.625,0.51563 z m 14.41505,0.64062 v -6.42187 q 0,-1.5 -0.625,-2.17188 -0.625,-0.6875 -1.95312,-0.6875 -1.78125,0 -2.60938,0.90625 -0.8125,0.89063 -0.8125,2.90625 v 5.46875 h -0.90625 v -9.90625 h 0.76563 l 0.17187,1.35938 h 0.0625 q 0.95313,-1.54688 3.42188,-1.54688 3.375,0 3.375,3.60938 v 6.48437 z m 7.72303,-10.09375 q 1.078116,0 1.859366,0.39063 0.78125,0.39062 1.40625,1.34375 h 0.0469 q -0.0469,-1.15625 -0.0469,-2.25 v -3.5625 h 0.89063 v 14.17187 h -0.59375 l -0.21875,-1.51562 h -0.0781 q -1.125,1.70312 -3.249996,1.70312 -2.04687,0 -3.14062,-1.28125 -1.07813,-1.28125 -1.07813,-3.71875 0,-2.5625 1.07813,-3.92187 1.07812,-1.35938 3.125,-1.35938 z m 0,0.8125 q -1.625,0 -2.4375,1.14063 -0.8125,1.14062 -0.8125,3.3125 0,4.20312 3.26562,4.20312 1.687496,0 2.468746,-0.96875 0.78125,-0.96875 0.78125,-3.21875 v -0.15625 q 0,-2.29687 -0.78125,-3.29687 -0.76562,-1.01563 -2.484366,-1.01563 z m 11.479466,9.46875 q -2.15625,0 -3.375,-1.32812 -1.20312,-1.34375 -1.20312,-3.73438 0,-2.35937 1.17187,-3.78125 1.17188,-1.4375 3.14063,-1.4375 1.75,0 2.76562,1.21875 1.01563,1.21875 1.01563,3.3125 v 0.73438 h -7.14063 q 0.0156,2.04687 0.95313,3.125 0.9375,1.0625 2.67187,1.0625 0.84375,0 1.48438,-0.10938 0.64062,-0.125 1.625,-0.51562 v 0.8125 q -0.82813,0.375 -1.54688,0.5 -0.70312,0.14062 -1.5625,0.14062 z m -0.26562,-9.48437 q -1.42188,0 -2.29688,0.95312 -0.85937,0.9375 -1,2.71875 h 6.10938 q 0,-1.71875 -0.75,-2.6875 -0.73438,-0.98437 -2.0625,-0.98437 z m 8.9422,4.20312 -3.45313,-4.8125 h 1.03125 l 2.95313,4.17188 2.92187,-4.17188 h 1 l -3.40625,4.8125 3.65625,5.09375 h -1.04687 l -3.125,-4.42187 -3.125,4.42187 h -1 z" />
  <path
     style="fill:#4695eb;fill-rule:evenodd"
     inkscape:connector-curvature="0"
     id="path109"
     d="m 217.58004,306.01027 h 190.55118 v 50.01575 H 217.58004 Z" />
  <path
     style="fill-rule:evenodd;stroke:#4695eb;stroke-width:1;stroke-linecap:butt;stroke-linejoin:round"
     inkscape:connector-curvature="0"
     id="path111"
     d="m 217.58004,306.01027 h 190.55118 v 50.01575 H 217.58004 Z" />
  <path
     style="fill:#ffffff;fill-rule:nonzero"
     inkscape:connector-curvature="0"
     id="path113"
     d="m 293.12585,331.21941 h 4.90625 v 6.07813 q -1.92188,0.82812 -4.34375,0.82812 -3.15625,0 -4.84375,-1.78125 -1.67188,-1.78125 -1.67188,-5.04687 0,-2.03125 0.82813,-3.59375 0.84375,-1.57813 2.39062,-2.4375 1.5625,-0.85938 3.57813,-0.85938 2.17187,0 3.90625,0.8125 l -0.375,0.82813 q -1.73438,-0.79688 -3.59375,-0.79688 -2.625,0 -4.17188,1.625 -1.54687,1.625 -1.54687,4.39063 0,3 1.46875,4.51562 1.46875,1.51563 4.3125,1.51563 1.82812,0 3.125,-0.51563 v -4.6875 h -3.96875 z m 8.92865,6.71875 h -0.90625 v -9.90625 h 0.90625 z m -1.03125,-12.65625 q 0,-0.875 0.57813,-0.875 0.28125,0 0.4375,0.23438 0.15625,0.21875 0.15625,0.64062 0,0.40625 -0.15625,0.65625 -0.15625,0.23438 -0.4375,0.23438 -0.57813,0 -0.57813,-0.89063 z m 10.49896,12.65625 h -7.0625 v -0.57812 l 5.875,-8.51563 h -5.45312 v -0.8125 h 6.625 v 0.57813 l -5.90625,8.53125 h 5.92187 z m 14.81812,0 v -6.5 q 0,-1.4375 -0.5625,-2.10937 -0.5625,-0.67188 -1.73438,-0.67188 -1.51562,0 -2.25,0.84375 -0.73437,0.84375 -0.73437,2.64063 v 5.79687 h -0.92188 v -6.76562 q 0,-2.51563 -2.29687,-2.51563 -1.54688,0 -2.26563,0.92188 -0.70312,0.90625 -0.70312,2.89062 v 5.46875 h -0.90625 v -9.90625 h 0.75 l 0.1875,1.35938 h 0.0625 q 0.40625,-0.73438 1.15625,-1.14063 0.76562,-0.40625 1.67187,-0.40625 2.34375,0 3,1.76563 h 0.0469 q 0.48437,-0.85938 1.29687,-1.3125 0.8125,-0.45313 1.84375,-0.45313 1.625,0 2.4375,0.875 0.8125,0.85938 0.8125,2.73438 v 6.48437 z m 12.28247,-4.96875 q 0,2.42188 -1.17188,3.79688 -1.17187,1.35937 -3.25,1.35937 -1.29687,0 -2.29687,-0.625 -0.98438,-0.64062 -1.51563,-1.8125 -0.53125,-1.17187 -0.53125,-2.71875 0,-2.42187 1.17188,-3.76562 1.1875,-1.35938 3.23437,-1.35938 2.04688,0 3.20313,1.375 1.15625,1.375 1.15625,3.75 z m -7.8125,0 q 0,2.04688 0.89062,3.1875 0.90625,1.14063 2.54688,1.14063 1.64062,0 2.53125,-1.14063 0.90625,-1.14062 0.90625,-3.1875 0,-2.04687 -0.90625,-3.17187 -0.90625,-1.14063 -2.54688,-1.14063 -1.64062,0 -2.53125,1.14063 -0.89062,1.125 -0.89062,3.17187 z" />
  <path
     style="fill:#4695eb;fill-rule:evenodd"
     inkscape:connector-curvature="0"
     id="path115"
     d="m 431.73359,306.0089 h 185.51178 v 50.01575 H 431.73359 Z" />
  <path
     style="fill-rule:evenodd;stroke:#4695eb;stroke-width:1;stroke-linecap:butt;stroke-linejoin:round"
     inkscape:connector-curvature="0"
     id="path117"
     d="m 431.73359,306.0089 h 185.51178 v 50.01575 H 431.73359 Z" />
  <path
     style="fill:#ffffff;fill-rule:nonzero"
     inkscape:connector-curvature="0"
     id="path119"
     d="m 489.73359,331.21801 h 4.90625 v 6.07812 q -1.92187,0.82813 -4.34375,0.82813 -3.15625,0 -4.84375,-1.78125 -1.67187,-1.78125 -1.67187,-5.04688 0,-2.03125 0.82812,-3.59375 0.84375,-1.57812 2.39063,-2.4375 1.5625,-0.85937 3.57812,-0.85937 2.17188,0 3.90625,0.8125 l -0.375,0.82812 q -1.73437,-0.79687 -3.59375,-0.79687 -2.625,0 -4.17187,1.625 -1.54688,1.625 -1.54688,4.39062 0,3 1.46875,4.51563 1.46875,1.51562 4.3125,1.51562 1.82813,0 3.125,-0.51562 v -4.6875 h -3.96875 z m 11.92865,-3.375 q 0.625,0 1.34375,0.125 l -0.17188,0.875 q -0.625,-0.15625 -1.28125,-0.15625 -1.26562,0 -2.07812,1.07812 -0.8125,1.0625 -0.8125,2.70313 v 5.46875 h -0.90625 v -9.90625 h 0.76562 l 0.0937,1.79687 h 0.0625 q 0.60938,-1.09375 1.29688,-1.53125 0.70312,-0.45312 1.6875,-0.45312 z m 9.36963,10.09375 -0.23438,-1.5625 h -0.0625 q -0.75,0.95312 -1.54687,1.35937 -0.78125,0.39063 -1.85938,0.39063 -1.45312,0 -2.26562,-0.75 -0.8125,-0.75 -0.8125,-2.0625 0,-1.45313 1.20312,-2.25 1.21875,-0.8125 3.5,-0.85938 l 1.89063,-0.0469 v -0.65625 q 0,-1.42188 -0.57813,-2.14063 -0.57812,-0.71875 -1.84375,-0.71875 -1.375,0 -2.85937,0.76563 l -0.32813,-0.78125 q 1.625,-0.76563 3.21875,-0.76563 1.625,0 2.42188,0.85938 0.8125,0.84375 0.8125,2.625 v 6.59375 z m -3.64063,-0.64063 q 1.57813,0 2.48438,-0.90625 0.92187,-0.90625 0.92187,-2.51562 v -0.96875 l -1.71875,0.0625 q -2.09375,0.10937 -2.98437,0.65625 -0.89063,0.54687 -0.89063,1.71875 0,0.92187 0.5625,1.4375 0.57813,0.51562 1.625,0.51562 z m 13.52442,0.64063 -0.23438,-1.5625 h -0.0625 q -0.75,0.95312 -1.54687,1.35937 -0.78125,0.39063 -1.85938,0.39063 -1.45312,0 -2.26562,-0.75 -0.8125,-0.75 -0.8125,-2.0625 0,-1.45313 1.20312,-2.25 1.21875,-0.8125 3.5,-0.85938 l 1.89063,-0.0469 v -0.65625 q 0,-1.42188 -0.57813,-2.14063 -0.57812,-0.71875 -1.84375,-0.71875 -1.375,0 -2.85937,0.76563 l -0.32813,-0.78125 q 1.625,-0.76563 3.21875,-0.76563 1.625,0 2.42188,0.85938 0.8125,0.84375 0.8125,2.625 v 6.59375 z m -3.64063,-0.64063 q 1.57813,0 2.48438,-0.90625 0.92187,-0.90625 0.92187,-2.51562 v -0.96875 l -1.71875,0.0625 q -2.09375,0.10937 -2.98437,0.65625 -0.89063,0.54687 -0.89063,1.71875 0,0.92187 0.5625,1.4375 0.57813,0.51562 1.625,0.51562 z m 8.4151,0.64063 h -0.90625 v -14.17188 h 0.90625 z m 15.73578,-3.4375 q 0,1.67187 -1.23437,2.65625 -1.21875,0.96875 -3.25,0.96875 -2.4375,0 -3.73438,-0.54688 v -0.92187 q 1.4375,0.60937 3.67188,0.60937 1.64062,0 2.59375,-0.75 0.96875,-0.75 0.96875,-1.96875 0,-0.76562 -0.32813,-1.25 -0.3125,-0.5 -1.03125,-0.90625 -0.71875,-0.42187 -2.125,-0.89062 -2.03125,-0.70313 -2.8125,-1.51563 -0.78125,-0.8125 -0.78125,-2.17187 0,-1.5 1.17188,-2.4375 1.17187,-0.95313 3.01562,-0.95313 1.875,0 3.51563,0.71875 l -0.32813,0.79688 q -1.65625,-0.6875 -3.17187,-0.6875 -1.46875,0 -2.34375,0.6875 -0.875,0.67187 -0.875,1.85937 0,0.73438 0.26562,1.20313 0.26563,0.46875 0.875,0.85937 0.60938,0.375 2.09375,0.90625 1.5625,0.53125 2.34375,1.04688 0.78125,0.5 1.14063,1.14062 0.35937,0.64063 0.35937,1.54688 z m 12.93183,-3.34375 q 0,3.34375 -1.76563,5.0625 -1.75,1.71875 -5.15625,1.71875 h -3.1875 v -13.3125 h 3.59375 q 3.1875,0 4.84375,1.67187 1.67188,1.65625 1.67188,4.85938 z m -1.01563,0.0312 q 0,-2.85938 -1.45312,-4.29688 -1.45313,-1.45312 -4.26563,-1.45312 h -2.45312 v 11.6875 h 2.20312 q 5.96875,0 5.96875,-5.9375 z m 13.03174,6.75 h -1.14063 l -5.10937,-7.03125 -1.78125,1.5625 v 5.46875 h -0.92188 v -13.3125 h 0.92188 v 6.92187 l 1.48437,-1.48437 5.21875,-5.4375 h 1.17188 l -5.45313,5.625 z" />
  <path
     style="fill:#ffffff;fill-rule:evenodd"
     inkscape:connector-curvature="0"
     id="path121"
     d="m 0.57246,374.65783 h 407.55908 v 36.50394 H 0.57246 Z" />
  <path
     style="fill-rule:evenodd;stroke:#4695eb;stroke-width:1;stroke-linecap:butt;stroke-linejoin:round"
     inkscape:connector-curvature="0"
     id="path123"
     d="m 0.57246,374.65783 h 407.55908 v 36.50394 H 0.57246 Z" />
  <path
     style="fill:#4695eb;fill-rule:nonzero"
     inkscape:connector-curvature="0"
     id="path125"
     d="m 180.71689,399.82979 h -1.54688 v -6.26563 h -7.01562 v 6.26563 h -1.54688 v -13.3125 h 1.54688 v 5.65625 h 7.01562 v -5.65625 h 1.54688 z m 12.0457,-5 q 0,2.4375 -1.23437,3.8125 -1.21875,1.375 -3.39063,1.375 -1.34375,0 -2.39062,-0.625 -1.03125,-0.64063 -1.59375,-1.8125 -0.5625,-1.17188 -0.5625,-2.75 0,-2.4375 1.21875,-3.79688 1.21875,-1.375 3.39062,-1.375 2.09375,0 3.32813,1.40625 1.23437,1.39063 1.23437,3.76563 z m -7.60937,0 q 0,1.90625 0.76562,2.92187 0.76563,1 2.25,1 1.48438,0 2.25,-1 0.78125,-1 0.78125,-2.92187 0,-1.90625 -0.78125,-2.89063 -0.76562,-0.98437 -2.26562,-0.98437 -1.48438,0 -2.25,0.96875 -0.75,0.96875 -0.75,2.90625 z m 13.48718,3.9375 q 0.40625,0 0.76562,-0.0625 0.375,-0.0625 0.59375,-0.125 v 1.15625 q -0.23437,0.125 -0.71875,0.20312 -0.48437,0.0781 -0.85937,0.0781 -2.89061,0 -2.89061,-3.0625 v -5.9375 h -1.4375 v -0.71875 l 1.4375,-0.64063 0.62498,-2.125 h 0.875 v 2.3125 h 2.90625 v 1.17188 h -2.90625 v 5.875 q 0,0.90625 0.42188,1.39062 0.4375,0.48438 1.1875,0.48438 z m 11.1018,-2.48438 q 0,1.76563 -1.28125,2.75 -1.26562,0.98438 -3.45312,0.98438 -2.375,0 -3.64063,-0.60938 v -1.5 q 0.8125,0.34375 1.78125,0.54688 0.96875,0.20312 1.92188,0.20312 1.54687,0 2.32812,-0.57812 0.78125,-0.59375 0.78125,-1.64063 0,-0.70312 -0.28125,-1.14062 -0.28125,-0.4375 -0.9375,-0.8125 -0.64062,-0.375 -1.96875,-0.84375 -1.85937,-0.67188 -2.65625,-1.57813 -0.79687,-0.92187 -0.79687,-2.375 0,-1.54687 1.15625,-2.45312 1.15625,-0.92188 3.0625,-0.92188 1.98437,0 3.65625,0.73438 l -0.48438,1.34375 q -1.65625,-0.6875 -3.21875,-0.6875 -1.21875,0 -1.92187,0.53125 -0.6875,0.53125 -0.6875,1.46875 0,0.6875 0.25,1.14062 0.26562,0.4375 0.85937,0.8125 0.60938,0.35938 1.85938,0.79688 2.09375,0.75 2.875,1.60937 0.79687,0.85938 0.79687,2.21875 z m 7.14533,3.73438 q -0.96875,0 -1.78125,-0.35938 -0.8125,-0.35937 -1.35938,-1.10937 h -0.10937 q 0.10937,0.875 0.10937,1.65625 v 4.10937 h -1.5 v -14.46875 h 1.21875 l 0.21875,1.35938 h 0.0625 q 0.59375,-0.8125 1.35938,-1.17188 0.78125,-0.375 1.78125,-0.375 1.98437,0 3.0625,1.35938 1.07812,1.35937 1.07812,3.8125 0,2.45312 -1.09375,3.82812 -1.09375,1.35938 -3.04687,1.35938 z m -0.21875,-9.0625 q -1.53125,0 -2.21875,0.84375 -0.67188,0.84375 -0.70313,2.6875 v 0.34375 q 0,2.10937 0.70313,3.01562 0.70312,0.90625 2.25,0.90625 1.29687,0 2.03125,-1.04687 0.73437,-1.04688 0.73437,-2.89063 0,-1.875 -0.73437,-2.85937 -0.73438,-1 -2.0625,-1 z m 15.6199,3.875 q 0,2.4375 -1.23437,3.8125 -1.21875,1.375 -3.39063,1.375 -1.34375,0 -2.39062,-0.625 -1.03125,-0.64063 -1.59375,-1.8125 -0.5625,-1.17188 -0.5625,-2.75 0,-2.4375 1.21875,-3.79688 1.21875,-1.375 3.39062,-1.375 2.09375,0 3.32813,1.40625 1.23437,1.39063 1.23437,3.76563 z m -7.60937,0 q 0,1.90625 0.76562,2.92187 0.76563,1 2.25,1 1.48438,0 2.25,-1 0.78125,-1 0.78125,-2.92187 0,-1.90625 -0.78125,-2.89063 -0.76562,-0.98437 -2.26562,-0.98437 -1.48438,0 -2.25,0.96875 -0.75,0.96875 -0.75,2.90625 z m 13.48721,3.9375 q 0.40625,0 0.76563,-0.0625 0.375,-0.0625 0.59375,-0.125 v 1.15625 q -0.23438,0.125 -0.71875,0.20312 -0.48438,0.0781 -0.85938,0.0781 -2.89062,0 -2.89062,-3.0625 v -5.9375 h -1.4375 v -0.71875 l 1.4375,-0.64063 0.625,-2.125 h 0.875 v 2.3125 h 2.90625 v 1.17188 h -2.90625 v 5.875 q 0,0.90625 0.42187,1.39062 0.4375,0.48438 1.1875,0.48438 z" />
  <path
     style="fill:#ffffff;fill-rule:evenodd"
     inkscape:connector-curvature="0"
     id="path127"
     d="m 431.73389,374.65735 h 407.65353 v 36.50394 H 431.73389 Z" />
  <path
     style="fill-rule:evenodd;stroke:#4695eb;stroke-width:1;stroke-linecap:butt;stroke-linejoin:round"
     inkscape:connector-curvature="0"
     id="path129"
     d="m 431.73389,374.65735 h 407.65353 v 36.50394 H 431.73389 Z" />
  <path
     style="fill:#4695eb;fill-rule:nonzero"
     inkscape:connector-curvature="0"
     id="path131"
     d="m 589.10419,396.28243 q 0,1.76563 -1.28125,2.75 -1.26562,0.98438 -3.45312,0.98438 -2.375,0 -3.64063,-0.60938 v -1.5 q 0.8125,0.34375 1.78125,0.54688 0.96875,0.20312 1.92188,0.20312 1.54687,0 2.32812,-0.57812 0.78125,-0.59375 0.78125,-1.64063 0,-0.70312 -0.28125,-1.14062 -0.28125,-0.4375 -0.9375,-0.8125 -0.64062,-0.375 -1.96875,-0.84375 -1.85937,-0.67188 -2.65625,-1.57813 -0.79687,-0.92187 -0.79687,-2.375 0,-1.54687 1.15625,-2.45312 1.15625,-0.92188 3.0625,-0.92188 1.98437,0 3.65625,0.73438 l -0.48438,1.34375 q -1.65625,-0.6875 -3.21875,-0.6875 -1.21875,0 -1.92187,0.53125 -0.6875,0.53125 -0.6875,1.46875 0,0.6875 0.25,1.14062 0.26562,0.4375 0.85937,0.8125 0.60938,0.35938 1.85938,0.79688 2.09375,0.75 2.875,1.60937 0.79687,0.85938 0.79687,2.21875 z m 3.92657,-6.4375 v 6.48438 q 0,1.21875 0.54688,1.82812 0.5625,0.59375 1.73437,0.59375 1.57813,0 2.29688,-0.85937 0.71875,-0.85938 0.71875,-2.79688 v -5.25 h 1.51562 v 9.98438 h -1.25 l -0.21875,-1.34375 h -0.0781 q -0.46875,0.75 -1.29688,1.14062 -0.8125,0.39063 -1.875,0.39063 -1.8125,0 -2.71875,-0.85938 -0.90625,-0.875 -0.90625,-2.78125 v -6.53125 z m 14.66938,-0.15625 q 1.96875,0 3.04687,1.34375 1.09375,1.34375 1.09375,3.79688 0,2.45312 -1.09375,3.82812 -1.09375,1.35938 -3.04687,1.35938 -0.96875,0 -1.78125,-0.35938 -0.8125,-0.35937 -1.35938,-1.10937 h -0.10937 l -0.3125,1.28125 h -1.07813 v -14.17188 h 1.5 v 3.4375 q 0,1.15625 -0.0625,2.07813 h 0.0625 q 1.0625,-1.48438 3.14063,-1.48438 z m -0.21875,1.26563 q -1.54688,0 -2.23438,0.89062 -0.6875,0.875 -0.6875,2.98438 0,2.10937 0.70313,3.01562 0.70312,0.90625 2.25,0.90625 1.39062,0 2.07812,-1.01562 0.6875,-1.01563 0.6875,-2.92188 0,-1.95312 -0.6875,-2.90625 -0.6875,-0.95312 -2.10937,-0.95312 z m 13.44806,6.15625 q 0,1.39062 -1.04688,2.15625 -1.03125,0.75 -2.90625,0.75 -1.98437,0 -3.09375,-0.64063 v -1.39062 q 0.71875,0.35937 1.53125,0.57812 0.82813,0.20313 1.59375,0.20313 1.1875,0 1.82813,-0.375 0.64062,-0.39063 0.64062,-1.15625 0,-0.57813 -0.51562,-1 -0.5,-0.42188 -1.96875,-0.98438 -1.39063,-0.51562 -1.98438,-0.89062 -0.57812,-0.39063 -0.875,-0.875 -0.28125,-0.5 -0.28125,-1.1875 0,-1.21875 0.98438,-1.92188 1,-0.71875 2.73437,-0.71875 1.60938,0 3.14063,0.65625 l -0.53125,1.23438 q -1.5,-0.625 -2.71875,-0.625 -1.07813,0 -1.625,0.34375 -0.54688,0.34375 -0.54688,0.92187 0,0.40625 0.20313,0.6875 0.20312,0.28125 0.65625,0.54688 0.45312,0.25 1.75,0.73437 1.78125,0.64063 2.40625,1.29688 0.625,0.65625 0.625,1.65625 z m 5.68121,1.65625 q 0.40625,0 0.76563,-0.0625 0.375,-0.0625 0.59375,-0.125 v 1.15625 q -0.23438,0.125 -0.71875,0.20312 -0.48438,0.0781 -0.85938,0.0781 -2.89062,0 -2.89062,-3.0625 v -5.9375 h -1.4375 v -0.71875 l 1.4375,-0.64063 0.625,-2.125 h 0.875 v 2.3125 h 2.90625 v 1.17188 h -2.90625 v 5.875 q 0,0.90625 0.42187,1.39062 0.4375,0.48438 1.1875,0.48438 z m 7.91431,-9.10938 q 0.67187,0 1.1875,0.10938 l -0.20313,1.40625 q -0.625,-0.14063 -1.09375,-0.14063 -1.20312,0 -2.07812,0.98438 -0.85938,0.98437 -0.85938,2.45312 v 5.35938 h -1.5 v -9.98438 h 1.23438 l 0.1875,1.84375 h 0.0625 q 0.5625,-0.96875 1.34375,-1.5 0.78125,-0.53125 1.71875,-0.53125 z m 9.20929,10.17188 -0.3125,-1.42188 h -0.0625 q -0.75,0.9375 -1.5,1.28125 -0.73438,0.32813 -1.84375,0.32813 -1.48438,0 -2.32813,-0.76563 -0.84375,-0.76562 -0.84375,-2.1875 0,-3.01562 4.82813,-3.17187 l 1.70312,-0.0469 v -0.625 q 0,-1.17187 -0.51562,-1.73437 -0.5,-0.5625 -1.60938,-0.5625 -1.25,0 -2.82812,0.76562 l -0.45313,-1.15625 q 0.73438,-0.39062 1.60938,-0.60937 0.875,-0.23438 1.76562,-0.23438 1.78125,0 2.64063,0.79688 0.85937,0.78125 0.85937,2.53125 v 6.8125 z m -3.42188,-1.0625 q 1.40625,0 2.20313,-0.76563 0.8125,-0.78125 0.8125,-2.1875 v -0.89062 l -1.5,0.0625 q -1.8125,0.0625 -2.60938,0.5625 -0.79687,0.48437 -0.79687,1.54687 0,0.8125 0.5,1.25 0.5,0.42188 1.39062,0.42188 z m 10.87567,0 q 0.40625,0 0.76563,-0.0625 0.375,-0.0625 0.59375,-0.125 v 1.15625 q -0.23438,0.125 -0.71875,0.20312 -0.48438,0.0781 -0.85938,0.0781 -2.89062,0 -2.89062,-3.0625 v -5.9375 h -1.4375 v -0.71875 l 1.4375,-0.64063 0.625,-2.125 h 0.875 v 2.3125 h 2.90625 v 1.17188 h -2.90625 v 5.875 q 0,0.90625 0.42187,1.39062 0.4375,0.48438 1.1875,0.48438 z m 7.58618,1.25 q -2.21875,0 -3.5,-1.34375 -1.28125,-1.35938 -1.28125,-3.75 0,-2.42188 1.1875,-3.84375 1.1875,-1.42188 3.1875,-1.42188 1.89063,0 2.96875,1.23438 1.09375,1.23437 1.09375,3.26562 v 0.95313 h -6.875 q 0.0469,1.76562 0.89063,2.67187 0.84375,0.90625 2.375,0.90625 1.60937,0 3.1875,-0.67187 v 1.34375 q -0.79688,0.34375 -1.51563,0.5 -0.71875,0.15625 -1.71875,0.15625 z m -0.42187,-9.09375 q -1.20313,0 -1.92188,0.79687 -0.70312,0.78125 -0.82812,2.15625 h 5.21875 q 0,-1.42187 -0.64063,-2.1875 -0.64062,-0.76562 -1.82812,-0.76562 z m 14.49805,-4.40625 h 1.67187 l -4.8125,13.3125 h -1.53125 l -4.76562,-13.3125 h 1.64062 l 3.0625,8.60937 q 0.53125,1.48438 0.82813,2.89063 0.32812,-1.46875 0.85937,-2.9375 z m 9.38574,13.3125 -4.51563,-11.8125 h -0.0625 q 0.125,1.40625 0.125,3.34375 v 8.46875 h -1.4375 v -13.3125 h 2.32813 l 4.21875,10.98437 h 0.0781 l 4.25,-10.98437 h 2.3125 v 13.3125 h -1.54687 v -8.57813 q 0,-1.48437 0.125,-3.20312 h -0.0625 l -4.5625,11.78125 z" />
</svg>
