<?xml version="1.0" encoding="UTF-8" standalone="no"?>
<svg
   xmlns:dc="http://purl.org/dc/elements/1.1/"
   xmlns:cc="http://creativecommons.org/ns#"
   xmlns:rdf="http://www.w3.org/1999/02/22-rdf-syntax-ns#"
   xmlns:svg="http://www.w3.org/2000/svg"
   xmlns="http://www.w3.org/2000/svg"
   xmlns:sodipodi="http://sodipodi.sourceforge.net/DTD/sodipodi-0.dtd"
   xmlns:inkscape="http://www.inkscape.org/namespaces/inkscape"
   viewBox="0 0 119.52933 27.922712"
   width="317.3345"
   height="158.05309"
   font-size="14px"
   version="1.1"
   id="svg11"
   sodipodi:docname="apache-kafka-connect.svg"
   style="font-size:14px;font-family:Roboto;text-anchor:middle;fill:#ffffff;fill-rule:evenodd;stroke:#000000;stroke-linecap:round;stroke-linejoin:round"
   inkscape:version="0.92.4 (unknown)">
  <metadata
     id="metadata15">
    <rdf:RDF>
      <cc:Work
         rdf:about="">
        <dc:format>image/svg+xml</dc:format>
        <dc:type
           rdf:resource="http://purl.org/dc/dcmitype/StillImage" />
        <dc:title></dc:title>
      </cc:Work>
    </rdf:RDF>
  </metadata>
  <sodipodi:namedview
     pagecolor="#ffffff"
     bordercolor="#666666"
     borderopacity="1"
     objecttolerance="10"
     gridtolerance="10"
     guidetolerance="10"
     inkscape:pageopacity="0"
     inkscape:pageshadow="2"
     inkscape:window-width="1838"
     inkscape:window-height="1055"
     id="namedview13"
     showgrid="false"
     inkscape:pagecheckerboard="true"
     fit-margin-top="10"
     fit-margin-left="10"
     fit-margin-right="10"
     fit-margin-bottom="10"
     inkscape:zoom="1.5733333"
     inkscape:cx="21.289784"
     inkscape:cy="117.40734"
     inkscape:window-x="82"
     inkscape:window-y="0"
     inkscape:window-maximized="1"
     inkscape:current-layer="svg11" />
  <defs
     id="defs4">
    <style
       type="text/css"
       id="style2" />
  </defs>
  <path
     d="m 14.666667,-5.4116442 c -0.565,-0.578 -1.35,-0.933 -2.224,-0.933 -0.832487,-0.0034 -1.630174,0.333698 -2.208,0.933 h -0.015 c -0.5955957,0.600044 -0.9277279,1.412563 -0.9230002,2.258 -0.00579,0.841932 0.3225419,1.651798 0.9130002,2.252 l 0.015,0.016 c 0.580185,0.594647 1.377219,0.927828 2.208,0.923 0.874,0 1.658,-0.35 2.224,-0.923 l 0.006,-0.016 c 0.566,-0.568 0.9,-1.363 0.9,-2.252 0.0055,-0.842958 -0.321906,-1.654026 -0.911,-2.257 h 0.005 z m -2.224,43.6800002 c 0.874,0 1.658,-0.362 2.224,-0.93 l 0.006,-0.016 c 0.566,-0.566 0.9,-1.366 0.9,-2.245 0,-0.9 -0.345,-1.686 -0.9,-2.262 h -0.006 c -0.565,-0.583 -1.35,-0.936 -2.224,-0.936 -0.833405,-0.0049 -1.632048,0.333616 -2.208,0.936 h -0.015 c -0.5892042,0.605088 -0.9170912,1.417443 -0.9130002,2.262 -0.00394,0.839512 0.3242574,1.646521 0.9130002,2.245 l 0.015,0.016 c 0.581144,0.593961 1.377025,0.928822 2.208,0.929 z m 17.084,-9.667 c 0.810991,-0.215163 1.500128,-0.749875 1.91,-1.482 l 0.058,-0.112 c 0.370348,-0.711735 0.458897,-1.53689 0.248,-2.311 -0.206,-0.796 -0.7,-1.502 -1.462,-1.94 l -0.044,-0.03 c -0.70956,-0.400255 -1.548793,-0.503092 -2.334,-0.286 -0.78,0.198 -1.48,0.727 -1.908,1.487 -0.416017,0.736704 -0.529331,1.606286 -0.316,2.425 0.215624,0.812842 0.739762,1.509541 1.461,1.942 h 0.005 c 0.75,0.44 1.597,0.517 2.383,0.3 z m -13.877,-15.9 c -0.823,-0.835 -1.96,-1.36 -3.216,-1.36 -1.209356,0.0022 -2.366684,0.492187 -3.2100002,1.359 -0.82,0.834 -1.324,1.985 -1.324,3.265 -0.00341,1.223886 0.4717324,2.400622 1.324,3.279 0.8200002,0.83 1.9540002,1.35 3.2000002,1.35 1.246,0 2.393,-0.52 3.216,-1.35 0.853241,-0.878306 1.329138,-2.055487 1.326,-3.28 0.0056,-1.220571 -0.470911,-2.393996 -1.326,-3.265 z m -1.8,-5.4380002 c 1.795458,0.304288 3.447311,1.172597 4.716,2.479 h 0.01 l 0.573,0.6470002 3.13,-1.8430002 c -0.411802,-1.268377 -0.44723,-2.62891 -0.102,-3.917 0.446,-1.7 1.53,-3.22 3.152,-4.173 l 0.053,-0.034 c 1.535282,-0.89191 3.364162,-1.130742 5.077,-0.663 1.73924,0.476192 3.215635,1.6285 4.1,3.2 v 0.005 c 0.932,1.64 1.12,3.522 0.677,5.216 -0.444,1.7 -1.53,3.2300002 -3.152,4.1780002 l -0.428,0.257 h -0.043 c -1.451156,0.702079 -3.107023,0.856551 -4.663,0.435 -1.267865,-0.348153 -2.406686,-1.058482 -3.277,-2.044 l -3.126,1.837 c 0.371497,0.995373 0.56052,2.049563 0.558,3.112 0,1.096 -0.198,2.154 -0.558,3.126 l 3.126,1.833 c 0.893,-1.018 2.034,-1.7 3.277,-2.045 1.67,-0.464 3.518,-0.267 5.134,0.692 l 0.104,0.05 v 0.005 c 1.511959,0.93013 2.604496,2.410144 3.048,4.129 0.462828,1.758802 0.219876,3.628847 -0.677,5.211 l -0.056,0.115 h -0.007 c -0.89405,1.521137 -2.342836,2.63658 -4.042,3.112 -1.67,0.448 -3.52,0.257 -5.135,-0.688 v -0.013 c -1.562358,-0.919047 -2.696032,-2.420662 -3.152,-4.175 -0.34577,-1.285999 -0.310333,-2.644772 0.102,-3.911 l -3.13,-1.838 -0.573,0.637 -0.01,0.01 c -1.252,1.28 -2.9,2.17 -4.716,2.465 v 3.68 c 1.284607,0.277142 2.45914,0.926491 3.377,1.867 l 0.005,0.01 c 1.223,1.238 1.98,2.964 1.98,4.86 0.0032,1.814091 -0.7081,3.556475 -1.98,4.85 l -0.005,0.02 c -1.23,1.234 -2.92,2.004 -4.783,2.004 -1.854,0 -3.5480002,-0.77 -4.7760002,-2.015 h -0.005 v -0.02 c -1.273242,-1.293287 -1.9856872,-3.036137 -1.983,-4.851 0,-1.897 0.76,-3.622 1.983,-4.86 v -0.01 h 0.005 c 0.9129842,-0.94531 2.0881233,-1.595573 3.3740002,-1.867 v -3.68 c -1.8250002,-0.296 -3.4600002,-1.185 -4.7000002,-2.465 l -0.013,-0.01 c -1.6346977,-1.660456 -2.5512566,-3.896903 -2.552,-6.227 0,-2.43 0.978,-4.628 2.54,-6.2230002 h 0.013 c 1.2665206,-1.306598 2.9168755,-2.17504 4.7110002,-2.479 v -3.665 c -1.2816226,-0.285671 -2.4533286,-0.93577 -3.3740002,-1.872 h -0.005 v -0.01 c -1.2738399,-1.296962 -1.9861597,-3.043097 -1.983,-4.861 -0.00182,-1.817346 0.7103186,-3.562682 1.983,-4.86 l 0.015,-0.005 c 1.250887,-1.289638 2.9703692,-2.0182628 4.7670002,-2.0199998 1.864,0 3.553,0.7699998 4.784,2.0199998 v 0.005 h 0.005 c 1.223,1.245 1.98,2.973 1.98,4.86 0.0016,1.816712 -0.709329,3.561601 -1.98,4.86 l -0.005,0.01 c -0.912,0.924 -2.076,1.585 -3.377,1.872 v 3.665 z m 17.585,-2.445 -0.026,-0.04 c -0.414854,-0.70952 -1.090593,-1.228795 -1.883,-1.447 -0.806107,-0.22174 -1.667663,-0.107371 -2.388,0.317 h 0.005 c -0.752,0.434 -1.255,1.145 -1.466,1.94 -0.215482,0.818577 -0.10206,1.688979 0.316,2.425 l 0.014,0.02 c 0.433,0.75 1.123,1.255 1.893,1.458 0.773,0.222 1.636,0.128 2.378,-0.312 l 0.04,-0.02 c 0.73,-0.444 1.22,-1.146 1.422,-1.916 0.207,-0.795 0.125,-1.664 -0.305,-2.425 m 13.892,-6.456333 h 3.493 v 10.852 l 5.038,-5.67 h 4.2 l -6.082,6.5700002 6.087,8.314 h -4 l -5.252,-7.438 v 7.438 h -3.494 V -1.6479772 m 16.778,12.6930002 c 0,1.848 1.306,4.534 4.453,4.534 1.947,0 3.228,-1.032 3.893,-2.385 0.348,-0.657 0.508,-1.36 0.562,-2.1 0.02657,-0.71978 -0.110895,-1.4361782 -0.402,-2.0950002 -0.612,-1.407 -1.972,-2.627 -4.078,-2.627 -2.825,0 -4.427,2.33 -4.427,4.6380002 v 0.025 z m 12.372,7.383 h -3.495 v -2.143 c -0.93,1.733 -2.878,2.603 -4.932,2.603 -4.693,0 -7.44,-3.72 -7.44,-7.922 0,-4.6930002 3.333,-7.8940002 7.44,-7.8940002 2.666,0 4.292,1.438 4.932,2.633 v -2.173 h 3.495 V 18.428023 m 3.957,-12.1540002 h -1.8 v -2.74 h 1.8 v -0.84 c 0,-4.426 3.307,-4.693 5.815,-4.722 v 2.736 c -0.882,0 -2.32,0 -2.32,2.094 v 0.73 h 2.32 v 2.74 h -2.32 V 18.428023 h -3.495 V 6.2740228 m 8.2,-7.922 h 3.492 v 10.852 l 5.04,-5.67 h 4.2 l -6.082,6.5700002 6.093,8.324 h -4 l -5.252,-7.438 v 7.438 h -3.492 V -1.6479772 M 103.40267,11.045023 c 0,1.848 1.305,4.534 4.453,4.534 1.944,0 3.226,-1.032 3.9,-2.385 0.35,-0.657 0.5,-1.36 0.562,-2.1 0.024,-0.707 -0.107,-1.4420002 -0.403,-2.0950002 -0.6,-1.407 -1.97,-2.627 -4.077,-2.627 -2.826,0 -4.427,2.33 -4.427,4.6380002 v 0.025 z m 12.36,7.383 h -3.494 v -2.143 c -0.933,1.733 -2.88,2.603 -4.932,2.603 -4.693,0 -7.437003,-3.72 -7.437003,-7.922 0,-4.6930002 3.330003,-7.8940002 7.437003,-7.8940002 2.665,0 4.292,1.438 4.932,2.633 v -2.173 h 3.494 V 18.428023"
     id="path8"
     inkscape:connector-curvature="0"
     style="fill:#231f20;fill-rule:nonzero;stroke:none"
     sodipodi:nodetypes="cccccccccccccccccsccccccccccccccccccccccccccccsccccccccccccccccccccccccccccccccccccccccccccccccsccccccccccccccccccccccccccccccccccccccccccccccccccccccccccscccsscccccsssccccccccsccsccccccccccccccccccccscccsscccccssscccc" />
  <text
     xml:space="preserve"
     style="font-style:normal;font-variant:normal;font-weight:bold;font-stretch:normal;font-size:20.08888817px;line-height:1.25;font-family:Cantarell;-inkscape-font-specification:'Cantarell, Bold';font-variant-ligatures:normal;font-variant-caps:normal;font-variant-numeric:normal;font-feature-settings:normal;text-align:center;letter-spacing:0px;word-spacing:0px;writing-mode:lr-tb;text-anchor:middle;fill:#231f20;fill-opacity:1;stroke:none;stroke-width:0.37666667"
     x="80.207649"
     y="34.169479"
     id="text4534"><tspan
       sodipodi:role="line"
       id="tspan4532"
       x="80.207649"
       y="34.169479"
       style="font-style:normal;font-variant:normal;font-weight:bold;font-stretch:normal;font-size:20.08888817px;font-family:Cantarell;-inkscape-font-specification:'Cantarell, Bold';font-variant-ligatures:normal;font-variant-caps:normal;font-variant-numeric:normal;font-feature-settings:normal;text-align:center;writing-mode:lr-tb;text-anchor:middle;fill:#231f20;fill-opacity:1;stroke-width:0.37666667">connect</tspan></text>
</svg>
