<?xml version="1.0" encoding="UTF-8" standalone="no"?>
<svg
   xmlns:dc="http://purl.org/dc/elements/1.1/"
   xmlns:cc="http://creativecommons.org/ns#"
   xmlns:rdf="http://www.w3.org/1999/02/22-rdf-syntax-ns#"
   xmlns:svg="http://www.w3.org/2000/svg"
   xmlns="http://www.w3.org/2000/svg"
   xmlns:sodipodi="http://sodipodi.sourceforge.net/DTD/sodipodi-0.dtd"
   xmlns:inkscape="http://www.inkscape.org/namespaces/inkscape"
   height="428.84909"
   width="424.77118"
   version="1.1"
   viewBox="0 0 424.77118 428.84909"
   fill="none"
   stroke="none"
   stroke-linecap="square"
   stroke-miterlimit="10"
   id="svg131"
   sodipodi:docname="camel-k-process-1.svg"
   inkscape:version="1.0 (4035a4fb49, 2020-05-01)">
  <metadata
     id="metadata137">
    <rdf:RDF>
      <cc:Work
         rdf:about="">
        <dc:format>image/svg+xml</dc:format>
        <dc:type
           rdf:resource="http://purl.org/dc/dcmitype/StillImage" />
        <dc:title></dc:title>
      </cc:Work>
    </rdf:RDF>
  </metadata>
  <defs
     id="defs135" />
  <sodipodi:namedview
     fit-margin-bottom="10"
     fit-margin-right="10"
     fit-margin-left="10"
     fit-margin-top="10"
     lock-margins="true"
     inkscape:document-rotation="0"
     pagecolor="#ffffff"
     bordercolor="#666666"
     borderopacity="1"
     objecttolerance="10"
     gridtolerance="10"
     guidetolerance="10"
     inkscape:pageopacity="0"
     inkscape:pageshadow="2"
     inkscape:window-width="1838"
     inkscape:window-height="1055"
     id="namedview133"
     showgrid="false"
     inkscape:zoom="0.70710678"
     inkscape:cx="426.73074"
     inkscape:cy="196.93036"
     inkscape:window-x="82"
     inkscape:window-y="0"
     inkscape:window-maximized="1"
     inkscape:current-layer="svg131" />
  <clipPath
     id="g821eedcac1_0_802.0">
    <path
       d="M 0,0 H 1280 V 720 H 0 Z"
       clip-rule="nonzero"
       id="path2" />
  </clipPath>
  <path
     id="path25"
     fill-rule="evenodd"
     d="m 160.12289,325.26937 v 0 c 0,-9.89493 8.02142,-17.91635 17.91637,-17.91635 h 160.38773 c 4.75171,0 9.3088,1.8876 12.66879,5.24759 3.35995,3.35998 5.24759,7.91705 5.24759,12.66876 v 71.66333 c 0,9.89496 -8.02146,17.91638 -17.91638,17.91638 H 178.03926 c -9.89495,0 -17.91637,-8.02142 -17.91637,-17.91638 z"
     fill-opacity="0"
     fill="#000000" />
  <path
     id="path27"
     fill-rule="evenodd"
     d="m 160.12289,325.26937 v 0 c 0,-9.89493 8.02142,-17.91635 17.91637,-17.91635 h 160.38773 c 4.75171,0 9.3088,1.8876 12.66879,5.24759 3.35995,3.35998 5.24759,7.91705 5.24759,12.66876 v 71.66333 c 0,9.89496 -8.02146,17.91638 -17.91638,17.91638 H 178.03926 c -9.89495,0 -17.91637,-8.02142 -17.91637,-17.91638 z"
     stroke-linecap="butt"
     stroke-linejoin="round"
     stroke-width="8"
     stroke="#ff0000" />
  <path
     id="path29"
     fill-rule="nonzero"
     d="m 188.6829,356.08417 q 1.90625,0 3.5625,-0.79688 1.67187,-0.79687 2.95312,-2.28125 l 3.29688,3.25 q -1.73438,2.04688 -4.42188,3.26563 -2.6875,1.20312 -5.53125,1.20312 -2.73437,0 -5.10937,-0.96875 -2.375,-0.96875 -4.10938,-2.625 -1.73437,-1.67187 -2.71875,-3.95312 -0.98437,-2.29688 -0.98437,-4.92188 0,-2.64062 1,-4.9375 1,-2.3125 2.73437,-3.96875 1.73438,-1.67187 4.10938,-2.64062 2.375,-0.96875 5.07812,-0.96875 2.90625,0 5.64063,1.23437 2.75,1.21875 4.45312,3.3125 l -3.40625,3.35938 q -1.28125,-1.59375 -3.01562,-2.4375 -1.73438,-0.85938 -3.67188,-0.85938 -1.625,0 -3.0625,0.60938 -1.4375,0.60937 -2.48437,1.67187 -1.03125,1.04688 -1.625,2.48438 -0.59375,1.4375 -0.59375,3.14062 0,1.65625 0.60937,3.09375 0.60938,1.4375 1.65625,2.48438 1.0625,1.03125 2.5,1.64062 1.4375,0.60938 3.14063,0.60938 z m 12.44571,4.29687 v -18.0625 h 4.75 v 1.98438 q 0.85937,-1.1875 2.09375,-1.78125 1.23437,-0.60938 2.71875,-0.60938 0.6875,0.0312 1.15625,0.125 0.46875,0.0781 0.8125,0.28125 v 4.17188 q -0.51563,-0.25 -1.14063,-0.35938 -0.625,-0.125 -1.28125,-0.125 -1.39062,0 -2.54687,0.6875 -1.15625,0.6875 -1.8125,2.01563 v 11.67187 z m 29.42593,-2.25 q -1.67187,1.34375 -3.42187,1.96875 -1.75,0.625 -3.89063,0.625 -2.04687,0 -3.84375,-0.71875 -1.78125,-0.73437 -3.07812,-1.98437 -1.29688,-1.25 -2.04688,-2.95313 -0.73437,-1.71875 -0.73437,-3.70312 0,-1.9375 0.70312,-3.64063 0.70313,-1.71875 1.95313,-2.98437 1.25,-1.26563 2.96875,-2 1.71875,-0.73438 3.65625,-0.73438 1.90625,0 3.54687,0.75 1.65625,0.75 2.84375,2.03125 1.20313,1.28125 1.875,3.0625 0.67188,1.78125 0.67188,3.85938 v 1.25 h -13.4375 q 0.48437,1.70312 1.85937,2.75 1.39063,1.03125 3.26563,1.03125 1.17187,0 2.20312,-0.375 1.04688,-0.39063 1.78125,-1.07813 z m -7.84375,-12.20312 q -1.625,0 -2.8125,1 -1.17187,0.98437 -1.625,2.64062 h 8.84375 q -0.45312,-1.59375 -1.65625,-2.60937 -1.1875,-1.03125 -2.75,-1.03125 z m 17.61426,14.76562 q -2.92187,0 -4.76562,-1.53125 -1.82813,-1.54687 -1.82813,-4.01562 0,-2.5625 1.96875,-4.01563 1.98438,-1.45312 5.45313,-1.45312 1.10937,0 2.21875,0.17187 1.10937,0.17188 2.1875,0.51563 v -1.28125 q 0,-1.5625 -0.98438,-2.35938 -0.96875,-0.79687 -2.82812,-0.79687 -1.15625,0 -2.48438,0.375 -1.32812,0.35937 -3.03125,1.10937 l -1.73437,-3.5 q 2.10937,-0.96875 4.09375,-1.45312 2,-0.48438 3.95312,-0.48438 3.64063,0 5.65625,1.75 2.03125,1.75 2.03125,4.9375 v 11.71875 h -4.67187 v -1.25 q -1.15625,0.79688 -2.42188,1.1875 -1.25,0.375 -2.8125,0.375 z m -2.04687,-5.65625 q 0,1.04688 0.89062,1.65625 0.90625,0.60938 2.40625,0.60938 1.17188,0 2.15625,-0.29688 0.98438,-0.29687 1.82813,-0.85937 v -2.70313 q -0.875,-0.34375 -1.82813,-0.5 -0.95312,-0.15625 -1.98437,-0.15625 -1.64063,0 -2.5625,0.60938 -0.90625,0.60937 -0.90625,1.64062 z m 17.32214,0.25 v -8.98437 h -3.70313 v -3.98438 h 3.70313 v -4.60937 l 4.75,-1.0625 v 5.67187 h 5.125 v 3.98438 h -5.125 v 8.01562 q 0,1.28125 0.54687,1.79688 0.5625,0.51562 1.95313,0.51562 0.65625,0 1.23437,-0.0781 0.59375,-0.0937 1.29688,-0.32813 v 3.875 q -0.76563,0.25 -1.84375,0.40625 -1.07813,0.15625 -1.82813,0.15625 -3.01562,0 -4.5625,-1.35937 -1.54687,-1.375 -1.54687,-4.01563 z m 28.25531,2.84375 q -1.67188,1.34375 -3.42188,1.96875 -1.75,0.625 -3.89062,0.625 -2.04688,0 -3.84375,-0.71875 -1.78125,-0.73437 -3.07813,-1.98437 -1.29687,-1.25 -2.04687,-2.95313 -0.73438,-1.71875 -0.73438,-3.70312 0,-1.9375 0.70313,-3.64063 0.70312,-1.71875 1.95312,-2.98437 1.25,-1.26563 2.96875,-2 1.71875,-0.73438 3.65625,-0.73438 1.90625,0 3.54688,0.75 1.65625,0.75 2.84375,2.03125 1.20312,1.28125 1.875,3.0625 0.67187,1.78125 0.67187,3.85938 v 1.25 h -13.4375 q 0.48438,1.70312 1.85938,2.75 1.39062,1.03125 3.26562,1.03125 1.17188,0 2.20313,-0.375 1.04687,-0.39063 1.78125,-1.07813 z m -7.84375,-12.20312 q -1.625,0 -2.8125,1 -1.17188,0.98437 -1.625,2.64062 h 8.84375 q -0.45313,-1.59375 -1.65625,-2.60937 -1.1875,-1.03125 -2.75,-1.03125 z"
     fill="#000000" />
  <path
     id="path31"
     fill-rule="nonzero"
     d="m 176.51102,376.84667 q -0.4375,0 -0.76563,-0.3125 -0.3125,-0.32813 -0.3125,-0.75 0,-0.45313 0.3125,-0.75 0.32813,-0.3125 0.76563,-0.3125 0.4375,0 0.75,0.3125 0.3125,0.29687 0.3125,0.75 0,0.42187 -0.3125,0.75 -0.3125,0.3125 -0.75,0.3125 z m 0.78125,2.04687 v 10.6875 h -1.57813 v -10.6875 z m 2.68752,10.6875 v -10.6875 h 1.57812 v 1.26563 q 0.625,-0.73438 1.46875,-1.10938 0.85938,-0.375 1.90625,-0.375 1.8125,0 2.95313,1.15625 1.15625,1.15625 1.15625,2.98438 v 6.76562 h -1.5625 v -6.4375 q 0,-1.40625 -0.8125,-2.23437 -0.79688,-0.84375 -2.17188,-0.84375 -0.95312,0 -1.71875,0.4375 -0.75,0.42187 -1.21875,1.20312 v 7.875 z m 12.61064,-2.39062 v -6.95313 h -2.3125 v -1.34375 h 2.3125 v -2.70312 l 1.54687,-0.40625 v 3.10937 h 3.21875 v 1.34375 h -3.21875 v 6.54688 q 0,0.85937 0.375,1.23437 0.39063,0.375 1.26563,0.375 0.45312,0 0.79687,-0.0625 0.35938,-0.0781 0.76563,-0.21875 v 1.39063 q -0.40625,0.14062 -0.90625,0.20312 -0.5,0.0625 -0.96875,0.0625 -1.39063,0 -2.14063,-0.65625 -0.73437,-0.65625 -0.73437,-1.92187 z m 15.11532,1.26562 q -0.89062,0.65625 -1.875,0.98438 -0.96875,0.32812 -2.10937,0.32812 -1.15625,0 -2.17188,-0.42187 -1.01562,-0.42188 -1.75,-1.17188 -0.73437,-0.75 -1.15625,-1.76562 -0.42187,-1.01563 -0.42187,-2.1875 0,-1.14063 0.40625,-2.14063 0.42187,-1.01562 1.125,-1.75 0.70312,-0.75 1.67187,-1.17187 0.96875,-0.4375 2.0625,-0.4375 1.0625,0 1.98438,0.4375 0.9375,0.42187 1.60937,1.17187 0.67188,0.73438 1.0625,1.75 0.39063,1 0.39063,2.14063 v 0.5 h -8.76563 q 0.17188,1.57812 1.29688,2.625 1.14062,1.04687 2.71875,1.04687 0.82812,0 1.60937,-0.25 0.79688,-0.26562 1.32813,-0.73437 z m -4.26562,-8.34375 q -1.39063,0 -2.40625,0.9375 -1,0.9375 -1.21875,2.40625 h 7.14062 q -0.20312,-1.40625 -1.20312,-2.375 -0.98438,-0.96875 -2.3125,-0.96875 z m 12.15982,9.54688 q -1.10938,0 -2.07813,-0.42188 -0.96875,-0.42187 -1.70312,-1.15625 -0.71875,-0.73437 -1.14063,-1.73437 -0.40625,-1.01563 -0.40625,-2.15625 0,-1.15625 0.40625,-2.15625 0.42188,-1 1.14063,-1.73438 0.73437,-0.75 1.70312,-1.17187 0.98438,-0.42188 2.125,-0.42188 0.90625,0 1.76563,0.32813 0.875,0.32812 1.59375,0.92187 v -1.0625 h 1.5625 v 10.9375 q 0,2.04688 -1.20313,3.14063 -1.1875,1.10937 -3.40625,1.10937 -1.10937,0 -2.20312,-0.29687 -1.07813,-0.28125 -1.96875,-0.8125 l 0.67187,-1.23438 q 0.96875,0.51563 1.78125,0.75 0.82813,0.23438 1.65625,0.23438 1.51563,0 2.29688,-0.73438 0.79687,-0.71875 0.79687,-2.125 v -1.4375 q -0.73437,0.60938 -1.59375,0.92188 -0.85937,0.3125 -1.79687,0.3125 z m -3.78125,-5.46875 q 0,0.84375 0.29687,1.60937 0.29688,0.75 0.8125,1.29688 0.53125,0.54687 1.25,0.875 0.73438,0.3125 1.54688,0.3125 1.03125,0 1.875,-0.375 0.85937,-0.39063 1.39062,-1.09375 v -5.25 q -0.53125,-0.6875 -1.40625,-1.0625 -0.85937,-0.39063 -1.85937,-0.39063 -0.82813,0 -1.54688,0.3125 -0.71875,0.3125 -1.25,0.875 -0.51562,0.54688 -0.8125,1.29688 -0.29687,0.73437 -0.29687,1.59375 z m 11.43584,5.39062 v -10.6875 h 1.57812 v 1.51563 q 0.46875,-0.82813 1.23438,-1.28125 0.76562,-0.46875 1.75,-0.46875 0.29687,0 0.53125,0.0312 0.23437,0.0312 0.46875,0.125 v 1.4375 q -0.26563,-0.0781 -0.54688,-0.125 -0.28125,-0.0625 -0.5625,-0.0625 -0.98437,0 -1.73437,0.57812 -0.73438,0.5625 -1.14063,1.625 v 7.3125 z m 10.19989,0.1875 q -1.75,0 -2.85938,-0.89062 -1.09375,-0.89063 -1.09375,-2.32813 0,-1.48437 1.15625,-2.375 1.15625,-0.89062 3.10939,-0.89062 0.85938,0 1.65625,0.20312 0.79688,0.1875 1.48438,0.53125 v -1.40625 q 0,-1.28125 -0.73438,-1.9375 -0.71875,-0.65625 -2.10937,-0.65625 -0.78127,0 -1.59377,0.23438 -0.79687,0.21875 -1.75,0.71875 l -0.59375,-1.21875 q 1.14063,-0.5625 2.125,-0.8125 0.98438,-0.26563 1.96877,-0.26563 2.01562,0 3.10937,0.96875 1.10938,0.95313 1.10938,2.75 v 7.1875 h -1.53125 v -1.04687 q -0.73438,0.625 -1.59375,0.9375 -0.85938,0.29687 -1.85939,0.29687 z m -2.4375,-3.26562 q 0,0.90625 0.75,1.46875 0.76562,0.5625 1.95314,0.5625 0.96875,0 1.75,-0.29688 0.79687,-0.29687 1.4375,-0.9375 v -2 q -0.67188,-0.45312 -1.42188,-0.65625 -0.75,-0.20312 -1.67187,-0.20312 -1.28127,0 -2.04689,0.5625 -0.75,0.5625 -0.75,1.5 z m 10.96931,0.6875 v -6.95313 h -2.3125 v -1.34375 h 2.3125 v -2.70312 l 1.54688,-0.40625 v 3.10937 h 3.21875 v 1.34375 h -3.21875 v 6.54688 q 0,0.85937 0.375,1.23437 0.39062,0.375 1.26562,0.375 0.45313,0 0.79688,-0.0625 0.35937,-0.0781 0.76562,-0.21875 v 1.39063 q -0.40625,0.14062 -0.90625,0.20312 -0.5,0.0625 -0.96875,0.0625 -1.39062,0 -2.14062,-0.65625 -0.73438,-0.65625 -0.73438,-1.92187 z m 7.25354,-10.34375 q -0.4375,0 -0.76562,-0.3125 -0.3125,-0.32813 -0.3125,-0.75 0,-0.45313 0.3125,-0.75 0.32812,-0.3125 0.76562,-0.3125 0.4375,0 0.75,0.3125 0.3125,0.29687 0.3125,0.75 0,0.42187 -0.3125,0.75 -0.3125,0.3125 -0.75,0.3125 z m 0.78125,2.04687 v 10.6875 h -1.57812 v -10.6875 z m 2.20316,5.32813 q 0,-1.14063 0.42187,-2.15625 0.42188,-1.03125 1.15625,-1.78125 0.73438,-0.75 1.73438,-1.17188 1.01562,-0.4375 2.14062,-0.4375 1.125,0 2.10938,0.4375 1,0.42188 1.73437,1.17188 0.75,0.75 1.17188,1.78125 0.42187,1.01562 0.42187,2.15625 0,1.17187 -0.42187,2.20312 -0.42188,1.01563 -1.17188,1.76563 -0.73437,0.75 -1.73437,1.1875 -0.98438,0.42187 -2.10938,0.42187 -1.125,0 -2.14062,-0.42187 -1,-0.4375 -1.73438,-1.1875 -0.73437,-0.75 -1.15625,-1.76563 -0.42187,-1.03125 -0.42187,-2.20312 z m 5.45312,4.17187 q 0.8125,0 1.51563,-0.3125 0.71875,-0.32812 1.23437,-0.89062 0.53125,-0.57813 0.82813,-1.32813 0.29687,-0.76562 0.29687,-1.64062 0,-0.875 -0.29687,-1.625 -0.29688,-0.75 -0.82813,-1.29688 -0.51562,-0.5625 -1.23437,-0.875 -0.70313,-0.32812 -1.51563,-0.32812 -0.8125,0 -1.53125,0.32812 -0.70312,0.3125 -1.23437,0.875 -0.51563,0.54688 -0.82813,1.29688 -0.3125,0.75 -0.3125,1.625 0,0.875 0.29688,1.64062 0.29687,0.75 0.8125,1.32813 0.53125,0.5625 1.25,0.89062 0.73437,0.3125 1.54687,0.3125 z m 7.6362,1.1875 v -10.6875 h 1.57813 v 1.26563 q 0.625,-0.73438 1.46875,-1.10938 0.85937,-0.375 1.90625,-0.375 1.8125,0 2.95312,1.15625 1.15625,1.15625 1.15625,2.98438 v 6.76562 h -1.5625 v -6.4375 q 0,-1.40625 -0.8125,-2.23437 -0.79687,-0.84375 -2.17187,-0.84375 -0.95313,0 -1.71875,0.4375 -0.75,0.42187 -1.21875,1.20312 v 7.875 z m 15.3104,-10.6875 h 2.51562 v -2.03125 q 0,-1.54687 0.84375,-2.39062 0.85938,-0.84375 2.46875,-0.84375 0.42188,0 0.76563,0.0469 0.34375,0.0312 0.65625,0.14063 v 1.40625 q -0.35938,-0.0937 -0.65625,-0.14063 -0.29688,-0.0625 -0.65625,-0.0625 -0.9375,0 -1.40625,0.45313 -0.45313,0.45312 -0.45313,1.4375 v 1.98437 h 3.17188 v 1.34375 h -3.17188 v 9.34375 h -1.5625 v -9.34375 h -2.51562 z m 9.75799,-2.04687 q -0.4375,0 -0.76562,-0.3125 -0.3125,-0.32813 -0.3125,-0.75 0,-0.45313 0.3125,-0.75 0.32812,-0.3125 0.76562,-0.3125 0.4375,0 0.75,0.3125 0.3125,0.29687 0.3125,0.75 0,0.42187 -0.3125,0.75 -0.3125,0.3125 -0.75,0.3125 z m 0.78125,2.04687 v 10.6875 h -1.57812 v -10.6875 z m 4.26563,-4.60937 v 15.29687 h -1.57813 v -14.9375 z m 11.68753,14.17187 q -0.89063,0.65625 -1.875,0.98438 -0.96875,0.32812 -2.10938,0.32812 -1.15625,0 -2.17187,-0.42187 -1.01563,-0.42188 -1.75,-1.17188 -0.73438,-0.75 -1.15625,-1.76562 -0.42188,-1.01563 -0.42188,-2.1875 0,-1.14063 0.40625,-2.14063 0.42188,-1.01562 1.125,-1.75 0.70313,-0.75 1.67188,-1.17187 0.96875,-0.4375 2.0625,-0.4375 1.0625,0 1.98437,0.4375 0.9375,0.42187 1.60938,1.17187 0.67187,0.73438 1.0625,1.75 0.39062,1 0.39062,2.14063 v 0.5 h -8.76562 q 0.17187,1.57812 1.29687,2.625 1.14063,1.04687 2.71875,1.04687 0.82813,0 1.60938,-0.25 0.79687,-0.26562 1.32812,-0.73437 z m -4.26563,-8.34375 q -1.39062,0 -2.40625,0.9375 -1,0.9375 -1.21875,2.40625 h 7.14063 q -0.20313,-1.40625 -1.20313,-2.375 -0.98437,-0.96875 -2.3125,-0.96875 z"
     fill="#000000" />
  <path
     id="path33"
     fill-rule="evenodd"
     d="m 35.499516,10.5 h 63.128612 v 0 h 94.692912 220.95015 v 108.47243 0 46.48819 30.99213 H 193.32104 l -70.81009,-1.68473 -23.882822,1.68473 H 35.499516 v -30.99213 -46.48819 0 z"
     fill="#eeeeee"
     style="fill:#fdf9c3;fill-opacity:1" />
  <path
     id="path35"
     fill-rule="evenodd"
     d="m 35.499516,10.5 h 63.128612 v 0 h 94.692912 220.95015 v 108.47243 0 46.48819 30.99213 H 193.32104 l -70.81009,-1.68473 -23.882822,1.68473 H 35.499516 v -30.99213 -46.48819 0 z"
     stroke-linecap="butt"
     stroke-linejoin="round"
     stroke-width="1"
     stroke="#595959" />
  <path
     id="path37"
     fill-rule="nonzero"
     d="m 69.520352,76.11637 v -6.60938 h -2.265625 v -1.875 l 2.265625,-0.10937 v -0.21875 q 0,-0.75 0.21875,-1.39063 0.234375,-0.64062 0.703125,-1.10937 0.46875,-0.48438 1.1875,-0.76563 0.734375,-0.28125 1.734375,-0.28125 0.75,0 1.390625,0.14063 0.65625,0.14062 1.21875,0.32812 l -0.484375,1.875 q -0.859375,-0.32812 -1.8125,-0.32812 -0.828125,0 -1.21875,0.375 -0.390625,0.35937 -0.390625,1.125 v 0.25 h 2.96875 v 1.98437 h -2.96875 v 6.60938 z m 8.724946,0 v -8.59375 h 2.07812 l 0.20313,1.875 h 0.0469 q 0.64063,-1.0625 1.54688,-1.5625 0.90625,-0.51563 1.9375,-0.51563 0.57812,0 0.92187,0.0937 0.35938,0.0781 0.75,0.25 l -0.53125,2.125 q -0.39062,-0.125 -0.71875,-0.17187 -0.3125,-0.0625 -0.79687,-0.0625 -0.79688,0 -1.57813,0.46875 -0.76562,0.46875 -1.3125,1.625 v 4.46875 z m 13.58432,0.20312 q -0.85938,0 -1.65625,-0.29687 -0.78125,-0.3125 -1.39063,-0.875 -0.60937,-0.57813 -0.98437,-1.40625 -0.35938,-0.84375 -0.35938,-1.92188 0,-1.07812 0.35938,-1.90625 0.375,-0.84375 0.98437,-1.42187 0.60938,-0.57813 1.39063,-0.875 0.79687,-0.29688 1.65625,-0.29688 0.84375,0 1.625,0.29688 0.79687,0.29687 1.40625,0.875 0.625,0.57812 0.98437,1.42187 0.35938,0.82813 0.35938,1.90625 0,1.07813 -0.35938,1.92188 -0.35937,0.82812 -0.98437,1.40625 -0.60938,0.5625 -1.40625,0.875 -0.78125,0.29687 -1.625,0.29687 z m 0,-2.0625 q 0.875,0 1.3125,-0.65625 0.45312,-0.65625 0.45312,-1.78125 0,-1.125 -0.45312,-1.78125 -0.4375,-0.65625 -1.3125,-0.65625 -0.89063,0 -1.32813,0.65625 -0.4375,0.65625 -0.4375,1.78125 0,1.125 0.4375,1.78125 0.4375,0.65625 1.32813,0.65625 z m 5.80307,1.85938 v -8.59375 h 1.92187 l 0.17188,1.0625 h 0.0625 q 0.250002,-0.53125 0.671872,-0.89063 0.4375,-0.375 1.1875,-0.375 0.5625,0 0.9375,0.35938 0.39063,0.34375 0.54688,1.03125 0.25,-0.57813 0.70312,-0.98438 0.46875,-0.40625 1.20313,-0.40625 0.93751,0 1.43751,0.73438 0.5,0.73437 0.5,2.03125 v 6.03125 h -2.43751 v -5.85938 q 0,-0.39062 -0.10938,-0.57812 -0.0937,-0.20313 -0.35937,-0.20313 -0.23438,0 -0.40625,0.21875 -0.17188,0.20313 -0.375,0.60938 v 5.8125 h -1.98438 v -5.85938 q 0,-0.78125 -0.48437,-0.78125 -0.25,0 -0.42188,0.21875 -0.17187,0.20313 -0.34375,0.60938 v 5.8125 z m 16.584332,3.10937 q -1.70313,-1.51562 -2.6875,-3.48437 -0.96875,-1.98438 -0.96875,-4.4375 0,-2.46875 0.96875,-4.4375 0.98437,-1.98438 2.6875,-3.48438 l 1.42187,1.125 q -1.54687,1.5 -2.25,3.125 -0.70312,1.625 -0.70312,3.67188 0,1.01562 0.17187,1.9375 0.17188,0.90625 0.53125,1.73437 0.35938,0.82813 0.90625,1.59375 0.5625,0.78125 1.34375,1.51563 z m 6.53744,-8.14062 q -0.96875,0 -1.5,-0.71875 -0.53125,-0.73438 -0.53125,-2.04688 0,-1.42187 0.75,-2.5 0.76563,-1.09375 2.28125,-1.78125 l 0.65625,1.35938 q -0.89062,0.40625 -1.39062,1 -0.48438,0.59375 -0.54688,1.42187 0.17188,-0.0625 0.35938,-0.0625 0.70312,0 1.14062,0.4375 0.4375,0.42188 0.4375,1.14063 0,0.79687 -0.46875,1.28125 -0.46875,0.46875 -1.1875,0.46875 z m 4.57813,0 q -0.96875,0 -1.5,-0.71875 -0.53125,-0.73438 -0.53125,-2.04688 0,-1.42187 0.75,-2.5 0.76562,-1.09375 2.28125,-1.78125 l 0.65625,1.35938 q -0.89063,0.40625 -1.39063,1 -0.48437,0.59375 -0.54687,1.42187 0.17187,-0.0625 0.35937,-0.0625 0.70313,0 1.14063,0.4375 0.4375,0.42188 0.4375,1.14063 0,0.79687 -0.46875,1.28125 -0.46875,0.46875 -1.1875,0.46875 z m 4.19369,5.03125 V 63.97574 h 2.54688 v 7.01563 h 0.0781 l 3.15625,-3.46875 h 2.78125 l -3.26562,3.5 3.53125,5.09375 h -2.76563 l -2.25,-3.51563 -1.26562,1.34375 v 2.17188 z m 10.33432,0 v -8.59375 h 2.07813 l 0.1875,1.14062 h 0.0781 q 0.54688,-0.54687 1.26563,-0.9375 0.71875,-0.40625 1.6875,-0.40625 1.45312,0 2.125,0.9375 0.6875,0.92188 0.6875,2.5625 v 5.29688 h -2.54688 v -4.96875 q 0,-0.875 -0.28125,-1.26563 -0.28125,-0.40625 -0.98437,-0.40625 -0.51563,0 -0.90625,0.23438 -0.39063,0.21875 -0.84375,0.67187 v 5.73438 z m 13.02182,0.20312 q -0.65625,0 -1.17187,-0.20312 -0.51563,-0.1875 -0.89063,-0.54688 -0.35937,-0.35937 -0.5625,-0.82812 -0.1875,-0.46875 -0.1875,-1.01563 0,-0.73437 0.3125,-1.26562 0.3125,-0.54688 0.98438,-0.92188 0.6875,-0.39062 1.76562,-0.625 1.07813,-0.23437 2.59375,-0.32812 -0.0625,-0.57813 -0.51562,-0.90625 -0.4375,-0.34375 -1.3125,-0.34375 -0.625,0 -1.26563,0.21875 -0.625,0.21875 -1.35937,0.57812 l -0.89063,-1.65625 q 0.875,-0.5 1.89063,-0.82812 1.01562,-0.32813 2.125,-0.32813 1.79687,0 2.82812,0.95313 1.04688,0.95312 1.04688,2.92187 v 4.92188 h -2.07813 l -0.1875,-0.96875 h -0.0625 q -0.67187,0.5 -1.45312,0.84375 -0.76563,0.32812 -1.60938,0.32812 z m 0.82813,-1.96875 q 0.5625,0 1.0625,-0.23437 0.5,-0.23438 0.95312,-0.57813 v -1.42187 q -0.95312,0.0469 -1.57812,0.17187 -0.625,0.125 -0.98438,0.3125 -0.35937,0.17188 -0.51562,0.42188 -0.14063,0.23437 -0.14063,0.51562 0,0.40625 0.3125,0.60938 0.32813,0.20312 0.89063,0.20312 z m 12.41244,1.96875 q -1.01562,0 -1.73437,-0.26562 -0.70313,-0.28125 -1.15625,-0.76563 -0.4375,-0.5 -0.625,-1.1875 -0.1875,-0.70312 -0.1875,-1.54687 v -3.04688 h -2.17188 v -1.875 l 2.29688,-0.10937 0.32812,-2.64063 h 2.09375 v 2.64063 h 3.64063 v 1.98437 h -3.64063 v 3.01563 q 0,1 0.42188,1.40625 0.4375,0.40625 1.39062,0.40625 0.48438,0 0.89063,-0.0781 0.42187,-0.0937 0.8125,-0.23437 l 0.45312,1.82812 q -0.57812,0.17188 -1.26562,0.3125 -0.67188,0.15625 -1.54688,0.15625 z m 8.49056,-0.20312 v -6.60938 h -3.4375 v -1.98437 h 5.98437 v 8.59375 z m 1.17187,-9.95313 q -0.75,0 -1.23437,-0.40625 -0.46875,-0.42187 -0.46875,-1.125 0,-0.71875 0.46875,-1.15625 0.48437,-0.4375 1.23437,-0.4375 0.73438,0 1.20313,0.4375 0.48437,0.4375 0.48437,1.15625 0,0.70313 -0.48437,1.125 -0.46875,0.40625 -1.20313,0.40625 z m 8.1937,9.95313 -3.25,-8.59375 h 2.57812 l 1.34375,4.04687 q 0.20313,0.67188 0.39063,1.32813 0.20312,0.65625 0.39062,1.32812 h 0.0625 q 0.20313,-0.67187 0.375,-1.32812 0.1875,-0.65625 0.39063,-1.32813 l 1.35937,-4.04687 h 2.4375 l -3.15625,8.59375 z m 12.33432,0.20312 q -1,0 -1.875,-0.29687 -0.875,-0.3125 -1.51563,-0.875 -0.64062,-0.57813 -1.01562,-1.40625 -0.35938,-0.84375 -0.35938,-1.92188 0,-1.0625 0.375,-1.89062 0.375,-0.84375 1,-1.42188 0.625,-0.59375 1.42188,-0.89062 0.8125,-0.29688 1.67187,-0.29688 0.98438,0 1.75,0.3125 0.76563,0.3125 1.26563,0.875 0.51562,0.54688 0.78125,1.29688 0.26562,0.75 0.26562,1.64062 0,0.34375 -0.0469,0.67188 -0.0469,0.3125 -0.0781,0.46875 h -5.85937 q 0.1875,0.9375 0.84375,1.375 0.65625,0.42187 1.71875,0.42187 0.59375,0 1.125,-0.15625 0.53125,-0.15625 1.09375,-0.45312 l 0.84375,1.54687 q -0.73438,0.46875 -1.64063,0.73438 -0.90625,0.26562 -1.76562,0.26562 z m -0.20313,-7.0625 q -0.76562,0 -1.28125,0.40625 -0.51562,0.39063 -0.70312,1.20313 h 3.67187 q -0.1875,-1.60938 -1.6875,-1.60938 z m 10.08432,1.46875 q -0.90625,0 -1.46875,-0.57812 -0.54687,-0.57813 -0.54687,-1.4375 0,-0.4375 0.14062,-0.8125 0.15625,-0.375 0.40625,-0.64063 0.26563,-0.28125 0.64063,-0.4375 0.375,-0.15625 0.82812,-0.15625 0.45313,0 0.8125,0.15625 0.375,0.15625 0.625,0.4375 0.26563,0.26563 0.40625,0.64063 0.15625,0.375 0.15625,0.8125 0,0.85937 -0.5625,1.4375 -0.54687,0.57812 -1.4375,0.57812 z m 0,5.59375 q -0.90625,0 -1.46875,-0.57812 -0.54687,-0.57813 -0.54687,-1.4375 0,-0.4375 0.14062,-0.8125 0.15625,-0.375 0.40625,-0.64063 0.26563,-0.28125 0.64063,-0.4375 0.375,-0.15625 0.82812,-0.15625 0.45313,0 0.8125,0.15625 0.375,0.15625 0.625,0.4375 0.26563,0.26563 0.40625,0.64063 0.15625,0.375 0.15625,0.8125 0,0.85937 -0.5625,1.4375 -0.54687,0.57812 -1.4375,0.57812 z m 11.1312,0 q -1.01563,0 -1.89063,-0.29687 -0.85937,-0.3125 -1.51562,-0.875 -0.64063,-0.57813 -1.01563,-1.40625 -0.35937,-0.84375 -0.35937,-1.92188 0,-1.07812 0.40625,-1.90625 0.40625,-0.84375 1.09375,-1.42187 0.6875,-0.57813 1.57812,-0.875 0.90625,-0.29688 1.90625,-0.29688 1.01563,0 1.82813,0.32813 0.82812,0.32812 1.39062,0.82812 l -1.1875,1.57813 q -0.95312,-0.67188 -1.90625,-0.67188 -1.10937,0 -1.79687,0.65625 -0.6875,0.65625 -0.6875,1.78125 0,1.125 0.65625,1.78125 0.67187,0.65625 1.75,0.65625 0.67187,0 1.23437,-0.23437 0.5625,-0.25 1.03125,-0.57813 l 1.03125,1.60938 q -0.78125,0.65625 -1.71875,0.96875 -0.9375,0.29687 -1.82812,0.29687 z m 5.70932,-0.20312 V 63.97574 h 2.54687 v 2.96875 l -0.14062,1.65625 h 0.0469 q 0.48438,-0.5 1.17188,-0.89062 0.70312,-0.39063 1.6875,-0.39063 1.45312,0 2.125,0.9375 0.67187,0.92188 0.67187,2.5625 v 5.29688 h -2.54687 v -4.96875 q 0,-0.875 -0.28125,-1.26563 -0.28125,-0.40625 -0.98438,-0.40625 -0.51562,0 -0.90625,0.23438 -0.39062,0.21875 -0.84375,0.67187 v 5.73438 z m 13.02183,0.20312 q -0.65625,0 -1.17187,-0.20312 -0.51563,-0.1875 -0.89063,-0.54688 -0.35937,-0.35937 -0.56251,-0.82812 -0.1875,-0.46875 -0.1875,-1.01563 0,-0.73437 0.31251,-1.26562 0.3125,-0.54688 0.98438,-0.92188 0.6875,-0.39062 1.76562,-0.625 1.07813,-0.23437 2.59375,-0.32812 -0.0625,-0.57813 -0.51562,-0.90625 -0.4375,-0.34375 -1.3125,-0.34375 -0.625,0 -1.26563,0.21875 -0.625,0.21875 -1.35937,0.57812 l -0.89063,-1.65625 q 0.875,-0.5 1.89063,-0.82812 1.01562,-0.32813 2.125,-0.32813 1.79687,0 2.82812,0.95313 1.04688,0.95312 1.04688,2.92187 v 4.92188 h -2.07813 l -0.1875,-0.96875 h -0.0625 q -0.67187,0.5 -1.45312,0.84375 -0.76563,0.32812 -1.60938,0.32812 z m 0.82813,-1.96875 q 0.5625,0 1.0625,-0.23437 0.5,-0.23438 0.95312,-0.57813 v -1.42187 q -0.95312,0.0469 -1.57812,0.17187 -0.625,0.125 -0.98438,0.3125 -0.35937,0.17188 -0.51562,0.42188 -0.14063,0.23437 -0.14063,0.51562 0,0.40625 0.3125,0.60938 0.32813,0.20312 0.89063,0.20312 z m 6.94369,1.76563 v -8.59375 h 2.07813 l 0.1875,1.14062 h 0.0781 q 0.54688,-0.54687 1.26563,-0.9375 0.71875,-0.40625 1.6875,-0.40625 1.45312,0 2.125,0.9375 0.6875,0.92188 0.6875,2.5625 v 5.29688 h -2.54688 v -4.96875 q 0,-0.875 -0.28125,-1.26563 -0.28125,-0.40625 -0.98437,-0.40625 -0.51563,0 -0.90625,0.23438 -0.39063,0.21875 -0.84375,0.67187 v 5.73438 z m 10.39682,0 v -8.59375 h 2.07813 l 0.1875,1.14062 h 0.0781 q 0.54688,-0.54687 1.26563,-0.9375 0.71875,-0.40625 1.6875,-0.40625 1.45312,0 2.125,0.9375 0.6875,0.92188 0.6875,2.5625 v 5.29688 h -2.54688 v -4.96875 q 0,-0.875 -0.28125,-1.26563 -0.28125,-0.40625 -0.98437,-0.40625 -0.51563,0 -0.90625,0.23438 -0.39063,0.21875 -0.84375,0.67187 v 5.73438 z m 14.86557,0.20312 q -1,0 -1.875,-0.29687 -0.875,-0.3125 -1.51562,-0.875 -0.64063,-0.57813 -1.01563,-1.40625 -0.35937,-0.84375 -0.35937,-1.92188 0,-1.0625 0.375,-1.89062 0.375,-0.84375 1,-1.42188 0.625,-0.59375 1.42187,-0.89062 0.8125,-0.29688 1.67188,-0.29688 0.98437,0 1.75,0.3125 0.76562,0.3125 1.26562,0.875 0.51563,0.54688 0.78125,1.29688 0.26563,0.75 0.26563,1.64062 0,0.34375 -0.0469,0.67188 -0.0469,0.3125 -0.0781,0.46875 h -5.85938 q 0.1875,0.9375 0.84375,1.375 0.65625,0.42187 1.71875,0.42187 0.59375,0 1.125,-0.15625 0.53125,-0.15625 1.09375,-0.45312 l 0.84375,1.54687 q -0.73437,0.46875 -1.64062,0.73438 -0.90625,0.26562 -1.76563,0.26562 z m -0.20312,-7.0625 q -0.76563,0 -1.28125,0.40625 -0.51563,0.39063 -0.70313,1.20313 h 3.67188 q -0.1875,-1.60938 -1.6875,-1.60938 z m 11.72494,7.0625 q -1.625,0 -2.45312,-0.95312 -0.82813,-0.96875 -0.82813,-2.60938 v -6.78125 h -2.70312 v -2 h 5.25 v 8.89063 q 0,0.39062 0.10937,0.65625 0.125,0.26562 0.3125,0.4375 0.20313,0.15625 0.45313,0.23437 0.26562,0.0625 0.53125,0.0625 0.29687,0 0.60937,-0.0469 0.32813,-0.0625 0.73438,-0.21875 l 0.5625,1.85937 q -0.34375,0.10938 -0.64063,0.20313 -0.29687,0.0781 -0.59375,0.14062 -0.28125,0.0625 -0.60937,0.0937 -0.32813,0.0312 -0.73438,0.0312 z m 4.83432,2.5625 5.70313,-15.0625 h 2.125 l -5.70313,15.0625 z m 9.7562,-2.76562 2.98437,-4.46875 -2.79687,-4.125 h 2.73437 l 0.89063,1.39062 q 0.1875,0.35938 0.42187,0.73438 0.25,0.375 0.48438,0.73437 h 0.0625 q 0.17187,-0.35937 0.34375,-0.73437 0.1875,-0.39063 0.375,-0.73438 l 0.75,-1.39062 h 2.67187 l -2.79687,4.42187 2.96875,4.17188 h -2.73438 l -0.98437,-1.42188 q -0.25,-0.35937 -0.5,-0.73437 -0.25,-0.39063 -0.48438,-0.75 h -0.0781 q -0.1875,0.35937 -0.40625,0.73437 -0.20313,0.375 -0.39063,0.75 l -0.84375,1.42188 z m 10.39682,0 2.98437,-4.46875 -2.79687,-4.125 h 2.73437 l 0.89063,1.39062 q 0.1875,0.35938 0.42187,0.73438 0.25,0.375 0.48438,0.73437 h 0.0625 q 0.17187,-0.35937 0.34375,-0.73437 0.1875,-0.39063 0.375,-0.73438 l 0.75,-1.39062 h 2.67187 l -2.79687,4.42187 2.96875,4.17188 h -2.73438 l -0.98437,-1.42188 q -0.25,-0.35937 -0.5,-0.73437 -0.25,-0.39063 -0.48438,-0.75 h -0.0781 q -0.1875,0.35937 -0.40625,0.73437 -0.20313,0.375 -0.39063,0.75 l -0.84375,1.42188 z m 10.39682,0 2.98437,-4.46875 -2.79687,-4.125 h 2.73437 l 0.89063,1.39062 q 0.1875,0.35938 0.42187,0.73438 0.25,0.375 0.48438,0.73437 h 0.0625 q 0.17187,-0.35937 0.34375,-0.73437 0.1875,-0.39063 0.375,-0.73438 l 0.75,-1.39062 h 2.67187 l -2.79687,4.42187 2.96875,4.17188 h -2.73438 l -0.98437,-1.42188 q -0.25,-0.35937 -0.5,-0.73437 -0.25,-0.39063 -0.48438,-0.75 h -0.0781 q -0.1875,0.35937 -0.40625,0.73437 -0.20313,0.375 -0.39063,0.75 l -0.84375,1.42188 z m 10.39682,0 2.98437,-4.46875 -2.79687,-4.125 h 2.73437 l 0.89063,1.39062 q 0.1875,0.35938 0.42187,0.73438 0.25,0.375 0.48438,0.73437 h 0.0625 q 0.17187,-0.35937 0.34375,-0.73437 0.1875,-0.39063 0.375,-0.73438 l 0.75,-1.39062 h 2.67187 l -2.79687,4.42187 2.96875,4.17188 h -2.73438 l -0.98437,-1.42188 q -0.25,-0.35937 -0.5,-0.73437 -0.25,-0.39063 -0.48438,-0.75 h -0.0781 q -0.1875,0.35937 -0.40625,0.73437 -0.20313,0.375 -0.39063,0.75 l -0.84375,1.42188 z m 11.64682,-5.03125 -0.67188,-1.34375 q 1.8125,-0.8125 1.92188,-2.40625 -0.15625,0.0469 -0.32813,0.0469 -0.70312,0 -1.15625,-0.42187 -0.4375,-0.4375 -0.4375,-1.17188 0,-0.79687 0.46875,-1.26562 0.46875,-0.48438 1.1875,-0.48438 1,0 1.51563,0.73438 0.51562,0.73437 0.51562,2.03125 0,1.42187 -0.75,2.51562 -0.73437,1.07813 -2.26562,1.76563 z m 4.57812,0 -0.67187,-1.34375 q 1.8125,-0.8125 1.92187,-2.40625 -0.15625,0.0469 -0.32812,0.0469 -0.70313,0 -1.15625,-0.42187 -0.4375,-0.4375 -0.4375,-1.17188 0,-0.79687 0.46875,-1.26562 0.46875,-0.48438 1.1875,-0.48438 1,0 1.51562,0.73438 0.51563,0.73437 0.51563,2.03125 0,1.42187 -0.75,2.51562 -0.73438,1.07813 -2.26563,1.76563 z m 7.53745,8.14062 -1.42188,-1.14062 q 0.78125,-0.73438 1.32813,-1.51563 0.5625,-0.76562 0.90625,-1.59375 0.35937,-0.82812 0.53125,-1.73437 0.17187,-0.92188 0.17187,-1.9375 0,-2.04688 -0.70312,-3.67188 -0.70313,-1.625 -2.23438,-3.125 l 1.42188,-1.125 q 1.6875,1.5 2.67187,3.48438 0.98438,1.96875 0.98438,4.4375 0,2.45312 -0.98438,4.4375 -0.98437,1.96875 -2.67187,3.48437 z"
     fill="#000000" />
  <path
     id="path39"
     fill-rule="nonzero"
     d="m 91.829618,97.31951 q -0.90625,0 -1.46875,-0.57813 -0.54688,-0.57812 -0.54688,-1.4375 0,-0.4375 0.14063,-0.8125 0.15625,-0.375 0.40625,-0.64062 0.26562,-0.28125 0.64062,-0.4375 0.375,-0.15625 0.82813,-0.15625 0.45312,0 0.8125,0.15625 0.375,0.15625 0.625,0.4375 0.26562,0.26562 0.40625,0.64062 0.15625,0.375 0.15625,0.8125 0,0.85938 -0.5625,1.4375 -0.54688,0.57813 -1.4375,0.57813 z m 11.912452,0 q -1.01563,0 -1.73438,-0.26563 -0.70312,-0.28125 -1.15625,-0.76562 -0.4375,-0.5 -0.625,-1.1875 -0.1875,-0.70313 -0.1875,-1.54688 v -3.04687 h -2.171872 v -1.875 l 2.296872,-0.10938 0.32813,-2.64062 h 2.09375 v 2.64062 h 3.64063 v 1.98438 h -3.64064 v 3.01562 q 0,1 0.42188,1.40625 0.4375,0.40625 1.39062,0.40625 0.48438,0 0.89063,-0.0781 0.42188,-0.0937 0.81251,-0.23438 l 0.45312,1.82813 q -0.57812,0.17187 -1.26563,0.3125 -0.67188,0.15625 -1.54687,0.15625 z m 5.6937,-0.20313 v -8.59375 h 2.07812 l 0.20313,1.875 h 0.0469 q 0.64063,-1.0625 1.54688,-1.5625 0.90625,-0.51562 1.9375,-0.51562 0.57812,0 0.92187,0.0937 0.35938,0.0781 0.75,0.25 l -0.53125,2.125 q -0.39062,-0.125 -0.71875,-0.17188 -0.3125,-0.0625 -0.79687,-0.0625 -0.79688,0 -1.57813,0.46875 -0.76562,0.46875 -1.3125,1.625 v 4.46875 z m 12.25619,0.20313 q -0.65625,0 -1.17187,-0.20313 -0.51563,-0.1875 -0.89063,-0.54687 -0.35937,-0.35938 -0.5625,-0.82813 -0.1875,-0.46875 -0.1875,-1.01562 0,-0.73438 0.3125,-1.26563 0.3125,-0.54687 0.98438,-0.92187 0.6875,-0.39063 1.76562,-0.625 1.07813,-0.23438 2.59375,-0.32813 -0.0625,-0.57812 -0.51562,-0.90625 -0.4375,-0.34375 -1.3125,-0.34375 -0.625,0 -1.26563,0.21875 -0.625,0.21875 -1.35937,0.57813 l -0.89063,-1.65625 q 0.875,-0.5 1.89063,-0.82813 1.01562,-0.32812 2.125,-0.32812 1.79687,0 2.82812,0.95312 1.04688,0.95313 1.04688,2.92188 v 4.92187 h -2.07813 l -0.1875,-0.96875 h -0.0625 q -0.67187,0.5 -1.45312,0.84375 -0.76563,0.32813 -1.60938,0.32813 z m 0.82813,-1.96875 q 0.5625,0 1.0625,-0.23438 0.5,-0.23437 0.95312,-0.57812 v -1.42188 q -0.95312,0.0469 -1.57812,0.17188 -0.625,0.125 -0.98438,0.3125 -0.35937,0.17187 -0.51562,0.42187 -0.14063,0.23438 -0.14063,0.51563 0,0.40625 0.3125,0.60937 0.32813,0.20313 0.89063,0.20313 z m 6.94369,1.76562 v -8.59375 h 2.07813 l 0.1875,1.14063 h 0.0781 q 0.54688,-0.54688 1.26563,-0.9375 0.71875,-0.40625 1.6875,-0.40625 1.45312,0 2.125,0.9375 0.6875,0.92187 0.6875,2.5625 v 5.29687 h -2.54688 v -4.96875 q 0,-0.875 -0.28125,-1.26562 -0.28125,-0.40625 -0.98437,-0.40625 -0.51563,0 -0.90625,0.23437 -0.39063,0.21875 -0.84375,0.67188 v 5.73437 z m 14.27182,0.20313 q -1.15625,0 -2.26562,-0.375 -1.10938,-0.375 -1.9375,-0.9375 l 1.09375,-1.59375 q 0.79687,0.5 1.65625,0.76562 0.875,0.25 1.79687,0.25 0.71875,0 1.04688,-0.20312 0.32812,-0.20313 0.32812,-0.51563 0,-0.17187 -0.0937,-0.3125 -0.0937,-0.14062 -0.32812,-0.25 -0.23438,-0.10937 -0.65625,-0.21875 -0.40625,-0.10937 -1.03125,-0.25 -1.75,-0.375 -2.51563,-1.01562 -0.76562,-0.65625 -0.76562,-1.65625 0,-0.59375 0.28125,-1.09375 0.28125,-0.51563 0.78125,-0.85938 0.51562,-0.34375 1.23437,-0.53125 0.73438,-0.20312 1.65625,-0.20312 1.15625,0 2.09375,0.375 0.95313,0.35937 1.625,0.79687 l -1.14062,1.53125 q -0.65625,-0.40625 -1.375,-0.60937 -0.70313,-0.20313 -1.42188,-0.20313 -0.60937,0 -0.90625,0.1875 -0.29687,0.1875 -0.29687,0.48438 0,0.35937 0.45312,0.51562 0.45313,0.15625 1.54688,0.40625 0.98437,0.21875 1.64062,0.48438 0.65625,0.25 1.03125,0.57812 0.39063,0.32813 0.54688,0.75 0.15625,0.42188 0.15625,0.9375 0,0.59375 -0.28125,1.09375 -0.28125,0.5 -0.8125,0.875 -0.51563,0.375 -1.3125,0.59375 -0.78125,0.20313 -1.82813,0.20313 z m 8.95932,-0.20313 v -6.60937 h -2.26562 v -1.875 l 2.26562,-0.10938 v -0.21875 q 0,-0.75 0.21875,-1.39062 0.23438,-0.64063 0.70313,-1.10938 0.46875,-0.48437 1.1875,-0.76562 0.73437,-0.28125 1.73437,-0.28125 0.75,0 1.39063,0.14062 0.65625,0.14063 1.21875,0.32813 l -0.48438,1.875 q -0.85937,-0.32813 -1.8125,-0.32813 -0.82812,0 -1.21875,0.375 -0.39062,0.35938 -0.39062,1.125 v 0.25 h 2.96875 v 1.98438 h -2.96875 v 6.60937 z m 11.91245,0.20313 q -0.85938,0 -1.65625,-0.29688 -0.78125,-0.3125 -1.39063,-0.875 -0.60937,-0.57812 -0.98437,-1.40625 -0.35938,-0.84375 -0.35938,-1.92187 0,-1.07813 0.35938,-1.90625 0.375,-0.84375 0.98437,-1.42188 0.60938,-0.57812 1.39063,-0.875 0.79687,-0.29687 1.65625,-0.29687 0.84375,0 1.625,0.29687 0.79687,0.29688 1.40625,0.875 0.625,0.57813 0.98437,1.42188 0.35938,0.82812 0.35938,1.90625 0,1.07812 -0.35938,1.92187 -0.35937,0.82813 -0.98437,1.40625 -0.60938,0.5625 -1.40625,0.875 -0.78125,0.29688 -1.625,0.29688 z m 0,-2.0625 q 0.875,0 1.3125,-0.65625 0.45312,-0.65625 0.45312,-1.78125 0,-1.125 -0.45312,-1.78125 -0.4375,-0.65625 -1.3125,-0.65625 -0.89063,0 -1.32813,0.65625 -0.4375,0.65625 -0.4375,1.78125 0,1.125 0.4375,1.78125 0.4375,0.65625 1.32813,0.65625 z m 7.2093,1.85937 v -8.59375 h 2.07813 l 0.20312,1.875 h 0.0469 q 0.64062,-1.0625 1.54687,-1.5625 0.90625,-0.51562 1.9375,-0.51562 0.57813,0 0.92188,0.0937 0.35937,0.0781 0.75,0.25 l -0.53125,2.125 q -0.39063,-0.125 -0.71875,-0.17188 -0.3125,-0.0625 -0.79688,-0.0625 -0.79687,0 -1.57812,0.46875 -0.76563,0.46875 -1.3125,1.625 v 4.46875 z m 8.99057,0 v -8.59375 h 1.92188 l 0.17187,1.0625 h 0.0625 q 0.25,-0.53125 0.67188,-0.89062 0.4375,-0.375 1.1875,-0.375 0.5625,0 0.9375,0.35937 0.39062,0.34375 0.54687,1.03125 0.25,-0.57812 0.70313,-0.98437 0.46875,-0.40625 1.20312,-0.40625 0.9375,0 1.4375,0.73437 0.5,0.73438 0.5,2.03125 v 6.03125 h -2.4375 v -5.85937 q 0,-0.39063 -0.10937,-0.57813 -0.0937,-0.20312 -0.35938,-0.20312 -0.23437,0 -0.40625,0.21875 -0.17187,0.20312 -0.375,0.60937 v 5.8125 h -1.98437 v -5.85937 q 0,-0.78125 -0.48438,-0.78125 -0.25,0 -0.42187,0.21875 -0.17188,0.20312 -0.34375,0.60937 v 5.8125 z m 16.58432,3.10938 q -1.70312,-1.51563 -2.6875,-3.48438 -0.96875,-1.98437 -0.96875,-4.4375 0,-2.46875 0.96875,-4.4375 0.98438,-1.98437 2.6875,-3.48437 l 1.42188,1.125 q -1.54688,1.5 -2.25,3.125 -0.70313,1.625 -0.70313,3.67187 0,1.01563 0.17188,1.9375 0.17187,0.90625 0.53125,1.73438 0.35937,0.82812 0.90625,1.59375 0.5625,0.78125 1.34375,1.51562 z m 7.20932,0 -1.42187,-1.14063 q 0.78125,-0.73437 1.32812,-1.51562 0.5625,-0.76563 0.90625,-1.59375 0.35938,-0.82813 0.53125,-1.73438 0.17188,-0.92187 0.17188,-1.9375 0,-2.04687 -0.70313,-3.67187 -0.70312,-1.625 -2.23437,-3.125 l 1.42187,-1.125 q 1.6875,1.5 2.67188,3.48437 0.98437,1.96875 0.98437,4.4375 0,2.45313 -0.98437,4.4375 -0.98438,1.96875 -2.67188,3.48438 z m 11.99057,-2.90625 q -0.90625,0 -1.46875,-0.57813 -0.54687,-0.57812 -0.54687,-1.4375 0,-0.4375 0.14062,-0.8125 0.15625,-0.375 0.40625,-0.64062 0.26563,-0.28125 0.64063,-0.4375 0.375,-0.15625 0.82812,-0.15625 0.45313,0 0.8125,0.15625 0.375,0.15625 0.625,0.4375 0.26563,0.26562 0.40625,0.64062 0.15625,0.375 0.15625,0.8125 0,0.85938 -0.5625,1.4375 -0.54687,0.57813 -1.4375,0.57813 z m 10.39682,0 q -0.90625,0 -1.46875,-0.57813 -0.54687,-0.57812 -0.54687,-1.4375 0,-0.4375 0.14062,-0.8125 0.15625,-0.375 0.40625,-0.64062 0.26563,-0.28125 0.64063,-0.4375 0.375,-0.15625 0.82812,-0.15625 0.45313,0 0.8125,0.15625 0.375,0.15625 0.625,0.4375 0.26563,0.26562 0.40625,0.64062 0.15625,0.375 0.15625,0.8125 0,0.85938 -0.5625,1.4375 -0.54687,0.57813 -1.4375,0.57813 z m 10.39684,0 q -0.90625,0 -1.46875,-0.57813 -0.54688,-0.57812 -0.54688,-1.4375 0,-0.4375 0.14063,-0.8125 0.15625,-0.375 0.40625,-0.64062 0.26562,-0.28125 0.64062,-0.4375 0.375,-0.15625 0.82813,-0.15625 0.45312,0 0.8125,0.15625 0.375,0.15625 0.625,0.4375 0.26562,0.26562 0.40625,0.64062 0.15625,0.375 0.15625,0.8125 0,0.85938 -0.5625,1.4375 -0.54688,0.57813 -1.4375,0.57813 z"
     fill="#000000" />
  <path
     id="path41"
     fill-rule="nonzero"
     d="m 91.829618,118.31951 q -0.90625,0 -1.46875,-0.57813 -0.54688,-0.57812 -0.54688,-1.4375 0,-0.4375 0.14063,-0.8125 0.15625,-0.375 0.40625,-0.64062 0.26562,-0.28125 0.64062,-0.4375 0.375,-0.15625 0.82813,-0.15625 0.45312,0 0.8125,0.15625 0.375,0.15625 0.625,0.4375 0.26562,0.26562 0.40625,0.64062 0.15625,0.375 0.15625,0.8125 0,0.85938 -0.5625,1.4375 -0.54688,0.57813 -1.4375,0.57813 z m 11.912452,0 q -1.01563,0 -1.73438,-0.26563 -0.70312,-0.28125 -1.15625,-0.76562 -0.4375,-0.5 -0.625,-1.1875 -0.1875,-0.70313 -0.1875,-1.54688 v -3.04687 h -2.171872 v -1.875 l 2.296872,-0.10938 0.32813,-2.64062 h 2.09375 v 2.64062 h 3.64063 v 1.98438 h -3.64064 v 3.01562 q 0,1 0.42188,1.40625 0.4375,0.40625 1.39062,0.40625 0.48438,0 0.89063,-0.0781 0.42188,-0.0937 0.81251,-0.23438 l 0.45312,1.82813 q -0.57812,0.17187 -1.26563,0.3125 -0.67188,0.15625 -1.54687,0.15625 z m 8.8812,0 q -0.85938,0 -1.65625,-0.29688 -0.78125,-0.3125 -1.39063,-0.875 -0.60937,-0.57812 -0.98437,-1.40625 -0.35938,-0.84375 -0.35938,-1.92187 0,-1.07813 0.35938,-1.90625 0.375,-0.84375 0.98437,-1.42188 0.60938,-0.57812 1.39063,-0.875 0.79687,-0.29687 1.65625,-0.29687 0.84375,0 1.625,0.29687 0.79687,0.29688 1.40625,0.875 0.625,0.57813 0.98437,1.42188 0.35938,0.82812 0.35938,1.90625 0,1.07812 -0.35938,1.92187 -0.35937,0.82813 -0.98437,1.40625 -0.60938,0.5625 -1.40625,0.875 -0.78125,0.29688 -1.625,0.29688 z m 0,-2.0625 q 0.875,0 1.3125,-0.65625 0.45312,-0.65625 0.45312,-1.78125 0,-1.125 -0.45312,-1.78125 -0.4375,-0.65625 -1.3125,-0.65625 -0.89063,0 -1.32813,0.65625 -0.4375,0.65625 -0.4375,1.78125 0,1.125 0.4375,1.78125 0.4375,0.65625 1.32813,0.65625 z m 11.99057,4.96875 q -1.70313,-1.51563 -2.6875,-3.48438 -0.96875,-1.98437 -0.96875,-4.4375 0,-2.46875 0.96875,-4.4375 0.98437,-1.98437 2.6875,-3.48437 l 1.42187,1.125 q -1.54687,1.5 -2.25,3.125 -0.70312,1.625 -0.70312,3.67187 0,1.01563 0.17187,1.9375 0.17188,0.90625 0.53125,1.73438 0.35938,0.82812 0.90625,1.59375 0.5625,0.78125 1.34375,1.51562 z m 6.53744,-8.14063 q -0.96875,0 -1.5,-0.71875 -0.53125,-0.73437 -0.53125,-2.04687 0,-1.42188 0.75,-2.5 0.76563,-1.09375 2.28125,-1.78125 l 0.65625,1.35937 q -0.89062,0.40625 -1.39062,1 -0.48438,0.59375 -0.54688,1.42188 0.17188,-0.0625 0.35938,-0.0625 0.70312,0 1.14062,0.4375 0.4375,0.42187 0.4375,1.14062 0,0.79688 -0.46875,1.28125 -0.46875,0.46875 -1.1875,0.46875 z m 4.57813,0 q -0.96875,0 -1.5,-0.71875 -0.53125,-0.73437 -0.53125,-2.04687 0,-1.42188 0.75,-2.5 0.76562,-1.09375 2.28125,-1.78125 l 0.65625,1.35937 q -0.89063,0.40625 -1.39063,1 -0.48437,0.59375 -0.54687,1.42188 0.17187,-0.0625 0.35937,-0.0625 0.70313,0 1.14063,0.4375 0.4375,0.42187 0.4375,1.14062 0,0.79688 -0.46875,1.28125 -0.46875,0.46875 -1.1875,0.46875 z m 4.19369,5.03125 v -12.14062 h 2.54688 v 7.01562 h 0.0781 l 3.15625,-3.46875 h 2.78125 l -3.26562,3.5 3.53125,5.09375 h -2.76563 l -2.25,-3.51562 -1.26562,1.34375 v 2.17187 z m 12.95932,0.20313 q -0.65625,0 -1.17187,-0.20313 -0.51563,-0.1875 -0.89063,-0.54687 -0.35937,-0.35938 -0.5625,-0.82813 -0.1875,-0.46875 -0.1875,-1.01562 0,-0.73438 0.3125,-1.26563 0.3125,-0.54687 0.98438,-0.92187 0.6875,-0.39063 1.76562,-0.625 1.07813,-0.23438 2.59375,-0.32813 -0.0625,-0.57812 -0.51562,-0.90625 -0.4375,-0.34375 -1.3125,-0.34375 -0.625,0 -1.26563,0.21875 -0.625,0.21875 -1.35937,0.57813 l -0.89063,-1.65625 q 0.875,-0.5 1.89063,-0.82813 1.01562,-0.32812 2.125,-0.32812 1.79687,0 2.82812,0.95312 1.04688,0.95313 1.04688,2.92188 v 4.92187 h -2.07813 l -0.1875,-0.96875 h -0.0625 q -0.67187,0.5 -1.45312,0.84375 -0.76563,0.32813 -1.60938,0.32813 z m 0.82813,-1.96875 q 0.5625,0 1.0625,-0.23438 0.5,-0.23437 0.95312,-0.57812 v -1.42188 q -0.95312,0.0469 -1.57812,0.17188 -0.625,0.125 -0.98438,0.3125 -0.35937,0.17187 -0.51562,0.42187 -0.14063,0.23438 -0.14063,0.51563 0,0.40625 0.3125,0.60937 0.32813,0.20313 0.89063,0.20313 z m 9.38119,1.76562 v -6.60937 h -2.26562 v -1.875 l 2.26562,-0.10938 v -0.21875 q 0,-0.75 0.21875,-1.39062 0.23438,-0.64063 0.70313,-1.10938 0.46875,-0.48437 1.1875,-0.76562 0.73437,-0.28125 1.73437,-0.28125 0.75,0 1.39063,0.14062 0.65625,0.14063 1.21875,0.32813 l -0.48438,1.875 q -0.85937,-0.32813 -1.8125,-0.32813 -0.82812,0 -1.21875,0.375 -0.39062,0.35938 -0.39062,1.125 v 0.25 h 2.96875 v 1.98438 h -2.96875 v 6.60937 z m 8.02181,0 v -12.14062 h 2.54687 v 7.01562 h 0.0781 l 3.15625,-3.46875 h 2.78125 l -3.26563,3.5 3.53125,5.09375 h -2.76562 l -2.25,-3.51562 -1.26563,1.34375 v 2.17187 z m 12.95932,0.20313 q -0.65625,0 -1.17188,-0.20313 -0.51562,-0.1875 -0.89062,-0.54687 -0.35938,-0.35938 -0.5625,-0.82813 -0.1875,-0.46875 -0.1875,-1.01562 0,-0.73438 0.3125,-1.26563 0.3125,-0.54687 0.98437,-0.92187 0.6875,-0.39063 1.76563,-0.625 1.07812,-0.23438 2.59375,-0.32813 -0.0625,-0.57812 -0.51563,-0.90625 -0.4375,-0.34375 -1.3125,-0.34375 -0.625,0 -1.26562,0.21875 -0.625,0.21875 -1.35938,0.57813 l -0.89062,-1.65625 q 0.875,-0.5 1.89062,-0.82813 1.01563,-0.32812 2.125,-0.32812 1.79688,0 2.82813,0.95312 1.04687,0.95313 1.04687,2.92188 v 4.92187 h -2.07812 l -0.1875,-0.96875 h -0.0625 q -0.67188,0.5 -1.45313,0.84375 -0.76562,0.32813 -1.60937,0.32813 z m 0.82812,-1.96875 q 0.5625,0 1.0625,-0.23438 0.5,-0.23437 0.95313,-0.57812 v -1.42188 q -0.95313,0.0469 -1.57813,0.17188 -0.625,0.125 -0.98437,0.3125 -0.35938,0.17187 -0.51563,0.42187 -0.14062,0.23438 -0.14062,0.51563 0,0.40625 0.3125,0.60937 0.32812,0.20313 0.89062,0.20313 z m 10.89682,-3.625 q -0.90625,0 -1.46875,-0.57813 -0.54687,-0.57812 -0.54687,-1.4375 0,-0.4375 0.14062,-0.8125 0.15625,-0.375 0.40625,-0.64062 0.26563,-0.28125 0.64063,-0.4375 0.375,-0.15625 0.82812,-0.15625 0.45313,0 0.8125,0.15625 0.375,0.15625 0.625,0.4375 0.26563,0.26562 0.40625,0.64062 0.15625,0.375 0.15625,0.8125 0,0.85938 -0.5625,1.4375 -0.54687,0.57813 -1.4375,0.57813 z m 0,5.59375 q -0.90625,0 -1.46875,-0.57813 -0.54687,-0.57812 -0.54687,-1.4375 0,-0.4375 0.14062,-0.8125 0.15625,-0.375 0.40625,-0.64062 0.26563,-0.28125 0.64063,-0.4375 0.375,-0.15625 0.82812,-0.15625 0.45313,0 0.8125,0.15625 0.375,0.15625 0.625,0.4375 0.26563,0.26562 0.40625,0.64062 0.15625,0.375 0.15625,0.8125 0,0.85938 -0.5625,1.4375 -0.54687,0.57813 -1.4375,0.57813 z m 11.91245,0 q -1.01563,0 -1.73438,-0.26563 -0.70312,-0.28125 -1.15625,-0.76562 -0.4375,-0.5 -0.625,-1.1875 -0.1875,-0.70313 -0.1875,-1.54688 v -3.04687 h -2.17187 v -1.875 l 2.29687,-0.10938 0.32813,-2.64062 h 2.09375 v 2.64062 h 3.64062 v 1.98438 h -3.64062 v 3.01562 q 0,1 0.42187,1.40625 0.4375,0.40625 1.39063,0.40625 0.48437,0 0.89062,-0.0781 0.42188,-0.0937 0.8125,-0.23438 l 0.45313,1.82813 q -0.57813,0.17187 -1.26563,0.3125 -0.67187,0.15625 -1.54687,0.15625 z m 8.88119,0 q -0.85937,0 -1.65625,-0.29688 -0.78125,-0.3125 -1.39062,-0.875 -0.60938,-0.57812 -0.98438,-1.40625 -0.35937,-0.84375 -0.35937,-1.92187 0,-1.07813 0.35937,-1.90625 0.375,-0.84375 0.98438,-1.42188 0.60937,-0.57812 1.39062,-0.875 0.79688,-0.29687 1.65625,-0.29687 0.84375,0 1.625,0.29687 0.79688,0.29688 1.40625,0.875 0.625,0.57813 0.98438,1.42188 0.35937,0.82812 0.35937,1.90625 0,1.07812 -0.35937,1.92187 -0.35938,0.82813 -0.98438,1.40625 -0.60937,0.5625 -1.40625,0.875 -0.78125,0.29688 -1.625,0.29688 z m 0,-2.0625 q 0.875,0 1.3125,-0.65625 0.45313,-0.65625 0.45313,-1.78125 0,-1.125 -0.45313,-1.78125 -0.4375,-0.65625 -1.3125,-0.65625 -0.89062,0 -1.32812,0.65625 -0.4375,0.65625 -0.4375,1.78125 0,1.125 0.4375,1.78125 0.4375,0.65625 1.32812,0.65625 z m 6.4437,5.04687 v -11.78125 h 2.07812 l 0.1875,0.85938 h 0.0469 q 0.53125,-0.46875 1.20312,-0.76563 0.67188,-0.29687 1.375,-0.29687 0.79688,0 1.4375,0.3125 0.64063,0.3125 1.07813,0.89062 0.45312,0.5625 0.6875,1.375 0.23437,0.79688 0.23437,1.78125 0,1.10938 -0.3125,1.96875 -0.3125,0.85938 -0.82812,1.45313 -0.51563,0.59375 -1.1875,0.90625 -0.67188,0.3125 -1.39063,0.3125 -1.1875,0 -2.10937,-0.9375 h -0.0781 l 0.125,1.40625 v 2.51562 z m 4.01562,-5.0625 q 0.73438,0 1.21875,-0.59375 0.48438,-0.59375 0.48438,-1.9375 0,-2.3125 -1.57813,-2.3125 -0.8125,0 -1.59375,0.79688 v 3.48437 q 0.35938,0.3125 0.75,0.4375 0.39063,0.125 0.71875,0.125 z m 9.94371,1.875 v -6.60937 h -3.4375 v -1.98438 h 5.98438 v 8.59375 z m 1.17188,-9.95312 q -0.75,0 -1.23438,-0.40625 -0.46875,-0.42188 -0.46875,-1.125 0,-0.71875 0.46875,-1.15625 0.48438,-0.4375 1.23438,-0.4375 0.73437,0 1.20312,0.4375 0.48438,0.4375 0.48438,1.15625 0,0.70312 -0.48438,1.125 -0.46875,0.40625 -1.20312,0.40625 z m 10.34994,10.15625 q -1.01562,0 -1.89062,-0.29688 -0.85938,-0.3125 -1.51563,-0.875 -0.64062,-0.57812 -1.01562,-1.40625 -0.35938,-0.84375 -0.35938,-1.92187 0,-1.07813 0.40625,-1.90625 0.40625,-0.84375 1.09375,-1.42188 0.6875,-0.57812 1.57813,-0.875 0.90625,-0.29687 1.90625,-0.29687 1.01562,0 1.82812,0.32812 0.82813,0.32813 1.39063,0.82813 l -1.1875,1.57812 q -0.95313,-0.67187 -1.90625,-0.67187 -1.10938,0 -1.79688,0.65625 -0.6875,0.65625 -0.6875,1.78125 0,1.125 0.65625,1.78125 0.67188,0.65625 1.75,0.65625 0.67188,0 1.23438,-0.23438 0.5625,-0.25 1.03125,-0.57812 l 1.03125,1.60937 q -0.78125,0.65625 -1.71875,0.96875 -0.9375,0.29688 -1.82813,0.29688 z m 6.34995,-5.23438 -0.67188,-1.34375 q 1.8125,-0.8125 1.92188,-2.40625 -0.15625,0.0469 -0.32813,0.0469 -0.70312,0 -1.15625,-0.42188 -0.4375,-0.4375 -0.4375,-1.17187 0,-0.79688 0.46875,-1.26563 0.46875,-0.48437 1.1875,-0.48437 1,0 1.51563,0.73437 0.51562,0.73438 0.51562,2.03125 0,1.42188 -0.75,2.51563 -0.73437,1.07812 -2.26562,1.76562 z m 4.57812,0 -0.67187,-1.34375 q 1.8125,-0.8125 1.92187,-2.40625 -0.15625,0.0469 -0.32812,0.0469 -0.70313,0 -1.15625,-0.42188 -0.4375,-0.4375 -0.4375,-1.17187 0,-0.79688 0.46875,-1.26563 0.46875,-0.48437 1.1875,-0.48437 1,0 1.51562,0.73437 0.51563,0.73438 0.51563,2.03125 0,1.42188 -0.75,2.51563 -0.73438,1.07812 -2.26563,1.76562 z m 7.53745,8.14063 -1.42188,-1.14063 q 0.78125,-0.73437 1.32813,-1.51562 0.5625,-0.76563 0.90625,-1.59375 0.35937,-0.82813 0.53125,-1.73438 0.17187,-0.92187 0.17187,-1.9375 0,-2.04687 -0.70312,-3.67187 -0.70313,-1.625 -2.23438,-3.125 l 1.42188,-1.125 q 1.6875,1.5 2.67187,3.48437 0.98438,1.96875 0.98438,4.4375 0,2.45313 -0.98438,4.4375 -0.98437,1.96875 -2.67187,3.48438 z"
     fill="#000000" />
  <path
     id="path45"
     fill-rule="evenodd"
     d="M 35.499516,103.47637 H 10.5 v 257.6378 h 149.62944"
     fill-opacity="0"
     fill="#000000" />
  <path
     id="path47"
     fill-rule="evenodd"
     d="M 35.499516,103.47637 H 10.5 v 257.6378 h 143.62944"
     stroke-linecap="butt"
     stroke-linejoin="round"
     stroke-width="1"
     stroke="#595959" />
  <path
     id="path49"
     fill-rule="evenodd"
     d="m 154.12945,362.76587 4.53809,-1.65173 -4.53809,-1.65174 z"
     stroke-linecap="butt"
     stroke-width="1"
     stroke="#595959"
     fill="#595959" />
  <path
     id="path51"
     fill-rule="evenodd"
     d="m 93.427338,256.18242 v 0 c 0,-38.16419 30.938172,-69.10236 69.102362,-69.10236 v 0 c 18.32709,0 35.90355,7.2804 48.86275,20.2396 12.95921,12.95923 20.23962,30.53567 20.23962,48.86276 v 0 c 0,38.16418 -30.93819,69.10239 -69.10237,69.10239 v 0 c -38.16418,0 -69.102352,-30.9382 -69.102352,-69.10239 z"
     fill="#ff0000" />
  <path
     id="path53"
     fill-rule="evenodd"
     d="m 115.61106,187.08007 h 87.40158 v 114.64566 h -87.40158 z"
     fill-opacity="0"
     fill="#000000" />
  <path
     id="path55"
     fill-rule="nonzero"
     d="m 170.87237,221.03691 v 67.20313 h -13.14063 v -53.85938 l -13.15625,5.375 v -11.42187 l 17.95313,-7.29688 z"
     fill="#ffffff" />
</svg>
