<?xml version="1.0" encoding="UTF-8" standalone="no"?>
<svg
   xmlns:dc="http://purl.org/dc/elements/1.1/"
   xmlns:cc="http://creativecommons.org/ns#"
   xmlns:rdf="http://www.w3.org/1999/02/22-rdf-syntax-ns#"
   xmlns:svg="http://www.w3.org/2000/svg"
   xmlns="http://www.w3.org/2000/svg"
   xmlns:sodipodi="http://sodipodi.sourceforge.net/DTD/sodipodi-0.dtd"
   xmlns:inkscape="http://www.inkscape.org/namespaces/inkscape"
   version="1.1"
   viewBox="0 0 430.54907 407.91046"
   stroke-miterlimit="10"
   id="svg180"
   sodipodi:docname="knative-eventing.svg"
   width="430.54907"
   height="407.91046"
   style="fill:none;stroke:none;stroke-linecap:square;stroke-miterlimit:10"
   inkscape:version="0.92.4 (unknown)">
  <metadata
     id="metadata186">
    <rdf:RDF>
      <cc:Work
         rdf:about="">
        <dc:format>image/svg+xml</dc:format>
        <dc:type
           rdf:resource="http://purl.org/dc/dcmitype/StillImage" />
        <dc:title></dc:title>
      </cc:Work>
    </rdf:RDF>
  </metadata>
  <defs
     id="defs184">
    <defs
       id="defs57">
      <filter
         filterUnits="userSpaceOnUse"
         id="shadowFilter-g5eaaacc56d_0_1401.2">
        <feGaussianBlur
           id="feGaussianBlur44"
           result="blur"
           stdDeviation="9.5"
           in="SourceAlpha" />
        <feComponentTransfer
           id="feComponentTransfer54"
           in="blur"
           style="color-interpolation-filters:sRGB">
          <feFuncR
             id="feFuncR46"
             intercept="0.7176471"
             slope="0"
             type="linear" />
          <feFuncG
             id="feFuncG48"
             intercept="0.7176471"
             slope="0"
             type="linear" />
          <feFuncB
             id="feFuncB50"
             intercept="0.7176471"
             slope="0"
             type="linear" />
          <feFuncA
             id="feFuncA52"
             intercept="0"
             slope="0.5"
             type="linear" />
        </feComponentTransfer>
      </filter>
    </defs>
    <defs
       id="defs81">
      <filter
         filterUnits="userSpaceOnUse"
         id="shadowFilter-g5eaaacc56d_0_1401.3">
        <feGaussianBlur
           id="feGaussianBlur68"
           result="blur"
           stdDeviation="9.5"
           in="SourceAlpha" />
        <feComponentTransfer
           id="feComponentTransfer78"
           in="blur"
           style="color-interpolation-filters:sRGB">
          <feFuncR
             id="feFuncR70"
             intercept="0.7176471"
             slope="0"
             type="linear" />
          <feFuncG
             id="feFuncG72"
             intercept="0.7176471"
             slope="0"
             type="linear" />
          <feFuncB
             id="feFuncB74"
             intercept="0.7176471"
             slope="0"
             type="linear" />
          <feFuncA
             id="feFuncA76"
             intercept="0"
             slope="0.5"
             type="linear" />
        </feComponentTransfer>
      </filter>
    </defs>
    <clipPath
       id="g5eaaacc56d_0_1401.1">
      <path
         d="M 0,0.23606557 H 306 V 71.771086 H 0 Z"
         id="path17"
         inkscape:connector-curvature="0"
         style="clip-rule:evenodd" />
    </clipPath>
  </defs>
  <sodipodi:namedview
     pagecolor="#ffffff"
     bordercolor="#666666"
     borderopacity="1"
     objecttolerance="10"
     gridtolerance="10"
     guidetolerance="10"
     inkscape:pageopacity="0"
     inkscape:pageshadow="2"
     inkscape:window-width="1830"
     inkscape:window-height="1051"
     id="namedview182"
     showgrid="false"
     inkscape:pagecheckerboard="true"
     fit-margin-top="0"
     fit-margin-left="0"
     fit-margin-right="0"
     fit-margin-bottom="0"
     inkscape:zoom="0.59662135"
     inkscape:cx="1.9071976"
     inkscape:cy="164.29776"
     inkscape:window-x="82"
     inkscape:window-y="0"
     inkscape:window-maximized="1"
     inkscape:current-layer="svg180" />
  <clipPath
     id="g5eaaacc56d_0_1401.0">
    <path
       d="M 0,0 H 1536 V 864 H 0 Z"
       id="path2"
       inkscape:connector-curvature="0"
       style="clip-rule:nonzero" />
  </clipPath>
  <path
     style="fill:#000000;fill-opacity:0;fill-rule:evenodd"
     inkscape:connector-curvature="0"
     id="path32"
     d="M 0,199.58005 V 395.80054" />
  <path
     d="M 144.3308,113.34882 160.40691,34.909 225.49657,0 l 65.08963,34.909 16.0761,78.43982 -45.0439,62.90408 h -72.24359 z"
     id="path83"
     inkscape:connector-curvature="0"
     style="fill:#1155cc;fill-rule:evenodd" />
  <path
     d="M 165.76644,99.06598 V 77.61285 h 13.96875 v 3.45313 h -10.29688 v 5.1875 h 6.34375 v 3.46875 h -6.34375 v 5.875 h 10.98438 v 3.46875 z m 22.22296,0 -5.73437,-15.67188 h 3.65625 l 3.45312,9.78125 q 0.375,1.23438 0.4375,1.42188 0.17188,-0.79688 0.42188,-1.42188 l 3.40625,-9.78125 h 3.64062 l -5.71875,15.67188 z m 18.66669,0.375 q -3.34375,0 -5.29688,-2.1875 -1.9375,-2.20313 -1.9375,-6.03125 0,-3.8125 1.95313,-6 1.96875,-2.1875 5.28125,-2.1875 3,0 4.92187,1.875 1.92188,1.85937 1.92188,5.48437 0,1.25 -0.125,2.20313 h -10.39063 q 0.0937,1.65625 1.14063,2.67187 1.0625,1 2.53125,1 2.09375,0 3.3125,-1.625 l 2.26562,2.34375 q -2.04687,2.45313 -5.57812,2.45313 z m -3.64063,-9.8125 h 6.92188 q -0.125,-1.6875 -1.04688,-2.5625 -0.92187,-0.875 -2.23437,-0.875 -1.53125,0 -2.53125,0.84375 -0.98438,0.84375 -1.10938,2.59375 z m 23.84302,9.4375 V 90.0816 q 0,-3.64062 -2.90625,-3.64062 -3.1875,0 -3.1875,3.57812 v 9.04688 h -3.59375 V 83.3941 h 3.59375 v 1.48438 q 1.53125,-1.84375 4.14063,-1.84375 2.45312,0 4,1.53125 1.54687,1.53125 1.54687,4.875 v 9.625 z m 12.62562,0.375 q -3.6406,0 -3.6406,-4.01563 v -8.89062 h -2.3282 V 83.3941 h 2.3282 v -4.75 l 3.5937,-1.71875 v 6.46875 h 3.6094 v 3.14063 h -3.6094 v 8.17187 q 0,1.51563 1.3125,1.51563 1.1875,0 2.4531,-0.71875 l -0.4375,3.21875 q -1.3437,0.71875 -3.2812,0.71875 z m 10.5833,-18.8125 q -0.6094,0.625 -1.5,0.625 -0.8906,0 -1.5156,-0.625 -0.625,-0.625 -0.625,-1.51563 0,-0.89062 0.625,-1.5 0.625,-0.625 1.5156,-0.625 0.8906,0 1.5,0.625 0.6094,0.60938 0.6094,1.5 0,0.89063 -0.6094,1.51563 z m -3.3125,18.4375 V 83.3941 h 3.5938 v 15.67188 z m 17.9028,0 V 90.0816 q 0,-3.64062 -2.9062,-3.64062 -3.1875,0 -3.1875,3.57812 v 9.04688 h -3.5938 V 83.3941 h 3.5938 v 1.48438 q 1.5312,-1.84375 4.1406,-1.84375 2.4531,0 4,1.53125 1.5469,1.53125 1.5469,4.875 v 9.625 z m 13.485,6.125 -1.8906,-2.875 q 3.2187,-0.21875 4.4531,-1 1.25,-0.78125 1.25,-2.40625 V 98.0191 q -1.2969,1.42188 -3.5625,1.42188 -2.875,0 -4.6719,-2.125 -1.7968,-2.14063 -1.7968,-6.09375 0,-3.8125 1.7968,-6 1.7969,-2.1875 4.7032,-2.1875 2.2031,0 3.5312,1.3125 V 83.3941 h 3.5781 v 14.10938 q 0,3.89062 -1.6718,5.64062 -1.6719,1.75 -5.7188,2.04688 z m 0.8594,-9.1875 q 1.9375,0 2.9531,-1.53125 v -6.5 q -1.0781,-1.53125 -2.9531,-1.53125 -1.6875,0 -2.5938,1.23437 -0.8906,1.21875 -0.8906,3.54688 0,2.20312 0.9063,3.5 0.9218,1.28125 2.5781,1.28125 z"
     id="path85"
     inkscape:connector-curvature="0"
     style="fill:#ffffff;fill-rule:nonzero" />
  <path
     style="fill:#000000;fill-opacity:0;fill-rule:evenodd"
     inkscape:connector-curvature="0"
     id="path140"
     d="m 20.43886,198.15155 h 410.1102 v 47.77951 H 20.43886 Z" />
  <path
     style="fill:#000000;fill-rule:nonzero"
     inkscape:connector-curvature="0"
     id="path142"
     d="m 62.3373,221.19153 v -16.79688 h 10.9375 v 2.70313 h -8.0625 v 4.0625 h 4.96875 v 2.71875 H 65.2123 v 4.59375 h 8.59375 v 2.71875 z m 17.3988,0 -4.5,-12.26563 h 2.85938 l 2.71875,7.65625 q 0.28125,0.96875 0.32812,1.10938 0.14063,-0.625 0.34375,-1.10938 l 2.65625,-7.65625 h 2.85938 l -4.48438,12.26563 z m 14.6056,0.28125 q -2.60938,0 -4.14063,-1.70313 -1.51562,-1.71875 -1.51562,-4.71875 0,-2.98437 1.53125,-4.6875 1.53125,-1.71875 4.125,-1.71875 2.35937,0 3.85937,1.46875 1.5,1.45313 1.5,4.28125 0,0.98438 -0.0937,1.73438 h -8.14062 q 0.0781,1.29687 0.90625,2.09375 0.82812,0.78125 1.96875,0.78125 1.64062,0 2.59375,-1.26563 l 1.78125,1.82813 q -1.60938,1.90625 -4.375,1.90625 z m -2.84375,-7.67188 h 5.42187 q -0.0937,-1.32812 -0.82812,-2 -0.71875,-0.6875 -1.75,-0.6875 -1.20313,0 -1.98438,0.65625 -0.76562,0.65625 -0.85937,2.03125 z m 18.67096,7.39063 v -7.03125 q 0,-2.85938 -2.28125,-2.85938 -2.5,0 -2.5,2.8125 v 7.07813 h -2.8125 V 208.9259 h 2.8125 v 1.15625 q 1.20312,-1.4375 3.23437,-1.4375 1.92188,0 3.125,1.20313 1.21875,1.1875 1.21875,3.8125 v 7.53125 z m 9.88763,0.28125 q -2.85938,0 -2.85938,-3.14063 v -6.95312 h -1.82812 v -2.45313 h 1.82812 v -3.71875 l 2.8125,-1.34375 v 5.0625 h 2.82813 v 2.45313 h -2.82813 v 6.40625 q 0,1.17187 1.03125,1.17187 0.92188,0 1.90625,-0.54687 l -0.32812,2.51562 q -1.0625,0.54688 -2.5625,0.54688 z m 17.05017,0 q -1.71875,0 -2.70313,-1.21875 v 0.9375 h -2.8125 v -16.0625 l 2.8125,-1.26563 v 5.96875 q 1.03125,-1.1875 2.76563,-1.1875 2.26562,0 3.67187,1.73438 1.40625,1.71875 1.40625,4.67187 0,3.0625 -1.375,4.75 -1.35937,1.67188 -3.76562,1.67188 z m -0.32813,-2.6875 q 1.29688,0 1.96875,-0.98438 0.6875,-1 0.6875,-2.75 0,-1.82812 -0.70312,-2.78125 -0.6875,-0.96875 -1.95313,-0.96875 -1.57812,0 -2.375,1.20313 v 5.10937 q 0.76563,1.17188 2.375,1.17188 z m 11.07789,-12.01563 q -0.46875,0.48438 -1.17188,0.48438 -0.6875,0 -1.1875,-0.48438 -0.48437,-0.5 -0.48437,-1.1875 0,-0.70312 0.48437,-1.1875 0.5,-0.48437 1.1875,-0.48437 0.70313,0 1.17188,0.48437 0.48437,0.48438 0.48437,1.1875 0,0.6875 -0.48437,1.1875 z m -2.57813,14.42188 V 208.9259 h 2.79688 v 12.26563 z m 14.01843,0 v -7.03125 q 0,-2.85938 -2.28125,-2.85938 -2.5,0 -2.5,2.8125 v 7.07813 h -2.8125 V 208.9259 h 2.8125 v 1.15625 q 1.20313,-1.4375 3.23438,-1.4375 1.92187,0 3.125,1.20313 1.21875,1.1875 1.21875,3.8125 v 7.53125 z m 10.76264,0.28125 q -2.34375,0 -3.71875,-1.70313 -1.35938,-1.70312 -1.35938,-4.71875 0,-2.95312 1.40625,-4.67187 1.42188,-1.73438 3.67188,-1.73438 1.78125,0 2.76562,1.14063 v -4.65625 l 2.8125,-1.26563 v 17.32813 h -2.8125 v -0.89063 q -0.90625,1.17188 -2.76562,1.17188 z m 0.4375,-2.6875 q 1.5625,0 2.32812,-1.17188 v -5.14062 q -0.79687,-1.17188 -2.32812,-1.17188 -1.29688,0 -2,0.98438 -0.70313,0.96875 -0.70313,2.76562 0,1.70313 0.71875,2.71875 0.71875,1.01563 1.98438,1.01563 z m 11.34344,-12.01563 q -0.46875,0.48438 -1.17187,0.48438 -0.6875,0 -1.1875,-0.48438 -0.48438,-0.5 -0.48438,-1.1875 0,-0.70312 0.48438,-1.1875 0.5,-0.48437 1.1875,-0.48437 0.70312,0 1.17187,0.48437 0.48438,0.48438 0.48438,1.1875 0,0.6875 -0.48438,1.1875 z m -2.57812,14.42188 V 208.9259 h 2.79687 v 12.26563 z m 14.01849,0 v -7.03125 q 0,-2.85938 -2.28125,-2.85938 -2.5,0 -2.5,2.8125 v 7.07813 h -2.8125 V 208.9259 h 2.8125 v 1.15625 q 1.20313,-1.4375 3.23438,-1.4375 1.92187,0 3.125,1.20313 1.21875,1.1875 1.21875,3.8125 v 7.53125 z m 10.55945,4.79687 -1.5,-2.25 q 2.53125,-0.17187 3.5,-0.78125 0.96875,-0.60937 0.96875,-1.89062 v -0.6875 q -1,1.09375 -2.78125,1.09375 -2.25,0 -3.65625,-1.65625 -1.40625,-1.67188 -1.40625,-4.76563 0,-2.98437 1.40625,-4.6875 1.40625,-1.71875 3.67187,-1.71875 1.73438,0 2.76563,1.03125 v -0.75 h 2.8125 v 11.04688 q 0,3.04687 -1.3125,4.40625 -1.3125,1.375 -4.46875,1.60937 z m 0.67187,-7.20312 q 1.5,0 2.29688,-1.1875 v -5.09375 q -0.84375,-1.20313 -2.29688,-1.20313 -1.32812,0 -2.03125,0.96875 -0.70312,0.95313 -0.70312,2.78125 0,1.71875 0.71875,2.73438 0.71875,1 2.01562,1 z m 21.5672,2.40625 v -0.98438 q -1.21875,1.26563 -3.26562,1.26563 -1.96875,0 -3.20313,-1.0625 -1.23437,-1.0625 -1.23437,-3.01563 0,-1.98437 1.40625,-3.01562 1.40625,-1.03125 3.39062,-1.03125 1.75,0 2.90625,0.64062 v -0.64062 q 0,-1.1875 -0.59375,-1.70313 -0.57812,-0.53125 -1.79687,-0.53125 -2,0 -3.65625,1.15625 l -0.85938,-2.28125 q 1.98438,-1.34375 4.79688,-1.34375 0.95312,0 1.6875,0.15625 0.73437,0.15625 1.51562,0.60938 0.78125,0.45312 1.20313,1.4375 0.4375,0.98437 0.4375,2.45312 v 7.89063 z m -2.73437,-2.1875 q 1.60937,0 2.73437,-1.17188 v -1.57812 q -1.04687,-0.51563 -2.4375,-0.51563 -1.14062,0 -1.84375,0.42188 -0.6875,0.40625 -0.6875,1.23437 0,0.75 0.57813,1.1875 0.57812,0.42188 1.65625,0.42188 z m 16.42373,2.1875 v -7.03125 q 0,-2.85938 -2.2813,-2.85938 -2.5,0 -2.5,2.8125 v 7.07813 h -2.8125 V 208.9259 h 2.8125 v 1.15625 q 1.2032,-1.4375 3.2344,-1.4375 1.9219,0 3.125,1.20313 1.2188,1.1875 1.2188,3.8125 v 7.53125 z m 10.7625,0.28125 q -2.3437,0 -3.7187,-1.70313 -1.3594,-1.70312 -1.3594,-4.71875 0,-2.95312 1.4063,-4.67187 1.4218,-1.73438 3.6718,-1.73438 1.7813,0 2.7657,1.14063 v -4.65625 l 2.8125,-1.26563 v 17.32813 h -2.8125 v -0.89063 q -0.9063,1.17188 -2.7657,1.17188 z m 0.4375,-2.6875 q 1.5625,0 2.3282,-1.17188 v -5.14062 q -0.7969,-1.17188 -2.3282,-1.17188 -1.2968,0 -2,0.98438 -0.7031,0.96875 -0.7031,2.76562 0,1.70313 0.7188,2.71875 0.7187,1.01563 1.9843,1.01563 z m 19.0986,2.6875 q -2.3438,0 -3.7188,-1.70313 -1.3594,-1.70312 -1.3594,-4.71875 0,-2.95312 1.4063,-4.67187 1.4219,-1.73438 3.6719,-1.73438 1.7812,0 2.7656,1.14063 v -4.65625 l 2.8125,-1.26563 v 17.32813 h -2.8125 v -0.89063 q -0.9063,1.17188 -2.7656,1.17188 z m 0.4375,-2.6875 q 1.5625,0 2.3281,-1.17188 v -5.14062 q -0.7969,-1.17188 -2.3281,-1.17188 -1.2969,0 -2,0.98438 -0.7032,0.96875 -0.7032,2.76562 0,1.70313 0.7188,2.71875 0.7187,1.01563 1.9844,1.01563 z m 13.7965,2.6875 q -2.6094,0 -4.1407,-1.70313 -1.5156,-1.71875 -1.5156,-4.71875 0,-2.98437 1.5313,-4.6875 1.5312,-1.71875 4.125,-1.71875 2.3593,0 3.8593,1.46875 1.5,1.45313 1.5,4.28125 0,0.98438 -0.094,1.73438 h -8.1406 q 0.078,1.29687 0.9062,2.09375 0.8281,0.78125 1.9688,0.78125 1.6406,0 2.5937,-1.26563 l 1.7813,1.82813 q -1.6094,1.90625 -4.375,1.90625 z m -2.8438,-7.67188 h 5.4219 q -0.094,-1.32812 -0.8281,-2 -0.7188,-0.6875 -1.75,-0.6875 -1.2032,0 -1.9844,0.65625 -0.7656,0.65625 -0.8594,2.03125 z m 11.2023,7.39063 V 205.1759 l 2.8125,-1.3125 v 17.32813 z m 9.1323,-14.42188 q -0.4687,0.48438 -1.1719,0.48438 -0.6875,0 -1.1875,-0.48438 -0.4843,-0.5 -0.4843,-1.1875 0,-0.70312 0.4843,-1.1875 0.5,-0.48437 1.1875,-0.48437 0.7032,0 1.1719,0.48437 0.4844,0.48438 0.4844,1.1875 0,0.6875 -0.4844,1.1875 z m -2.5781,14.42188 V 208.9259 h 2.7969 v 12.26563 z m 9.7215,0 -4.5,-12.26563 h 2.8594 l 2.7188,7.65625 q 0.2812,0.96875 0.3281,1.10938 0.1406,-0.625 0.3437,-1.10938 l 2.6563,-7.65625 h 2.8594 l -4.4844,12.26563 z m 14.6056,0.28125 q -2.6093,0 -4.1406,-1.70313 -1.5156,-1.71875 -1.5156,-4.71875 0,-2.98437 1.5312,-4.6875 1.5313,-1.71875 4.125,-1.71875 2.3594,0 3.8594,1.46875 1.5,1.45313 1.5,4.28125 0,0.98438 -0.094,1.73438 h -8.1407 q 0.078,1.29687 0.9063,2.09375 0.8281,0.78125 1.9687,0.78125 1.6407,0 2.5938,-1.26563 l 1.7812,1.82813 q -1.6093,1.90625 -4.375,1.90625 z m -2.8437,-7.67188 h 5.4219 q -0.094,-1.32812 -0.8282,-2 -0.7187,-0.6875 -1.75,-0.6875 -1.2031,0 -1.9843,0.65625 -0.7657,0.65625 -0.8594,2.03125 z m 11.0773,7.39063 V 208.9259 h 2.8125 v 1.28125 q 0.75,-1.5625 2.5156,-1.5625 1.2969,0 2.2812,0.82813 l -0.4062,2.57812 q -0.9063,-0.65625 -2.0938,-0.65625 -0.9531,0 -1.625,0.67188 -0.6718,0.67187 -0.6718,2.26562 v 6.85938 z m 11.3796,4.65625 1.8906,-4.84375 -4.6094,-12.07813 h 2.8438 l 2.8437,7.53125 q 0.2188,0.53125 0.3594,1.10938 0.125,-0.53125 0.3438,-1.10938 l 2.875,-7.53125 h 2.8437 l -6.4844,16.92188 z m 21.2853,-14.46875 v 9.8125 h -2.8125 v -9.8125 h -1.7657 v -2.45313 h 1.7657 v -1.92187 q 0,-2.90625 2.9062,-2.90625 1.4688,0 2.5938,0.57812 v 2.3125 q -0.9844,-0.40625 -1.75,-0.40625 -0.9375,0 -0.9375,0.95313 v 1.39062 h 2.6875 v 2.45313 z m 9.6225,10.09375 q -2.5937,0 -4.1093,-1.70313 -1.5,-1.70312 -1.5,-4.70312 0,-3 1.5,-4.70313 1.5156,-1.71875 4.1093,-1.71875 2.5938,0 4.1094,1.71875 1.5313,1.70313 1.5313,4.70313 0,3 -1.5157,4.70312 -1.5,1.70313 -4.125,1.70313 z m 0,-2.6875 q 1.3282,0 2.0782,-0.98438 0.75,-0.98437 0.75,-2.73437 0,-1.75 -0.75,-2.75 -0.75,-1.01563 -2.0782,-1.01563 -1.2656,0 -2.0312,1.03125 -0.7656,1.01563 -0.7656,2.75 0,1.71875 0.75,2.71875 0.75,0.98438 2.0468,0.98438 z m 8.6404,2.40625 V 208.9259 h 2.81246 v 1.28125 q 0.75,-1.5625 2.5156,-1.5625 1.2969,0 2.2813,0.82813 l -0.4063,2.57812 q -0.9062,-0.65625 -2.0937,-0.65625 -0.9531,0 -1.625,0.67188 -0.6719,0.67187 -0.6719,2.26562 v 6.85938 z" />
  <path
     style="fill:#000000;fill-rule:nonzero"
     inkscape:connector-curvature="0"
     id="path144"
     d="m 88.88955,250.19153 v -7.03125 q 0,-2.85938 -2.09375,-2.85938 -1.07813,0 -1.6875,0.73438 -0.60938,0.73437 -0.60938,2.17187 v 6.98438 h -2.8125 v -7.03125 q 0,-2.85938 -2.09375,-2.85938 -1.07812,0 -1.6875,0.73438 -0.60937,0.73437 -0.60937,2.17187 v 6.98438 H 74.4833 V 237.9259 h 2.8125 v 1.125 q 1.04687,-1.40625 3,-1.40625 2.25,0 3.21875,1.71875 1.17187,-1.71875 3.6875,-1.71875 2.0625,0 3.28125,1.14063 1.21875,1.14062 1.21875,3.57812 v 7.82813 z m 11.34418,0.28125 q -2.60938,0 -4.14063,-1.70313 -1.51562,-1.71875 -1.51562,-4.71875 0,-2.98437 1.53125,-4.6875 1.53125,-1.71875 4.125,-1.71875 2.35937,0 3.85937,1.46875 1.5,1.45313 1.5,4.28125 0,0.98438 -0.0937,1.73438 h -8.14062 q 0.0781,1.29687 0.90625,2.09375 0.82812,0.78125 1.96875,0.78125 1.64062,0 2.59375,-1.26563 l 1.78125,1.82813 q -1.60938,1.90625 -4.375,1.90625 z m -2.84375,-7.67188 h 5.42187 q -0.0937,-1.32812 -0.82812,-2 -0.71875,-0.6875 -1.75,-0.6875 -1.20313,0 -1.98438,0.65625 -0.76562,0.65625 -0.85937,2.03125 z m 14.94268,7.67188 q -1.48437,0 -2.79687,-0.5625 -1.3125,-0.57813 -1.98438,-1.54688 l 1.92188,-1.625 q 1.29687,1.29688 2.85937,1.29688 2,0 2,-1.20313 0,-0.40625 -0.35937,-0.73437 -0.34375,-0.34375 -0.75,-0.51563 -0.39063,-0.1875 -1.26563,-0.54687 -2.125,-0.70313 -3.09375,-1.59375 -0.96875,-0.90625 -0.96875,-2.39063 0,-1.60937 1.23438,-2.5 1.23437,-0.90625 3.125,-0.90625 2.79687,0 4.40625,1.89063 l -1.95313,1.57812 q -1.07812,-1.03125 -2.45312,-1.03125 -1.64063,0 -1.64063,1.01563 0,0.5 0.60938,0.85937 0.60937,0.35938 1.78125,0.75 2,0.67188 3.01562,1.59375 1.01563,0.90625 1.01563,2.53125 0,1.75 -1.28125,2.70313 -1.26563,0.9375 -3.42188,0.9375 z m 11.64002,0 q -1.48438,0 -2.79688,-0.5625 -1.3125,-0.57813 -1.98437,-1.54688 l 1.92187,-1.625 q 1.29688,1.29688 2.85938,1.29688 2,0 2,-1.20313 0,-0.40625 -0.35938,-0.73437 -0.34375,-0.34375 -0.75,-0.51563 -0.39062,-0.1875 -1.26562,-0.54687 -2.125,-0.70313 -3.09375,-1.59375 -0.96875,-0.90625 -0.96875,-2.39063 0,-1.60937 1.23437,-2.5 1.23438,-0.90625 3.125,-0.90625 2.79688,0 4.40625,1.89063 l -1.95312,1.57812 q -1.07813,-1.03125 -2.45313,-1.03125 -1.64062,0 -1.64062,1.01563 0,0.5 0.60937,0.85937 0.60938,0.35938 1.78125,0.75 2,0.67188 3.01563,1.59375 1.01562,0.90625 1.01562,2.53125 0,1.75 -1.28125,2.70313 -1.26562,0.9375 -3.42187,0.9375 z m 14.61481,-0.28125 v -0.98438 q -1.21875,1.26563 -3.26563,1.26563 -1.96875,0 -3.20312,-1.0625 -1.23438,-1.0625 -1.23438,-3.01563 0,-1.98437 1.40625,-3.01562 1.40625,-1.03125 3.39063,-1.03125 1.75,0 2.90625,0.64062 v -0.64062 q 0,-1.1875 -0.59375,-1.70313 -0.57813,-0.53125 -1.79688,-0.53125 -2,0 -3.65625,1.15625 l -0.85937,-2.28125 q 1.98437,-1.34375 4.79687,-1.34375 0.95313,0 1.6875,0.15625 0.73438,0.15625 1.51563,0.60938 0.78125,0.45312 1.20312,1.4375 0.4375,0.98437 0.4375,2.45312 v 7.89063 z m -2.73438,-2.1875 q 1.60938,0 2.73438,-1.17188 v -1.57812 q -1.04688,-0.51563 -2.4375,-0.51563 -1.14063,0 -1.84375,0.42188 -0.6875,0.40625 -0.6875,1.23437 0,0.75 0.57812,1.1875 0.57813,0.42188 1.65625,0.42188 z m 13.11121,6.98437 -1.5,-2.25 q 2.53125,-0.17187 3.5,-0.78125 0.96875,-0.60937 0.96875,-1.89062 v -0.6875 q -1,1.09375 -2.78125,1.09375 -2.25,0 -3.65625,-1.65625 -1.40625,-1.67188 -1.40625,-4.76563 0,-2.98437 1.40625,-4.6875 1.40625,-1.71875 3.67187,-1.71875 1.73438,0 2.76563,1.03125 v -0.75 h 2.8125 v 11.04688 q 0,3.04687 -1.3125,4.40625 -1.3125,1.375 -4.46875,1.60937 z m 0.67187,-7.20312 q 1.5,0 2.29688,-1.1875 v -5.09375 q -0.84375,-1.20313 -2.29688,-1.20313 -1.32812,0 -2.03125,0.96875 -0.70312,0.95313 -0.70312,2.78125 0,1.71875 0.71875,2.73438 0.71875,1 2.01562,1 z m 11.3122,-12.01563 q -0.46875,0.48438 -1.17188,0.48438 -0.6875,0 -1.1875,-0.48438 -0.48437,-0.5 -0.48437,-1.1875 0,-0.70312 0.48437,-1.1875 0.5,-0.48437 1.1875,-0.48437 0.70313,0 1.17188,0.48437 0.48437,0.48438 0.48437,1.1875 0,0.6875 -0.48437,1.1875 z m -2.57813,14.42188 V 237.9259 h 2.79688 v 12.26563 z m 14.0185,0 v -7.03125 q 0,-2.85938 -2.28125,-2.85938 -2.5,0 -2.5,2.8125 v 7.07813 h -2.8125 V 237.9259 h 2.8125 v 1.15625 q 1.20312,-1.4375 3.23437,-1.4375 1.92188,0 3.125,1.20313 1.21875,1.1875 1.21875,3.8125 v 7.53125 z m 10.55944,4.79687 -1.5,-2.25 q 2.53125,-0.17187 3.5,-0.78125 0.96875,-0.60937 0.96875,-1.89062 v -0.6875 q -1,1.09375 -2.78125,1.09375 -2.25,0 -3.65625,-1.65625 -1.40625,-1.67188 -1.40625,-4.76563 0,-2.98437 1.40625,-4.6875 1.40625,-1.71875 3.67188,-1.71875 1.73437,0 2.76562,1.03125 v -0.75 h 2.8125 v 11.04688 q 0,3.04687 -1.3125,4.40625 -1.3125,1.375 -4.46875,1.60937 z m 0.67188,-7.20312 q 1.5,0 2.29687,-1.1875 v -5.09375 q -0.84375,-1.20313 -2.29687,-1.20313 -1.32813,0 -2.03125,0.96875 -0.70313,0.95313 -0.70313,2.78125 0,1.71875 0.71875,2.73438 0.71875,1 2.01563,1 z m 18.52032,2.6875 q -1.48437,0 -2.79687,-0.5625 -1.3125,-0.57813 -1.98438,-1.54688 l 1.92188,-1.625 q 1.29687,1.29688 2.85937,1.29688 2,0 2,-1.20313 0,-0.40625 -0.35937,-0.73437 -0.34375,-0.34375 -0.75,-0.51563 -0.39063,-0.1875 -1.26563,-0.54687 -2.125,-0.70313 -3.09375,-1.59375 -0.96875,-0.90625 -0.96875,-2.39063 0,-1.60937 1.23438,-2.5 1.23437,-0.90625 3.125,-0.90625 2.79687,0 4.40625,1.89063 l -1.95313,1.57812 q -1.07812,-1.03125 -2.45312,-1.03125 -1.64063,0 -1.64063,1.01563 0,0.5 0.60938,0.85937 0.60937,0.35938 1.78125,0.75 2,0.67188 3.01562,1.59375 1.01563,0.90625 1.01563,2.53125 0,1.75 -1.28125,2.70313 -1.26563,0.9375 -3.42188,0.9375 z m 11.1919,0 q -2.85938,0 -2.85938,-3.14063 v -6.95312 h -1.82812 v -2.45313 h 1.82812 v -3.71875 l 2.8125,-1.34375 v 5.0625 h 2.82813 v 2.45313 h -2.82813 v 6.40625 q 0,1.17187 1.03125,1.17187 0.92188,0 1.90625,-0.54687 l -0.32812,2.51562 q -1.0625,0.54688 -2.5625,0.54688 z m 7.05023,4.375 1.89063,-4.84375 -4.60938,-12.07813 h 2.84375 l 2.84375,7.53125 q 0.21875,0.53125 0.35938,1.10938 0.125,-0.53125 0.34375,-1.10938 l 2.875,-7.53125 h 2.84375 l -6.48438,16.92188 z m 11.90537,-4.65625 V 234.1759 l 2.8125,-1.3125 v 17.32813 z m 11.5854,0.28125 q -2.6094,0 -4.1406,-1.70313 -1.5156,-1.71875 -1.5156,-4.71875 0,-2.98437 1.5312,-4.6875 1.5313,-1.71875 4.125,-1.71875 2.3594,0 3.8594,1.46875 1.5,1.45313 1.5,4.28125 0,0.98438 -0.094,1.73438 h -8.1406 q 0.078,1.29687 0.9063,2.09375 0.8281,0.78125 1.9687,0.78125 1.6406,0 2.5938,-1.26563 l 1.7812,1.82813 q -1.6094,1.90625 -4.375,1.90625 z m -2.8437,-7.67188 h 5.4218 q -0.094,-1.32812 -0.8281,-2 -0.7187,-0.6875 -1.75,-0.6875 -1.2031,0 -1.9844,0.65625 -0.7656,0.65625 -0.8593,2.03125 z m 19.5665,-7.03125 q -0.4688,0.48438 -1.1719,0.48438 -0.6875,0 -1.1875,-0.48438 -0.4844,-0.5 -0.4844,-1.1875 0,-0.70312 0.4844,-1.1875 0.5,-0.48437 1.1875,-0.48437 0.7031,0 1.1719,0.48437 0.4844,0.48438 0.4844,1.1875 0,0.6875 -0.4844,1.1875 z m -2.5781,14.42188 V 237.9259 h 2.7968 v 12.26563 z m 14.0185,0 v -7.03125 q 0,-2.85938 -2.2812,-2.85938 -2.5,0 -2.5,2.8125 v 7.07813 h -2.8125 V 237.9259 h 2.8125 v 1.15625 q 1.2031,-1.4375 3.2343,-1.4375 1.9219,0 3.125,1.20313 1.2188,1.1875 1.2188,3.8125 v 7.53125 z m 9.8876,0.28125 q -2.8594,0 -2.8594,-3.14063 v -6.95312 h -1.8281 v -2.45313 h 1.8281 v -3.71875 l 2.8125,-1.34375 v 5.0625 h 2.8281 v 2.45313 h -2.8281 v 6.40625 q 0,1.17187 1.0313,1.17187 0.9218,0 1.9062,-0.54687 l -0.3281,2.51562 q -1.0625,0.54688 -2.5625,0.54688 z m 10.525,0 q -2.6094,0 -4.1406,-1.70313 -1.5156,-1.71875 -1.5156,-4.71875 0,-2.98437 1.5312,-4.6875 1.5313,-1.71875 4.125,-1.71875 2.3594,0 3.8594,1.46875 1.5,1.45313 1.5,4.28125 0,0.98438 -0.094,1.73438 h -8.1406 q 0.078,1.29687 0.9063,2.09375 0.8281,0.78125 1.9687,0.78125 1.6406,0 2.5938,-1.26563 l 1.7812,1.82813 q -1.6094,1.90625 -4.375,1.90625 z m -2.8437,-7.67188 h 5.4218 q -0.094,-1.32812 -0.8281,-2 -0.7187,-0.6875 -1.75,-0.6875 -1.2031,0 -1.9844,0.65625 -0.7656,0.65625 -0.8593,2.03125 z m 15.3585,12.1875 -1.5,-2.25 q 2.5312,-0.17187 3.5,-0.78125 0.9687,-0.60937 0.9687,-1.89062 v -0.6875 q -1,1.09375 -2.7812,1.09375 -2.25,0 -3.6563,-1.65625 -1.4062,-1.67188 -1.4062,-4.76563 0,-2.98437 1.4062,-4.6875 1.4063,-1.71875 3.6719,-1.71875 1.7344,0 2.7656,1.03125 v -0.75 h 2.8125 v 11.04688 q 0,3.04687 -1.3125,4.40625 -1.3125,1.375 -4.4687,1.60937 z m 0.6719,-7.20312 q 1.5,0 2.2968,-1.1875 v -5.09375 q -0.8437,-1.20313 -2.2968,-1.20313 -1.3282,0 -2.0313,0.96875 -0.7031,0.95313 -0.7031,2.78125 0,1.71875 0.7187,2.73438 0.7188,1 2.0157,1 z m 8.7028,2.40625 V 237.9259 h 2.8125 v 1.28125 q 0.75,-1.5625 2.5157,-1.5625 1.2968,0 2.2812,0.82813 l -0.4062,2.57812 q -0.9063,-0.65625 -2.0938,-0.65625 -0.9531,0 -1.625,0.67188 -0.6719,0.67187 -0.6719,2.26562 v 6.85938 z m 16.4163,0 v -0.98438 q -1.2187,1.26563 -3.2656,1.26563 -1.9688,0 -3.2031,-1.0625 -1.2344,-1.0625 -1.2344,-3.01563 0,-1.98437 1.4062,-3.01562 1.4063,-1.03125 3.3907,-1.03125 1.75,0 2.9062,0.64062 v -0.64062 q 0,-1.1875 -0.5937,-1.70313 -0.5782,-0.53125 -1.7969,-0.53125 -2,0 -3.6563,1.15625 l -0.8593,-2.28125 q 1.9843,-1.34375 4.7968,-1.34375 0.9532,0 1.6875,0.15625 0.7344,0.15625 1.5157,0.60938 0.7812,0.45312 1.2031,1.4375 0.4375,0.98437 0.4375,2.45312 v 7.89063 z m -2.7344,-2.1875 q 1.6094,0 2.7344,-1.17188 v -1.57812 q -1.0469,-0.51563 -2.4375,-0.51563 -1.1406,0 -1.8437,0.42188 -0.6875,0.40625 -0.6875,1.23437 0,0.75 0.5781,1.1875 0.5781,0.42188 1.6562,0.42188 z m 12.4394,2.46875 q -2.8594,0 -2.8594,-3.14063 v -6.95312 h -1.8281 v -2.45313 h 1.8281 v -3.71875 l 2.8125,-1.34375 v 5.0625 h 2.8281 v 2.45313 h -2.8281 v 6.40625 q 0,1.17187 1.0312,1.17187 0.9219,0 1.9063,-0.54687 l -0.3281,2.51562 q -1.0625,0.54688 -2.5625,0.54688 z m 8.264,-14.70313 q -0.4687,0.48438 -1.1719,0.48438 -0.6875,0 -1.1875,-0.48438 -0.4843,-0.5 -0.4843,-1.1875 0,-0.70312 0.4843,-1.1875 0.5,-0.48437 1.1875,-0.48437 0.7032,0 1.1719,0.48437 0.4844,0.48438 0.4844,1.1875 0,0.6875 -0.4844,1.1875 z m -2.5781,14.42188 V 237.9259 h 2.7969 v 12.26563 z m 11.4403,0.28125 q -2.5938,0 -4.1094,-1.70313 -1.5,-1.70312 -1.5,-4.70312 0,-3 1.5,-4.70313 1.5156,-1.71875 4.1094,-1.71875 2.5937,0 4.1094,1.71875 1.5312,1.70313 1.5312,4.70313 0,3 -1.5156,4.70312 -1.5,1.70313 -4.125,1.70313 z m 0,-2.6875 q 1.3281,0 2.0781,-0.98438 0.75,-0.98437 0.75,-2.73437 0,-1.75 -0.75,-2.75 -0.75,-1.01563 -2.0781,-1.01563 -1.2656,0 -2.0313,1.03125 -0.7656,1.01563 -0.7656,2.75 0,1.71875 0.75,2.71875 0.75,0.98438 2.0469,0.98438 z m 16.2341,2.40625 v -7.03125 q 0,-2.85938 -2.2812,-2.85938 -2.5,0 -2.5,2.8125 v 7.07813 h -2.8125 V 237.9259 h 2.8125 v 1.15625 q 1.2031,-1.4375 3.2343,-1.4375 1.9219,0 3.125,1.20313 1.2188,1.1875 1.2188,3.8125 v 7.53125 z" />
  <path
     style="fill:#c9daf8;fill-rule:evenodd"
     inkscape:connector-curvature="0"
     id="path146"
     d="m 85.547,290.03022 v 0 c 0,-9.43103 7.64539,-17.07642 17.07642,-17.07642 H 335.998 c 4.529,0 8.8725,1.79908 12.075,5.00153 3.2024,3.20251 5.0016,7.54596 5.0016,12.07489 v 68.30377 c 0,9.43109 -7.6454,17.07648 -17.0766,17.07648 H 102.62342 v 0 c -9.43103,0 -17.07642,-7.64539 -17.07642,-17.07648 z" />
  <path
     style="fill-rule:evenodd;stroke:#595959;stroke-width:1;stroke-linecap:butt;stroke-linejoin:round"
     inkscape:connector-curvature="0"
     id="path148"
     d="m 85.547,290.03022 v 0 c 0,-9.43103 7.64539,-17.07642 17.07642,-17.07642 H 335.998 c 4.529,0 8.8725,1.79908 12.075,5.00153 3.2024,3.20251 5.0016,7.54596 5.0016,12.07489 v 68.30377 c 0,9.43109 -7.6454,17.07648 -17.0766,17.07648 H 102.62342 v 0 c -9.43103,0 -17.07642,-7.64539 -17.07642,-17.07648 z" />
  <path
     style="fill:#000000;fill-rule:nonzero"
     inkscape:connector-curvature="0"
     id="path150"
     d="m 126.206,303.98588 -0.54688,0.17188 0.32813,0.125 4.76562,2.03125 -0.28125,1.57812 -6.42187,-3.20312 0.21875,-1.23438 7.53125,-3.20312 -0.26563,1.70312 z m 10.17011,0 -0.54688,0.17188 0.32813,0.125 4.76562,2.03125 -0.28125,1.57812 -6.42187,-3.20312 0.21875,-1.23438 7.53125,-3.20312 -0.26563,1.70312 z m 11.17016,4.51563 q 0.40625,0.0156 0.8125,-0.10938 0.40625,-0.125 0.73438,-0.35937 0.34375,-0.23438 0.57812,-0.5625 0.23438,-0.34375 0.32813,-0.75 l 1.45312,-0.0156 q -0.0781,0.70313 -0.46875,1.28125 -0.375,0.5625 -0.9375,0.96875 -0.54687,0.40625 -1.23437,0.625 -0.67188,0.20313 -1.34375,0.1875 -0.95313,-0.0156 -1.64063,-0.40625 -0.67187,-0.39062 -1.09375,-1.01562 -0.40625,-0.64063 -0.5625,-1.45313 -0.15625,-0.8125 -0.0625,-1.67187 l 0.0312,-0.35938 q 0.0781,-0.625 0.26563,-1.20312 0.20312,-0.57813 0.5,-1.09375 0.3125,-0.53125 0.70312,-0.95313 0.40625,-0.42187 0.90625,-0.71875 0.5,-0.3125 1.07813,-0.46875 0.59375,-0.17187 1.25,-0.15625 0.70312,0.0156 1.29687,0.28125 0.60938,0.25 1.03125,0.6875 0.4375,0.4375 0.65625,1.04688 0.23438,0.59375 0.20313,1.3125 h -1.4375 q 0.0156,-0.4375 -0.10938,-0.79688 -0.10937,-0.35937 -0.35937,-0.625 -0.23438,-0.28125 -0.57813,-0.4375 -0.34375,-0.17187 -0.78125,-0.1875 -0.70312,-0.0312 -1.25,0.26563 -0.53125,0.28125 -0.92187,0.75 -0.375,0.46875 -0.60938,1.07812 -0.23437,0.59375 -0.3125,1.21875 l -0.0469,0.35938 q -0.0312,0.35937 -0.0312,0.75 0,0.375 0.0625,0.73437 0.0625,0.35938 0.1875,0.6875 0.14062,0.3125 0.35937,0.5625 0.23438,0.23438 0.5625,0.39063 0.32813,0.15625 0.78125,0.15625 z m 12.24823,-0.17188 q -0.53125,0.67188 -1.23437,1.0625 -0.70313,0.39063 -1.59375,0.375 -0.82813,-0.0156 -1.34375,-0.35937 -0.51563,-0.34375 -0.79688,-0.89063 -0.28125,-0.5625 -0.35937,-1.25 -0.0781,-0.6875 0,-1.39062 l 0.92187,-5.4375 h 1.53125 l -0.90625,5.46875 q -0.0469,0.42187 -0.0625,0.875 -0.0156,0.4375 0.10938,0.79687 0.125,0.35938 0.40625,0.60938 0.29687,0.23437 0.82812,0.25 0.84375,0.0156 1.5,-0.35938 0.65625,-0.375 1.09375,-1.0625 l 1.14063,-6.57812 h 1.54687 l -1.59375,9.15625 h -1.375 z m 10.49823,-1.21875 q 0.0469,-0.39062 -0.14062,-0.64062 -0.17188,-0.26563 -0.46875,-0.42188 -0.28125,-0.15625 -0.625,-0.25 -0.34375,-0.10937 -0.625,-0.17187 -0.51563,-0.125 -1.0625,-0.3125 -0.54688,-0.1875 -1.01563,-0.48438 -0.45312,-0.29687 -0.73437,-0.73437 -0.28125,-0.45313 -0.25,-1.07813 0.0156,-0.46875 0.1875,-0.84375 0.17187,-0.39062 0.45312,-0.70312 0.28125,-0.3125 0.64063,-0.53125 0.375,-0.23438 0.78125,-0.375 0.40625,-0.15625 0.82812,-0.21875 0.4375,-0.0781 0.85938,-0.0781 0.64062,0.0156 1.23437,0.20313 0.59375,0.1875 1.04688,0.54687 0.45312,0.35938 0.70312,0.89063 0.26563,0.53125 0.26563,1.23437 l -1.51563,-0.0156 q 0,-0.375 -0.15625,-0.65625 -0.14062,-0.29688 -0.39062,-0.48438 -0.25,-0.20312 -0.57813,-0.29687 -0.3125,-0.10938 -0.67187,-0.125 -0.34375,0 -0.70313,0.0781 -0.35937,0.0625 -0.67187,0.23438 -0.3125,0.15625 -0.53125,0.4375 -0.21875,0.26562 -0.26563,0.64062 -0.0625,0.375 0.10938,0.625 0.1875,0.23438 0.45312,0.39063 0.28125,0.14062 0.60938,0.21875 0.34375,0.0781 0.625,0.14062 0.34375,0.0937 0.71875,0.20313 0.375,0.10937 0.71875,0.26562 0.35937,0.14063 0.67187,0.34375 0.32813,0.20313 0.54688,0.46875 0.23437,0.26563 0.35937,0.60938 0.14063,0.34375 0.10938,0.78125 -0.0312,0.73437 -0.40625,1.26562 -0.35938,0.53125 -0.92188,0.875 -0.5625,0.32813 -1.25,0.48438 -0.67187,0.15625 -1.3125,0.14062 -0.67187,-0.0156 -1.3125,-0.20312 -0.625,-0.20313 -1.10937,-0.57813 -0.48438,-0.375 -0.78125,-0.92187 -0.29688,-0.5625 -0.28125,-1.29688 l 1.53125,0.0156 q 0,0.4375 0.15625,0.76562 0.17187,0.3125 0.4375,0.53125 0.26562,0.20313 0.625,0.3125 0.375,0.0937 0.79687,0.0937 0.32813,0.0156 0.70313,-0.0469 0.39062,-0.0781 0.71875,-0.23438 0.34375,-0.15625 0.57812,-0.42187 0.25,-0.28125 0.3125,-0.67188 z m 9.37323,-8.89062 -0.39062,2.21875 h 3.39062 l -0.21875,1.21875 h -3.375 l -0.82812,4.96875 q -0.0469,0.375 0,0.70312 0.0469,0.3125 0.1875,0.5625 0.14062,0.23438 0.40625,0.375 0.26562,0.14063 0.67187,0.15625 0.46875,0.0156 0.92188,-0.0625 0.46875,-0.0937 0.92187,-0.20312 l 0.15625,1.14062 q -0.54687,0.28125 -1.20312,0.375 -0.64063,0.0937 -1.23438,0.0781 -0.6875,0 -1.17187,-0.25 -0.46875,-0.26563 -0.76563,-0.6875 -0.28125,-0.4375 -0.39062,-1 -0.0937,-0.5625 -0.0312,-1.1875 l 0.82812,-4.96875 h -2.34375 l 0.21875,-1.21875 h 2.32813 l 0.375,-2.21875 z m 4.98267,6.76562 q 0.0625,-0.60937 0.25,-1.20312 0.20312,-0.59375 0.5,-1.125 0.29687,-0.53125 0.6875,-0.96875 0.40625,-0.45313 0.90625,-0.76563 0.5,-0.32812 1.07812,-0.5 0.59375,-0.17187 1.26563,-0.15625 0.96875,0.0312 1.64062,0.4375 0.6875,0.39063 1.09375,1.04688 0.42188,0.64062 0.57813,1.46875 0.15625,0.82812 0.0625,1.6875 l -0.0156,0.1875 q -0.125,0.92187 -0.5,1.78125 -0.375,0.85937 -0.98437,1.51562 -0.59375,0.64063 -1.40625,1.01563 -0.8125,0.375 -1.8125,0.35937 -0.95313,-0.0312 -1.64063,-0.42187 -0.67187,-0.39063 -1.09375,-1.03125 -0.40625,-0.64063 -0.57812,-1.45313 -0.15625,-0.8125 -0.0625,-1.6875 z m 1.5,0.1875 q -0.0469,0.35938 -0.0469,0.75 0.0156,0.375 0.0781,0.73438 0.0625,0.35937 0.1875,0.70312 0.14062,0.32813 0.35937,0.57813 0.23438,0.25 0.5625,0.40625 0.32813,0.14062 0.76563,0.15625 0.70312,0.0312 1.25,-0.26563 0.54687,-0.3125 0.92187,-0.79687 0.39063,-0.5 0.60938,-1.10938 0.23437,-0.625 0.32812,-1.23437 l 0.0156,-0.17188 q 0.0625,-0.54687 0.0156,-1.125 -0.0312,-0.57812 -0.25,-1.07812 -0.20312,-0.5 -0.60937,-0.8125 -0.40625,-0.32813 -1.0625,-0.35938 -0.71875,-0.0312 -1.26563,0.28125 -0.53125,0.3125 -0.92187,0.8125 -0.375,0.5 -0.60938,1.125 -0.21875,0.60938 -0.29687,1.21875 z m 10.56073,-4.73437 -0.17188,0.85937 q 0.35938,-0.48437 0.8125,-0.75 0.45313,-0.28125 1.0625,-0.28125 0.26563,0 0.5,0.0625 0.23438,0.0469 0.4375,0.17188 0.20313,0.10937 0.34375,0.29687 0.15625,0.1875 0.23438,0.45313 0.34375,-0.45313 0.79687,-0.71875 0.45313,-0.26563 1.04688,-0.26563 0.53125,0.0156 0.875,0.23438 0.35937,0.20312 0.5625,0.5625 0.20312,0.34375 0.26562,0.79687 0.0625,0.4375 0.0156,0.89063 l -1.14063,6.84375 h -1.45312 l 1.15625,-6.85938 q 0.0156,-0.23437 -0.0156,-0.4375 -0.0156,-0.21875 -0.10937,-0.375 -0.0781,-0.15625 -0.26563,-0.23437 -0.17187,-0.0937 -0.42187,-0.0937 -0.46875,0 -0.8125,0.25 -0.32813,0.25 -0.45313,0.6875 l -1.1875,7.0625 h -1.46875 l 1.17188,-6.875 q 0.0156,-0.21875 -0.0156,-0.42188 -0.0156,-0.20312 -0.10937,-0.34375 -0.0781,-0.15625 -0.23438,-0.25 -0.15625,-0.0937 -0.42187,-0.10937 -0.42188,0 -0.71875,0.1875 -0.29688,0.17187 -0.51563,0.51562 l -1.25,7.29688 h -1.46875 l 1.59375,-9.15625 z m 15.3576,4.40625 h -6.29687 l 0.23437,-1.28125 h 6.28125 z m 10.03797,-4.59375 q 0.40625,0.0156 0.8125,0.0625 0.40625,0.0469 0.79687,0.1875 l -0.39062,1.51562 q -0.40625,-0.0937 -0.8125,-0.14062 -0.40625,-0.0625 -0.8125,-0.0781 -1.07813,0 -1.84375,0.5 -0.75,0.5 -1.26563,1.42188 l -1.01562,5.875 h -1.53125 l 1.59375,-9.15625 h 1.45312 l -0.25,1.45312 q 0.3125,-0.375 0.67188,-0.67187 0.375,-0.3125 0.78125,-0.51563 0.40625,-0.21875 0.85937,-0.32812 0.45313,-0.125 0.95313,-0.125 z m 6.8576,9.51562 q -0.92187,-0.0156 -1.64062,-0.375 -0.70313,-0.375 -1.15625,-0.96875 -0.45313,-0.60937 -0.65625,-1.39062 -0.20313,-0.78125 -0.125,-1.67188 l 0.0469,-0.35937 q 0.0625,-0.59375 0.25,-1.1875 0.20313,-0.59375 0.51563,-1.125 0.3125,-0.53125 0.71875,-0.96875 0.40625,-0.45313 0.90625,-0.78125 0.51562,-0.32813 1.09375,-0.5 0.59375,-0.1875 1.25,-0.17188 0.93751,0.0312 1.59371,0.42188 0.6563,0.375 1.0313,1 0.3906,0.625 0.5156,1.4375 0.125,0.79687 0.016,1.64062 l -0.1094,0.70313 h -6.31244 q -0.0625,0.54687 0.0312,1.09375 0.10938,0.53125 0.375,0.95312 0.28125,0.42188 0.73438,0.6875 0.45312,0.25 1.0625,0.28125 0.79687,0.0156 1.46876,-0.3125 0.6719,-0.34375 1.2188,-0.90625 l 0.875,0.75 q -0.3125,0.4375 -0.7344,0.78125 -0.4219,0.32813 -0.9063,0.54688 -0.4687,0.21875 -0.99999,0.3125 -0.51562,0.10937 -1.0625,0.10937 z m 1.125,-8.20312 q -0.59375,-0.0312 -1.07812,0.20312 -0.46875,0.21875 -0.84375,0.59375 -0.35938,0.35938 -0.625,0.84375 -0.26563,0.48438 -0.45313,0.96875 l 4.78127,0.0312 0.031,-0.15625 q 0.078,-0.46875 -0.016,-0.90625 -0.078,-0.4375 -0.3281,-0.78125 -0.2344,-0.35937 -0.6094,-0.5625 -0.3594,-0.21875 -0.85937,-0.23437 z m 11.40457,5.54687 q 0.047,-0.39062 -0.1407,-0.64062 -0.1718,-0.26563 -0.4687,-0.42188 -0.2813,-0.15625 -0.625,-0.25 -0.3438,-0.10937 -0.625,-0.17187 -0.5156,-0.125 -1.0625,-0.3125 -0.5469,-0.1875 -1.0156,-0.48438 -0.4532,-0.29687 -0.7344,-0.73437 -0.2813,-0.45313 -0.25,-1.07813 0.016,-0.46875 0.1875,-0.84375 0.1719,-0.39062 0.4531,-0.70312 0.2813,-0.3125 0.6406,-0.53125 0.375,-0.23438 0.7813,-0.375 0.4062,-0.15625 0.8281,-0.21875 0.4375,-0.0781 0.8594,-0.0781 0.6406,0.0156 1.2344,0.20313 0.5937,0.1875 1.0468,0.54687 0.4532,0.35938 0.7032,0.89063 0.2656,0.53125 0.2656,1.23437 l -1.5156,-0.0156 q 0,-0.375 -0.1563,-0.65625 -0.1406,-0.29688 -0.3906,-0.48438 -0.25,-0.20312 -0.5781,-0.29687 -0.3125,-0.10938 -0.6719,-0.125 -0.3438,0 -0.7031,0.0781 -0.3594,0.0625 -0.6719,0.23438 -0.3125,0.15625 -0.5313,0.4375 -0.2187,0.26562 -0.2656,0.64062 -0.062,0.375 0.1094,0.625 0.1875,0.23438 0.4531,0.39063 0.2813,0.14062 0.6094,0.21875 0.3437,0.0781 0.625,0.14062 0.3437,0.0937 0.7187,0.20313 0.375,0.10937 0.7188,0.26562 0.3594,0.14063 0.6719,0.34375 0.3281,0.20313 0.5468,0.46875 0.2344,0.26563 0.3594,0.60938 0.1406,0.34375 0.1094,0.78125 -0.031,0.73437 -0.4063,1.26562 -0.3593,0.53125 -0.9218,0.875 -0.5625,0.32813 -1.25,0.48438 -0.6719,0.15625 -1.3125,0.14062 -0.6719,-0.0156 -1.3125,-0.20312 -0.625,-0.20313 -1.1094,-0.57813 -0.4844,-0.375 -0.7813,-0.92187 -0.2968,-0.5625 -0.2812,-1.29688 l 1.5312,0.0156 q 0,0.4375 0.1563,0.76562 0.1719,0.3125 0.4375,0.53125 0.2656,0.20313 0.625,0.3125 0.375,0.0937 0.7969,0.0937 0.3281,0.0156 0.7031,-0.0469 0.3906,-0.0781 0.7187,-0.23438 0.3438,-0.15625 0.5782,-0.42187 0.25,-0.28125 0.3125,-0.67188 z m 4.1857,-2.125 q 0.062,-0.60937 0.25,-1.20312 0.2031,-0.59375 0.5,-1.125 0.2969,-0.53125 0.6875,-0.96875 0.4063,-0.45313 0.9063,-0.76563 0.5,-0.32812 1.0781,-0.5 0.5937,-0.17187 1.2656,-0.15625 0.9688,0.0312 1.6406,0.4375 0.6875,0.39063 1.0938,1.04688 0.4219,0.64062 0.5781,1.46875 0.1563,0.82812 0.062,1.6875 l -0.016,0.1875 q -0.125,0.92187 -0.5,1.78125 -0.375,0.85937 -0.9844,1.51562 -0.5937,0.64063 -1.4062,1.01563 -0.8125,0.375 -1.8125,0.35937 -0.9532,-0.0312 -1.6407,-0.42187 -0.6718,-0.39063 -1.0937,-1.03125 -0.4063,-0.64063 -0.5781,-1.45313 -0.1563,-0.8125 -0.062,-1.6875 z m 1.5,0.1875 q -0.047,0.35938 -0.047,0.75 0.016,0.375 0.078,0.73438 0.062,0.35937 0.1875,0.70312 0.1406,0.32813 0.3593,0.57813 0.2344,0.25 0.5625,0.40625 0.3282,0.14062 0.7657,0.15625 0.7031,0.0312 1.25,-0.26563 0.5468,-0.3125 0.9218,-0.79687 0.3907,-0.5 0.6094,-1.10938 0.2344,-0.625 0.3281,-1.23437 l 0.016,-0.17188 q 0.062,-0.54687 0.016,-1.125 -0.031,-0.57812 -0.25,-1.07812 -0.2031,-0.5 -0.6094,-0.8125 -0.4062,-0.32813 -1.0625,-0.35938 -0.7187,-0.0312 -1.2656,0.28125 -0.5313,0.3125 -0.9219,0.8125 -0.375,0.5 -0.6094,1.125 -0.2187,0.60938 -0.2968,1.21875 z m 14.3264,3.15625 q -0.5313,0.67188 -1.2344,1.0625 -0.7031,0.39063 -1.5938,0.375 -0.8281,-0.0156 -1.3437,-0.35937 -0.5156,-0.34375 -0.7969,-0.89063 -0.2812,-0.5625 -0.3594,-1.25 -0.078,-0.6875 0,-1.39062 l 0.9219,-5.4375 h 1.5313 l -0.9063,5.46875 q -0.047,0.42187 -0.062,0.875 -0.016,0.4375 0.1094,0.79687 0.125,0.35938 0.4062,0.60938 0.2969,0.23437 0.8282,0.25 0.8437,0.0156 1.5,-0.35938 0.6562,-0.375 1.0937,-1.0625 l 1.1406,-6.57812 h 1.5469 l -1.5937,9.15625 h -1.375 z m 11.4514,-8.07812 q 0.4062,0.0156 0.8125,0.0625 0.4062,0.0469 0.7968,0.1875 l -0.3906,1.51562 q -0.4062,-0.0937 -0.8125,-0.14062 -0.4062,-0.0625 -0.8125,-0.0781 -1.0781,0 -1.8437,0.5 -0.75,0.5 -1.2657,1.42188 l -1.0156,5.875 h -1.5312 l 1.5937,-9.15625 h 1.4531 l -0.25,1.45312 q 0.3125,-0.375 0.6719,-0.67187 0.375,-0.3125 0.7813,-0.51563 0.4062,-0.21875 0.8593,-0.32812 0.4532,-0.125 0.9532,-0.125 z m 6.8106,8.25 q 0.4063,0.0156 0.8125,-0.10938 0.4063,-0.125 0.7344,-0.35937 0.3438,-0.23438 0.5781,-0.5625 0.2344,-0.34375 0.3282,-0.75 l 1.4531,-0.0156 q -0.078,0.70313 -0.4688,1.28125 -0.375,0.5625 -0.9375,0.96875 -0.5468,0.40625 -1.2343,0.625 -0.6719,0.20313 -1.3438,0.1875 -0.9531,-0.0156 -1.6406,-0.40625 -0.6719,-0.39062 -1.0938,-1.01562 -0.4062,-0.64063 -0.5625,-1.45313 -0.1562,-0.8125 -0.062,-1.67187 l 0.031,-0.35938 q 0.078,-0.625 0.2656,-1.20312 0.2031,-0.57813 0.5,-1.09375 0.3125,-0.53125 0.7031,-0.95313 0.4063,-0.42187 0.9063,-0.71875 0.5,-0.3125 1.0781,-0.46875 0.5938,-0.17187 1.25,-0.15625 0.7031,0.0156 1.2969,0.28125 0.6094,0.25 1.0312,0.6875 0.4375,0.4375 0.6563,1.04688 0.2344,0.59375 0.2031,1.3125 h -1.4375 q 0.016,-0.4375 -0.1094,-0.79688 -0.1093,-0.35937 -0.3593,-0.625 -0.2344,-0.28125 -0.5782,-0.4375 -0.3437,-0.17187 -0.7812,-0.1875 -0.7031,-0.0312 -1.25,0.26563 -0.5313,0.28125 -0.9219,0.75 -0.375,0.46875 -0.6094,1.07812 -0.2343,0.59375 -0.3125,1.21875 l -0.047,0.35938 q -0.031,0.35937 -0.031,0.75 0,0.375 0.062,0.73437 0.062,0.35938 0.1875,0.6875 0.1406,0.3125 0.3594,0.5625 0.2344,0.23438 0.5625,0.39063 0.3281,0.15625 0.7812,0.15625 z m 10.2171,1.26562 q -0.9219,-0.0156 -1.6406,-0.375 -0.7032,-0.375 -1.1563,-0.96875 -0.4531,-0.60937 -0.6562,-1.39062 -0.2032,-0.78125 -0.125,-1.67188 l 0.047,-0.35937 q 0.062,-0.59375 0.25,-1.1875 0.2032,-0.59375 0.5157,-1.125 0.3125,-0.53125 0.7187,-0.96875 0.4063,-0.45313 0.9063,-0.78125 0.5156,-0.32813 1.0937,-0.5 0.5938,-0.1875 1.25,-0.17188 0.9375,0.0312 1.5938,0.42188 0.6562,0.375 1.0312,1 0.3906,0.625 0.5156,1.4375 0.125,0.79687 0.016,1.64062 l -0.1094,0.70313 h -6.3125 q -0.062,0.54687 0.031,1.09375 0.1094,0.53125 0.375,0.95312 0.2813,0.42188 0.7344,0.6875 0.4531,0.25 1.0625,0.28125 0.7969,0.0156 1.4688,-0.3125 0.6718,-0.34375 1.2187,-0.90625 l 0.875,0.75 q -0.3125,0.4375 -0.7344,0.78125 -0.4218,0.32813 -0.9062,0.54688 -0.4688,0.21875 -1,0.3125 -0.5156,0.10937 -1.0625,0.10937 z m 1.125,-8.20312 q -0.5938,-0.0312 -1.0781,0.20312 -0.4688,0.21875 -0.8438,0.59375 -0.3594,0.35938 -0.625,0.84375 -0.2656,0.48438 -0.4531,0.96875 l 4.7812,0.0312 0.031,-0.15625 q 0.078,-0.46875 -0.016,-0.90625 -0.078,-0.4375 -0.3282,-0.78125 -0.2343,-0.35937 -0.6093,-0.5625 -0.3594,-0.21875 -0.8594,-0.23437 z m 6.3889,0.3125 0.2812,-1.54688 6.7032,3.20313 -0.2188,1.21875 -7.8125,3.21875 0.2969,-1.70313 5.5781,-2.03125 0.5938,-0.17187 -0.375,-0.125 z m 10.17,0 0.2813,-1.54688 6.7031,3.20313 -0.2187,1.21875 -7.8125,3.21875 0.2968,-1.70313 5.5782,-2.03125 0.5937,-0.17187 -0.375,-0.125 z" />
  <path
     style="fill:#000000;fill-rule:nonzero"
     inkscape:connector-curvature="0"
     id="path152"
     d="m 173.7116,335.84968 q -0.1875,1.4375 -0.75,2.65625 -0.5625,1.20313 -1.45312,2.07813 -0.89063,0.85937 -2.125,1.34375 -1.21875,0.46875 -2.71875,0.46875 -1.29688,0 -2.34375,-0.35938 -1.04688,-0.35937 -1.875,-1 -0.82813,-0.65625 -1.42188,-1.53125 -0.59375,-0.875 -0.98437,-1.90625 -0.39063,-1.03125 -0.59375,-2.15625 -0.1875,-1.125 -0.20313,-2.29687 v -2.90625 q 0.0156,-1.15625 0.20313,-2.28125 0.20312,-1.14063 0.59375,-2.17188 0.39062,-1.03125 0.98437,-1.90625 0.59375,-0.89062 1.42188,-1.53125 0.82812,-0.64062 1.85937,-1 1.04688,-0.375 2.35938,-0.375 1.5625,0 2.78125,0.48438 1.23437,0.48437 2.125,1.35937 0.89062,0.875 1.42187,2.10938 0.54688,1.23437 0.71875,2.71875 h -2.65625 q -0.125,-0.9375 -0.4375,-1.75 -0.3125,-0.82813 -0.84375,-1.4375 -0.53125,-0.60938 -1.29687,-0.95313 -0.76563,-0.35937 -1.8125,-0.35937 -0.95313,0 -1.67188,0.3125 -0.71875,0.29687 -1.25,0.82812 -0.51562,0.53125 -0.875,1.23438 -0.34375,0.70312 -0.5625,1.48437 -0.21875,0.78125 -0.3125,1.60938 -0.0781,0.82812 -0.0781,1.59375 v 2.9375 q 0,0.78125 0.0781,1.60937 0.0937,0.8125 0.3125,1.60938 0.21875,0.79687 0.5625,1.5 0.34375,0.70312 0.875,1.23437 0.53125,0.53125 1.23438,0.84375 0.71875,0.3125 1.6875,0.3125 1.04687,0 1.8125,-0.32812 0.76562,-0.32813 1.29687,-0.92188 0.53125,-0.59375 0.84375,-1.40625 0.3125,-0.8125 0.4375,-1.75 z m 6.74042,-6.92187 q 0.82812,-1.21875 2.04687,-1.89063 1.21875,-0.6875 2.73438,-0.70312 1.21875,0 2.20312,0.35937 1,0.34375 1.70313,1.09375 0.70312,0.73438 1.07812,1.875 0.39063,1.14063 0.39063,2.70313 v 9.75 h -2.65625 v -9.78125 q 0,-1.90625 -0.90625,-2.82813 -0.90625,-0.9375 -2.59375,-0.92187 -1.28125,0 -2.32813,0.625 -1.03125,0.625 -1.67187,1.65625 v 11.25 h -2.65625 v -22 h 2.65625 z m 25.13098,13.1875 q -0.15625,-0.29688 -0.25,-0.75 -0.0937,-0.45313 -0.14063,-0.9375 -0.39062,0.40625 -0.89062,0.76562 -0.5,0.34375 -1.09375,0.625 -0.59375,0.26563 -1.26563,0.42188 -0.67187,0.15625 -1.42187,0.15625 -1.23438,0 -2.23438,-0.34375 -1,-0.35938 -1.6875,-0.96875 -0.6875,-0.60938 -1.07812,-1.45313 -0.375,-0.84375 -0.375,-1.8125 0,-1.28125 0.5,-2.23437 0.51562,-0.95313 1.4375,-1.59375 0.9375,-0.64063 2.25,-0.95313 1.3125,-0.3125 2.92187,-0.3125 h 2.90625 v -1.21875 q 0,-0.70312 -0.26562,-1.26562 -0.25,-0.5625 -0.73438,-0.95313 -0.46875,-0.39062 -1.15625,-0.59375 -0.67187,-0.21875 -1.51562,-0.21875 -0.78125,0 -1.40625,0.20313 -0.625,0.1875 -1.0625,0.51562 -0.42188,0.32813 -0.65625,0.78125 -0.23438,0.45313 -0.23438,0.9375 H 195.458 q 0.0156,-0.84375 0.4375,-1.65625 0.42187,-0.8125 1.21875,-1.46875 0.79687,-0.65625 1.9375,-1.04687 1.14062,-0.40625 2.57812,-0.40625 1.3125,0 2.4375,0.32812 1.14063,0.3125 1.96875,0.96875 0.82813,0.65625 1.29688,1.625 0.46875,0.96875 0.46875,2.28125 v 7.20313 q 0,0.76562 0.14062,1.64062 0.14063,0.85938 0.40625,1.5 v 0.23438 z m -4.6875,-2.01563 q 0.78125,0 1.45312,-0.20312 0.67188,-0.20313 1.21875,-0.53125 0.5625,-0.32813 0.95313,-0.75 0.40625,-0.42188 0.64062,-0.875 v -3.14063 h -2.46875 q -2.32812,0 -3.60937,0.6875 -1.28125,0.6875 -1.28125,2.15625 0,0.57813 0.1875,1.0625 0.1875,0.48438 0.57812,0.84375 0.39063,0.34375 0.96875,0.54688 0.59375,0.20312 1.35938,0.20312 z m 14.49035,-13.48437 0.1875,2.29687 q 0.84375,-1.20312 2.0625,-1.875 1.23438,-0.6875 2.75,-0.70312 1.21875,0 2.21875,0.34375 1,0.34375 1.70313,1.07812 0.70312,0.71875 1.07812,1.84375 0.375,1.125 0.375,2.67188 v 9.84375 h -2.64062 v -9.78125 q 0,-1.03125 -0.23438,-1.75 -0.23437,-0.71875 -0.6875,-1.15625 -0.45312,-0.4375 -1.10937,-0.64063 -0.64063,-0.20312 -1.48438,-0.20312 -1.32812,0 -2.34375,0.67187 -1,0.65625 -1.60937,1.75 v 11.10938 h -2.65625 v -15.5 z m 17.59975,0 0.1875,2.29687 q 0.8438,-1.20312 2.0625,-1.875 1.2344,-0.6875 2.75,-0.70312 1.2188,0 2.2188,0.34375 1,0.34375 1.7031,1.07812 0.7031,0.71875 1.0781,1.84375 0.375,1.125 0.375,2.67188 v 9.84375 H 240.72 v -9.78125 q 0,-1.03125 -0.2344,-1.75 -0.2343,-0.71875 -0.6875,-1.15625 -0.4531,-0.4375 -1.1093,-0.64063 -0.6407,-0.20312 -1.4844,-0.20312 -1.3281,0 -2.3438,0.67187 -1,0.65625 -1.6093,1.75 v 11.10938 h -2.6563 v -15.5 z m 22.0685,15.78125 q -1.6406,0 -3.0156,-0.54688 -1.3594,-0.5625 -2.3437,-1.5625 -0.9688,-1 -1.5157,-2.375 -0.5312,-1.375 -0.5312,-3 v -0.59375 q 0,-1.89062 0.5937,-3.35937 0.6094,-1.48438 1.5938,-2.5 1,-1.03125 2.2656,-1.57813 1.2656,-0.54687 2.6093,-0.54687 1.6719,0 2.9219,0.57812 1.25,0.57813 2.0781,1.60938 0.8281,1.01562 1.2344,2.40625 0.4219,1.39062 0.4219,3.01562 v 1.1875 h -11.0781 q 0.047,1.0625 0.4063,2 0.375,0.92188 1,1.625 0.6406,0.6875 1.5312,1.09375 0.8906,0.39063 1.9687,0.39063 1.4062,0 2.5156,-0.5625 1.1094,-0.57813 1.8281,-1.53125 l 1.625,1.26562 q -0.3906,0.57813 -0.9687,1.125 -0.5781,0.53125 -1.3438,0.95313 -0.75,0.40625 -1.7187,0.65625 -0.9531,0.25 -2.0781,0.25 z m -0.3438,-13.89063 q -0.8124,0 -1.5312,0.29688 -0.7031,0.29687 -1.2812,0.85937 -0.5781,0.5625 -0.9688,1.39063 -0.3906,0.82812 -0.5468,1.89062 h 8.328 v -0.1875 q -0.047,-0.78125 -0.2969,-1.53125 -0.25,-0.76562 -0.7343,-1.35937 -0.4844,-0.60938 -1.2188,-0.98438 -0.7344,-0.375 -1.75,-0.375 z m 11.5061,-8.39062 h 7.9219 v 19.70312 h 5.0469 v 2.29688 h -12.9688 v -2.29688 h 5.2656 v -17.39062 h -5.2656 z" />
  <path
     style="fill:#c9daf8;fill-rule:evenodd"
     inkscape:connector-curvature="0"
     id="path154"
     d="m 101.547,306.03022 v 0 c 0,-9.43103 7.64539,-17.07642 17.07642,-17.07642 H 351.998 c 4.529,0 8.8725,1.79908 12.075,5.00153 3.2024,3.20251 5.0016,7.54596 5.0016,12.07489 v 68.30377 c 0,9.43109 -7.6454,17.07648 -17.0766,17.07648 H 118.62342 v 0 c -9.43103,0 -17.07642,-7.64539 -17.07642,-17.07648 z" />
  <path
     style="fill-rule:evenodd;stroke:#595959;stroke-width:1;stroke-linecap:butt;stroke-linejoin:round"
     inkscape:connector-curvature="0"
     id="path156"
     d="m 101.547,306.03022 v 0 c 0,-9.43103 7.64539,-17.07642 17.07642,-17.07642 H 351.998 c 4.529,0 8.8725,1.79908 12.075,5.00153 3.2024,3.20251 5.0016,7.54596 5.0016,12.07489 v 68.30377 c 0,9.43109 -7.6454,17.07648 -17.0766,17.07648 H 118.62342 v 0 c -9.43103,0 -17.07642,-7.64539 -17.07642,-17.07648 z" />
  <path
     style="fill:#000000;fill-rule:nonzero"
     inkscape:connector-curvature="0"
     id="path158"
     d="m 142.206,319.98588 -0.54688,0.17188 0.32813,0.125 4.76562,2.03125 -0.28125,1.57812 -6.42187,-3.20312 0.21875,-1.23438 7.53125,-3.20312 -0.26563,1.70312 z m 10.17011,0 -0.54688,0.17188 0.32813,0.125 4.76562,2.03125 -0.28125,1.57812 -6.42187,-3.20312 0.21875,-1.23438 7.53125,-3.20312 -0.26563,1.70312 z m 11.17016,4.51563 q 0.40625,0.0156 0.8125,-0.10938 0.40625,-0.125 0.73438,-0.35937 0.34375,-0.23438 0.57812,-0.5625 0.23438,-0.34375 0.32813,-0.75 l 1.45312,-0.0156 q -0.0781,0.70313 -0.46875,1.28125 -0.375,0.5625 -0.9375,0.96875 -0.54687,0.40625 -1.23437,0.625 -0.67188,0.20313 -1.34375,0.1875 -0.95313,-0.0156 -1.64063,-0.40625 -0.67187,-0.39062 -1.09375,-1.01562 -0.40625,-0.64063 -0.5625,-1.45313 -0.15625,-0.8125 -0.0625,-1.67187 l 0.0312,-0.35938 q 0.0781,-0.625 0.26563,-1.20312 0.20312,-0.57813 0.5,-1.09375 0.3125,-0.53125 0.70312,-0.95313 0.40625,-0.42187 0.90625,-0.71875 0.5,-0.3125 1.07813,-0.46875 0.59375,-0.17187 1.25,-0.15625 0.70312,0.0156 1.29687,0.28125 0.60938,0.25 1.03125,0.6875 0.4375,0.4375 0.65625,1.04688 0.23438,0.59375 0.20313,1.3125 h -1.4375 q 0.0156,-0.4375 -0.10938,-0.79688 -0.10937,-0.35937 -0.35937,-0.625 -0.23438,-0.28125 -0.57813,-0.4375 -0.34375,-0.17187 -0.78125,-0.1875 -0.70312,-0.0312 -1.25,0.26563 -0.53125,0.28125 -0.92187,0.75 -0.375,0.46875 -0.60938,1.07812 -0.23437,0.59375 -0.3125,1.21875 l -0.0469,0.35938 q -0.0312,0.35937 -0.0312,0.75 0,0.375 0.0625,0.73437 0.0625,0.35938 0.1875,0.6875 0.14062,0.3125 0.35937,0.5625 0.23438,0.23438 0.5625,0.39063 0.32813,0.15625 0.78125,0.15625 z m 12.24823,-0.17188 q -0.53125,0.67188 -1.23437,1.0625 -0.70313,0.39063 -1.59375,0.375 -0.82813,-0.0156 -1.34375,-0.35937 -0.51563,-0.34375 -0.79688,-0.89063 -0.28125,-0.5625 -0.35937,-1.25 -0.0781,-0.6875 0,-1.39062 l 0.92187,-5.4375 h 1.53125 l -0.90625,5.46875 q -0.0469,0.42187 -0.0625,0.875 -0.0156,0.4375 0.10938,0.79687 0.125,0.35938 0.40625,0.60938 0.29687,0.23437 0.82812,0.25 0.84375,0.0156 1.5,-0.35938 0.65625,-0.375 1.09375,-1.0625 l 1.14063,-6.57812 h 1.54687 l -1.59375,9.15625 h -1.375 z m 10.49823,-1.21875 q 0.0469,-0.39062 -0.14062,-0.64062 -0.17188,-0.26563 -0.46875,-0.42188 -0.28125,-0.15625 -0.625,-0.25 -0.34375,-0.10937 -0.625,-0.17187 -0.51563,-0.125 -1.0625,-0.3125 -0.54688,-0.1875 -1.01563,-0.48438 -0.45312,-0.29687 -0.73437,-0.73437 -0.28125,-0.45313 -0.25,-1.07813 0.0156,-0.46875 0.1875,-0.84375 0.17187,-0.39062 0.45312,-0.70312 0.28125,-0.3125 0.64063,-0.53125 0.375,-0.23438 0.78125,-0.375 0.40625,-0.15625 0.82812,-0.21875 0.4375,-0.0781 0.85938,-0.0781 0.64062,0.0156 1.23437,0.20313 0.59375,0.1875 1.04688,0.54687 0.45312,0.35938 0.70312,0.89063 0.26563,0.53125 0.26563,1.23437 l -1.51563,-0.0156 q 0,-0.375 -0.15625,-0.65625 -0.14062,-0.29688 -0.39062,-0.48438 -0.25,-0.20312 -0.57813,-0.29687 -0.3125,-0.10938 -0.67187,-0.125 -0.34375,0 -0.70313,0.0781 -0.35937,0.0625 -0.67187,0.23438 -0.3125,0.15625 -0.53125,0.4375 -0.21875,0.26562 -0.26563,0.64062 -0.0625,0.375 0.10938,0.625 0.1875,0.23438 0.45312,0.39063 0.28125,0.14062 0.60938,0.21875 0.34375,0.0781 0.625,0.14062 0.34375,0.0937 0.71875,0.20313 0.375,0.10937 0.71875,0.26562 0.35937,0.14063 0.67187,0.34375 0.32813,0.20313 0.54688,0.46875 0.23437,0.26563 0.35937,0.60938 0.14063,0.34375 0.10938,0.78125 -0.0312,0.73437 -0.40625,1.26562 -0.35938,0.53125 -0.92188,0.875 -0.5625,0.32813 -1.25,0.48438 -0.67187,0.15625 -1.3125,0.14062 -0.67187,-0.0156 -1.3125,-0.20312 -0.625,-0.20313 -1.10937,-0.57813 -0.48438,-0.375 -0.78125,-0.92187 -0.29688,-0.5625 -0.28125,-1.29688 l 1.53125,0.0156 q 0,0.4375 0.15625,0.76562 0.17187,0.3125 0.4375,0.53125 0.26562,0.20313 0.625,0.3125 0.375,0.0937 0.79687,0.0937 0.32813,0.0156 0.70313,-0.0469 0.39062,-0.0781 0.71875,-0.23438 0.34375,-0.15625 0.57812,-0.42187 0.25,-0.28125 0.3125,-0.67188 z m 9.37323,-8.89062 -0.39062,2.21875 h 3.39062 l -0.21875,1.21875 h -3.375 l -0.82812,4.96875 q -0.0469,0.375 0,0.70312 0.0469,0.3125 0.1875,0.5625 0.14062,0.23438 0.40625,0.375 0.26562,0.14063 0.67187,0.15625 0.46875,0.0156 0.92188,-0.0625 0.46875,-0.0937 0.92187,-0.20312 l 0.15625,1.14062 q -0.54687,0.28125 -1.20312,0.375 -0.64063,0.0937 -1.23438,0.0781 -0.6875,0 -1.17187,-0.25 -0.46875,-0.26563 -0.76563,-0.6875 -0.28125,-0.4375 -0.39062,-1 -0.0937,-0.5625 -0.0312,-1.1875 l 0.82812,-4.96875 h -2.34375 l 0.21875,-1.21875 h 2.32813 l 0.375,-2.21875 z m 4.98267,6.76562 q 0.0625,-0.60937 0.25,-1.20312 0.20312,-0.59375 0.5,-1.125 0.29687,-0.53125 0.6875,-0.96875 0.40625,-0.45313 0.90625,-0.76563 0.5,-0.32812 1.07812,-0.5 0.59375,-0.17187 1.26563,-0.15625 0.96875,0.0312 1.64062,0.4375 0.6875,0.39063 1.09375,1.04688 0.42188,0.64062 0.57813,1.46875 0.15625,0.82812 0.0625,1.6875 l -0.0156,0.1875 q -0.125,0.92187 -0.5,1.78125 -0.375,0.85937 -0.98437,1.51562 -0.59375,0.64063 -1.40625,1.01563 -0.8125,0.375 -1.8125,0.35937 -0.95313,-0.0312 -1.64063,-0.42187 -0.67187,-0.39063 -1.09375,-1.03125 -0.40625,-0.64063 -0.57812,-1.45313 -0.15625,-0.8125 -0.0625,-1.6875 z m 1.5,0.1875 q -0.0469,0.35938 -0.0469,0.75 0.0156,0.375 0.0781,0.73438 0.0625,0.35937 0.1875,0.70312 0.14062,0.32813 0.35937,0.57813 0.23438,0.25 0.5625,0.40625 0.32813,0.14062 0.76563,0.15625 0.70312,0.0312 1.25,-0.26563 0.54687,-0.3125 0.92187,-0.79687 0.39063,-0.5 0.60938,-1.10938 0.23437,-0.625 0.32812,-1.23437 l 0.0156,-0.17188 q 0.0625,-0.54687 0.0156,-1.125 -0.0312,-0.57812 -0.25,-1.07812 -0.20312,-0.5 -0.60937,-0.8125 -0.40625,-0.32813 -1.0625,-0.35938 -0.71875,-0.0312 -1.26563,0.28125 -0.53125,0.3125 -0.92187,0.8125 -0.375,0.5 -0.60938,1.125 -0.21875,0.60938 -0.29687,1.21875 z m 10.56073,-4.73437 -0.17188,0.85937 q 0.35938,-0.48437 0.8125,-0.75 0.45313,-0.28125 1.0625,-0.28125 0.26563,0 0.5,0.0625 0.23438,0.0469 0.4375,0.17188 0.20313,0.10937 0.34375,0.29687 0.15625,0.1875 0.23438,0.45313 0.34375,-0.45313 0.79687,-0.71875 0.45313,-0.26563 1.04688,-0.26563 0.53125,0.0156 0.875,0.23438 0.35937,0.20312 0.5625,0.5625 0.20312,0.34375 0.26562,0.79687 0.0625,0.4375 0.0156,0.89063 l -1.14063,6.84375 h -1.45312 l 1.15625,-6.85938 q 0.0156,-0.23437 -0.0156,-0.4375 -0.0156,-0.21875 -0.10937,-0.375 -0.0781,-0.15625 -0.26563,-0.23437 -0.17187,-0.0937 -0.42187,-0.0937 -0.46875,0 -0.8125,0.25 -0.32813,0.25 -0.45313,0.6875 l -1.1875,7.0625 h -1.46875 l 1.17188,-6.875 q 0.0156,-0.21875 -0.0156,-0.42188 -0.0156,-0.20312 -0.10937,-0.34375 -0.0781,-0.15625 -0.23438,-0.25 -0.15625,-0.0937 -0.42187,-0.10937 -0.42188,0 -0.71875,0.1875 -0.29688,0.17187 -0.51563,0.51562 l -1.25,7.29688 h -1.46875 l 1.59375,-9.15625 z m 15.3576,4.40625 h -6.29687 l 0.23437,-1.28125 h 6.28125 z m 10.03794,-4.59375 q 0.4063,0.0156 0.8125,0.0625 0.4063,0.0469 0.7969,0.1875 l -0.3906,1.51562 q -0.4063,-0.0937 -0.8125,-0.14062 -0.4063,-0.0625 -0.8125,-0.0781 -1.0781,0 -1.8438,0.5 -0.75,0.5 -1.2656,1.42188 l -1.0156,5.875 h -1.5313 l 1.5938,-9.15625 h 1.4531 l -0.25,1.45312 q 0.3125,-0.375 0.6719,-0.67187 0.375,-0.3125 0.7812,-0.51563 0.4063,-0.21875 0.8594,-0.32812 0.4531,-0.125 0.9531,-0.125 z m 6.8576,9.51562 q -0.9218,-0.0156 -1.6406,-0.375 -0.7031,-0.375 -1.1562,-0.96875 -0.4532,-0.60937 -0.6563,-1.39062 -0.2031,-0.78125 -0.125,-1.67188 l 0.047,-0.35937 q 0.062,-0.59375 0.25,-1.1875 0.2031,-0.59375 0.5156,-1.125 0.3125,-0.53125 0.7188,-0.96875 0.4062,-0.45313 0.9062,-0.78125 0.5156,-0.32813 1.0938,-0.5 0.5937,-0.1875 1.25,-0.17188 0.9375,0.0312 1.5937,0.42188 0.6563,0.375 1.0313,1 0.3906,0.625 0.5156,1.4375 0.125,0.79687 0.016,1.64062 l -0.1094,0.70313 h -6.3125 q -0.062,0.54687 0.031,1.09375 0.1094,0.53125 0.375,0.95312 0.2812,0.42188 0.7344,0.6875 0.4531,0.25 1.0625,0.28125 0.7968,0.0156 1.4687,-0.3125 0.6719,-0.34375 1.2188,-0.90625 l 0.875,0.75 q -0.3125,0.4375 -0.7344,0.78125 -0.4219,0.32813 -0.9063,0.54688 -0.4687,0.21875 -1,0.3125 -0.5156,0.10937 -1.0625,0.10937 z m 1.125,-8.20312 q -0.5937,-0.0312 -1.0781,0.20312 -0.4687,0.21875 -0.8437,0.59375 -0.3594,0.35938 -0.625,0.84375 -0.2657,0.48438 -0.4532,0.96875 l 4.7813,0.0312 0.031,-0.15625 q 0.078,-0.46875 -0.016,-0.90625 -0.078,-0.4375 -0.3281,-0.78125 -0.2344,-0.35937 -0.6094,-0.5625 -0.3594,-0.21875 -0.8594,-0.23437 z m 11.4046,5.54687 q 0.047,-0.39062 -0.1407,-0.64062 -0.1718,-0.26563 -0.4687,-0.42188 -0.2813,-0.15625 -0.625,-0.25 -0.3438,-0.10937 -0.625,-0.17187 -0.5156,-0.125 -1.0625,-0.3125 -0.5469,-0.1875 -1.0156,-0.48438 -0.4532,-0.29687 -0.7344,-0.73437 -0.2813,-0.45313 -0.25,-1.07813 0.016,-0.46875 0.1875,-0.84375 0.1719,-0.39062 0.4531,-0.70312 0.2813,-0.3125 0.6406,-0.53125 0.375,-0.23438 0.7813,-0.375 0.4062,-0.15625 0.8281,-0.21875 0.4375,-0.0781 0.8594,-0.0781 0.6406,0.0156 1.2344,0.20313 0.5937,0.1875 1.0468,0.54687 0.4532,0.35938 0.7032,0.89063 0.2656,0.53125 0.2656,1.23437 l -1.5156,-0.0156 q 0,-0.375 -0.1563,-0.65625 -0.1406,-0.29688 -0.3906,-0.48438 -0.25,-0.20312 -0.5781,-0.29687 -0.3125,-0.10938 -0.6719,-0.125 -0.3438,0 -0.7031,0.0781 -0.3594,0.0625 -0.6719,0.23438 -0.3125,0.15625 -0.5313,0.4375 -0.2187,0.26562 -0.2656,0.64062 -0.062,0.375 0.1094,0.625 0.1875,0.23438 0.4531,0.39063 0.2813,0.14062 0.6094,0.21875 0.3437,0.0781 0.625,0.14062 0.3437,0.0937 0.7187,0.20313 0.375,0.10937 0.7188,0.26562 0.3594,0.14063 0.6719,0.34375 0.3281,0.20313 0.5468,0.46875 0.2344,0.26563 0.3594,0.60938 0.1406,0.34375 0.1094,0.78125 -0.031,0.73437 -0.4063,1.26562 -0.3593,0.53125 -0.9218,0.875 -0.5625,0.32813 -1.25,0.48438 -0.6719,0.15625 -1.3125,0.14062 -0.6719,-0.0156 -1.3125,-0.20312 -0.625,-0.20313 -1.1094,-0.57813 -0.4844,-0.375 -0.7813,-0.92187 -0.2968,-0.5625 -0.2812,-1.29688 l 1.5312,0.0156 q 0,0.4375 0.1563,0.76562 0.1719,0.3125 0.4375,0.53125 0.2656,0.20313 0.625,0.3125 0.375,0.0937 0.7969,0.0937 0.3281,0.0156 0.7031,-0.0469 0.3906,-0.0781 0.7187,-0.23438 0.3438,-0.15625 0.5782,-0.42187 0.25,-0.28125 0.3125,-0.67188 z m 4.1856,-2.125 q 0.062,-0.60937 0.25,-1.20312 0.2032,-0.59375 0.5,-1.125 0.2969,-0.53125 0.6875,-0.96875 0.4063,-0.45313 0.9063,-0.76563 0.5,-0.32812 1.0781,-0.5 0.5938,-0.17187 1.2656,-0.15625 0.9688,0.0312 1.6407,0.4375 0.6875,0.39063 1.0937,1.04688 0.4219,0.64062 0.5781,1.46875 0.1563,0.82812 0.062,1.6875 l -0.016,0.1875 q -0.125,0.92187 -0.5,1.78125 -0.375,0.85937 -0.9844,1.51562 -0.5937,0.64063 -1.4062,1.01563 -0.8125,0.375 -1.8125,0.35937 -0.9531,-0.0312 -1.6406,-0.42187 -0.6719,-0.39063 -1.0938,-1.03125 -0.4062,-0.64063 -0.5781,-1.45313 -0.1563,-0.8125 -0.062,-1.6875 z m 1.5,0.1875 q -0.047,0.35938 -0.047,0.75 0.016,0.375 0.078,0.73438 0.062,0.35937 0.1875,0.70312 0.1406,0.32813 0.3594,0.57813 0.2343,0.25 0.5625,0.40625 0.3281,0.14062 0.7656,0.15625 0.7031,0.0312 1.25,-0.26563 0.5469,-0.3125 0.9219,-0.79687 0.3906,-0.5 0.6093,-1.10938 0.2344,-0.625 0.3282,-1.23437 l 0.016,-0.17188 q 0.062,-0.54687 0.016,-1.125 -0.031,-0.57812 -0.25,-1.07812 -0.2031,-0.5 -0.6094,-0.8125 -0.4062,-0.32813 -1.0625,-0.35938 -0.7187,-0.0312 -1.2656,0.28125 -0.5312,0.3125 -0.9219,0.8125 -0.375,0.5 -0.6093,1.125 -0.2188,0.60938 -0.2969,1.21875 z m 14.3265,3.15625 q -0.5313,0.67188 -1.2344,1.0625 -0.7031,0.39063 -1.5938,0.375 -0.8281,-0.0156 -1.3437,-0.35937 -0.5156,-0.34375 -0.7969,-0.89063 -0.2812,-0.5625 -0.3594,-1.25 -0.078,-0.6875 0,-1.39062 l 0.9219,-5.4375 h 1.5313 l -0.9063,5.46875 q -0.047,0.42187 -0.062,0.875 -0.016,0.4375 0.1094,0.79687 0.125,0.35938 0.4062,0.60938 0.2969,0.23437 0.8282,0.25 0.8437,0.0156 1.5,-0.35938 0.6562,-0.375 1.0937,-1.0625 l 1.1406,-6.57812 h 1.5469 l -1.5937,9.15625 h -1.375 z m 11.4514,-8.07812 q 0.4062,0.0156 0.8125,0.0625 0.4062,0.0469 0.7968,0.1875 l -0.3906,1.51562 q -0.4062,-0.0937 -0.8125,-0.14062 -0.4062,-0.0625 -0.8125,-0.0781 -1.0781,0 -1.8437,0.5 -0.75,0.5 -1.2657,1.42188 l -1.0156,5.875 h -1.5312 l 1.5937,-9.15625 h 1.4531 l -0.25,1.45312 q 0.3125,-0.375 0.6719,-0.67187 0.375,-0.3125 0.7813,-0.51563 0.4062,-0.21875 0.8593,-0.32812 0.4532,-0.125 0.9532,-0.125 z m 6.8106,8.25 q 0.4063,0.0156 0.8125,-0.10938 0.4063,-0.125 0.7344,-0.35937 0.3438,-0.23438 0.5781,-0.5625 0.2344,-0.34375 0.3282,-0.75 l 1.4531,-0.0156 q -0.078,0.70313 -0.4688,1.28125 -0.375,0.5625 -0.9375,0.96875 -0.5468,0.40625 -1.2343,0.625 -0.6719,0.20313 -1.3438,0.1875 -0.9531,-0.0156 -1.6406,-0.40625 -0.6719,-0.39062 -1.0938,-1.01562 -0.4062,-0.64063 -0.5625,-1.45313 -0.1562,-0.8125 -0.062,-1.67187 l 0.031,-0.35938 q 0.078,-0.625 0.2656,-1.20312 0.2031,-0.57813 0.5,-1.09375 0.3125,-0.53125 0.7031,-0.95313 0.4063,-0.42187 0.9063,-0.71875 0.5,-0.3125 1.0781,-0.46875 0.5938,-0.17187 1.25,-0.15625 0.7031,0.0156 1.2969,0.28125 0.6094,0.25 1.0312,0.6875 0.4375,0.4375 0.6563,1.04688 0.2344,0.59375 0.2031,1.3125 h -1.4375 q 0.016,-0.4375 -0.1094,-0.79688 -0.1093,-0.35937 -0.3593,-0.625 -0.2344,-0.28125 -0.5782,-0.4375 -0.3437,-0.17187 -0.7812,-0.1875 -0.7031,-0.0312 -1.25,0.26563 -0.5313,0.28125 -0.9219,0.75 -0.375,0.46875 -0.6094,1.07812 -0.2343,0.59375 -0.3125,1.21875 l -0.047,0.35938 q -0.031,0.35937 -0.031,0.75 0,0.375 0.062,0.73437 0.062,0.35938 0.1875,0.6875 0.1406,0.3125 0.3594,0.5625 0.2344,0.23438 0.5625,0.39063 0.3281,0.15625 0.7812,0.15625 z m 10.2171,1.26562 q -0.9219,-0.0156 -1.6406,-0.375 -0.7032,-0.375 -1.1563,-0.96875 -0.4531,-0.60937 -0.6562,-1.39062 -0.2032,-0.78125 -0.125,-1.67188 l 0.047,-0.35937 q 0.062,-0.59375 0.25,-1.1875 0.2032,-0.59375 0.5157,-1.125 0.3125,-0.53125 0.7187,-0.96875 0.4063,-0.45313 0.9063,-0.78125 0.5156,-0.32813 1.0937,-0.5 0.5938,-0.1875 1.25,-0.17188 0.9375,0.0312 1.5938,0.42188 0.6562,0.375 1.0312,1 0.3906,0.625 0.5156,1.4375 0.125,0.79687 0.016,1.64062 l -0.1094,0.70313 h -6.3125 q -0.062,0.54687 0.031,1.09375 0.1094,0.53125 0.375,0.95312 0.2813,0.42188 0.7344,0.6875 0.4531,0.25 1.0625,0.28125 0.7969,0.0156 1.4688,-0.3125 0.6718,-0.34375 1.2187,-0.90625 l 0.875,0.75 q -0.3125,0.4375 -0.7344,0.78125 -0.4218,0.32813 -0.9062,0.54688 -0.4688,0.21875 -1,0.3125 -0.5156,0.10937 -1.0625,0.10937 z m 1.125,-8.20312 q -0.5938,-0.0312 -1.0781,0.20312 -0.4688,0.21875 -0.8438,0.59375 -0.3594,0.35938 -0.625,0.84375 -0.2656,0.48438 -0.4531,0.96875 l 4.7812,0.0312 0.031,-0.15625 q 0.078,-0.46875 -0.016,-0.90625 -0.078,-0.4375 -0.3282,-0.78125 -0.2343,-0.35937 -0.6093,-0.5625 -0.3594,-0.21875 -0.8594,-0.23437 z m 6.3889,0.3125 0.2812,-1.54688 6.7032,3.20313 -0.2188,1.21875 -7.8125,3.21875 0.2969,-1.70313 5.5781,-2.03125 0.5938,-0.17187 -0.375,-0.125 z m 10.17,0 0.2813,-1.54688 6.7031,3.20313 -0.2187,1.21875 -7.8125,3.21875 0.2968,-1.70313 5.5782,-2.03125 0.5937,-0.17187 -0.375,-0.125 z" />
  <path
     style="fill:#000000;fill-rule:nonzero"
     inkscape:connector-curvature="0"
     id="path160"
     d="m 189.7116,351.84968 q -0.1875,1.4375 -0.75,2.65625 -0.5625,1.20313 -1.45312,2.07813 -0.89063,0.85937 -2.125,1.34375 -1.21875,0.46875 -2.71875,0.46875 -1.29688,0 -2.34375,-0.35938 -1.04688,-0.35937 -1.875,-1 -0.82813,-0.65625 -1.42188,-1.53125 -0.59375,-0.875 -0.98437,-1.90625 -0.39063,-1.03125 -0.59375,-2.15625 -0.1875,-1.125 -0.20313,-2.29687 v -2.90625 q 0.0156,-1.15625 0.20313,-2.28125 0.20312,-1.14063 0.59375,-2.17188 0.39062,-1.03125 0.98437,-1.90625 0.59375,-0.89062 1.42188,-1.53125 0.82812,-0.64062 1.85937,-1 1.04688,-0.375 2.35938,-0.375 1.5625,0 2.78125,0.48438 1.23437,0.48437 2.125,1.35937 0.89062,0.875 1.42187,2.10938 0.54688,1.23437 0.71875,2.71875 h -2.65625 q -0.125,-0.9375 -0.4375,-1.75 -0.3125,-0.82813 -0.84375,-1.4375 -0.53125,-0.60938 -1.29687,-0.95313 -0.76563,-0.35937 -1.8125,-0.35937 -0.95313,0 -1.67188,0.3125 -0.71875,0.29687 -1.25,0.82812 -0.51562,0.53125 -0.875,1.23438 -0.34375,0.70312 -0.5625,1.48437 -0.21875,0.78125 -0.3125,1.60938 -0.0781,0.82812 -0.0781,1.59375 v 2.9375 q 0,0.78125 0.0781,1.60937 0.0937,0.8125 0.3125,1.60938 0.21875,0.79687 0.5625,1.5 0.34375,0.70312 0.875,1.23437 0.53125,0.53125 1.23438,0.84375 0.71875,0.3125 1.6875,0.3125 1.04687,0 1.8125,-0.32812 0.76562,-0.32813 1.29687,-0.92188 0.53125,-0.59375 0.84375,-1.40625 0.3125,-0.8125 0.4375,-1.75 z m 6.74042,-6.92187 q 0.82812,-1.21875 2.04687,-1.89063 1.21875,-0.6875 2.73438,-0.70312 1.21875,0 2.20312,0.35937 1,0.34375 1.70313,1.09375 0.70312,0.73438 1.07812,1.875 0.39063,1.14063 0.39063,2.70313 v 9.75 h -2.65625 v -9.78125 q 0,-1.90625 -0.90625,-2.82813 -0.90625,-0.9375 -2.59375,-0.92187 -1.28125,0 -2.32813,0.625 -1.03125,0.625 -1.67187,1.65625 v 11.25 h -2.65625 v -22 h 2.65625 z m 25.13098,13.1875 q -0.15625,-0.29688 -0.25,-0.75 -0.0937,-0.45313 -0.14063,-0.9375 -0.39062,0.40625 -0.89062,0.76562 -0.5,0.34375 -1.09375,0.625 -0.59375,0.26563 -1.26563,0.42188 -0.67187,0.15625 -1.42187,0.15625 -1.23438,0 -2.23438,-0.34375 -1,-0.35938 -1.6875,-0.96875 -0.6875,-0.60938 -1.07812,-1.45313 -0.375,-0.84375 -0.375,-1.8125 0,-1.28125 0.5,-2.23437 0.51562,-0.95313 1.4375,-1.59375 0.9375,-0.64063 2.25,-0.95313 1.3125,-0.3125 2.92187,-0.3125 h 2.90625 v -1.21875 q 0,-0.70312 -0.26562,-1.26562 -0.25,-0.5625 -0.73438,-0.95313 -0.46875,-0.39062 -1.15625,-0.59375 -0.67187,-0.21875 -1.51562,-0.21875 -0.78125,0 -1.40625,0.20313 -0.625,0.1875 -1.0625,0.51562 -0.42188,0.32813 -0.65625,0.78125 -0.23438,0.45313 -0.23438,0.9375 H 211.458 q 0.0156,-0.84375 0.4375,-1.65625 0.42187,-0.8125 1.21875,-1.46875 0.79687,-0.65625 1.9375,-1.04687 1.14062,-0.40625 2.57812,-0.40625 1.3125,0 2.4375,0.32812 1.14063,0.3125 1.96875,0.96875 0.82813,0.65625 1.29688,1.625 0.46875,0.96875 0.46875,2.28125 v 7.20313 q 0,0.76562 0.14062,1.64062 0.14063,0.85938 0.40625,1.5 v 0.23438 z m -4.6875,-2.01563 q 0.78125,0 1.45312,-0.20312 0.67188,-0.20313 1.21875,-0.53125 0.5625,-0.32813 0.95313,-0.75 0.40625,-0.42188 0.64062,-0.875 v -3.14063 h -2.46875 q -2.32812,0 -3.60937,0.6875 -1.28125,0.6875 -1.28125,2.15625 0,0.57813 0.1875,1.0625 0.1875,0.48438 0.57812,0.84375 0.39063,0.34375 0.96875,0.54688 0.59375,0.20312 1.35938,0.20312 z m 14.4904,-13.48437 0.1875,2.29687 q 0.8437,-1.20312 2.0625,-1.875 1.2343,-0.6875 2.75,-0.70312 1.2187,0 2.2187,0.34375 1,0.34375 1.7031,1.07812 0.7032,0.71875 1.0782,1.84375 0.375,1.125 0.375,2.67188 v 9.84375 h -2.6407 v -9.78125 q 0,-1.03125 -0.2343,-1.75 -0.2344,-0.71875 -0.6875,-1.15625 -0.4532,-0.4375 -1.1094,-0.64063 -0.6406,-0.20312 -1.4844,-0.20312 -1.3281,0 -2.3437,0.67187 -1,0.65625 -1.6094,1.75 v 11.10938 h -2.65627 v -15.5 z m 17.5997,0 0.1875,2.29687 q 0.8438,-1.20312 2.0625,-1.875 1.2344,-0.6875 2.75,-0.70312 1.2187,0 2.2187,0.34375 1,0.34375 1.7032,1.07812 0.7031,0.71875 1.0781,1.84375 0.375,1.125 0.375,2.67188 v 9.84375 H 256.72 v -9.78125 q 0,-1.03125 -0.2344,-1.75 -0.2344,-0.71875 -0.6875,-1.15625 -0.4531,-0.4375 -1.1094,-0.64063 -0.6406,-0.20312 -1.4843,-0.20312 -1.3281,0 -2.3438,0.67187 -1,0.65625 -1.6093,1.75 v 11.10938 h -2.6563 v -15.5 z m 22.0685,15.78125 q -1.6407,0 -3.0157,-0.54688 -1.3593,-0.5625 -2.3437,-1.5625 -0.9688,-1 -1.5156,-2.375 -0.5313,-1.375 -0.5313,-3 v -0.59375 q 0,-1.89062 0.5938,-3.35937 0.6093,-1.48438 1.5937,-2.5 1,-1.03125 2.2656,-1.57813 1.2657,-0.54687 2.6094,-0.54687 1.6719,0 2.9219,0.57812 1.25,0.57813 2.0781,1.60938 0.8281,1.01562 1.2344,2.40625 0.4219,1.39062 0.4219,3.01562 v 1.1875 h -11.0782 q 0.047,1.0625 0.4063,2 0.375,0.92188 1,1.625 0.6406,0.6875 1.5312,1.09375 0.8907,0.39063 1.9688,0.39063 1.4062,0 2.5156,-0.5625 1.1094,-0.57813 1.8281,-1.53125 l 1.625,1.26562 q -0.3906,0.57813 -0.9687,1.125 -0.5781,0.53125 -1.3438,0.95313 -0.75,0.40625 -1.7187,0.65625 -0.9531,0.25 -2.0781,0.25 z m -0.3438,-13.89063 q -0.8125,0 -1.5312,0.29688 -0.7032,0.29687 -1.2813,0.85937 -0.5781,0.5625 -0.9687,1.39063 -0.3907,0.82812 -0.5469,1.89062 h 8.3281 v -0.1875 q -0.047,-0.78125 -0.2969,-1.53125 -0.25,-0.76562 -0.7343,-1.35937 -0.4844,-0.60938 -1.2188,-0.98438 -0.7344,-0.375 -1.75,-0.375 z m 11.5061,-8.39062 h 7.9219 v 19.70312 h 5.0469 v 2.29688 h -12.9688 v -2.29688 h 5.2656 v -17.39062 h -5.2656 z" />
  <path
     style="fill:#c9daf8;fill-rule:evenodd"
     inkscape:connector-curvature="0"
     id="path162"
     d="m 117.547,322.03022 v 0 c 0,-9.43103 7.64539,-17.07642 17.07642,-17.07642 H 367.998 c 4.529,0 8.8725,1.79908 12.075,5.00153 3.2024,3.20251 5.0016,7.54596 5.0016,12.07489 v 68.30377 c 0,9.43109 -7.6454,17.07648 -17.0766,17.07648 H 134.62342 v 0 c -9.43103,0 -17.07642,-7.64539 -17.07642,-17.07648 z" />
  <path
     style="fill-rule:evenodd;stroke:#595959;stroke-width:1;stroke-linecap:butt;stroke-linejoin:round"
     inkscape:connector-curvature="0"
     id="path164"
     d="m 117.547,322.03022 v 0 c 0,-9.43103 7.64539,-17.07642 17.07642,-17.07642 H 367.998 c 4.529,0 8.8725,1.79908 12.075,5.00153 3.2024,3.20251 5.0016,7.54596 5.0016,12.07489 v 68.30377 c 0,9.43109 -7.6454,17.07648 -17.0766,17.07648 H 134.62342 v 0 c -9.43103,0 -17.07642,-7.64539 -17.07642,-17.07648 z" />
  <path
     style="fill:#000000;fill-rule:nonzero"
     inkscape:connector-curvature="0"
     id="path166"
     d="m 158.206,335.98588 -0.54688,0.17188 0.32813,0.125 4.76562,2.03125 -0.28125,1.57812 -6.42187,-3.20312 0.21875,-1.23438 7.53125,-3.20312 -0.26563,1.70312 z m 10.17011,0 -0.54688,0.17188 0.32813,0.125 4.76562,2.03125 -0.28125,1.57812 -6.42187,-3.20312 0.21875,-1.23438 7.53125,-3.20312 -0.26563,1.70312 z m 11.17016,4.51563 q 0.40625,0.0156 0.8125,-0.10938 0.40625,-0.125 0.73438,-0.35937 0.34375,-0.23438 0.57812,-0.5625 0.23438,-0.34375 0.32813,-0.75 l 1.45312,-0.0156 q -0.0781,0.70313 -0.46875,1.28125 -0.375,0.5625 -0.9375,0.96875 -0.54687,0.40625 -1.23437,0.625 -0.67188,0.20313 -1.34375,0.1875 -0.95313,-0.0156 -1.64063,-0.40625 -0.67187,-0.39062 -1.09375,-1.01562 -0.40625,-0.64063 -0.5625,-1.45313 -0.15625,-0.8125 -0.0625,-1.67187 l 0.0312,-0.35938 q 0.0781,-0.625 0.26563,-1.20312 0.20312,-0.57813 0.5,-1.09375 0.3125,-0.53125 0.70312,-0.95313 0.40625,-0.42187 0.90625,-0.71875 0.5,-0.3125 1.07813,-0.46875 0.59375,-0.17187 1.25,-0.15625 0.70312,0.0156 1.29687,0.28125 0.60938,0.25 1.03125,0.6875 0.4375,0.4375 0.65625,1.04688 0.23438,0.59375 0.20313,1.3125 h -1.4375 q 0.0156,-0.4375 -0.10938,-0.79688 -0.10937,-0.35937 -0.35937,-0.625 -0.23438,-0.28125 -0.57813,-0.4375 -0.34375,-0.17187 -0.78125,-0.1875 -0.70312,-0.0312 -1.25,0.26563 -0.53125,0.28125 -0.92187,0.75 -0.375,0.46875 -0.60938,1.07812 -0.23437,0.59375 -0.3125,1.21875 l -0.0469,0.35938 q -0.0312,0.35937 -0.0312,0.75 0,0.375 0.0625,0.73437 0.0625,0.35938 0.1875,0.6875 0.14062,0.3125 0.35937,0.5625 0.23438,0.23438 0.5625,0.39063 0.32813,0.15625 0.78125,0.15625 z m 12.24823,-0.17188 q -0.53125,0.67188 -1.23437,1.0625 -0.70313,0.39063 -1.59375,0.375 -0.82813,-0.0156 -1.34375,-0.35937 -0.51563,-0.34375 -0.79688,-0.89063 -0.28125,-0.5625 -0.35937,-1.25 -0.0781,-0.6875 0,-1.39062 l 0.92187,-5.4375 h 1.53125 l -0.90625,5.46875 q -0.0469,0.42187 -0.0625,0.875 -0.0156,0.4375 0.10938,0.79687 0.125,0.35938 0.40625,0.60938 0.29687,0.23437 0.82812,0.25 0.84375,0.0156 1.5,-0.35938 0.65625,-0.375 1.09375,-1.0625 l 1.14063,-6.57812 h 1.54687 l -1.59375,9.15625 h -1.375 z m 10.49823,-1.21875 q 0.0469,-0.39062 -0.14062,-0.64062 -0.17188,-0.26563 -0.46875,-0.42188 -0.28125,-0.15625 -0.625,-0.25 -0.34375,-0.10937 -0.625,-0.17187 -0.51563,-0.125 -1.0625,-0.3125 -0.54688,-0.1875 -1.01563,-0.48438 -0.45312,-0.29687 -0.73437,-0.73437 -0.28125,-0.45313 -0.25,-1.07813 0.0156,-0.46875 0.1875,-0.84375 0.17187,-0.39062 0.45312,-0.70312 0.28125,-0.3125 0.64063,-0.53125 0.375,-0.23438 0.78125,-0.375 0.40625,-0.15625 0.82812,-0.21875 0.4375,-0.0781 0.85938,-0.0781 0.64062,0.0156 1.23437,0.20313 0.59375,0.1875 1.04688,0.54687 0.45312,0.35938 0.70312,0.89063 0.26563,0.53125 0.26563,1.23437 l -1.51563,-0.0156 q 0,-0.375 -0.15625,-0.65625 -0.14062,-0.29688 -0.39062,-0.48438 -0.25,-0.20312 -0.57813,-0.29687 -0.3125,-0.10938 -0.67187,-0.125 -0.34375,0 -0.70313,0.0781 -0.35937,0.0625 -0.67187,0.23438 -0.3125,0.15625 -0.53125,0.4375 -0.21875,0.26562 -0.26563,0.64062 -0.0625,0.375 0.10938,0.625 0.1875,0.23438 0.45312,0.39063 0.28125,0.14062 0.60938,0.21875 0.34375,0.0781 0.625,0.14062 0.34375,0.0937 0.71875,0.20313 0.375,0.10937 0.71875,0.26562 0.35937,0.14063 0.67187,0.34375 0.32813,0.20313 0.54688,0.46875 0.23437,0.26563 0.35937,0.60938 0.14063,0.34375 0.10938,0.78125 -0.0312,0.73437 -0.40625,1.26562 -0.35938,0.53125 -0.92188,0.875 -0.5625,0.32813 -1.25,0.48438 -0.67187,0.15625 -1.3125,0.14062 -0.67187,-0.0156 -1.3125,-0.20312 -0.625,-0.20313 -1.10937,-0.57813 -0.48438,-0.375 -0.78125,-0.92187 -0.29688,-0.5625 -0.28125,-1.29688 l 1.53125,0.0156 q 0,0.4375 0.15625,0.76562 0.17187,0.3125 0.4375,0.53125 0.26562,0.20313 0.625,0.3125 0.375,0.0937 0.79687,0.0937 0.32813,0.0156 0.70313,-0.0469 0.39062,-0.0781 0.71875,-0.23438 0.34375,-0.15625 0.57812,-0.42187 0.25,-0.28125 0.3125,-0.67188 z m 9.37323,-8.89062 -0.39062,2.21875 h 3.39062 l -0.21875,1.21875 h -3.375 l -0.82812,4.96875 q -0.0469,0.375 0,0.70312 0.0469,0.3125 0.1875,0.5625 0.14062,0.23438 0.40625,0.375 0.26562,0.14063 0.67187,0.15625 0.46875,0.0156 0.92188,-0.0625 0.46875,-0.0937 0.92187,-0.20312 l 0.15625,1.14062 q -0.54687,0.28125 -1.20312,0.375 -0.64063,0.0937 -1.23438,0.0781 -0.6875,0 -1.17187,-0.25 -0.46875,-0.26563 -0.76563,-0.6875 -0.28125,-0.4375 -0.39062,-1 -0.0937,-0.5625 -0.0312,-1.1875 l 0.82812,-4.96875 h -2.34375 l 0.21875,-1.21875 h 2.32813 l 0.375,-2.21875 z m 4.98267,6.76562 q 0.0625,-0.60937 0.25,-1.20312 0.20312,-0.59375 0.5,-1.125 0.29687,-0.53125 0.6875,-0.96875 0.40625,-0.45313 0.90625,-0.76563 0.5,-0.32812 1.07812,-0.5 0.59375,-0.17187 1.26563,-0.15625 0.96875,0.0312 1.64062,0.4375 0.6875,0.39063 1.09375,1.04688 0.42188,0.64062 0.57813,1.46875 0.15625,0.82812 0.0625,1.6875 l -0.0156,0.1875 q -0.125,0.92187 -0.5,1.78125 -0.375,0.85937 -0.98437,1.51562 -0.59375,0.64063 -1.40625,1.01563 -0.8125,0.375 -1.8125,0.35937 -0.95313,-0.0312 -1.64063,-0.42187 -0.67187,-0.39063 -1.09375,-1.03125 -0.40625,-0.64063 -0.57812,-1.45313 -0.15625,-0.8125 -0.0625,-1.6875 z m 1.5,0.1875 q -0.0469,0.35938 -0.0469,0.75 0.0156,0.375 0.0781,0.73438 0.0625,0.35937 0.1875,0.70312 0.14062,0.32813 0.35937,0.57813 0.23438,0.25 0.5625,0.40625 0.32813,0.14062 0.76563,0.15625 0.70312,0.0312 1.25,-0.26563 0.54687,-0.3125 0.92187,-0.79687 0.39063,-0.5 0.60938,-1.10938 0.23437,-0.625 0.32812,-1.23437 l 0.0156,-0.17188 q 0.0625,-0.54687 0.0156,-1.125 -0.0312,-0.57812 -0.25,-1.07812 -0.20312,-0.5 -0.60937,-0.8125 -0.40625,-0.32813 -1.0625,-0.35938 -0.71875,-0.0312 -1.26563,0.28125 -0.53125,0.3125 -0.92187,0.8125 -0.375,0.5 -0.60938,1.125 -0.21875,0.60938 -0.29687,1.21875 z m 10.56073,-4.73437 -0.17188,0.85937 q 0.35938,-0.48437 0.8125,-0.75 0.45313,-0.28125 1.0625,-0.28125 0.26562,0 0.50002,0.0625 0.2344,0.0469 0.4375,0.17188 0.2031,0.10937 0.3437,0.29687 0.1563,0.1875 0.2344,0.45313 0.3438,-0.45313 0.7969,-0.71875 0.4531,-0.26563 1.0469,-0.26563 0.5312,0.0156 0.875,0.23438 0.3593,0.20312 0.5625,0.5625 0.2031,0.34375 0.2656,0.79687 0.062,0.4375 0.016,0.89063 l -1.1406,6.84375 h -1.4531 l 1.1562,-6.85938 q 0.016,-0.23437 -0.016,-0.4375 -0.016,-0.21875 -0.1094,-0.375 -0.078,-0.15625 -0.2656,-0.23437 -0.1719,-0.0937 -0.4219,-0.0937 -0.4687,0 -0.8125,0.25 -0.3281,0.25 -0.4531,0.6875 l -1.1875,7.0625 h -1.46877 l 1.17188,-6.875 q 0.0156,-0.21875 -0.0156,-0.42188 -0.0156,-0.20312 -0.10937,-0.34375 -0.0781,-0.15625 -0.23438,-0.25 -0.15625,-0.0937 -0.42187,-0.10937 -0.42188,0 -0.71875,0.1875 -0.29688,0.17187 -0.51563,0.51562 l -1.25,7.29688 h -1.46875 l 1.59375,-9.15625 z m 15.35764,4.40625 h -6.2969 l 0.2344,-1.28125 h 6.2812 z m 10.0379,-4.59375 q 0.4063,0.0156 0.8126,0.0625 0.4062,0.0469 0.7969,0.1875 l -0.3907,1.51562 q -0.4062,-0.0937 -0.8125,-0.14062 -0.4063,-0.0625 -0.8125,-0.0781 -1.0781,0 -1.8438,0.5 -0.75,0.5 -1.2656,1.42188 l -1.0156,5.875 h -1.5313 l 1.5938,-9.15625 h 1.4531 l -0.25,1.45312 q 0.3125,-0.375 0.6719,-0.67187 0.375,-0.3125 0.7812,-0.51563 0.4063,-0.21875 0.8594,-0.32812 0.4531,-0.125 0.9531,-0.125 z m 6.8576,9.51562 q -0.9218,-0.0156 -1.6406,-0.375 -0.7031,-0.375 -1.1562,-0.96875 -0.4532,-0.60937 -0.6563,-1.39062 -0.2031,-0.78125 -0.125,-1.67188 l 0.047,-0.35937 q 0.062,-0.59375 0.25,-1.1875 0.2031,-0.59375 0.5156,-1.125 0.3125,-0.53125 0.7188,-0.96875 0.4062,-0.45313 0.9062,-0.78125 0.5156,-0.32813 1.0938,-0.5 0.5937,-0.1875 1.25,-0.17188 0.9375,0.0312 1.5937,0.42188 0.6563,0.375 1.0313,1 0.3906,0.625 0.5156,1.4375 0.125,0.79687 0.016,1.64062 l -0.1094,0.70313 h -6.3125 q -0.062,0.54687 0.031,1.09375 0.1094,0.53125 0.375,0.95312 0.2812,0.42188 0.7344,0.6875 0.4531,0.25 1.0625,0.28125 0.7968,0.0156 1.4687,-0.3125 0.6719,-0.34375 1.2188,-0.90625 l 0.875,0.75 q -0.3125,0.4375 -0.7344,0.78125 -0.4219,0.32813 -0.9063,0.54688 -0.4687,0.21875 -1,0.3125 -0.5156,0.10937 -1.0625,0.10937 z m 1.125,-8.20312 q -0.5937,-0.0312 -1.0781,0.20312 -0.4687,0.21875 -0.8437,0.59375 -0.3594,0.35938 -0.625,0.84375 -0.2657,0.48438 -0.4532,0.96875 l 4.7813,0.0312 0.031,-0.15625 q 0.078,-0.46875 -0.016,-0.90625 -0.078,-0.4375 -0.3281,-0.78125 -0.2344,-0.35937 -0.6094,-0.5625 -0.3594,-0.21875 -0.8594,-0.23437 z m 11.4046,5.54687 q 0.047,-0.39062 -0.1407,-0.64062 -0.1718,-0.26563 -0.4687,-0.42188 -0.2813,-0.15625 -0.625,-0.25 -0.3438,-0.10937 -0.625,-0.17187 -0.5156,-0.125 -1.0625,-0.3125 -0.5469,-0.1875 -1.0156,-0.48438 -0.4532,-0.29687 -0.7344,-0.73437 -0.2813,-0.45313 -0.25,-1.07813 0.016,-0.46875 0.1875,-0.84375 0.1719,-0.39062 0.4531,-0.70312 0.2813,-0.3125 0.6406,-0.53125 0.375,-0.23438 0.7813,-0.375 0.4062,-0.15625 0.8281,-0.21875 0.4375,-0.0781 0.8594,-0.0781 0.6406,0.0156 1.2344,0.20313 0.5937,0.1875 1.0468,0.54687 0.4532,0.35938 0.7032,0.89063 0.2656,0.53125 0.2656,1.23437 l -1.5156,-0.0156 q 0,-0.375 -0.1563,-0.65625 -0.1406,-0.29688 -0.3906,-0.48438 -0.25,-0.20312 -0.5781,-0.29687 -0.3125,-0.10938 -0.6719,-0.125 -0.3438,0 -0.7031,0.0781 -0.3594,0.0625 -0.6719,0.23438 -0.3125,0.15625 -0.5313,0.4375 -0.2187,0.26562 -0.2656,0.64062 -0.062,0.375 0.1094,0.625 0.1875,0.23438 0.4531,0.39063 0.2813,0.14062 0.6094,0.21875 0.3437,0.0781 0.625,0.14062 0.3437,0.0937 0.7187,0.20313 0.375,0.10937 0.7188,0.26562 0.3594,0.14063 0.6719,0.34375 0.3281,0.20313 0.5468,0.46875 0.2344,0.26563 0.3594,0.60938 0.1406,0.34375 0.1094,0.78125 -0.031,0.73437 -0.4063,1.26562 -0.3593,0.53125 -0.9218,0.875 -0.5625,0.32813 -1.25,0.48438 -0.6719,0.15625 -1.3125,0.14062 -0.6719,-0.0156 -1.3125,-0.20312 -0.625,-0.20313 -1.1094,-0.57813 -0.4844,-0.375 -0.7813,-0.92187 -0.2968,-0.5625 -0.2812,-1.29688 l 1.5312,0.0156 q 0,0.4375 0.1563,0.76562 0.1719,0.3125 0.4375,0.53125 0.2656,0.20313 0.625,0.3125 0.375,0.0937 0.7969,0.0937 0.3281,0.0156 0.7031,-0.0469 0.3906,-0.0781 0.7187,-0.23438 0.3438,-0.15625 0.5782,-0.42187 0.25,-0.28125 0.3125,-0.67188 z m 4.1856,-2.125 q 0.062,-0.60937 0.25,-1.20312 0.2032,-0.59375 0.5,-1.125 0.2969,-0.53125 0.6875,-0.96875 0.4063,-0.45313 0.9063,-0.76563 0.5,-0.32812 1.0781,-0.5 0.5938,-0.17187 1.2656,-0.15625 0.9688,0.0312 1.6407,0.4375 0.6875,0.39063 1.0937,1.04688 0.4219,0.64062 0.5781,1.46875 0.1563,0.82812 0.062,1.6875 l -0.016,0.1875 q -0.125,0.92187 -0.5,1.78125 -0.375,0.85937 -0.9844,1.51562 -0.5937,0.64063 -1.4062,1.01563 -0.8125,0.375 -1.8125,0.35937 -0.9531,-0.0312 -1.6406,-0.42187 -0.6719,-0.39063 -1.0938,-1.03125 -0.4062,-0.64063 -0.5781,-1.45313 -0.1563,-0.8125 -0.062,-1.6875 z m 1.5,0.1875 q -0.047,0.35938 -0.047,0.75 0.016,0.375 0.078,0.73438 0.062,0.35937 0.1875,0.70312 0.1406,0.32813 0.3594,0.57813 0.2343,0.25 0.5625,0.40625 0.3281,0.14062 0.7656,0.15625 0.7031,0.0312 1.25,-0.26563 0.5469,-0.3125 0.9219,-0.79687 0.3906,-0.5 0.6093,-1.10938 0.2344,-0.625 0.3282,-1.23437 l 0.016,-0.17188 q 0.062,-0.54687 0.016,-1.125 -0.031,-0.57812 -0.25,-1.07812 -0.2031,-0.5 -0.6094,-0.8125 -0.4062,-0.32813 -1.0625,-0.35938 -0.7187,-0.0312 -1.2656,0.28125 -0.5312,0.3125 -0.9219,0.8125 -0.375,0.5 -0.6093,1.125 -0.2188,0.60938 -0.2969,1.21875 z m 14.3265,3.15625 q -0.5313,0.67188 -1.2344,1.0625 -0.7031,0.39063 -1.5938,0.375 -0.8281,-0.0156 -1.3437,-0.35937 -0.5156,-0.34375 -0.7969,-0.89063 -0.2812,-0.5625 -0.3594,-1.25 -0.078,-0.6875 0,-1.39062 l 0.9219,-5.4375 h 1.5313 l -0.9063,5.46875 q -0.047,0.42187 -0.062,0.875 -0.016,0.4375 0.1094,0.79687 0.125,0.35938 0.4062,0.60938 0.2969,0.23437 0.8282,0.25 0.8437,0.0156 1.5,-0.35938 0.6562,-0.375 1.0937,-1.0625 l 1.1406,-6.57812 h 1.5469 l -1.5937,9.15625 h -1.375 z m 11.4514,-8.07812 q 0.4062,0.0156 0.8125,0.0625 0.4062,0.0469 0.7968,0.1875 l -0.3906,1.51562 q -0.4062,-0.0937 -0.8125,-0.14062 -0.4062,-0.0625 -0.8125,-0.0781 -1.0781,0 -1.8437,0.5 -0.75,0.5 -1.2657,1.42188 l -1.0156,5.875 h -1.5312 l 1.5937,-9.15625 h 1.4531 l -0.25,1.45312 q 0.3125,-0.375 0.6719,-0.67187 0.375,-0.3125 0.7813,-0.51563 0.4062,-0.21875 0.8593,-0.32812 0.4532,-0.125 0.9532,-0.125 z m 6.8106,8.25 q 0.4063,0.0156 0.8125,-0.10938 0.4063,-0.125 0.7344,-0.35937 0.3438,-0.23438 0.5781,-0.5625 0.2344,-0.34375 0.3282,-0.75 l 1.4531,-0.0156 q -0.078,0.70313 -0.4688,1.28125 -0.375,0.5625 -0.9375,0.96875 -0.5468,0.40625 -1.2343,0.625 -0.6719,0.20313 -1.3438,0.1875 -0.9531,-0.0156 -1.6406,-0.40625 -0.6719,-0.39062 -1.0938,-1.01562 -0.4062,-0.64063 -0.5625,-1.45313 -0.1562,-0.8125 -0.062,-1.67187 l 0.031,-0.35938 q 0.078,-0.625 0.2656,-1.20312 0.2031,-0.57813 0.5,-1.09375 0.3125,-0.53125 0.7031,-0.95313 0.4063,-0.42187 0.9063,-0.71875 0.5,-0.3125 1.0781,-0.46875 0.5938,-0.17187 1.25,-0.15625 0.7031,0.0156 1.2969,0.28125 0.6094,0.25 1.0312,0.6875 0.4375,0.4375 0.6563,1.04688 0.2344,0.59375 0.2031,1.3125 h -1.4375 q 0.016,-0.4375 -0.1094,-0.79688 -0.1093,-0.35937 -0.3593,-0.625 -0.2344,-0.28125 -0.5782,-0.4375 -0.3437,-0.17187 -0.7812,-0.1875 -0.7031,-0.0312 -1.25,0.26563 -0.5313,0.28125 -0.9219,0.75 -0.375,0.46875 -0.6094,1.07812 -0.2343,0.59375 -0.3125,1.21875 l -0.047,0.35938 q -0.031,0.35937 -0.031,0.75 0,0.375 0.062,0.73437 0.062,0.35938 0.1875,0.6875 0.1406,0.3125 0.3594,0.5625 0.2344,0.23438 0.5625,0.39063 0.3281,0.15625 0.7812,0.15625 z m 10.2171,1.26562 q -0.9219,-0.0156 -1.6406,-0.375 -0.7032,-0.375 -1.1563,-0.96875 -0.4531,-0.60937 -0.6562,-1.39062 -0.2032,-0.78125 -0.125,-1.67188 l 0.047,-0.35937 q 0.062,-0.59375 0.25,-1.1875 0.2032,-0.59375 0.5157,-1.125 0.3125,-0.53125 0.7187,-0.96875 0.4063,-0.45313 0.9063,-0.78125 0.5156,-0.32813 1.0937,-0.5 0.5938,-0.1875 1.25,-0.17188 0.9375,0.0312 1.5938,0.42188 0.6562,0.375 1.0312,1 0.3906,0.625 0.5156,1.4375 0.125,0.79687 0.016,1.64062 l -0.1094,0.70313 h -6.3125 q -0.062,0.54687 0.031,1.09375 0.1094,0.53125 0.375,0.95312 0.2813,0.42188 0.7344,0.6875 0.4531,0.25 1.0625,0.28125 0.7969,0.0156 1.4688,-0.3125 0.6718,-0.34375 1.2187,-0.90625 l 0.875,0.75 q -0.3125,0.4375 -0.7344,0.78125 -0.4218,0.32813 -0.9062,0.54688 -0.4688,0.21875 -1,0.3125 -0.5156,0.10937 -1.0625,0.10937 z m 1.125,-8.20312 q -0.5938,-0.0312 -1.0781,0.20312 -0.4688,0.21875 -0.8438,0.59375 -0.3594,0.35938 -0.625,0.84375 -0.2656,0.48438 -0.4531,0.96875 l 4.7812,0.0312 0.031,-0.15625 q 0.078,-0.46875 -0.016,-0.90625 -0.078,-0.4375 -0.3282,-0.78125 -0.2343,-0.35937 -0.6093,-0.5625 -0.3594,-0.21875 -0.8594,-0.23437 z m 6.3889,0.3125 0.2812,-1.54688 6.7032,3.20313 -0.2188,1.21875 -7.8125,3.21875 0.2969,-1.70313 5.5781,-2.03125 0.5938,-0.17187 -0.375,-0.125 z m 10.17,0 0.2813,-1.54688 6.7031,3.20313 -0.2187,1.21875 -7.8125,3.21875 0.2968,-1.70313 5.5782,-2.03125 0.5937,-0.17187 -0.375,-0.125 z" />
  <path
     style="fill:#000000;fill-rule:nonzero"
     inkscape:connector-curvature="0"
     id="path168"
     d="m 205.7116,367.84968 q -0.1875,1.4375 -0.75,2.65625 -0.5625,1.20313 -1.45312,2.07813 -0.89063,0.85937 -2.125,1.34375 -1.21875,0.46875 -2.71875,0.46875 -1.29688,0 -2.34375,-0.35938 -1.04688,-0.35937 -1.875,-1 -0.82813,-0.65625 -1.42188,-1.53125 -0.59375,-0.875 -0.98437,-1.90625 -0.39063,-1.03125 -0.59375,-2.15625 -0.1875,-1.125 -0.20313,-2.29687 v -2.90625 q 0.0156,-1.15625 0.20313,-2.28125 0.20312,-1.14063 0.59375,-2.17188 0.39062,-1.03125 0.98437,-1.90625 0.59375,-0.89062 1.42188,-1.53125 0.82812,-0.64062 1.85937,-1 1.04688,-0.375 2.35938,-0.375 1.5625,0 2.78125,0.48438 1.23437,0.48437 2.125,1.35937 0.89062,0.875 1.42187,2.10938 0.54688,1.23437 0.71875,2.71875 h -2.65625 q -0.125,-0.9375 -0.4375,-1.75 -0.3125,-0.82813 -0.84375,-1.4375 -0.53125,-0.60938 -1.29687,-0.95313 -0.76563,-0.35937 -1.8125,-0.35937 -0.95313,0 -1.67188,0.3125 -0.71875,0.29687 -1.25,0.82812 -0.51562,0.53125 -0.875,1.23438 -0.34375,0.70312 -0.5625,1.48437 -0.21875,0.78125 -0.3125,1.60938 -0.0781,0.82812 -0.0781,1.59375 v 2.9375 q 0,0.78125 0.0781,1.60937 0.0937,0.8125 0.3125,1.60938 0.21875,0.79687 0.5625,1.5 0.34375,0.70312 0.875,1.23437 0.53125,0.53125 1.23438,0.84375 0.71875,0.3125 1.6875,0.3125 1.04687,0 1.8125,-0.32812 0.76562,-0.32813 1.29687,-0.92188 0.53125,-0.59375 0.84375,-1.40625 0.3125,-0.8125 0.4375,-1.75 z m 6.74042,-6.92187 q 0.82812,-1.21875 2.04687,-1.89063 1.21875,-0.6875 2.73438,-0.70312 1.21875,0 2.20312,0.35937 1,0.34375 1.70313,1.09375 0.70312,0.73438 1.07812,1.875 0.39063,1.14063 0.39063,2.70313 v 9.75 h -2.65625 v -9.78125 q 0,-1.90625 -0.90625,-2.82813 -0.90625,-0.9375 -2.59375,-0.92187 -1.28125,0 -2.32813,0.625 -1.03125,0.625 -1.67187,1.65625 v 11.25 h -2.65625 v -22 h 2.65625 z m 25.13098,13.1875 q -0.1563,-0.29688 -0.25,-0.75 -0.094,-0.45313 -0.1406,-0.9375 -0.3907,0.40625 -0.8907,0.76562 -0.5,0.34375 -1.0937,0.625 -0.5938,0.26563 -1.2656,0.42188 -0.6719,0.15625 -1.4219,0.15625 -1.2344,0 -2.23438,-0.34375 -1,-0.35938 -1.6875,-0.96875 -0.6875,-0.60938 -1.07812,-1.45313 -0.375,-0.84375 -0.375,-1.8125 0,-1.28125 0.5,-2.23437 0.51562,-0.95313 1.4375,-1.59375 0.9375,-0.64063 2.25,-0.95313 1.3125,-0.3125 2.9219,-0.3125 h 2.9062 v -1.21875 q 0,-0.70312 -0.2656,-1.26562 -0.25,-0.5625 -0.7344,-0.95313 -0.4687,-0.39062 -1.1562,-0.59375 -0.6719,-0.21875 -1.5157,-0.21875 -0.7812,0 -1.4062,0.20313 -0.625,0.1875 -1.0625,0.51562 -0.4219,0.32813 -0.65625,0.78125 -0.23438,0.45313 -0.23438,0.9375 H 227.458 q 0.0156,-0.84375 0.4375,-1.65625 0.42187,-0.8125 1.21875,-1.46875 0.79687,-0.65625 1.93745,-1.04687 1.1407,-0.40625 2.5782,-0.40625 1.3125,0 2.4375,0.32812 1.1406,0.3125 1.9687,0.96875 0.8281,0.65625 1.2969,1.625 0.4687,0.96875 0.4687,2.28125 v 7.20313 q 0,0.76562 0.1407,1.64062 0.1406,0.85938 0.4062,1.5 v 0.23438 z m -4.6875,-2.01563 q 0.7812,0 1.4531,-0.20312 0.6719,-0.20313 1.2188,-0.53125 0.5625,-0.32813 0.9531,-0.75 0.4062,-0.42188 0.6406,-0.875 v -3.14063 h -2.4687 q -2.3282,0 -3.6094,0.6875 -1.28125,0.6875 -1.28125,2.15625 0,0.57813 0.1875,1.0625 0.1875,0.48438 0.57815,0.84375 0.3906,0.34375 0.9687,0.54688 0.5938,0.20312 1.3594,0.20312 z m 14.4904,-13.48437 0.1875,2.29687 q 0.8437,-1.20312 2.0625,-1.875 1.2343,-0.6875 2.75,-0.70312 1.2187,0 2.2187,0.34375 1,0.34375 1.7031,1.07812 0.7032,0.71875 1.0782,1.84375 0.375,1.125 0.375,2.67188 v 9.84375 h -2.6407 v -9.78125 q 0,-1.03125 -0.2343,-1.75 -0.2344,-0.71875 -0.6875,-1.15625 -0.4532,-0.4375 -1.1094,-0.64063 -0.6406,-0.20312 -1.4844,-0.20312 -1.3281,0 -2.3437,0.67187 -1,0.65625 -1.6094,1.75 v 11.10938 h -2.6563 v -15.5 z m 17.5997,0 0.1875,2.29687 q 0.8437,-1.20312 2.0625,-1.875 1.2344,-0.6875 2.75,-0.70312 1.2187,0 2.2187,0.34375 1,0.34375 1.7032,1.07812 0.7031,0.71875 1.0781,1.84375 0.375,1.125 0.375,2.67188 v 9.84375 H 272.72 v -9.78125 q 0,-1.03125 -0.2344,-1.75 -0.2344,-0.71875 -0.6875,-1.15625 -0.4531,-0.4375 -1.1094,-0.64063 -0.6406,-0.20312 -1.4844,-0.20312 -1.3281,0 -2.3437,0.67187 -1,0.65625 -1.6094,1.75 v 11.10938 h -2.6562 v -15.5 z m 22.0685,15.78125 q -1.6407,0 -3.0157,-0.54688 -1.3593,-0.5625 -2.3437,-1.5625 -0.9688,-1 -1.5156,-2.375 -0.5313,-1.375 -0.5313,-3 v -0.59375 q 0,-1.89062 0.5938,-3.35937 0.6093,-1.48438 1.5937,-2.5 1,-1.03125 2.2656,-1.57813 1.2657,-0.54687 2.6094,-0.54687 1.6719,0 2.9219,0.57812 1.25,0.57813 2.0781,1.60938 0.8281,1.01562 1.2344,2.40625 0.4219,1.39062 0.4219,3.01562 v 1.1875 h -11.0782 q 0.047,1.0625 0.4063,2 0.375,0.92188 1,1.625 0.6406,0.6875 1.5312,1.09375 0.8907,0.39063 1.9688,0.39063 1.4062,0 2.5156,-0.5625 1.1094,-0.57813 1.8281,-1.53125 l 1.625,1.26562 q -0.3906,0.57813 -0.9687,1.125 -0.5781,0.53125 -1.3438,0.95313 -0.75,0.40625 -1.7187,0.65625 -0.9531,0.25 -2.0781,0.25 z m -0.3438,-13.89063 q -0.8125,0 -1.5312,0.29688 -0.7032,0.29687 -1.2813,0.85937 -0.5781,0.5625 -0.9687,1.39063 -0.3907,0.82812 -0.5469,1.89062 h 8.3281 v -0.1875 q -0.047,-0.78125 -0.2969,-1.53125 -0.25,-0.76562 -0.7343,-1.35937 -0.4844,-0.60938 -1.2188,-0.98438 -0.7344,-0.375 -1.75,-0.375 z m 11.5061,-8.39062 h 7.9219 v 19.70312 h 5.0469 v 2.29688 h -12.9688 v -2.29688 h 5.2656 v -17.39062 h -5.2656 z" />
</svg>
