<?xml version="1.0" encoding="UTF-8" standalone="no"?>
<!-- Created with Inkscape (http://www.inkscape.org/) -->

<svg
   xmlns:dc="http://purl.org/dc/elements/1.1/"
   xmlns:cc="http://creativecommons.org/ns#"
   xmlns:rdf="http://www.w3.org/1999/02/22-rdf-syntax-ns#"
   xmlns:svg="http://www.w3.org/2000/svg"
   xmlns="http://www.w3.org/2000/svg"
   xmlns:sodipodi="http://sodipodi.sourceforge.net/DTD/sodipodi-0.dtd"
   xmlns:inkscape="http://www.inkscape.org/namespaces/inkscape"
   width="1500"
   height="300"
   id="svg2"
   version="1.1"
   inkscape:version="0.92.3 (2405546, 2018-03-11)"
   sodipodi:docname="kube_logo_white_with_text.svg"
   inkscape:export-filename="/home/thockin/Downloads/kubernetes.png"
   inkscape:export-xdpi="90"
   inkscape:export-ydpi="90">
  <defs
     id="defs4" />
  <sodipodi:namedview
     id="base"
     pagecolor="#ffffff"
     bordercolor="#666666"
     borderopacity="1.0"
     inkscape:pageopacity="0.0"
     inkscape:pageshadow="2"
     inkscape:zoom="0.37565048"
     inkscape:cx="-388.71852"
     inkscape:cy="180.99818"
     inkscape:document-units="px"
     inkscape:current-layer="layer1"
     showgrid="false"
     inkscape:window-width="1519"
     inkscape:window-height="822"
     inkscape:window-x="82"
     inkscape:window-y="25"
     inkscape:window-maximized="0"
     inkscape:snap-global="false"
     fit-margin-top="10"
     fit-margin-left="10"
     fit-margin-right="10"
     fit-margin-bottom="10"
     inkscape:pagecheckerboard="true" />
  <metadata
     id="metadata7">
    <rdf:RDF>
      <cc:Work
         rdf:about="">
        <dc:format>image/svg+xml</dc:format>
        <dc:type
           rdf:resource="http://purl.org/dc/dcmitype/StillImage" />
        <dc:title></dc:title>
      </cc:Work>
    </rdf:RDF>
  </metadata>
  <g
     inkscape:label="Layer 1"
     inkscape:groupmode="layer"
     id="layer1"
     transform="translate(8.8111836,-588.78401)">
    <g
       id="g3752"
       transform="matrix(0.41670163,0,0,0.41670163,-9.2303301,522.67675)">
      <path
         inkscape:export-ydpi="250.55"
         inkscape:export-xdpi="250.55"
         inkscape:export-filename="new.png"
         inkscape:connector-curvature="0"
         id="path3055"
         d="m 369.53875,177.69828 a 46.724621,46.342246 0 0 0 -17.90625,4.53125 l -244.34376,116.75 a 46.724621,46.342246 0 0 0 -25.28125,31.4375 l -60.28125,262.25 a 46.724621,46.342246 0 0 0 6.34375,35.53125 46.724621,46.342246 0 0 0 2.65625,3.6875 l 169.12501,210.28125 a 46.724621,46.342246 0 0 0 36.53125,17.4375 l 271.21875,-0.0625 A 46.724621,46.342246 0 0 0 544.1325,842.13578 L 713.195,631.82328 a 46.724621,46.342246 0 0 0 9.03125,-39.21875 l -60.375,-262.25 A 46.724621,46.342246 0 0 0 636.57,298.91703 L 392.195,182.22953 a 46.724621,46.342246 0 0 0 -22.65625,-4.53125 z"
         style="fill:#326ce5;fill-opacity:1;stroke:none;stroke-width:0;stroke-miterlimit:4;stroke-dasharray:none;stroke-opacity:1" />
      <path
         transform="translate(-8.8111836,148.45869)"
         id="path3054-2-9"
         d="m 378.21875,10.25 a 49.325911,48.922245 0 0 0 -18.875,4.8125 L 101.375,138.28125 a 49.325911,48.922245 0 0 0 -26.6875,33.1875 L 11.0625,448.3125 a 49.325911,48.922245 0 0 0 6.6875,37.53125 49.325911,48.922245 0 0 0 2.8125,3.875 l 178.53125,222 a 49.325911,48.922245 0 0 0 38.5625,18.40625 l 286.3125,-0.0625 a 49.325911,48.922245 0 0 0 38.5625,-18.375 L 741,489.65625 a 49.325911,48.922245 0 0 0 9.53125,-41.375 L 686.8125,171.40625 A 49.325911,48.922245 0 0 0 660.125,138.25 L 402.15625,15.03125 A 49.325911,48.922245 0 0 0 378.21875,10.25 Z m 0.125,19 A 46.724621,46.342246 0 0 1 401,33.78125 l 244.375,116.6875 a 46.724621,46.342246 0 0 1 25.28125,31.4375 l 60.375,262.25 A 46.724621,46.342246 0 0 1 722,483.375 L 552.9375,693.6875 a 46.724621,46.342246 0 0 1 -36.53125,17.40625 l -271.21875,0.0625 a 46.724621,46.342246 0 0 1 -36.53125,-17.4375 L 39.53125,483.4375 A 46.724621,46.342246 0 0 1 36.875,479.75 46.724621,46.342246 0 0 1 30.53125,444.21875 l 60.28125,-262.25 a 46.724621,46.342246 0 0 1 25.28125,-31.4375 L 360.4375,33.78125 A 46.724621,46.342246 0 0 1 378.34375,29.25 Z"
         style="color:#000000;font-style:normal;font-variant:normal;font-weight:normal;font-stretch:normal;font-size:medium;line-height:normal;font-family:Sans;-inkscape-font-specification:Sans;text-indent:0;text-align:start;text-decoration:none;text-decoration-line:none;letter-spacing:normal;word-spacing:normal;text-transform:none;writing-mode:lr-tb;direction:ltr;baseline-shift:baseline;text-anchor:start;display:inline;overflow:visible;visibility:visible;fill:#ffffff;fill-opacity:1;fill-rule:nonzero;stroke:none;stroke-width:0;stroke-miterlimit:4;stroke-dasharray:none;marker:none;enable-background:accumulate"
         inkscape:connector-curvature="0" />
      <path
         inkscape:export-ydpi="250.55"
         inkscape:export-xdpi="250.55"
         inkscape:export-filename="./path3059.png"
         sodipodi:nodetypes="ccccccccsccccscssccsccccccccscccsccccccccccccccscccscsccsccccscscsccccccccscccscsccccsccccscscscccccccccccccccscccsccccccccccccscccccscccccccccccccccccccccccscccscccccccccscccscccc"
         style="color:#000000;font-style:normal;font-variant:normal;font-weight:normal;font-stretch:normal;font-size:medium;line-height:normal;font-family:Sans;-inkscape-font-specification:Sans;text-indent:0;text-align:start;text-decoration:none;text-decoration-line:none;letter-spacing:normal;word-spacing:normal;text-transform:none;writing-mode:lr-tb;direction:ltr;baseline-shift:baseline;text-anchor:start;display:inline;overflow:visible;visibility:visible;fill:#ffffff;fill-opacity:1;stroke:none;stroke-width:0;stroke-miterlimit:4;stroke-dasharray:none;stroke-opacity:1;marker:none;enable-background:accumulate"
         d="m 371.9599,266.94541 c -8.07696,8.2e-4 -14.62596,7.27591 -14.625,16.24999 10e-6,0.13773 0.0282,0.26934 0.0312,0.40625 -0.0119,1.21936 -0.0708,2.68836 -0.0312,3.75 0.19262,5.176 1.3209,9.13749 2,13.90625 1.23028,10.20666 2.26117,18.66736 1.625,26.53125 -0.61869,2.9654 -2.80288,5.67741 -4.75,7.5625 l -0.34375,6.1875 c -8.77682,0.72717 -17.61235,2.05874 -26.4375,4.0625 -37.97461,8.62218 -70.67008,28.18307 -95.5625,54.59375 -1.61522,-1.10193 -4.44103,-3.12914 -5.2813,-3.75 -2.61117,0.35262 -5.25021,1.15829 -8.6875,-0.84375 -6.54491,-4.40563 -12.50587,-10.48693 -19.71875,-17.8125 -3.30498,-3.50419 -5.69832,-6.84101 -9.625,-10.21875 -0.89172,-0.76707 -2.25258,-1.80455 -3.25,-2.59375 -3.06988,-2.44757 -6.6907,-3.72402 -10.1875,-3.84375 -4.49589,-0.15394 -8.82394,1.60385 -11.65625,5.15625 -5.03521,6.31538 -3.42312,15.96805 3.59375,21.5625 0.0712,0.0567 0.14702,0.10078 0.21875,0.15625 0.96422,0.78162 2.14496,1.78313 3.03125,2.4375 4.16687,3.07655 7.9732,4.65145 12.125,7.09375 8.747,5.40181 15.99837,9.88086 21.75,15.28125 2.24602,2.39417 2.63858,6.61292 2.9375,8.4375 l 4.6875,4.1875 c -25.09342,37.76368 -36.70686,84.40946 -29.8437,131.9375 l -6.125,1.78125 c -1.6143,2.08461 -3.89541,5.36474 -6.2813,6.34375 -7.52513,2.37021 -15.99424,3.24059 -26.21875,4.3125 -4.80031,0.39915 -8.94218,0.16095 -14.03125,1.125 -1.12008,0.21218 -2.68072,0.61877 -3.90625,0.90625 -0.0426,0.009 -0.0824,0.0216 -0.125,0.0312 -0.0668,0.0155 -0.15456,0.0479 -0.21875,0.0625 -8.62014,2.08279 -14.15774,10.006 -12.375,17.8125 1.78316,7.80833 10.20314,12.55677 18.875,10.6875 0.0626,-0.0143 0.1535,-0.0167 0.21875,-0.0312 0.0979,-0.0224 0.18409,-0.0699 0.28125,-0.0937 1.20885,-0.26536 2.72377,-0.5606 3.78125,-0.84375 5.00334,-1.33963 8.62694,-3.30796 13.125,-5.03125 9.67694,-3.47077 17.69173,-6.37022 25.5,-7.5 3.26118,-0.25542 6.69711,2.01216 8.40625,2.96875 l 6.375,-1.09375 c 14.67018,45.48282 45.41416,82.24502 84.34375,105.3125 l -2.65625,6.375 c 0.95742,2.47542 2.01341,5.8247 1.30022,8.26932 -2.83868,7.3612 -7.70097,15.13097 -13.23772,23.79318 -2.68085,4.00192 -5.42453,7.10761 -7.84375,11.6875 -0.5789,1.09589 -1.31618,2.77932 -1.875,3.9375 -3.75884,8.04236 -1.00164,17.3052 6.21875,20.78125 7.26575,3.49788 16.28447,-0.19134 20.1875,-8.25 0.006,-0.0114 0.0257,-0.0198 0.0312,-0.0312 0.004,-0.009 -0.004,-0.0225 0,-0.0312 0.55593,-1.14255 1.34353,-2.64437 1.8125,-3.71875 2.07213,-4.74702 2.76161,-8.81506 4.21875,-13.40625 3.86962,-9.72014 5.99567,-19.91903 11.32258,-26.27411 1.45868,-1.74023 3.83681,-2.4095 6.30242,-3.06964 l 3.3125,-6 c 33.93824,13.0268 71.92666,16.52246 109.875,7.90625 8.65697,-1.96557 17.01444,-4.50945 25.09375,-7.5625 0.93098,1.65133 2.66113,4.8257 3.125,5.625 2.50559,0.81518 5.24044,1.23614 7.46875,4.53125 3.98539,6.80898 6.7109,14.86416 10.03125,24.59375 1.45738,4.59111 2.17762,8.65933 4.25,13.40625 0.47234,1.08195 1.256,2.60486 1.8125,3.75 3.89482,8.08484 12.94212,11.78667 20.21875,8.28125 7.2195,-3.4779 9.97974,-12.7399 6.21875,-20.78125 -0.55889,-1.15814 -1.3273,-2.84164 -1.90625,-3.9375 -2.41946,-4.57976 -5.1627,-7.65448 -7.84375,-11.65625 -5.53721,-8.66192 -10.12968,-15.8577 -12.96875,-23.21875 -1.18711,-3.79657 0.20028,-6.15774 1.125,-8.625 -0.55378,-0.63477 -1.73881,-4.22009 -2.4375,-5.90625 40.4574,-23.88816 70.29856,-62.02129 84.3125,-106.0625 1.8924,0.29742 5.18154,0.87936 6.25,1.09375 2.19954,-1.4507 4.22194,-3.34352 8.1875,-3.03125 7.80832,1.12937 15.82288,4.02973 25.5,7.5 4.49815,1.72306 8.1216,3.72313 13.125,5.0625 1.05749,0.28309 2.57238,0.5472 3.78125,0.8125 0.0972,0.0238 0.1833,0.0714 0.28125,0.0937 0.0653,0.0146 0.15615,0.0169 0.21875,0.0312 8.67236,1.86695 17.09384,-2.87871 18.875,-10.6875 1.78074,-7.80696 -3.7543,-15.73201 -12.375,-17.8125 -1.25393,-0.28513 -3.03225,-0.76938 -4.25,-1 -5.08912,-0.96378 -9.23092,-0.7261 -14.03125,-1.125 -10.22456,-1.07138 -18.6935,-1.94269 -26.21875,-4.3125 -3.06826,-1.19028 -5.25103,-4.84124 -6.31255,-6.34375 l -5.90625,-1.71875 c 3.06226,-22.15442 2.23655,-45.21134 -3.0625,-68.28125 -5.34839,-23.28471 -14.80037,-44.58084 -27.40625,-63.34375 1.51505,-1.37729 4.37619,-3.91091 5.1875,-4.65625 0.23716,-2.62417 0.0334,-5.37553 2.75,-8.28125 5.75134,-5.40069 13.00329,-9.87898 21.75,-15.28125 4.15167,-2.44252 7.98954,-4.01698 12.15625,-7.09375 0.94225,-0.69576 2.2289,-1.79759 3.21875,-2.59375 7.01538,-5.59633 8.63058,-15.24842 3.59375,-21.5625 -5.03683,-6.31408 -14.79712,-6.90883 -21.8125,-1.3125 -0.99856,0.79085 -2.35353,1.82252 -3.25,2.59375 -3.9265,3.37796 -6.35145,6.71439 -9.65625,10.21875 -7.21249,7.32595 -13.17407,13.43777 -19.71875,17.84375 -2.83601,1.65106 -6.98996,1.07978 -8.87505,0.96875 l -5.5625,3.96875 c -31.7188,-33.26057 -74.90466,-54.52546 -121.40605,-58.6563 -0.13006,-1.94872 -0.30045,-5.47117 -0.34375,-6.53125 -1.90371,-1.82165 -4.20342,-3.37686 -4.78125,-7.3125 -0.63617,-7.86389 0.42597,-16.32459 1.65625,-26.53125 0.6791,-4.76876 1.80738,-8.73025 2,-13.90625 0.0438,-1.17663 -0.0265,-2.88401 -0.0312,-4.15625 -9.6e-4,-8.97408 -6.54804,-16.25081 -14.625,-16.24999 z m -18.3125,113.43749 -4.34375,76.71875 -0.3125,0.15625 c -0.29134,6.86335 -5.93996,12.34375 -12.875,12.34375 -2.84081,0 -5.46294,-0.91229 -7.59375,-2.46875 l -0.125,0.0625 -62.90625,-44.59375 c 19.33365,-19.01115 44.06291,-33.06039 72.5625,-39.53125 5.20599,-1.18203 10.40966,-2.0591 15.59375,-2.6875 z m 36.65625,0 c 33.27347,4.09232 64.04501,19.15882 87.625,42.25 l -62.5,44.3125 -0.21875,-0.0937 c -5.54745,4.05169 -13.36343,3.04639 -17.6875,-2.375 -1.77132,-2.22096 -2.70072,-4.83239 -2.8125,-7.46875 l -0.0625,-0.0312 z m -147.625,70.875 57.4375,51.375 -0.0625,0.3125 c 5.18437,4.50697 5.94888,12.32794 1.625,17.75 -1.7712,2.22105 -4.14208,3.71074 -6.6875,4.40625 l -0.0625,0.25 -73.625,21.25 c -3.74728,-34.26517 4.32855,-67.57364 21.375,-95.34375 z m 258.15625,0.0312 c 8.5341,13.83256 14.99655,29.28214 18.84375,46.03125 3.80106,16.54828 4.75499,33.06697 3.1875,49.03125 l -74,-21.3125 -0.0625,-0.3125 c -6.6265,-1.81104 -10.69893,-8.55162 -9.15625,-15.3125 0.63203,-2.76962 2.10222,-5.11264 4.09375,-6.84375 l -0.0312,-0.15625 57.125,-51.125 z m -140.65625,55.3125 h 23.53125 l 14.625,18.28125 -5.25,22.8125 -21.125,10.15625 -21.1875,-10.1875 -5.25,-22.8125 z m 75.4375,62.5625 c 0.99997,-0.0505 1.99558,0.0396 2.96875,0.21875 l 0.125,-0.15625 76.15625,12.875 c -11.1455,31.3131 -32.47281,58.44018 -60.96875,76.59375 l -29.5625,-71.40625 0.0937,-0.125 c -2.71561,-6.30999 0.002,-13.70956 6.25,-16.71875 1.59965,-0.77041 3.27089,-1.19701 4.9375,-1.28125 z m -127.90625,0.3125 c 5.81174,0.0815 11.02462,4.11525 12.375,10.03125 0.63219,2.76958 0.3245,5.51375 -0.71875,7.9375 l 0.21875,0.28125 -29.25,70.6875 c -27.34716,-17.5486 -49.12927,-43.82403 -60.78125,-76.06245 l 75.5,-12.8125 0.125,0.15625 c 0.84451,-0.15541 1.701,-0.2304 2.53125,-0.21875 z m 63.78125,30.9688 c 2.02445,-0.0744 4.07865,0.34098 6.03125,1.28125 2.55951,1.23253 4.53673,3.17319 5.78125,5.5 h 0.28125 l 37.21875,67.25 c -4.83029,1.61923 -9.79609,3.00308 -14.875,4.15625 -28.46453,6.4629 -56.83862,4.50467 -82.53125,-4.25 l 37.125,-67.125 h 0.0625 c 2.22767,-4.16441 6.45247,-6.64887 10.90625,-6.8125 z"
         id="path3059"
         inkscape:connector-curvature="0" />
    </g>
    <g
       id="g3747"
       transform="matrix(1.4685838,0,0,1.4685838,-1032.0259,-21.325953)">
      <path
         id="path2985"
         style="font-style:normal;font-variant:normal;font-weight:bold;font-stretch:normal;font-size:135px;line-height:125%;font-family:Ubuntu;-inkscape-font-specification:'Ubuntu Bold';letter-spacing:0px;word-spacing:0px;fill:#ffffff;fill-opacity:1;stroke:none"
         d="m 967.03877,519.51009 c 1.97997,-2.15995 4.00497,-4.40995 6.075,-6.75 2.15997,-2.33995 4.22996,-4.63494 6.21,-6.885 1.97996,-2.33994 3.82496,-4.54494 5.535,-6.615 1.79996,-2.06993 3.32995,-3.86993 4.59,-5.4 h 23.89503 c -4.7701,5.49006 -9.4501,10.75506 -14.04003,15.795 -4.50005,4.95005 -9.45005,10.08004 -14.85,15.39 2.69995,2.43004 5.48995,5.35503 8.37,8.775 2.87995,3.33003 5.66994,6.79502 8.37003,10.395 2.6999,3.60002 5.1749,7.20001 7.425,10.8 2.2499,3.60001 4.1399,6.885 5.67,9.855 h -23.08503 c -1.44005,-2.34 -3.10505,-4.905 -4.995,-7.695 -1.80004,-2.87999 -3.73504,-5.71499 -5.805,-8.505 -2.07004,-2.87998 -4.27503,-5.62498 -6.615,-8.235 -2.25003,-2.60997 -4.50003,-4.81497 -6.75,-6.615 v 31.05 h -20.11499 v -101.52 l 20.11499,-3.24 v 59.4"
         inkscape:connector-curvature="0" />
      <path
         id="path2987"
         style="font-style:normal;font-variant:normal;font-weight:bold;font-stretch:normal;font-size:135px;line-height:125%;font-family:Ubuntu;-inkscape-font-specification:'Ubuntu Bold';letter-spacing:0px;word-spacing:0px;fill:#ffffff;fill-opacity:1;stroke:none"
         d="m 1084.2673,562.44009 c -3.4201,0.99 -7.8301,1.89 -13.23,2.7 -5.4001,0.9 -11.0701,1.35 -17.01,1.35 -6.03,0 -11.07,-0.81 -15.12,-2.43 -3.96,-1.62 -7.11,-3.87 -9.45,-6.75 -2.34,-2.96999 -4.005,-6.47999 -4.995,-10.53 -0.99,-4.04998 -1.485,-8.50497 -1.485,-13.365 v -39.555 h 20.115 v 37.125 c 0,6.48003 0.855,11.16002 2.565,14.04 1.71,2.88002 4.905,4.32001 9.585,4.32 1.4399,10e-6 2.9699,-0.045 4.59,-0.135 1.6199,-0.17999 3.0599,-0.35999 4.32,-0.54 v -54.81 h 20.115 v 68.58"
         inkscape:connector-curvature="0" />
      <path
         id="path2989"
         style="font-style:normal;font-variant:normal;font-weight:bold;font-stretch:normal;font-size:135px;line-height:125%;font-family:Ubuntu;-inkscape-font-specification:'Ubuntu Bold';letter-spacing:0px;word-spacing:0px;fill:#ffffff;fill-opacity:1;stroke:none"
         d="m 1148.7762,528.82509 c -10e-5,-12.95995 -4.7701,-19.43995 -14.31,-19.44 -2.07,5e-5 -4.14,0.27005 -6.21,0.81 -1.98,0.54005 -3.6,1.21505 -4.86,2.025 v 36.585 c 0.99,0.18001 2.25,0.36001 3.78,0.54 1.53,0.09 3.195,0.13501 4.995,0.135 5.49,10e-6 9.6299,-1.88998 12.42,-5.67 2.7899,-3.77998 4.1849,-8.77497 4.185,-14.985 m 20.52,0.54 c -10e-5,5.67003 -0.8551,10.80002 -2.565,15.39 -1.6201,4.59001 -4.0051,8.50501 -7.155,11.745 -3.1501,3.24 -7.0201,5.76 -11.61,7.56 -4.5901,1.71 -9.81,2.565 -15.66,2.565 -2.43,0 -4.995,-0.135 -7.695,-0.405 -2.61,-0.18 -5.22,-0.45 -7.83,-0.81 -2.52,-0.36 -4.95,-0.765 -7.29,-1.215 -2.34,-0.54 -4.41,-1.08 -6.21,-1.62 v -99.225 l 20.115,-3.24 v 35.37 c 2.25,-0.98993 4.59,-1.75493 7.02,-2.295 2.43,-0.53993 5.04,-0.80993 7.83,-0.81 5.0399,7e-5 9.4949,0.90007 13.365,2.7 3.8699,1.71007 7.1099,4.18506 9.72,7.425 2.6099,3.24006 4.5899,7.15505 5.94,11.745 1.3499,4.50004 2.0249,9.54004 2.025,15.12"
         inkscape:connector-curvature="0" />
      <path
         id="path2991"
         style="font-style:normal;font-variant:normal;font-weight:bold;font-stretch:normal;font-size:135px;line-height:125%;font-family:Ubuntu;-inkscape-font-specification:'Ubuntu Bold';letter-spacing:0px;word-spacing:0px;fill:#ffffff;fill-opacity:1;stroke:none"
         d="m 1181.3808,529.90509 c 0,-6.29996 0.945,-11.78995 2.835,-16.47 1.98,-4.76994 4.545,-8.72994 7.695,-11.88 3.15,-3.14993 6.75,-5.53493 10.8,-7.155 4.14,-1.61993 8.37,-2.42993 12.69,-2.43 10.08,7e-5 18.0449,3.10507 23.895,9.315 5.8499,6.12006 8.7749,15.16505 8.775,27.135 -10e-5,1.17003 -0.045,2.47503 -0.135,3.915 -0.09,1.35003 -0.1801,2.56503 -0.27,3.645 h -45.63 c 0.45,4.14002 2.385,7.42502 5.805,9.855 3.42,2.43002 8.01,3.64501 13.77,3.645 3.69,10e-6 7.29,-0.31499 10.8,-0.945 3.5999,-0.71998 6.5249,-1.57498 8.775,-2.565 l 2.7,16.335 c -1.0801,0.54 -2.5201,1.08 -4.32,1.62 -1.8001,0.54 -3.8251,0.99 -6.075,1.35 -2.16,0.45 -4.5,0.81 -7.02,1.08 -2.52,0.27 -5.04,0.405 -7.56,0.405 -6.39,0 -11.97,-0.945 -16.74,-2.835 -4.68,-1.89 -8.595,-4.455 -11.745,-7.695 -3.06,-3.32999 -5.355,-7.24499 -6.885,-11.745 -1.44,-4.49998 -2.16,-9.35997 -2.16,-14.58 m 47.25,-7.695 c -0.09,-1.70996 -0.405,-3.37496 -0.945,-4.995 -0.45,-1.61995 -1.215,-3.05995 -2.295,-4.32 -0.99,-1.25995 -2.295,-2.29495 -3.915,-3.105 -1.53,-0.80995 -3.465,-1.21494 -5.805,-1.215 -2.25,6e-5 -4.185,0.40505 -5.805,1.215 -1.62,0.72005 -2.97,1.71005 -4.05,2.97 -1.08,1.26005 -1.935,2.74505 -2.565,4.455 -0.54,1.62004 -0.945,3.28504 -1.215,4.995 h 26.595"
         inkscape:connector-curvature="0" />
      <path
         id="path2993"
         style="font-style:normal;font-variant:normal;font-weight:bold;font-stretch:normal;font-size:135px;line-height:125%;font-family:Ubuntu;-inkscape-font-specification:'Ubuntu Bold';letter-spacing:0px;word-spacing:0px;fill:#ffffff;fill-opacity:1;stroke:none"
         d="m 1306.3887,511.68009 c -1.8001,-0.44995 -3.9151,-0.89995 -6.345,-1.35 -2.43,-0.53995 -5.04,-0.80995 -7.83,-0.81 -1.26,5e-5 -2.79,0.13505 -4.59,0.405 -1.71,0.18005 -3.015,0.40505 -3.915,0.675 v 54.27 h -20.115 v -67.23 c 3.6,-1.25993 7.83,-2.42993 12.69,-3.51 4.95,-1.16993 10.44,-1.75493 16.47,-1.755 1.08,7e-5 2.385,0.0901 3.915,0.27 1.53,0.0901 3.06,0.27007 4.59,0.54 1.5299,0.18007 3.0599,0.45007 4.59,0.81 1.5299,0.27007 2.8349,0.63007 3.915,1.08 l -3.375,16.605"
         inkscape:connector-curvature="0" />
      <path
         id="path2995"
         style="font-style:normal;font-variant:normal;font-weight:bold;font-stretch:normal;font-size:135px;line-height:125%;font-family:Ubuntu;-inkscape-font-specification:'Ubuntu Bold';letter-spacing:0px;word-spacing:0px;fill:#ffffff;fill-opacity:1;stroke:none"
         d="m 1320.5468,496.29009 c 3.42,-0.98993 7.83,-1.88993 13.23,-2.7 5.4,-0.89993 11.07,-1.34993 17.01,-1.35 6.03,7e-5 11.025,0.81007 14.985,2.43 4.05,1.53007 7.245,3.73507 9.585,6.615 2.34,2.88006 4.005,6.30006 4.995,10.26 0.99,3.96005 1.485,8.37004 1.485,13.23 v 40.095 h -20.115 v -37.665 c 0,-6.47996 -0.855,-11.06995 -2.565,-13.77 -1.71,-2.69995 -4.905,-4.04995 -9.585,-4.05 -1.44,5e-5 -2.97,0.0901 -4.59,0.27 -1.62,0.09 -3.06,0.22505 -4.32,0.405 v 54.81 h -20.115 v -68.58"
         inkscape:connector-curvature="0" />
      <path
         id="path2997"
         style="font-style:normal;font-variant:normal;font-weight:bold;font-stretch:normal;font-size:135px;line-height:125%;font-family:Ubuntu;-inkscape-font-specification:'Ubuntu Bold';letter-spacing:0px;word-spacing:0px;fill:#ffffff;fill-opacity:1;stroke:none"
         d="m 1396.8007,529.90509 c 0,-6.29996 0.945,-11.78995 2.835,-16.47 1.98,-4.76994 4.545,-8.72994 7.695,-11.88 3.15,-3.14993 6.75,-5.53493 10.8,-7.155 4.14,-1.61993 8.37,-2.42993 12.69,-2.43 10.08,7e-5 18.045,3.10507 23.895,9.315 5.85,6.12006 8.775,15.16505 8.775,27.135 0,1.17003 -0.045,2.47503 -0.135,3.915 -0.09,1.35003 -0.18,2.56503 -0.27,3.645 h -45.63 c 0.45,4.14002 2.385,7.42502 5.805,9.855 3.42,2.43002 8.01,3.64501 13.77,3.645 3.69,10e-6 7.29,-0.31499 10.8,-0.945 3.6,-0.71998 6.525,-1.57498 8.775,-2.565 l 2.7,16.335 c -1.08,0.54 -2.52,1.08 -4.32,1.62 -1.8,0.54 -3.825,0.99 -6.075,1.35 -2.16,0.45 -4.5,0.81 -7.02,1.08 -2.52,0.27 -5.04,0.405 -7.56,0.405 -6.39,0 -11.97,-0.945 -16.74,-2.835 -4.68,-1.89 -8.595,-4.455 -11.745,-7.695 -3.06,-3.32999 -5.355,-7.24499 -6.885,-11.745 -1.44,-4.49998 -2.16,-9.35997 -2.16,-14.58 m 47.25,-7.695 c -0.09,-1.70996 -0.405,-3.37496 -0.945,-4.995 -0.45,-1.61995 -1.215,-3.05995 -2.295,-4.32 -0.99,-1.25995 -2.295,-2.29495 -3.915,-3.105 -1.53,-0.80995 -3.465,-1.21494 -5.805,-1.215 -2.25,6e-5 -4.185,0.40505 -5.805,1.215 -1.62,0.72005 -2.97,1.71005 -4.05,2.97 -1.08,1.26005 -1.935,2.74505 -2.565,4.455 -0.54,1.62004 -0.945,3.28504 -1.215,4.995 h 26.595"
         inkscape:connector-curvature="0" />
      <path
         id="path2999"
         style="font-style:normal;font-variant:normal;font-weight:bold;font-stretch:normal;font-size:135px;line-height:125%;font-family:Ubuntu;-inkscape-font-specification:'Ubuntu Bold';letter-spacing:0px;word-spacing:0px;fill:#ffffff;fill-opacity:1;stroke:none"
         d="m 1478.3386,476.17509 20.115,-3.24 v 20.925 h 24.165 v 16.74 h -24.165 v 24.975 c 0,4.23002 0.72,7.60502 2.16,10.125 1.53,2.52002 4.545,3.78001 9.045,3.78 2.16,10e-6 4.365,-0.17999 6.615,-0.54 2.34,-0.44998 4.455,-1.03498 6.345,-1.755 l 2.835,15.66 c -2.43,0.99 -5.13,1.845 -8.1,2.565 -2.97,0.72 -6.615,1.08 -10.935,1.08 -5.49,0 -10.035,-0.72 -13.635,-2.16 -3.6,-1.53 -6.48,-3.6 -8.64,-6.21 -2.16,-2.69999 -3.69,-5.93999 -4.59,-9.72 -0.81,-3.77998 -1.215,-7.96498 -1.215,-12.555 v -59.67"
         inkscape:connector-curvature="0" />
      <path
         id="path3001"
         style="font-style:normal;font-variant:normal;font-weight:bold;font-stretch:normal;font-size:135px;line-height:125%;font-family:Ubuntu;-inkscape-font-specification:'Ubuntu Bold';letter-spacing:0px;word-spacing:0px;fill:#ffffff;fill-opacity:1;stroke:none"
         d="m 1532.8554,529.90509 c 0,-6.29996 0.945,-11.78995 2.835,-16.47 1.98,-4.76994 4.545,-8.72994 7.695,-11.88 3.15,-3.14993 6.75,-5.53493 10.8,-7.155 4.14,-1.61993 8.37,-2.42993 12.69,-2.43 10.08,7e-5 18.045,3.10507 23.895,9.315 5.8499,6.12006 8.7749,15.16505 8.775,27.135 -10e-5,1.17003 -0.045,2.47503 -0.135,3.915 -0.09,1.35003 -0.1801,2.56503 -0.27,3.645 h -45.63 c 0.45,4.14002 2.385,7.42502 5.805,9.855 3.42,2.43002 8.01,3.64501 13.77,3.645 3.69,10e-6 7.29,-0.31499 10.8,-0.945 3.6,-0.71998 6.525,-1.57498 8.775,-2.565 l 2.7,16.335 c -1.0801,0.54 -2.52,1.08 -4.32,1.62 -1.8,0.54 -3.825,0.99 -6.075,1.35 -2.16,0.45 -4.5,0.81 -7.02,1.08 -2.52,0.27 -5.04,0.405 -7.56,0.405 -6.39,0 -11.97,-0.945 -16.74,-2.835 -4.68,-1.89 -8.595,-4.455 -11.745,-7.695 -3.06,-3.32999 -5.355,-7.24499 -6.885,-11.745 -1.44,-4.49998 -2.16,-9.35997 -2.16,-14.58 m 47.25,-7.695 c -0.09,-1.70996 -0.405,-3.37496 -0.945,-4.995 -0.45,-1.61995 -1.215,-3.05995 -2.295,-4.32 -0.99,-1.25995 -2.295,-2.29495 -3.915,-3.105 -1.53,-0.80995 -3.465,-1.21494 -5.805,-1.215 -2.25,6e-5 -4.185,0.40505 -5.805,1.215 -1.62,0.72005 -2.97,1.71005 -4.05,2.97 -1.08,1.26005 -1.935,2.74505 -2.565,4.455 -0.54,1.62004 -0.945,3.28504 -1.215,4.995 h 26.595"
         inkscape:connector-curvature="0" />
      <path
         id="path3003"
         style="font-style:normal;font-variant:normal;font-weight:bold;font-stretch:normal;font-size:135px;line-height:125%;font-family:Ubuntu;-inkscape-font-specification:'Ubuntu Bold';letter-spacing:0px;word-spacing:0px;fill:#ffffff;fill-opacity:1;stroke:none"
         d="m 1635.4533,550.42509 c 3.69,1e-5 6.3,-0.35999 7.83,-1.08 1.53,-0.71998 2.295,-2.11498 2.295,-4.185 0,-1.61998 -0.99,-3.01498 -2.97,-4.185 -1.98,-1.25998 -4.995,-2.65497 -9.045,-4.185 -3.15,-1.16997 -6.03,-2.38497 -8.64,-3.645 -2.52,-1.25997 -4.68,-2.74497 -6.48,-4.455 -1.8,-1.79996 -3.195,-3.91496 -4.185,-6.345 -0.99,-2.42996 -1.485,-5.35495 -1.485,-8.775 0,-6.65994 2.475,-11.92494 7.425,-15.795 4.95,-3.86993 11.745,-5.80493 20.385,-5.805 4.32,7e-5 8.46,0.40507 12.42,1.215 3.96,0.72007 7.11,1.53007 9.45,2.43 l -3.51,15.66 c -2.34,-0.80995 -4.905,-1.52995 -7.695,-2.16 -2.7,-0.62994 -5.76,-0.94494 -9.18,-0.945 -6.3,6e-5 -9.45,1.75505 -9.45,5.265 0,0.81005 0.135,1.53005 0.405,2.16 0.27,0.63005 0.81,1.26005 1.62,1.89 0.81,0.54005 1.89,1.17005 3.24,1.89 1.44,0.63004 3.24,1.35004 5.4,2.16 4.41,1.62004 8.055,3.24004 10.935,4.86 2.88,1.53004 5.13,3.24003 6.75,5.13 1.71,1.80003 2.8799,3.82503 3.51,6.075 0.7199,2.25002 1.0799,4.86002 1.08,7.83 -10e-5,7.02001 -2.6551,12.33001 -7.965,15.93 -5.22,3.6 -12.645,5.4 -22.275,5.4 -6.3,0 -11.565,-0.54 -15.795,-1.62 -4.14,-1.08 -7.02,-1.98 -8.64,-2.7 l 3.375,-16.335 c 3.42,1.35002 6.93,2.43002 10.53,3.24 3.6,0.72001 7.155,1.08001 10.665,1.08"
         inkscape:connector-curvature="0" />
    </g>
  </g>
</svg>
