<svg clip-rule="evenodd" fill-rule="evenodd" stroke-linejoin="round" stroke-miterlimit="1.41421" viewBox="0 0 560 400" xmlns="http://www.w3.org/2000/svg" xmlns:xlink="http://www.w3.org/1999/xlink"><linearGradient id="a" gradientTransform="matrix(-60 139.992 -139.992 -60 160.01 40.008)" gradientUnits="userSpaceOnUse" x1="0" x2="1" y1="0" y2="0"><stop offset="0" stop-color="#37aee2"/><stop offset="1" stop-color="#1e96c8"/></linearGradient><g transform="matrix(1.25 0 0 1.25 130 50)"><circle cx="120" cy="120" fill="url(#a)" r="120"/><path d="m44.691 125.87c14.028-7.727 29.687-14.176 44.318-20.658 25.171-10.617 50.442-21.05 75.968-30.763 4.966-1.655 13.89-3.273 14.765 4.087-.479 10.418-2.45 20.775-3.802 31.132-3.431 22.776-7.398 45.474-11.265 68.175-1.333 7.561-10.805 11.476-16.866 6.637-14.566-9.839-29.244-19.582-43.624-29.649-4.711-4.787-.342-11.66 3.864-15.078 11.997-11.824 24.72-21.868 36.09-34.302 3.067-7.407-5.995-1.165-8.984.748-16.424 11.318-32.446 23.327-49.762 33.274-8.845 4.869-19.154.708-27.995-2.009-7.927-3.282-19.543-6.589-12.708-11.593z" fill="#fff" fill-rule="nonzero"/></g></svg>