<?xml version="1.0" encoding="UTF-8" standalone="no"?>
<svg
   xmlns:dc="http://purl.org/dc/elements/1.1/"
   xmlns:cc="http://creativecommons.org/ns#"
   xmlns:rdf="http://www.w3.org/1999/02/22-rdf-syntax-ns#"
   xmlns:svg="http://www.w3.org/2000/svg"
   xmlns="http://www.w3.org/2000/svg"
   xmlns:sodipodi="http://sodipodi.sourceforge.net/DTD/sodipodi-0.dtd"
   xmlns:inkscape="http://www.inkscape.org/namespaces/inkscape"
   viewBox="0 0 1193 351"
   version="1.1"
   id="svg3148"
   sodipodi:docname="eap-logo.svg"
   inkscape:version="0.92.4 (unknown)">
  <metadata
     id="metadata3152">
    <rdf:RDF>
      <cc:Work
         rdf:about="">
        <dc:format>image/svg+xml</dc:format>
        <dc:type
           rdf:resource="http://purl.org/dc/dcmitype/StillImage" />
        <dc:title>Logo-Red_Hat-JBoss_Enterprise_Application_Platform-B-Standard-RGB</dc:title>
      </cc:Work>
    </rdf:RDF>
  </metadata>
  <sodipodi:namedview
     pagecolor="#ffffff"
     bordercolor="#666666"
     borderopacity="1"
     objecttolerance="10"
     gridtolerance="10"
     guidetolerance="10"
     inkscape:pageopacity="0"
     inkscape:pageshadow="2"
     inkscape:window-width="1830"
     inkscape:window-height="1051"
     id="namedview3150"
     showgrid="false"
     inkscape:pagecheckerboard="true"
     inkscape:zoom="0.27158424"
     inkscape:cx="596.5"
     inkscape:cy="175.5"
     inkscape:window-x="82"
     inkscape:window-y="0"
     inkscape:window-maximized="1"
     inkscape:current-layer="svg3148" />
  <defs
     id="defs3070">
    <style
       id="style3068">.a{fill:#e00;}</style>
  </defs>
  <title
     id="title3072">Logo-Red_Hat-JBoss_Enterprise_Application_Platform-B-Standard-RGB</title>
  <path
     d="M250.7,220.68c-13.42,0-23.4-7.18-27.66-19.76L233,197c3.43,9.15,9.15,13.73,17.78,13.73,10.61,0,17.69-7.6,17.69-19.14V146.73h10.92v45C279.41,209.34,268.07,220.68,250.7,220.68Z"
     id="path3074"
     style="fill:#ffffff;fill-opacity:1" />
  <path
     d="M324.33,146.73c14.46,0,23.61,7.8,23.61,19.25,0,7-3.85,12.58-10.09,15.7,7.91,3,12.9,9.26,12.9,17.16,0,12.17-9.57,20.7-25.07,20.7H292.82V146.73ZM303.74,156v21.63h20c8.42,0,13.41-4.36,13.41-10.81s-5-10.82-13.41-10.82Zm36,42.33c0-7.07-5.61-12-14.87-12H303.74v23.92h21.11C334.11,210.28,339.72,205.39,339.72,198.32Z"
     id="path3076"
     style="fill:#ffffff;fill-opacity:1" />
  <path
     d="M386.52,165.56A27.51,27.51,0,1,1,359,193,27.17,27.17,0,0,1,386.52,165.56Zm0,9.15c-9.67,0-17.37,8-17.37,18.31s7.6,18.4,17.37,18.4,17.37-8.11,17.37-18.4S396.2,174.71,386.52,174.71Z"
     id="path3078"
     style="fill:#ffffff;fill-opacity:1" />
  <path
     d="M425,205.81a27.22,27.22,0,0,0,17.26,6.65c8.32,0,12.69-3.64,12.69-7.9,0-3.74-2.6-5.93-8.53-6.76l-9.56-1.35c-10.4-1.46-15.81-6.45-15.81-14.67,0-9.67,8.53-16,20.7-16a36.37,36.37,0,0,1,21.32,6.76l-5.31,6.86c-5.1-3.43-10.4-5.51-16.74-5.51-6.14,0-10.61,2.7-10.61,7.18,0,3.95,2.5,5.72,8.74,6.65l9.56,1.35c10.72,1.56,16,6.66,16,14.77,0,9.57-9.57,16.64-22.15,16.64-8.84,0-17.16-2.6-23.2-7.8Z"
     id="path3080"
     style="fill:#ffffff;fill-opacity:1" />
  <path
     d="M474,205.81a27.27,27.27,0,0,0,17.27,6.65c8.32,0,12.69-3.64,12.69-7.9,0-3.74-2.6-5.93-8.53-6.76l-9.57-1.35C475.44,195,470,190,470,181.78c0-9.67,8.53-16,20.7-16a36.37,36.37,0,0,1,21.32,6.76l-5.3,6.86c-5.1-3.43-10.41-5.51-16.75-5.51-6.14,0-10.61,2.7-10.61,7.18,0,3.95,2.5,5.72,8.74,6.65l9.57,1.35c10.71,1.56,16,6.66,16,14.77,0,9.57-9.56,16.64-22.15,16.64-8.84,0-17.16-2.6-23.19-7.8Z"
     id="path3082"
     style="fill:#ffffff;fill-opacity:1" />
  <path
     d="M544.7,146.73h53.67v9.57H555.62v21.84H583.7v9.36H555.62V210h43.17v9.57H544.7Z"
     id="path3084"
     style="fill:#ffffff;fill-opacity:1" />
  <path
     d="M608.66,166.6h10.4v5.3A21.64,21.64,0,0,1,635,165.56c12.16,0,20.59,8.53,20.59,20.7v33.28h-10.3V188c0-8.21-5-13.41-13.21-13.41a14.91,14.91,0,0,0-13,6.86v38.07h-10.4Z"
     id="path3086"
     style="fill:#ffffff;fill-opacity:1" />
  <path
     d="M672.52,175.34H661.29V166.6h11.23V153.08l10.29-2.5v16h15.6v8.74h-15.6V204c0,5.41,2.19,7.38,7.8,7.38a20.23,20.23,0,0,0,7.6-1.24v8.73a35.56,35.56,0,0,1-9.88,1.56c-10.3,0-15.81-4.88-15.81-14Z"
     id="path3088"
     style="fill:#ffffff;fill-opacity:1" />
  <path
     d="M729.09,165.77c14.57,0,25.59,12.06,25.59,27.66v3H712.87a17.86,17.86,0,0,0,17.89,15.18A20.62,20.62,0,0,0,744.18,207l6.65,6.55a31.19,31.19,0,0,1-20.49,7c-15.6,0-27.77-12-27.77-27.45C702.57,177.83,714.12,165.77,729.09,165.77ZM713,188.65h31.41c-1.45-8.11-7.8-14.15-15.49-14.15C720.77,174.5,714.53,180.33,713,188.65Z"
     id="path3090"
     style="fill:#ffffff;fill-opacity:1" />
  <path
     d="M764.45,166.6h10.4v6.55a17,17,0,0,1,14.46-7.69,15.17,15.17,0,0,1,5.41.83v9.36a18.36,18.36,0,0,0-6.24-1.15c-5.51,0-10.71,2.71-13.63,9.57v35.47h-10.4Z"
     id="path3092"
     style="fill:#ffffff;fill-opacity:1" />
  <path
     d="M803.14,166.6h10.3v5a25,25,0,0,1,16.22-5.82c15.08,0,26.73,12.06,26.73,27.25s-11.65,27.35-27,27.35a26.18,26.18,0,0,1-15.81-5.2v25.9h-10.4Zm10.4,14.46v24.12a19.69,19.69,0,0,0,14.67,6.14c10.29,0,18-7.9,18-18.2,0-10.5-7.91-18.3-18-18.3C822.07,174.82,817,177.1,813.54,181.06Z"
     id="path3094"
     style="fill:#ffffff;fill-opacity:1" />
  <path
     d="M866.16,166.6h10.4v6.55A17,17,0,0,1,891,165.46a15.17,15.17,0,0,1,5.41.83v9.36a18.41,18.41,0,0,0-6.24-1.15c-5.51,0-10.71,2.71-13.63,9.57v35.47h-10.4Z"
     id="path3096"
     style="fill:#ffffff;fill-opacity:1" />
  <path
     d="M903.6,151.62a6.49,6.49,0,0,1,6.45-6.45,6.45,6.45,0,0,1,0,12.9A6.49,6.49,0,0,1,903.6,151.62Zm11.65,67.92h-10.4V166.6h10.4Z"
     id="path3098"
     style="fill:#ffffff;fill-opacity:1" />
  <path
     d="M928,205.81a27.25,27.25,0,0,0,17.27,6.65c8.32,0,12.69-3.64,12.69-7.9,0-3.74-2.6-5.93-8.53-6.76l-9.57-1.35c-10.4-1.46-15.81-6.45-15.81-14.67,0-9.67,8.53-16,20.7-16a36.37,36.37,0,0,1,21.32,6.76l-5.31,6.86c-5.09-3.43-10.4-5.51-16.74-5.51-6.14,0-10.61,2.7-10.61,7.18,0,3.95,2.5,5.72,8.74,6.65l9.56,1.35c10.72,1.56,16,6.66,16,14.77,0,9.57-9.57,16.64-22.15,16.64-8.84,0-17.16-2.6-23.19-7.8Z"
     id="path3100"
     style="fill:#ffffff;fill-opacity:1" />
  <path
     d="M1000.43,165.77c14.56,0,25.58,12.06,25.58,27.66v3H984.2a17.86,17.86,0,0,0,17.89,15.18,20.62,20.62,0,0,0,13.42-4.68l6.65,6.55a31.19,31.19,0,0,1-20.49,7c-15.6,0-27.76-12-27.76-27.45C973.91,177.83,985.45,165.77,1000.43,165.77Zm-16.12,22.88h31.4c-1.45-8.11-7.8-14.15-15.49-14.15C992.11,174.5,985.87,180.33,984.31,188.65Z"
     id="path3102"
     style="fill:#ffffff;fill-opacity:1" />
  <path
     d="M251.53,254.73h12.8l29.74,72.81H282.21l-8.42-21.32H241.24l-8.53,21.32H221.37Zm18.72,42.44-12.68-31.93-12.69,31.93Z"
     id="path3104"
     style="fill:#ffffff;fill-opacity:1" />
  <path
     d="M300.2,274.6h10.3v5a25,25,0,0,1,16.22-5.82c15.08,0,26.73,12.06,26.73,27.25s-11.65,27.35-27,27.35a26.2,26.2,0,0,1-15.81-5.2v25.9H300.2Zm10.4,14.46v24.12a19.69,19.69,0,0,0,14.67,6.14c10.29,0,18-7.9,18-18.2,0-10.5-7.9-18.3-18-18.3C319.13,282.82,314,285.1,310.6,289.06Z"
     id="path3106"
     style="fill:#ffffff;fill-opacity:1" />
  <path
     d="M363.23,274.6h10.29v5a25,25,0,0,1,16.23-5.82c15.08,0,26.73,12.06,26.73,27.25s-11.65,27.35-27.05,27.35a26.17,26.17,0,0,1-15.8-5.2v25.9h-10.4Zm10.4,14.46v24.12a19.65,19.65,0,0,0,14.66,6.14c10.3,0,18-7.9,18-18.2,0-10.5-7.9-18.3-18-18.3C382.15,282.82,377.06,285.1,373.63,289.06Z"
     id="path3108"
     style="fill:#ffffff;fill-opacity:1" />
  <path
     d="M436.65,327.54h-10.4V254.73l10.4-2.28Z"
     id="path3110"
     style="fill:#ffffff;fill-opacity:1" />
  <path
     d="M447.46,259.62a6.49,6.49,0,0,1,6.45-6.45,6.45,6.45,0,0,1,0,12.9A6.48,6.48,0,0,1,447.46,259.62Zm11.65,67.92h-10.4V274.6h10.4Z"
     id="path3112"
     style="fill:#ffffff;fill-opacity:1" />
  <path
     d="M510.8,312.87l6.24,6.76a29.26,29.26,0,0,1-20.91,8.84,27.46,27.46,0,0,1,0-54.91,30.34,30.34,0,0,1,21.33,8.84l-6.56,7.07a19.65,19.65,0,0,0-14.56-6.65c-9.67,0-17.16,8-17.16,18.2,0,10.4,7.59,18.3,17.37,18.3C502,319.32,506.64,317.14,510.8,312.87Z"
     id="path3114"
     style="fill:#ffffff;fill-opacity:1" />
  <path
     d="M522.86,312.35c0-10.61,9-16.12,21.42-16.12a36.63,36.63,0,0,1,14.46,2.91v-5.61c0-7.49-4.47-11.23-12.9-11.23-5.09,0-10.29,1.56-16.43,4.47l-3.85-7.8c7.49-3.54,14.36-5.41,21.74-5.41,13.62,0,21.63,6.66,21.63,18.93v35.05H558.74V323c-4.58,3.75-10,5.51-16.43,5.51C530.76,328.47,522.86,321.82,522.86,312.35Zm21.84,8.43a20.34,20.34,0,0,0,14-5v-9.25a27.78,27.78,0,0,0-13.62-3.12c-7.28,0-12.28,3.22-12.28,8.73C532.84,317.34,537.73,320.78,544.7,320.78Z"
     id="path3116"
     style="fill:#ffffff;fill-opacity:1" />
  <path
     d="M585.78,283.34H574.55V274.6h11.23V261.08l10.3-2.5v16h15.6v8.74h-15.6V312c0,5.41,2.18,7.38,7.8,7.38a20.21,20.21,0,0,0,7.59-1.24v8.73a35.44,35.44,0,0,1-9.88,1.56c-10.3,0-15.81-4.88-15.81-14Z"
     id="path3118"
     style="fill:#ffffff;fill-opacity:1" />
  <path
     d="M618,259.62a6.49,6.49,0,0,1,6.45-6.45,6.45,6.45,0,0,1,0,12.9A6.48,6.48,0,0,1,618,259.62Zm11.65,67.92h-10.4V274.6h10.4Z"
     id="path3120"
     style="fill:#ffffff;fill-opacity:1" />
  <path
     d="M667,273.56A27.51,27.51,0,1,1,639.44,301,27.17,27.17,0,0,1,667,273.56Zm0,9.15c-9.67,0-17.37,8-17.37,18.31s7.6,18.4,17.37,18.4,17.37-8.11,17.37-18.4S676.68,282.71,667,282.71Z"
     id="path3122"
     style="fill:#ffffff;fill-opacity:1" />
  <path
     d="M704.23,274.6h10.4v5.3a21.64,21.64,0,0,1,15.92-6.34c12.17,0,20.59,8.53,20.59,20.7v33.28h-10.3V296c0-8.21-5-13.41-13.2-13.41a14.92,14.92,0,0,0-13,6.86v38.07h-10.4Z"
     id="path3124"
     style="fill:#ffffff;fill-opacity:1" />
  <path
     d="M786.29,254.73H820c14.35,0,23.81,9,23.81,21.85,0,12.58-9.46,21.63-23.81,21.63H797.21v29.33H786.29Zm10.92,9.57V289h21.63c8.84,0,13.94-5.09,13.94-12.37s-5.1-12.28-13.94-12.28Z"
     id="path3126"
     style="fill:#ffffff;fill-opacity:1" />
  <path
     d="M864.08,327.54h-10.4V254.73l10.4-2.28Z"
     id="path3128"
     style="fill:#ffffff;fill-opacity:1" />
  <path
     d="M873.54,312.35c0-10.61,9.05-16.12,21.43-16.12a36.59,36.59,0,0,1,14.45,2.91v-5.61c0-7.49-4.47-11.23-12.89-11.23-5.1,0-10.3,1.56-16.44,4.47l-3.84-7.8c7.49-3.54,14.35-5.41,21.73-5.41,13.63,0,21.64,6.66,21.64,18.93v35.05h-10.2V323c-4.57,3.75-10,5.51-16.43,5.51C881.45,328.47,873.54,321.82,873.54,312.35Zm21.84,8.43a20.34,20.34,0,0,0,14-5v-9.25a27.73,27.73,0,0,0-13.62-3.12c-7.28,0-12.27,3.22-12.27,8.73C883.53,317.34,888.41,320.78,895.38,320.78Z"
     id="path3130"
     style="fill:#ffffff;fill-opacity:1" />
  <path
     d="M936.46,283.34H925.23V274.6h11.23V261.08l10.3-2.5v16h15.6v8.74h-15.6V312c0,5.41,2.18,7.38,7.8,7.38a20.18,20.18,0,0,0,7.59-1.24v8.73a35.44,35.44,0,0,1-9.88,1.56c-10.29,0-15.81-4.88-15.81-14Z"
     id="path3132"
     style="fill:#ffffff;fill-opacity:1" />
  <path
     d="M979,274.6v-8c0-10.71,6.13-17.06,18-17.06a29.16,29.16,0,0,1,7.49.94v9a20,20,0,0,0-6.55-.94c-5.83,0-8.64,2.5-8.64,8.22v7.8h15.19v8.74H989.29v44.2H979v-44.2H966.73V274.6Z"
     id="path3134"
     style="fill:#ffffff;fill-opacity:1" />
  <path
     d="M1035.37,273.56A27.51,27.51,0,1,1,1007.8,301,27.16,27.16,0,0,1,1035.37,273.56Zm0,9.15c-9.68,0-17.37,8-17.37,18.31s7.59,18.4,17.37,18.4,17.36-8.11,17.36-18.4S1045,282.71,1035.37,282.71Z"
     id="path3136"
     style="fill:#ffffff;fill-opacity:1" />
  <path
     d="M1072.6,274.6H1083v6.55a17,17,0,0,1,14.45-7.69,15.09,15.09,0,0,1,5.41.83v9.36a18.36,18.36,0,0,0-6.24-1.15c-5.51,0-10.71,2.71-13.62,9.57v35.47h-10.4Z"
     id="path3138"
     style="fill:#ffffff;fill-opacity:1" />
  <path
     d="M1111.28,274.6h10.4v4.89a20.23,20.23,0,0,1,14.77-5.93,18.9,18.9,0,0,1,16.44,8.74c4.26-5.72,10.29-8.74,17.88-8.74,11.65,0,19.77,8.53,19.77,20.7v33.28h-10.3V296c0-8.21-4.58-13.41-12.17-13.41-5.3,0-9.46,2.49-12.38,7.07a21.57,21.57,0,0,1,.42,4.58v33.28h-10.4V296c0-8.21-4.58-13.41-12.06-13.41a13.77,13.77,0,0,0-12,6.34v38.59h-10.4Z"
     id="path3140"
     style="fill:#ffffff;fill-opacity:1" />
  <path
     class="a"
     d="M129,85c12.51,0,30.61-2.58,30.61-17.46a14,14,0,0,0-.31-3.42l-7.45-32.36c-1.72-7.12-3.23-10.35-15.73-16.6C126.39,10.19,105.26,2,99,2c-5.82,0-7.55,7.54-14.45,7.54-6.68,0-11.64-5.6-17.89-5.6-6,0-9.91,4.09-12.93,12.5,0,0-8.41,23.72-9.49,27.16A6.43,6.43,0,0,0,44,45.54C44,54.76,80.33,85,129,85m32.55-11.42c1.73,8.19,1.73,9.05,1.73,10.13,0,14-15.74,21.77-36.43,21.77C80,105.47,39.08,78.1,39.08,60a18.45,18.45,0,0,1,1.51-7.33C23.77,53.52,2,56.54,2,75.72,2,107.2,76.59,146,135.65,146c45.28,0,56.7-20.48,56.7-36.65,0-12.72-11-27.16-30.83-35.78"
     id="path3142" />
  <path
     d="M161.52,73.57c1.73,8.19,1.73,9.05,1.73,10.13,0,14-15.74,21.77-36.43,21.77C80,105.47,39.08,78.1,39.08,60a18.45,18.45,0,0,1,1.51-7.33l3.66-9.06A6.43,6.43,0,0,0,44,45.54C44,54.76,80.33,85,129,85c12.51,0,30.61-2.58,30.61-17.46a14,14,0,0,0-.31-3.42Z"
     id="path3144" />
  <path
     d="M581.24,94.3c0,11.89,7.15,17.67,20.19,17.67a52.11,52.11,0,0,0,11.89-1.68V96.51a24.84,24.84,0,0,1-7.68,1.16c-5.37,0-7.36-1.68-7.36-6.73V69.8h15.56V55.6H598.28v-18l-17,3.68V55.6H570V69.8h11.25Zm-53,.32c0-3.68,3.69-5.47,9.26-5.47a43.12,43.12,0,0,1,10.1,1.26v7.15A21.51,21.51,0,0,1,537,100.19c-5.46,0-8.73-2.1-8.73-5.57m5.2,17.56c6,0,10.84-1.26,15.36-4.31v3.37h16.82V75.58c0-13.56-9.14-21-24.39-21-8.52,0-16.94,2-26,6.1l6.1,12.52c6.52-2.74,12-4.42,16.83-4.42,7,0,10.62,2.73,10.62,8.31v2.73a49.53,49.53,0,0,0-12.62-1.58c-14.31,0-22.93,6-22.93,16.73,0,9.78,7.78,17.24,20.19,17.24m-92.44-.94h18.09V82.42h30.29v28.82h18.09V37.62H489.43V65.91H459.14V37.62H441.05ZM372.12,83.37c0-8,6.31-14.1,14.62-14.1a17.22,17.22,0,0,1,11.78,4.32V93a16.36,16.36,0,0,1-11.78,4.42c-8.2,0-14.62-6.1-14.62-14.09m26.61,27.87h16.83V33.94l-17,3.68V58.55a28.3,28.3,0,0,0-14.2-3.68c-16.19,0-28.92,12.51-28.92,28.5A28.25,28.25,0,0,0,383.8,112a25.12,25.12,0,0,0,14.93-4.83Zm-77.19-42.7c5.36,0,9.88,3.47,11.67,8.83H310c1.68-5.57,5.89-8.83,11.57-8.83M292.83,83.47c0,16.2,13.25,28.82,30.28,28.82,9.36,0,16.2-2.53,23.25-8.42l-11.26-10c-2.63,2.74-6.52,4.21-11.14,4.21a14.39,14.39,0,0,1-13.68-8.83h39.65V85.05c0-17.67-11.88-30.39-28.08-30.39a28.57,28.57,0,0,0-29,28.81M263.49,53.08c6,0,9.36,3.78,9.36,8.31s-3.37,8.31-9.36,8.31H245.61V53.08Zm-36,58.16h18.09V84.42h13.77l13.89,26.82h20.19l-16.2-29.45a22.27,22.27,0,0,0,13.88-20.72c0-13.25-10.41-23.45-26-23.45H227.52Z"
     id="path3146"
     style="fill:#ffffff;fill-opacity:1" />
</svg>
