<?xml version="1.0" encoding="UTF-8" standalone="no"?>
<svg
   xmlns:osb="http://www.openswatchbook.org/uri/2009/osb"
   xmlns:dc="http://purl.org/dc/elements/1.1/"
   xmlns:cc="http://creativecommons.org/ns#"
   xmlns:rdf="http://www.w3.org/1999/02/22-rdf-syntax-ns#"
   xmlns:svg="http://www.w3.org/2000/svg"
   xmlns="http://www.w3.org/2000/svg"
   xmlns:sodipodi="http://sodipodi.sourceforge.net/DTD/sodipodi-0.dtd"
   xmlns:inkscape="http://www.inkscape.org/namespaces/inkscape"
   version="1.0"
   width="250.94991"
   height="123.15402"
   viewBox="0 0 2509.499 1231.5402"
   preserveAspectRatio="xMidYMid meet"
   id="svg30"
   sodipodi:docname="unsupported-blur.svg"
   inkscape:version="0.92.4 (unknown)">
  <metadata
     id="metadata36">
    <rdf:RDF>
      <cc:Work
         rdf:about="">
        <dc:format>image/svg+xml</dc:format>
        <dc:type
           rdf:resource="http://purl.org/dc/dcmitype/StillImage" />
        <dc:title></dc:title>
      </cc:Work>
    </rdf:RDF>
  </metadata>
  <defs
     id="defs34">
    <linearGradient
       id="linearGradient822"
       osb:paint="solid">
      <stop
         style="stop-color:#ff0000;stop-opacity:1;"
         offset="0"
         id="stop820" />
    </linearGradient>
    <filter
       inkscape:collect="always"
       style="color-interpolation-filters:sRGB"
       id="filter1738"
       x="-0.080535622"
       width="1.1610712"
       y="-0.088550777"
       height="1.1771016">
      <feGaussianBlur
         inkscape:collect="always"
         stdDeviation="7.8664941"
         id="feGaussianBlur1740" />
    </filter>
    <filter
       inkscape:collect="always"
       style="color-interpolation-filters:sRGB"
       id="filter1742"
       x="-0.11701299"
       width="1.234026"
       y="-0.15438043"
       height="1.3087609">
      <feGaussianBlur
         inkscape:collect="always"
         stdDeviation="7.8664941"
         id="feGaussianBlur1744" />
    </filter>
    <filter
       inkscape:collect="always"
       style="color-interpolation-filters:sRGB"
       id="filter1746"
       x="-0.12471808"
       width="1.2494362"
       y="-0.098367182"
       height="1.1967344">
      <feGaussianBlur
         inkscape:collect="always"
         stdDeviation="7.8664941"
         id="feGaussianBlur1748" />
    </filter>
    <filter
       inkscape:collect="always"
       style="color-interpolation-filters:sRGB"
       id="filter1750"
       x="-0.13688884"
       width="1.2737777"
       y="-0.15239121"
       height="1.3047824">
      <feGaussianBlur
         inkscape:collect="always"
         stdDeviation="7.8664941"
         id="feGaussianBlur1752" />
    </filter>
    <filter
       inkscape:collect="always"
       style="color-interpolation-filters:sRGB"
       id="filter1754"
       x="-0.13292384"
       width="1.2658477"
       y="-0.14844633"
       height="1.2968927">
      <feGaussianBlur
         inkscape:collect="always"
         stdDeviation="7.8664941"
         id="feGaussianBlur1756" />
    </filter>
    <filter
       inkscape:collect="always"
       style="color-interpolation-filters:sRGB"
       id="filter1758"
       x="-0.10766865"
       width="1.2153373"
       y="-0.098753431"
       height="1.1975069">
      <feGaussianBlur
         inkscape:collect="always"
         stdDeviation="7.8664941"
         id="feGaussianBlur1760" />
    </filter>
    <filter
       inkscape:collect="always"
       style="color-interpolation-filters:sRGB"
       id="filter1762"
       x="-0.10766865"
       width="1.2153373"
       y="-0.098753431"
       height="1.1975069">
      <feGaussianBlur
         inkscape:collect="always"
         stdDeviation="7.8664941"
         id="feGaussianBlur1764" />
    </filter>
    <filter
       inkscape:collect="always"
       style="color-interpolation-filters:sRGB"
       id="filter1766"
       x="-0.15166718"
       width="1.3033344"
       y="-0.13422925"
       height="1.2684585">
      <feGaussianBlur
         inkscape:collect="always"
         stdDeviation="7.8664941"
         id="feGaussianBlur1768" />
    </filter>
    <filter
       inkscape:collect="always"
       style="color-interpolation-filters:sRGB"
       id="filter1770"
       x="-0.12134167"
       width="1.2426833"
       y="-0.14279076"
       height="1.2855815">
      <feGaussianBlur
         inkscape:collect="always"
         stdDeviation="7.8664941"
         id="feGaussianBlur1772" />
    </filter>
    <filter
       inkscape:collect="always"
       style="color-interpolation-filters:sRGB"
       id="filter1774"
       x="-0.12091392"
       width="1.2418278"
       y="-0.11122545"
       height="1.2224509">
      <feGaussianBlur
         inkscape:collect="always"
         stdDeviation="7.8664941"
         id="feGaussianBlur1776" />
    </filter>
    <filter
       inkscape:collect="always"
       style="color-interpolation-filters:sRGB"
       id="filter1778"
       x="-0.15166715"
       width="1.3033343"
       y="-0.13422925"
       height="1.2684585">
      <feGaussianBlur
         inkscape:collect="always"
         stdDeviation="7.8664941"
         id="feGaussianBlur1780" />
    </filter>
    <filter
       inkscape:collect="always"
       style="color-interpolation-filters:sRGB"
       id="filter1782"
       x="-0.029544844"
       width="1.0590897"
       y="-0.034621572"
       height="1.0692431">
      <feGaussianBlur
         inkscape:collect="always"
         stdDeviation="7.8664941"
         id="feGaussianBlur1784" />
    </filter>
  </defs>
  <sodipodi:namedview
     pagecolor="#ffffff"
     bordercolor="#666666"
     borderopacity="1"
     objecttolerance="10"
     gridtolerance="10"
     guidetolerance="10"
     inkscape:pageopacity="0"
     inkscape:pageshadow="2"
     inkscape:window-width="1830"
     inkscape:window-height="1051"
     id="namedview32"
     showgrid="false"
     fit-margin-top="10"
     fit-margin-left="10"
     fit-margin-right="10"
     fit-margin-bottom="10"
     inkscape:zoom="7.914504"
     inkscape:cx="87.191893"
     inkscape:cy="66.695702"
     inkscape:window-x="82"
     inkscape:window-y="0"
     inkscape:window-maximized="1"
     inkscape:current-layer="g892"
     inkscape:pagecheckerboard="true" />
  <text
     xml:space="preserve"
     style="font-style:normal;font-variant:normal;font-weight:normal;font-stretch:normal;font-size:400px;line-height:1.25;font-family:Judson;-inkscape-font-specification:Judson;letter-spacing:0px;word-spacing:0px;fill:#000000;fill-opacity:1;stroke:none;stroke-width:10"
     x="544.86407"
     y="432.09589"
     id="text868"><tspan
       sodipodi:role="line"
       id="tspan866"
       x="544.86407"
       y="794.43848"
       style="stroke-width:10" /></text>
  <g
     id="g892"
     transform="rotate(16.919198,200.94411,-157.37904)">
    <path
       inkscape:connector-curvature="0"
       id="path848-3"
       style="font-style:normal;font-variant:normal;font-weight:normal;font-stretch:normal;font-size:320px;line-height:1.25;font-family:'Domestic Manners';-inkscape-font-specification:'Domestic Manners, Normal';font-variant-ligatures:normal;font-variant-caps:normal;font-variant-numeric:normal;font-feature-settings:normal;text-align:start;letter-spacing:0px;word-spacing:0px;writing-mode:lr-tb;text-anchor:start;fill:none;fill-opacity:1;stroke:#000000;stroke-width:29.99999941;stroke-opacity:1;stroke-miterlimit:4;stroke-dasharray:none;filter:url(#filter1778)"
       d="m 934.19143,332.213 q -5,17.03125 -10.15625,33.90625 -6.09375,22.5 -6.09375,33.75 0,16.40625 10.3125,16.40625 12.34375,0 35.9375,-32.34375 14.84375,-20.625 27.65625,-43.90625 2.8125,-2.34375 5.78125,-2.34375 3.90627,0 7.81247,5.15625 2.8125,4.375 5.625,8.59375 -20.78122,39.0625 -20.78122,54.0625 0,6.09375 1.71875,7.8125 0.9375,1.09375 10.93747,6.875 7.8125,4.53125 7.8125,8.75 0,4.53125 -5.9375,9.375 -5.93747,5 -10.78122,5 -13.125,0 -23.28125,-34.21875 -9.84375,9.0625 -19.53125,18.125 -12.8125,10.3125 -23.4375,10.3125 -14.53125,0 -22.5,-11.71875 -6.875,-10.15625 -6.875,-25.3125 0,-11.09375 3.125,-24.0625 l 13.4375,-55.625 q 2.03125,-0.625 3.90625,-0.625 3.4375,0 8.28125,4.6875 3.59375,3.59375 7.03125,7.34375 z" />
    <path
       inkscape:connector-curvature="0"
       id="path850-4"
       style="font-style:normal;font-variant:normal;font-weight:normal;font-stretch:normal;font-size:320px;line-height:1.25;font-family:'Domestic Manners';-inkscape-font-specification:'Domestic Manners, Normal';font-variant-ligatures:normal;font-variant-caps:normal;font-variant-numeric:normal;font-feature-settings:normal;text-align:start;letter-spacing:0px;word-spacing:0px;writing-mode:lr-tb;text-anchor:start;fill:none;fill-opacity:1;stroke:#000000;stroke-width:29.99999941;stroke-opacity:1;stroke-miterlimit:4;stroke-dasharray:none;filter:url(#filter1774)"
       d="m 1179.9727,375.49425 q 0,50.15625 -28.125,91.25 -2.1875,0.9375 -4.0625,0.9375 -5.625,0 -11.4063,-7.96875 -5.3125,-7.5 -5.3125,-13.4375 0,-13.125 20.1563,-27.34375 5.4687,-17.8125 5.4687,-43.125 0,-21.09375 -3.4375,-31.09375 -5.625,-16.875 -22.1875,-16.875 -23.9062,0 -41.5625,27.96875 -9.375,15 -22.8125,52.1875 -10.1562,27.96875 -15.9375,27.96875 -15.625,0 -15.625,-31.71875 0,-11.25 3.75,-38.28125 3.9063,-27.03125 3.9063,-37.1875 0,-3.28125 -0.3125,-6.09375 13.4375,3.59375 21.0937,13.4375 0,1.25 -0.3125,5 -0.1562,3.125 -0.1562,5 0,4.53125 2.3437,7.34375 20.625,-28.90625 26.875,-35 17.1875,-16.875 39.375,-16.875 25.4688,0 38.2813,25.625 10,19.84375 10,48.28125 z" />
    <path
       inkscape:connector-curvature="0"
       id="path852-6"
       style="font-style:normal;font-variant:normal;font-weight:normal;font-stretch:normal;font-size:320px;line-height:1.25;font-family:'Domestic Manners';-inkscape-font-specification:'Domestic Manners, Normal';font-variant-ligatures:normal;font-variant-caps:normal;font-variant-numeric:normal;font-feature-settings:normal;text-align:start;letter-spacing:0px;word-spacing:0px;writing-mode:lr-tb;text-anchor:start;fill:none;fill-opacity:1;stroke:#000000;stroke-width:29.99999941;stroke-opacity:1;stroke-miterlimit:4;stroke-dasharray:none;filter:url(#filter1770)"
       d="m 1338.4102,328.1505 q 0.3125,2.1875 0.3125,4.21875 0,14.0625 -14.0625,14.0625 -6.4063,0 -18.9063,-3.125 -12.3437,-3.28125 -18.5937,-3.28125 -7.9688,0 -15,4.6875 -7.9688,5.3125 -7.9688,12.8125 0,7.65625 17.0313,18.75 15.9375,10.15625 31.875,20.3125 17.0312,12.8125 17.0312,24.375 0,10.15625 -7.8125,15.78125 -6.875,5 -17.1875,5 -12.0312,0 -35.9375,-4.6875 -23.9062,-4.6875 -36.0937,-4.6875 -8.2813,0 -15.3125,1.40625 -3.5938,-1.40625 -8.9063,-10.15625 -6.4062,-10.78125 -7.8125,-12.34375 8.5938,-1.875 19.5313,-1.875 17.5,0 46.0937,5.9375 28.5938,5.9375 32.6563,5.9375 5.7812,0 5.7812,-2.96875 0,-7.34375 -17.1875,-17.5 -30.625,-17.96875 -32.1875,-19.0625 -17.1875,-12.65625 -17.1875,-26.09375 0,-19.375 19.8438,-32.8125 17.6562,-12.03125 37.9687,-12.03125 25.625,0 42.0313,17.34375 z" />
    <path
       inkscape:connector-curvature="0"
       id="path854-6"
       style="font-style:normal;font-variant:normal;font-weight:normal;font-stretch:normal;font-size:320px;line-height:1.25;font-family:'Domestic Manners';-inkscape-font-specification:'Domestic Manners, Normal';font-variant-ligatures:normal;font-variant-caps:normal;font-variant-numeric:normal;font-feature-settings:normal;text-align:start;letter-spacing:0px;word-spacing:0px;writing-mode:lr-tb;text-anchor:start;fill:none;fill-opacity:1;stroke:#000000;stroke-width:29.99999941;stroke-opacity:1;stroke-miterlimit:4;stroke-dasharray:none;filter:url(#filter1766)"
       d="m 1391.0664,332.213 q -5,17.03125 -10.1562,33.90625 -6.0938,22.5 -6.0938,33.75 0,16.40625 10.3125,16.40625 12.3438,0 35.9375,-32.34375 14.8438,-20.625 27.6563,-43.90625 2.8125,-2.34375 5.7812,-2.34375 3.9063,0 7.8125,5.15625 2.8125,4.375 5.625,8.59375 -20.7812,39.0625 -20.7812,54.0625 0,6.09375 1.7187,7.8125 0.9375,1.09375 10.9375,6.875 7.8125,4.53125 7.8125,8.75 0,4.53125 -5.9375,9.375 -5.9375,5 -10.7812,5 -13.125,0 -23.2813,-34.21875 -9.8437,9.0625 -19.5312,18.125 -12.8125,10.3125 -23.4375,10.3125 -14.5313,0 -22.5,-11.71875 -6.875,-10.15625 -6.875,-25.3125 0,-11.09375 3.125,-24.0625 l 13.4375,-55.625 q 2.0312,-0.625 3.9062,-0.625 3.4375,0 8.2813,4.6875 3.5937,3.59375 7.0312,7.34375 z" />
    <path
       inkscape:connector-curvature="0"
       id="path856-0"
       style="font-style:normal;font-variant:normal;font-weight:normal;font-stretch:normal;font-size:320px;line-height:1.25;font-family:'Domestic Manners';-inkscape-font-specification:'Domestic Manners, Normal';font-variant-ligatures:normal;font-variant-caps:normal;font-variant-numeric:normal;font-feature-settings:normal;text-align:start;letter-spacing:0px;word-spacing:0px;writing-mode:lr-tb;text-anchor:start;fill:none;fill-opacity:1;stroke:#000000;stroke-width:29.99999941;stroke-opacity:1;stroke-miterlimit:4;stroke-dasharray:none;filter:url(#filter1762)"
       d="m 1573.7227,440.49425 q -23.5938,0 -48.9063,-15.15625 -7.3437,25.15625 -14.5312,50.15625 -11.25,33.90625 -22.0313,44.375 -14.375,-2.34375 -14.375,-14.53125 0,-5.3125 7.0313,-25.46875 14.6875,-41.875 14.6875,-68.59375 0,-8.90625 -1.25,-16.875 10.4687,-8.75 18.9062,-33.90625 12.0313,-35.46875 14.2188,-39.6875 9.5312,-19.21875 24.8437,-19.21875 24.6875,0 45.625,31.09375 19.0625,28.4375 19.0625,54.53125 0,17.96875 -7.6562,32.8125 -9.2188,17.5 -25.3125,19.84375 -4.2188,0.625 -10.3125,0.625 z m -12.5,-110.625 q -15,0 -23.2813,27.34375 -4.2187,20.3125 -8.4375,40.625 22.1875,15.78125 40,15.78125 11.4063,0 18.125,-7.5 6.875,-7.5 6.875,-18.90625 0,-14.84375 -9.6875,-34.6875 -10.9375,-22.65625 -23.5937,-22.65625 z" />
    <path
       inkscape:connector-curvature="0"
       id="path858-2"
       style="font-style:normal;font-variant:normal;font-weight:normal;font-stretch:normal;font-size:320px;line-height:1.25;font-family:'Domestic Manners';-inkscape-font-specification:'Domestic Manners, Normal';font-variant-ligatures:normal;font-variant-caps:normal;font-variant-numeric:normal;font-feature-settings:normal;text-align:start;letter-spacing:0px;word-spacing:0px;writing-mode:lr-tb;text-anchor:start;fill:none;fill-opacity:1;stroke:#000000;stroke-width:29.99999941;stroke-opacity:1;stroke-miterlimit:4;stroke-dasharray:none;filter:url(#filter1758)"
       d="m 1718.0977,440.49425 q -23.5938,0 -48.9063,-15.15625 -7.3437,25.15625 -14.5312,50.15625 -11.25,33.90625 -22.0313,44.375 -14.375,-2.34375 -14.375,-14.53125 0,-5.3125 7.0313,-25.46875 14.6875,-41.875 14.6875,-68.59375 0,-8.90625 -1.25,-16.875 10.4687,-8.75 18.9062,-33.90625 12.0313,-35.46875 14.2188,-39.6875 9.5312,-19.21875 24.8437,-19.21875 24.6875,0 45.625,31.09375 19.0625,28.4375 19.0625,54.53125 0,17.96875 -7.6562,32.8125 -9.2188,17.5 -25.3125,19.84375 -4.2188,0.625 -10.3125,0.625 z m -12.5,-110.625 q -15,0 -23.2813,27.34375 -4.2187,20.3125 -8.4375,40.625 22.1875,15.78125 40,15.78125 11.4063,0 18.125,-7.5 6.875,-7.5 6.875,-18.90625 0,-14.84375 -9.6875,-34.6875 -10.9375,-22.65625 -23.5937,-22.65625 z" />
    <path
       inkscape:connector-curvature="0"
       id="path860-5"
       style="font-style:normal;font-variant:normal;font-weight:normal;font-stretch:normal;font-size:320px;line-height:1.25;font-family:'Domestic Manners';-inkscape-font-specification:'Domestic Manners, Normal';font-variant-ligatures:normal;font-variant-caps:normal;font-variant-numeric:normal;font-feature-settings:normal;text-align:start;letter-spacing:0px;word-spacing:0px;writing-mode:lr-tb;text-anchor:start;fill:none;fill-opacity:1;stroke:#000000;stroke-width:29.99999941;stroke-opacity:1;stroke-miterlimit:4;stroke-dasharray:none;filter:url(#filter1754)"
       d="m 1859.8164,303.7755 q 22.8125,0 39.6875,16.5625 17.0313,16.40625 17.0313,39.21875 0,31.40625 -24.5313,55 -24.5312,23.59375 -56.0937,23.59375 -29.8438,0 -48.2813,-22.65625 -0.3125,-3.75 -0.3125,-7.34375 0,-36.5625 27.1875,-63.75 0,-17.1875 14.2188,-29.21875 13.5937,-11.40625 31.0937,-11.40625 z m 34.0625,53.125 q 0,-11.71875 -8.125,-19.53125 -8.125,-7.96875 -19.8437,-7.96875 -8.5938,0 -15,5.46875 4.5312,7.65625 4.5312,14.0625 0,9.375 -10.9375,18.90625 -10.1562,8.28125 -20.1562,16.5625 -10.625,10.46875 -10,22.34375 l 0.1562,2.96875 q 22.3438,0 33.125,-2.1875 17.8125,-3.59375 29.2188,-14.6875 17.0312,-16.71875 17.0312,-35.9375 z" />
    <path
       inkscape:connector-curvature="0"
       id="path862-8"
       style="font-style:normal;font-variant:normal;font-weight:normal;font-stretch:normal;font-size:320px;line-height:1.25;font-family:'Domestic Manners';-inkscape-font-specification:'Domestic Manners, Normal';font-variant-ligatures:normal;font-variant-caps:normal;font-variant-numeric:normal;font-feature-settings:normal;text-align:start;letter-spacing:0px;word-spacing:0px;writing-mode:lr-tb;text-anchor:start;fill:none;fill-opacity:1;stroke:#000000;stroke-width:29.99999941;stroke-opacity:1;stroke-miterlimit:4;stroke-dasharray:none;filter:url(#filter1750)"
       d="m 2070.1289,344.088 q -9.0625,11.25 -18.9062,11.25 -3.5938,0 -6.4063,-1.5625 -3.75,-6.40625 -10.7812,-11.40625 -7.6563,-5.3125 -14.5313,-5.3125 -21.4062,0 -36.0937,42.03125 -11.875,33.59375 -11.875,61.09375 -2.9688,1.25 -5.4688,1.25 -12.8125,0 -15.625,-18.59375 -0.7812,-12.1875 -2.5,-35.15625 -2.6562,-23.75 -2.6562,-35.3125 0,-19.84375 5.1562,-35.15625 17.1875,5.625 17.1875,11.5625 0,2.1875 -0.625,6.40625 -0.625,4.21875 -0.625,6.40625 0,5.15625 3.125,8.28125 21.875,-21.71875 23.75,-23.28125 15.625,-12.8125 29.6875,-12.8125 13.5938,0 26.4063,10.15625 1.0937,0.9375 20.7812,20.15625 z" />
    <path
       inkscape:connector-curvature="0"
       id="path864-9"
       style="font-style:normal;font-variant:normal;font-weight:normal;font-stretch:normal;font-size:320px;line-height:1.25;font-family:'Domestic Manners';-inkscape-font-specification:'Domestic Manners, Normal';font-variant-ligatures:normal;font-variant-caps:normal;font-variant-numeric:normal;font-feature-settings:normal;text-align:start;letter-spacing:0px;word-spacing:0px;writing-mode:lr-tb;text-anchor:start;fill:none;fill-opacity:1;stroke:#000000;stroke-width:29.99999941;stroke-opacity:1;stroke-miterlimit:4;stroke-dasharray:none;filter:url(#filter1746)"
       d="m 2184.0352,256.11925 0.1562,3.125 q 0.3125,10.9375 -5.9375,26.71875 -8.2812,20.46875 -9.5312,25.78125 4.0625,0.3125 9.2187,0.3125 5.1563,0 15.3125,-0.46875 10.3125,-0.46875 15.4688,-0.46875 12.8125,0 21.4062,2.65625 -1.7187,10.3125 -21.0937,13.125 -25.1563,3.59375 -34.0625,10 -17.8125,12.8125 -17.8125,48.4375 0,23.59375 3.125,35.625 0.9375,3.75 3.9062,3.75 7.8125,0 26.7188,-18.59375 14.375,-13.90625 23.9062,-26.40625 5.3125,2.1875 5.3125,8.90625 0,2.34375 -0.7812,7.03125 -0.7813,4.6875 -0.7813,7.03125 -31.7187,40.9375 -55.3125,40.9375 -18.9062,0 -25,-30 -3.125,-14.84375 -3.125,-44.53125 0,-13.75 0.9375,-24.6875 -4.2187,-2.5 -10,-2.5 -5.7812,0 -17.0312,3.4375 -11.25,3.28125 -16.875,3.28125 -12.1875,0 -13.75,-15.625 10.9375,-5.625 31.25,-9.6875 24.2187,-4.84375 32.1875,-7.65625 5.9375,-9.21875 11.4062,-36.71875 5.1563,-25 15.4688,-36.25 6.25,0 9.8437,4.0625 1.5625,1.71875 5.4688,9.375 z" />
    <path
       inkscape:connector-curvature="0"
       id="path866-5"
       style="font-style:normal;font-variant:normal;font-weight:normal;font-stretch:normal;font-size:320px;line-height:1.25;font-family:'Domestic Manners';-inkscape-font-specification:'Domestic Manners, Normal';font-variant-ligatures:normal;font-variant-caps:normal;font-variant-numeric:normal;font-feature-settings:normal;text-align:start;letter-spacing:0px;word-spacing:0px;writing-mode:lr-tb;text-anchor:start;fill:none;fill-opacity:1;stroke:#000000;stroke-width:29.99999941;stroke-opacity:1;stroke-miterlimit:4;stroke-dasharray:none;filter:url(#filter1742)"
       d="m 2392.4727,330.6505 q 0,7.96875 -7.3438,17.34375 -43.9062,25.9375 -92.5,25.9375 -8.9062,0 -18.2812,-0.9375 -7.9688,5.625 -7.9688,15.3125 0,10 8.125,16.09375 7.1875,5.625 17.5,5.625 14.5313,0 45.7813,-12.65625 31.25,-12.65625 44.5312,-12.65625 7.6563,0 12.5,3.59375 -53.125,46.71875 -96.7187,46.71875 -24.5313,0 -38.4375,-11.40625 -15,-12.34375 -15,-36.25 0,-3.59375 0.3125,-10.46875 0.3125,-7.03125 0.3125,-10.625 0,-10.9375 -3.125,-16.40625 13.75,-2.34375 32.0312,-19.21875 19.5313,-17.96875 29.375,-21.09375 16.25,-5.15625 36.4063,-5.15625 16.4062,0 31.7187,5.46875 20.7813,7.5 20.7813,20.78125 z m -22.6563,0 q -11.5625,-5.78125 -25.625,-5.78125 -12.9687,0 -26.7187,5.15625 -15.4688,5.78125 -22.1875,15 -3.5938,5 -3.5938,7.8125 0,5.3125 9.5313,5.3125 14.5312,0 36.25,-8.75 21.7187,-8.75 32.3437,-18.75 z" />
    <path
       inkscape:connector-curvature="0"
       id="path868-0"
       style="font-style:normal;font-variant:normal;font-weight:normal;font-stretch:normal;font-size:320px;line-height:1.25;font-family:'Domestic Manners';-inkscape-font-specification:'Domestic Manners, Normal';font-variant-ligatures:normal;font-variant-caps:normal;font-variant-numeric:normal;font-feature-settings:normal;text-align:start;letter-spacing:0px;word-spacing:0px;writing-mode:lr-tb;text-anchor:start;fill:none;fill-opacity:1;stroke:#000000;stroke-width:29.99999941;stroke-opacity:1;stroke-miterlimit:4;stroke-dasharray:none;filter:url(#filter1738)"
       d="m 2596.3789,198.7755 q 0.3125,6.40625 0.3125,12.8125 0,35.625 -12.6562,82.96875 -12.0313,40.46875 -24.2188,80.9375 1.7188,1.25 3.2813,1.25 1.7187,0 8.125,-6.40625 6.5625,-6.40625 11.7187,-6.40625 -2.1875,8.75 -16.5625,28.75 -12.8125,17.65625 -12.3437,28.75 l 0.1562,2.03125 h 5.625 q 0.1563,8.59375 -10.1562,8.59375 -2.9688,0 -9.375,-1.25 -6.25,-1.25 -9.5313,-1.25 -10.7812,0 -32.5,3.125 -21.5625,2.96875 -32.5,2.96875 -13.75,0 -26.5625,-4.375 -16.0937,-5.46875 -21.4062,-15.46875 -3.4375,-6.40625 -3.4375,-18.90625 0,-37.1875 41.0937,-60.78125 34.8438,-19.84375 75,-19.84375 11.25,0 21.7188,1.5625 7.6562,-19.21875 17.1875,-59.53125 9.6875,-40.3125 17.3437,-59.53125 z m -53.75,144.0625 q -8.75,-2.5 -18.9062,-2.5 -30,0 -58.2813,17.65625 -28.125,17.65625 -28.125,35.15625 0,20.46875 32.3438,20.46875 35.625,0 65.3125,-18.90625 0,-9.84375 3.2812,-26.09375 3.75,-19.0625 4.375,-25.78125 z" />
    <path
       style="font-style:normal;font-variant:normal;font-weight:500;font-stretch:normal;font-size:853.33331299px;line-height:1.25;font-family:Judson;-inkscape-font-specification:'Judson, Medium';font-variant-ligatures:normal;font-variant-caps:normal;font-variant-numeric:normal;font-feature-settings:normal;text-align:start;letter-spacing:0px;word-spacing:0px;writing-mode:lr-tb;text-anchor:start;fill:none;fill-opacity:1;stroke:#000000;stroke-width:29.99999941;stroke-opacity:1;stroke-miterlimit:4;stroke-dasharray:none;filter:url(#filter1782)"
       inkscape:connector-curvature="0"
       id="path845-0"
       d="m 811.86519,82.856409 q 4.16666,0 10.83333,6.666666 7.08333,6.666667 14.58333,17.500005 12.08334,-21.250004 19.16667,-21.250004 6.25,0 17.08333,11.249999 6.66667,7.083335 6.66667,15.833335 0,11.25 -9.16667,20.83334 -86.66666,94.16666 -168.33333,207.08332 33.75,82.5 93.33333,182.08333 5,8.33334 5,13.33334 0,9.58333 -12.5,20 l -13.33333,9.16666 q 1.66667,5 1.66667,13.33333 0,12.5 -9.16667,19.16667 -10.83333,7.5 -15.83333,7.5 -10.83333,0 -19.16667,-10.83333 -50,-64.16667 -103.33333,-150.83333 -71.66666,93.33333 -164.16666,249.16666 -13.33333,22.5 -45,22.5 -15,0 -16.66667,-17.5 -21.25,-11.66667 -21.25,-37.08333 0,-33.33334 4.58334,-46.25 2.08333,-5.83334 13.33333,-23.33334 85,-132.49999 180,-243.33332 -50.83334,-120.83333 -67.5,-186.25 -3.75,-14.58333 -3.75,-18.75 0,-5.83333 7.5,-16.66666 7.91666,-10.83334 14.58333,-10.83334 6.25,0 15.83333,12.08334 3.75,-7.08334 9.16667,-12.08334 7.5,-6.66666 19.16667,-6.66666 13.33333,0 17.5,12.5 22.49999,69.99999 59.16666,133.33333 59.16667,-76.66667 144.16666,-161.666671 10,-10 15.83334,-10 z" />
    <g
       id="g885">
      <g
         id="text59"
         style="font-style:normal;font-variant:normal;font-weight:normal;font-stretch:normal;font-size:320px;line-height:1.25;font-family:'Domestic Manners';-inkscape-font-specification:'Domestic Manners, Normal';font-variant-ligatures:normal;font-variant-caps:normal;font-variant-numeric:normal;font-feature-settings:normal;text-align:start;letter-spacing:0px;word-spacing:0px;writing-mode:lr-tb;text-anchor:start;fill:#ff0000;fill-opacity:1;stroke:none;stroke-width:10"
         aria-label="unsupported">
        <path
           id="path848"
           style="font-style:normal;font-variant:normal;font-weight:normal;font-stretch:normal;font-size:320px;font-family:'Domestic Manners';-inkscape-font-specification:'Domestic Manners, Normal';font-variant-ligatures:normal;font-variant-caps:normal;font-variant-numeric:normal;font-feature-settings:normal;text-align:start;writing-mode:lr-tb;text-anchor:start;fill:#ff0000;fill-opacity:1;stroke-width:10"
           d="m 934.39813,332.15012 q -5,17.03125 -10.15625,33.90625 -6.09375,22.5 -6.09375,33.75 0,16.40625 10.3125,16.40625 12.34375,0 35.9375,-32.34375 14.84375,-20.625 27.65625,-43.90625 2.8125,-2.34375 5.78125,-2.34375 3.90627,0 7.81247,5.15625 2.8125,4.375 5.625,8.59375 -20.78122,39.0625 -20.78122,54.0625 0,6.09375 1.71875,7.8125 0.9375,1.09375 10.93747,6.875 7.8125,4.53125 7.8125,8.75 0,4.53125 -5.9375,9.375 -5.93747,5 -10.78122,5 -13.125,0 -23.28125,-34.21875 -9.84375,9.0625 -19.53125,18.125 -12.8125,10.3125 -23.4375,10.3125 -14.53125,0 -22.5,-11.71875 -6.875,-10.15625 -6.875,-25.3125 0,-11.09375 3.125,-24.0625 l 13.4375,-55.625 q 2.03125,-0.625 3.90625,-0.625 3.4375,0 8.28125,4.6875 3.59375,3.59375 7.03125,7.34375 z"
           inkscape:connector-curvature="0" />
        <path
           id="path850"
           style="font-style:normal;font-variant:normal;font-weight:normal;font-stretch:normal;font-size:320px;font-family:'Domestic Manners';-inkscape-font-specification:'Domestic Manners, Normal';font-variant-ligatures:normal;font-variant-caps:normal;font-variant-numeric:normal;font-feature-settings:normal;text-align:start;writing-mode:lr-tb;text-anchor:start;fill:#ff0000;fill-opacity:1;stroke-width:10"
           d="m 1180.1794,375.43137 q 0,50.15625 -28.125,91.25 -2.1875,0.9375 -4.0625,0.9375 -5.625,0 -11.4063,-7.96875 -5.3125,-7.5 -5.3125,-13.4375 0,-13.125 20.1563,-27.34375 5.4687,-17.8125 5.4687,-43.125 0,-21.09375 -3.4375,-31.09375 -5.625,-16.875 -22.1875,-16.875 -23.9062,0 -41.5625,27.96875 -9.375,15 -22.8125,52.1875 -10.1562,27.96875 -15.9375,27.96875 -15.625,0 -15.625,-31.71875 0,-11.25 3.75,-38.28125 3.9063,-27.03125 3.9063,-37.1875 0,-3.28125 -0.3125,-6.09375 13.4375,3.59375 21.0937,13.4375 0,1.25 -0.3125,5 -0.1562,3.125 -0.1562,5 0,4.53125 2.3437,7.34375 20.625,-28.90625 26.875,-35 17.1875,-16.875 39.375,-16.875 25.4688,0 38.2813,25.625 10,19.84375 10,48.28125 z"
           inkscape:connector-curvature="0" />
        <path
           id="path852"
           style="font-style:normal;font-variant:normal;font-weight:normal;font-stretch:normal;font-size:320px;font-family:'Domestic Manners';-inkscape-font-specification:'Domestic Manners, Normal';font-variant-ligatures:normal;font-variant-caps:normal;font-variant-numeric:normal;font-feature-settings:normal;text-align:start;writing-mode:lr-tb;text-anchor:start;fill:#ff0000;fill-opacity:1;stroke-width:10"
           d="m 1338.6169,328.08762 q 0.3125,2.1875 0.3125,4.21875 0,14.0625 -14.0625,14.0625 -6.4063,0 -18.9063,-3.125 -12.3437,-3.28125 -18.5937,-3.28125 -7.9688,0 -15,4.6875 -7.9688,5.3125 -7.9688,12.8125 0,7.65625 17.0313,18.75 15.9375,10.15625 31.875,20.3125 17.0312,12.8125 17.0312,24.375 0,10.15625 -7.8125,15.78125 -6.875,5 -17.1875,5 -12.0312,0 -35.9375,-4.6875 -23.9062,-4.6875 -36.0937,-4.6875 -8.2813,0 -15.3125,1.40625 -3.5938,-1.40625 -8.9063,-10.15625 -6.4062,-10.78125 -7.8125,-12.34375 8.5938,-1.875 19.5313,-1.875 17.5,0 46.0937,5.9375 28.5938,5.9375 32.6563,5.9375 5.7812,0 5.7812,-2.96875 0,-7.34375 -17.1875,-17.5 -30.625,-17.96875 -32.1875,-19.0625 -17.1875,-12.65625 -17.1875,-26.09375 0,-19.375 19.8438,-32.8125 17.6562,-12.03125 37.9687,-12.03125 25.625,0 42.0313,17.34375 z"
           inkscape:connector-curvature="0" />
        <path
           id="path854"
           style="font-style:normal;font-variant:normal;font-weight:normal;font-stretch:normal;font-size:320px;font-family:'Domestic Manners';-inkscape-font-specification:'Domestic Manners, Normal';font-variant-ligatures:normal;font-variant-caps:normal;font-variant-numeric:normal;font-feature-settings:normal;text-align:start;writing-mode:lr-tb;text-anchor:start;fill:#ff0000;fill-opacity:1;stroke-width:10"
           d="m 1391.2731,332.15012 q -5,17.03125 -10.1562,33.90625 -6.0938,22.5 -6.0938,33.75 0,16.40625 10.3125,16.40625 12.3438,0 35.9375,-32.34375 14.8438,-20.625 27.6563,-43.90625 2.8125,-2.34375 5.7812,-2.34375 3.9063,0 7.8125,5.15625 2.8125,4.375 5.625,8.59375 -20.7812,39.0625 -20.7812,54.0625 0,6.09375 1.7187,7.8125 0.9375,1.09375 10.9375,6.875 7.8125,4.53125 7.8125,8.75 0,4.53125 -5.9375,9.375 -5.9375,5 -10.7812,5 -13.125,0 -23.2813,-34.21875 -9.8437,9.0625 -19.5312,18.125 -12.8125,10.3125 -23.4375,10.3125 -14.5313,0 -22.5,-11.71875 -6.875,-10.15625 -6.875,-25.3125 0,-11.09375 3.125,-24.0625 l 13.4375,-55.625 q 2.0312,-0.625 3.9062,-0.625 3.4375,0 8.2813,4.6875 3.5937,3.59375 7.0312,7.34375 z"
           inkscape:connector-curvature="0" />
        <path
           id="path856"
           style="font-style:normal;font-variant:normal;font-weight:normal;font-stretch:normal;font-size:320px;font-family:'Domestic Manners';-inkscape-font-specification:'Domestic Manners, Normal';font-variant-ligatures:normal;font-variant-caps:normal;font-variant-numeric:normal;font-feature-settings:normal;text-align:start;writing-mode:lr-tb;text-anchor:start;fill:#ff0000;fill-opacity:1;stroke-width:10"
           d="m 1573.9294,440.43137 q -23.5938,0 -48.9063,-15.15625 -7.3437,25.15625 -14.5312,50.15625 -11.25,33.90625 -22.0313,44.375 -14.375,-2.34375 -14.375,-14.53125 0,-5.3125 7.0313,-25.46875 14.6875,-41.875 14.6875,-68.59375 0,-8.90625 -1.25,-16.875 10.4687,-8.75 18.9062,-33.90625 12.0313,-35.46875 14.2188,-39.6875 9.5312,-19.21875 24.8437,-19.21875 24.6875,0 45.625,31.09375 19.0625,28.4375 19.0625,54.53125 0,17.96875 -7.6562,32.8125 -9.2188,17.5 -25.3125,19.84375 -4.2188,0.625 -10.3125,0.625 z m -12.5,-110.625 q -15,0 -23.2813,27.34375 -4.2187,20.3125 -8.4375,40.625 22.1875,15.78125 40,15.78125 11.4063,0 18.125,-7.5 6.875,-7.5 6.875,-18.90625 0,-14.84375 -9.6875,-34.6875 -10.9375,-22.65625 -23.5937,-22.65625 z"
           inkscape:connector-curvature="0" />
        <path
           id="path858"
           style="font-style:normal;font-variant:normal;font-weight:normal;font-stretch:normal;font-size:320px;font-family:'Domestic Manners';-inkscape-font-specification:'Domestic Manners, Normal';font-variant-ligatures:normal;font-variant-caps:normal;font-variant-numeric:normal;font-feature-settings:normal;text-align:start;writing-mode:lr-tb;text-anchor:start;fill:#ff0000;fill-opacity:1;stroke-width:10"
           d="m 1718.3044,440.43137 q -23.5938,0 -48.9063,-15.15625 -7.3437,25.15625 -14.5312,50.15625 -11.25,33.90625 -22.0313,44.375 -14.375,-2.34375 -14.375,-14.53125 0,-5.3125 7.0313,-25.46875 14.6875,-41.875 14.6875,-68.59375 0,-8.90625 -1.25,-16.875 10.4687,-8.75 18.9062,-33.90625 12.0313,-35.46875 14.2188,-39.6875 9.5312,-19.21875 24.8437,-19.21875 24.6875,0 45.625,31.09375 19.0625,28.4375 19.0625,54.53125 0,17.96875 -7.6562,32.8125 -9.2188,17.5 -25.3125,19.84375 -4.2188,0.625 -10.3125,0.625 z m -12.5,-110.625 q -15,0 -23.2813,27.34375 -4.2187,20.3125 -8.4375,40.625 22.1875,15.78125 40,15.78125 11.4063,0 18.125,-7.5 6.875,-7.5 6.875,-18.90625 0,-14.84375 -9.6875,-34.6875 -10.9375,-22.65625 -23.5937,-22.65625 z"
           inkscape:connector-curvature="0" />
        <path
           id="path860"
           style="font-style:normal;font-variant:normal;font-weight:normal;font-stretch:normal;font-size:320px;font-family:'Domestic Manners';-inkscape-font-specification:'Domestic Manners, Normal';font-variant-ligatures:normal;font-variant-caps:normal;font-variant-numeric:normal;font-feature-settings:normal;text-align:start;writing-mode:lr-tb;text-anchor:start;fill:#ff0000;fill-opacity:1;stroke-width:10"
           d="m 1860.0231,303.71262 q 22.8125,0 39.6875,16.5625 17.0313,16.40625 17.0313,39.21875 0,31.40625 -24.5313,55 -24.5312,23.59375 -56.0937,23.59375 -29.8438,0 -48.2813,-22.65625 -0.3125,-3.75 -0.3125,-7.34375 0,-36.5625 27.1875,-63.75 0,-17.1875 14.2188,-29.21875 13.5937,-11.40625 31.0937,-11.40625 z m 34.0625,53.125 q 0,-11.71875 -8.125,-19.53125 -8.125,-7.96875 -19.8437,-7.96875 -8.5938,0 -15,5.46875 4.5312,7.65625 4.5312,14.0625 0,9.375 -10.9375,18.90625 -10.1562,8.28125 -20.1562,16.5625 -10.625,10.46875 -10,22.34375 l 0.1562,2.96875 q 22.3438,0 33.125,-2.1875 17.8125,-3.59375 29.2188,-14.6875 17.0312,-16.71875 17.0312,-35.9375 z"
           inkscape:connector-curvature="0" />
        <path
           id="path862"
           style="font-style:normal;font-variant:normal;font-weight:normal;font-stretch:normal;font-size:320px;font-family:'Domestic Manners';-inkscape-font-specification:'Domestic Manners, Normal';font-variant-ligatures:normal;font-variant-caps:normal;font-variant-numeric:normal;font-feature-settings:normal;text-align:start;writing-mode:lr-tb;text-anchor:start;fill:#ff0000;fill-opacity:1;stroke-width:10"
           d="m 2070.3356,344.02512 q -9.0625,11.25 -18.9062,11.25 -3.5938,0 -6.4063,-1.5625 -3.75,-6.40625 -10.7812,-11.40625 -7.6563,-5.3125 -14.5313,-5.3125 -21.4062,0 -36.0937,42.03125 -11.875,33.59375 -11.875,61.09375 -2.9688,1.25 -5.4688,1.25 -12.8125,0 -15.625,-18.59375 -0.7812,-12.1875 -2.5,-35.15625 -2.6562,-23.75 -2.6562,-35.3125 0,-19.84375 5.1562,-35.15625 17.1875,5.625 17.1875,11.5625 0,2.1875 -0.625,6.40625 -0.625,4.21875 -0.625,6.40625 0,5.15625 3.125,8.28125 21.875,-21.71875 23.75,-23.28125 15.625,-12.8125 29.6875,-12.8125 13.5938,0 26.4063,10.15625 1.0937,0.9375 20.7812,20.15625 z"
           inkscape:connector-curvature="0" />
        <path
           id="path864"
           style="font-style:normal;font-variant:normal;font-weight:normal;font-stretch:normal;font-size:320px;font-family:'Domestic Manners';-inkscape-font-specification:'Domestic Manners, Normal';font-variant-ligatures:normal;font-variant-caps:normal;font-variant-numeric:normal;font-feature-settings:normal;text-align:start;writing-mode:lr-tb;text-anchor:start;fill:#ff0000;fill-opacity:1;stroke-width:10"
           d="m 2184.2419,256.05637 0.1562,3.125 q 0.3125,10.9375 -5.9375,26.71875 -8.2812,20.46875 -9.5312,25.78125 4.0625,0.3125 9.2187,0.3125 5.1563,0 15.3125,-0.46875 10.3125,-0.46875 15.4688,-0.46875 12.8125,0 21.4062,2.65625 -1.7187,10.3125 -21.0937,13.125 -25.1563,3.59375 -34.0625,10 -17.8125,12.8125 -17.8125,48.4375 0,23.59375 3.125,35.625 0.9375,3.75 3.9062,3.75 7.8125,0 26.7188,-18.59375 14.375,-13.90625 23.9062,-26.40625 5.3125,2.1875 5.3125,8.90625 0,2.34375 -0.7812,7.03125 -0.7813,4.6875 -0.7813,7.03125 -31.7187,40.9375 -55.3125,40.9375 -18.9062,0 -25,-30 -3.125,-14.84375 -3.125,-44.53125 0,-13.75 0.9375,-24.6875 -4.2187,-2.5 -10,-2.5 -5.7812,0 -17.0312,3.4375 -11.25,3.28125 -16.875,3.28125 -12.1875,0 -13.75,-15.625 10.9375,-5.625 31.25,-9.6875 24.2187,-4.84375 32.1875,-7.65625 5.9375,-9.21875 11.4062,-36.71875 5.1563,-25 15.4688,-36.25 6.25,0 9.8437,4.0625 1.5625,1.71875 5.4688,9.375 z"
           inkscape:connector-curvature="0" />
        <path
           id="path866"
           style="font-style:normal;font-variant:normal;font-weight:normal;font-stretch:normal;font-size:320px;font-family:'Domestic Manners';-inkscape-font-specification:'Domestic Manners, Normal';font-variant-ligatures:normal;font-variant-caps:normal;font-variant-numeric:normal;font-feature-settings:normal;text-align:start;writing-mode:lr-tb;text-anchor:start;fill:#ff0000;fill-opacity:1;stroke-width:10"
           d="m 2392.6794,330.58762 q 0,7.96875 -7.3438,17.34375 -43.9062,25.9375 -92.5,25.9375 -8.9062,0 -18.2812,-0.9375 -7.9688,5.625 -7.9688,15.3125 0,10 8.125,16.09375 7.1875,5.625 17.5,5.625 14.5313,0 45.7813,-12.65625 31.25,-12.65625 44.5312,-12.65625 7.6563,0 12.5,3.59375 -53.125,46.71875 -96.7187,46.71875 -24.5313,0 -38.4375,-11.40625 -15,-12.34375 -15,-36.25 0,-3.59375 0.3125,-10.46875 0.3125,-7.03125 0.3125,-10.625 0,-10.9375 -3.125,-16.40625 13.75,-2.34375 32.0312,-19.21875 19.5313,-17.96875 29.375,-21.09375 16.25,-5.15625 36.4063,-5.15625 16.4062,0 31.7187,5.46875 20.7813,7.5 20.7813,20.78125 z m -22.6563,0 q -11.5625,-5.78125 -25.625,-5.78125 -12.9687,0 -26.7187,5.15625 -15.4688,5.78125 -22.1875,15 -3.5938,5 -3.5938,7.8125 0,5.3125 9.5313,5.3125 14.5312,0 36.25,-8.75 21.7187,-8.75 32.3437,-18.75 z"
           inkscape:connector-curvature="0" />
        <path
           id="path868"
           style="font-style:normal;font-variant:normal;font-weight:normal;font-stretch:normal;font-size:320px;font-family:'Domestic Manners';-inkscape-font-specification:'Domestic Manners, Normal';font-variant-ligatures:normal;font-variant-caps:normal;font-variant-numeric:normal;font-feature-settings:normal;text-align:start;writing-mode:lr-tb;text-anchor:start;fill:#ff0000;fill-opacity:1;stroke-width:10"
           d="m 2596.5856,198.71262 q 0.3125,6.40625 0.3125,12.8125 0,35.625 -12.6562,82.96875 -12.0313,40.46875 -24.2188,80.9375 1.7188,1.25 3.2813,1.25 1.7187,0 8.125,-6.40625 6.5625,-6.40625 11.7187,-6.40625 -2.1875,8.75 -16.5625,28.75 -12.8125,17.65625 -12.3437,28.75 l 0.1562,2.03125 h 5.625 q 0.1563,8.59375 -10.1562,8.59375 -2.9688,0 -9.375,-1.25 -6.25,-1.25 -9.5313,-1.25 -10.7812,0 -32.5,3.125 -21.5625,2.96875 -32.5,2.96875 -13.75,0 -26.5625,-4.375 -16.0937,-5.46875 -21.4062,-15.46875 -3.4375,-6.40625 -3.4375,-18.90625 0,-37.1875 41.0937,-60.78125 34.8438,-19.84375 75,-19.84375 11.25,0 21.7188,1.5625 7.6562,-19.21875 17.1875,-59.53125 9.6875,-40.3125 17.3437,-59.53125 z m -53.75,144.0625 q -8.75,-2.5 -18.9062,-2.5 -30,0 -58.2813,17.65625 -28.125,17.65625 -28.125,35.15625 0,20.46875 32.3438,20.46875 35.625,0 65.3125,-18.90625 0,-9.84375 3.2812,-26.09375 3.75,-19.0625 4.375,-25.78125 z"
           inkscape:connector-curvature="0" />
      </g>
      <g
         id="text59-3"
         style="font-style:normal;font-variant:normal;font-weight:500;font-stretch:normal;font-size:853.33331299px;line-height:1.25;font-family:Judson;-inkscape-font-specification:'Judson, Medium';font-variant-ligatures:normal;font-variant-caps:normal;font-variant-numeric:normal;font-feature-settings:normal;text-align:start;letter-spacing:0px;word-spacing:0px;writing-mode:lr-tb;text-anchor:start;fill:#ff0000;fill-opacity:1;stroke:none;stroke-width:10"
         aria-label="✗">
        <path
           id="path845"
           d="m 812.07189,82.793533 q 4.16666,0 10.83333,6.666666 7.08333,6.666667 14.58333,17.500001 12.08334,-21.25 19.16667,-21.25 6.25,0 17.08333,11.249999 6.66667,7.083331 6.66667,15.833331 0,11.25 -9.16667,20.83334 -86.66666,94.16666 -168.33333,207.08332 33.75,82.5 93.33333,182.08333 5,8.33334 5,13.33334 0,9.58333 -12.5,20 l -13.33333,9.16666 q 1.66667,5 1.66667,13.33333 0,12.5 -9.16667,19.16667 -10.83333,7.5 -15.83333,7.5 -10.83333,0 -19.16667,-10.83333 -50,-64.16667 -103.33333,-150.83333 -71.66666,93.33333 -164.16666,249.16666 -13.33333,22.5 -45,22.5 -15,0 -16.66667,-17.5 -21.25,-11.66667 -21.25,-37.08333 0,-33.33334 4.58334,-46.25 2.08333,-5.83334 13.33333,-23.33334 85,-132.49999 180,-243.33332 -50.83334,-120.83333 -67.5,-186.25 -3.75,-14.58333 -3.75,-18.75 0,-5.83333 7.5,-16.66666 7.91666,-10.83334 14.58333,-10.83334 6.25,0 15.83333,12.08334 3.75,-7.08334 9.16667,-12.08334 7.5,-6.66666 19.16667,-6.66666 13.33333,0 17.5,12.5 22.49999,69.99999 59.16666,133.33333 59.16667,-76.66667 144.16666,-161.666667 10,-10 15.83334,-10 z"
           inkscape:connector-curvature="0" />
      </g>
    </g>
  </g>
</svg>
