<?xml version="1.0" encoding="UTF-8" standalone="no"?>
<svg
   width="600"
   height="600"
   version="1.1"
   id="svg1"
   sodipodi:docname="Bluesky_Logo.svg"
   inkscape:version="1.3 (0e150ed6c4, 2023-07-21)"
   xmlns:inkscape="http://www.inkscape.org/namespaces/inkscape"
   xmlns:sodipodi="http://sodipodi.sourceforge.net/DTD/sodipodi-0.dtd"
   xmlns="http://www.w3.org/2000/svg"
   xmlns:svg="http://www.w3.org/2000/svg">
  <defs
     id="defs1" />
  <sodipodi:namedview
     id="namedview1"
     pagecolor="#ffffff"
     bordercolor="#666666"
     borderopacity="1.0"
     inkscape:showpageshadow="2"
     inkscape:pageopacity="0.0"
     inkscape:pagecheckerboard="true"
     inkscape:deskcolor="#d1d1d1"
     labelstyle="default"
     inkscape:zoom="0.39591309"
     inkscape:cx="900.45015"
     inkscape:cy="295.5194"
     inkscape:window-width="1542"
     inkscape:window-height="1250"
     inkscape:window-x="896"
     inkscape:window-y="60"
     inkscape:window-maximized="0"
     inkscape:current-layer="svg1" />
  <circle
     style="font-variation-settings:'wght' 700;fill:#1185fe;fill-rule:evenodd;stroke:#6a6a6a;stroke-width:1;stroke-linecap:round;fill-opacity:1"
     id="path2"
     cx="300"
     cy="300"
     r="299.5" />
  <path
     d="m 200.10783,165.63839 c 40.43401,30.3553 83.92538,91.9032 99.89321,124.93339 15.96905,-33.02775 59.45798,-94.5787 99.8932,-124.93339 29.17505,-21.90318 76.44616,-38.8506 76.44616,15.07701 0,10.77008 -6.17492,90.47425 -9.79657,103.41391 -12.5888,44.98721 -58.46197,56.46143 -99.26689,49.5167 71.32623,12.13945 89.47094,52.34969 50.28529,92.55992 -74.42129,76.36711 -106.96502,-19.16079 -115.3077,-43.63852 -1.52868,-4.48735 -2.24401,-6.58657 -2.25452,-4.80153 -0.0106,-1.7851 -0.72585,0.31418 -2.25453,4.80153 -8.33903,24.47773 -40.88216,120.00806 -115.3077,43.63852 -39.18626,-40.21023 -21.04215,-80.42291 50.28529,-92.55992 -40.80614,6.94473 -86.67991,-4.52955 -99.26689,-49.5167 -3.62177,-12.94087 -9.79657,-92.64505 -9.79657,-103.41391 0,-53.92761 47.27233,-36.98019 76.44616,-15.07701 z"
     fill="#1185fe"
     id="path1"
     style="fill:#ffffff;fill-opacity:1;stroke-width:1" />
</svg>
