<?xml version="1.0" encoding="UTF-8" standalone="no"?>
<!-- Created with Inkscape (http://www.inkscape.org/) -->

<svg
   width="237.563mm"
   height="52.617001mm"
   viewBox="-5 -5 237.563 52.617001"
   version="1.1"
   id="svg13667"
   inkscape:version="1.2.2 (b0a8486541, 2022-12-01)"
   sodipodi:docname="apache-cxf-logo.svg"
   xml:space="preserve"
   xmlns:inkscape="http://www.inkscape.org/namespaces/inkscape"
   xmlns:sodipodi="http://sodipodi.sourceforge.net/DTD/sodipodi-0.dtd"
   xmlns:xlink="http://www.w3.org/1999/xlink"
   xmlns="http://www.w3.org/2000/svg"
   xmlns:svg="http://www.w3.org/2000/svg"
   xmlns:rdf="http://www.w3.org/1999/02/22-rdf-syntax-ns#"
   xmlns:cc="http://creativecommons.org/ns#"
   xmlns:dc="http://purl.org/dc/elements/1.1/"><defs
     id="defs13661"><linearGradient
       id="o"
       x1="-6953.4072"
       x2="-6011.9995"
       y1="1134.7161"
       y2="1134.7161"
       gradientTransform="rotate(-65.001,-2052.9243,-4777.8542)"
       gradientUnits="userSpaceOnUse">
    <stop
   offset=".3233"
   stop-color="#9e2064"
   id="stop1847" />
    <stop
   offset=".6302"
   stop-color="#c92037"
   id="stop1849" />
    <stop
   offset=".7514"
   stop-color="#cd2335"
   id="stop1851" />
    <stop
   offset="1"
   stop-color="#e97826"
   id="stop1853" />
  </linearGradient><linearGradient
       id="m"
       x1="-9346.126"
       x2="-5086.9941"
       y1="1137.7247"
       y2="1137.7247"
       gradientTransform="rotate(-65.001,-2052.9243,-4777.8542)"
       gradientUnits="userSpaceOnUse">
    <stop
   offset=".3233"
   stop-color="#9e2064"
   id="stop1832" />
    <stop
   offset=".6302"
   stop-color="#c92037"
   id="stop1834" />
    <stop
   offset=".7514"
   stop-color="#cd2335"
   id="stop1836" />
    <stop
   offset="1"
   stop-color="#e97826"
   id="stop1838" />
  </linearGradient><linearGradient
       id="k"
       x1="-9346.126"
       x2="-5086.9941"
       y1="1152.7261"
       y2="1152.7261"
       gradientTransform="rotate(-65.001,-2052.9243,-4777.8542)"
       gradientUnits="userSpaceOnUse">
    <stop
   offset=".3233"
   stop-color="#9e2064"
   id="stop1817" />
    <stop
   offset=".6302"
   stop-color="#c92037"
   id="stop1819" />
    <stop
   offset=".7514"
   stop-color="#cd2335"
   id="stop1821" />
    <stop
   offset="1"
   stop-color="#e97826"
   id="stop1823" />
  </linearGradient><linearGradient
       id="i"
       x1="-9610.334"
       x2="-5351.2017"
       y1="999.73297"
       y2="999.73297"
       gradientTransform="rotate(-65.001,-2052.9243,-4777.8542)"
       gradientUnits="userSpaceOnUse">
    <stop
   offset=".3233"
   stop-color="#9e2064"
   id="stop1802" />
    <stop
   offset=".6302"
   stop-color="#c92037"
   id="stop1804" />
    <stop
   offset=".7514"
   stop-color="#cd2335"
   id="stop1806" />
    <stop
   offset="1"
   stop-color="#e97826"
   id="stop1808" />
  </linearGradient><linearGradient
       id="h"
       x1="-9346.126"
       x2="-5086.9941"
       y1="1021.6218"
       y2="1021.6218"
       gradientTransform="rotate(-65.001,-2052.9243,-4777.8542)"
       gradientUnits="userSpaceOnUse">
    <stop
   offset=".3233"
   stop-color="#9e2064"
   id="stop1791" />
    <stop
   offset=".6302"
   stop-color="#c92037"
   id="stop1793" />
    <stop
   offset=".7514"
   stop-color="#cd2335"
   id="stop1795" />
    <stop
   offset="1"
   stop-color="#e97826"
   id="stop1797" />
  </linearGradient><linearGradient
       id="g"
       x1="-9035.5029"
       x2="-6797.2012"
       y1="638.4408"
       y2="638.4408"
       gradientTransform="rotate(-65.001,-2052.9243,-4777.8542)"
       gradientUnits="userSpaceOnUse">
    <stop
   offset="0"
   stop-color="#282662"
   id="stop1780" />
    <stop
   offset=".0954839"
   stop-color="#662e8d"
   id="stop1782" />
    <stop
   offset=".7882"
   stop-color="#9f2064"
   id="stop1784" />
    <stop
   offset=".9487"
   stop-color="#cd2032"
   id="stop1786" />
  </linearGradient><linearGradient
       id="f"
       x1="-9346.126"
       x2="-5086.9941"
       y1="580.81702"
       y2="580.81702"
       gradientTransform="rotate(-65.001,-2052.9243,-4777.8542)"
       gradientUnits="userSpaceOnUse">
    <stop
   offset=".3233"
   stop-color="#9e2064"
   id="stop1769" />
    <stop
   offset=".6302"
   stop-color="#c92037"
   id="stop1771" />
    <stop
   offset=".7514"
   stop-color="#cd2335"
   id="stop1773" />
    <stop
   offset="1"
   stop-color="#e97826"
   id="stop1775" />
  </linearGradient><linearGradient
       id="e"
       x1="-9071.207"
       x2="-6533.1782"
       y1="1047.6898"
       y2="1047.6898"
       gradientTransform="rotate(-65.001,-2052.9243,-4777.8542)"
       gradientUnits="userSpaceOnUse">
    <stop
   offset="0"
   stop-color="#282662"
   id="stop1758" />
    <stop
   offset=".0954839"
   stop-color="#662e8d"
   id="stop1760" />
    <stop
   offset=".7882"
   stop-color="#9f2064"
   id="stop1762" />
    <stop
   offset=".9487"
   stop-color="#cd2032"
   id="stop1764" />
  </linearGradient><linearGradient
       id="d"
       x1="-9585.3418"
       x2="-5326.209"
       y1="620.50482"
       y2="620.50482"
       gradientTransform="rotate(-65.001,-2052.9243,-4777.8542)"
       gradientUnits="userSpaceOnUse">
    <stop
   offset=".3233"
   stop-color="#9e2064"
   id="stop1747" />
    <stop
   offset=".6302"
   stop-color="#c92037"
   id="stop1749" />
    <stop
   offset=".7514"
   stop-color="#cd2335"
   id="stop1751" />
    <stop
   offset="1"
   stop-color="#e97826"
   id="stop1753" />
  </linearGradient><linearGradient
       id="a"
       x1="-5167.0962"
       x2="-4570.1162"
       y1="697.55487"
       y2="1395.619"
       gradientTransform="rotate(-65.001,-2052.9243,-4777.8542)"
       gradientUnits="userSpaceOnUse">
    <stop
   offset="0"
   stop-color="#f69923"
   id="stop1728" />
    <stop
   offset=".3123"
   stop-color="#f79a23"
   id="stop1730" />
    <stop
   offset=".8383"
   stop-color="#e97826"
   id="stop1732" />
  </linearGradient><path
       id="b"
       fill="#be202e"
       d="m 1393.2,1934.8 c -15.4,2.8 -31.3,5.5 -47.6,8.3 -0.1,0 -0.2,0.1 -0.3,0.1 8.2,-1.2 16.3,-2.4 24.3,-3.8 8,-1.4 15.8,-2.9 23.6,-4.6 z" /><path
       id="c"
       fill="#be202e"
       d="m 1433.6,1735.5 c 0,0 -0.1,0 -0.1,0.1 -0.1,0 -0.1,0.1 -0.2,0.1 2.6,-0.3 5.1,-0.8 7.6,-1.1 10.3,-1.5 20.4,-3.3 30.2,-5.4 -12.3,2 -24.8,4.2 -37.5,6.3 z" /><path
       id="j"
       fill="#be202e"
       d="m 1369.6,1939.4 c -8,1.4 -16.1,2.7 -24.3,3.8 8.2,-1.1 16.3,-2.4 24.3,-3.8 z" /><path
       id="l"
       fill="#be202e"
       d="m 1433.2,1735.7 c 2.6,-0.3 5.1,-0.8 7.6,-1.1 -2.5,0.3 -5,0.7 -7.6,1.1 z" /><path
       id="n"
       fill="#be202e"
       d="m 1433.5,1735.6 c 0,0 0.1,0 0.1,-0.1 0,0 -0.1,0 -0.1,0.1 z" /></defs><sodipodi:namedview
     id="base"
     pagecolor="#ffffff"
     bordercolor="#666666"
     borderopacity="1.0"
     inkscape:pageopacity="0.0"
     inkscape:pageshadow="2"
     inkscape:zoom="0.7"
     inkscape:cx="1587.8571"
     inkscape:cy="-62.142857"
     inkscape:document-units="mm"
     inkscape:current-layer="layer1"
     showgrid="false"
     fit-margin-top="0"
     fit-margin-left="0"
     fit-margin-right="0"
     fit-margin-bottom="0"
     inkscape:window-width="4970"
     inkscape:window-height="1403"
     inkscape:window-x="0"
     inkscape:window-y="0"
     inkscape:window-maximized="1"
     inkscape:showpageshadow="2"
     inkscape:pagecheckerboard="0"
     inkscape:deskcolor="#d1d1d1" /><metadata
     id="metadata13664"><rdf:RDF><cc:Work
         rdf:about=""><dc:format>image/svg+xml</dc:format><dc:type
           rdf:resource="http://purl.org/dc/dcmitype/StillImage" /></cc:Work></rdf:RDF></metadata><g
     inkscape:label="Layer 1"
     inkscape:groupmode="layer"
     id="layer1"
     transform="translate(41.95536,-100.71986)"><g
       aria-label="Apache CXF"
       style="font-style:normal;font-variant:normal;font-weight:normal;font-stretch:normal;font-size:37.696px;line-height:125%;font-family:Montserrat;-inkscape-font-specification:Montserrat;letter-spacing:0px;word-spacing:0px;fill:#1b4171;fill-opacity:1;stroke:none;stroke-width:1.37076px;stroke-linecap:butt;stroke-linejoin:miter;stroke-opacity:1"
       id="text14214"
       transform="matrix(0.82773176,0,0,0.82773176,-2.4743049,23.798795)"><path
         d="m -6.9746867,124.84297 -2.638717,5.99365 H -14.363094 L -2.7527395,104.48715 H 1.9969511 L 13.607306,130.83662 H 8.8576153 l -2.638717,-5.99365 z m 11.384179,-4.10886 -4.78738651,-10.85644 -4.78738659,10.85644 z"
         style="fill:#1b4171;fill-opacity:1;stroke-width:1.37076px"
         id="path14216"
         inkscape:connector-curvature="0" /><path
         d="m 27.411094,110.48081 q 4.033468,0 6.898361,2.7895 2.864892,2.7895 2.864892,7.4261 0,4.6366 -2.864892,7.53919 -2.827197,2.90259 -6.634489,2.90259 -3.769596,0 -6.785272,-3.31724 v 10.32869 h -4.221947 v -27.36727 h 4.221947 v 3.50573 q 2.487933,-3.80729 6.5214,-3.80729 z m -6.596792,10.36639 q 0,2.86489 1.734014,4.71199 1.734014,1.80941 4.221947,1.80941 2.487933,0 4.335035,-1.80941 1.847102,-1.80941 1.847102,-4.6743 0,-2.90259 -1.809406,-4.78739 -1.809406,-1.92249 -4.335035,-1.92249 -2.525629,0 -4.259643,1.92249 -1.734014,1.8848 -1.734014,4.7497 z"
         style="fill:#1b4171;fill-opacity:1;stroke-width:1.37076px"
         id="path14218"
         inkscape:connector-curvature="0" /><path
         d="m 58.241675,130.83662 h -3.844987 v -2.67641 q -2.487934,2.97798 -6.672185,2.97798 -3.128764,0 -5.202042,-1.77171 -2.035582,-1.77171 -2.035582,-4.71199 0,-2.97798 2.186366,-4.44813 2.186365,-1.47014 5.918265,-1.47014 h 5.465914 v -0.75392 q 0,-3.99577 -4.448123,-3.99577 -2.789501,0 -5.805177,2.03558 l -1.884798,-2.63871 q 3.656508,-2.90259 8.29311,-2.90259 3.54342,0 5.767482,1.8094 2.261757,1.77171 2.261757,5.6167 z m -4.221947,-7.4638 v -1.69631 h -4.749691 q -4.56121,0 -4.56121,2.86489 0,1.47014 1.130878,2.26176 1.130879,0.75392 3.128765,0.75392 2.035582,0 3.54342,-1.13088 1.507838,-1.13088 1.507838,-3.05338 z"
         style="fill:#1b4171;fill-opacity:1;stroke-width:1.37076px"
         id="path14220"
         inkscape:connector-curvature="0" /><path
         d="m 73.052062,131.13819 q -4.184251,0 -7.199928,-2.82719 -3.015676,-2.8649 -3.015676,-7.4638 0,-4.59891 3.128764,-7.4638 3.166461,-2.90259 7.689975,-2.90259 4.523515,0 7.65228,3.12876 l -2.487933,3.05337 q -2.601021,-2.26175 -5.239738,-2.26175 -2.638717,0 -4.598907,1.77171 -1.922494,1.73401 -1.922494,4.52351 0,2.75181 1.922494,4.6743 1.922494,1.92249 4.711994,1.92249 2.827197,0 5.31513,-2.56332 l 2.487934,2.71411 q -3.656508,3.6942 -8.443895,3.6942 z"
         style="fill:#1b4171;fill-opacity:1;stroke-width:1.37076px"
         id="path14222"
         inkscape:connector-curvature="0" /><path
         d="m 90.097116,119.98019 v 10.85643 h -4.221947 v -27.9327 h 4.221947 v 11.53496 q 0.904703,-1.8471 2.714109,-2.90259 1.847102,-1.05548 3.958076,-1.05548 3.392639,0 5.465909,2.07327 2.11098,2.07328 2.11098,5.99366 v 12.28888 h -4.22195 V 119.8294 q 0,-5.5413 -4.598906,-5.5413 -2.186366,0 -3.807292,1.47014 -1.620926,1.43245 -1.620926,4.22195 z"
         style="fill:#1b4171;fill-opacity:1;stroke-width:1.37076px"
         id="path14224"
         inkscape:connector-curvature="0" /><path
         d="M 128.90452,122.6566 H 113.1853 q 0.15079,2.18637 1.99789,3.54342 1.8471,1.31936 4.22195,1.31936 3.76959,0 5.72978,-2.37485 l 2.41254,2.63872 q -3.24185,3.35494 -8.44389,3.35494 -4.22195,0 -7.19993,-2.7895 -2.94028,-2.8272 -2.94028,-7.53919 0,-4.74969 3.01567,-7.53919 3.01568,-2.7895 7.08684,-2.7895 4.10886,0 6.97376,2.48793 2.86489,2.45024 2.86489,6.78527 z m -15.71922,-3.31724 h 11.49727 q 0,-2.52563 -1.58323,-3.88269 -1.58323,-1.35705 -3.92038,-1.35705 -2.29945,0 -4.14655,1.43245 -1.84711,1.39475 -1.84711,3.80729 z"
         style="fill:#1b4171;fill-opacity:1;stroke-width:1.37076px"
         id="path14226"
         inkscape:connector-curvature="0" /><path
         d="m 156.44612,126.80316 q 2.29946,0 3.95808,-0.75392 1.65862,-0.79162 3.46803,-2.48794 l 2.86489,2.94029 q -4.18425,4.6366 -10.17791,4.6366 -5.95596,0 -9.91403,-3.84499 -3.92038,-3.84498 -3.92038,-9.72555 0,-5.88057 3.99577,-9.80095 4.03347,-3.92038 10.14021,-3.92038 6.14444,0 10.2533,4.52351 l -2.8272,3.09107 q -1.88479,-1.8094 -3.58111,-2.52563 -1.65862,-0.71622 -3.92038,-0.71622 -3.99577,0 -6.70988,2.60102 -2.71411,2.56333 -2.71411,6.59679 0,3.99577 2.67641,6.70988 2.71411,2.67642 6.40831,2.67642 z"
         style="fill:#1b4171;fill-opacity:1;stroke-width:1.37076px"
         id="path14228"
         inkscape:connector-curvature="0" /><path
         d="m 187.78383,130.83662 -6.4837,-9.91403 h -0.18848 l -6.48371,9.91403 h -5.5413 l 9.04703,-13.53284 -8.4062,-12.81663 h 5.50361 l 5.88057,8.89625 h 0.18848 l 5.88057,-8.89625 h 5.50361 l -8.4062,12.81663 9.04703,13.53284 z"
         style="fill:#1b4171;fill-opacity:1;stroke-width:1.37076px"
         id="path14230"
         inkscape:connector-curvature="0" /><path
         d="m 202.02643,108.63371 v 7.23762 h 11.68575 v 4.10886 h -11.68575 v 10.85643 h -4.44812 v -26.34947 h 17.56632 l -0.0377,4.14656 z"
         style="fill:#1b4171;fill-opacity:1;stroke-width:1.37076px"
         id="path14232"
         inkscape:connector-curvature="0" /></g><g
       id="g5048"
       transform="matrix(0.01008298,0,0,0.01008298,-41.95536,100.72)"
       style="stroke-width:99.1769"><path
         fill="url(#a)"
         d="M 1798.9,20.1 C 1732.6,59.2 1622.5,170 1491,330.5 l 120.8,228 c 84.8,-121.3 170.9,-230.4 257.8,-323.6 6.7,-7.4 10.2,-10.9 10.2,-10.9 -3.4,3.6 -6.8,7.3 -10.2,10.9 -28.1,31 -113.4,130.5 -242.1,328.1 123.9,-6.2 314.3,-31.5 469.6,-58.1 46.2,-258.8 -45.3,-377.3 -45.3,-377.3 0,0 -116.3,-188.2 -252.9,-107.5 z"
         id="path1735"
         style="fill:url(#a);stroke-width:99.1769" /><path
         fill="none"
         d="m 1594.4,1320.7 c 0.9,-0.2 1.8,-0.3 2.7,-0.5 l -17.4,1.9 c -1.1,0.5 -2,1 -3.1,1.4 6,-0.9 11.9,-1.9 17.8,-2.8 z m -123.3,408.4 c -9.9,2.2 -20,3.9 -30.2,5.4 10.2,-1.5 20.3,-3.3 30.2,-5.4 z m -838,916.1 c 1.3,-3.4 2.6,-6.8 3.8,-10.2 26.6,-70.2 52.9,-138.4 79,-204.9 29.3,-74.6 58.2,-146.8 86.8,-216.8 30.1,-73.8 59.8,-145.1 89.1,-214 30.7,-72.3 61,-141.9 90.7,-208.9 24.2,-54.5 48,-107.3 71.5,-158.4 7.8,-17 15.6,-33.9 23.4,-50.6 15.4,-33.1 30.7,-65.6 45.7,-97.3 13.9,-29.3 27.7,-57.9 41.4,-86 4.5,-9.4 9.1,-18.6 13.6,-27.9 0.7,-1.5 1.5,-3 2.2,-4.5 l -14.8,1.6 -11.8,-23.2 c -1.1,2.3 -2.3,4.5 -3.5,6.8 -21.2,42.1 -42.2,84.6 -63,127.5 -12,24.8 -24,49.7 -35.9,74.7 -33,69.3 -65.5,139.2 -97.4,209.6 -32.3,71.1 -63.9,142.6 -94.9,214.2 -30.5,70.3 -60.3,140.7 -89.6,210.9 -29.2,70.1 -57.7,140 -85.6,209.4 -29.1,72.5 -57.4,144.3 -84.8,215.3 -6.2,16 -12.4,32 -18.5,48 -22,57.3 -43.4,113.8 -64.3,169.6 l 18.6,36.7 16.6,-1.8 c 0.6,-1.7 1.2,-3.4 1.8,-5 26.9,-73.5 53.5,-145.1 79.9,-214.8 z m 800.1,-909.5 c 0.1,0 0.1,-0.1 0.2,-0.1 0,0 -0.1,0 -0.2,0.1 z"
         id="path1737"
         style="stroke-width:345.387" /><path
         id="use1739"
         fill="#be202e"
         d="m 1393.2,1934.8 c -15.4,2.8 -31.3,5.5 -47.6,8.3 -0.1,0 -0.2,0.1 -0.3,0.1 8.2,-1.2 16.3,-2.4 24.3,-3.8 8,-1.4 15.8,-2.9 23.6,-4.6 z"
         style="stroke-width:345.387" /><path
         id="use1741"
         fill="#be202e"
         d="m 1393.2,1934.8 c -15.4,2.8 -31.3,5.5 -47.6,8.3 -0.1,0 -0.2,0.1 -0.3,0.1 8.2,-1.2 16.3,-2.4 24.3,-3.8 8,-1.4 15.8,-2.9 23.6,-4.6 z"
         style="opacity:0.35;stroke-width:345.387" /><path
         id="use1743"
         fill="#be202e"
         d="m 1433.6,1735.5 c 0,0 -0.1,0 -0.1,0.1 -0.1,0 -0.1,0.1 -0.2,0.1 2.6,-0.3 5.1,-0.8 7.6,-1.1 10.3,-1.5 20.4,-3.3 30.2,-5.4 -12.3,2 -24.8,4.2 -37.5,6.3 z"
         style="stroke-width:345.387" /><path
         id="use1745"
         fill="#be202e"
         d="m 1433.6,1735.5 c 0,0 -0.1,0 -0.1,0.1 -0.1,0 -0.1,0.1 -0.2,0.1 2.6,-0.3 5.1,-0.8 7.6,-1.1 10.3,-1.5 20.4,-3.3 30.2,-5.4 -12.3,2 -24.8,4.2 -37.5,6.3 z"
         style="opacity:0.35;stroke-width:345.387" /><path
         fill="url(#d)"
         d="m 1255.7,1147.6 c 36.7,-68.6 73.9,-135.7 111.5,-201 39,-67.8 78.5,-133.6 118.4,-197 2.3,-3.7 4.7,-7.5 7,-11.3 39.4,-62.4 79.2,-122.4 119.3,-179.8 l -120.8,-228 c -9.1,11.1 -18.2,22.4 -27.5,33.9 -34.8,43.4 -71,90.1 -108.1,139.6 -41.8,55.8 -84.8,115.4 -128.5,177.9 -40.3,57.8 -81.2,118.3 -122.1,180.9 -34.8,53.3 -69.8,108.2 -104.5,164.5 l -3.9,6.3 157.2,310.5 c 33.6,-66.5 67.6,-132.1 102,-196.5 z"
         id="path1756"
         style="fill:url(#d);stroke-width:99.1769" /><path
         fill="url(#e)"
         d="m 539.7,2897.1 c -20.8,57.2 -41.7,115.4 -62.7,174.9 -0.3,0.9 -0.6,1.7 -0.9,2.6 -3,8.4 -5.9,16.8 -8.9,25.2 -14.1,40.1 -26.4,76.2 -54.5,158.3 46.3,21.1 83.5,76.7 118.7,139.8 -3.7,-65.3 -30.8,-126.7 -82.1,-174.2 228.3,10.3 425,-47.4 526.7,-214.3 9.1,-14.9 17.4,-30.5 24.9,-47.2 -46.2,58.6 -103.5,83.5 -211.4,77.4 -0.2,0.1 -0.5,0.2 -0.7,0.3 0.2,-0.1 0.5,-0.2 0.7,-0.3 158.8,-71.1 238.5,-139.3 308.9,-252.4 16.7,-26.8 32.9,-56.1 49.5,-88.6 C 1009,2841.2 848.1,2881.8 678.6,2851 l -127.1,13.9 c -4,10.7 -7.9,21.4 -11.8,32.2 z"
         id="path1767"
         style="fill:url(#e);stroke-width:99.1769" /><path
         fill="url(#f)"
         d="m 599,2612.4 c 27.5,-71 55.8,-142.8 84.8,-215.3 27.8,-69.4 56.4,-139.2 85.6,-209.4 29.2,-70.2 59.1,-140.5 89.6,-210.9 31,-71.6 62.7,-143.1 94.9,-214.2 31.9,-70.3 64.4,-140.3 97.4,-209.6 11.9,-25 23.9,-49.9 35.9,-74.7 20.8,-42.9 41.8,-85.4 63,-127.5 1.1,-2.3 2.3,-4.5 3.5,-6.8 L 996.5,1033.5 c -2.6,4.2 -5.1,8.4 -7.7,12.6 -36.6,59.8 -73.1,121 -108.9,183.5 -36.2,63.1 -71.7,127.4 -106.4,192.6 -29.3,55 -57.9,110.5 -85.7,166.5 -5.6,11.4 -11.1,22.6 -16.6,33.9 -34.3,70.5 -65.2,138.6 -93.2,204.1 -31.7,74.2 -59.6,145.1 -84,212.3 -16.1,44.2 -30.7,86.9 -44.1,127.9 -11,35 -21.5,70.1 -31.4,105 -23.5,82.3 -43.7,164.4 -60.3,246.2 l 158,311.9 c 20.9,-55.8 42.3,-112.3 64.3,-169.6 6.1,-15.9 12.3,-32 18.5,-48 z"
         id="path1778"
         style="fill:url(#f);stroke-width:99.1769" /><path
         fill="url(#g)"
         d="m 356.1,2529.2 c -19.8,99.8 -33.9,199.2 -41,298 -0.2,3.5 -0.6,6.9 -0.8,10.4 -49.3,-79 -181.3,-156.1 -181,-155.4 94.5,137 166.2,273 176.9,406.5 -50.6,10.4 -119.9,-4.6 -200,-34.1 83.5,76.7 146.2,97.9 170.6,103.6 -76.7,4.8 -156.6,57.5 -237.1,118.2 117.7,-48 212.8,-67 280.9,-51.6 -108,305.8 -216.3,643.4 -324.6,1001.8 33.2,-9.8 53,-32.1 64.1,-62.3 19.3,-64.9 147.4,-490.7 348.1,-1050.4 5.7,-15.9 11.5,-31.9 17.3,-48 1.6,-4.5 3.3,-9 4.9,-13.4 21.2,-58.7 43.2,-118.6 65.9,-179.7 5.2,-13.9 10.4,-27.8 15.6,-41.8 0.1,-0.3 0.2,-0.6 0.3,-0.8 L 358.4,2518.4 c -0.7,3.5 -1.6,7.1 -2.3,10.8 z"
         id="path1789"
         style="fill:url(#g);stroke-width:99.1769" /><path
         fill="url(#h)"
         d="m 1178.1,1370.3 c -4.5,9.2 -9,18.5 -13.6,27.9 -13.6,28.1 -27.4,56.7 -41.4,86 -15.1,31.7 -30.3,64.1 -45.7,97.3 -7.8,16.7 -15.5,33.5 -23.4,50.6 -23.5,51.1 -47.3,103.9 -71.5,158.4 -29.7,67 -60,136.6 -90.7,208.9 -29.3,68.9 -59,140.2 -89.1,214 -28.6,70 -57.5,142.3 -86.8,216.8 -26.1,66.5 -52.4,134.7 -79,204.9 -1.3,3.4 -2.6,6.8 -3.8,10.2 -26.4,69.7 -53,141.3 -79.8,214.7 -0.6,1.7 -1.2,3.4 -1.8,5 l 127.1,-13.9 c -2.5,-0.5 -5.1,-0.8 -7.6,-1.3 152,-18.9 354,-132.5 484.6,-272.7 60.2,-64.6 114.8,-140.8 165.3,-230 37.6,-66.4 72.9,-140 106.5,-221.5 29.4,-71.2 57.6,-148.3 84.8,-231.9 -34.9,18.4 -74.9,31.9 -119,41.3 -7.7,1.6 -15.6,3.2 -23.6,4.6 -8,1.4 -16.1,2.7 -24.3,3.8 0.1,0 0.2,-0.1 0.3,-0.1 141.7,-54.5 231.1,-159.8 296.1,-288.7 -37.3,25.4 -97.9,58.7 -170.5,74.7 -9.9,2.2 -20,3.9 -30.2,5.4 -2.6,0.4 -5.1,0.8 -7.6,1.1 0.1,0 0.1,-0.1 0.2,-0.1 0,0 0.1,0 0.1,-0.1 49.2,-20.6 90.7,-43.6 126.7,-70.8 7.7,-5.8 15.2,-11.8 22.4,-18.1 11,-9.5 21.4,-19.5 31.4,-30 6.4,-6.7 12.6,-13.6 18.6,-20.8 14.1,-16.8 27.3,-34.9 39.7,-54.6 3.8,-6 7.5,-12.1 11.2,-18.4 4.7,-9.1 9.2,-18 13.6,-26.8 19.8,-39.8 35.6,-75.3 48.2,-106.5 6.3,-15.6 11.8,-30 16.5,-43.4 1.9,-5.3 3.7,-10.5 5.4,-15.5 5,-15 9.1,-28.3 12.3,-40 4.8,-17.5 7.7,-31.4 9.3,-41.5 -4.8,3.8 -10.3,7.6 -16.5,11.3 -42.8,25.6 -116.2,48.8 -175.4,59.7 l 116.7,-12.8 -116.7,12.8 c -0.9,0.2 -1.8,0.3 -2.7,0.5 -5.9,1 -11.9,1.9 -17.9,2.9 1.1,-0.5 2,-1 3.1,-1.4 l -399.3,43.8 c -0.7,1.4 -1.4,2.8 -2.2,4.3 z"
         id="path1800"
         style="fill:url(#h);stroke-width:99.1769" /><path
         fill="url(#i)"
         d="m 1627.6,563.1 c -35.5,54.5 -74.3,116.4 -116,186.5 -2.2,3.6 -4.4,7.4 -6.6,11.1 -36,60.7 -74.3,127.3 -114.5,200.3 -34.8,63 -71,130.6 -108.6,203.3 -32.8,63.3 -66.7,130.5 -101.5,201.6 l 399.3,-43.8 c 116.3,-53.5 168.3,-101.9 218.8,-171.9 13.4,-19.3 26.9,-39.5 40.3,-60.4 41,-64 81.2,-134.5 117.2,-204.6 34.7,-67.7 65.3,-134.8 88.8,-195.3 14.9,-38.5 26.9,-74.3 35.2,-105.7 7.3,-27.7 13,-54 17.4,-79.1 -155.5,26.5 -345.9,51.9 -469.8,58 z"
         id="path1811"
         style="fill:url(#i);stroke-width:99.1769" /><path
         id="use1813"
         fill="#be202e"
         d="m 1369.6,1939.4 c -8,1.4 -16.1,2.7 -24.3,3.8 8.2,-1.1 16.3,-2.4 24.3,-3.8 z"
         style="stroke-width:345.387" /><path
         id="use1815"
         fill="#be202e"
         d="m 1369.6,1939.4 c -8,1.4 -16.1,2.7 -24.3,3.8 8.2,-1.1 16.3,-2.4 24.3,-3.8 z"
         style="opacity:0.35;stroke-width:345.387" /><path
         fill="url(#k)"
         d="m 1369.6,1939.4 c -8,1.4 -16.1,2.7 -24.3,3.8 8.2,-1.1 16.3,-2.4 24.3,-3.8 z"
         id="path1826"
         style="fill:url(#k);stroke-width:99.1769" /><path
         id="use1828"
         fill="#be202e"
         d="m 1433.2,1735.7 c 2.6,-0.3 5.1,-0.8 7.6,-1.1 -2.5,0.3 -5,0.7 -7.6,1.1 z"
         style="stroke-width:345.387" /><path
         id="use1830"
         fill="#be202e"
         d="m 1433.2,1735.7 c 2.6,-0.3 5.1,-0.8 7.6,-1.1 -2.5,0.3 -5,0.7 -7.6,1.1 z"
         style="opacity:0.35;stroke-width:345.387" /><path
         fill="url(#m)"
         d="m 1433.2,1735.7 c 2.6,-0.3 5.1,-0.8 7.6,-1.1 -2.5,0.3 -5,0.7 -7.6,1.1 z"
         id="path1841"
         style="fill:url(#m);stroke-width:99.1769" /><path
         id="use1843"
         fill="#be202e"
         d="m 1433.5,1735.6 c 0,0 0.1,0 0.1,-0.1 0,0 -0.1,0 -0.1,0.1 z"
         style="stroke-width:345.387" /><path
         id="use1845"
         fill="#be202e"
         d="m 1433.5,1735.6 c 0,0 0.1,0 0.1,-0.1 0,0 -0.1,0 -0.1,0.1 z"
         style="opacity:0.35;stroke-width:345.387" /><path
         fill="url(#o)"
         d="m 1433.5,1735.6 c 0,0 0.1,0 0.1,-0.1 0,0 -0.1,0 -0.1,0.1 z"
         id="path1856"
         style="fill:url(#o);stroke-width:99.1769" /><path
         fill="#6d6e71"
         d="m 2218.7,387 v 11.7 h 27.4 v 77.4 h 12.7 v -77.4 h 27.6 V 387 Z m 158.3,0 -30.6,62.2 -30.8,-62.2 h -15.3 v 89.1 h 11.7 v -70.7 l 30.3,61.3 h 8.1 l 30.3,-61.3 v 70.7 h 11.7 V 387 Z"
         id="path1858"
         style="stroke-width:345.387" /></g><g
       id="g5072"
       transform="translate(0,0.01343711)" /><g
       id="g7871"
       transform="matrix(0.26458333,0,0,0.26458333,-1882.072,-855.35701)"><path
         fill="url(#a)"
         d="M 1798.9,20.1 C 1732.6,59.2 1622.5,170 1491,330.5 l 120.8,228 c 84.8,-121.3 170.9,-230.4 257.8,-323.6 6.7,-7.4 10.2,-10.9 10.2,-10.9 -3.4,3.6 -6.8,7.3 -10.2,10.9 -28.1,31 -113.4,130.5 -242.1,328.1 123.9,-6.2 314.3,-31.5 469.6,-58.1 46.2,-258.8 -45.3,-377.3 -45.3,-377.3 0,0 -116.3,-188.2 -252.9,-107.5 z"
         id="path7715"
         style="fill:url(#a-3)" /><path
         fill="none"
         d="m 1594.4,1320.7 c 0.9,-0.2 1.8,-0.3 2.7,-0.5 l -17.4,1.9 c -1.1,0.5 -2,1 -3.1,1.4 6,-0.9 11.9,-1.9 17.8,-2.8 z m -123.3,408.4 c -9.9,2.2 -20,3.9 -30.2,5.4 10.2,-1.5 20.3,-3.3 30.2,-5.4 z m -838,916.1 c 1.3,-3.4 2.6,-6.8 3.8,-10.2 26.6,-70.2 52.9,-138.4 79,-204.9 29.3,-74.6 58.2,-146.8 86.8,-216.8 30.1,-73.8 59.8,-145.1 89.1,-214 30.7,-72.3 61,-141.9 90.7,-208.9 24.2,-54.5 48,-107.3 71.5,-158.4 7.8,-17 15.6,-33.9 23.4,-50.6 15.4,-33.1 30.7,-65.6 45.7,-97.3 13.9,-29.3 27.7,-57.9 41.4,-86 4.5,-9.4 9.1,-18.6 13.6,-27.9 0.7,-1.5 1.5,-3 2.2,-4.5 l -14.8,1.6 -11.8,-23.2 c -1.1,2.3 -2.3,4.5 -3.5,6.8 -21.2,42.1 -42.2,84.6 -63,127.5 -12,24.8 -24,49.7 -35.9,74.7 -33,69.3 -65.5,139.2 -97.4,209.6 -32.3,71.1 -63.9,142.6 -94.9,214.2 -30.5,70.3 -60.3,140.7 -89.6,210.9 -29.2,70.1 -57.7,140 -85.6,209.4 -29.1,72.5 -57.4,144.3 -84.8,215.3 -6.2,16 -12.4,32 -18.5,48 -22,57.3 -43.4,113.8 -64.3,169.6 l 18.6,36.7 16.6,-1.8 c 0.6,-1.7 1.2,-3.4 1.8,-5 26.9,-73.5 53.5,-145.1 79.9,-214.8 z m 800.1,-909.5 c 0.1,0 0.1,-0.1 0.2,-0.1 0,0 -0.1,0 -0.2,0.1 z"
         id="path7717" /><use
         xlink:href="#b"
         id="use7719" /><use
         xlink:href="#b"
         opacity="0.35"
         id="use7721" /><use
         xlink:href="#c"
         id="use7723" /><use
         xlink:href="#c"
         opacity="0.35"
         id="use7725" /><path
         fill="url(#d)"
         d="m 1255.7,1147.6 c 36.7,-68.6 73.9,-135.7 111.5,-201 39,-67.8 78.5,-133.6 118.4,-197 2.3,-3.7 4.7,-7.5 7,-11.3 39.4,-62.4 79.2,-122.4 119.3,-179.8 l -120.8,-228 c -9.1,11.1 -18.2,22.4 -27.5,33.9 -34.8,43.4 -71,90.1 -108.1,139.6 -41.8,55.8 -84.8,115.4 -128.5,177.9 -40.3,57.8 -81.2,118.3 -122.1,180.9 -34.8,53.3 -69.8,108.2 -104.5,164.5 l -3.9,6.3 157.2,310.5 c 33.6,-66.5 67.6,-132.1 102,-196.5 z"
         id="path7736"
         style="fill:url(#d-6)" /><path
         fill="url(#e)"
         d="m 539.7,2897.1 c -20.8,57.2 -41.7,115.4 -62.7,174.9 -0.3,0.9 -0.6,1.7 -0.9,2.6 -3,8.4 -5.9,16.8 -8.9,25.2 -14.1,40.1 -26.4,76.2 -54.5,158.3 46.3,21.1 83.5,76.7 118.7,139.8 -3.7,-65.3 -30.8,-126.7 -82.1,-174.2 228.3,10.3 425,-47.4 526.7,-214.3 9.1,-14.9 17.4,-30.5 24.9,-47.2 -46.2,58.6 -103.5,83.5 -211.4,77.4 -0.2,0.1 -0.5,0.2 -0.7,0.3 0.2,-0.1 0.5,-0.2 0.7,-0.3 158.8,-71.1 238.5,-139.3 308.9,-252.4 16.7,-26.8 32.9,-56.1 49.5,-88.6 C 1009,2841.2 848.1,2881.8 678.6,2851 l -127.1,13.9 c -4,10.7 -7.9,21.4 -11.8,32.2 z"
         id="path7747"
         style="fill:url(#e-7)" /><path
         fill="url(#f)"
         d="m 599,2612.4 c 27.5,-71 55.8,-142.8 84.8,-215.3 27.8,-69.4 56.4,-139.2 85.6,-209.4 29.2,-70.2 59.1,-140.5 89.6,-210.9 31,-71.6 62.7,-143.1 94.9,-214.2 31.9,-70.3 64.4,-140.3 97.4,-209.6 11.9,-25 23.9,-49.9 35.9,-74.7 20.8,-42.9 41.8,-85.4 63,-127.5 1.1,-2.3 2.3,-4.5 3.5,-6.8 L 996.5,1033.5 c -2.6,4.2 -5.1,8.4 -7.7,12.6 -36.6,59.8 -73.1,121 -108.9,183.5 -36.2,63.1 -71.7,127.4 -106.4,192.6 -29.3,55 -57.9,110.5 -85.7,166.5 -5.6,11.4 -11.1,22.6 -16.6,33.9 -34.3,70.5 -65.2,138.6 -93.2,204.1 -31.7,74.2 -59.6,145.1 -84,212.3 -16.1,44.2 -30.7,86.9 -44.1,127.9 -11,35 -21.5,70.1 -31.4,105 -23.5,82.3 -43.7,164.4 -60.3,246.2 l 158,311.9 c 20.9,-55.8 42.3,-112.3 64.3,-169.6 6.1,-15.9 12.3,-32 18.5,-48 z"
         id="path7758"
         style="fill:url(#f-5)" /><path
         fill="url(#g)"
         d="m 356.1,2529.2 c -19.8,99.8 -33.9,199.2 -41,298 -0.2,3.5 -0.6,6.9 -0.8,10.4 -49.3,-79 -181.3,-156.1 -181,-155.4 94.5,137 166.2,273 176.9,406.5 -50.6,10.4 -119.9,-4.6 -200,-34.1 83.5,76.7 146.2,97.9 170.6,103.6 -76.7,4.8 -156.6,57.5 -237.1,118.2 117.7,-48 212.8,-67 280.9,-51.6 -108,305.8 -216.3,643.4 -324.6,1001.8 33.2,-9.8 53,-32.1 64.1,-62.3 19.3,-64.9 147.4,-490.7 348.1,-1050.4 5.7,-15.9 11.5,-31.9 17.3,-48 1.6,-4.5 3.3,-9 4.9,-13.4 21.2,-58.7 43.2,-118.6 65.9,-179.7 5.2,-13.9 10.4,-27.8 15.6,-41.8 0.1,-0.3 0.2,-0.6 0.3,-0.8 L 358.4,2518.4 c -0.7,3.5 -1.6,7.1 -2.3,10.8 z"
         id="path7769"
         style="fill:url(#g-3)" /><path
         fill="url(#h)"
         d="m 1178.1,1370.3 c -4.5,9.2 -9,18.5 -13.6,27.9 -13.6,28.1 -27.4,56.7 -41.4,86 -15.1,31.7 -30.3,64.1 -45.7,97.3 -7.8,16.7 -15.5,33.5 -23.4,50.6 -23.5,51.1 -47.3,103.9 -71.5,158.4 -29.7,67 -60,136.6 -90.7,208.9 -29.3,68.9 -59,140.2 -89.1,214 -28.6,70 -57.5,142.3 -86.8,216.8 -26.1,66.5 -52.4,134.7 -79,204.9 -1.3,3.4 -2.6,6.8 -3.8,10.2 -26.4,69.7 -53,141.3 -79.8,214.7 -0.6,1.7 -1.2,3.4 -1.8,5 l 127.1,-13.9 c -2.5,-0.5 -5.1,-0.8 -7.6,-1.3 152,-18.9 354,-132.5 484.6,-272.7 60.2,-64.6 114.8,-140.8 165.3,-230 37.6,-66.4 72.9,-140 106.5,-221.5 29.4,-71.2 57.6,-148.3 84.8,-231.9 -34.9,18.4 -74.9,31.9 -119,41.3 -7.7,1.6 -15.6,3.2 -23.6,4.6 -8,1.4 -16.1,2.7 -24.3,3.8 0.1,0 0.2,-0.1 0.3,-0.1 141.7,-54.5 231.1,-159.8 296.1,-288.7 -37.3,25.4 -97.9,58.7 -170.5,74.7 -9.9,2.2 -20,3.9 -30.2,5.4 -2.6,0.4 -5.1,0.8 -7.6,1.1 0.1,0 0.1,-0.1 0.2,-0.1 0,0 0.1,0 0.1,-0.1 49.2,-20.6 90.7,-43.6 126.7,-70.8 7.7,-5.8 15.2,-11.8 22.4,-18.1 11,-9.5 21.4,-19.5 31.4,-30 6.4,-6.7 12.6,-13.6 18.6,-20.8 14.1,-16.8 27.3,-34.9 39.7,-54.6 3.8,-6 7.5,-12.1 11.2,-18.4 4.7,-9.1 9.2,-18 13.6,-26.8 19.8,-39.8 35.6,-75.3 48.2,-106.5 6.3,-15.6 11.8,-30 16.5,-43.4 1.9,-5.3 3.7,-10.5 5.4,-15.5 5,-15 9.1,-28.3 12.3,-40 4.8,-17.5 7.7,-31.4 9.3,-41.5 -4.8,3.8 -10.3,7.6 -16.5,11.3 -42.8,25.6 -116.2,48.8 -175.4,59.7 l 116.7,-12.8 -116.7,12.8 c -0.9,0.2 -1.8,0.3 -2.7,0.5 -5.9,1 -11.9,1.9 -17.9,2.9 1.1,-0.5 2,-1 3.1,-1.4 l -399.3,43.8 c -0.7,1.4 -1.4,2.8 -2.2,4.3 z"
         id="path7780"
         style="fill:url(#h-5)" /><path
         fill="url(#i)"
         d="m 1627.6,563.1 c -35.5,54.5 -74.3,116.4 -116,186.5 -2.2,3.6 -4.4,7.4 -6.6,11.1 -36,60.7 -74.3,127.3 -114.5,200.3 -34.8,63 -71,130.6 -108.6,203.3 -32.8,63.3 -66.7,130.5 -101.5,201.6 l 399.3,-43.8 c 116.3,-53.5 168.3,-101.9 218.8,-171.9 13.4,-19.3 26.9,-39.5 40.3,-60.4 41,-64 81.2,-134.5 117.2,-204.6 34.7,-67.7 65.3,-134.8 88.8,-195.3 14.9,-38.5 26.9,-74.3 35.2,-105.7 7.3,-27.7 13,-54 17.4,-79.1 -155.5,26.5 -345.9,51.9 -469.8,58 z"
         id="path7791"
         style="fill:url(#i-6)" /><use
         xlink:href="#j"
         id="use7793" /><use
         xlink:href="#j"
         opacity="0.35"
         id="use7795" /><path
         fill="url(#k)"
         d="m 1369.6,1939.4 c -8,1.4 -16.1,2.7 -24.3,3.8 8.2,-1.1 16.3,-2.4 24.3,-3.8 z"
         id="path7806"
         style="fill:url(#k-2)" /><use
         xlink:href="#l"
         id="use7808" /><use
         xlink:href="#l"
         opacity="0.35"
         id="use7810" /><path
         fill="url(#m)"
         d="m 1433.2,1735.7 c 2.6,-0.3 5.1,-0.8 7.6,-1.1 -2.5,0.3 -5,0.7 -7.6,1.1 z"
         id="path7821"
         style="fill:url(#m-9)" /><use
         xlink:href="#n"
         id="use7823" /><use
         xlink:href="#n"
         opacity="0.35"
         id="use7825" /><path
         fill="url(#o)"
         d="m 1433.5,1735.6 c 0,0 0.1,0 0.1,-0.1 0,0 -0.1,0 -0.1,0.1 z"
         id="path7836"
         style="fill:url(#o-1)" /><path
         fill="#6d6e71"
         d="m 2218.7,387 v 11.7 h 27.4 v 77.4 h 12.7 v -77.4 h 27.6 V 387 Z m 158.3,0 -30.6,62.2 -30.8,-62.2 h -15.3 v 89.1 h 11.7 v -70.7 l 30.3,61.3 h 8.1 l 30.3,-61.3 v 70.7 h 11.7 V 387 Z"
         id="path7838" /></g></g></svg>
