<?xml version="1.0" encoding="UTF-8" standalone="no"?>
<svg
   width="345.20001"
   height="150.384"
   version="1.1"
   id="svg3"
   sodipodi:docname="quarkus-era.svg"
   xml:space="preserve"
   viewBox="0 0 345.20002 150.38401"
   inkscape:version="1.3 (0e150ed6c4, 2023-07-21)"
   xmlns:inkscape="http://www.inkscape.org/namespaces/inkscape"
   xmlns:sodipodi="http://sodipodi.sourceforge.net/DTD/sodipodi-0.dtd"
   xmlns="http://www.w3.org/2000/svg"
   xmlns:svg="http://www.w3.org/2000/svg"><defs
     id="defs3"><marker
       style="overflow:visible"
       id="marker17"
       refX="0"
       refY="0"
       orient="auto-start-reverse"
       inkscape:stockid="Concave triangle arrow"
       markerWidth="1"
       markerHeight="1"
       viewBox="0 0 1 1"
       inkscape:isstock="true"
       inkscape:collect="always"
       preserveAspectRatio="xMidYMid"><path
         transform="scale(0.7)"
         d="M -2,-4 9,0 -2,4 c 2,-2.33 2,-5.66 0,-8 z"
         style="fill:context-stroke;fill-rule:evenodd;stroke:none"
         id="path17" /></marker><marker
       style="overflow:visible"
       id="ConcaveTriangle"
       refX="0"
       refY="0"
       orient="auto-start-reverse"
       inkscape:stockid="Concave triangle arrow"
       markerWidth="1"
       markerHeight="1"
       viewBox="0 0 1 1"
       inkscape:isstock="true"
       inkscape:collect="always"
       preserveAspectRatio="xMidYMid"><path
         transform="scale(0.7)"
         d="M -2,-4 9,0 -2,4 c 2,-2.33 2,-5.66 0,-8 z"
         style="fill:context-stroke;fill-rule:evenodd;stroke:none"
         id="path16" /></marker><style
       id="style1">.cls-1{fill:#091313;}.cls-2{fill:#4695eb;}.cls-3{fill:#ff004a;}</style><style
       id="style1-3">.cls-1{fill:#091313;}.cls-2{fill:#4695eb;}.cls-3{fill:#ff004a;}</style></defs><sodipodi:namedview
     id="namedview3"
     pagecolor="#ffffff"
     bordercolor="#666666"
     borderopacity="1.0"
     inkscape:showpageshadow="2"
     inkscape:pageopacity="0.0"
     inkscape:pagecheckerboard="true"
     inkscape:deskcolor="#d1d1d1"
     showguides="false"
     inkscape:zoom="2.9675"
     inkscape:cx="224.09435"
     inkscape:cy="51.221566"
     inkscape:window-width="3069"
     inkscape:window-height="1250"
     inkscape:window-x="641"
     inkscape:window-y="14"
     inkscape:window-maximized="0"
     inkscape:current-layer="svg3"><sodipodi:guide
       position="-10.000005,85.230352"
       orientation="0,325.20001"
       id="guide18"
       inkscape:locked="false" /><sodipodi:guide
       position="315.20001,85.230352"
       orientation="105.23057,0"
       id="guide19"
       inkscape:locked="false" /><sodipodi:guide
       position="315.20001,-20.000221"
       orientation="0,-325.20001"
       id="guide20"
       inkscape:locked="false" /><sodipodi:guide
       position="-10.000005,-20.000221"
       orientation="-105.23057,0"
       id="guide21"
       inkscape:locked="false" /></sodipodi:namedview><!-- Time Axis Line --><line
     x1="22.600002"
     y1="112.76778"
     x2="322.60001"
     y2="112.76778"
     stroke="#000000"
     stroke-width="2"
     id="line1"
     style="marker-start:url(#ConcaveTriangle);marker-end:url(#marker17)" /><!-- Inception of Quarkus Point --><!-- Text Labels --><text
     x="32.607914"
     y="140.24324"
     font-family="Arial"
     font-size="12px"
     fill="#000000"
     id="text1">before</text><text
     x="159.33485"
     y="140.18465"
     font-family="Arial"
     font-size="12px"
     fill="#000000"
     id="text1-6">2019</text><text
     x="282.0918"
     y="140.24324"
     font-family="Arial"
     font-size="12px"
     fill="#000000"
     id="text3">after</text><g
     id="g3"
     transform="matrix(0.2946943,0,0,0.2946943,249.94775,131.3013)"
     style="stroke-width:3.39335"><polygon
       class="cls-2"
       points="96.61,51.59 126.05,68.59 126.05,34.6 "
       id="polygon7"
       transform="translate(-359.0678,-327.26348)"
       style="stroke-width:3.39335" /><polygon
       class="cls-3"
       points="67.17,68.59 96.61,51.59 67.17,34.6 "
       id="polygon8"
       transform="translate(-359.0678,-327.26348)"
       style="stroke-width:3.39335" /><polygon
       class="cls-1"
       points="67.17,68.59 96.61,85.59 126.05,68.59 96.61,51.59 "
       id="polygon9"
       transform="translate(-359.0678,-327.26348)"
       style="stroke-width:3.39335" /><polygon
       class="cls-2"
       points="65.57,105.36 65.57,71.37 36.13,88.36 "
       id="polygon10"
       transform="translate(-359.0678,-327.26348)"
       style="stroke-width:3.39335" /><polygon
       class="cls-3"
       points="95.01,122.36 65.57,105.36 65.57,139.35 "
       id="polygon11"
       transform="translate(-359.0678,-327.26348)"
       style="stroke-width:3.39335" /><polygon
       class="cls-1"
       points="95.01,122.36 95.01,88.36 65.57,71.37 65.57,105.36 "
       id="polygon12"
       transform="translate(-359.0678,-327.26348)"
       style="stroke-width:3.39335" /><polygon
       class="cls-2"
       points="127.65,105.36 98.21,122.36 127.65,139.35 "
       id="polygon13"
       transform="translate(-359.0678,-327.26348)"
       style="stroke-width:3.39335" /><polygon
       class="cls-3"
       points="127.65,71.37 127.65,105.36 157.09,88.36 "
       id="polygon14"
       transform="translate(-359.0678,-327.26348)"
       style="stroke-width:3.39335" /><polygon
       class="cls-1"
       points="127.65,71.37 98.21,88.36 98.21,122.36 127.65,105.36 "
       id="polygon15"
       transform="translate(-359.0678,-327.26348)"
       style="stroke-width:3.39335" /><path
       class="cls-2"
       d="m -198.5678,-326.26348 h -127.78 a 31.81,31.81 0 0 0 -31.72,31.72 v 127.78 a 31.81,31.81 0 0 0 31.72,31.72 h 87.51 l -23.62,-57.37 -17.13,36.22 h -46.76 a 10.71,10.71 0 0 1 -10.57,-10.57 v -127.78 a 10.71,10.71 0 0 1 10.57,-10.57 h 127.78 a 10.71,10.71 0 0 1 10.57,10.57 v 127.78 a 10.71,10.71 0 0 1 -10.57,10.57 h -27.73 l 8.71,21.15 h 19 a 31.81,31.81 0 0 0 31.72,-31.72 v -127.78 a 31.81,31.81 0 0 0 -31.7,-31.72 z"
       id="path15"
       style="stroke-width:3.39335" /></g><path
     style="fill:none;stroke:#000000;stroke-width:2;stroke-linecap:butt;stroke-linejoin:miter;stroke-dasharray:none;stroke-opacity:1"
     d="m 172.59999,102.16417 v 21.20725"
     id="path18"
     sodipodi:nodetypes="cc" /><g
     id="g1"
     transform="matrix(0.10157222,0,0,0.10157222,120.07241,29.689454)"
     style="stroke-width:9.84521"><path
       class="cls-1"
       d="m 192.9106,-124.45556 q 0,25.9 -10.49,43.07 a 52.31,52.31 0 0 1 -29.61,23.24 l 32.3,33.39 h -22.91 l -26.45,-30.44 -5.11,0.19 q -30,0 -46.27,-18.22 -16.27,-18.22 -16.29,-51.42 0,-32.93 16.34,-51.05 16.34,-18.12 46.41,-18.15 29.24,0 45.66,18.45 16.42,18.45 16.42,50.94 z m -108.14,0 q 0,27.39 11.74,41.55 11.74,14.16 34.11,14.15 22.56,0 34.07,-14.11 11.51,-14.11 11.51,-41.59 0,-27.21 -11.47,-41.27 -11.47,-14.06 -33.9,-14.07 -22.56,0 -34.3,14.16 -11.74,14.16 -11.74,41.18 z"
       id="path1"
       style="stroke-width:9.84521" /><path
       class="cls-1"
       d="m 348.4706,-191.69556 v 87.25 q 0,23.05 -14,36.25 -14,13.2 -38.56,13.19 -24.51,0 -37.92,-13.29 -13.41,-13.29 -13.38,-36.55 v -86.85 h 15.78 v 88 q 0,16.88 9.28,25.91 9.28,9.03 27.29,9 17.16,0 26.45,-9.08 9.29,-9.08 9.28,-25.98 v -87.85 z"
       id="path2"
       style="stroke-width:9.84521" /><path
       class="cls-1"
       d="m 492.5106,-56.84556 -16.9,-42.9 h -54.39 l -16.71,42.9 h -16 l 53.69,-135.4 h 13.27 l 53.37,135.4 z m -21.82,-57 -15.78,-41.79 q -3.07,-7.92 -6.32,-19.46 a 172.55,172.55 0 0 1 -5.85,19.46 l -16,41.78 z"
       id="path3"
       style="stroke-width:9.84521" /><path
       class="cls-1"
       d="m 566.1006,-112.92556 v 56.08 h -15.79 v -134.85 h 37.23 q 25,0 36.89,9.5 11.89,9.5 11.93,28.59 0,26.74 -27.29,36.16 l 36.84,60.6 h -18.65 l -32.86,-56.07 z m 0,-13.47 h 21.62 q 16.71,0 24.51,-6.6 7.8,-6.6 7.79,-19.78 0,-13.37 -7.93,-19.27 -7.93,-5.9 -25.48,-5.91 h -20.51 z"
       id="path4"
       style="stroke-width:9.84521" /><path
       class="cls-1"
       d="m 788.6606,-56.84556 h -18.57 l -49.47,-65.4 -14.2,12.54 v 52.86 h -15.78 v -134.85 h 15.78 v 66.85 l 61.54,-66.87 h 18.66 l -54.58,58.59 z"
       id="path5"
       style="stroke-width:9.84521" /><path
       class="cls-1"
       d="m 932.6006,-191.69556 v 87.25 q 0,23.05 -14,36.25 -14,13.2 -38.52,13.19 -24.5,0 -37.92,-13.29 -13.42,-13.29 -13.43,-36.55 v -86.85 h 15.78 v 88 q 0,16.88 9.28,25.91 9.28,9.03 27.29,9 17.17,0 26.46,-9.08 9.29,-9.08 9.28,-26.06 v -87.77 z"
       id="path6"
       style="stroke-width:9.84521" /><path
       class="cls-1"
       d="m 1067.9106,-92.73556 q 0,17.8 -13,27.76 -13,9.96 -35.28,10 -24.13,0 -37.13,-6.18 v -15.16 a 97.82,97.82 0 0 0 18.2,5.53 95.67,95.67 0 0 0 19.49,2 q 15.78,0 23.76,-6 7.98,-6 8,-16.55 0,-7 -2.83,-11.48 -2.83,-4.48 -9.46,-8.26 -6.65,-3.78 -20.19,-8.58 -18.94,-6.72 -27.06,-16 -8.12,-9.28 -8.12,-24.07 0,-15.58 11.79,-24.81 11.79,-9.23 31.18,-9.22 a 92.55,92.55 0 0 1 37.22,7.37 l -4.91,13.65 q -16.82,-7 -32.68,-7 -12.53,0 -19.58,5.35 -7.05,5.35 -7.06,14.85 0,7 2.6,11.48 2.6,4.48 8.77,8.21 6.18,3.73 18.89,8.26 21.36,7.56 29.38,16.23 8.02,8.67 8.02,22.62 z"
       id="path7"
       style="stroke-width:9.84521" /></g></svg>
