<svg xmlns="http://www.w3.org/2000/svg" width="900" height="400" viewBox="-10 -10 830 420">

    <!-- Timeline line -->
    <line x1="-10" y1="150" x2="450" y2="150" stroke="#000" stroke-width="2" />

    <line x1="0" y1="150" x2="0" y2="155" stroke="#000" stroke-width="2" />
    <text x="0" y="165" font-size="12" text-anchor="middle">2000</text>

    <line x1="400" y1="150" x2="400" y2="155" stroke="#000" stroke-width="2" />
    <text x="400" y="165" font-size="12" text-anchor="middle">2010</text>

    <!-- Standard labels -->
    <line x1="80" y1="150" x2="80" y2="110" stroke="#000" stroke-width="0.5" />
    <text x="80" y="100" font-size="12" text-anchor="middle" fill="#000">JAX-RPC (2002)</text>

    <line x1="125" y1="150" x2="125" y2="60" stroke="#000" stroke-width="0.5" />
    <text x="120" y="50" font-size="12" text-anchor="middle" fill="#000">JAXB (2003)</text>

    <line x1="200" y1="150" x2="200" y2="110" stroke="#000" stroke-width="0.5" />
    <text x="200" y="100" font-size="12" text-anchor="middle" fill="#000">JAX-WS (2005)</text>

    <line x1="280" y1="150" x2="280" y2="235" stroke="#000" stroke-width="0.5" />
    <text x="280" y="250" font-size="12" text-anchor="middle" fill="#000">WS-Policy (2007)</text>
    <text x="280" y="270" font-size="12" text-anchor="middle" fill="#000">WS-Trust (2007)</text>

    <line x1="200" y1="150" x2="200" y2="285" stroke="#000" stroke-width="0.5" />
    <text x="200" y="300" font-size="12" text-anchor="middle" fill="#000">MTOM (2005)</text>

    <rect x="90" y="185" width="150" height="45" fill="#fff" fill-opacity="0.9" />
    <line x1="160" y1="150" x2="160" y2="185" stroke="#000" stroke-width="0.5" />
    <text x="160" y="200" font-size="12" text-anchor="middle" fill="#000">WS-Addressing (2004)</text>
    <text x="160" y="220" font-size="12" text-anchor="middle" fill="#000">WS-Security (2004)</text>

</svg>
