<?xml version="1.0" encoding="UTF-8" standalone="no"?>
<svg
   xmlns:dc="http://purl.org/dc/elements/1.1/"
   xmlns:cc="http://creativecommons.org/ns#"
   xmlns:rdf="http://www.w3.org/1999/02/22-rdf-syntax-ns#"
   xmlns:svg="http://www.w3.org/2000/svg"
   xmlns="http://www.w3.org/2000/svg"
   xmlns:sodipodi="http://sodipodi.sourceforge.net/DTD/sodipodi-0.dtd"
   xmlns:inkscape="http://www.inkscape.org/namespaces/inkscape"
   version="1.0"
   width="496.92633"
   height="116.87319"
   viewBox="0 0 4969.2633 1168.7319"
   preserveAspectRatio="xMidYMid meet"
   id="svg30"
   sodipodi:docname="graal-vm.svg"
   inkscape:version="0.92.4 (unknown)">
  <metadata
     id="metadata36">
    <rdf:RDF>
      <cc:Work
         rdf:about="">
        <dc:format>image/svg+xml</dc:format>
        <dc:type
           rdf:resource="http://purl.org/dc/dcmitype/StillImage" />
        <dc:title></dc:title>
      </cc:Work>
    </rdf:RDF>
  </metadata>
  <defs
     id="defs34" />
  <sodipodi:namedview
     pagecolor="#ffffff"
     bordercolor="#666666"
     borderopacity="1"
     objecttolerance="10"
     gridtolerance="10"
     guidetolerance="10"
     inkscape:pageopacity="0"
     inkscape:pageshadow="2"
     inkscape:window-width="1830"
     inkscape:window-height="1051"
     id="namedview32"
     showgrid="false"
     fit-margin-top="10"
     fit-margin-left="10"
     fit-margin-right="10"
     fit-margin-bottom="10"
     inkscape:zoom="0.49465649"
     inkscape:cx="-105.33293"
     inkscape:cy="44.873193"
     inkscape:window-x="82"
     inkscape:window-y="0"
     inkscape:window-maximized="1"
     inkscape:current-layer="svg30"
     inkscape:pagecheckerboard="true" />
  <g
     id="layer101"
     style="fill:#00758f;stroke:none"
     transform="translate(-810.73671,-750)">
    <path
       d="m 1143,1811 c -145,-37 -221,-169 -231,-396 -6,-149 9,-242 53,-332 75,-155 220,-228 375,-189 64,17 138,61 165,98 14,21 13,24 -19,57 l -34,34 -30,-22 c -100,-71 -210,-66 -279,12 -52,60 -68,123 -68,277 0,164 17,232 74,293 33,35 44,41 92,45 36,3 67,-1 92,-11 l 37,-16 v -125 -126 h -60 -60 v -60 -60 h 135 135 l -2,217 -3,217 -40,27 c -22,14 -60,34 -85,44 -50,19 -196,29 -247,16 z"
       id="path2"
       inkscape:connector-curvature="0" />
    <path
       d="m 2187,1806 c -77,-29 -107,-78 -107,-176 0,-64 21,-120 56,-151 53,-47 161,-79 264,-79 h 60 v -45 c 0,-24 -5,-55 -11,-69 -15,-33 -66,-56 -121,-56 -39,0 -140,20 -179,35 -13,5 -19,-4 -28,-39 -6,-25 -11,-47 -11,-49 0,-3 33,-15 73,-28 100,-33 262,-34 322,-2 98,52 104,76 105,401 v 262 h -60 c -56,0 -60,-1 -60,-23 0,-37 -9,-38 -67,-5 -66,37 -172,48 -236,24 z m 214,-123 54,-28 3,-77 3,-78 h -58 c -32,0 -73,4 -92,10 -74,21 -108,88 -76,149 29,57 84,65 166,24 z"
       id="path4"
       inkscape:connector-curvature="0" />
    <path
       d="m 2837,1806 c -91,-33 -129,-116 -106,-227 9,-43 20,-63 54,-95 54,-52 115,-74 233,-81 l 92,-6 v -46 c 0,-105 -84,-142 -235,-107 -33,8 -68,18 -77,21 -13,5 -19,-2 -27,-32 -6,-21 -11,-43 -11,-50 0,-7 33,-23 73,-35 55,-18 96,-23 177,-23 94,0 110,3 149,25 53,30 79,63 91,116 5,21 10,153 10,292 v 252 h -60 c -50,0 -60,-3 -60,-17 0,-10 -4,-25 -10,-33 -7,-12 -12,-12 -28,3 -55,50 -186,71 -265,43 z m 228,-130 45,-27 v -74 -75 h -65 c -136,0 -207,70 -162,160 28,56 102,62 182,16 z"
       id="path6"
       inkscape:connector-curvature="0" />
    <path
       d="m 3473,1809 c -63,-19 -63,-19 -63,-514 V 850 h 75 75 v 418 c 0,312 3,421 12,430 7,7 25,12 40,12 22,0 28,5 28,23 0,12 3,32 6,43 4,14 0,23 -10,27 -31,12 -132,16 -163,6 z"
       id="path8"
       inkscape:connector-curvature="0" />
    <path
       d="m 1680,1470 v -340 h 59 58 l 7,48 6,48 49,-47 c 52,-50 98,-67 146,-55 27,7 31,32 19,107 -6,36 -6,36 -50,31 -43,-4 -46,-3 -99,50 l -55,55 v 221 222 h -70 -70 z"
       id="path10"
       inkscape:connector-curvature="0" />
    <path
       d="m 3942,1793 c -13,-24 -103,-302 -141,-433 -35,-122 -111,-427 -111,-447 0,-10 21,-13 85,-13 75,0 85,2 85,18 0,58 179,707 191,695 17,-17 131,-491 163,-675 l 7,-38 h 74 c 63,0 75,3 75,17 0,67 -119,523 -197,756 l -46,137 h -88 c -74,0 -90,-3 -97,-17 z"
       id="path12"
       inkscape:connector-curvature="0" />
    <path
       d="m 4434,1643 c 7,-181 29,-476 47,-640 l 12,-103 h 101 101 l 99,308 c 55,169 103,313 106,320 3,7 53,-131 111,-308 l 104,-320 h 97 c 54,0 98,2 98,5 0,3 9,92 19,198 18,171 26,286 47,615 l 5,92 h -80 -79 l -6,-62 c -3,-35 -10,-166 -17,-293 -6,-126 -15,-256 -18,-288 l -6,-57 -110,350 -110,351 -64,-3 -65,-3 -105,-332 c -57,-183 -108,-333 -111,-333 -9,0 -19,158 -27,438 l -6,232 h -75 -75 z"
       id="path14"
       inkscape:connector-curvature="0" />
    <path
       d="m 5470,1760 c 0,-38 -4,-50 -15,-50 -8,0 -15,-4 -15,-10 0,-5 23,-10 50,-10 28,0 50,5 50,10 0,6 -9,10 -20,10 -17,0 -20,7 -20,50 0,38 -4,50 -15,50 -11,0 -15,-12 -15,-50 z"
       id="path16"
       inkscape:connector-curvature="0" />
    <path
       d="m 5550,1750 c 0,-57 1,-60 25,-60 19,0 26,7 33,33 l 9,32 7,-32 c 6,-26 13,-33 32,-33 23,0 24,3 24,60 0,47 -3,60 -15,60 -10,0 -15,-10 -16,-27 l -1,-28 -10,28 c -5,15 -16,27 -23,27 -7,0 -18,-12 -23,-27 l -10,-28 -1,28 c -1,17 -6,27 -16,27 -12,0 -15,-13 -15,-60 z"
       id="path18"
       inkscape:connector-curvature="0" />
  </g>
  <g
     id="layer102"
     style="fill:#f29111;stroke:none"
     transform="translate(-810.73671,-750)">
    <path
       d="m 3942,1793 c -13,-24 -103,-302 -141,-433 -35,-122 -111,-427 -111,-447 0,-10 21,-13 85,-13 75,0 85,2 85,18 0,58 179,707 191,695 17,-17 131,-491 163,-675 l 7,-38 h 74 c 63,0 75,3 75,17 0,67 -119,523 -197,756 l -46,137 h -88 c -74,0 -90,-3 -97,-17 z"
       id="path21"
       inkscape:connector-curvature="0" />
    <path
       d="m 4434,1643 c 7,-181 29,-476 47,-640 l 12,-103 h 101 101 l 99,308 c 55,169 103,313 106,320 3,7 53,-131 111,-308 l 104,-320 h 97 c 54,0 98,2 98,5 0,3 9,92 19,198 18,171 26,286 47,615 l 5,92 h -80 -79 l -6,-62 c -3,-35 -10,-166 -17,-293 -6,-126 -15,-256 -18,-288 l -6,-57 -110,350 -110,351 -64,-3 -65,-3 -105,-332 c -57,-183 -108,-333 -111,-333 -9,0 -19,158 -27,438 l -6,232 h -75 -75 z"
       id="path23"
       inkscape:connector-curvature="0" />
    <path
       d="m 5470,1760 c 0,-38 -4,-50 -15,-50 -8,0 -15,-4 -15,-10 0,-5 23,-10 50,-10 28,0 50,5 50,10 0,6 -9,10 -20,10 -17,0 -20,7 -20,50 0,38 -4,50 -15,50 -11,0 -15,-12 -15,-50 z"
       id="path25"
       inkscape:connector-curvature="0" />
    <path
       d="m 5550,1750 c 0,-57 1,-60 25,-60 19,0 26,7 33,33 l 9,32 7,-32 c 6,-26 13,-33 32,-33 23,0 24,3 24,60 0,47 -3,60 -15,60 -10,0 -15,-10 -16,-27 l -1,-28 -10,28 c -5,15 -16,27 -23,27 -7,0 -18,-12 -23,-27 l -10,-28 -1,28 c -1,17 -6,27 -16,27 -12,0 -15,-13 -15,-60 z"
       id="path27"
       inkscape:connector-curvature="0" />
  </g>
</svg>
