<?xml version="1.0" encoding="UTF-8" standalone="no"?>
<!-- Generator: Adobe Illustrator 18.1.1, SVG Export Plug-In . SVG Version: 6.00 Build 0)  -->

<svg
   xmlns:dc="http://purl.org/dc/elements/1.1/"
   xmlns:cc="http://creativecommons.org/ns#"
   xmlns:rdf="http://www.w3.org/1999/02/22-rdf-syntax-ns#"
   xmlns:svg="http://www.w3.org/2000/svg"
   xmlns="http://www.w3.org/2000/svg"
   xmlns:sodipodi="http://sodipodi.sourceforge.net/DTD/sodipodi-0.dtd"
   xmlns:inkscape="http://www.inkscape.org/namespaces/inkscape"
   version="1.1"
   id="logo"
   x="0px"
   y="0px"
   viewBox="0 0 403.10001 136.2"
   enable-background="new 0 0 612 792"
   xml:space="preserve"
   sodipodi:docname="Red_Hat_RGB_reverse.svg"
   width="403.10001"
   height="136.2"
   inkscape:version="0.92.1 r"><metadata
     id="metadata41"><rdf:RDF><cc:Work
         rdf:about=""><dc:format>image/svg+xml</dc:format><dc:type
           rdf:resource="http://purl.org/dc/dcmitype/StillImage" /><dc:title></dc:title></cc:Work></rdf:RDF></metadata><defs
     id="defs39" /><sodipodi:namedview
     pagecolor="#ffffff"
     bordercolor="#666666"
     borderopacity="1"
     objecttolerance="10"
     gridtolerance="10"
     guidetolerance="10"
     inkscape:pageopacity="0"
     inkscape:pageshadow="2"
     inkscape:window-width="1096"
     inkscape:window-height="838"
     id="namedview37"
     showgrid="false"
     fit-margin-top="5"
     fit-margin-left="5"
     fit-margin-right="5"
     fit-margin-bottom="5"
     inkscape:pagecheckerboard="true"
     inkscape:zoom="1.1919192"
     inkscape:cx="185.68184"
     inkscape:cy="196.88971"
     inkscape:window-x="82"
     inkscape:window-y="0"
     inkscape:window-maximized="0"
     inkscape:current-layer="logo" /><g
     id="white"
     transform="translate(-117.4,-332.6)"><path
       d="m 238.5,435 c -2.4,-0.6 -5,-0.9 -7.6,-0.9 -4.5,0 -8.5,0.8 -11.5,2 -0.3,0.2 -0.6,0.5 -0.6,0.9 0,0.1 0,0.3 0.1,0.4 0.4,1 -0.2,2.1 -3.1,2.8 -4.3,0.9 -7,5.4 -8.6,6.9 -1.8,1.7 -7,2.8 -6.2,1.8 0.6,-0.8 2.9,-3.3 4.3,-6 1.3,-2.4 2.4,-3.1 3.9,-5.4 0.5,-0.7 2.2,-3.1 2.7,-5 0.6,-1.8 0.4,-4.2 0.6,-5.1 0.3,-1.4 1.6,-4.4 1.7,-6 0.1,-1 -4,1.4 -5.9,1.4 -1.9,0 -3.8,-1.1 -5.5,-1.2 -2.1,-0.1 -3.5,1.6 -5.4,1.3 -1.1,-0.2 -2,-1.1 -3.9,-1.2 -2.7,-0.1 -6,1.5 -12.3,1.3 -6.1,-0.2 -11.8,-7.8 -12.6,-9 -0.9,-1.4 -2,-1.4 -3.2,-0.3 -1.2,1.1 -2.7,0.2 -3.1,-0.5 -0.8,-1.4 -3,-5.5 -6.3,-6.4 -4.6,-1.2 -7,2.6 -6.6,5.5 0.3,3 2.3,3.9 3.2,5.5 0.9,1.6 1.4,2.6 3.1,3.4 1.2,0.5 1.7,1.3 1.3,2.2 -0.3,0.9 -1.6,1.1 -2.4,1.1 -1.8,0.1 -3,-0.4 -3.9,-1 -1,-0.7 -1.9,-1.6 -2.8,-3.2 -1.1,-1.7 -2.7,-2.5 -4.7,-2.5 -0.9,0 -1.8,0.2 -2.6,0.6 -3,1.6 -6.6,2.5 -10.5,2.5 h -4.4 c 8.4,25 32,42.9 59.8,42.9 22.2,0 41.8,-11.5 53,-28.8 z"
       id="path2"
       inkscape:connector-curvature="0"
       style="fill:#ffffff" /></g><g
     id="g9"
     transform="translate(-117.4,-332.6)"><path
       d="m 248,431.6 h 0.6 l 0.9,1.4 h 0.6 l -0.9,-1.4 c 0.5,-0.1 0.8,-0.3 0.8,-0.9 0,-0.6 -0.4,-0.9 -1.1,-0.9 h -1.2 v 3.3 h 0.5 v -1.5 z m 0,-0.4 v -1 h 0.7 c 0.3,0 0.7,0.1 0.7,0.5 0,0.5 -0.4,0.5 -0.8,0.5 z"
       id="path5"
       inkscape:connector-curvature="0"
       style="fill:#ffffff" /><path
       d="m 251.8,431.4 c 0,1.8 -1.4,3.2 -3.2,3.2 -1.8,0 -3.2,-1.4 -3.2,-3.2 0,-1.8 1.4,-3.2 3.2,-3.2 1.7,0 3.2,1.5 3.2,3.2 z m -3.2,-2.6 c -1.5,0 -2.6,1.2 -2.6,2.6 0,1.4 1.2,2.6 2.6,2.6 1.4,0 2.6,-1.2 2.6,-2.6 0,-1.4 -1.2,-2.6 -2.6,-2.6 z"
       id="path7"
       inkscape:connector-curvature="0"
       style="fill:#ffffff" /></g><g
     id="g13"
     transform="translate(-117.4,-332.6)"><path
       d="m 238.5,435 c -2.4,-0.6 -5,-0.9 -7.6,-0.9 -4.5,0 -8.5,0.8 -11.5,2 -0.3,0.2 -0.6,0.5 -0.6,0.9 0,0.1 0,0.3 0.1,0.4 0.4,1 -0.2,2.1 -3.1,2.8 -4.3,0.9 -7,5.4 -8.6,6.9 -1.8,1.7 -7,2.8 -6.2,1.8 0.6,-0.8 2.9,-3.3 4.3,-6 1.3,-2.4 2.4,-3.1 3.9,-5.4 0.5,-0.7 2.2,-3.1 2.7,-5 0.6,-1.8 0.4,-4.2 0.6,-5.1 0.3,-1.4 1.6,-4.4 1.7,-6 0.1,-1 -4,1.4 -5.9,1.4 -1.9,0 -3.8,-1.1 -5.5,-1.2 -2.1,-0.1 -3.5,1.6 -5.4,1.3 -1.1,-0.2 -2,-1.1 -3.9,-1.2 -2.7,-0.1 -6,1.5 -12.3,1.3 -6.1,-0.2 -11.8,-7.8 -12.6,-9 -0.9,-1.4 -2,-1.4 -3.2,-0.3 -1.2,1.1 -2.7,0.2 -3.1,-0.5 -0.8,-1.4 -3,-5.5 -6.3,-6.4 -4.6,-1.2 -7,2.6 -6.6,5.5 0.3,3 2.3,3.9 3.2,5.5 0.9,1.6 1.4,2.7 3.1,3.4 1.2,0.5 1.7,1.2 1.3,2.2 -0.3,0.9 -1.6,1.1 -2.4,1.1 -1.8,0.1 -3,-0.4 -3.9,-1 -1,-0.7 -1.9,-1.6 -2.8,-3.2 -1.1,-1.7 -2.7,-2.5 -4.7,-2.5 -0.9,0 -1.8,0.2 -2.6,0.6 -3,1.6 -6.6,2.5 -10.5,2.5 h -4.4 c -2.1,-6.3 -3.3,-13.1 -3.3,-20.2 0,-34.8 28.2,-63.1 63.1,-63.1 34.8,0 63.1,28.2 63.1,63.1 0,12.7 -3.7,24.4 -10.1,34.3 z"
       id="path11"
       inkscape:connector-curvature="0" /></g><path
     d="m 163.4,72.1 c 0,-5.8 -0.1,-10 -0.4,-13.9 h 9.5 l 0.4,8.2 h 0.3 c 2.1,-6.1 7.2,-9.2 11.8,-9.2 1.1,0 1.7,0 2.6,0.2 v 10.3 c -1,-0.2 -2,-0.3 -3.3,-0.3 -5.2,0 -8.8,3.3 -9.8,8.3 -0.2,1 -0.3,2.1 -0.3,3.3 v 22.4 h -10.9 z"
     id="path15"
     inkscape:connector-curvature="0"
     style="fill:#ffffff" /><path
     d="m 200.8,82.8 c 0.3,7.8 6.4,11.3 13.4,11.3 5,0 8.6,-0.8 11.9,-2 l 1.6,7.5 c -3.7,1.6 -8.8,2.7 -15.1,2.7 -14,0 -22.3,-8.7 -22.3,-21.9 0,-11.9 7.2,-23.2 21.1,-23.2 14.1,0 18.6,11.6 18.6,21 0,2 -0.2,3.7 -0.4,4.7 z m 19,-7.7 c 0,-4 -1.7,-10.5 -9,-10.5 -6.7,0 -9.5,6.1 -10,10.5 z"
     id="path17"
     inkscape:connector-curvature="0"
     style="fill:#ffffff" /><path
     d="m 266.3,82.7 c 0,1.1 -0.1,2.2 -0.3,3.2 -1.1,4.7 -5,7.8 -9.4,7.8 -6.9,0 -10.8,-5.8 -10.8,-13.7 0,-8 3.9,-14.2 10.9,-14.2 4.9,0 8.4,3.5 9.4,7.7 0.2,0.9 0.2,2 0.2,2.9 z m 10.9,-41.1 -10.9,-3.1 v 24.4 h -0.2 c -1.9,-3.2 -6.2,-5.6 -12.1,-5.6 -10.4,0 -19.4,8.6 -19.4,23.1 0,13.3 8.2,22.1 18.5,22.1 6.2,0 11.5,-3 14,-7.8 h 0.2 l 0.5,6.8 h 9.7 c -0.2,-2.9 -0.4,-7.7 -0.4,-12.1 V 41.6 Z"
     id="path19"
     inkscape:connector-curvature="0"
     style="fill:#ffffff" /><path
     d="m 306.1,57.2 c -3.3,0 -6.2,0.9 -8.7,2.5 -2.6,1.5 -4.7,3.8 -5.9,6.2 h -0.2 V 45.7 L 287,44.4 v 57 h 4.3 V 74.9 c 0,-1.8 0.1,-3 0.6,-4.3 1.8,-5.4 6.9,-9.8 13,-9.8 8.9,0 11.9,7.1 11.9,14.9 v 25.7 h 4.3 V 75.3 c 0,-16.1 -10.9,-18.1 -15,-18.1 z"
     id="path21"
     inkscape:connector-curvature="0"
     style="fill:#ffffff" /><path
     d="m 359.5,91.2 c 0,3.4 0.1,7 0.6,10.3 h -3.9 l -0.6,-6.2 h -0.2 c -2.1,3.3 -6.9,7.2 -13.8,7.2 -8.7,0 -12.8,-6.1 -12.8,-11.9 0,-10 8.8,-16 26.4,-15.8 v -1.2 c 0,-4.3 -0.8,-12.8 -11.1,-12.7 -3.8,0 -7.7,1 -10.9,3.2 L 331.8,61 c 4,-2.7 8.8,-3.7 12.7,-3.7 12.5,0 14.9,9.4 14.9,17.1 v 16.8 z m -4.2,-12.9 c -9.4,-0.3 -21.9,1.2 -21.9,11.5 0,6.2 4.1,9 8.6,9 7.2,0 11.3,-4.5 12.8,-8.7 0.3,-0.9 0.4,-1.9 0.4,-2.6 v -9.2 z"
     id="path23"
     inkscape:connector-curvature="0"
     style="fill:#ffffff" /><path
     d="m 376.6,48.6 v 9.5 h 12.3 v 3.5 h -12.3 v 28.1 c 0,5.5 1.7,8.9 6.4,8.9 2.2,0 3.8,-0.3 4.9,-0.7 l 0.5,3.3 c -1.4,0.6 -3.4,1 -6,1 -3.2,0 -5.8,-1 -7.5,-3.1 -2,-2.3 -2.6,-5.9 -2.6,-10.3 V 61.4 H 365 v -3.5 h 7.3 v -8 z"
     id="path25"
     inkscape:connector-curvature="0"
     style="fill:#ffffff" /><g
     id="g31"
     transform="translate(-117.4,-332.6)"><path
       d="m 511.7,431.7 h 0.6 l 0.9,1.4 h 0.6 l -0.9,-1.4 c 0.5,-0.1 0.8,-0.3 0.8,-0.9 0,-0.6 -0.4,-0.9 -1.2,-0.9 h -1.2 v 3.3 h 0.5 v -1.5 z m 0,-0.4 v -1 h 0.7 c 0.3,0 0.7,0.1 0.7,0.5 0,0.5 -0.4,0.5 -0.8,0.5 z"
       id="path27"
       inkscape:connector-curvature="0"
       style="fill:#ffffff" /><path
       d="m 515.5,431.5 c 0,1.8 -1.4,3.2 -3.2,3.2 -1.8,0 -3.2,-1.4 -3.2,-3.2 0,-1.8 1.4,-3.2 3.2,-3.2 1.8,0 3.2,1.5 3.2,3.2 z m -3.2,-2.6 c -1.5,0 -2.6,1.2 -2.6,2.6 0,1.4 1.2,2.6 2.6,2.6 1.4,0 2.6,-1.2 2.6,-2.6 0,-1.4 -1.2,-2.6 -2.6,-2.6 z"
       id="path29"
       inkscape:connector-curvature="0"
       style="fill:#ffffff" /></g><path
     d="m 82,96.6 c 0.3,0.3 0.9,1.4 0.2,2.7 -0.4,0.7 -0.8,1.2 -1.5,1.8 -0.9,0.7 -2.6,1.5 -5,0 -1.3,-0.8 -1.4,-1.1 -3.1,-0.9 -1.3,0.2 -1.8,-1.1 -1.3,-2.2 0.5,-1.1 2.3,-1.9 4.6,-0.6 1,0.6 2.7,1.9 4.1,0.8 0.6,-0.5 0.9,-0.8 1.8,-1.7 0,0 0.1,-0.1 0.1,-0.1 0,0.2 0.1,0.2 0.1,0.2 z"
     id="path33"
     inkscape:connector-curvature="0" /><path
     id="red"
     d="m 63.2,35.1 c -7.3,0.5 -8,1.3 -9.4,2.8 -1.9,2.1 -4.5,-2.7 -4.5,-2.7 -1.5,-0.3 -3.4,-2.8 -2.4,-5.1 1,-2.3 2.8,-1.6 3.4,-0.9 0.7,0.9 2.2,2.3 4.1,2.2 1.9,-0.1 4.1,-0.5 7.2,-0.5 3.1,0 5.2,1.2 5.3,2.2 0.1,0.9 -0.2,1.7 -3.7,2 z M 70.9,23 c 0,0 0,0 0,0 -0.1,0 -0.2,-0.1 -0.2,-0.2 0,-0.1 0,-0.1 0.1,-0.2 1.4,-0.7 3.5,-1.3 5.9,-1.6 0.7,-0.1 1.4,-0.1 2.1,-0.1 0.1,0 0.2,0 0.4,0 4,0.1 7.3,1.7 7.2,3.6 0,1.9 -3.4,3.4 -7.4,3.3 -1.3,0 -2.5,-0.2 -3.6,-0.5 -0.1,0 -0.2,-0.1 -0.2,-0.3 0,-0.1 0.1,-0.2 0.2,-0.3 2.5,-0.6 4.2,-1.5 4.1,-2.4 C 79.3,23.1 76,22.5 72.1,22.8 71.7,22.9 71.3,23 70.9,23 Z m 32.8,28.3 c -0.6,2.1 -1.5,4.8 -5.5,6.8 -0.6,0.3 -0.8,-0.2 -0.5,-0.6 1.5,-2.5 1.8,-3.2 2.2,-4.2 0.6,-1.5 0.9,-3.5 -0.3,-7.9 -2.4,-8.5 -7.3,-20 -10.9,-23.7 -3.5,-3.6 -9.8,-4.6 -15.5,-3.1 -2.1,0.5 -6.2,2.7 -13.8,1 -13.2,-3 -15.1,3.6 -15.9,6.5 -0.8,2.9 -2.6,11 -2.6,11 -0.6,3.3 -1.4,9.1 19,13 9.5,1.8 10,4.3 10.4,6 0.8,3.2 2,5 3.3,5.9 1.4,0.9 0,1.7 -1.5,1.8 -4.1,0.4 -19,-3.9 -27.9,-8.9 -7.2,-4.4 -7.4,-8.4 -5.7,-11.8 -10.9,-1.2 -19.2,1 -20.7,6.2 -2.6,8.9 19.6,24.1 44.7,31.7 26.4,8 53.6,2.4 56.6,-14.2 1.7,-7.5 -4.6,-13.1 -15.4,-15.5 z"
     inkscape:connector-curvature="0"
     style="fill:#cc0000" /></svg>