<?xml version="1.0" encoding="UTF-8" standalone="no"?>
<!-- Created with Inkscape (http://www.inkscape.org/) -->

<svg
   xmlns:dc="http://purl.org/dc/elements/1.1/"
   xmlns:cc="http://creativecommons.org/ns#"
   xmlns:rdf="http://www.w3.org/1999/02/22-rdf-syntax-ns#"
   xmlns:svg="http://www.w3.org/2000/svg"
   xmlns="http://www.w3.org/2000/svg"
   xmlns:sodipodi="http://sodipodi.sourceforge.net/DTD/sodipodi-0.dtd"
   xmlns:inkscape="http://www.inkscape.org/namespaces/inkscape"
   width="1500"
   height="300"
   id="svg2"
   version="1.1"
   inkscape:version="0.92.3 (2405546, 2018-03-11)"
   sodipodi:docname="kube_logo_black_with_text.svg"
   inkscape:export-filename="/home/thockin/Downloads/kubernetes.png"
   inkscape:export-xdpi="90"
   inkscape:export-ydpi="90">
  <defs
     id="defs4" />
  <sodipodi:namedview
     id="base"
     pagecolor="#ffffff"
     bordercolor="#666666"
     borderopacity="1.0"
     inkscape:pageopacity="0.0"
     inkscape:pageshadow="2"
     inkscape:zoom="0.37565048"
     inkscape:cx="454.39412"
     inkscape:cy="180.99818"
     inkscape:document-units="px"
     inkscape:current-layer="layer1"
     showgrid="false"
     inkscape:window-width="1519"
     inkscape:window-height="822"
     inkscape:window-x="82"
     inkscape:window-y="25"
     inkscape:window-maximized="0"
     inkscape:snap-global="false"
     fit-margin-top="10"
     fit-margin-left="10"
     fit-margin-right="10"
     fit-margin-bottom="10"
     inkscape:pagecheckerboard="true" />
  <metadata
     id="metadata7">
    <rdf:RDF>
      <cc:Work
         rdf:about="">
        <dc:format>image/svg+xml</dc:format>
        <dc:type
           rdf:resource="http://purl.org/dc/dcmitype/StillImage" />
        <dc:title></dc:title>
      </cc:Work>
    </rdf:RDF>
  </metadata>
  <g
     inkscape:label="Layer 1"
     inkscape:groupmode="layer"
     id="layer1"
     transform="translate(8.8111836,-588.78401)">
    <g
       id="g3752"
       transform="matrix(0.41670163,0,0,0.41670163,-9.2303301,522.67675)">
      <path
         inkscape:export-ydpi="250.55"
         inkscape:export-xdpi="250.55"
         inkscape:export-filename="new.png"
         inkscape:connector-curvature="0"
         id="path3055"
         d="m 369.53875,177.69828 a 46.724621,46.342246 0 0 0 -17.90625,4.53125 l -244.34376,116.75 a 46.724621,46.342246 0 0 0 -25.28125,31.4375 l -60.28125,262.25 a 46.724621,46.342246 0 0 0 6.34375,35.53125 46.724621,46.342246 0 0 0 2.65625,3.6875 l 169.12501,210.28125 a 46.724621,46.342246 0 0 0 36.53125,17.4375 l 271.21875,-0.0625 A 46.724621,46.342246 0 0 0 544.1325,842.13578 L 713.195,631.82328 a 46.724621,46.342246 0 0 0 9.03125,-39.21875 l -60.375,-262.25 A 46.724621,46.342246 0 0 0 636.57,298.91703 L 392.195,182.22953 a 46.724621,46.342246 0 0 0 -22.65625,-4.53125 z"
         style="fill:#326ce5;fill-opacity:1;stroke:none;stroke-width:0;stroke-miterlimit:4;stroke-dasharray:none;stroke-opacity:1" />
      <path
         transform="translate(-8.8111836,148.45869)"
         id="path3054-2-9"
         d="m 378.21875,10.25 a 49.325911,48.922245 0 0 0 -18.875,4.8125 L 101.375,138.28125 a 49.325911,48.922245 0 0 0 -26.6875,33.1875 L 11.0625,448.3125 a 49.325911,48.922245 0 0 0 6.6875,37.53125 49.325911,48.922245 0 0 0 2.8125,3.875 l 178.53125,222 a 49.325911,48.922245 0 0 0 38.5625,18.40625 l 286.3125,-0.0625 a 49.325911,48.922245 0 0 0 38.5625,-18.375 L 741,489.65625 a 49.325911,48.922245 0 0 0 9.53125,-41.375 L 686.8125,171.40625 A 49.325911,48.922245 0 0 0 660.125,138.25 L 402.15625,15.03125 A 49.325911,48.922245 0 0 0 378.21875,10.25 Z m 0.125,19 A 46.724621,46.342246 0 0 1 401,33.78125 l 244.375,116.6875 a 46.724621,46.342246 0 0 1 25.28125,31.4375 l 60.375,262.25 A 46.724621,46.342246 0 0 1 722,483.375 L 552.9375,693.6875 a 46.724621,46.342246 0 0 1 -36.53125,17.40625 l -271.21875,0.0625 a 46.724621,46.342246 0 0 1 -36.53125,-17.4375 L 39.53125,483.4375 A 46.724621,46.342246 0 0 1 36.875,479.75 46.724621,46.342246 0 0 1 30.53125,444.21875 l 60.28125,-262.25 a 46.724621,46.342246 0 0 1 25.28125,-31.4375 L 360.4375,33.78125 A 46.724621,46.342246 0 0 1 378.34375,29.25 Z"
         style="color:#000000;font-style:normal;font-variant:normal;font-weight:normal;font-stretch:normal;font-size:medium;line-height:normal;font-family:Sans;-inkscape-font-specification:Sans;text-indent:0;text-align:start;text-decoration:none;text-decoration-line:none;letter-spacing:normal;word-spacing:normal;text-transform:none;writing-mode:lr-tb;direction:ltr;baseline-shift:baseline;text-anchor:start;display:inline;overflow:visible;visibility:visible;fill:#ffffff;fill-opacity:1;fill-rule:nonzero;stroke:none;stroke-width:0;stroke-miterlimit:4;stroke-dasharray:none;marker:none;enable-background:accumulate"
         inkscape:connector-curvature="0" />
      <path
         inkscape:export-ydpi="250.55"
         inkscape:export-xdpi="250.55"
         inkscape:export-filename="./path3059.png"
         sodipodi:nodetypes="ccccccccsccccscssccsccccccccscccsccccccccccccccscccscsccsccccscscsccccccccscccscsccccsccccscscscccccccccccccccscccsccccccccccccscccccscccccccccccccccccccccccscccscccccccccscccscccc"
         style="color:#000000;font-style:normal;font-variant:normal;font-weight:normal;font-stretch:normal;font-size:medium;line-height:normal;font-family:Sans;-inkscape-font-specification:Sans;text-indent:0;text-align:start;text-decoration:none;text-decoration-line:none;letter-spacing:normal;word-spacing:normal;text-transform:none;writing-mode:lr-tb;direction:ltr;baseline-shift:baseline;text-anchor:start;display:inline;overflow:visible;visibility:visible;fill:#ffffff;fill-opacity:1;stroke:none;stroke-width:0;stroke-miterlimit:4;stroke-dasharray:none;stroke-opacity:1;marker:none;enable-background:accumulate"
         d="m 371.9599,266.94541 c -8.07696,8.2e-4 -14.62596,7.27591 -14.625,16.24999 10e-6,0.13773 0.0282,0.26934 0.0312,0.40625 -0.0119,1.21936 -0.0708,2.68836 -0.0312,3.75 0.19262,5.176 1.3209,9.13749 2,13.90625 1.23028,10.20666 2.26117,18.66736 1.625,26.53125 -0.61869,2.9654 -2.80288,5.67741 -4.75,7.5625 l -0.34375,6.1875 c -8.77682,0.72717 -17.61235,2.05874 -26.4375,4.0625 -37.97461,8.62218 -70.67008,28.18307 -95.5625,54.59375 -1.61522,-1.10193 -4.44103,-3.12914 -5.2813,-3.75 -2.61117,0.35262 -5.25021,1.15829 -8.6875,-0.84375 -6.54491,-4.40563 -12.50587,-10.48693 -19.71875,-17.8125 -3.30498,-3.50419 -5.69832,-6.84101 -9.625,-10.21875 -0.89172,-0.76707 -2.25258,-1.80455 -3.25,-2.59375 -3.06988,-2.44757 -6.6907,-3.72402 -10.1875,-3.84375 -4.49589,-0.15394 -8.82394,1.60385 -11.65625,5.15625 -5.03521,6.31538 -3.42312,15.96805 3.59375,21.5625 0.0712,0.0567 0.14702,0.10078 0.21875,0.15625 0.96422,0.78162 2.14496,1.78313 3.03125,2.4375 4.16687,3.07655 7.9732,4.65145 12.125,7.09375 8.747,5.40181 15.99837,9.88086 21.75,15.28125 2.24602,2.39417 2.63858,6.61292 2.9375,8.4375 l 4.6875,4.1875 c -25.09342,37.76368 -36.70686,84.40946 -29.8437,131.9375 l -6.125,1.78125 c -1.6143,2.08461 -3.89541,5.36474 -6.2813,6.34375 -7.52513,2.37021 -15.99424,3.24059 -26.21875,4.3125 -4.80031,0.39915 -8.94218,0.16095 -14.03125,1.125 -1.12008,0.21218 -2.68072,0.61877 -3.90625,0.90625 -0.0426,0.009 -0.0824,0.0216 -0.125,0.0312 -0.0668,0.0155 -0.15456,0.0479 -0.21875,0.0625 -8.62014,2.08279 -14.15774,10.006 -12.375,17.8125 1.78316,7.80833 10.20314,12.55677 18.875,10.6875 0.0626,-0.0143 0.1535,-0.0167 0.21875,-0.0312 0.0979,-0.0224 0.18409,-0.0699 0.28125,-0.0937 1.20885,-0.26536 2.72377,-0.5606 3.78125,-0.84375 5.00334,-1.33963 8.62694,-3.30796 13.125,-5.03125 9.67694,-3.47077 17.69173,-6.37022 25.5,-7.5 3.26118,-0.25542 6.69711,2.01216 8.40625,2.96875 l 6.375,-1.09375 c 14.67018,45.48282 45.41416,82.24502 84.34375,105.3125 l -2.65625,6.375 c 0.95742,2.47542 2.01341,5.8247 1.30022,8.26932 -2.83868,7.3612 -7.70097,15.13097 -13.23772,23.79318 -2.68085,4.00192 -5.42453,7.10761 -7.84375,11.6875 -0.5789,1.09589 -1.31618,2.77932 -1.875,3.9375 -3.75884,8.04236 -1.00164,17.3052 6.21875,20.78125 7.26575,3.49788 16.28447,-0.19134 20.1875,-8.25 0.006,-0.0114 0.0257,-0.0198 0.0312,-0.0312 0.004,-0.009 -0.004,-0.0225 0,-0.0312 0.55593,-1.14255 1.34353,-2.64437 1.8125,-3.71875 2.07213,-4.74702 2.76161,-8.81506 4.21875,-13.40625 3.86962,-9.72014 5.99567,-19.91903 11.32258,-26.27411 1.45868,-1.74023 3.83681,-2.4095 6.30242,-3.06964 l 3.3125,-6 c 33.93824,13.0268 71.92666,16.52246 109.875,7.90625 8.65697,-1.96557 17.01444,-4.50945 25.09375,-7.5625 0.93098,1.65133 2.66113,4.8257 3.125,5.625 2.50559,0.81518 5.24044,1.23614 7.46875,4.53125 3.98539,6.80898 6.7109,14.86416 10.03125,24.59375 1.45738,4.59111 2.17762,8.65933 4.25,13.40625 0.47234,1.08195 1.256,2.60486 1.8125,3.75 3.89482,8.08484 12.94212,11.78667 20.21875,8.28125 7.2195,-3.4779 9.97974,-12.7399 6.21875,-20.78125 -0.55889,-1.15814 -1.3273,-2.84164 -1.90625,-3.9375 -2.41946,-4.57976 -5.1627,-7.65448 -7.84375,-11.65625 -5.53721,-8.66192 -10.12968,-15.8577 -12.96875,-23.21875 -1.18711,-3.79657 0.20028,-6.15774 1.125,-8.625 -0.55378,-0.63477 -1.73881,-4.22009 -2.4375,-5.90625 40.4574,-23.88816 70.29856,-62.02129 84.3125,-106.0625 1.8924,0.29742 5.18154,0.87936 6.25,1.09375 2.19954,-1.4507 4.22194,-3.34352 8.1875,-3.03125 7.80832,1.12937 15.82288,4.02973 25.5,7.5 4.49815,1.72306 8.1216,3.72313 13.125,5.0625 1.05749,0.28309 2.57238,0.5472 3.78125,0.8125 0.0972,0.0238 0.1833,0.0714 0.28125,0.0937 0.0653,0.0146 0.15615,0.0169 0.21875,0.0312 8.67236,1.86695 17.09384,-2.87871 18.875,-10.6875 1.78074,-7.80696 -3.7543,-15.73201 -12.375,-17.8125 -1.25393,-0.28513 -3.03225,-0.76938 -4.25,-1 -5.08912,-0.96378 -9.23092,-0.7261 -14.03125,-1.125 -10.22456,-1.07138 -18.6935,-1.94269 -26.21875,-4.3125 -3.06826,-1.19028 -5.25103,-4.84124 -6.31255,-6.34375 l -5.90625,-1.71875 c 3.06226,-22.15442 2.23655,-45.21134 -3.0625,-68.28125 -5.34839,-23.28471 -14.80037,-44.58084 -27.40625,-63.34375 1.51505,-1.37729 4.37619,-3.91091 5.1875,-4.65625 0.23716,-2.62417 0.0334,-5.37553 2.75,-8.28125 5.75134,-5.40069 13.00329,-9.87898 21.75,-15.28125 4.15167,-2.44252 7.98954,-4.01698 12.15625,-7.09375 0.94225,-0.69576 2.2289,-1.79759 3.21875,-2.59375 7.01538,-5.59633 8.63058,-15.24842 3.59375,-21.5625 -5.03683,-6.31408 -14.79712,-6.90883 -21.8125,-1.3125 -0.99856,0.79085 -2.35353,1.82252 -3.25,2.59375 -3.9265,3.37796 -6.35145,6.71439 -9.65625,10.21875 -7.21249,7.32595 -13.17407,13.43777 -19.71875,17.84375 -2.83601,1.65106 -6.98996,1.07978 -8.87505,0.96875 l -5.5625,3.96875 c -31.7188,-33.26057 -74.90466,-54.52546 -121.40605,-58.6563 -0.13006,-1.94872 -0.30045,-5.47117 -0.34375,-6.53125 -1.90371,-1.82165 -4.20342,-3.37686 -4.78125,-7.3125 -0.63617,-7.86389 0.42597,-16.32459 1.65625,-26.53125 0.6791,-4.76876 1.80738,-8.73025 2,-13.90625 0.0438,-1.17663 -0.0265,-2.88401 -0.0312,-4.15625 -9.6e-4,-8.97408 -6.54804,-16.25081 -14.625,-16.24999 z m -18.3125,113.43749 -4.34375,76.71875 -0.3125,0.15625 c -0.29134,6.86335 -5.93996,12.34375 -12.875,12.34375 -2.84081,0 -5.46294,-0.91229 -7.59375,-2.46875 l -0.125,0.0625 -62.90625,-44.59375 c 19.33365,-19.01115 44.06291,-33.06039 72.5625,-39.53125 5.20599,-1.18203 10.40966,-2.0591 15.59375,-2.6875 z m 36.65625,0 c 33.27347,4.09232 64.04501,19.15882 87.625,42.25 l -62.5,44.3125 -0.21875,-0.0937 c -5.54745,4.05169 -13.36343,3.04639 -17.6875,-2.375 -1.77132,-2.22096 -2.70072,-4.83239 -2.8125,-7.46875 l -0.0625,-0.0312 z m -147.625,70.875 57.4375,51.375 -0.0625,0.3125 c 5.18437,4.50697 5.94888,12.32794 1.625,17.75 -1.7712,2.22105 -4.14208,3.71074 -6.6875,4.40625 l -0.0625,0.25 -73.625,21.25 c -3.74728,-34.26517 4.32855,-67.57364 21.375,-95.34375 z m 258.15625,0.0312 c 8.5341,13.83256 14.99655,29.28214 18.84375,46.03125 3.80106,16.54828 4.75499,33.06697 3.1875,49.03125 l -74,-21.3125 -0.0625,-0.3125 c -6.6265,-1.81104 -10.69893,-8.55162 -9.15625,-15.3125 0.63203,-2.76962 2.10222,-5.11264 4.09375,-6.84375 l -0.0312,-0.15625 57.125,-51.125 z m -140.65625,55.3125 h 23.53125 l 14.625,18.28125 -5.25,22.8125 -21.125,10.15625 -21.1875,-10.1875 -5.25,-22.8125 z m 75.4375,62.5625 c 0.99997,-0.0505 1.99558,0.0396 2.96875,0.21875 l 0.125,-0.15625 76.15625,12.875 c -11.1455,31.3131 -32.47281,58.44018 -60.96875,76.59375 l -29.5625,-71.40625 0.0937,-0.125 c -2.71561,-6.30999 0.002,-13.70956 6.25,-16.71875 1.59965,-0.77041 3.27089,-1.19701 4.9375,-1.28125 z m -127.90625,0.3125 c 5.81174,0.0815 11.02462,4.11525 12.375,10.03125 0.63219,2.76958 0.3245,5.51375 -0.71875,7.9375 l 0.21875,0.28125 -29.25,70.6875 c -27.34716,-17.5486 -49.12927,-43.82403 -60.78125,-76.06245 l 75.5,-12.8125 0.125,0.15625 c 0.84451,-0.15541 1.701,-0.2304 2.53125,-0.21875 z m 63.78125,30.9688 c 2.02445,-0.0744 4.07865,0.34098 6.03125,1.28125 2.55951,1.23253 4.53673,3.17319 5.78125,5.5 h 0.28125 l 37.21875,67.25 c -4.83029,1.61923 -9.79609,3.00308 -14.875,4.15625 -28.46453,6.4629 -56.83862,4.50467 -82.53125,-4.25 l 37.125,-67.125 h 0.0625 c 2.22767,-4.16441 6.45247,-6.64887 10.90625,-6.8125 z"
         id="path3059"
         inkscape:connector-curvature="0" />
    </g>
    <path
       inkscape:connector-curvature="0"
       d="m 388.15157,741.61815 c 2.90775,-3.17207 5.88164,-6.47638 8.92165,-9.91294 3.1721,-3.43641 6.21205,-6.8068 9.1199,-10.1112 2.90774,-3.4364 5.61728,-6.67463 8.12861,-9.71468 2.6434,-3.03987 4.89032,-5.68332 6.7408,-7.93036 h 35.09186 c -7.00529,8.06262 -13.87827,15.79471 -20.61896,23.19629 -6.6087,7.26956 -13.87819,14.80338 -21.80847,22.6015 3.9651,3.56872 8.06245,7.86431 12.29204,12.88682 4.22945,4.89043 8.32679,9.97906 12.2921,15.26593 3.96502,5.28693 7.59977,10.57382 10.90423,15.86071 3.30417,5.28691 6.07979,10.1112 8.32687,14.47289 h -33.9023 c -2.11483,-3.43649 -4.56003,-7.2034 -7.33558,-11.30075 -2.64351,-4.22951 -5.48522,-8.39294 -8.52513,-12.49031 -3.04002,-4.22949 -6.27824,-8.26075 -9.71468,-12.09378 -3.30436,-3.83296 -6.60867,-7.07119 -9.91294,-9.71469 v 45.59953 H 358.61102 V 659.14248 l 29.54055,-4.75821 v 87.23388"
       style="font-style:normal;font-variant:normal;font-weight:bold;font-stretch:normal;font-size:135px;line-height:125%;font-family:Ubuntu;-inkscape-font-specification:'Ubuntu Bold';letter-spacing:0px;word-spacing:0px;fill:#000000;fill-opacity:1;stroke:none;stroke-width:1.46858382"
       id="path2985" />
    <path
       inkscape:connector-curvature="0"
       d="m 560.31149,804.66445 c -5.0227,1.4539 -11.49916,2.77563 -19.42936,3.96518 -7.9305,1.32172 -16.25737,1.98259 -24.98061,1.98259 -8.85556,0 -16.25723,-1.18956 -22.20499,-3.56866 -5.81559,-2.37911 -10.44163,-5.68342 -13.87812,-9.91294 -3.43648,-4.36168 -5.88167,-9.51641 -7.33557,-15.46419 -1.4539,-5.94774 -2.18085,-12.49026 -2.18085,-19.62762 v -58.08984 h 29.54056 v 54.52118 c 0,9.51647 1.25564,16.38942 3.76692,20.61891 2.51128,4.22956 7.2034,6.3443 14.07638,6.34429 2.11461,10e-6 4.36154,-0.0661 6.7408,-0.19826 2.37896,-0.26433 4.49372,-0.52868 6.34428,-0.79304 v -80.49308 h 29.54056 v 100.71548"
       style="font-style:normal;font-variant:normal;font-weight:bold;font-stretch:normal;font-size:135px;line-height:125%;font-family:Ubuntu;-inkscape-font-specification:'Ubuntu Bold';letter-spacing:0px;word-spacing:0px;fill:#000000;fill-opacity:1;stroke:none;stroke-width:1.46858382"
       id="path2987" />
    <path
       inkscape:connector-curvature="0"
       d="m 655.04822,755.29801 c -1.5e-4,-19.03278 -7.00529,-28.5492 -21.01544,-28.54927 -3.03997,7e-5 -6.07993,0.39659 -9.1199,1.18955 -2.9078,0.79311 -5.2869,1.7844 -7.13732,2.97388 v 53.72814 c 1.4539,0.26436 3.30431,0.52871 5.55125,0.79304 2.24693,0.13217 4.69212,0.19827 7.33557,0.19826 8.06253,10e-6 14.14232,-2.7756 18.23981,-8.32687 4.09721,-5.55122 6.14588,-12.88678 6.14603,-22.00673 m 30.13534,0.79303 c -1.5e-4,8.32692 -1.25579,15.86074 -3.76692,22.60151 -2.37925,6.74081 -5.88183,12.49032 -10.50772,17.24851 -4.62618,4.75822 -10.3096,8.45905 -17.05026,11.1025 -6.74094,2.51128 -14.4068,3.76691 -22.99802,3.76691 -3.56866,0 -7.33557,-0.19825 -11.30075,-0.59477 -3.833,-0.26435 -7.66601,-0.66086 -11.49901,-1.18955 -3.70083,-0.52869 -7.26949,-1.12347 -10.70598,-1.78433 -3.43648,-0.79304 -6.47645,-1.58607 -9.1199,-2.37911 V 659.14248 l 29.54056,-4.75821 v 51.94381 c 3.30431,-1.45379 6.7408,-2.57726 10.30946,-3.3704 3.56866,-0.79293 7.40166,-1.18945 11.49901,-1.18955 7.40152,10e-5 13.94406,1.32183 19.62762,3.96517 5.68327,2.51139 10.44149,6.14612 14.27464,10.90424 3.83285,4.7583 6.74065,10.50779 8.72338,17.24852 1.98245,6.60868 2.97374,14.01034 2.97389,22.20498"
       style="font-style:normal;font-variant:normal;font-weight:bold;font-stretch:normal;font-size:135px;line-height:125%;font-family:Ubuntu;-inkscape-font-specification:'Ubuntu Bold';letter-spacing:0px;word-spacing:0px;fill:#000000;fill-opacity:1;stroke:none;stroke-width:1.46858382"
       id="path2989" />
    <path
       inkscape:connector-curvature="0"
       d="m 702.9308,756.88408 c 0,-9.25202 1.38782,-17.31453 4.16344,-24.18758 2.9078,-7.00505 6.67471,-12.82065 11.30075,-17.44677 4.62604,-4.62594 9.91294,-8.12851 15.86071,-10.50772 6.07993,-2.379 12.29204,-3.56856 18.63633,-3.56866 14.80332,10e-5 26.50044,4.56006 35.09181,13.67986 8.59106,8.98782 12.88667,22.27115 12.88682,39.85002 -1.5e-4,1.71829 -0.0661,3.63479 -0.19826,5.74951 -0.13217,1.98263 -0.26449,3.76696 -0.39652,5.35298 H 733.2644 c 0.66087,6.07997 3.50258,10.90427 8.52513,14.4729 5.02256,3.56869 11.76336,5.353 20.2224,5.35299 5.41908,10e-6 10.70598,-0.46259 15.86071,-1.38782 5.28675,-1.05735 9.58236,-2.31299 12.88682,-3.76691 l 3.96517,23.98931 c -1.58621,0.79304 -3.70097,1.58607 -6.34428,2.37911 -2.64359,0.79303 -5.61748,1.4539 -8.92164,1.98259 -3.17214,0.66086 -6.60863,1.18955 -10.30946,1.58607 -3.70083,0.39651 -7.40166,0.59477 -11.1025,0.59477 -9.38425,0 -17.57894,-1.38781 -24.58409,-4.16343 -6.87297,-2.77562 -12.62248,-6.54254 -17.24852,-11.30075 -4.49386,-4.89037 -7.86426,-10.63988 -10.11119,-17.24852 -2.11477,-6.6086 -3.17215,-13.7459 -3.17215,-21.41195 m 69.39059,-11.30075 c -0.13217,-2.51122 -0.59478,-4.95642 -1.38781,-7.33558 -0.66087,-2.37903 -1.78433,-4.49379 -3.3704,-6.34428 -1.4539,-1.85034 -3.3704,-3.37033 -5.74951,-4.55996 -2.24693,-1.18947 -5.08864,-1.78424 -8.52513,-1.78432 -3.30431,8e-5 -6.14602,0.59485 -8.52513,1.78432 -2.3791,1.05746 -4.36169,2.51136 -5.94776,4.3617 -1.58607,1.85049 -2.84171,4.03133 -3.76692,6.54254 -0.79303,2.37916 -1.38781,4.82436 -1.78433,7.33558 h 39.05699"
       style="font-style:normal;font-variant:normal;font-weight:bold;font-stretch:normal;font-size:135px;line-height:125%;font-family:Ubuntu;-inkscape-font-specification:'Ubuntu Bold';letter-spacing:0px;word-spacing:0px;fill:#000000;fill-opacity:1;stroke:none;stroke-width:1.46858382"
       id="path2991" />
    <path
       inkscape:connector-curvature="0"
       d="m 886.51538,730.11914 c -2.6436,-0.66079 -5.74965,-1.32165 -9.31816,-1.98259 -3.56866,-0.79296 -7.40167,-1.18948 -11.49901,-1.18955 -1.85042,7e-5 -4.09735,0.19833 -6.7408,0.59477 -2.51128,0.26442 -4.42778,0.59485 -5.74951,0.9913 v 79.70004 h -29.54056 v -98.73289 c 5.2869,-1.85031 11.49901,-3.56855 18.63633,-5.15473 7.26949,-1.71814 15.33201,-2.57726 24.18757,-2.57736 1.58607,10e-5 3.50257,0.13232 5.74951,0.39652 2.24693,0.13231 4.49386,0.39662 6.7408,0.79303 2.24678,0.26445 4.49372,0.66097 6.7408,1.18955 2.24678,0.39662 4.16328,0.92531 5.7495,1.58607 l -4.95647,24.38584"
       style="font-style:normal;font-variant:normal;font-weight:bold;font-stretch:normal;font-size:135px;line-height:125%;font-family:Ubuntu;-inkscape-font-specification:'Ubuntu Bold';letter-spacing:0px;word-spacing:0px;fill:#000000;fill-opacity:1;stroke:none;stroke-width:1.46858382"
       id="path2993" />
    <path
       inkscape:connector-curvature="0"
       d="m 907.30774,707.51763 c 5.02255,-1.45379 11.49901,-2.77552 19.42936,-3.96517 7.93035,-1.32163 16.25722,-1.98249 24.98061,-1.98259 8.85556,10e-5 16.19114,1.18965 22.00673,3.56866 5.94776,2.24703 10.63989,5.48526 14.07638,9.71468 3.43648,4.22961 5.88167,9.25217 7.33557,15.06767 1.4539,5.81566 2.18085,12.2921 2.18085,19.42936 v 58.88287 H 967.77668 V 752.9189 c 0,-9.51636 -1.25564,-16.25715 -3.76692,-20.2224 -2.51128,-3.9651 -7.20341,-5.94769 -14.07638,-5.94776 -2.11476,7e-5 -4.36169,0.13232 -6.7408,0.39652 -2.3791,0.13217 -4.49386,0.3305 -6.34428,0.59477 v 80.49308 H 907.30774 V 707.51763"
       style="font-style:normal;font-variant:normal;font-weight:bold;font-stretch:normal;font-size:135px;line-height:125%;font-family:Ubuntu;-inkscape-font-specification:'Ubuntu Bold';letter-spacing:0px;word-spacing:0px;fill:#000000;fill-opacity:1;stroke:none;stroke-width:1.46858382"
       id="path2995" />
    <path
       inkscape:connector-curvature="0"
       d="m 1019.293,756.88408 c 0,-9.25202 1.3878,-17.31453 4.1634,-24.18758 2.9078,-7.00505 6.6747,-12.82065 11.3008,-17.44677 4.626,-4.62594 9.9129,-8.12851 15.8607,-10.50772 6.0799,-2.379 12.292,-3.56856 18.6363,-3.56866 14.8033,10e-5 26.5006,4.56006 35.0918,13.67986 8.5912,8.98782 12.8868,22.27115 12.8868,39.85002 0,1.71829 -0.066,3.63479 -0.1982,5.74951 -0.1322,1.98263 -0.2644,3.76696 -0.3965,5.35298 h -67.0115 c 0.6608,6.07997 3.5026,10.90427 8.5251,14.4729 5.0226,3.56869 11.7634,5.353 20.2224,5.35299 5.4191,10e-6 10.706,-0.46259 15.8607,-1.38782 5.2869,-1.05735 9.5825,-2.31299 12.8868,-3.76691 l 3.9652,23.98931 c -1.5861,0.79304 -3.7008,1.58607 -6.3443,2.37911 -2.6434,0.79303 -5.6173,1.4539 -8.9216,1.98259 -3.1722,0.66086 -6.6086,1.18955 -10.3095,1.58607 -3.7008,0.39651 -7.4016,0.59477 -11.1025,0.59477 -9.3842,0 -17.5789,-1.38781 -24.5841,-4.16343 -6.8729,-2.77562 -12.6224,-6.54254 -17.2485,-11.30075 -4.4938,-4.89037 -7.8642,-10.63988 -10.1112,-17.24852 -2.1147,-6.6086 -3.1721,-13.7459 -3.1721,-21.41195 m 69.3906,-11.30075 c -0.1322,-2.51122 -0.5948,-4.95642 -1.3878,-7.33558 -0.6609,-2.37903 -1.7844,-4.49379 -3.3704,-6.34428 -1.4539,-1.85034 -3.3704,-3.37033 -5.7496,-4.55996 -2.2469,-1.18947 -5.0886,-1.78424 -8.5251,-1.78432 -3.3043,8e-5 -6.146,0.59485 -8.5251,1.78432 -2.3791,1.05746 -4.3617,2.51136 -5.9478,4.3617 -1.586,1.85049 -2.8417,4.03133 -3.7669,6.54254 -0.793,2.37916 -1.3878,4.82436 -1.7843,7.33558 h 39.057"
       style="font-style:normal;font-variant:normal;font-weight:bold;font-stretch:normal;font-size:135px;line-height:125%;font-family:Ubuntu;-inkscape-font-specification:'Ubuntu Bold';letter-spacing:0px;word-spacing:0px;fill:#000000;fill-opacity:1;stroke:none;stroke-width:1.46858382"
       id="path2997" />
    <path
       inkscape:connector-curvature="0"
       d="m 1139.0382,677.97707 29.5406,-4.75821 v 30.73011 h 35.4883 v 24.5841 h -35.4883 v 36.67788 c 0,6.21214 1.0574,11.16861 3.1721,14.86941 2.247,3.70086 6.6747,5.55126 13.2834,5.55125 3.1721,10e-6 6.4103,-0.26433 9.7146,-0.79304 3.4365,-0.66083 6.5426,-1.51995 9.3182,-2.57736 l 4.1634,22.99802 c -3.5686,1.4539 -7.5338,2.70954 -11.8955,3.76692 -4.3617,1.05738 -9.7147,1.58607 -16.0589,1.58607 -8.0626,0 -14.7373,-1.05738 -20.0242,-3.17214 -5.2869,-2.24694 -9.5164,-5.28691 -12.6886,-9.11991 -3.1721,-3.96516 -5.419,-8.72337 -6.7408,-14.27463 -1.1895,-5.55122 -1.7843,-11.69725 -1.7843,-18.43807 v -87.6304"
       style="font-style:normal;font-variant:normal;font-weight:bold;font-stretch:normal;font-size:135px;line-height:125%;font-family:Ubuntu;-inkscape-font-specification:'Ubuntu Bold';letter-spacing:0px;word-spacing:0px;fill:#000000;fill-opacity:1;stroke:none;stroke-width:1.46858382"
       id="path2999" />
    <path
       inkscape:connector-curvature="0"
       d="m 1219.1007,756.88408 c 0,-9.25202 1.3878,-17.31453 4.1634,-24.18758 2.9078,-7.00505 6.6748,-12.82065 11.3008,-17.44677 4.626,-4.62594 9.9129,-8.12851 15.8607,-10.50772 6.0799,-2.379 12.292,-3.56856 18.6363,-3.56866 14.8034,10e-5 26.5006,4.56006 35.0918,13.67986 8.5911,8.98782 12.8867,22.27115 12.8869,39.85002 -2e-4,1.71829 -0.066,3.63479 -0.1983,5.74951 -0.1322,1.98263 -0.2645,3.76696 -0.3965,5.35298 h -67.0115 c 0.6609,6.07997 3.5026,10.90427 8.5251,14.4729 5.0226,3.56869 11.7634,5.353 20.2224,5.35299 5.4191,10e-6 10.706,-0.46259 15.8607,-1.38782 5.2869,-1.05735 9.5825,-2.31299 12.8869,-3.76691 l 3.9651,23.98931 c -1.5862,0.79304 -3.7008,1.58607 -6.3442,2.37911 -2.6435,0.79303 -5.6174,1.4539 -8.9217,1.98259 -3.1721,0.66086 -6.6086,1.18955 -10.3094,1.58607 -3.7009,0.39651 -7.4017,0.59477 -11.1025,0.59477 -9.3843,0 -17.579,-1.38781 -24.5841,-4.16343 -6.873,-2.77562 -12.6225,-6.54254 -17.2486,-11.30075 -4.4938,-4.89037 -7.8642,-10.63988 -10.1112,-17.24852 -2.1147,-6.6086 -3.1721,-13.7459 -3.1721,-21.41195 m 69.3906,-11.30075 c -0.1322,-2.51122 -0.5948,-4.95642 -1.3878,-7.33558 -0.6609,-2.37903 -1.7843,-4.49379 -3.3704,-6.34428 -1.4539,-1.85034 -3.3704,-3.37033 -5.7495,-4.55996 -2.247,-1.18947 -5.0887,-1.78424 -8.5252,-1.78432 -3.3043,8e-5 -6.146,0.59485 -8.5251,1.78432 -2.3791,1.05746 -4.3617,2.51136 -5.9477,4.3617 -1.5861,1.85049 -2.8418,4.03133 -3.767,6.54254 -0.793,2.37916 -1.3878,4.82436 -1.7843,7.33558 h 39.057"
       style="font-style:normal;font-variant:normal;font-weight:bold;font-stretch:normal;font-size:135px;line-height:125%;font-family:Ubuntu;-inkscape-font-specification:'Ubuntu Bold';letter-spacing:0px;word-spacing:0px;fill:#000000;fill-opacity:1;stroke:none;stroke-width:1.46858382"
       id="path3001" />
    <path
       inkscape:connector-curvature="0"
       d="m 1369.7743,787.01942 c 5.4191,1e-5 9.2521,-0.52868 11.499,-1.58607 2.247,-1.05735 3.3704,-3.10603 3.3704,-6.14603 0,-2.37907 -1.4539,-4.42775 -4.3617,-6.14602 -2.9078,-1.85039 -7.3355,-3.89905 -13.2833,-6.14602 -4.626,-1.7182 -8.8556,-3.50253 -12.6886,-5.35299 -3.7008,-1.85037 -6.8729,-4.03122 -9.5164,-6.54254 -2.6434,-2.64339 -4.6921,-5.74945 -6.146,-9.31817 -1.4539,-3.5686 -2.1809,-7.86419 -2.1809,-12.88682 0,-9.78068 3.6348,-17.51277 10.9043,-23.19628 7.2695,-5.68332 17.2485,-8.52503 29.9371,-8.52513 6.3442,10e-5 12.4242,0.59488 18.2398,1.78433 5.8156,1.05748 10.4416,2.24704 13.8781,3.56866 l -5.1547,22.99802 c -3.4365,-1.18948 -7.2034,-2.24686 -11.3008,-3.17214 -3.9652,-0.92512 -8.459,-1.38772 -13.4816,-1.38781 -9.2521,9e-5 -13.8781,2.57744 -13.8781,7.73209 0,1.18963 0.1982,2.24701 0.5948,3.17214 0.3965,0.92528 1.1895,1.85049 2.3791,2.77563 1.1895,0.79311 2.7756,1.71831 4.7582,2.77562 2.1147,0.92527 4.7582,1.98265 7.9303,3.17214 6.4765,2.37917 11.8295,4.75827 16.059,7.13732 4.2295,2.24699 7.5338,4.75825 9.9129,7.53383 2.5113,2.6435 4.2294,5.61738 5.1548,8.92165 1.0572,3.30434 1.5859,7.13735 1.586,11.49901 -1e-4,10.30947 -3.8992,18.10765 -11.6972,23.39454 -7.666,5.2869 -18.5703,7.93035 -32.7127,7.93035 -9.2521,0 -16.9842,-0.79303 -23.1963,-2.3791 -6.08,-1.58607 -10.3095,-2.9078 -12.6886,-3.96518 l 4.9565,-23.98931 c 5.0225,1.98261 10.1773,3.56868 15.4642,4.75821 5.2869,1.05739 10.5077,1.58608 15.6624,1.58607"
       style="font-style:normal;font-variant:normal;font-weight:bold;font-stretch:normal;font-size:135px;line-height:125%;font-family:Ubuntu;-inkscape-font-specification:'Ubuntu Bold';letter-spacing:0px;word-spacing:0px;fill:#000000;fill-opacity:1;stroke:none;stroke-width:1.46858382"
       id="path3003" />
  </g>
</svg>
