<?xml version="1.0" encoding="UTF-8" standalone="no"?>
<svg
   xmlns:dc="http://purl.org/dc/elements/1.1/"
   xmlns:cc="http://creativecommons.org/ns#"
   xmlns:rdf="http://www.w3.org/1999/02/22-rdf-syntax-ns#"
   xmlns:svg="http://www.w3.org/2000/svg"
   xmlns="http://www.w3.org/2000/svg"
   xmlns:sodipodi="http://sodipodi.sourceforge.net/DTD/sodipodi-0.dtd"
   xmlns:inkscape="http://www.inkscape.org/namespaces/inkscape"
   version="1.1"
   viewBox="0 0 1424.5925 520.29633"
   stroke-miterlimit="10"
   id="svg109"
   sodipodi:docname="camel-as-knative-event-source.svg"
   inkscape:version="0.92.4 (unknown)"
   width="1424.5925"
   height="520.29633"
   style="fill:none;stroke:none;stroke-linecap:square;stroke-miterlimit:10">
  <metadata
     id="metadata115">
    <rdf:RDF>
      <cc:Work
         rdf:about="">
        <dc:format>image/svg+xml</dc:format>
        <dc:type
           rdf:resource="http://purl.org/dc/dcmitype/StillImage" />
        <dc:title></dc:title>
      </cc:Work>
    </rdf:RDF>
  </metadata>
  <defs
     id="defs113">
    <clipPath
       id="g5eaaacc56d_0_2434.2">
      <path
         d="M 0,0 H 512 V 512 H 0 Z"
         id="path44"
         inkscape:connector-curvature="0"
         style="clip-rule:evenodd" />
    </clipPath>
    <clipPath
       id="g5eaaacc56d_0_2434.1">
      <path
         d="M 0,0.23606557 H 306 V 71.771086 H 0 Z"
         id="path17"
         inkscape:connector-curvature="0"
         style="clip-rule:evenodd" />
    </clipPath>
  </defs>
  <sodipodi:namedview
     pagecolor="#ffffff"
     bordercolor="#666666"
     borderopacity="1"
     objecttolerance="10"
     gridtolerance="10"
     guidetolerance="10"
     inkscape:pageopacity="0"
     inkscape:pageshadow="2"
     inkscape:window-width="1838"
     inkscape:window-height="1055"
     id="namedview111"
     showgrid="false"
     inkscape:pagecheckerboard="true"
     inkscape:zoom="0.59662135"
     inkscape:cx="630.97709"
     inkscape:cy="224.62074"
     inkscape:window-x="82"
     inkscape:window-y="0"
     inkscape:window-maximized="1"
     inkscape:current-layer="svg109"
     fit-margin-top="0"
     fit-margin-left="0"
     fit-margin-right="0"
     fit-margin-bottom="0" />
  <clipPath
     id="g5eaaacc56d_0_2434.0">
    <path
       d="M 0,0 H 1536 V 864 H 0 Z"
       id="path2"
       inkscape:connector-curvature="0"
       style="clip-rule:nonzero" />
  </clipPath>
  <path
     style="fill:#ffffff;fill-rule:evenodd;stroke-width:1"
     inkscape:connector-curvature="0"
     id="path5"
     d="M 0,0 H 1424.5926 V 520.2963 H 0 Z" />
  <path
     style="fill:#000000;fill-opacity:0;fill-rule:evenodd"
     inkscape:connector-curvature="0"
     id="path28"
     d="M 701.14116,25.1362 V 515.68735" />
  <path
     style="fill-rule:evenodd;stroke:#595959;stroke-width:1;stroke-linecap:butt;stroke-linejoin:round;stroke-dasharray:4, 3"
     inkscape:connector-curvature="0"
     id="path30"
     d="M 701.14116,25.1362 V 515.68735" />
  <path
     style="fill:#3d85c6;fill-rule:evenodd"
     inkscape:connector-curvature="0"
     id="path32"
     d="M 611.64982,114.774 H 766.32694 V 68.85274 l 91.84253,91.84253 -91.84253,91.8425 V 206.61653 H 611.64982 Z" />
  <path
     style="fill-rule:evenodd;stroke:#595959;stroke-width:1;stroke-linecap:butt;stroke-linejoin:round"
     inkscape:connector-curvature="0"
     id="path34"
     d="M 611.64982,114.774 H 766.32694 V 68.85274 l 91.84253,91.84253 -91.84253,91.8425 V 206.61653 H 611.64982 Z" />
  <path
     style="fill:#ffffff;fill-rule:evenodd"
     inkscape:connector-curvature="0"
     id="path36"
     d="m 895.87449,117.63382 h 453.31621 l 15.7988,15.79874 v 78.99182 H 895.87448 Z" />
  <path
     style="fill-rule:evenodd;stroke:#595959;stroke-width:1;stroke-linecap:butt;stroke-linejoin:round"
     inkscape:connector-curvature="0"
     id="path38"
     d="m 895.87449,117.63382 h 453.31621 l 15.7988,15.79874 v 78.99182 H 895.87448 Z" />
  <path
     style="fill:#000000;fill-opacity:0;fill-rule:evenodd"
     inkscape:connector-curvature="0"
     id="path42"
     d="m 917.2036,148.98923 h 45.50966 V 194.4989 H 917.2036 Z" />
  <path
     style="fill:#ffffff;fill-rule:evenodd"
     inkscape:connector-curvature="0"
     id="path51"
     d="M 25.5296,80.51932 H 565.9391 V 244.14139 H 25.5296 Z" />
  <path
     style="fill-rule:evenodd;stroke:#000000;stroke-width:1;stroke-linecap:butt;stroke-linejoin:round"
     inkscape:connector-curvature="0"
     id="path53"
     d="M 25.5296,80.51932 H 565.9391 V 244.14139 H 25.5296 Z" />
  <path
     style="fill:#000000;fill-rule:nonzero"
     inkscape:connector-curvature="0"
     id="path55"
     d="m 45.2171,115.9993 v -9.78125 h -3.10937 v -1.48438 h 3.10937 v -0.79687 q 0,-1.07813 0.3125,-1.89063 0.32813,-0.82812 0.90625,-1.375 0.57813,-0.54687 1.39063,-0.82812 0.8125,-0.28125 1.8125,-0.28125 0.6875,0 1.32812,0.10937 0.65625,0.10938 1.34375,0.29688 l -0.23437,1.59375 q -0.42188,-0.15625 -1,-0.26563 -0.5625,-0.10937 -1.20313,-0.10937 -1.35937,0.0156 -2.04687,0.70312 -0.67188,0.67188 -0.67188,2.04688 v 0.79687 h 4.34375 v 1.48438 H 47.1546 v 9.78125 z m 17.325,-11.46875 q 0.26562,0 0.54687,0.0156 0.29688,0.0156 0.5625,0.0469 0.26563,0.0312 0.48438,0.0937 0.23437,0.0469 0.375,0.10937 l -0.26563,1.875 q -0.54687,-0.125 -1.0625,-0.17187 -0.5,-0.0625 -1.04687,-0.0625 -1.35938,0 -2.20313,0.625 -0.82812,0.60937 -1.23437,1.70312 v 7.23438 h -1.9375 v -11.26563 h 1.84375 l 0.0937,1.78125 q 0.6875,-0.92187 1.64062,-1.45312 0.96875,-0.53125 2.20313,-0.53125 z m 4.86146,5.73437 q 0,-1.21875 0.35938,-2.26562 0.35937,-1.04688 1.01562,-1.8125 0.65625,-0.78125 1.60938,-1.21875 0.95312,-0.4375 2.14062,-0.4375 1.1875,0 2.14063,0.4375 0.95312,0.4375 1.60937,1.21875 0.67188,0.76562 1.01563,1.8125 0.35937,1.04687 0.35937,2.26562 v 0.21875 q 0,1.21875 -0.35937,2.26563 -0.34375,1.04687 -1.01563,1.8125 -0.65625,0.76562 -1.60937,1.20312 -0.9375,0.4375 -2.125,0.4375 -1.20313,0 -2.15625,-0.4375 -0.95313,-0.4375 -1.60938,-1.20312 -0.65625,-0.76563 -1.01562,-1.8125 -0.35938,-1.04688 -0.35938,-2.26563 z m 1.9375,0.21875 q 0,0.84375 0.1875,1.59375 0.20313,0.75 0.59375,1.32813 0.40625,0.57812 1.01563,0.90625 0.60937,0.32812 1.40625,0.32812 0.79687,0 1.39062,-0.32812 0.59375,-0.32813 1,-0.90625 0.40625,-0.57813 0.59375,-1.32813 0.20313,-0.75 0.20313,-1.59375 v -0.21875 q 0,-0.82812 -0.20313,-1.57812 -0.20312,-0.76563 -0.60937,-1.32813 -0.39063,-0.57812 -1,-0.90625 -0.59375,-0.34375 -1.39063,-0.34375 -0.8125,0 -1.40625,0.34375 -0.59375,0.32813 -1,0.90625 -0.39062,0.5625 -0.59375,1.32813 -0.1875,0.75 -0.1875,1.57812 z m 12.29897,-5.75 0.0469,1.0625 q 0.34375,-0.59375 0.89063,-0.92187 0.5625,-0.34375 1.35937,-0.34375 1.54688,0 2.07813,1.20312 0.32812,-0.54687 0.875,-0.875 0.54687,-0.32812 1.32812,-0.32812 1.23438,0 1.89063,0.76562 0.67187,0.75 0.67187,2.28125 v 8.42188 h -1.82812 v -8.4375 q 0,-1.42188 -1.29688,-1.40625 -0.34375,0 -0.59375,0.0937 -0.25,0.0937 -0.42187,0.26562 -0.15625,0.15625 -0.25,0.375 -0.0937,0.20313 -0.125,0.4375 v 8.67188 h -1.84375 v -8.45313 q 0,-0.67187 -0.29688,-1.03125 -0.29687,-0.375 -0.95312,-0.35937 -0.60938,0 -0.95313,0.25 -0.32812,0.23437 -0.48437,0.625 v 8.96875 h -1.82813 v -11.26563 z m 13.81459,5.10938 q 0,-1.48438 0.23437,-2.79688 0.23438,-1.3125 0.625,-2.42187 0.40625,-1.125 0.92188,-2.04688 0.51562,-0.9375 1.07812,-1.65625 0.5625,-0.71875 1.14063,-1.21875 0.57812,-0.51562 1.09375,-0.8125 l 0.40625,1.26563 q -0.64063,0.5 -1.28125,1.34375 -0.64063,0.84375 -1.15625,2.04687 -0.5,1.20313 -0.82813,2.76563 -0.3125,1.5625 -0.3125,3.51562 v 0.14063 q 0,1.95312 0.3125,3.53125 0.32813,1.5625 0.82813,2.76562 0.51562,1.21875 1.15625,2.07813 0.64062,0.85937 1.28125,1.375 l -0.40625,1.17187 q -0.51563,-0.28125 -1.09375,-0.79687 -0.57813,-0.5 -1.15625,-1.23438 -0.5625,-0.71875 -1.07813,-1.64062 -0.51562,-0.92188 -0.90625,-2.03125 -0.39062,-1.125 -0.625,-2.4375 -0.23437,-1.3125 -0.23437,-2.79688 z m 14.34584,-8.70313 -0.21875,3.85938 h -1.35938 l 0.0156,-3.6875 v -1.3125 h 1.5625 z m 3.71875,0 -0.21875,3.85938 h -1.34375 v -3.6875 -1.3125 h 1.5625 z m 10.18959,0.85938 v 2.73437 h 4.29687 v 1.48438 h -4.29687 v 6.125 q 0,0.65625 0.15625,1.09375 0.17187,0.42187 0.46875,0.67187 0.29687,0.25 0.67187,0.35938 0.375,0.10937 0.8125,0.10937 0.3125,0 0.64063,-0.0312 0.32812,-0.0469 0.64062,-0.0937 0.32813,-0.0625 0.59375,-0.10937 0.28125,-0.0625 0.45313,-0.10938 l 0.28125,1.375 q -0.25,0.14063 -0.59375,0.25 -0.32813,0.10938 -0.73438,0.1875 -0.40625,0.0781 -0.85937,0.10938 -0.45313,0.0469 -0.90625,0.0469 -0.75,0 -1.40625,-0.20312 -0.64063,-0.21875 -1.125,-0.67188 -0.48438,-0.46875 -0.76563,-1.20312 -0.26562,-0.73438 -0.26562,-1.78125 v -6.125 h -2.95313 v -1.48438 h 2.95313 v -2.7345 z m 8.53334,2.73437 h 5.76562 v 9.59375 h 3.67188 v 1.67188 h -9.4375 v -1.67188 h 3.84375 v -7.92187 h -3.84375 z m 3.59375,-2.95312 q 0,-0.48438 0.28125,-0.8125 0.28125,-0.32813 0.875,-0.32813 0.5625,0 0.85937,0.32813 0.29688,0.32812 0.29688,0.8125 0,0.46875 -0.29688,0.78125 -0.29687,0.3125 -0.85937,0.3125 -0.59375,0 -0.875,-0.3125 -0.28125,-0.3125 -0.28125,-0.78125 z m 9.79896,2.95312 0.0469,1.0625 q 0.34375,-0.59375 0.89062,-0.92187 0.5625,-0.34375 1.35938,-0.34375 1.54687,0 2.07812,1.20312 0.32813,-0.54687 0.875,-0.875 0.54688,-0.32812 1.32813,-0.32812 1.23437,0 1.89062,0.76562 0.67188,0.75 0.67188,2.28125 v 8.42188 h -1.82813 v -8.4375 q 0,-1.42188 -1.29687,-1.40625 -0.34375,0 -0.59375,0.0937 -0.25,0.0937 -0.42188,0.26562 -0.15625,0.15625 -0.25,0.375 -0.0937,0.20313 -0.125,0.4375 v 8.67188 h -1.84375 v -8.45313 q 0,-0.67187 -0.29687,-1.03125 -0.29688,-0.375 -0.95313,-0.35937 -0.60937,0 -0.95312,0.25 -0.32813,0.23437 -0.48438,0.625 v 8.96875 h -1.82812 v -11.26563 z m 16.89272,11.46875 q -1.1875,0 -2.1875,-0.40625 -1,-0.40625 -1.70313,-1.125 -0.70312,-0.73437 -1.10937,-1.73437 -0.39063,-1 -0.39063,-2.17188 v -0.4375 q 0,-1.375 0.4375,-2.45312 0.4375,-1.07813 1.15625,-1.8125 0.73438,-0.75 1.65625,-1.14063 0.92188,-0.39062 1.89063,-0.39062 1.21875,0 2.125,0.42187 0.90625,0.40625 1.5,1.15625 0.60937,0.75 0.90625,1.76563 0.29687,1 0.29687,2.17187 v 0.875 h -8.04687 q 0.0312,0.76563 0.29687,1.45313 0.26563,0.67187 0.73438,1.17187 0.46875,0.5 1.10937,0.79688 0.64063,0.29687 1.42188,0.29687 1.03125,0 1.82812,-0.42187 0.8125,-0.42188 1.34375,-1.10938 l 1.17188,0.92188 q -0.28125,0.42187 -0.70313,0.8125 -0.42187,0.39062 -0.96875,0.70312 -0.54687,0.29688 -1.25,0.46875 -0.70312,0.1875 -1.51562,0.1875 z m -0.25,-10.09375 q -0.59375,0 -1.10938,0.21875 -0.51562,0.20313 -0.9375,0.625 -0.42187,0.40625 -0.70312,1 -0.28125,0.59375 -0.40625,1.375 h 6.0625 v -0.14062 q -0.0312,-0.5625 -0.21875,-1.10938 -0.17188,-0.5625 -0.53125,-1 -0.34375,-0.4375 -0.89063,-0.70312 -0.53125,-0.26563 -1.26562,-0.26563 z m 15.45521,-1.57812 q 0.26563,0 0.54688,0.0156 0.29687,0.0156 0.5625,0.0469 0.26562,0.0312 0.48437,0.0937 0.23438,0.0469 0.375,0.10937 l -0.26562,1.875 q -0.54688,-0.125 -1.0625,-0.17187 -0.5,-0.0625 -1.04688,-0.0625 -1.35937,0 -2.20312,0.625 -0.82813,0.60937 -1.23438,1.70312 v 7.23438 h -1.9375 v -11.26563 h 1.84375 l 0.0937,1.78125 q 0.6875,-0.92187 1.64063,-1.45312 0.96875,-0.53125 2.20312,-0.53125 z m 9.76772,10.21875 q 0,-0.3125 0.0937,-0.57813 0.0937,-0.28125 0.28125,-0.48437 0.1875,-0.20313 0.46875,-0.3125 0.28125,-0.10938 0.65625,-0.10938 0.375,0 0.65625,0.10938 0.29687,0.10937 0.48437,0.3125 0.20313,0.20312 0.29688,0.48437 0.0937,0.26563 0.0937,0.57813 0,0.29687 -0.0937,0.5625 -0.0937,0.26562 -0.29688,0.46875 -0.1875,0.20312 -0.48437,0.3125 -0.28125,0.10937 -0.65625,0.10937 -0.375,0 -0.65625,-0.10937 -0.28125,-0.10938 -0.46875,-0.3125 -0.1875,-0.20313 -0.28125,-0.46875 -0.0937,-0.26563 -0.0937,-0.5625 z m 0,-9 q 0,-0.3125 0.0937,-0.57813 0.0937,-0.28125 0.28125,-0.48437 0.1875,-0.20313 0.46875,-0.3125 0.28125,-0.10938 0.65625,-0.10938 0.375,0 0.65625,0.10938 0.29687,0.10937 0.48437,0.3125 0.20313,0.20312 0.29688,0.48437 0.0937,0.26563 0.0937,0.57813 0,0.29687 -0.0937,0.5625 -0.0937,0.26562 -0.29688,0.46875 -0.1875,0.20312 -0.48437,0.3125 -0.28125,0.10937 -0.65625,0.10937 -0.375,0 -0.65625,-0.10937 -0.28125,-0.10938 -0.46875,-0.3125 -0.1875,-0.20313 -0.28125,-0.46875 -0.0937,-0.26563 -0.0937,-0.5625 z m 13.0021,-3.75 v 2.73437 h 4.29688 v 1.48438 h -4.29688 v 6.125 q 0,0.65625 0.15625,1.09375 0.17188,0.42187 0.46875,0.67187 0.29688,0.25 0.67188,0.35938 0.375,0.10937 0.8125,0.10937 0.3125,0 0.64062,-0.0312 0.32813,-0.0469 0.64063,-0.0937 0.32812,-0.0625 0.59375,-0.10937 0.28125,-0.0625 0.45312,-0.10938 l 0.28125,1.375 q -0.25,0.14063 -0.59375,0.25 -0.32812,0.10938 -0.73437,0.1875 -0.40625,0.0781 -0.85938,0.10938 -0.45312,0.0469 -0.90625,0.0469 -0.75,0 -1.40625,-0.20312 -0.64062,-0.21875 -1.125,-0.67188 -0.48437,-0.46875 -0.76562,-1.20312 -0.26563,-0.73438 -0.26563,-1.78125 v -6.125 h -2.95312 v -1.48438 h 2.95312 v -2.7345 z m 8.53333,2.73437 h 5.76562 v 9.59375 h 3.67188 v 1.67188 h -9.4375 v -1.67188 h 3.84375 v -7.92187 h -3.84375 z m 3.59375,-2.95312 q 0,-0.48438 0.28125,-0.8125 0.28125,-0.32813 0.875,-0.32813 0.5625,0 0.85937,0.32813 0.29688,0.32812 0.29688,0.8125 0,0.46875 -0.29688,0.78125 -0.29687,0.3125 -0.85937,0.3125 -0.59375,0 -0.875,-0.3125 -0.28125,-0.3125 -0.28125,-0.78125 z m 13.70523,12.85937 q 0.53125,0 1.01562,-0.15625 0.5,-0.17187 0.875,-0.46875 0.39063,-0.29687 0.625,-0.6875 0.23438,-0.40625 0.25,-0.875 h 1.8125 q 0,0.75 -0.39062,1.4375 -0.375,0.67188 -1.01563,1.1875 -0.625,0.51563 -1.45312,0.82813 -0.8125,0.29687 -1.71875,0.29687 -1.28125,0 -2.23438,-0.45312 -0.95312,-0.45313 -1.59375,-1.23438 -0.64062,-0.78125 -0.96875,-1.79687 -0.32812,-1.01563 -0.32812,-2.14063 v -0.4375 q 0,-1.10937 0.32812,-2.125 0.32813,-1.03125 0.96875,-1.79687 0.64063,-0.78125 1.59375,-1.23438 0.95313,-0.45312 2.23438,-0.45312 1,0 1.84375,0.3125 0.84375,0.3125 1.45312,0.85937 0.60938,0.54688 0.9375,1.29688 0.34375,0.75 0.34375,1.60937 h -1.8125 q -0.0156,-0.51562 -0.23437,-0.96875 -0.20313,-0.45312 -0.57813,-0.79687 -0.35937,-0.34375 -0.85937,-0.53125 -0.5,-0.20313 -1.09375,-0.20313 -0.89063,0 -1.5,0.35938 -0.60938,0.35937 -0.98438,0.9375 -0.375,0.57812 -0.54687,1.29687 -0.15625,0.71875 -0.15625,1.4375 v 0.4375 q 0,0.75 0.15625,1.46875 0.17187,0.71875 0.53125,1.29688 0.375,0.57812 0.98437,0.9375 0.60938,0.35937 1.51563,0.35937 z m 11.37707,-3.90625 -1.42187,1.375 v 3.89063 h -1.9375 v -16 h 1.9375 v 9.79687 l 1.26562,-1.35937 3.70313,-3.70313 h 2.32812 l -4.54687,4.6875 5.25,6.57813 h -2.4375 z m 12.93961,1 q 0,-0.75 0.0469,-1.23437 0.0625,-0.48438 0.21875,-0.85938 0.17187,-0.39062 0.48437,-0.73437 0.3125,-0.35938 0.84375,-0.82813 0.34375,-0.375 0.71875,-0.75 0.375,-0.39062 0.67188,-0.8125 0.3125,-0.42187 0.5,-0.89062 0.20312,-0.46875 0.20312,-0.98438 0,-1.14062 -0.65625,-1.73437 -0.65625,-0.59375 -1.875,-0.59375 -0.48437,0 -0.95312,0.125 -0.45313,0.10937 -0.8125,0.375 -0.35938,0.25 -0.57813,0.64062 -0.21875,0.39063 -0.21875,0.92188 h -1.9375 q 0.0156,-0.875 0.35938,-1.5625 0.35937,-0.70313 0.95312,-1.1875 0.60938,-0.48438 1.42188,-0.73438 0.82812,-0.26562 1.76562,-0.26562 1.0625,0 1.89063,0.26562 0.82812,0.26563 1.39062,0.78125 0.57813,0.51563 0.875,1.25 0.29688,0.71875 0.29688,1.65625 0,0.75 -0.26563,1.40625 -0.25,0.65625 -0.65625,1.25 -0.40625,0.59375 -0.90625,1.10938 -0.5,0.5 -1,0.9375 -0.3125,0.29687 -0.48437,0.57812 -0.17188,0.26563 -0.25,0.54688 -0.0781,0.28125 -0.10938,0.60937 -0.0156,0.3125 -0.0156,0.71875 z m -0.21875,3.25 q 0,-0.5 0.29688,-0.82812 0.29687,-0.32813 0.89062,-0.32813 0.59375,0 0.89063,0.32813 0.3125,0.32812 0.3125,0.82812 0,0.48438 -0.3125,0.8125 -0.29688,0.3125 -0.89063,0.3125 -0.59375,0 -0.89062,-0.3125 -0.29688,-0.32812 -0.29688,-0.8125 z m 19.00208,-4.5 q 0,1.21875 -0.29688,2.26563 -0.28125,1.04687 -0.84375,1.8125 -0.5625,0.76562 -1.39062,1.20312 -0.82813,0.4375 -1.89063,0.4375 -1.03125,0 -1.8125,-0.32812 -0.78125,-0.32813 -1.34375,-0.95313 v 5.40625 h -1.9375 v -15.59375 h 1.76563 l 0.0937,1.21875 q 0.5625,-0.6875 1.35937,-1.04687 0.79688,-0.375 1.84375,-0.375 1.09375,0 1.92188,0.42187 0.82812,0.42188 1.39062,1.1875 0.5625,0.75 0.84375,1.8125 0.29688,1.0625 0.29688,2.3125 z m -1.92188,-0.21875 q 0,-0.8125 -0.1875,-1.5625 -0.17187,-0.75 -0.5625,-1.3125 -0.375,-0.5625 -0.95312,-0.89062 -0.57813,-0.34375 -1.39063,-0.34375 -0.9375,0 -1.5625,0.4375 -0.625,0.42187 -1,1.10937 v 5.42188 q 0.375,0.67187 1,1.09375 0.625,0.42187 1.57813,0.42187 0.79687,0 1.375,-0.34375 0.59375,-0.34375 0.96875,-0.90625 0.375,-0.57812 0.54687,-1.32812 0.1875,-0.75 0.1875,-1.57813 z m 10.20523,5.9375 q -1.1875,0 -2.1875,-0.40625 -1,-0.40625 -1.70312,-1.125 -0.70313,-0.73437 -1.10938,-1.73437 -0.39062,-1 -0.39062,-2.17188 v -0.4375 q 0,-1.375 0.4375,-2.45312 0.4375,-1.07813 1.15625,-1.8125 0.73437,-0.75 1.65625,-1.14063 0.92187,-0.39062 1.89062,-0.39062 1.21875,0 2.125,0.42187 0.90625,0.40625 1.5,1.15625 0.60938,0.75 0.90625,1.76563 0.29688,1 0.29688,2.17187 v 0.875 h -8.04688 q 0.0312,0.76563 0.29688,1.45313 0.26562,0.67187 0.73437,1.17187 0.46875,0.5 1.10938,0.79688 0.64062,0.29687 1.42187,0.29687 1.03125,0 1.82813,-0.42187 0.8125,-0.42188 1.34375,-1.10938 l 1.17187,0.92188 q -0.28125,0.42187 -0.70312,0.8125 -0.42188,0.39062 -0.96875,0.70312 -0.54688,0.29688 -1.25,0.46875 -0.70313,0.1875 -1.51563,0.1875 z m -0.25,-10.09375 q -0.59375,0 -1.10937,0.21875 -0.51563,0.20313 -0.9375,0.625 -0.42188,0.40625 -0.70313,1 -0.28125,0.59375 -0.40625,1.375 h 6.0625 v -0.14062 q -0.0312,-0.5625 -0.21875,-1.10938 -0.17187,-0.5625 -0.53125,-1 -0.34375,-0.4375 -0.89062,-0.70312 -0.53125,-0.26563 -1.26563,-0.26563 z m 15.4552,-1.57812 q 0.26563,0 0.54688,0.0156 0.29687,0.0156 0.5625,0.0469 0.26562,0.0312 0.48437,0.0937 0.23438,0.0469 0.375,0.10937 l -0.26562,1.875 q -0.54688,-0.125 -1.0625,-0.17187 -0.5,-0.0625 -1.04688,-0.0625 -1.35937,0 -2.20312,0.625 -0.82813,0.60937 -1.23438,1.70312 v 7.23438 h -1.9375 v -11.26563 h 1.84375 l 0.0937,1.78125 q 0.6875,-0.92187 1.64063,-1.45312 0.96875,-0.53125 2.20312,-0.53125 z m 5.70523,0.20312 h 5.76563 v 9.59375 h 3.67187 v 1.67188 h -9.4375 v -1.67188 h 3.84375 v -7.92187 h -3.84375 z m 3.59375,-2.95312 q 0,-0.48438 0.28125,-0.8125 0.28125,-0.32813 0.875,-0.32813 0.5625,0 0.85938,0.32813 0.29687,0.32812 0.29687,0.8125 0,0.46875 -0.29687,0.78125 -0.29688,0.3125 -0.85938,0.3125 -0.59375,0 -0.875,-0.3125 -0.28125,-0.3125 -0.28125,-0.78125 z m 8.36148,8.48437 q 0,-1.21875 0.35938,-2.26562 0.35937,-1.04688 1.01562,-1.8125 0.65625,-0.78125 1.60938,-1.21875 0.95312,-0.4375 2.14062,-0.4375 1.1875,0 2.14063,0.4375 0.95312,0.4375 1.60937,1.21875 0.67188,0.76562 1.01563,1.8125 0.35937,1.04687 0.35937,2.26562 v 0.21875 q 0,1.21875 -0.35937,2.26563 -0.34375,1.04687 -1.01563,1.8125 -0.65625,0.76562 -1.60937,1.20312 -0.9375,0.4375 -2.125,0.4375 -1.20313,0 -2.15625,-0.4375 -0.95313,-0.4375 -1.60938,-1.20312 -0.65625,-0.76563 -1.01562,-1.8125 -0.35938,-1.04688 -0.35938,-2.26563 z m 1.9375,0.21875 q 0,0.84375 0.1875,1.59375 0.20313,0.75 0.59375,1.32813 0.40625,0.57812 1.01563,0.90625 0.60937,0.32812 1.40625,0.32812 0.79687,0 1.39062,-0.32812 0.59375,-0.32813 1,-0.90625 0.40625,-0.57813 0.59375,-1.32813 0.20313,-0.75 0.20313,-1.59375 v -0.21875 q 0,-0.82812 -0.20313,-1.57812 -0.20312,-0.76563 -0.60937,-1.32813 -0.39063,-0.57812 -1,-0.90625 -0.59375,-0.34375 -1.39063,-0.34375 -0.8125,0 -1.40625,0.34375 -0.59375,0.32813 -1,0.90625 -0.39062,0.5625 -0.59375,1.32813 -0.1875,0.75 -0.1875,1.57812 z m 11.04895,-0.21875 q 0,-1.25 0.3125,-2.3125 0.3125,-1.0625 0.90625,-1.8125 0.59375,-0.76562 1.42188,-1.1875 0.82812,-0.42187 1.85937,-0.42187 1.01563,0 1.76563,0.34375 0.76562,0.32812 1.3125,0.96875 V 99.9993 h 1.92187 v 16 h -1.76562 l -0.0781,-1.1875 q -0.5625,0.6875 -1.34375,1.04687 -0.78125,0.34375 -1.82812,0.34375 -1.01563,0 -1.84375,-0.4375 -0.82813,-0.4375 -1.42188,-1.20312 -0.57812,-0.76563 -0.90625,-1.8125 -0.3125,-1.04688 -0.3125,-2.26563 z m 1.92188,0.21875 q 0,0.82813 0.17187,1.57813 0.1875,0.73437 0.54688,1.29687 0.375,0.5625 0.9375,0.89063 0.57812,0.32812 1.39062,0.32812 0.48438,0 0.875,-0.10937 0.40625,-0.125 0.71875,-0.32813 0.32813,-0.21875 0.57813,-0.51562 0.25,-0.29688 0.4375,-0.67188 v -5.21875 q -0.375,-0.6875 -1.01563,-1.125 -0.625,-0.45312 -1.57812,-0.45312 -0.8125,0 -1.39063,0.34375 -0.57812,0.32812 -0.95312,0.89062 -0.35938,0.5625 -0.54688,1.3125 -0.17187,0.75 -0.17187,1.5625 z m 20.5177,-2.60937 h -9.29688 v -1.67188 h 9.29688 z m 0,4.32812 h -9.29688 v -1.67187 h 9.29688 z m 11.8927,7.60938 q -0.67188,-0.0156 -1.23438,-0.23438 -0.54687,-0.20312 -0.98437,-0.5625 -0.4375,-0.34375 -0.76563,-0.8125 -0.3125,-0.46875 -0.53125,-1.01562 -0.20312,-0.53125 -0.3125,-1.10938 -0.0937,-0.5625 -0.0937,-1.10937 v -1.76563 q 0,-1.5 -0.71875,-2.17187 -0.71875,-0.67188 -2.1875,-0.6875 v -1.51563 q 1.46875,0 2.1875,-0.67187 0.71875,-0.67188 0.71875,-2.17188 v -1.76562 q 0,-0.5625 0.0937,-1.125 0.0937,-0.5625 0.28125,-1.09375 0.20313,-0.54688 0.5,-1.01563 0.3125,-0.46875 0.75,-0.8125 0.4375,-0.35937 1,-0.5625 0.57813,-0.21875 1.29688,-0.23437 l 0.21875,1.1875 q -0.75,0.0312 -1.20313,0.35937 -0.4375,0.32813 -0.65625,0.84375 -0.21875,0.51563 -0.28125,1.17188 -0.0625,0.64062 -0.0625,1.28125 v 1.76562 q -0.0156,1.25 -0.59375,2.1875 -0.5625,0.9375 -1.78125,1.4375 1.21875,0.46875 1.78125,1.42188 0.57813,0.9375 0.59375,2.17187 v 1.76563 q 0,0.64062 0.0937,1.28125 0.10938,0.64062 0.35938,1.15625 0.26562,0.51562 0.6875,0.84375 0.42187,0.34375 1.0625,0.35937 z m 12.79895,0 q -0.67188,-0.0156 -1.23438,-0.23438 -0.54687,-0.20312 -0.98437,-0.5625 -0.4375,-0.34375 -0.76563,-0.8125 -0.3125,-0.46875 -0.53125,-1.01562 -0.20312,-0.53125 -0.3125,-1.10938 -0.0937,-0.5625 -0.0937,-1.10937 v -1.76563 q 0,-1.5 -0.71875,-2.17187 -0.71875,-0.67188 -2.1875,-0.6875 v -1.51563 q 1.46875,0 2.1875,-0.67187 0.71875,-0.67188 0.71875,-2.17188 v -1.76562 q 0,-0.5625 0.0937,-1.125 0.0937,-0.5625 0.28125,-1.09375 0.20313,-0.54688 0.5,-1.01563 0.3125,-0.46875 0.75,-0.8125 0.4375,-0.35937 1,-0.5625 0.57813,-0.21875 1.29688,-0.23437 l 0.21875,1.1875 q -0.75,0.0312 -1.20313,0.35937 -0.4375,0.32813 -0.65625,0.84375 -0.21875,0.51563 -0.28125,1.17188 -0.0625,0.64062 -0.0625,1.28125 v 1.76562 q -0.0156,1.25 -0.59375,2.1875 -0.5625,0.9375 -1.78125,1.4375 1.21875,0.46875 1.78125,1.42188 0.57813,0.9375 0.59375,2.17187 v 1.76563 q 0,0.64062 0.0937,1.28125 0.10938,0.64062 0.35938,1.15625 0.26562,0.51562 0.6875,0.84375 0.42187,0.34375 1.0625,0.35937 z m 13.92395,-9.32813 q 0,1.21875 -0.29688,2.26563 -0.28125,1.04687 -0.84375,1.8125 -0.5625,0.76562 -1.39062,1.20312 -0.82813,0.4375 -1.89063,0.4375 -1.03125,0 -1.8125,-0.32812 -0.78125,-0.32813 -1.34375,-0.95313 v 5.40625 h -1.9375 v -15.59375 h 1.76563 l 0.0937,1.21875 q 0.5625,-0.6875 1.35937,-1.04687 0.79688,-0.375 1.84375,-0.375 1.09375,0 1.92188,0.42187 0.82812,0.42188 1.39062,1.1875 0.5625,0.75 0.84375,1.8125 0.29688,1.0625 0.29688,2.3125 z m -1.92188,-0.21875 q 0,-0.8125 -0.1875,-1.5625 -0.17187,-0.75 -0.5625,-1.3125 -0.375,-0.5625 -0.95312,-0.89062 -0.57813,-0.34375 -1.39063,-0.34375 -0.9375,0 -1.5625,0.4375 -0.625,0.42187 -1,1.10937 v 5.42188 q 0.375,0.67187 1,1.09375 0.625,0.42187 1.57813,0.42187 0.79687,0 1.375,-0.34375 0.59375,-0.34375 0.96875,-0.90625 0.375,-0.57812 0.54687,-1.32812 0.1875,-0.75 0.1875,-1.57813 z m 10.2052,5.9375 q -1.1875,0 -2.1875,-0.40625 -1,-0.40625 -1.70312,-1.125 -0.70313,-0.73437 -1.10938,-1.73437 -0.39062,-1 -0.39062,-2.17188 v -0.4375 q 0,-1.375 0.4375,-2.45312 0.4375,-1.07813 1.15625,-1.8125 0.73437,-0.75 1.65625,-1.14063 0.92187,-0.39062 1.89062,-0.39062 1.21875,0 2.125,0.42187 0.90625,0.40625 1.5,1.15625 0.60938,0.75 0.90625,1.76563 0.29688,1 0.29688,2.17187 v 0.875 h -8.04688 q 0.0312,0.76563 0.29688,1.45313 0.26562,0.67187 0.73437,1.17187 0.46875,0.5 1.10938,0.79688 0.64062,0.29687 1.42187,0.29687 1.03125,0 1.82813,-0.42187 0.8125,-0.42188 1.34375,-1.10938 l 1.17187,0.92188 q -0.28125,0.42187 -0.70312,0.8125 -0.42188,0.39062 -0.96875,0.70312 -0.54688,0.29688 -1.25,0.46875 -0.70313,0.1875 -1.51563,0.1875 z m -0.25,-10.09375 q -0.59375,0 -1.10937,0.21875 -0.51563,0.20313 -0.9375,0.625 -0.42188,0.40625 -0.70313,1 -0.28125,0.59375 -0.40625,1.375 h 6.0625 v -0.14062 q -0.0312,-0.5625 -0.21875,-1.10938 -0.17187,-0.5625 -0.53125,-1 -0.34375,-0.4375 -0.89062,-0.70312 -0.53125,-0.26563 -1.26563,-0.26563 z m 15.4552,-1.57812 q 0.26563,0 0.54688,0.0156 0.29687,0.0156 0.5625,0.0469 0.26562,0.0312 0.48437,0.0937 0.23438,0.0469 0.375,0.10937 l -0.26562,1.875 q -0.54688,-0.125 -1.0625,-0.17187 -0.5,-0.0625 -1.04688,-0.0625 -1.35937,0 -2.20312,0.625 -0.82813,0.60937 -1.23438,1.70312 v 7.23438 h -1.9375 v -11.26563 h 1.84375 l 0.0937,1.78125 q 0.6875,-0.92187 1.64063,-1.45312 0.96875,-0.53125 2.20312,-0.53125 z m 5.7052,0.20312 h 5.76563 v 9.59375 h 3.67187 v 1.67188 h -9.4375 v -1.67188 h 3.84375 v -7.92187 h -3.84375 z m 3.59375,-2.95312 q 0,-0.48438 0.28125,-0.8125 0.28125,-0.32813 0.875,-0.32813 0.5625,0 0.85938,0.32813 0.29687,0.32812 0.29687,0.8125 0,0.46875 -0.29687,0.78125 -0.29688,0.3125 -0.85938,0.3125 -0.59375,0 -0.875,-0.3125 -0.28125,-0.3125 -0.28125,-0.78125 z m 8.36145,8.48437 q 0,-1.21875 0.35938,-2.26562 0.35937,-1.04688 1.01562,-1.8125 0.65625,-0.78125 1.60938,-1.21875 0.95312,-0.4375 2.14062,-0.4375 1.1875,0 2.14063,0.4375 0.95312,0.4375 1.60937,1.21875 0.67188,0.76562 1.01563,1.8125 0.35937,1.04687 0.35937,2.26562 v 0.21875 q 0,1.21875 -0.35937,2.26563 -0.34375,1.04687 -1.01563,1.8125 -0.65625,0.76562 -1.60937,1.20312 -0.9375,0.4375 -2.125,0.4375 -1.20313,0 -2.15625,-0.4375 -0.95313,-0.4375 -1.60938,-1.20312 -0.65625,-0.76563 -1.01562,-1.8125 -0.35938,-1.04688 -0.35938,-2.26563 z m 1.9375,0.21875 q 0,0.84375 0.1875,1.59375 0.20313,0.75 0.59375,1.32813 0.40625,0.57812 1.01563,0.90625 0.60937,0.32812 1.40625,0.32812 0.79687,0 1.39062,-0.32812 0.59375,-0.32813 1,-0.90625 0.40625,-0.57813 0.59375,-1.32813 0.20313,-0.75 0.20313,-1.59375 v -0.21875 q 0,-0.82812 -0.20313,-1.57812 -0.20312,-0.76563 -0.60937,-1.32813 -0.39063,-0.57812 -1,-0.90625 -0.59375,-0.34375 -1.39063,-0.34375 -0.8125,0 -1.40625,0.34375 -0.59375,0.32813 -1,0.90625 -0.39062,0.5625 -0.59375,1.32813 -0.1875,0.75 -0.1875,1.57812 z m 11.04895,-0.21875 q 0,-1.25 0.3125,-2.3125 0.3125,-1.0625 0.90625,-1.8125 0.59375,-0.76562 1.42188,-1.1875 0.82812,-0.42187 1.85934,-0.42187 1.01563,0 1.76563,0.34375 0.76562,0.32812 1.3125,0.96875 V 99.9993 h 1.92187 v 16 h -1.76562 l -0.0781,-1.1875 q -0.5625,0.6875 -1.34375,1.04687 -0.78125,0.34375 -1.82809,0.34375 -1.01563,0 -1.84375,-0.4375 -0.82813,-0.4375 -1.42188,-1.20312 -0.57812,-0.76563 -0.90625,-1.8125 -0.3125,-1.04688 -0.3125,-2.26563 z m 1.92188,0.21875 q 0,0.82813 0.17187,1.57813 0.1875,0.73437 0.54688,1.29687 0.375,0.5625 0.9375,0.89063 0.57812,0.32812 1.39059,0.32812 0.48438,0 0.875,-0.10937 0.40625,-0.125 0.71875,-0.32813 0.32813,-0.21875 0.57813,-0.51562 0.25,-0.29688 0.4375,-0.67188 v -5.21875 q -0.375,-0.6875 -1.01563,-1.125 -0.625,-0.45312 -1.57812,-0.45312 -0.81247,0 -1.3906,0.34375 -0.57812,0.32812 -0.95312,0.89062 -0.35938,0.5625 -0.54688,1.3125 -0.17187,0.75 -0.17187,1.5625 z m 12.78329,8.125 q 0.64063,-0.0156 1.0625,-0.35937 0.4375,-0.32813 0.6875,-0.84375 0.25,-0.51563 0.35938,-1.15625 0.10937,-0.64063 0.10937,-1.28125 v -1.76563 q 0,-1.23437 0.57813,-2.17187 0.57812,-0.95313 1.78125,-1.42188 -1.20313,-0.5 -1.78125,-1.4375 -0.57813,-0.9375 -0.57813,-2.1875 v -1.76562 q 0,-0.64063 -0.0625,-1.28125 -0.0625,-0.65625 -0.29687,-1.17188 -0.21875,-0.51562 -0.65625,-0.84375 -0.4375,-0.32812 -1.1875,-0.35937 l 0.20312,-1.1875 q 0.71875,0.0156 1.28125,0.23437 0.57813,0.20313 1.01563,0.5625 0.4375,0.34375 0.73437,0.8125 0.3125,0.46875 0.51563,1.01563 0.20312,0.53125 0.29687,1.09375 0.0937,0.5625 0.0937,1.125 v 1.76562 q 0,1.5 0.71875,2.17188 0.71875,0.67187 2.17188,0.67187 v 1.51563 q -1.45313,0.0156 -2.17188,0.6875 -0.71875,0.67187 -0.71875,2.17187 v 1.76563 q 0,0.82812 -0.23437,1.67187 -0.23438,0.85938 -0.71875,1.54688 -0.48438,0.70312 -1.21875,1.15625 -0.73438,0.45312 -1.76563,0.46875 z m 12.79895,0 q 0.64063,-0.0156 1.0625,-0.35937 0.4375,-0.32813 0.6875,-0.84375 0.25,-0.51563 0.35938,-1.15625 0.10937,-0.64063 0.10937,-1.28125 v -1.76563 q 0,-1.23437 0.57813,-2.17187 0.57812,-0.95313 1.78125,-1.42188 -1.20313,-0.5 -1.78125,-1.4375 -0.57813,-0.9375 -0.57813,-2.1875 v -1.76562 q 0,-0.64063 -0.0625,-1.28125 -0.0625,-0.65625 -0.29687,-1.17188 -0.21875,-0.51562 -0.65625,-0.84375 -0.4375,-0.32812 -1.1875,-0.35937 l 0.20312,-1.1875 q 0.71875,0.0156 1.28125,0.23437 0.57813,0.20313 1.01563,0.5625 0.4375,0.34375 0.73437,0.8125 0.3125,0.46875 0.51563,1.01563 0.20312,0.53125 0.29687,1.09375 0.0937,0.5625 0.0937,1.125 v 1.76562 q 0,1.5 0.71875,2.17188 0.71875,0.67187 2.17188,0.67187 v 1.51563 q -1.45313,0.0156 -2.17188,0.6875 -0.71875,0.67187 -0.71875,2.17187 v 1.76563 q 0,0.82812 -0.23437,1.67187 -0.23438,0.85938 -0.71875,1.54688 -0.48438,0.70312 -1.21875,1.15625 -0.73438,0.45312 -1.76563,0.46875 z m 14.7052,-17.46875 -0.21875,3.85938 h -1.35937 l 0.0156,-3.6875 v -1.3125 h 1.5625 z m 3.71875,0 -0.21875,3.85938 h -1.34375 v -3.6875 -1.3125 h 1.5625 z m 12.65833,8.8125 q 0,1.48438 -0.23438,2.79688 -0.23437,1.3125 -0.64062,2.4375 -0.39063,1.10937 -0.90625,2.03125 -0.51563,0.92187 -1.07813,1.64062 -0.5625,0.73438 -1.14062,1.23438 -0.57813,0.51562 -1.10938,0.79687 l -0.40625,-1.17187 q 0.65625,-0.48438 1.29688,-1.34375 0.64062,-0.85938 1.14062,-2.07813 0.5,-1.21875 0.8125,-2.79687 0.32813,-1.57813 0.32813,-3.53125 v -0.14063 q 0,-1.95312 -0.34375,-3.53125 -0.32813,-1.59375 -0.85938,-2.8125 -0.51562,-1.23437 -1.15625,-2.07812 -0.625,-0.85938 -1.21875,-1.34375 l 0.40625,-1.17188 q 0.53125,0.29688 1.10938,0.8125 0.57812,0.5 1.14062,1.21875 0.5625,0.71875 1.07813,1.65625 0.51562,0.92188 0.90625,2.04688 0.40625,1.10937 0.64062,2.42187 0.23438,1.3125 0.23438,2.79688 z" />
  <path
     style="fill:#000000;fill-rule:nonzero"
     inkscape:connector-curvature="0"
     id="path57"
     d="m 71.29941,140.7493 q 0,-0.3125 0.0937,-0.57813 0.0937,-0.28125 0.28125,-0.48437 0.1875,-0.20313 0.46875,-0.3125 0.28125,-0.10938 0.65625,-0.10938 0.375,0 0.65625,0.10938 0.29687,0.10937 0.48437,0.3125 0.20313,0.20312 0.29688,0.48437 0.0937,0.26563 0.0937,0.57813 0,0.29687 -0.0937,0.5625 -0.0937,0.26562 -0.29688,0.46875 -0.1875,0.20312 -0.48437,0.3125 -0.28125,0.10937 -0.65625,0.10937 -0.375,0 -0.65625,-0.10937 -0.28125,-0.10938 -0.46875,-0.3125 -0.1875,-0.20313 -0.28125,-0.46875 -0.0937,-0.26563 -0.0937,-0.5625 z m 14.00209,-12.75 v 2.73437 h 4.29688 v 1.48438 H 85.3015 v 6.125 q 0,0.65625 0.15625,1.09375 0.17188,0.42187 0.46875,0.67187 0.29688,0.25 0.67188,0.35938 0.375,0.10937 0.8125,0.10937 0.3125,0 0.64062,-0.0312 0.32813,-0.0469 0.64063,-0.0937 0.32812,-0.0625 0.59375,-0.10937 0.28125,-0.0625 0.45312,-0.10938 l 0.28125,1.375 q -0.25,0.14063 -0.59375,0.25 -0.32812,0.10938 -0.73437,0.1875 -0.40625,0.0781 -0.85938,0.10938 -0.45312,0.0469 -0.90625,0.0469 -0.75,0 -1.40625,-0.20312 -0.64062,-0.21875 -1.125,-0.67188 -0.48437,-0.46875 -0.76562,-1.20312 -0.26563,-0.73438 -0.26563,-1.78125 v -6.125 H 80.41088 V 130.7338 H 83.364 v -2.7345 z m 7.68959,8.26562 q 0,-1.21875 0.35938,-2.26562 0.35937,-1.04688 1.01562,-1.8125 0.65625,-0.78125 1.60938,-1.21875 0.95312,-0.4375 2.14062,-0.4375 1.1875,0 2.14063,0.4375 0.95312,0.4375 1.60937,1.21875 0.67188,0.76562 1.01563,1.8125 0.35937,1.04687 0.35937,2.26562 v 0.21875 q 0,1.21875 -0.35937,2.26563 -0.34375,1.04687 -1.01563,1.8125 -0.65625,0.76562 -1.60937,1.20312 -0.9375,0.4375 -2.125,0.4375 -1.20313,0 -2.15625,-0.4375 -0.95313,-0.4375 -1.60938,-1.20312 -0.65625,-0.76563 -1.01562,-1.8125 -0.35938,-1.04688 -0.35938,-2.26563 z m 1.9375,0.21875 q 0,0.84375 0.1875,1.59375 0.20313,0.75 0.59375,1.32813 0.40625,0.57812 1.01563,0.90625 0.60937,0.32812 1.40625,0.32812 0.79687,0 1.39062,-0.32812 0.59375,-0.32813 1,-0.90625 0.40625,-0.57813 0.59375,-1.32813 0.20313,-0.75 0.20313,-1.59375 v -0.21875 q 0,-0.82812 -0.20313,-1.57812 -0.20312,-0.76563 -0.60937,-1.32813 -0.39063,-0.57812 -1,-0.90625 -0.59375,-0.34375 -1.39063,-0.34375 -0.8125,0 -1.40625,0.34375 -0.59375,0.32813 -1,0.90625 -0.39062,0.5625 -0.59375,1.32813 -0.1875,0.75 -0.1875,1.57812 z m 13.31459,-0.64062 q 0,-1.48438 0.23438,-2.79688 0.23437,-1.3125 0.625,-2.42187 0.40625,-1.125 0.92187,-2.04688 0.51563,-0.9375 1.07813,-1.65625 0.5625,-0.71875 1.14062,-1.21875 0.57813,-0.51562 1.09375,-0.8125 l 0.40625,1.26563 q -0.64062,0.5 -1.28125,1.34375 -0.64062,0.84375 -1.15625,2.04687 -0.5,1.20313 -0.82812,2.76563 -0.3125,1.5625 -0.3125,3.51562 v 0.14063 q 0,1.95312 0.3125,3.53125 0.32812,1.5625 0.82812,2.76562 0.51563,1.21875 1.15625,2.07813 0.64063,0.85937 1.28125,1.375 l -0.40625,1.17187 q -0.51562,-0.28125 -1.09375,-0.79687 -0.57812,-0.5 -1.15625,-1.23438 -0.5625,-0.71875 -1.07812,-1.64062 -0.51563,-0.92188 -0.90625,-2.03125 -0.39063,-1.125 -0.625,-2.4375 -0.23438,-1.3125 -0.23438,-2.79688 z m 14.34584,-8.70313 -0.21875,3.85938 h -1.35937 l 0.0156,-3.6875 v -1.3125 h 1.5625 z m 3.71875,0 -0.21875,3.85938 h -1.34375 v -3.6875 -1.3125 h 1.5625 z m 10.28334,7.76563 3.01563,-4.17188 h 2.25 l -4.1875,5.5625 4.29687,5.70313 h -2.21875 l -3.10937,-4.29688 -3.125,4.29688 h -2.25 l 4.3125,-5.70313 -4.1875,-5.5625 h 2.21875 z m 12.79897,0 3.01562,-4.17188 h 2.25 l -4.1875,5.5625 4.29688,5.70313 h -2.21875 l -3.10938,-4.29688 -3.125,4.29688 h -2.25 l 4.3125,-5.70313 -4.1875,-5.5625 h 2.21875 z m 12.50209,5.84375 q 0,-0.3125 0.0937,-0.57813 0.0937,-0.28125 0.28125,-0.48437 0.1875,-0.20313 0.46875,-0.3125 0.28125,-0.10938 0.65625,-0.10938 0.375,0 0.65625,0.10938 0.29687,0.10937 0.48437,0.3125 0.20313,0.20312 0.29688,0.48437 0.0937,0.26563 0.0937,0.57813 0,0.29687 -0.0937,0.5625 -0.0937,0.26562 -0.29688,0.46875 -0.1875,0.20312 -0.48437,0.3125 -0.28125,0.10937 -0.65625,0.10937 -0.375,0 -0.65625,-0.10937 -0.28125,-0.10938 -0.46875,-0.3125 -0.1875,-0.20313 -0.28125,-0.46875 -0.0937,-0.26563 -0.0937,-0.5625 z m 0,-9 q 0,-0.3125 0.0937,-0.57813 0.0937,-0.28125 0.28125,-0.48437 0.1875,-0.20313 0.46875,-0.3125 0.28125,-0.10938 0.65625,-0.10938 0.375,0 0.65625,0.10938 0.29687,0.10937 0.48437,0.3125 0.20313,0.20312 0.29688,0.48437 0.0937,0.26563 0.0937,0.57813 0,0.29687 -0.0937,0.5625 -0.0937,0.26562 -0.29688,0.46875 -0.1875,0.20312 -0.48437,0.3125 -0.28125,0.10937 -0.65625,0.10937 -0.375,0 -0.65625,-0.10937 -0.28125,-0.10938 -0.46875,-0.3125 -0.1875,-0.20313 -0.28125,-0.46875 -0.0937,-0.26563 -0.0937,-0.5625 z m 9.33021,-1.01563 0.0469,1.0625 q 0.34375,-0.59375 0.89062,-0.92187 0.5625,-0.34375 1.35938,-0.34375 1.54687,0 2.07812,1.20312 0.32813,-0.54687 0.875,-0.875 0.54688,-0.32812 1.32813,-0.32812 1.23437,0 1.89062,0.76562 0.67188,0.75 0.67188,2.28125 v 8.42188 h -1.82813 v -8.4375 q 0,-1.42188 -1.29687,-1.40625 -0.34375,0 -0.59375,0.0937 -0.25,0.0937 -0.42188,0.26562 -0.15625,0.15625 -0.25,0.375 -0.0937,0.20313 -0.125,0.4375 v 8.67188 h -1.84375 v -8.45313 q 0,-0.67187 -0.29687,-1.03125 -0.29688,-0.375 -0.95313,-0.35937 -0.60937,0 -0.95312,0.25 -0.32813,0.23437 -0.48438,0.625 v 8.96875 h -1.82812 v -11.26563 z m 16.04897,7.26563 0.5,1.35937 3.4375,-8.625 h 2.15625 l -5.71875,13 q -0.1875,0.4375 -0.5,0.92188 -0.3125,0.5 -0.75,0.90625 -0.4375,0.42187 -1.01563,0.70312 -0.57812,0.28125 -1.34375,0.28125 -0.14062,0 -0.3125,-0.0156 -0.15625,-0.0156 -0.32812,-0.0469 -0.15625,-0.0156 -0.3125,-0.0469 -0.14063,-0.0312 -0.23438,-0.0469 l 0.3125,-1.57812 q 0.0781,0 0.20313,0 0.125,0.0156 0.25,0.0312 0.14062,0.0156 0.26562,0.0156 0.125,0 0.20313,0 0.39062,0 0.71875,-0.21875 0.32812,-0.21875 0.57812,-0.51562 0.26563,-0.29688 0.4375,-0.625 0.1875,-0.32813 0.29688,-0.53125 l 0.76562,-1.5 -4.85937,-10.73438 h 2.15625 z m 17.08023,-1.84375 h -7.96875 v -1.57813 h 7.96875 z m 11.87185,2.85937 q 0,-0.34375 -0.14062,-0.625 -0.125,-0.28125 -0.45313,-0.5 -0.3125,-0.23437 -0.84375,-0.42187 -0.53125,-0.20313 -1.32812,-0.35938 -0.96875,-0.1875 -1.76563,-0.46875 -0.79687,-0.28125 -1.375,-0.67187 -0.5625,-0.39063 -0.875,-0.92188 -0.3125,-0.53125 -0.3125,-1.21875 0,-0.6875 0.32813,-1.28125 0.32812,-0.60937 0.90625,-1.04687 0.57812,-0.45313 1.39062,-0.70313 0.8125,-0.26562 1.78125,-0.26562 1.03125,0 1.85938,0.26562 0.84375,0.26563 1.42187,0.75 0.59375,0.46875 0.90625,1.10938 0.3125,0.64062 0.3125,1.39062 h -1.92187 q 0,-0.375 -0.1875,-0.71875 -0.1875,-0.34375 -0.53125,-0.60937 -0.32813,-0.28125 -0.79688,-0.4375 -0.46875,-0.17188 -1.0625,-0.17188 -0.625,0 -1.09375,0.14063 -0.45312,0.125 -0.76562,0.35937 -0.29688,0.21875 -0.45313,0.53125 -0.15625,0.29688 -0.15625,0.625 0,0.32813 0.125,0.59375 0.125,0.25 0.42188,0.46875 0.3125,0.20313 0.82812,0.375 0.51563,0.15625 1.3125,0.3125 1.03125,0.21875 1.85938,0.51563 0.82812,0.28125 1.39062,0.6875 0.5625,0.39062 0.84375,0.92187 0.29688,0.53125 0.29688,1.23438 0,0.75 -0.34375,1.375 -0.32813,0.60937 -0.9375,1.04687 -0.59375,0.4375 -1.4375,0.67188 -0.84375,0.23437 -1.84375,0.23437 -1.14063,0 -2.04688,-0.29687 -0.89062,-0.3125 -1.51562,-0.8125 -0.60938,-0.51563 -0.9375,-1.17188 -0.32813,-0.67187 -0.32813,-1.39062 h 1.92188 q 0.0469,0.59375 0.3125,1 0.28125,0.40625 0.6875,0.65625 0.42187,0.25 0.92187,0.35937 0.5,0.0937 0.98438,0.0937 1.21875,0 1.92187,-0.4375 0.71875,-0.45312 0.71875,-1.1875 z m 9.45523,-1.01562 0.5,1.35937 3.4375,-8.625 h 2.15625 l -5.71875,13 q -0.1875,0.4375 -0.5,0.92188 -0.3125,0.5 -0.75,0.90625 -0.4375,0.42187 -1.01562,0.70312 -0.57813,0.28125 -1.34375,0.28125 -0.14063,0 -0.3125,-0.0156 -0.15625,-0.0156 -0.32813,-0.0469 -0.15625,-0.0156 -0.3125,-0.0469 -0.14062,-0.0312 -0.23437,-0.0469 l 0.3125,-1.57812 q 0.0781,0 0.20312,0 0.125,0.0156 0.25,0.0312 0.14063,0.0156 0.26563,0.0156 0.125,0 0.20312,0 0.39063,0 0.71875,-0.21875 0.32813,-0.21875 0.57813,-0.51562 0.26562,-0.29688 0.4375,-0.625 0.1875,-0.32813 0.29687,-0.53125 l 0.76563,-1.5 -4.85938,-10.73438 h 2.15625 z m 16.1427,1.01562 q 0,-0.34375 -0.14062,-0.625 -0.125,-0.28125 -0.45313,-0.5 -0.3125,-0.23437 -0.84375,-0.42187 -0.53125,-0.20313 -1.32812,-0.35938 -0.96875,-0.1875 -1.76563,-0.46875 -0.79687,-0.28125 -1.375,-0.67187 -0.5625,-0.39063 -0.875,-0.92188 -0.3125,-0.53125 -0.3125,-1.21875 0,-0.6875 0.32813,-1.28125 0.32812,-0.60937 0.90625,-1.04687 0.57812,-0.45313 1.39062,-0.70313 0.8125,-0.26562 1.78125,-0.26562 1.03125,0 1.85938,0.26562 0.84375,0.26563 1.42187,0.75 0.59375,0.46875 0.90625,1.10938 0.3125,0.64062 0.3125,1.39062 h -1.92187 q 0,-0.375 -0.1875,-0.71875 -0.1875,-0.34375 -0.53125,-0.60937 -0.32813,-0.28125 -0.79688,-0.4375 -0.46875,-0.17188 -1.0625,-0.17188 -0.625,0 -1.09375,0.14063 -0.45312,0.125 -0.76562,0.35937 -0.29688,0.21875 -0.45313,0.53125 -0.15625,0.29688 -0.15625,0.625 0,0.32813 0.125,0.59375 0.125,0.25 0.42188,0.46875 0.3125,0.20313 0.82812,0.375 0.51563,0.15625 1.3125,0.3125 1.03125,0.21875 1.85938,0.51563 0.82812,0.28125 1.39062,0.6875 0.5625,0.39062 0.84375,0.92187 0.29688,0.53125 0.29688,1.23438 0,0.75 -0.34375,1.375 -0.32813,0.60937 -0.9375,1.04687 -0.59375,0.4375 -1.4375,0.67188 -0.84375,0.23437 -1.84375,0.23437 -1.14063,0 -2.04688,-0.29687 -0.89062,-0.3125 -1.51562,-0.8125 -0.60938,-0.51563 -0.9375,-1.17188 -0.32813,-0.67187 -0.32813,-1.39062 h 1.92188 q 0.0469,0.59375 0.3125,1 0.28125,0.40625 0.6875,0.65625 0.42187,0.25 0.92187,0.35937 0.5,0.0937 0.98438,0.0937 1.21875,0 1.92187,-0.4375 0.71875,-0.45312 0.71875,-1.1875 z m 9.87711,-11.01562 v 2.73437 h 4.29687 v 1.48438 h -4.29687 v 6.125 q 0,0.65625 0.15625,1.09375 0.17187,0.42187 0.46875,0.67187 0.29687,0.25 0.67187,0.35938 0.375,0.10937 0.8125,0.10937 0.3125,0 0.64063,-0.0312 0.32812,-0.0469 0.64062,-0.0937 0.32813,-0.0625 0.59375,-0.10937 0.28125,-0.0625 0.45313,-0.10938 l 0.28125,1.375 q -0.25,0.14063 -0.59375,0.25 -0.32813,0.10938 -0.73438,0.1875 -0.40625,0.0781 -0.85937,0.10938 -0.45313,0.0469 -0.90625,0.0469 -0.75,0 -1.40625,-0.20312 -0.64063,-0.21875 -1.125,-0.67188 -0.48438,-0.46875 -0.76563,-1.20312 -0.26562,-0.73438 -0.26562,-1.78125 v -6.125 h -2.95313 v -1.48438 h 2.95313 v -2.7345 z m 13.22082,14.20312 q -1.1875,0 -2.1875,-0.40625 -1,-0.40625 -1.70312,-1.125 -0.70313,-0.73437 -1.10938,-1.73437 -0.39062,-1 -0.39062,-2.17188 v -0.4375 q 0,-1.375 0.4375,-2.45312 0.4375,-1.07813 1.15625,-1.8125 0.73437,-0.75 1.65625,-1.14063 0.92187,-0.39062 1.89062,-0.39062 1.21875,0 2.125,0.42187 0.90625,0.40625 1.5,1.15625 0.60938,0.75 0.90625,1.76563 0.29688,1 0.29688,2.17187 v 0.875 h -8.04688 q 0.0312,0.76563 0.29688,1.45313 0.26562,0.67187 0.73437,1.17187 0.46875,0.5 1.10938,0.79688 0.64062,0.29687 1.42187,0.29687 1.03125,0 1.82813,-0.42187 0.8125,-0.42188 1.34375,-1.10938 l 1.17187,0.92188 q -0.28125,0.42187 -0.70312,0.8125 -0.42188,0.39062 -0.96875,0.70312 -0.54688,0.29688 -1.25,0.46875 -0.70313,0.1875 -1.51563,0.1875 z m -0.25,-10.09375 q -0.59375,0 -1.10937,0.21875 -0.51563,0.20313 -0.9375,0.625 -0.42188,0.40625 -0.70313,1 -0.28125,0.59375 -0.40625,1.375 h 6.0625 v -0.14062 q -0.0312,-0.5625 -0.21875,-1.10938 -0.17187,-0.5625 -0.53125,-1 -0.34375,-0.4375 -0.89062,-0.70312 -0.53125,-0.26563 -1.26563,-0.26563 z m 8.95524,-1.375 0.0469,1.0625 q 0.34375,-0.59375 0.89063,-0.92187 0.5625,-0.34375 1.35937,-0.34375 1.54688,0 2.07813,1.20312 0.32812,-0.54687 0.875,-0.875 0.54687,-0.32812 1.32812,-0.32812 1.23438,0 1.89063,0.76562 0.67187,0.75 0.67187,2.28125 v 8.42188 h -1.82812 v -8.4375 q 0,-1.42188 -1.29688,-1.40625 -0.34375,0 -0.59375,0.0937 -0.25,0.0937 -0.42187,0.26562 -0.15625,0.15625 -0.25,0.375 -0.0937,0.20313 -0.125,0.4375 v 8.67188 h -1.84375 v -8.45313 q 0,-0.67187 -0.29688,-1.03125 -0.29687,-0.375 -0.95312,-0.35937 -0.60938,0 -0.95313,0.25 -0.32812,0.23437 -0.48437,0.625 v 8.96875 h -1.82813 v -11.26563 z m 15.36145,-3.59375 -0.21875,3.85938 h -1.35938 l 0.0156,-3.6875 v -1.3125 h 1.5625 z m 3.71875,0 -0.21875,3.85938 h -1.34375 v -3.6875 -1.3125 h 1.5625 z m 12.65835,8.8125 q 0,1.48438 -0.23437,2.79688 -0.23438,1.3125 -0.64063,2.4375 -0.39062,1.10937 -0.90625,2.03125 -0.51562,0.92187 -1.07812,1.64062 -0.5625,0.73438 -1.14063,1.23438 -0.57812,0.51562 -1.10937,0.79687 l -0.40625,-1.17187 q 0.65625,-0.48438 1.29687,-1.34375 0.64063,-0.85938 1.14063,-2.07813 0.5,-1.21875 0.8125,-2.79687 0.32812,-1.57813 0.32812,-3.53125 v -0.14063 q 0,-1.95312 -0.34375,-3.53125 -0.32812,-1.59375 -0.85937,-2.8125 -0.51563,-1.23437 -1.15625,-2.07812 -0.625,-0.85938 -1.21875,-1.34375 l 0.40625,-1.17188 q 0.53125,0.29688 1.10937,0.8125 0.57813,0.5 1.14063,1.21875 0.5625,0.71875 1.07812,1.65625 0.51563,0.92188 0.90625,2.04688 0.40625,1.10937 0.64063,2.42187 0.23437,1.3125 0.23437,2.79688 z" />
  <path
     style="fill:#000000;fill-rule:nonzero"
     inkscape:connector-curvature="0"
     id="path59"
     d="m 71.29941,166.7493 q 0,-0.3125 0.0937,-0.57813 0.0937,-0.28125 0.28125,-0.48437 0.1875,-0.20313 0.46875,-0.3125 0.28125,-0.10938 0.65625,-0.10938 0.375,0 0.65625,0.10938 0.29687,0.10937 0.48437,0.3125 0.20313,0.20312 0.29688,0.48437 0.0937,0.26563 0.0937,0.57813 0,0.29687 -0.0937,0.5625 -0.0937,0.26562 -0.29688,0.46875 -0.1875,0.20312 -0.48437,0.3125 -0.28125,0.10937 -0.65625,0.10937 -0.375,0 -0.65625,-0.10937 -0.28125,-0.10938 -0.46875,-0.3125 -0.1875,-0.20313 -0.28125,-0.46875 -0.0937,-0.26563 -0.0937,-0.5625 z m 16.75209,-0.29688 q -0.5625,0.82813 -1.40625,1.29688 -0.84375,0.45312 -1.95312,0.45312 -0.875,0 -1.59375,-0.26562 -0.71875,-0.28125 -1.23438,-0.85938 -0.51562,-0.59375 -0.79687,-1.48437 -0.26563,-0.90625 -0.26563,-2.17188 v -6.6875 h 1.92188 v 6.71875 q 0,0.90625 0.14062,1.51563 0.15625,0.60937 0.4375,0.96875 0.29688,0.35937 0.71875,0.5 0.42188,0.14062 0.98438,0.14062 1.17187,0 1.89062,-0.46875 0.73438,-0.48437 1.07813,-1.29687 v -8.07813 h 1.9375 v 11.26563 h -1.75 z m 7.22084,-9.71875 0.125,1.65625 q 0.625,-0.875 1.51563,-1.35937 0.89062,-0.5 2,-0.5 0.89062,0 1.60937,0.25 0.71875,0.25 1.23438,0.78125 0.51562,0.51562 0.78125,1.34375 0.28125,0.8125 0.28125,1.9375 v 7.15625 h -1.92188 v -7.10938 q 0,-0.75 -0.17187,-1.26562 -0.17188,-0.53125 -0.5,-0.84375 -0.32813,-0.32813 -0.79688,-0.46875 -0.46875,-0.15625 -1.09375,-0.15625 -0.96875,0 -1.70312,0.48437 -0.73438,0.48438 -1.17188,1.28125 v 8.07813 h -1.92187 v -11.26563 z m 11.95522,0 0.0469,1.0625 q 0.34375,-0.59375 0.89063,-0.92187 0.5625,-0.34375 1.35937,-0.34375 1.54688,0 2.07813,1.20312 0.32812,-0.54687 0.875,-0.875 0.54687,-0.32812 1.32812,-0.32812 1.23438,0 1.89063,0.76562 0.67187,0.75 0.67187,2.28125 v 8.42188 h -1.82812 v -8.4375 q 0,-1.42188 -1.29688,-1.40625 -0.34375,0 -0.59375,0.0937 -0.25,0.0937 -0.42187,0.26562 -0.15625,0.15625 -0.25,0.375 -0.0937,0.20313 -0.125,0.4375 v 8.67188 h -1.84375 v -8.45313 q 0,-0.67187 -0.29688,-1.03125 -0.29687,-0.375 -0.95312,-0.35937 -0.60938,0 -0.95313,0.25 -0.32812,0.23437 -0.48437,0.625 v 8.96875 h -1.82813 v -11.26563 z m 19.31459,11.26563 q -0.10938,-0.21875 -0.1875,-0.54688 -0.0625,-0.32812 -0.0937,-0.6875 -0.29688,0.29688 -0.65625,0.5625 -0.35938,0.25 -0.79688,0.45313 -0.42187,0.20312 -0.92187,0.3125 -0.48438,0.10937 -1.03125,0.10937 -0.89063,0 -1.625,-0.25 -0.71875,-0.26562 -1.23438,-0.70312 -0.5,-0.45313 -0.78125,-1.0625 -0.26562,-0.60938 -0.26562,-1.3125 0,-0.92188 0.35937,-1.625 0.375,-0.70313 1.04688,-1.15625 0.6875,-0.46875 1.64062,-0.6875 0.95313,-0.23438 2.125,-0.23438 h 2.10938 v -0.89062 q 0,-0.51563 -0.1875,-0.92188 -0.1875,-0.40625 -0.53125,-0.6875 -0.34375,-0.28125 -0.84375,-0.4375 -0.48438,-0.15625 -1.10938,-0.15625 -0.5625,0 -1.01562,0.14063 -0.45313,0.14062 -0.76563,0.39062 -0.3125,0.23438 -0.48437,0.5625 -0.17188,0.32813 -0.17188,0.6875 h -1.9375 q 0,-0.625 0.3125,-1.21875 0.3125,-0.59375 0.89063,-1.0625 0.57812,-0.46875 1.40625,-0.75 0.82812,-0.29687 1.875,-0.29687 0.95312,0 1.78125,0.23437 0.82812,0.23438 1.42187,0.70313 0.59375,0.46875 0.9375,1.1875 0.34375,0.70312 0.34375,1.64062 v 5.25 q 0,0.5625 0.0937,1.1875 0.10938,0.625 0.29688,1.09375 v 0.17188 z m -3.40625,-1.46875 q 0.5625,0 1.04687,-0.14063 0.5,-0.15625 0.89063,-0.39062 0.40625,-0.23438 0.6875,-0.54688 0.29687,-0.3125 0.46875,-0.64062 v -2.28125 h -1.79688 q -1.6875,0 -2.625,0.5 -0.9375,0.5 -0.9375,1.57812 0,0.40625 0.14063,0.76563 0.14062,0.35937 0.42187,0.60937 0.28125,0.25 0.70313,0.40625 0.4375,0.14063 1,0.14063 z m 16.18959,-10 q 0.26562,0 0.54687,0.0156 0.29688,0.0156 0.5625,0.0469 0.26563,0.0312 0.48438,0.0937 0.23437,0.0469 0.375,0.10937 l -0.26563,1.875 q -0.54687,-0.125 -1.0625,-0.17187 -0.5,-0.0625 -1.04687,-0.0625 -1.35938,0 -2.20313,0.625 -0.82812,0.60937 -1.23437,1.70312 v 7.23438 h -1.9375 v -11.26563 h 1.84375 l 0.0937,1.78125 q 0.6875,-0.92187 1.64062,-1.45312 0.96875,-0.53125 2.20313,-0.53125 z m 12.89271,8.48437 q 0,-0.34375 -0.14062,-0.625 -0.125,-0.28125 -0.45313,-0.5 -0.3125,-0.23437 -0.84375,-0.42187 -0.53125,-0.20313 -1.32812,-0.35938 -0.96875,-0.1875 -1.76563,-0.46875 -0.79687,-0.28125 -1.375,-0.67187 -0.5625,-0.39063 -0.875,-0.92188 -0.3125,-0.53125 -0.3125,-1.21875 0,-0.6875 0.32813,-1.28125 0.32812,-0.60937 0.90625,-1.04687 0.57812,-0.45313 1.39062,-0.70313 0.8125,-0.26562 1.78125,-0.26562 1.03125,0 1.85938,0.26562 0.84375,0.26563 1.42187,0.75 0.59375,0.46875 0.90625,1.10938 0.3125,0.64062 0.3125,1.39062 h -1.92187 q 0,-0.375 -0.1875,-0.71875 -0.1875,-0.34375 -0.53125,-0.60937 -0.32813,-0.28125 -0.79688,-0.4375 -0.46875,-0.17188 -1.0625,-0.17188 -0.625,0 -1.09375,0.14063 -0.45312,0.125 -0.76562,0.35937 -0.29688,0.21875 -0.45313,0.53125 -0.15625,0.29688 -0.15625,0.625 0,0.32813 0.125,0.59375 0.125,0.25 0.42188,0.46875 0.3125,0.20313 0.82812,0.375 0.51563,0.15625 1.3125,0.3125 1.03125,0.21875 1.85938,0.51563 0.82812,0.28125 1.39062,0.6875 0.5625,0.39062 0.84375,0.92187 0.29688,0.53125 0.29688,1.23438 0,0.75 -0.34375,1.375 -0.32813,0.60937 -0.9375,1.04687 -0.59375,0.4375 -1.4375,0.67188 -0.84375,0.23437 -1.84375,0.23437 -1.14063,0 -2.04688,-0.29687 -0.89062,-0.3125 -1.51562,-0.8125 -0.60938,-0.51563 -0.9375,-1.17188 -0.32813,-0.67187 -0.32813,-1.39062 h 1.92188 q 0.0469,0.59375 0.3125,1 0.28125,0.40625 0.6875,0.65625 0.42187,0.25 0.92187,0.35937 0.5,0.0937 0.98438,0.0937 1.21875,0 1.92187,-0.4375 0.71875,-0.45312 0.71875,-1.1875 z m 7.23647,-6.60937 q 0.60937,-0.89063 1.48437,-1.375 0.89063,-0.5 2,-0.5 0.89063,0 1.60938,0.25 0.71875,0.25 1.23437,0.79687 0.51563,0.53125 0.78125,1.35938 0.28125,0.82812 0.28125,1.96875 v 7.09375 h -1.92187 v -7.10938 q 0,-1.39062 -0.67188,-2.0625 -0.65625,-0.6875 -1.89062,-0.67187 -0.92188,0 -1.6875,0.45312 -0.75,0.45313 -1.21875,1.20313 v 8.1875 h -1.92188 v -16 h 1.92188 z m 18.28334,9.59375 q -0.10938,-0.21875 -0.1875,-0.54688 -0.0625,-0.32812 -0.0937,-0.6875 -0.29688,0.29688 -0.65625,0.5625 -0.35938,0.25 -0.79688,0.45313 -0.42187,0.20312 -0.92187,0.3125 -0.48438,0.10937 -1.03125,0.10937 -0.89063,0 -1.625,-0.25 -0.71875,-0.26562 -1.23438,-0.70312 -0.5,-0.45313 -0.78125,-1.0625 -0.26562,-0.60938 -0.26562,-1.3125 0,-0.92188 0.35937,-1.625 0.375,-0.70313 1.04688,-1.15625 0.6875,-0.46875 1.64062,-0.6875 0.95313,-0.23438 2.125,-0.23438 h 2.10938 v -0.89062 q 0,-0.51563 -0.1875,-0.92188 -0.1875,-0.40625 -0.53125,-0.6875 -0.34375,-0.28125 -0.84375,-0.4375 -0.48438,-0.15625 -1.10938,-0.15625 -0.5625,0 -1.01562,0.14063 -0.45313,0.14062 -0.76563,0.39062 -0.3125,0.23438 -0.48437,0.5625 -0.17188,0.32813 -0.17188,0.6875 h -1.9375 q 0,-0.625 0.3125,-1.21875 0.3125,-0.59375 0.89063,-1.0625 0.57812,-0.46875 1.40625,-0.75 0.82812,-0.29687 1.875,-0.29687 0.95312,0 1.78125,0.23437 0.82812,0.23438 1.42187,0.70313 0.59375,0.46875 0.9375,1.1875 0.34375,0.70312 0.34375,1.64062 v 5.25 q 0,0.5625 0.0937,1.1875 0.10938,0.625 0.29688,1.09375 v 0.17188 z m -3.40625,-1.46875 q 0.5625,0 1.04687,-0.14063 0.5,-0.15625 0.89063,-0.39062 0.40625,-0.23438 0.6875,-0.54688 0.29687,-0.3125 0.46875,-0.64062 v -2.28125 h -1.79688 q -1.6875,0 -2.625,0.5 -0.9375,0.5 -0.9375,1.57812 0,0.40625 0.14063,0.76563 0.14062,0.35937 0.42187,0.60937 0.28125,0.25 0.70313,0.40625 0.4375,0.14063 1,0.14063 z m 9.09584,-14.53125 h 5.76562 v 14.32812 h 3.67188 v 1.67188 h -9.4375 v -1.67188 h 3.84375 V 153.6868 h -3.84375 z m 14.40835,9.84375 q 0,-1.48438 0.23438,-2.79688 0.23437,-1.3125 0.625,-2.42187 0.40625,-1.125 0.92187,-2.04688 0.51563,-0.9375 1.07813,-1.65625 0.5625,-0.71875 1.14062,-1.21875 0.57813,-0.51562 1.09375,-0.8125 l 0.40625,1.26563 q -0.64062,0.5 -1.28125,1.34375 -0.64062,0.84375 -1.15625,2.04687 -0.5,1.20313 -0.82812,2.76563 -0.3125,1.5625 -0.3125,3.51562 v 0.14063 q 0,1.95312 0.3125,3.53125 0.32812,1.5625 0.82812,2.76562 0.51563,1.21875 1.15625,2.07813 0.64063,0.85937 1.28125,1.375 l -0.40625,1.17187 q -0.51562,-0.28125 -1.09375,-0.79687 -0.57812,-0.5 -1.15625,-1.23438 -0.5625,-0.71875 -1.07812,-1.64062 -0.51563,-0.92188 -0.90625,-2.03125 -0.39063,-1.125 -0.625,-2.4375 -0.23438,-1.3125 -0.23438,-2.79688 z m 17.92395,0.10937 q 0,1.48438 -0.23437,2.79688 -0.23438,1.3125 -0.64063,2.4375 -0.39062,1.10937 -0.90625,2.03125 -0.51562,0.92187 -1.07812,1.64062 -0.5625,0.73438 -1.14063,1.23438 -0.57812,0.51562 -1.10937,0.79687 l -0.40625,-1.17187 q 0.65625,-0.48438 1.29687,-1.34375 0.64063,-0.85938 1.14063,-2.07813 0.5,-1.21875 0.8125,-2.79687 0.32812,-1.57813 0.32812,-3.53125 v -0.14063 q 0,-1.95312 -0.34375,-3.53125 -0.32812,-1.59375 -0.85937,-2.8125 -0.51563,-1.23437 -1.15625,-2.07812 -0.625,-0.85938 -1.21875,-1.34375 l 0.40625,-1.17188 q 0.53125,0.29688 1.10937,0.8125 0.57813,0.5 1.14063,1.21875 0.5625,0.71875 1.07812,1.65625 0.51563,0.92188 0.90625,2.04688 0.40625,1.10937 0.64063,2.42187 0.23437,1.3125 0.23437,2.79688 z m 9.12711,4.79688 q 0,-0.3125 0.0937,-0.57813 0.0937,-0.28125 0.28125,-0.48437 0.1875,-0.20313 0.46875,-0.3125 0.28125,-0.10938 0.65625,-0.10938 0.375,0 0.65625,0.10938 0.29687,0.10937 0.48437,0.3125 0.20313,0.20312 0.29688,0.48437 0.0937,0.26563 0.0937,0.57813 0,0.29687 -0.0937,0.5625 -0.0937,0.26562 -0.29688,0.46875 -0.1875,0.20312 -0.48437,0.3125 -0.28125,0.10937 -0.65625,0.10937 -0.375,0 -0.65625,-0.10937 -0.28125,-0.10938 -0.46875,-0.3125 -0.1875,-0.20313 -0.28125,-0.46875 -0.0937,-0.26563 -0.0937,-0.5625 z m 10.73645,-10.01563 h 5.6875 v 11.34375 q 0,1.07813 -0.29688,1.90625 -0.29687,0.84375 -0.85937,1.40625 -0.5625,0.5625 -1.39063,0.85938 -0.8125,0.29687 -1.85937,0.29687 -0.59375,0 -1.10938,-0.0312 -0.51562,-0.0312 -1.07812,-0.14062 l 0.125,-1.57813 q 0.1875,0.0312 0.45312,0.0469 0.26563,0.0312 0.54688,0.0469 0.28125,0.0156 0.53125,0.0156 0.25,0.0156 0.40625,0.0156 0.53125,0 1.01562,-0.14062 0.48438,-0.14063 0.82813,-0.48438 0.35937,-0.32812 0.5625,-0.875 0.20312,-0.54687 0.20312,-1.34375 v -9.67187 h -3.76562 z m 3.5,-2.96875 q 0,-0.46875 0.28125,-0.79687 0.28125,-0.32813 0.85937,-0.32813 0.57813,0 0.875,0.32813 0.29688,0.32812 0.29688,0.79687 0,0.46875 -0.29688,0.79688 -0.29687,0.3125 -0.875,0.3125 -0.57812,0 -0.85937,-0.3125 -0.28125,-0.32813 -0.28125,-0.79688 z m 15.48648,11.25 q 0,-0.34375 -0.14063,-0.625 -0.125,-0.28125 -0.45312,-0.5 -0.3125,-0.23437 -0.84375,-0.42187 -0.53125,-0.20313 -1.32813,-0.35938 -0.96875,-0.1875 -1.76562,-0.46875 -0.79688,-0.28125 -1.375,-0.67187 -0.5625,-0.39063 -0.875,-0.92188 -0.3125,-0.53125 -0.3125,-1.21875 0,-0.6875 0.32812,-1.28125 0.32813,-0.60937 0.90625,-1.04687 0.57813,-0.45313 1.39063,-0.70313 0.8125,-0.26562 1.78125,-0.26562 1.03125,0 1.85937,0.26562 0.84375,0.26563 1.42188,0.75 0.59375,0.46875 0.90625,1.10938 0.3125,0.64062 0.3125,1.39062 h -1.92188 q 0,-0.375 -0.1875,-0.71875 -0.1875,-0.34375 -0.53125,-0.60937 -0.32812,-0.28125 -0.79687,-0.4375 -0.46875,-0.17188 -1.0625,-0.17188 -0.625,0 -1.09375,0.14063 -0.45313,0.125 -0.76563,0.35937 -0.29687,0.21875 -0.45312,0.53125 -0.15625,0.29688 -0.15625,0.625 0,0.32813 0.125,0.59375 0.125,0.25 0.42187,0.46875 0.3125,0.20313 0.82813,0.375 0.51562,0.15625 1.3125,0.3125 1.03125,0.21875 1.85937,0.51563 0.82813,0.28125 1.39063,0.6875 0.5625,0.39062 0.84375,0.92187 0.29687,0.53125 0.29687,1.23438 0,0.75 -0.34375,1.375 -0.32812,0.60937 -0.9375,1.04687 -0.59375,0.4375 -1.4375,0.67188 -0.84375,0.23437 -1.84375,0.23437 -1.14062,0 -2.04687,-0.29687 -0.89063,-0.3125 -1.51563,-0.8125 -0.60937,-0.51563 -0.9375,-1.17188 -0.32812,-0.67187 -0.32812,-1.39062 h 1.92187 q 0.0469,0.59375 0.3125,1 0.28125,0.40625 0.6875,0.65625 0.42188,0.25 0.92188,0.35937 0.5,0.0937 0.98437,0.0937 1.21875,0 1.92188,-0.4375 0.71875,-0.45312 0.71875,-1.1875 z m 4.7677,-2.75 q 0,-1.21875 0.35937,-2.26562 0.35938,-1.04688 1.01563,-1.8125 0.65625,-0.78125 1.60937,-1.21875 0.95313,-0.4375 2.14063,-0.4375 1.1875,0 2.14062,0.4375 0.95313,0.4375 1.60938,1.21875 0.67187,0.76562 1.01562,1.8125 0.35938,1.04687 0.35938,2.26562 v 0.21875 q 0,1.21875 -0.35938,2.26563 -0.34375,1.04687 -1.01562,1.8125 -0.65625,0.76562 -1.60938,1.20312 -0.9375,0.4375 -2.125,0.4375 -1.20312,0 -2.15625,-0.4375 -0.95312,-0.4375 -1.60937,-1.20312 -0.65625,-0.76563 -1.01563,-1.8125 -0.35937,-1.04688 -0.35937,-2.26563 z m 1.9375,0.21875 q 0,0.84375 0.1875,1.59375 0.20312,0.75 0.59375,1.32813 0.40625,0.57812 1.01562,0.90625 0.60938,0.32812 1.40625,0.32812 0.79688,0 1.39063,-0.32812 0.59375,-0.32813 1,-0.90625 0.40625,-0.57813 0.59375,-1.32813 0.20312,-0.75 0.20312,-1.59375 v -0.21875 q 0,-0.82812 -0.20312,-1.57812 -0.20313,-0.76563 -0.60938,-1.32813 -0.39062,-0.57812 -1,-0.90625 -0.59375,-0.34375 -1.39062,-0.34375 -0.8125,0 -1.40625,0.34375 -0.59375,0.32813 -1,0.90625 -0.39063,0.5625 -0.59375,1.32813 -0.1875,0.75 -0.1875,1.57812 z m 13.14273,-5.75 0.125,1.65625 q 0.625,-0.875 1.51563,-1.35937 0.89062,-0.5 2,-0.5 0.89062,0 1.60937,0.25 0.71875,0.25 1.23438,0.78125 0.51562,0.51562 0.78125,1.34375 0.28125,0.8125 0.28125,1.9375 v 7.15625 h -1.92188 v -7.10938 q 0,-0.75 -0.17187,-1.26562 -0.17188,-0.53125 -0.5,-0.84375 -0.32813,-0.32813 -0.79688,-0.46875 -0.46875,-0.15625 -1.09375,-0.15625 -0.96875,0 -1.70312,0.48437 -0.73438,0.48438 -1.17188,1.28125 v 8.07813 h -1.92187 v -11.26563 z m 12.97086,5.10938 q 0,-1.48438 0.23437,-2.79688 0.23438,-1.3125 0.625,-2.42187 0.40625,-1.125 0.92188,-2.04688 0.51562,-0.9375 1.07812,-1.65625 0.5625,-0.71875 1.14063,-1.21875 0.57812,-0.51562 1.09375,-0.8125 l 0.40625,1.26563 q -0.64063,0.5 -1.28125,1.34375 -0.64063,0.84375 -1.15625,2.04687 -0.5,1.20313 -0.82813,2.76563 -0.3125,1.5625 -0.3125,3.51562 v 0.14063 q 0,1.95312 0.3125,3.53125 0.32813,1.5625 0.82813,2.76562 0.51562,1.21875 1.15625,2.07813 0.64062,0.85937 1.28125,1.375 l -0.40625,1.17187 q -0.51563,-0.28125 -1.09375,-0.79687 -0.57813,-0.5 -1.15625,-1.23438 -0.5625,-0.71875 -1.07813,-1.64062 -0.51562,-0.92188 -0.90625,-2.03125 -0.39062,-1.125 -0.625,-2.4375 -0.23437,-1.3125 -0.23437,-2.79688 z m 17.92395,0.10937 q 0,1.48438 -0.23438,2.79688 -0.23437,1.3125 -0.64062,2.4375 -0.39063,1.10937 -0.90625,2.03125 -0.51563,0.92187 -1.07813,1.64062 -0.5625,0.73438 -1.14062,1.23438 -0.57813,0.51562 -1.10938,0.79687 l -0.40625,-1.17187 q 0.65625,-0.48438 1.29688,-1.34375 0.64062,-0.85938 1.14062,-2.07813 0.5,-1.21875 0.8125,-2.79687 0.32813,-1.57813 0.32813,-3.53125 v -0.14063 q 0,-1.95312 -0.34375,-3.53125 -0.32813,-1.59375 -0.85938,-2.8125 -0.51562,-1.23437 -1.15625,-2.07812 -0.625,-0.85938 -1.21875,-1.34375 l 0.40625,-1.17188 q 0.53125,0.29688 1.10938,0.8125 0.57812,0.5 1.14062,1.21875 0.5625,0.71875 1.07813,1.65625 0.51562,0.92188 0.90625,2.04688 0.40625,1.10937 0.64062,2.42187 0.23438,1.3125 0.23438,2.79688 z" />
  <path
     style="fill:#000000;fill-rule:nonzero"
     inkscape:connector-curvature="0"
     id="path61"
     d="m 71.29941,192.7493 q 0,-0.3125 0.0937,-0.57813 0.0937,-0.28125 0.28125,-0.48437 0.1875,-0.20313 0.46875,-0.3125 0.28125,-0.10938 0.65625,-0.10938 0.375,0 0.65625,0.10938 0.29687,0.10937 0.48437,0.3125 0.20313,0.20312 0.29688,0.48437 0.0937,0.26563 0.0937,0.57813 0,0.29687 -0.0937,0.5625 -0.0937,0.26562 -0.29688,0.46875 -0.1875,0.20312 -0.48437,0.3125 -0.28125,0.10937 -0.65625,0.10937 -0.375,0 -0.65625,-0.10937 -0.28125,-0.10938 -0.46875,-0.3125 -0.1875,-0.20313 -0.28125,-0.46875 -0.0937,-0.26563 -0.0937,-0.5625 z m 14.00209,-12.75 v 2.73437 h 4.29688 v 1.48438 H 85.3015 v 6.125 q 0,0.65625 0.15625,1.09375 0.17188,0.42187 0.46875,0.67187 0.29688,0.25 0.67188,0.35938 0.375,0.10937 0.8125,0.10937 0.3125,0 0.64062,-0.0312 0.32813,-0.0469 0.64063,-0.0937 0.32812,-0.0625 0.59375,-0.10937 0.28125,-0.0625 0.45312,-0.10938 l 0.28125,1.375 q -0.25,0.14063 -0.59375,0.25 -0.32812,0.10938 -0.73437,0.1875 -0.40625,0.0781 -0.85938,0.10938 -0.45312,0.0469 -0.90625,0.0469 -0.75,0 -1.40625,-0.20312 -0.64062,-0.21875 -1.125,-0.67188 -0.48437,-0.46875 -0.76562,-1.20312 -0.26563,-0.73438 -0.26563,-1.78125 v -6.125 H 80.41088 V 182.7338 H 83.364 v -2.7345 z m 15.62709,2.53125 q 0.26563,0 0.54688,0.0156 0.29687,0.0156 0.5625,0.0469 0.26562,0.0312 0.48437,0.0937 0.23438,0.0469 0.375,0.10937 l -0.26562,1.875 q -0.54688,-0.125 -1.0625,-0.17187 -0.5,-0.0625 -1.04688,-0.0625 -1.35937,0 -2.20312,0.625 -0.82813,0.60937 -1.23438,1.70312 v 7.23438 h -1.9375 v -11.26563 h 1.84375 l 0.0937,1.78125 q 0.6875,-0.92187 1.64063,-1.45312 0.96875,-0.53125 2.20312,-0.53125 z m 12.81459,11.46875 q -0.10937,-0.21875 -0.1875,-0.54688 -0.0625,-0.32812 -0.0937,-0.6875 -0.29687,0.29688 -0.65625,0.5625 -0.35937,0.25 -0.79687,0.45313 -0.42188,0.20312 -0.92188,0.3125 -0.48437,0.10937 -1.03125,0.10937 -0.89062,0 -1.625,-0.25 -0.71875,-0.26562 -1.23437,-0.70312 -0.5,-0.45313 -0.78125,-1.0625 -0.26563,-0.60938 -0.26563,-1.3125 0,-0.92188 0.35938,-1.625 0.375,-0.70313 1.04687,-1.15625 0.6875,-0.46875 1.64063,-0.6875 0.95312,-0.23438 2.125,-0.23438 h 2.10937 v -0.89062 q 0,-0.51563 -0.1875,-0.92188 -0.1875,-0.40625 -0.53125,-0.6875 -0.34375,-0.28125 -0.84375,-0.4375 -0.48437,-0.15625 -1.10937,-0.15625 -0.5625,0 -1.01563,0.14063 -0.45312,0.14062 -0.76562,0.39062 -0.3125,0.23438 -0.48438,0.5625 -0.17187,0.32813 -0.17187,0.6875 h -1.9375 q 0,-0.625 0.3125,-1.21875 0.3125,-0.59375 0.89062,-1.0625 0.57813,-0.46875 1.40625,-0.75 0.82813,-0.29687 1.875,-0.29687 0.95313,0 1.78125,0.23437 0.82813,0.23438 1.42188,0.70313 0.59375,0.46875 0.9375,1.1875 0.34375,0.70312 0.34375,1.64062 v 5.25 q 0,0.5625 0.0937,1.1875 0.10937,0.625 0.29687,1.09375 v 0.17188 z m -3.40625,-1.46875 q 0.5625,0 1.04688,-0.14063 0.5,-0.15625 0.89062,-0.39062 0.40625,-0.23438 0.6875,-0.54688 0.29688,-0.3125 0.46875,-0.64062 v -2.28125 h -1.79687 q -1.6875,0 -2.625,0.5 -0.9375,0.5 -0.9375,1.57812 0,0.40625 0.14062,0.76563 0.14063,0.35937 0.42188,0.60937 0.28125,0.25 0.70312,0.40625 0.4375,0.14063 1,0.14063 z m 10.53334,-9.79688 0.125,1.65625 q 0.625,-0.875 1.51563,-1.35937 0.89062,-0.5 2,-0.5 0.89062,0 1.60937,0.25 0.71875,0.25 1.23438,0.78125 0.51562,0.51562 0.78125,1.34375 0.28125,0.8125 0.28125,1.9375 v 7.15625 h -1.92188 v -7.10938 q 0,-0.75 -0.17187,-1.26562 -0.17188,-0.53125 -0.5,-0.84375 -0.32813,-0.32813 -0.79688,-0.46875 -0.46875,-0.15625 -1.09375,-0.15625 -0.96875,0 -1.70312,0.48437 -0.73438,0.48438 -1.17188,1.28125 v 8.07813 h -1.92187 v -11.26563 z m 18.54897,8.28125 q 0,-0.34375 -0.14063,-0.625 -0.125,-0.28125 -0.45312,-0.5 -0.3125,-0.23437 -0.84375,-0.42187 -0.53125,-0.20313 -1.32813,-0.35938 -0.96875,-0.1875 -1.76562,-0.46875 -0.79688,-0.28125 -1.375,-0.67187 -0.5625,-0.39063 -0.875,-0.92188 -0.3125,-0.53125 -0.3125,-1.21875 0,-0.6875 0.32812,-1.28125 0.32813,-0.60937 0.90625,-1.04687 0.57813,-0.45313 1.39063,-0.70313 0.8125,-0.26562 1.78125,-0.26562 1.03125,0 1.85937,0.26562 0.84375,0.26563 1.42188,0.75 0.59375,0.46875 0.90625,1.10938 0.3125,0.64062 0.3125,1.39062 h -1.92188 q 0,-0.375 -0.1875,-0.71875 -0.1875,-0.34375 -0.53125,-0.60937 -0.32812,-0.28125 -0.79687,-0.4375 -0.46875,-0.17188 -1.0625,-0.17188 -0.625,0 -1.09375,0.14063 -0.45313,0.125 -0.76563,0.35937 -0.29687,0.21875 -0.45312,0.53125 -0.15625,0.29688 -0.15625,0.625 0,0.32813 0.125,0.59375 0.125,0.25 0.42187,0.46875 0.3125,0.20313 0.82813,0.375 0.51562,0.15625 1.3125,0.3125 1.03125,0.21875 1.85937,0.51563 0.82813,0.28125 1.39063,0.6875 0.5625,0.39062 0.84375,0.92187 0.29687,0.53125 0.29687,1.23438 0,0.75 -0.34375,1.375 -0.32812,0.60937 -0.9375,1.04687 -0.59375,0.4375 -1.4375,0.67188 -0.84375,0.23437 -1.84375,0.23437 -1.14062,0 -2.04687,-0.29687 -0.89063,-0.3125 -1.51563,-0.8125 -0.60937,-0.51563 -0.9375,-1.17188 -0.32812,-0.67187 -0.32812,-1.39062 h 1.92187 q 0.0469,0.59375 0.3125,1 0.28125,0.40625 0.6875,0.65625 0.42188,0.25 0.92188,0.35937 0.5,0.0937 0.98437,0.0937 1.21875,0 1.92188,-0.4375 0.71875,-0.45312 0.71875,-1.1875 z m 8.18959,2.98438 v -9.78125 h -3.10938 v -1.48438 h 3.10938 v -0.79687 q 0,-1.07813 0.3125,-1.89063 0.32812,-0.82812 0.90625,-1.375 0.57812,-0.54687 1.39062,-0.82812 0.8125,-0.28125 1.8125,-0.28125 0.6875,0 1.32813,0.10937 0.65625,0.10938 1.34375,0.29688 l -0.23438,1.59375 q -0.42187,-0.15625 -1,-0.26563 -0.5625,-0.10937 -1.20312,-0.10937 -1.35938,0.0156 -2.04688,0.70312 -0.67187,0.67188 -0.67187,2.04688 v 0.79687 h 4.34375 v 1.48438 h -4.34375 v 9.78125 z m 9.38749,-5.73438 q 0,-1.21875 0.35938,-2.26562 0.35937,-1.04688 1.01562,-1.8125 0.65625,-0.78125 1.60938,-1.21875 0.95312,-0.4375 2.14062,-0.4375 1.1875,0 2.14063,0.4375 0.95312,0.4375 1.60937,1.21875 0.67188,0.76562 1.01563,1.8125 0.35937,1.04687 0.35937,2.26562 v 0.21875 q 0,1.21875 -0.35937,2.26563 -0.34375,1.04687 -1.01563,1.8125 -0.65625,0.76562 -1.60937,1.20312 -0.9375,0.4375 -2.125,0.4375 -1.20313,0 -2.15625,-0.4375 -0.95313,-0.4375 -1.60938,-1.20312 -0.65625,-0.76563 -1.01562,-1.8125 -0.35938,-1.04688 -0.35938,-2.26563 z m 1.9375,0.21875 q 0,0.84375 0.1875,1.59375 0.20313,0.75 0.59375,1.32813 0.40625,0.57812 1.01563,0.90625 0.60937,0.32812 1.40625,0.32812 0.79687,0 1.39062,-0.32812 0.59375,-0.32813 1,-0.90625 0.40625,-0.57813 0.59375,-1.32813 0.20313,-0.75 0.20313,-1.59375 v -0.21875 q 0,-0.82812 -0.20313,-1.57812 -0.20312,-0.76563 -0.60937,-1.32813 -0.39063,-0.57812 -1,-0.90625 -0.59375,-0.34375 -1.39063,-0.34375 -0.8125,0 -1.40625,0.34375 -0.59375,0.32813 -1,0.90625 -0.39062,0.5625 -0.59375,1.32813 -0.1875,0.75 -0.1875,1.57812 z m 18.79897,-5.95312 q 0.26562,0 0.54687,0.0156 0.29688,0.0156 0.5625,0.0469 0.26563,0.0312 0.48438,0.0937 0.23437,0.0469 0.375,0.10937 l -0.26563,1.875 q -0.54687,-0.125 -1.0625,-0.17187 -0.5,-0.0625 -1.04687,-0.0625 -1.35938,0 -2.20313,0.625 -0.82812,0.60937 -1.23437,1.70312 v 7.23438 h -1.9375 v -11.26563 h 1.84375 l 0.0937,1.78125 q 0.6875,-0.92187 1.64062,-1.45312 0.96875,-0.53125 2.20313,-0.53125 z m 6.29896,0.20312 0.0469,1.0625 q 0.34375,-0.59375 0.89062,-0.92187 0.5625,-0.34375 1.35938,-0.34375 1.54687,0 2.07812,1.20312 0.32813,-0.54687 0.875,-0.875 0.54688,-0.32812 1.32813,-0.32812 1.23437,0 1.89062,0.76562 0.67188,0.75 0.67188,2.28125 v 8.42188 h -1.82813 v -8.4375 q 0,-1.42188 -1.29687,-1.40625 -0.34375,0 -0.59375,0.0937 -0.25,0.0937 -0.42188,0.26562 -0.15625,0.15625 -0.25,0.375 -0.0937,0.20313 -0.125,0.4375 v 8.67188 h -1.84375 v -8.45313 q 0,-0.67187 -0.29687,-1.03125 -0.29688,-0.375 -0.95313,-0.35937 -0.60937,0 -0.95312,0.25 -0.32813,0.23437 -0.48438,0.625 v 8.96875 h -1.82812 v -11.26563 z m 13.81461,5.10938 q 0,-1.48438 0.23437,-2.79688 0.23438,-1.3125 0.625,-2.42187 0.40625,-1.125 0.92188,-2.04688 0.51562,-0.9375 1.07812,-1.65625 0.5625,-0.71875 1.14063,-1.21875 0.57812,-0.51562 1.09375,-0.8125 l 0.40625,1.26563 q -0.64063,0.5 -1.28125,1.34375 -0.64063,0.84375 -1.15625,2.04687 -0.5,1.20313 -0.82813,2.76563 -0.3125,1.5625 -0.3125,3.51562 v 0.14063 q 0,1.95312 0.3125,3.53125 0.32813,1.5625 0.82813,2.76562 0.51562,1.21875 1.15625,2.07813 0.64062,0.85937 1.28125,1.375 l -0.40625,1.17187 q -0.51563,-0.28125 -1.09375,-0.79687 -0.57813,-0.5 -1.15625,-1.23438 -0.5625,-0.71875 -1.07813,-1.64062 -0.51562,-0.92188 -0.90625,-2.03125 -0.39062,-1.125 -0.625,-2.4375 -0.23437,-1.3125 -0.23437,-2.79688 z m 14.34582,-8.70313 -0.21875,3.85938 h -1.35937 l 0.0156,-3.6875 v -1.3125 h 1.5625 z m 3.71875,0 -0.21875,3.85938 h -1.34375 v -3.6875 -1.3125 h 1.5625 z m 10.42398,13.5 q 0.53125,0 1.01563,-0.15625 0.5,-0.17187 0.875,-0.46875 0.39062,-0.29687 0.625,-0.6875 0.23437,-0.40625 0.25,-0.875 h 1.8125 q 0,0.75 -0.39063,1.4375 -0.375,0.67188 -1.01562,1.1875 -0.625,0.51563 -1.45313,0.82813 -0.8125,0.29687 -1.71875,0.29687 -1.28125,0 -2.23437,-0.45312 -0.95313,-0.45313 -1.59375,-1.23438 -0.64063,-0.78125 -0.96875,-1.79687 -0.32813,-1.01563 -0.32813,-2.14063 v -0.4375 q 0,-1.10937 0.32813,-2.125 0.32812,-1.03125 0.96875,-1.79687 0.64062,-0.78125 1.59375,-1.23438 0.95312,-0.45312 2.23437,-0.45312 1,0 1.84375,0.3125 0.84375,0.3125 1.45313,0.85937 0.60937,0.54688 0.9375,1.29688 0.34375,0.75 0.34375,1.60937 h -1.8125 q -0.0156,-0.51562 -0.23438,-0.96875 -0.20312,-0.45312 -0.57812,-0.79687 -0.35938,-0.34375 -0.85938,-0.53125 -0.5,-0.20313 -1.09375,-0.20313 -0.89062,0 -1.5,0.35938 -0.60937,0.35937 -0.98437,0.9375 -0.375,0.57812 -0.54688,1.29687 -0.15625,0.71875 -0.15625,1.4375 v 0.4375 q 0,0.75 0.15625,1.46875 0.17188,0.71875 0.53125,1.29688 0.375,0.57812 0.98438,0.9375 0.60937,0.35937 1.51562,0.35937 z m 15.31458,-0.1875 q -0.5625,0.82813 -1.40625,1.29688 -0.84375,0.45312 -1.95313,0.45312 -0.875,0 -1.59375,-0.26562 -0.71875,-0.28125 -1.23437,-0.85938 -0.51563,-0.59375 -0.79688,-1.48437 -0.26562,-0.90625 -0.26562,-2.17188 v -6.6875 h 1.92187 v 6.71875 q 0,0.90625 0.14063,1.51563 0.15625,0.60937 0.4375,0.96875 0.29687,0.35937 0.71875,0.5 0.42187,0.14062 0.98437,0.14062 1.17188,0 1.89063,-0.46875 0.73437,-0.48437 1.07812,-1.29687 v -8.07813 h 1.9375 v 11.26563 h -1.75 z m 12.97086,-1.4375 q 0,-0.34375 -0.14063,-0.625 -0.125,-0.28125 -0.45312,-0.5 -0.3125,-0.23437 -0.84375,-0.42187 -0.53125,-0.20313 -1.32813,-0.35938 -0.96875,-0.1875 -1.76562,-0.46875 -0.79688,-0.28125 -1.375,-0.67187 -0.5625,-0.39063 -0.875,-0.92188 -0.3125,-0.53125 -0.3125,-1.21875 0,-0.6875 0.32812,-1.28125 0.32813,-0.60937 0.90625,-1.04687 0.57813,-0.45313 1.39063,-0.70313 0.8125,-0.26562 1.78125,-0.26562 1.03125,0 1.85937,0.26562 0.84375,0.26563 1.42188,0.75 0.59375,0.46875 0.90625,1.10938 0.3125,0.64062 0.3125,1.39062 h -1.92188 q 0,-0.375 -0.1875,-0.71875 -0.1875,-0.34375 -0.53125,-0.60937 -0.32812,-0.28125 -0.79687,-0.4375 -0.46875,-0.17188 -1.0625,-0.17188 -0.625,0 -1.09375,0.14063 -0.45313,0.125 -0.76563,0.35937 -0.29687,0.21875 -0.45312,0.53125 -0.15625,0.29688 -0.15625,0.625 0,0.32813 0.125,0.59375 0.125,0.25 0.42187,0.46875 0.3125,0.20313 0.82813,0.375 0.51562,0.15625 1.3125,0.3125 1.03125,0.21875 1.85937,0.51563 0.82813,0.28125 1.39063,0.6875 0.5625,0.39062 0.84375,0.92187 0.29687,0.53125 0.29687,1.23438 0,0.75 -0.34375,1.375 -0.32812,0.60937 -0.9375,1.04687 -0.59375,0.4375 -1.4375,0.67188 -0.84375,0.23437 -1.84375,0.23437 -1.14062,0 -2.04687,-0.29687 -0.89063,-0.3125 -1.51563,-0.8125 -0.60937,-0.51563 -0.9375,-1.17188 -0.32812,-0.67187 -0.32812,-1.39062 h 1.92187 q 0.0469,0.59375 0.3125,1 0.28125,0.40625 0.6875,0.65625 0.42188,0.25 0.92188,0.35937 0.5,0.0937 0.98437,0.0937 1.21875,0 1.92188,-0.4375 0.71875,-0.45312 0.71875,-1.1875 z m 9.87707,-11.01562 v 2.73437 h 4.29688 v 1.48438 h -4.29688 v 6.125 q 0,0.65625 0.15625,1.09375 0.17188,0.42187 0.46875,0.67187 0.29688,0.25 0.67188,0.35938 0.375,0.10937 0.8125,0.10937 0.3125,0 0.64062,-0.0312 0.32813,-0.0469 0.64063,-0.0937 0.32812,-0.0625 0.59375,-0.10937 0.28125,-0.0625 0.45312,-0.10938 l 0.28125,1.375 q -0.25,0.14063 -0.59375,0.25 -0.32812,0.10938 -0.73437,0.1875 -0.40625,0.0781 -0.85938,0.10938 -0.45312,0.0469 -0.90625,0.0469 -0.75,0 -1.40625,-0.20312 -0.64062,-0.21875 -1.125,-0.67188 -0.48437,-0.46875 -0.76562,-1.20312 -0.26563,-0.73438 -0.26563,-1.78125 v -6.125 h -2.95312 v -1.48438 h 2.95312 v -2.7345 z m 7.68961,8.26562 q 0,-1.21875 0.35937,-2.26562 0.35938,-1.04688 1.01563,-1.8125 0.65625,-0.78125 1.60937,-1.21875 0.95313,-0.4375 2.14063,-0.4375 1.1875,0 2.14062,0.4375 0.95313,0.4375 1.60938,1.21875 0.67187,0.76562 1.01562,1.8125 0.35938,1.04687 0.35938,2.26562 v 0.21875 q 0,1.21875 -0.35938,2.26563 -0.34375,1.04687 -1.01562,1.8125 -0.65625,0.76562 -1.60938,1.20312 -0.9375,0.4375 -2.125,0.4375 -1.20312,0 -2.15625,-0.4375 -0.95312,-0.4375 -1.60937,-1.20312 -0.65625,-0.76563 -1.01563,-1.8125 -0.35937,-1.04688 -0.35937,-2.26563 z m 1.9375,0.21875 q 0,0.84375 0.1875,1.59375 0.20312,0.75 0.59375,1.32813 0.40625,0.57812 1.01562,0.90625 0.60938,0.32812 1.40625,0.32812 0.79688,0 1.39063,-0.32812 0.59375,-0.32813 1,-0.90625 0.40625,-0.57813 0.59375,-1.32813 0.20312,-0.75 0.20312,-1.59375 v -0.21875 q 0,-0.82812 -0.20312,-1.57812 -0.20313,-0.76563 -0.60938,-1.32813 -0.39062,-0.57812 -1,-0.90625 -0.59375,-0.34375 -1.39062,-0.34375 -0.8125,0 -1.40625,0.34375 -0.59375,0.32813 -1,0.90625 -0.39063,0.5625 -0.59375,1.32813 -0.1875,0.75 -0.1875,1.57812 z m 12.29895,-5.75 0.0469,1.0625 q 0.34375,-0.59375 0.89063,-0.92187 0.5625,-0.34375 1.35937,-0.34375 1.54688,0 2.07813,1.20312 0.32812,-0.54687 0.875,-0.875 0.54687,-0.32812 1.32812,-0.32812 1.23438,0 1.89063,0.76562 0.67187,0.75 0.67187,2.28125 v 8.42188 h -1.82812 v -8.4375 q 0,-1.42188 -1.29688,-1.40625 -0.34375,0 -0.59375,0.0937 -0.25,0.0937 -0.42187,0.26562 -0.15625,0.15625 -0.25,0.375 -0.0937,0.20313 -0.125,0.4375 v 8.67188 h -1.84375 v -8.45313 q 0,-0.67187 -0.29688,-1.03125 -0.29687,-0.375 -0.95312,-0.35937 -0.60938,0 -0.95313,0.25 -0.32812,0.23437 -0.48437,0.625 v 8.96875 h -1.82813 v -11.26563 z m 15.36148,-3.59375 -0.21875,3.85938 h -1.35938 l 0.0156,-3.6875 v -1.3125 h 1.5625 z m 3.71875,0 -0.21875,3.85938 h -1.34375 v -3.6875 -1.3125 h 1.5625 z m 12.65835,8.8125 q 0,1.48438 -0.23437,2.79688 -0.23438,1.3125 -0.64063,2.4375 -0.39062,1.10937 -0.90625,2.03125 -0.51562,0.92187 -1.07812,1.64062 -0.5625,0.73438 -1.14063,1.23438 -0.57812,0.51562 -1.10937,0.79687 l -0.40625,-1.17187 q 0.65625,-0.48438 1.29687,-1.34375 0.64063,-0.85938 1.14063,-2.07813 0.5,-1.21875 0.8125,-2.79687 0.32812,-1.57813 0.32812,-3.53125 v -0.14063 q 0,-1.95312 -0.34375,-3.53125 -0.32812,-1.59375 -0.85937,-2.8125 -0.51563,-1.23437 -1.15625,-2.07812 -0.625,-0.85938 -1.21875,-1.34375 l 0.40625,-1.17188 q 0.53125,0.29688 1.10937,0.8125 0.57813,0.5 1.14063,1.21875 0.5625,0.71875 1.07812,1.65625 0.51563,0.92188 0.90625,2.04688 0.40625,1.10937 0.64063,2.42187 0.23437,1.3125 0.23437,2.79688 z" />
  <path
     style="fill:#000000;fill-rule:nonzero"
     inkscape:connector-curvature="0"
     id="path63"
     d="m 71.29941,218.7493 q 0,-0.3125 0.0937,-0.57813 0.0937,-0.28125 0.28125,-0.48437 0.1875,-0.20313 0.46875,-0.3125 0.28125,-0.10938 0.65625,-0.10938 0.375,0 0.65625,0.10938 0.29687,0.10937 0.48437,0.3125 0.20313,0.20312 0.29688,0.48437 0.0937,0.26563 0.0937,0.57813 0,0.29687 -0.0937,0.5625 -0.0937,0.26562 -0.29688,0.46875 -0.1875,0.20312 -0.48437,0.3125 -0.28125,0.10937 -0.65625,0.10937 -0.375,0 -0.65625,-0.10937 -0.28125,-0.10938 -0.46875,-0.3125 -0.1875,-0.20313 -0.28125,-0.46875 -0.0937,-0.26563 -0.0937,-0.5625 z m 14.00209,-12.75 v 2.73437 h 4.29688 v 1.48438 H 85.3015 v 6.125 q 0,0.65625 0.15625,1.09375 0.17188,0.42187 0.46875,0.67187 0.29688,0.25 0.67188,0.35938 0.375,0.10937 0.8125,0.10937 0.3125,0 0.64062,-0.0312 0.32813,-0.0469 0.64063,-0.0937 0.32812,-0.0625 0.59375,-0.10937 0.28125,-0.0625 0.45312,-0.10938 l 0.28125,1.375 q -0.25,0.14063 -0.59375,0.25 -0.32812,0.10938 -0.73437,0.1875 -0.40625,0.0781 -0.85938,0.10938 -0.45312,0.0469 -0.90625,0.0469 -0.75,0 -1.40625,-0.20312 -0.64062,-0.21875 -1.125,-0.67188 -0.48437,-0.46875 -0.76562,-1.20312 -0.26563,-0.73438 -0.26563,-1.78125 v -6.125 H 80.41088 V 208.7338 H 83.364 v -2.7345 z m 7.68959,8.26562 q 0,-1.21875 0.35938,-2.26562 0.35937,-1.04688 1.01562,-1.8125 0.65625,-0.78125 1.60938,-1.21875 0.95312,-0.4375 2.14062,-0.4375 1.1875,0 2.14063,0.4375 0.95312,0.4375 1.60937,1.21875 0.67188,0.76562 1.01563,1.8125 0.35937,1.04687 0.35937,2.26562 v 0.21875 q 0,1.21875 -0.35937,2.26563 -0.34375,1.04687 -1.01563,1.8125 -0.65625,0.76562 -1.60937,1.20312 -0.9375,0.4375 -2.125,0.4375 -1.20313,0 -2.15625,-0.4375 -0.95313,-0.4375 -1.60938,-1.20312 -0.65625,-0.76563 -1.01562,-1.8125 -0.35938,-1.04688 -0.35938,-2.26563 z m 1.9375,0.21875 q 0,0.84375 0.1875,1.59375 0.20313,0.75 0.59375,1.32813 0.40625,0.57812 1.01563,0.90625 0.60937,0.32812 1.40625,0.32812 0.79687,0 1.39062,-0.32812 0.59375,-0.32813 1,-0.90625 0.40625,-0.57813 0.59375,-1.32813 0.20313,-0.75 0.20313,-1.59375 v -0.21875 q 0,-0.82812 -0.20313,-1.57812 -0.20312,-0.76563 -0.60937,-1.32813 -0.39063,-0.57812 -1,-0.90625 -0.59375,-0.34375 -1.39063,-0.34375 -0.8125,0 -1.40625,0.34375 -0.59375,0.32813 -1,0.90625 -0.39062,0.5625 -0.59375,1.32813 -0.1875,0.75 -0.1875,1.57812 z m 13.31459,-0.64062 q 0,-1.48438 0.23438,-2.79688 0.23437,-1.3125 0.625,-2.42187 0.40625,-1.125 0.92187,-2.04688 0.51563,-0.9375 1.07813,-1.65625 0.5625,-0.71875 1.14062,-1.21875 0.57813,-0.51562 1.09375,-0.8125 l 0.40625,1.26563 q -0.64062,0.5 -1.28125,1.34375 -0.64062,0.84375 -1.15625,2.04687 -0.5,1.20313 -0.82812,2.76563 -0.3125,1.5625 -0.3125,3.51562 v 0.14063 q 0,1.95312 0.3125,3.53125 0.32812,1.5625 0.82812,2.76562 0.51563,1.21875 1.15625,2.07813 0.64063,0.85937 1.28125,1.375 l -0.40625,1.17187 q -0.51562,-0.28125 -1.09375,-0.79687 -0.57812,-0.5 -1.15625,-1.23438 -0.5625,-0.71875 -1.07812,-1.64062 -0.51563,-0.92188 -0.90625,-2.03125 -0.39063,-1.125 -0.625,-2.4375 -0.23438,-1.3125 -0.23438,-2.79688 z m 14.34584,-8.70313 -0.21875,3.85938 h -1.35937 l 0.0156,-3.6875 v -1.3125 h 1.5625 z m 3.71875,0 -0.21875,3.85938 h -1.34375 v -3.6875 -1.3125 h 1.5625 z m 9.00209,9.59375 -1.42187,1.375 v 3.89063 h -1.9375 v -16 h 1.9375 v 9.79687 l 1.26562,-1.35937 3.70313,-3.70313 h 2.32812 l -4.54687,4.6875 5.25,6.57813 h -2.4375 z m 11.15834,-6 0.125,1.65625 q 0.625,-0.875 1.51563,-1.35937 0.89062,-0.5 2,-0.5 0.89062,0 1.60937,0.25 0.71875,0.25 1.23438,0.78125 0.51562,0.51562 0.78125,1.34375 0.28125,0.8125 0.28125,1.9375 v 7.15625 h -1.92188 v -7.10938 q 0,-0.75 -0.17187,-1.26562 -0.17188,-0.53125 -0.5,-0.84375 -0.32813,-0.32813 -0.79688,-0.46875 -0.46875,-0.15625 -1.09375,-0.15625 -0.96875,0 -1.70312,0.48437 -0.73438,0.48438 -1.17188,1.28125 v 8.07813 h -1.92187 v -11.26563 z m 18.47084,11.26563 q -0.10937,-0.21875 -0.1875,-0.54688 -0.0625,-0.32812 -0.0937,-0.6875 -0.29687,0.29688 -0.65625,0.5625 -0.35937,0.25 -0.79687,0.45313 -0.42188,0.20312 -0.92188,0.3125 -0.48437,0.10937 -1.03125,0.10937 -0.89062,0 -1.625,-0.25 -0.71875,-0.26562 -1.23437,-0.70312 -0.5,-0.45313 -0.78125,-1.0625 -0.26563,-0.60938 -0.26563,-1.3125 0,-0.92188 0.35938,-1.625 0.375,-0.70313 1.04687,-1.15625 0.6875,-0.46875 1.64063,-0.6875 0.95312,-0.23438 2.125,-0.23438 h 2.10937 v -0.89062 q 0,-0.51563 -0.1875,-0.92188 -0.1875,-0.40625 -0.53125,-0.6875 -0.34375,-0.28125 -0.84375,-0.4375 -0.48437,-0.15625 -1.10937,-0.15625 -0.5625,0 -1.01563,0.14063 -0.45312,0.14062 -0.76562,0.39062 -0.3125,0.23438 -0.48438,0.5625 -0.17187,0.32813 -0.17187,0.6875 h -1.9375 q 0,-0.625 0.3125,-1.21875 0.3125,-0.59375 0.89062,-1.0625 0.57813,-0.46875 1.40625,-0.75 0.82813,-0.29687 1.875,-0.29687 0.95313,0 1.78125,0.23437 0.82813,0.23438 1.42188,0.70313 0.59375,0.46875 0.9375,1.1875 0.34375,0.70312 0.34375,1.64062 v 5.25 q 0,0.5625 0.0937,1.1875 0.10937,0.625 0.29687,1.09375 v 0.17188 z m -3.40625,-1.46875 q 0.5625,0 1.04688,-0.14063 0.5,-0.15625 0.89062,-0.39062 0.40625,-0.23438 0.6875,-0.54688 0.29688,-0.3125 0.46875,-0.64062 v -2.28125 h -1.79687 q -1.6875,0 -2.625,0.5 -0.9375,0.5 -0.9375,1.57812 0,0.40625 0.14062,0.76563 0.14063,0.35937 0.42188,0.60937 0.28125,0.25 0.70312,0.40625 0.4375,0.14063 1,0.14063 z m 13.36147,-12.53125 v 2.73437 h 4.29687 v 1.48438 h -4.29687 v 6.125 q 0,0.65625 0.15625,1.09375 0.17187,0.42187 0.46875,0.67187 0.29687,0.25 0.67187,0.35938 0.375,0.10937 0.8125,0.10937 0.3125,0 0.64063,-0.0312 0.32812,-0.0469 0.64062,-0.0937 0.32813,-0.0625 0.59375,-0.10937 0.28125,-0.0625 0.45313,-0.10938 l 0.28125,1.375 q -0.25,0.14063 -0.59375,0.25 -0.32813,0.10938 -0.73438,0.1875 -0.40625,0.0781 -0.85937,0.10938 -0.45313,0.0469 -0.90625,0.0469 -0.75,0 -1.40625,-0.20312 -0.64063,-0.21875 -1.125,-0.67188 -0.48438,-0.46875 -0.76563,-1.20312 -0.26562,-0.73438 -0.26562,-1.78125 v -6.125 h -2.95313 v -1.48438 h 2.95313 v -2.7345 z m 8.53334,2.73437 h 5.76562 v 9.59375 h 3.67188 v 1.67188 h -9.4375 v -1.67188 h 3.84375 v -7.92187 h -3.84375 z m 3.59375,-2.95312 q 0,-0.48438 0.28125,-0.8125 0.28125,-0.32813 0.875,-0.32813 0.5625,0 0.85937,0.32813 0.29688,0.32812 0.29688,0.8125 0,0.46875 -0.29688,0.78125 -0.29687,0.3125 -0.85937,0.3125 -0.59375,0 -0.875,-0.3125 -0.28125,-0.3125 -0.28125,-0.78125 z m 13.33023,11.45312 0.17187,0.6875 0.1875,-0.6875 3.15625,-8.5 h 1.96875 l -4.59375,11.26563 h -1.46875 l -4.64062,-11.26563 h 1.98437 z m 13.36145,2.96875 q -1.1875,0 -2.1875,-0.40625 -1,-0.40625 -1.70313,-1.125 -0.70312,-0.73437 -1.10937,-1.73437 -0.39063,-1 -0.39063,-2.17188 v -0.4375 q 0,-1.375 0.4375,-2.45312 0.4375,-1.07813 1.15625,-1.8125 0.73438,-0.75 1.65625,-1.14063 0.92188,-0.39062 1.89063,-0.39062 1.21875,0 2.125,0.42187 0.90625,0.40625 1.5,1.15625 0.60937,0.75 0.90625,1.76563 0.29687,1 0.29687,2.17187 v 0.875 h -8.04687 q 0.0312,0.76563 0.29687,1.45313 0.26563,0.67187 0.73438,1.17187 0.46875,0.5 1.10937,0.79688 0.64063,0.29687 1.42188,0.29687 1.03125,0 1.82812,-0.42187 0.8125,-0.42188 1.34375,-1.10938 l 1.17188,0.92188 q -0.28125,0.42187 -0.70313,0.8125 -0.42187,0.39062 -0.96875,0.70312 -0.54687,0.29688 -1.25,0.46875 -0.70312,0.1875 -1.51562,0.1875 z m -0.25,-10.09375 q -0.59375,0 -1.10938,0.21875 -0.51562,0.20313 -0.9375,0.625 -0.42187,0.40625 -0.70312,1 -0.28125,0.59375 -0.40625,1.375 h 6.0625 v -0.14062 q -0.0312,-0.5625 -0.21875,-1.10938 -0.17188,-0.5625 -0.53125,-1 -0.34375,-0.4375 -0.89063,-0.70312 -0.53125,-0.26563 -1.26562,-0.26563 z m 12.42398,8.64063 q 0,-0.3125 0.0937,-0.57813 0.0937,-0.28125 0.28125,-0.48437 0.1875,-0.20313 0.46875,-0.3125 0.28125,-0.10938 0.65625,-0.10938 0.375,0 0.65625,0.10938 0.29687,0.10937 0.48437,0.3125 0.20313,0.20312 0.29688,0.48437 0.0937,0.26563 0.0937,0.57813 0,0.29687 -0.0937,0.5625 -0.0937,0.26562 -0.29688,0.46875 -0.1875,0.20312 -0.48437,0.3125 -0.28125,0.10937 -0.65625,0.10937 -0.375,0 -0.65625,-0.10937 -0.28125,-0.10938 -0.46875,-0.3125 -0.1875,-0.20313 -0.28125,-0.46875 -0.0937,-0.26563 -0.0937,-0.5625 z m 0,-9 q 0,-0.3125 0.0937,-0.57813 0.0937,-0.28125 0.28125,-0.48437 0.1875,-0.20313 0.46875,-0.3125 0.28125,-0.10938 0.65625,-0.10938 0.375,0 0.65625,0.10938 0.29687,0.10937 0.48437,0.3125 0.20313,0.20312 0.29688,0.48437 0.0937,0.26563 0.0937,0.57813 0,0.29687 -0.0937,0.5625 -0.0937,0.26562 -0.29688,0.46875 -0.1875,0.20312 -0.48437,0.3125 -0.28125,0.10937 -0.65625,0.10937 -0.375,0 -0.65625,-0.10937 -0.28125,-0.10938 -0.46875,-0.3125 -0.1875,-0.20313 -0.28125,-0.46875 -0.0937,-0.26563 -0.0937,-0.5625 z m 13.42395,10.45312 q -1.1875,0 -2.1875,-0.40625 -1,-0.40625 -1.70313,-1.125 -0.70312,-0.73437 -1.10937,-1.73437 -0.39063,-1 -0.39063,-2.17188 v -0.4375 q 0,-1.375 0.4375,-2.45312 0.4375,-1.07813 1.15625,-1.8125 0.73438,-0.75 1.65625,-1.14063 0.92188,-0.39062 1.89063,-0.39062 1.21875,0 2.125,0.42187 0.90625,0.40625 1.5,1.15625 0.60937,0.75 0.90625,1.76563 0.29687,1 0.29687,2.17187 v 0.875 h -8.04687 q 0.0312,0.76563 0.29687,1.45313 0.26563,0.67187 0.73438,1.17187 0.46875,0.5 1.10937,0.79688 0.64063,0.29687 1.42188,0.29687 1.03125,0 1.82812,-0.42187 0.8125,-0.42188 1.34375,-1.10938 l 1.17188,0.92188 q -0.28125,0.42187 -0.70313,0.8125 -0.42187,0.39062 -0.96875,0.70312 -0.54687,0.29688 -1.25,0.46875 -0.70312,0.1875 -1.51562,0.1875 z m -0.25,-10.09375 q -0.59375,0 -1.10938,0.21875 -0.51562,0.20313 -0.9375,0.625 -0.42187,0.40625 -0.70312,1 -0.28125,0.59375 -0.40625,1.375 h 6.0625 v -0.14062 q -0.0312,-0.5625 -0.21875,-1.10938 -0.17188,-0.5625 -0.53125,-1 -0.34375,-0.4375 -0.89063,-0.70312 -0.53125,-0.26563 -1.26562,-0.26563 z m 9.79898,-1.375 0.125,1.65625 q 0.625,-0.875 1.51562,-1.35937 0.89063,-0.5 2,-0.5 0.89063,0 1.60938,0.25 0.71875,0.25 1.23437,0.78125 0.51563,0.51562 0.78125,1.34375 0.28125,0.8125 0.28125,1.9375 v 7.15625 h -1.92187 v -7.10938 q 0,-0.75 -0.17188,-1.26562 -0.17187,-0.53125 -0.5,-0.84375 -0.32812,-0.32813 -0.79687,-0.46875 -0.46875,-0.15625 -1.09375,-0.15625 -0.96875,0 -1.70313,0.48437 -0.73437,0.48438 -1.17187,1.28125 v 8.07813 h -1.92188 v -11.26563 z m 10.7052,5.53125 q 0,-1.25 0.3125,-2.3125 0.3125,-1.0625 0.90625,-1.8125 0.59375,-0.76562 1.42187,-1.1875 0.82813,-0.42187 1.85938,-0.42187 1.01562,0 1.76562,0.34375 0.76563,0.32812 1.3125,0.96875 v -5.84375 h 1.92188 v 16 h -1.76563 l -0.0781,-1.1875 q -0.5625,0.6875 -1.34375,1.04687 -0.78125,0.34375 -1.82813,0.34375 -1.01562,0 -1.84375,-0.4375 -0.82812,-0.4375 -1.42187,-1.20312 -0.57813,-0.76563 -0.90625,-1.8125 -0.3125,-1.04688 -0.3125,-2.26563 z m 1.92187,0.21875 q 0,0.82813 0.17188,1.57813 0.1875,0.73437 0.54687,1.29687 0.375,0.5625 0.9375,0.89063 0.57813,0.32812 1.39063,0.32812 0.48437,0 0.875,-0.10937 0.40625,-0.125 0.71875,-0.32813 0.32812,-0.21875 0.57812,-0.51562 0.25,-0.29688 0.4375,-0.67188 v -5.21875 q -0.375,-0.6875 -1.01562,-1.125 -0.625,-0.45312 -1.57813,-0.45312 -0.8125,0 -1.39062,0.34375 -0.57813,0.32812 -0.95313,0.89062 -0.35937,0.5625 -0.54687,1.3125 -0.17188,0.75 -0.17188,1.5625 z m 20.73648,0 q 0,1.21875 -0.29687,2.26563 -0.28125,1.04687 -0.84375,1.8125 -0.5625,0.76562 -1.39063,1.20312 -0.82812,0.4375 -1.89062,0.4375 -1.03125,0 -1.8125,-0.32812 -0.78125,-0.32813 -1.34375,-0.95313 v 5.40625 h -1.9375 v -15.59375 h 1.76562 l 0.0937,1.21875 q 0.5625,-0.6875 1.35938,-1.04687 0.79687,-0.375 1.84375,-0.375 1.09375,0 1.92187,0.42187 0.82813,0.42188 1.39063,1.1875 0.5625,0.75 0.84375,1.8125 0.29687,1.0625 0.29687,2.3125 z m -1.92187,-0.21875 q 0,-0.8125 -0.1875,-1.5625 -0.17188,-0.75 -0.5625,-1.3125 -0.375,-0.5625 -0.95313,-0.89062 -0.57812,-0.34375 -1.39062,-0.34375 -0.9375,0 -1.5625,0.4375 -0.625,0.42187 -1,1.10937 v 5.42188 q 0.375,0.67187 1,1.09375 0.625,0.42187 1.57812,0.42187 0.79688,0 1.375,-0.34375 0.59375,-0.34375 0.96875,-0.90625 0.375,-0.57812 0.54688,-1.32812 0.1875,-0.75 0.1875,-1.57813 z m 4.67398,0 q 0,-1.21875 0.35937,-2.26562 0.35938,-1.04688 1.01563,-1.8125 0.65625,-0.78125 1.60937,-1.21875 0.95313,-0.4375 2.14063,-0.4375 1.1875,0 2.14062,0.4375 0.95313,0.4375 1.60938,1.21875 0.67187,0.76562 1.01562,1.8125 0.35938,1.04687 0.35938,2.26562 v 0.21875 q 0,1.21875 -0.35938,2.26563 -0.34375,1.04687 -1.01562,1.8125 -0.65625,0.76562 -1.60938,1.20312 -0.9375,0.4375 -2.125,0.4375 -1.20312,0 -2.15625,-0.4375 -0.95312,-0.4375 -1.60937,-1.20312 -0.65625,-0.76563 -1.01563,-1.8125 -0.35937,-1.04688 -0.35937,-2.26563 z m 1.9375,0.21875 q 0,0.84375 0.1875,1.59375 0.20312,0.75 0.59375,1.32813 0.40625,0.57812 1.01562,0.90625 0.60938,0.32812 1.40625,0.32812 0.79688,0 1.39063,-0.32812 0.59375,-0.32813 1,-0.90625 0.40625,-0.57813 0.59375,-1.32813 0.20312,-0.75 0.20312,-1.59375 v -0.21875 q 0,-0.82812 -0.20312,-1.57812 -0.20313,-0.76563 -0.60938,-1.32813 -0.39062,-0.57812 -1,-0.90625 -0.59375,-0.34375 -1.39062,-0.34375 -0.8125,0 -1.40625,0.34375 -0.59375,0.32813 -1,0.90625 -0.39063,0.5625 -0.59375,1.32813 -0.1875,0.75 -0.1875,1.57812 z m 11.7052,-5.75 h 5.76562 v 9.59375 h 3.67188 v 1.67188 h -9.4375 v -1.67188 h 3.84375 v -7.92187 h -3.84375 z m 3.59375,-2.95312 q 0,-0.48438 0.28125,-0.8125 0.28125,-0.32813 0.875,-0.32813 0.5625,0 0.85937,0.32813 0.29688,0.32812 0.29688,0.8125 0,0.46875 -0.29688,0.78125 -0.29687,0.3125 -0.85937,0.3125 -0.59375,0 -0.875,-0.3125 -0.28125,-0.3125 -0.28125,-0.78125 z m 10.6427,2.95312 0.125,1.65625 q 0.625,-0.875 1.51562,-1.35937 0.89063,-0.5 2,-0.5 0.89063,0 1.60938,0.25 0.71875,0.25 1.23437,0.78125 0.51563,0.51562 0.78125,1.34375 0.28125,0.8125 0.28125,1.9375 v 7.15625 h -1.92187 v -7.10938 q 0,-0.75 -0.17188,-1.26562 -0.17187,-0.53125 -0.5,-0.84375 -0.32812,-0.32813 -0.79687,-0.46875 -0.46875,-0.15625 -1.09375,-0.15625 -0.96875,0 -1.70313,0.48437 -0.73437,0.48438 -1.17187,1.28125 v 8.07813 h -1.92188 v -11.26563 z m 15.62707,-2.73437 v 2.73437 h 4.29688 v 1.48438 h -4.29688 v 6.125 q 0,0.65625 0.15625,1.09375 0.17188,0.42187 0.46875,0.67187 0.29688,0.25 0.67188,0.35938 0.375,0.10937 0.8125,0.10937 0.3125,0 0.64062,-0.0312 0.32813,-0.0469 0.64063,-0.0937 0.32812,-0.0625 0.59375,-0.10937 0.28125,-0.0625 0.45312,-0.10938 l 0.28125,1.375 q -0.25,0.14063 -0.59375,0.25 -0.32812,0.10938 -0.73437,0.1875 -0.40625,0.0781 -0.85938,0.10938 -0.45312,0.0469 -0.90625,0.0469 -0.75,0 -1.40625,-0.20312 -0.64062,-0.21875 -1.125,-0.67188 -0.48437,-0.46875 -0.76562,-1.20312 -0.26563,-0.73438 -0.26563,-1.78125 v -6.125 h -2.95312 v -1.48438 h 2.95312 v -2.7345 z m 10.78333,15.29687 h -1.73438 l 6.32813,-16.45312 h 1.71875 z m 17.73645,-4.28125 q 0,-0.34375 -0.14063,-0.625 -0.125,-0.28125 -0.45312,-0.5 -0.3125,-0.23437 -0.84375,-0.42187 -0.53125,-0.20313 -1.32813,-0.35938 -0.96875,-0.1875 -1.76562,-0.46875 -0.79688,-0.28125 -1.375,-0.67187 -0.5625,-0.39063 -0.875,-0.92188 -0.3125,-0.53125 -0.3125,-1.21875 0,-0.6875 0.32812,-1.28125 0.32813,-0.60937 0.90625,-1.04687 0.57813,-0.45313 1.39063,-0.70313 0.8125,-0.26562 1.78125,-0.26562 1.03125,0 1.85937,0.26562 0.84375,0.26563 1.42188,0.75 0.59375,0.46875 0.90625,1.10938 0.3125,0.64062 0.3125,1.39062 h -1.92188 q 0,-0.375 -0.1875,-0.71875 -0.1875,-0.34375 -0.53125,-0.60937 -0.32812,-0.28125 -0.79687,-0.4375 -0.46875,-0.17188 -1.0625,-0.17188 -0.625,0 -1.09375,0.14063 -0.45313,0.125 -0.76563,0.35937 -0.29687,0.21875 -0.45312,0.53125 -0.15625,0.29688 -0.15625,0.625 0,0.32813 0.125,0.59375 0.125,0.25 0.42187,0.46875 0.3125,0.20313 0.82813,0.375 0.51562,0.15625 1.3125,0.3125 1.03125,0.21875 1.85937,0.51563 0.82813,0.28125 1.39063,0.6875 0.5625,0.39062 0.84375,0.92187 0.29687,0.53125 0.29687,1.23438 0,0.75 -0.34375,1.375 -0.32812,0.60937 -0.9375,1.04687 -0.59375,0.4375 -1.4375,0.67188 -0.84375,0.23437 -1.84375,0.23437 -1.14062,0 -2.04687,-0.29687 -0.89063,-0.3125 -1.51563,-0.8125 -0.60937,-0.51563 -0.9375,-1.17188 -0.32812,-0.67187 -0.32812,-1.39062 h 1.92187 q 0.0469,0.59375 0.3125,1 0.28125,0.40625 0.6875,0.65625 0.42188,0.25 0.92188,0.35937 0.5,0.0937 0.98437,0.0937 1.21875,0 1.92188,-0.4375 0.71875,-0.45312 0.71875,-1.1875 z m 5.61145,-8.28125 h 5.76562 v 9.59375 h 3.67188 v 1.67188 h -9.4375 v -1.67188 h 3.84375 v -7.92187 h -3.84375 z m 3.59375,-2.95312 q 0,-0.48438 0.28125,-0.8125 0.28125,-0.32813 0.875,-0.32813 0.5625,0 0.85937,0.32813 0.29688,0.32812 0.29688,0.8125 0,0.46875 -0.29688,0.78125 -0.29687,0.3125 -0.85937,0.3125 -0.59375,0 -0.875,-0.3125 -0.28125,-0.3125 -0.28125,-0.78125 z m 10.6427,2.95312 0.125,1.65625 q 0.625,-0.875 1.51562,-1.35937 0.89063,-0.5 2,-0.5 0.89063,0 1.60938,0.25 0.71875,0.25 1.23437,0.78125 0.51563,0.51562 0.78125,1.34375 0.28125,0.8125 0.28125,1.9375 v 7.15625 h -1.92187 v -7.10938 q 0,-0.75 -0.17188,-1.26562 -0.17187,-0.53125 -0.5,-0.84375 -0.32812,-0.32813 -0.79687,-0.46875 -0.46875,-0.15625 -1.09375,-0.15625 -0.96875,0 -1.70313,0.48437 -0.73437,0.48438 -1.17187,1.28125 v 8.07813 h -1.92188 v -11.26563 z m 14.43957,6 -1.42187,1.375 v 3.89063 h -1.9375 v -16 h 1.9375 v 9.79687 l 1.26562,-1.35937 3.70313,-3.70313 h 2.32812 l -4.54687,4.6875 5.25,6.57813 h -2.4375 z m 12.87708,-9.59375 -0.21875,3.85938 h -1.35938 l 0.0156,-3.6875 v -1.3125 h 1.5625 z m 3.71875,0 -0.21875,3.85938 h -1.34375 v -3.6875 -1.3125 h 1.5625 z m 12.65832,8.8125 q 0,1.48438 -0.23437,2.79688 -0.23438,1.3125 -0.64063,2.4375 -0.39062,1.10937 -0.90625,2.03125 -0.51562,0.92187 -1.07812,1.64062 -0.5625,0.73438 -1.14063,1.23438 -0.57812,0.51562 -1.10937,0.79687 l -0.40625,-1.17187 q 0.65625,-0.48438 1.29687,-1.34375 0.64063,-0.85938 1.14063,-2.07813 0.5,-1.21875 0.8125,-2.79687 0.32812,-1.57813 0.32812,-3.53125 v -0.14063 q 0,-1.95312 -0.34375,-3.53125 -0.32812,-1.59375 -0.85937,-2.8125 -0.51563,-1.23437 -1.15625,-2.07812 -0.625,-0.85938 -1.21875,-1.34375 l 0.40625,-1.17188 q 0.53125,0.29688 1.10937,0.8125 0.57813,0.5 1.14063,1.21875 0.5625,0.71875 1.07812,1.65625 0.51563,0.92188 0.90625,2.04688 0.40625,1.10937 0.64063,2.42187 0.23437,1.3125 0.23437,2.79688 z" />
  <path
     style="fill:#000000;fill-opacity:0;fill-rule:evenodd"
     inkscape:connector-curvature="0"
     id="path65"
     d="m 70.55376,390.8333 h 450.36218 v 78.20477 H 70.55376 Z" />
  <text
     xml:space="preserve"
     style="font-style:normal;font-variant:normal;font-weight:normal;font-stretch:normal;font-size:40px;line-height:1.25;font-family:Judson;-inkscape-font-specification:Judson;letter-spacing:0px;word-spacing:0px;fill:#000000;fill-opacity:1;stroke:none"
     x="917.20361"
     y="176.98923"
     id="text982"><tspan
       sodipodi:role="line"
       id="tspan980"
       x="917.20361"
       y="176.98923"
       style="font-style:normal;font-variant:normal;font-weight:normal;font-stretch:normal;font-size:37.33333206px;font-family:sans-serif;-inkscape-font-specification:'sans-serif, Normal';font-variant-ligatures:normal;font-variant-caps:normal;font-variant-numeric:normal;font-feature-settings:normal;text-align:start;writing-mode:lr-tb;text-anchor:start">Knative Event Source</tspan></text>
  <text
     xml:space="preserve"
     style="font-style:normal;font-variant:normal;font-weight:normal;font-stretch:normal;font-size:32px;line-height:1.25;font-family:'Roboto Mono';-inkscape-font-specification:'Roboto Mono, Normal';letter-spacing:0px;word-spacing:0px;fill:#000000;fill-opacity:1;stroke:none;text-anchor:start;text-align:start;writing-mode:lr;font-variant-ligatures:normal;font-variant-caps:normal;font-variant-numeric:normal;font-feature-settings:normal;"
     x="65.368095"
     y="362.74246"
     id="text853"><tspan
       sodipodi:role="line"
       id="tspan851"
       x="65.368095"
       y="362.74246">kamel run routes.groovy</tspan></text>
</svg>
