<?xml version="1.0" encoding="UTF-8" standalone="no"?>
<svg
   xmlns:dc="http://purl.org/dc/elements/1.1/"
   xmlns:cc="http://creativecommons.org/ns#"
   xmlns:rdf="http://www.w3.org/1999/02/22-rdf-syntax-ns#"
   xmlns:svg="http://www.w3.org/2000/svg"
   xmlns="http://www.w3.org/2000/svg"
   xmlns:sodipodi="http://sodipodi.sourceforge.net/DTD/sodipodi-0.dtd"
   xmlns:inkscape="http://www.inkscape.org/namespaces/inkscape"
   version="1.1"
   viewBox="0 0 430.54801 414.81543"
   stroke-miterlimit="10"
   id="svg180"
   sodipodi:docname="knative-serving.svg"
   width="430.548"
   height="414.81543"
   style="fill:none;stroke:none;stroke-linecap:square;stroke-miterlimit:10"
   inkscape:version="0.92.4 (unknown)">
  <metadata
     id="metadata186">
    <rdf:RDF>
      <cc:Work
         rdf:about="">
        <dc:format>image/svg+xml</dc:format>
        <dc:type
           rdf:resource="http://purl.org/dc/dcmitype/StillImage" />
        <dc:title></dc:title>
      </cc:Work>
    </rdf:RDF>
  </metadata>
  <defs
     id="defs184">
    <defs
       id="defs57">
      <filter
         filterUnits="userSpaceOnUse"
         id="shadowFilter-g5eaaacc56d_0_1401.2">
        <feGaussianBlur
           id="feGaussianBlur44"
           result="blur"
           stdDeviation="9.5"
           in="SourceAlpha" />
        <feComponentTransfer
           id="feComponentTransfer54"
           in="blur"
           style="color-interpolation-filters:sRGB">
          <feFuncR
             id="feFuncR46"
             intercept="0.7176471"
             slope="0"
             type="linear" />
          <feFuncG
             id="feFuncG48"
             intercept="0.7176471"
             slope="0"
             type="linear" />
          <feFuncB
             id="feFuncB50"
             intercept="0.7176471"
             slope="0"
             type="linear" />
          <feFuncA
             id="feFuncA52"
             intercept="0"
             slope="0.5"
             type="linear" />
        </feComponentTransfer>
      </filter>
    </defs>
    <defs
       id="defs81">
      <filter
         filterUnits="userSpaceOnUse"
         id="shadowFilter-g5eaaacc56d_0_1401.3">
        <feGaussianBlur
           id="feGaussianBlur68"
           result="blur"
           stdDeviation="9.5"
           in="SourceAlpha" />
        <feComponentTransfer
           id="feComponentTransfer78"
           in="blur"
           style="color-interpolation-filters:sRGB">
          <feFuncR
             id="feFuncR70"
             intercept="0.7176471"
             slope="0"
             type="linear" />
          <feFuncG
             id="feFuncG72"
             intercept="0.7176471"
             slope="0"
             type="linear" />
          <feFuncB
             id="feFuncB74"
             intercept="0.7176471"
             slope="0"
             type="linear" />
          <feFuncA
             id="feFuncA76"
             intercept="0"
             slope="0.5"
             type="linear" />
        </feComponentTransfer>
      </filter>
    </defs>
    <clipPath
       id="g5eaaacc56d_0_1401.1">
      <path
         d="M 0,0.23606557 H 306 V 71.771086 H 0 Z"
         id="path17"
         inkscape:connector-curvature="0"
         style="clip-rule:evenodd" />
    </clipPath>
  </defs>
  <sodipodi:namedview
     pagecolor="#ffffff"
     bordercolor="#666666"
     borderopacity="1"
     objecttolerance="10"
     gridtolerance="10"
     guidetolerance="10"
     inkscape:pageopacity="0"
     inkscape:pageshadow="2"
     inkscape:window-width="1830"
     inkscape:window-height="1051"
     id="namedview182"
     showgrid="false"
     inkscape:pagecheckerboard="true"
     fit-margin-top="0"
     fit-margin-left="0"
     fit-margin-right="0"
     fit-margin-bottom="0"
     inkscape:zoom="0.59662135"
     inkscape:cx="122.37578"
     inkscape:cy="164.29721"
     inkscape:window-x="82"
     inkscape:window-y="0"
     inkscape:window-maximized="1"
     inkscape:current-layer="svg180" />
  <clipPath
     id="g5eaaacc56d_0_1401.0">
    <path
       d="M 0,0 H 1536 V 864 H 0 Z"
       id="path2"
       inkscape:connector-curvature="0"
       style="clip-rule:nonzero" />
  </clipPath>
  <path
     style="fill:#000000;fill-opacity:0;fill-rule:evenodd"
     inkscape:connector-curvature="0"
     id="path32"
     d="M 430.548,206.48557 V 402.70606" />
  <path
     d="M 123.88933,113.34882 139.96547,34.90903 205.0551,0 l 65.08966,34.90903 16.07611,78.43979 -45.04401,62.90408 h -72.24353 z"
     id="path59"
     inkscape:connector-curvature="0"
     style="fill:#1155cc;fill-rule:evenodd" />
  <path
     d="m 160.47676,99.441 q -2.9375,0 -5.07813,-1.48438 -2.125,-1.5 -3.01562,-4.07812 l 3.40625,-1.25 q 0.67187,1.5 1.92187,2.40625 1.26563,0.90625 2.89063,0.90625 1.6875,0 2.6875,-0.76563 1,-0.76562 1,-2.20312 0,-0.59375 -0.28125,-1.09375 -0.28125,-0.5 -0.64063,-0.84375 -0.34375,-0.34375 -1.04687,-0.67188 -0.70313,-0.34375 -1.20313,-0.53125 -0.48437,-0.20312 -1.4375,-0.51562 -1.21875,-0.42188 -1.89062,-0.67188 -0.65625,-0.25 -1.6875,-0.8125 -1.01563,-0.5625 -1.5625,-1.14062 -0.53125,-0.59375 -0.95313,-1.5625 -0.40625,-0.96875 -0.40625,-2.125 0,-2.45313 1.90625,-4.10938 1.90625,-1.65625 5.15625,-1.65625 2.6875,0 4.46875,1.28125 1.78125,1.26563 2.39063,3.3125 l -3.3125,1.10938 q -0.98438,-2.20313 -3.79688,-2.20313 -1.4375,0 -2.25,0.59375 -0.8125,0.59375 -0.8125,1.70313 0,0.73437 0.625,1.32812 0.625,0.57813 1.34375,0.875 0.71875,0.28125 2.14063,0.73438 0.90625,0.34375 1.375,0.51562 0.48437,0.15625 1.34375,0.5625 0.85937,0.39063 1.34375,0.71875 0.5,0.32813 1.125,0.875 0.625,0.54688 0.96875,1.15625 0.34375,0.59375 0.57812,1.40625 0.25,0.8125 0.25,1.76563 0,3 -2.14062,4.73437 -2.125,1.73438 -5.40625,1.73438 z m 17.8439,0 q -3.34375,0 -5.29687,-2.1875 -1.9375,-2.20313 -1.9375,-6.03125 0,-3.8125 1.95312,-6 1.96875,-2.1875 5.28125,-2.1875 3,0 4.92188,1.875 1.92187,1.85937 1.92187,5.48437 0,1.25 -0.125,2.20313 h -10.39062 q 0.0937,1.65625 1.14062,2.67187 1.0625,1 2.53125,1 2.09375,0 3.3125,-1.625 l 2.26563,2.34375 q -2.04688,2.45313 -5.57813,2.45313 z m -3.64062,-9.8125 h 6.92187 q -0.125,-1.6875 -1.04687,-2.5625 -0.92188,-0.875 -2.23438,-0.875 -1.53125,0 -2.53125,0.84375 -0.98437,0.84375 -1.10937,2.59375 z m 14.15545,9.4375 V 83.39412 h 3.59375 v 1.625 q 0.95313,-1.98437 3.21875,-1.98437 1.65625,0 2.90625,1.07812 l -0.51562,3.26563 q -1.17188,-0.8125 -2.67188,-0.8125 -1.21875,0 -2.07812,0.85937 -0.85938,0.84375 -0.85938,2.875 V 99.066 Z m 16.80292,0 -5.73437,-15.67188 h 3.65625 l 3.45312,9.78125 q 0.375,1.23438 0.4375,1.42188 0.17188,-0.79688 0.42188,-1.42188 l 3.40625,-9.78125 h 3.64062 L 209.20091,99.066 Z m 15.69507,-18.4375 q -0.60938,0.625 -1.5,0.625 -0.89063,0 -1.51563,-0.625 -0.625,-0.625 -0.625,-1.51563 0,-0.89062 0.625,-1.5 0.625,-0.625 1.51563,-0.625 0.89062,0 1.5,0.625 0.60937,0.60938 0.60937,1.5 0,0.89063 -0.60937,1.51563 z m -3.3125,18.4375 V 83.39412 h 3.59375 V 99.066 Z m 17.90277,0 v -8.98438 q 0,-3.64062 -2.90625,-3.64062 -3.1875,0 -3.1875,3.57812 V 99.066 h -3.59375 V 83.39412 H 229.83 v 1.48438 q 1.53125,-1.84375 4.14063,-1.84375 2.45312,0 4,1.53125 1.54687,1.53125 1.54687,4.875 v 9.625 z m 13.48499,6.125 -1.89063,-2.875 q 3.21875,-0.21875 4.45313,-1 1.25,-0.78125 1.25,-2.40625 v -0.89063 q -1.29688,1.42188 -3.5625,1.42188 -2.875,0 -4.67188,-2.125 -1.79687,-2.14063 -1.79687,-6.09375 0,-3.8125 1.79687,-6 1.79688,-2.1875 4.70313,-2.1875 2.20312,0 3.53125,1.3125 v -0.95313 h 3.57812 V 97.5035 q 0,3.89062 -1.67187,5.64062 -1.67188,1.75 -5.71875,2.04688 z m 0.85937,-9.1875 q 1.9375,0 2.95313,-1.53125 v -6.5 q -1.07813,-1.53125 -2.95313,-1.53125 -1.6875,0 -2.59375,1.23437 -0.89062,1.21875 -0.89062,3.54688 0,2.20312 0.90625,3.5 0.92187,1.28125 2.57812,1.28125 z"
     id="path61"
     inkscape:connector-curvature="0"
     style="fill:#ffffff;fill-rule:nonzero" />
  <path
     style="fill:#d9ead3;fill-rule:evenodd"
     inkscape:connector-curvature="0"
     id="path110"
     d="m 61.47453,296.93525 v 0 c 0,-9.43109 7.64539,-17.07648 17.07645,-17.07648 h 233.37466 c 4.52893,0 8.87237,1.79914 12.07483,5.00159 3.20251,3.20245 5.00158,7.5459 5.00158,12.07489 v 68.30377 c 0,9.43103 -7.64538,17.07642 -17.07641,17.07642 H 78.55098 v 0 c -9.43106,0 -17.07645,-7.64539 -17.07645,-17.07642 z" />
  <path
     style="fill-rule:evenodd;stroke:#595959;stroke-width:1;stroke-linecap:butt;stroke-linejoin:round"
     inkscape:connector-curvature="0"
     id="path112"
     d="m 61.47453,296.93525 v 0 c 0,-9.43109 7.64539,-17.07648 17.07645,-17.07648 h 233.37466 c 4.52893,0 8.87237,1.79914 12.07483,5.00159 3.20251,3.20245 5.00158,7.5459 5.00158,12.07489 v 68.30377 c 0,9.43103 -7.64538,17.07642 -17.07641,17.07642 H 78.55098 v 0 c -9.43106,0 -17.07645,-7.64539 -17.07645,-17.07642 z" />
  <path
     style="fill:#000000;fill-rule:nonzero"
     inkscape:connector-curvature="0"
     id="path114"
     d="m 102.13356,310.89094 -0.54688,0.17187 0.32813,0.125 4.76562,2.03125 -0.28125,1.57813 -6.42187,-3.20313 0.21875,-1.23437 7.53125,-3.20313 -0.26563,1.70313 z m 10.1701,0 -0.54687,0.17187 0.32812,0.125 4.76563,2.03125 -0.28125,1.57813 -6.42188,-3.20313 0.21875,-1.23437 7.53125,-3.20313 -0.26562,1.70313 z m 11.17014,4.51562 q 0.40625,0.0156 0.8125,-0.10937 0.40625,-0.125 0.73438,-0.35938 0.34375,-0.23437 0.57812,-0.5625 0.23438,-0.34375 0.32813,-0.75 l 1.45312,-0.0156 q -0.0781,0.70312 -0.46875,1.28125 -0.375,0.5625 -0.9375,0.96875 -0.54687,0.40625 -1.23437,0.625 -0.67188,0.20312 -1.34375,0.1875 -0.95313,-0.0156 -1.64063,-0.40625 -0.67187,-0.39063 -1.09375,-1.01563 -0.40625,-0.64062 -0.5625,-1.45312 -0.15625,-0.8125 -0.0625,-1.67188 l 0.0312,-0.35937 q 0.0781,-0.625 0.26563,-1.20313 0.20312,-0.57812 0.5,-1.09375 0.3125,-0.53125 0.70312,-0.95312 0.40625,-0.42188 0.90625,-0.71875 0.5,-0.3125 1.07813,-0.46875 0.59375,-0.17188 1.25,-0.15625 0.70312,0.0156 1.29687,0.28125 0.60938,0.25 1.03125,0.6875 0.4375,0.4375 0.65625,1.04687 0.23438,0.59375 0.20313,1.3125 h -1.4375 q 0.0156,-0.4375 -0.10938,-0.79687 -0.10937,-0.35938 -0.35937,-0.625 -0.23438,-0.28125 -0.57813,-0.4375 -0.34375,-0.17188 -0.78125,-0.1875 -0.70312,-0.0312 -1.25,0.26562 -0.53125,0.28125 -0.92187,0.75 -0.375,0.46875 -0.60938,1.07813 -0.23437,0.59375 -0.3125,1.21875 l -0.0469,0.35937 q -0.0312,0.35938 -0.0312,0.75 0,0.375 0.0625,0.73438 0.0625,0.35937 0.1875,0.6875 0.14062,0.3125 0.35937,0.5625 0.23438,0.23437 0.5625,0.39062 0.32813,0.15625 0.78125,0.15625 z m 12.24823,-0.17187 q -0.53125,0.67187 -1.23437,1.0625 -0.70313,0.39062 -1.59375,0.375 -0.82813,-0.0156 -1.34375,-0.35938 -0.51563,-0.34375 -0.79688,-0.89062 -0.28125,-0.5625 -0.35937,-1.25 -0.0781,-0.6875 0,-1.39063 l 0.92187,-5.4375 h 1.53125 l -0.90625,5.46875 q -0.0469,0.42188 -0.0625,0.875 -0.0156,0.4375 0.10938,0.79688 0.125,0.35937 0.40625,0.60937 0.29687,0.23438 0.82812,0.25 0.84375,0.0156 1.5,-0.35937 0.65625,-0.375 1.09375,-1.0625 l 1.14063,-6.57813 h 1.54687 l -1.59375,9.15625 h -1.375 z m 10.49826,-1.21875 q 0.0469,-0.39063 -0.14062,-0.64063 -0.17188,-0.26562 -0.46875,-0.42187 -0.28125,-0.15625 -0.625,-0.25 -0.34375,-0.10938 -0.625,-0.17188 -0.51563,-0.125 -1.0625,-0.3125 -0.54688,-0.1875 -1.01563,-0.48437 -0.45312,-0.29688 -0.73437,-0.73438 -0.28125,-0.45312 -0.25,-1.07812 0.0156,-0.46875 0.1875,-0.84375 0.17187,-0.39063 0.45312,-0.70313 0.28125,-0.3125 0.64063,-0.53125 0.375,-0.23437 0.78125,-0.375 0.40625,-0.15625 0.82812,-0.21875 0.4375,-0.0781 0.85938,-0.0781 0.64062,0.0156 1.23437,0.20312 0.59375,0.1875 1.04688,0.54688 0.45312,0.35937 0.70312,0.89062 0.26563,0.53125 0.26563,1.23438 l -1.51563,-0.0156 q 0,-0.375 -0.15625,-0.65625 -0.14062,-0.29687 -0.39062,-0.48437 -0.25,-0.20313 -0.57813,-0.29688 -0.3125,-0.10937 -0.67187,-0.125 -0.34375,0 -0.70313,0.0781 -0.35937,0.0625 -0.67187,0.23437 -0.3125,0.15625 -0.53125,0.4375 -0.21875,0.26563 -0.26563,0.64063 -0.0625,0.375 0.10938,0.625 0.1875,0.23437 0.45312,0.39062 0.28125,0.14063 0.60938,0.21875 0.34375,0.0781 0.625,0.14063 0.34375,0.0937 0.71875,0.20312 0.375,0.10938 0.71875,0.26563 0.35937,0.14062 0.67187,0.34375 0.32813,0.20312 0.54688,0.46875 0.23437,0.26562 0.35937,0.60937 0.14063,0.34375 0.10938,0.78125 -0.0312,0.73438 -0.40625,1.26563 -0.35938,0.53125 -0.92188,0.875 -0.5625,0.32812 -1.25,0.48437 -0.67187,0.15625 -1.3125,0.14063 -0.67187,-0.0156 -1.3125,-0.20313 -0.625,-0.20312 -1.10937,-0.57812 -0.48438,-0.375 -0.78125,-0.92188 -0.29688,-0.5625 -0.28125,-1.29687 l 1.53125,0.0156 q 0,0.4375 0.15625,0.76563 0.17187,0.3125 0.4375,0.53125 0.26562,0.20312 0.625,0.3125 0.375,0.0937 0.79687,0.0937 0.32813,0.0156 0.70313,-0.0469 0.39062,-0.0781 0.71875,-0.23437 0.34375,-0.15625 0.57812,-0.42188 0.25,-0.28125 0.3125,-0.67187 z m 9.37323,-8.89063 -0.39062,2.21875 h 3.39062 l -0.21875,1.21875 h -3.375 l -0.82812,4.96875 q -0.0469,0.375 0,0.70313 0.0469,0.3125 0.1875,0.5625 0.14062,0.23437 0.40625,0.375 0.26562,0.14062 0.67187,0.15625 0.46875,0.0156 0.92188,-0.0625 0.46875,-0.0937 0.92187,-0.20313 l 0.15625,1.14063 q -0.54687,0.28125 -1.20312,0.375 -0.64063,0.0937 -1.23438,0.0781 -0.6875,0 -1.17187,-0.25 -0.46875,-0.26562 -0.76563,-0.6875 -0.28125,-0.4375 -0.39062,-1 -0.0937,-0.5625 -0.0312,-1.1875 l 0.82812,-4.96875 h -2.34375 l 0.21875,-1.21875 h 2.32813 l 0.375,-2.21875 z m 4.98264,6.76563 q 0.0625,-0.60938 0.25,-1.20313 0.20312,-0.59375 0.5,-1.125 0.29687,-0.53125 0.6875,-0.96875 0.40625,-0.45312 0.90625,-0.76562 0.5,-0.32813 1.07812,-0.5 0.59375,-0.17188 1.26563,-0.15625 0.96875,0.0312 1.64062,0.4375 0.6875,0.39062 1.09375,1.04687 0.42188,0.64063 0.57813,1.46875 0.15625,0.82813 0.0625,1.6875 l -0.0156,0.1875 q -0.125,0.92188 -0.5,1.78125 -0.375,0.85938 -0.98437,1.51563 -0.59375,0.64062 -1.40625,1.01562 -0.8125,0.375 -1.8125,0.35938 -0.95313,-0.0312 -1.64063,-0.42188 -0.67187,-0.39062 -1.09375,-1.03125 -0.40625,-0.64062 -0.57812,-1.45312 -0.15625,-0.8125 -0.0625,-1.6875 z m 1.5,0.1875 q -0.0469,0.35937 -0.0469,0.75 0.0156,0.375 0.0781,0.73437 0.0625,0.35938 0.1875,0.70313 0.14062,0.32812 0.35937,0.57812 0.23438,0.25 0.5625,0.40625 0.32813,0.14063 0.76563,0.15625 0.70312,0.0312 1.25,-0.26562 0.54687,-0.3125 0.92187,-0.79688 0.39063,-0.5 0.60938,-1.10937 0.23437,-0.625 0.32812,-1.23438 l 0.0156,-0.17187 q 0.0625,-0.54688 0.0156,-1.125 -0.0312,-0.57813 -0.25,-1.07813 -0.20312,-0.5 -0.60937,-0.8125 -0.40625,-0.32812 -1.0625,-0.35937 -0.71875,-0.0312 -1.26563,0.28125 -0.53125,0.3125 -0.92187,0.8125 -0.375,0.5 -0.60938,1.125 -0.21875,0.60937 -0.29687,1.21875 z m 10.56073,-4.73438 -0.17188,0.85938 q 0.35938,-0.48438 0.8125,-0.75 0.45313,-0.28125 1.0625,-0.28125 0.26563,0 0.5,0.0625 0.23438,0.0469 0.4375,0.17187 0.20313,0.10938 0.34375,0.29688 0.15625,0.1875 0.23438,0.45312 0.34375,-0.45312 0.79687,-0.71875 0.45313,-0.26562 1.04688,-0.26562 0.53125,0.0156 0.875,0.23437 0.35937,0.20313 0.5625,0.5625 0.20312,0.34375 0.26562,0.79688 0.0625,0.4375 0.0156,0.89062 l -1.14063,6.84375 h -1.45312 l 1.15625,-6.85937 q 0.0156,-0.23438 -0.0156,-0.4375 -0.0156,-0.21875 -0.10937,-0.375 -0.0781,-0.15625 -0.26563,-0.23438 -0.17187,-0.0937 -0.42187,-0.0937 -0.46875,0 -0.8125,0.25 -0.32813,0.25 -0.45313,0.6875 l -1.1875,7.0625 h -1.46875 l 1.17188,-6.875 q 0.0156,-0.21875 -0.0156,-0.42187 -0.0156,-0.20313 -0.10937,-0.34375 -0.0781,-0.15625 -0.23438,-0.25 -0.15625,-0.0937 -0.42187,-0.10938 -0.42188,0 -0.71875,0.1875 -0.29688,0.17188 -0.51563,0.51563 l -1.25,7.29687 h -1.46875 l 1.59375,-9.15625 z m 15.3576,4.40625 h -6.29687 l 0.23437,-1.28125 h 6.28125 z m 10.03797,-4.59375 q 0.40625,0.0156 0.8125,0.0625 0.40625,0.0469 0.79687,0.1875 l -0.39062,1.51563 q -0.40625,-0.0937 -0.8125,-0.14063 -0.40625,-0.0625 -0.8125,-0.0781 -1.07813,0 -1.84375,0.5 -0.75,0.5 -1.26563,1.42187 l -1.01562,5.875 h -1.53125 l 1.59375,-9.15625 h 1.45312 l -0.25,1.45313 q 0.3125,-0.375 0.67188,-0.67188 0.375,-0.3125 0.78125,-0.51562 0.40625,-0.21875 0.85937,-0.32813 0.45313,-0.125 0.95313,-0.125 z m 6.85766,9.51563 q -0.92187,-0.0156 -1.64062,-0.375 -0.70313,-0.375 -1.15625,-0.96875 -0.45313,-0.60938 -0.65625,-1.39063 -0.20313,-0.78125 -0.125,-1.67187 l 0.0469,-0.35938 q 0.0625,-0.59375 0.25,-1.1875 0.20313,-0.59375 0.51563,-1.125 0.3125,-0.53125 0.71875,-0.96875 0.40625,-0.45312 0.90625,-0.78125 0.51562,-0.32812 1.09375,-0.5 0.59375,-0.1875 1.25,-0.17187 0.9375,0.0312 1.59375,0.42187 0.65625,0.375 1.03125,1 0.39062,0.625 0.51562,1.4375 0.125,0.79688 0.0156,1.64063 l -0.10938,0.70312 h -6.3125 q -0.0625,0.54688 0.0312,1.09375 0.10938,0.53125 0.375,0.95313 0.28125,0.42187 0.73438,0.6875 0.45312,0.25 1.0625,0.28125 0.79687,0.0156 1.46875,-0.3125 0.67187,-0.34375 1.21875,-0.90625 l 0.875,0.75 q -0.3125,0.4375 -0.73438,0.78125 -0.42187,0.32812 -0.90625,0.54687 -0.46875,0.21875 -1,0.3125 -0.51562,0.10938 -1.0625,0.10938 z m 1.125,-8.20313 q -0.59375,-0.0312 -1.07812,0.20313 -0.46875,0.21875 -0.84375,0.59375 -0.35938,0.35937 -0.625,0.84375 -0.26563,0.48437 -0.45313,0.96875 l 4.78125,0.0312 0.0312,-0.15625 q 0.0781,-0.46875 -0.0156,-0.90625 -0.0781,-0.4375 -0.32813,-0.78125 -0.23437,-0.35938 -0.60937,-0.5625 -0.35938,-0.21875 -0.85938,-0.23438 z m 11.40448,5.54688 q 0.0469,-0.39063 -0.14062,-0.64063 -0.17188,-0.26562 -0.46875,-0.42187 -0.28125,-0.15625 -0.625,-0.25 -0.34375,-0.10938 -0.625,-0.17188 -0.51563,-0.125 -1.0625,-0.3125 -0.54688,-0.1875 -1.01563,-0.48437 -0.45312,-0.29688 -0.73437,-0.73438 -0.28125,-0.45312 -0.25,-1.07812 0.0156,-0.46875 0.1875,-0.84375 0.17187,-0.39063 0.45312,-0.70313 0.28125,-0.3125 0.64063,-0.53125 0.375,-0.23437 0.78125,-0.375 0.40625,-0.15625 0.82812,-0.21875 0.4375,-0.0781 0.85938,-0.0781 0.64062,0.0156 1.23437,0.20312 0.59375,0.1875 1.04688,0.54688 0.45312,0.35937 0.70312,0.89062 0.26563,0.53125 0.26563,1.23438 l -1.51563,-0.0156 q 0,-0.375 -0.15625,-0.65625 -0.14062,-0.29687 -0.39062,-0.48437 -0.25,-0.20313 -0.57813,-0.29688 -0.3125,-0.10937 -0.67187,-0.125 -0.34375,0 -0.70313,0.0781 -0.35937,0.0625 -0.67187,0.23437 -0.3125,0.15625 -0.53125,0.4375 -0.21875,0.26563 -0.26563,0.64063 -0.0625,0.375 0.10938,0.625 0.1875,0.23437 0.45312,0.39062 0.28125,0.14063 0.60938,0.21875 0.34375,0.0781 0.625,0.14063 0.34375,0.0937 0.71875,0.20312 0.375,0.10938 0.71875,0.26563 0.35937,0.14062 0.67187,0.34375 0.32813,0.20312 0.54688,0.46875 0.23437,0.26562 0.35937,0.60937 0.14063,0.34375 0.10938,0.78125 -0.0312,0.73438 -0.40625,1.26563 -0.35938,0.53125 -0.92188,0.875 -0.5625,0.32812 -1.25,0.48437 -0.67187,0.15625 -1.3125,0.14063 -0.67187,-0.0156 -1.3125,-0.20313 -0.625,-0.20312 -1.10937,-0.57812 -0.48438,-0.375 -0.78125,-0.92188 -0.29688,-0.5625 -0.28125,-1.29687 l 1.53125,0.0156 q 0,0.4375 0.15625,0.76563 0.17187,0.3125 0.4375,0.53125 0.26562,0.20312 0.625,0.3125 0.375,0.0937 0.79687,0.0937 0.32813,0.0156 0.70313,-0.0469 0.39062,-0.0781 0.71875,-0.23437 0.34375,-0.15625 0.57812,-0.42188 0.25,-0.28125 0.3125,-0.67187 z m 4.18573,-2.125 q 0.0625,-0.60938 0.25,-1.20313 0.20313,-0.59375 0.5,-1.125 0.29688,-0.53125 0.6875,-0.96875 0.40625,-0.45312 0.90625,-0.76562 0.5,-0.32813 1.07813,-0.5 0.59375,-0.17188 1.26562,-0.15625 0.96875,0.0312 1.64063,0.4375 0.6875,0.39062 1.09375,1.04687 0.42187,0.64063 0.57812,1.46875 0.15625,0.82813 0.0625,1.6875 l -0.0156,0.1875 q -0.125,0.92188 -0.5,1.78125 -0.375,0.85938 -0.98438,1.51563 -0.59375,0.64062 -1.40625,1.01562 -0.8125,0.375 -1.8125,0.35938 -0.95312,-0.0312 -1.64062,-0.42188 -0.67188,-0.39062 -1.09375,-1.03125 -0.40625,-0.64062 -0.57813,-1.45312 -0.15625,-0.8125 -0.0625,-1.6875 z m 1.5,0.1875 q -0.0469,0.35937 -0.0469,0.75 0.0156,0.375 0.0781,0.73437 0.0625,0.35938 0.1875,0.70313 0.14063,0.32812 0.35938,0.57812 0.23437,0.25 0.5625,0.40625 0.32812,0.14063 0.76562,0.15625 0.70313,0.0312 1.25,-0.26562 0.54688,-0.3125 0.92188,-0.79688 0.39062,-0.5 0.60937,-1.10937 0.23438,-0.625 0.32813,-1.23438 l 0.0156,-0.17187 q 0.0625,-0.54688 0.0156,-1.125 -0.0312,-0.57813 -0.25,-1.07813 -0.20313,-0.5 -0.60938,-0.8125 -0.40625,-0.32812 -1.0625,-0.35937 -0.71875,-0.0312 -1.26562,0.28125 -0.53125,0.3125 -0.92188,0.8125 -0.375,0.5 -0.60937,1.125 -0.21875,0.60937 -0.29688,1.21875 z m 14.32636,3.15625 q -0.53125,0.67187 -1.23438,1.0625 -0.70312,0.39062 -1.59375,0.375 -0.82812,-0.0156 -1.34375,-0.35938 -0.51562,-0.34375 -0.79687,-0.89062 -0.28125,-0.5625 -0.35938,-1.25 -0.0781,-0.6875 0,-1.39063 l 0.92188,-5.4375 h 1.53125 l -0.90625,5.46875 q -0.0469,0.42188 -0.0625,0.875 -0.0156,0.4375 0.10937,0.79688 0.125,0.35937 0.40625,0.60937 0.29688,0.23438 0.82813,0.25 0.84375,0.0156 1.5,-0.35937 0.65625,-0.375 1.09375,-1.0625 l 1.14062,-6.57813 h 1.54688 l -1.59375,9.15625 h -1.375 z m 11.45141,-8.07813 q 0.40625,0.0156 0.8125,0.0625 0.40625,0.0469 0.79688,0.1875 l -0.39063,1.51563 q -0.40625,-0.0937 -0.8125,-0.14063 -0.40625,-0.0625 -0.8125,-0.0781 -1.07812,0 -1.84375,0.5 -0.75,0.5 -1.26562,1.42187 l -1.01563,5.875 h -1.53125 l 1.59375,-9.15625 h 1.45313 l -0.25,1.45313 q 0.3125,-0.375 0.67187,-0.67188 0.375,-0.3125 0.78125,-0.51562 0.40625,-0.21875 0.85938,-0.32813 0.45312,-0.125 0.95312,-0.125 z m 6.81073,8.25 q 0.40625,0.0156 0.8125,-0.10937 0.40625,-0.125 0.73438,-0.35938 0.34375,-0.23437 0.57812,-0.5625 0.23438,-0.34375 0.32813,-0.75 l 1.45312,-0.0156 q -0.0781,0.70312 -0.46875,1.28125 -0.375,0.5625 -0.9375,0.96875 -0.54687,0.40625 -1.23437,0.625 -0.67188,0.20312 -1.34375,0.1875 -0.95313,-0.0156 -1.64063,-0.40625 -0.67187,-0.39063 -1.09375,-1.01563 -0.40625,-0.64062 -0.5625,-1.45312 -0.15625,-0.8125 -0.0625,-1.67188 l 0.0312,-0.35937 q 0.0781,-0.625 0.26563,-1.20313 0.20312,-0.57812 0.5,-1.09375 0.3125,-0.53125 0.70312,-0.95312 0.40625,-0.42188 0.90625,-0.71875 0.5,-0.3125 1.07813,-0.46875 0.59375,-0.17188 1.25,-0.15625 0.70312,0.0156 1.29687,0.28125 0.60938,0.25 1.03125,0.6875 0.4375,0.4375 0.65625,1.04687 0.23438,0.59375 0.20313,1.3125 h -1.4375 q 0.0156,-0.4375 -0.10938,-0.79687 -0.10937,-0.35938 -0.35937,-0.625 -0.23438,-0.28125 -0.57813,-0.4375 -0.34375,-0.17188 -0.78125,-0.1875 -0.70312,-0.0312 -1.25,0.26562 -0.53125,0.28125 -0.92187,0.75 -0.375,0.46875 -0.60938,1.07813 -0.23437,0.59375 -0.3125,1.21875 l -0.0469,0.35937 q -0.0312,0.35938 -0.0312,0.75 0,0.375 0.0625,0.73438 0.0625,0.35937 0.1875,0.6875 0.14062,0.3125 0.35937,0.5625 0.23438,0.23437 0.5625,0.39062 0.32813,0.15625 0.78125,0.15625 z m 10.21698,1.26563 q -0.92187,-0.0156 -1.64062,-0.375 -0.70313,-0.375 -1.15625,-0.96875 -0.45313,-0.60938 -0.65625,-1.39063 -0.20313,-0.78125 -0.125,-1.67187 l 0.0469,-0.35938 q 0.0625,-0.59375 0.25,-1.1875 0.20313,-0.59375 0.51563,-1.125 0.3125,-0.53125 0.71875,-0.96875 0.40625,-0.45312 0.90625,-0.78125 0.51562,-0.32812 1.09375,-0.5 0.59375,-0.1875 1.25,-0.17187 0.9375,0.0312 1.59375,0.42187 0.65625,0.375 1.03125,1 0.39062,0.625 0.51562,1.4375 0.125,0.79688 0.0156,1.64063 l -0.10938,0.70312 h -6.3125 q -0.0625,0.54688 0.0312,1.09375 0.10938,0.53125 0.375,0.95313 0.28125,0.42187 0.73438,0.6875 0.45312,0.25 1.0625,0.28125 0.79687,0.0156 1.46875,-0.3125 0.67187,-0.34375 1.21875,-0.90625 l 0.875,0.75 q -0.3125,0.4375 -0.73438,0.78125 -0.42187,0.32812 -0.90625,0.54687 -0.46875,0.21875 -1,0.3125 -0.51562,0.10938 -1.0625,0.10938 z m 1.125,-8.20313 q -0.59375,-0.0312 -1.07812,0.20313 -0.46875,0.21875 -0.84375,0.59375 -0.35938,0.35937 -0.625,0.84375 -0.26563,0.48437 -0.45313,0.96875 l 4.78125,0.0312 0.0312,-0.15625 q 0.0781,-0.46875 -0.0156,-0.90625 -0.0781,-0.4375 -0.32813,-0.78125 -0.23437,-0.35938 -0.60937,-0.5625 -0.35938,-0.21875 -0.85938,-0.23438 z m 6.38886,0.3125 0.28125,-1.54687 6.70312,3.20312 -0.21875,1.21875 -7.8125,3.21875 0.29688,-1.70312 5.57812,-2.03125 0.59375,-0.17188 -0.375,-0.125 z m 10.17016,0 0.28125,-1.54687 6.70313,3.20312 -0.21875,1.21875 -7.8125,3.21875 0.29687,-1.70312 5.57813,-2.03125 0.59375,-0.17188 -0.375,-0.125 z" />
  <path
     style="fill:#000000;fill-rule:nonzero"
     inkscape:connector-curvature="0"
     id="path116"
     d="m 147.04543,343.75465 q 0,-0.96875 -0.4375,-1.625 -0.4375,-0.65625 -1.125,-1.10937 -0.6875,-0.45313 -1.51563,-0.75 -0.8125,-0.29688 -1.57812,-0.54688 -1.10938,-0.35937 -2.25,-0.85937 -1.125,-0.5 -2.0625,-1.21875 -0.9375,-0.73438 -1.53125,-1.73438 -0.59375,-1 -0.59375,-2.34375 0,-1.34375 0.59375,-2.40625 0.59375,-1.0625 1.54687,-1.78125 0.95313,-0.73437 2.17188,-1.10937 1.21875,-0.39063 2.45312,-0.39063 1.35938,0 2.60938,0.45313 1.26562,0.45312 2.23437,1.26562 0.98438,0.8125 1.5625,1.98438 0.59375,1.15625 0.625,2.59375 h -2.71875 q -0.10937,-0.90625 -0.45312,-1.64063 -0.32813,-0.75 -0.875,-1.26562 -0.53125,-0.53125 -1.28125,-0.82813 -0.75,-0.29687 -1.70313,-0.29687 -0.76562,0 -1.48437,0.21875 -0.71875,0.21875 -1.28125,0.65625 -0.5625,0.42187 -0.90625,1.04687 -0.34375,0.625 -0.34375,1.45313 0.0156,0.90625 0.45312,1.53125 0.45313,0.625 1.125,1.0625 0.6875,0.42187 1.48438,0.70312 0.79687,0.28125 1.5,0.5 0.76562,0.25 1.54687,0.5625 0.79688,0.29688 1.53125,0.70313 0.73438,0.40625 1.35938,0.90625 0.625,0.5 1.09375,1.14062 0.48437,0.625 0.75,1.39063 0.26562,0.76562 0.26562,1.70312 0,1.40625 -0.625,2.45313 -0.625,1.04687 -1.60937,1.73437 -0.98438,0.6875 -2.23438,1.04688 -1.25,0.34375 -2.5,0.34375 -1.39062,0 -2.71875,-0.42188 -1.32812,-0.4375 -2.39062,-1.23437 -1.04688,-0.8125 -1.70313,-1.98438 -0.65625,-1.17187 -0.70312,-2.65625 h 2.70312 q 0.14063,0.96875 0.53125,1.73438 0.40625,0.75 1.03125,1.28125 0.64063,0.51562 1.45313,0.78125 0.82812,0.25 1.79687,0.25 0.78125,0 1.53125,-0.1875 0.75,-0.1875 1.32813,-0.59375 0.59375,-0.42188 0.96875,-1.03125 0.375,-0.625 0.375,-1.48438 z m 13.53726,5.54688 q -1.64062,0 -3.01562,-0.54688 -1.35938,-0.5625 -2.34375,-1.5625 -0.96875,-1 -1.51563,-2.375 -0.53125,-1.375 -0.53125,-3 v -0.59375 q 0,-1.89062 0.59375,-3.35937 0.60938,-1.48438 1.59375,-2.5 1,-1.03125 2.26563,-1.57813 1.26562,-0.54687 2.60937,-0.54687 1.67188,0 2.92188,0.57812 1.25,0.57813 2.07812,1.60938 0.82813,1.01562 1.23438,2.40625 0.42187,1.39062 0.42187,3.01562 v 1.1875 h -11.07812 q 0.0469,1.0625 0.40625,2 0.375,0.92188 1,1.625 0.64062,0.6875 1.53125,1.09375 0.89062,0.39063 1.96875,0.39063 1.40625,0 2.51562,-0.5625 1.10938,-0.57813 1.82813,-1.53125 l 1.625,1.26562 q -0.39063,0.57813 -0.96875,1.125 -0.57813,0.53125 -1.34375,0.95313 -0.75,0.40625 -1.71875,0.65625 -0.95313,0.25 -2.07813,0.25 z m -0.34375,-13.89063 q -0.8125,0 -1.53125,0.29688 -0.70312,0.29687 -1.28125,0.85937 -0.57812,0.5625 -0.96875,1.39063 -0.39062,0.82812 -0.54687,1.89062 h 8.32812 v -0.1875 q -0.0469,-0.78125 -0.29687,-1.53125 -0.25,-0.76562 -0.73438,-1.35937 -0.48437,-0.60938 -1.21875,-0.98438 -0.73437,-0.375 -1.75,-0.375 z m 21.24036,-2.17187 q 0.375,0 0.76562,0.0312 0.40625,0.0156 0.76563,0.0625 0.375,0.0469 0.6875,0.125 0.3125,0.0625 0.5,0.15625 l -0.35938,2.59375 q -0.76562,-0.17188 -1.46875,-0.25 -0.6875,-0.0781 -1.4375,-0.0781 -1.875,0 -3.03125,0.84375 -1.14062,0.84375 -1.6875,2.35938 v 9.9375 h -2.65625 v -15.5 h 2.51563 l 0.125,2.46875 q 0.95312,-1.28125 2.26562,-2.01563 1.32813,-0.73437 3.01563,-0.73437 z m 13.5216,11.96875 0.25,0.96875 0.25,-0.96875 4.34375,-11.6875 h 2.70313 l -6.3125,15.5 h -2.01563 l -6.375,-15.5 h 2.71875 z m 11.94355,-11.6875 h 7.92187 v 13.20312 h 5.04688 v 2.29688 h -12.96875 v -2.29688 h 5.26562 v -10.89062 h -5.26562 z m 4.92187,-4.0625 q 0,-0.65625 0.39063,-1.10938 0.40625,-0.45312 1.20312,-0.45312 0.78125,0 1.1875,0.45312 0.40625,0.45313 0.40625,1.10938 0,0.64062 -0.40625,1.07812 -0.40625,0.42188 -1.1875,0.42188 -0.79687,0 -1.20312,-0.42188 -0.39063,-0.4375 -0.39063,-1.07812 z m 18.86536,17.70312 q 0.71875,0 1.39062,-0.21875 0.6875,-0.23437 1.21875,-0.64062 0.53125,-0.42188 0.84375,-0.96875 0.32813,-0.54688 0.34375,-1.20313 h 2.5 q -0.0156,1.03125 -0.54687,1.98438 -0.51563,0.9375 -1.39063,1.64062 -0.85937,0.70313 -2,1.125 -1.125,0.42188 -2.35937,0.42188 -1.76563,0 -3.07813,-0.625 -1.3125,-0.625 -2.20312,-1.6875 -0.875,-1.07813 -1.32813,-2.46875 -0.4375,-1.40625 -0.4375,-2.95313 v -0.59375 q 0,-1.53125 0.4375,-2.9375 0.45313,-1.40625 1.32813,-2.46875 0.89062,-1.0625 2.20312,-1.6875 1.3125,-0.64062 3.07813,-0.64062 1.375,0 2.53125,0.4375 1.15625,0.4375 1.98437,1.1875 0.84375,0.75 1.3125,1.78125 0.46875,1.03125 0.46875,2.20312 h -2.5 q -0.0156,-0.70312 -0.3125,-1.3125 -0.29687,-0.625 -0.79687,-1.09375 -0.5,-0.48437 -1.20313,-0.75 -0.6875,-0.28125 -1.48437,-0.28125 -1.23438,0 -2.07813,0.5 -0.82812,0.5 -1.34375,1.29688 -0.51562,0.78125 -0.73437,1.78125 -0.21875,0.98437 -0.21875,1.98437 v 0.59375 q 0,1.01563 0.21875,2.01563 0.21875,1 0.71875,1.79687 0.51562,0.79688 1.34375,1.29688 0.84375,0.48437 2.09375,0.48437 z m 17.84973,2.14063 q -1.64063,0 -3.01563,-0.54688 -1.35937,-0.5625 -2.34375,-1.5625 -0.96875,-1 -1.51562,-2.375 -0.53125,-1.375 -0.53125,-3 v -0.59375 q 0,-1.89062 0.59375,-3.35937 0.60937,-1.48438 1.59375,-2.5 1,-1.03125 2.26562,-1.57813 1.26563,-0.54687 2.60938,-0.54687 1.67187,0 2.92187,0.57812 1.25,0.57813 2.07813,1.60938 0.82812,1.01562 1.23437,2.40625 0.42188,1.39062 0.42188,3.01562 v 1.1875 h -11.07813 q 0.0469,1.0625 0.40625,2 0.375,0.92188 1,1.625 0.64063,0.6875 1.53125,1.09375 0.89063,0.39063 1.96875,0.39063 1.40625,0 2.51563,-0.5625 1.10937,-0.57813 1.82812,-1.53125 l 1.625,1.26562 q -0.39062,0.57813 -0.96875,1.125 -0.57812,0.53125 -1.34375,0.95313 -0.75,0.40625 -1.71875,0.65625 -0.95312,0.25 -2.07812,0.25 z m -0.34375,-13.89063 q -0.8125,0 -1.53125,0.29688 -0.70313,0.29687 -1.28125,0.85937 -0.57813,0.5625 -0.96875,1.39063 -0.39063,0.82812 -0.54688,1.89062 h 8.32813 v -0.1875 q -0.0469,-0.78125 -0.29688,-1.53125 -0.25,-0.76562 -0.73437,-1.35937 -0.48438,-0.60938 -1.21875,-0.98438 -0.73438,-0.375 -1.75,-0.375 z" />
  <path
     style="fill:#000000;fill-opacity:0;fill-rule:evenodd"
     inkscape:connector-curvature="0"
     id="path118"
     d="m 0,205.05707 h 410.11023 v 47.77951 H 0 Z" />
  <path
     style="fill:#000000;fill-rule:nonzero"
     inkscape:connector-curvature="0"
     id="path120"
     d="m 28.8655,228.3783 q -2.3125,0 -3.98437,-1.15625 -1.65625,-1.17188 -2.35938,-3.1875 l 2.67188,-0.98438 q 0.51562,1.1875 1.5,1.89063 0.98437,0.70312 2.26562,0.70312 1.3125,0 2.09375,-0.59375 0.78125,-0.59375 0.78125,-1.73437 0,-0.45313 -0.21875,-0.84375 -0.21875,-0.40625 -0.5,-0.65625 -0.26562,-0.26563 -0.82812,-0.53125 -0.54688,-0.26563 -0.9375,-0.42188 -0.375,-0.15625 -1.10938,-0.39062 -0.96875,-0.34375 -1.48437,-0.53125 -0.51563,-0.20313 -1.32813,-0.64063 -0.79687,-0.4375 -1.21875,-0.89062 -0.40625,-0.46875 -0.73437,-1.21875 -0.32813,-0.75 -0.32813,-1.67188 0,-1.92187 1.48438,-3.21875 1.5,-1.29687 4.03125,-1.29687 2.125,0 3.51562,1 1.39063,1 1.85938,2.60937 l -2.57813,0.85938 q -0.78125,-1.73438 -2.98437,-1.73438 -1.125,0 -1.76563,0.46875 -0.64062,0.46875 -0.64062,1.34375 0,0.57813 0.48437,1.03125 0.5,0.45313 1.0625,0.6875 0.57813,0.21875 1.67188,0.57813 0.71875,0.26562 1.09375,0.40625 0.375,0.125 1.04687,0.4375 0.67188,0.3125 1.04688,0.5625 0.39062,0.25 0.875,0.6875 0.5,0.42187 0.76562,0.89062 0.26563,0.46875 0.45313,1.10938 0.1875,0.64062 0.1875,1.375 0,2.35937 -1.67188,3.71875 -1.65625,1.34375 -4.21875,1.34375 z m 13.76996,0 q -2.51563,0 -4,-1.70313 -1.46875,-1.70312 -1.46875,-4.70312 0,-3 1.46875,-4.70313 1.48437,-1.71875 4,-1.71875 3.79687,0 4.875,3.375 l -2.67188,0.89063 q -0.59375,-1.57813 -2.10937,-1.57813 -1.26563,0 -1.98438,1.01563 -0.71875,1 -0.71875,2.71875 0,1.70312 0.70313,2.70312 0.70312,1 1.90625,1 1.70312,0 2.23437,-1.78125 l 2.6875,0.8125 q -1.0625,3.67188 -4.92187,3.67188 z m 14.70932,-0.28125 v -0.98438 q -1.21875,1.26563 -3.26563,1.26563 -1.96875,0 -3.20312,-1.0625 -1.23438,-1.0625 -1.23438,-3.01563 0,-1.98437 1.40625,-3.01562 1.40625,-1.03125 3.39063,-1.03125 1.75,0 2.90625,0.64062 v -0.64062 q 0,-1.1875 -0.59375,-1.70313 -0.57813,-0.53125 -1.79688,-0.53125 -2,0 -3.65625,1.15625 l -0.85937,-2.28125 q 1.98437,-1.34375 4.79687,-1.34375 0.95313,0 1.6875,0.15625 0.73438,0.15625 1.51563,0.60938 0.78125,0.45312 1.20312,1.4375 0.4375,0.98437 0.4375,2.45312 v 7.89063 z m -2.73438,-2.1875 q 1.60938,0 2.73438,-1.17188 v -1.57812 q -1.04688,-0.51563 -2.4375,-0.51563 -1.14063,0 -1.84375,0.42188 -0.6875,0.40625 -0.6875,1.23437 0,0.75 0.57812,1.1875 0.57813,0.42188 1.65625,0.42188 z m 8.95496,2.1875 v -16.01563 l 2.8125,-1.3125 v 17.32813 z m 11.58548,0.28125 q -2.60938,0 -4.14063,-1.70313 -1.51562,-1.71875 -1.51562,-4.71875 0,-2.98437 1.53125,-4.6875 1.53125,-1.71875 4.125,-1.71875 2.35937,0 3.85937,1.46875 1.5,1.45313 1.5,4.28125 0,0.98438 -0.0937,1.73438 h -8.14062 q 0.0781,1.29687 0.90625,2.09375 0.82812,0.78125 1.96875,0.78125 1.64062,0 2.59375,-1.26563 l 1.78125,1.82813 q -1.60938,1.90625 -4.375,1.90625 z m -2.84375,-7.67188 h 5.42187 q -0.0937,-1.32812 -0.82812,-2 -0.71875,-0.6875 -1.75,-0.6875 -1.20313,0 -1.98438,0.65625 -0.76562,0.65625 -0.85937,2.03125 z m 11.07721,1.625 v -2.70312 h 6.09375 v 2.70312 z m 13.06534,6.04688 q -2.85938,0 -2.85938,-3.14063 v -6.95312 h -1.82812 v -2.45313 h 1.82812 v -3.71875 l 2.8125,-1.34375 v 5.0625 h 2.82813 v 2.45313 h -2.82813 v 6.40625 q 0,1.17187 1.03125,1.17187 0.92188,0 1.90625,-0.54687 l -0.32812,2.51562 q -1.0625,0.54688 -2.5625,0.54688 z m 10.47824,0 q -2.59375,0 -4.10938,-1.70313 -1.5,-1.70312 -1.5,-4.70312 0,-3 1.5,-4.70313 1.51563,-1.71875 4.10938,-1.71875 2.59375,0 4.10937,1.71875 1.53125,1.70313 1.53125,4.70313 0,3 -1.51562,4.70312 -1.5,1.70313 -4.125,1.70313 z m 0,-2.6875 q 1.32812,0 2.07812,-0.98438 0.75,-0.98437 0.75,-2.73437 0,-1.75 -0.75,-2.75 -0.75,-1.01563 -2.07812,-1.01563 -1.26563,0 -2.03125,1.03125 -0.76563,1.01563 -0.76563,2.75 0,1.71875 0.75,2.71875 0.75,0.98438 2.04688,0.98438 z m 8.64032,-3.35938 v -2.70312 h 6.09375 v 2.70312 z m 9.21161,5.76563 v -2.25 l 6.4375,-7.51563 h -5.95313 v -2.5 h 9.4375 v 2.15625 l -6.40625,7.60938 h 6.375 v 2.5 z m 18.14682,0.28125 q -2.60938,0 -4.14063,-1.70313 -1.51562,-1.71875 -1.51562,-4.71875 0,-2.98437 1.53125,-4.6875 1.53125,-1.71875 4.125,-1.71875 2.35937,0 3.85937,1.46875 1.5,1.45313 1.5,4.28125 0,0.98438 -0.0937,1.73438 h -8.14062 q 0.0781,1.29687 0.90625,2.09375 0.82812,0.78125 1.96875,0.78125 1.64062,0 2.59375,-1.26563 l 1.78125,1.82813 q -1.60938,1.90625 -4.375,1.90625 z m -2.84375,-7.67188 h 5.42187 q -0.0937,-1.32812 -0.82812,-2 -0.71875,-0.6875 -1.75,-0.6875 -1.20313,0 -1.98438,0.65625 -0.76562,0.65625 -0.85937,2.03125 z m 11.07721,7.39063 v -12.26563 h 2.8125 v 1.28125 q 0.75,-1.5625 2.51562,-1.5625 1.29688,0 2.28125,0.82813 l -0.40625,2.57812 q -0.90625,-0.65625 -2.09375,-0.65625 -0.95312,0 -1.625,0.67188 -0.67187,0.67187 -0.67187,2.26562 v 6.85938 z m 14.6156,0.28125 q -2.59375,0 -4.10938,-1.70313 -1.5,-1.70312 -1.5,-4.70312 0,-3 1.5,-4.70313 1.51563,-1.71875 4.10938,-1.71875 2.59375,0 4.10937,1.71875 1.53125,1.70313 1.53125,4.70313 0,3 -1.51562,4.70312 -1.5,1.70313 -4.125,1.70313 z m 0,-2.6875 q 1.32812,0 2.07812,-0.98438 0.75,-0.98437 0.75,-2.73437 0,-1.75 -0.75,-2.75 -0.75,-1.01563 -2.07812,-1.01563 -1.26563,0 -2.03125,1.03125 -0.76563,1.01563 -0.76563,2.75 0,1.71875 0.75,2.71875 0.75,0.98438 2.04688,0.98438 z m 21.5047,2.40625 v -0.98438 q -1.21875,1.26563 -3.26563,1.26563 -1.96875,0 -3.20312,-1.0625 -1.23438,-1.0625 -1.23438,-3.01563 0,-1.98437 1.40625,-3.01562 1.40625,-1.03125 3.39063,-1.03125 1.75,0 2.90625,0.64062 v -0.64062 q 0,-1.1875 -0.59375,-1.70313 -0.57813,-0.53125 -1.79688,-0.53125 -2,0 -3.65625,1.15625 l -0.85937,-2.28125 q 1.98437,-1.34375 4.79687,-1.34375 0.95313,0 1.6875,0.15625 0.73438,0.15625 1.51563,0.60938 0.78125,0.45312 1.20312,1.4375 0.4375,0.98437 0.4375,2.45312 v 7.89063 z m -2.73438,-2.1875 q 1.60938,0 2.73438,-1.17188 v -1.57812 q -1.04688,-0.51563 -2.4375,-0.51563 -1.14063,0 -1.84375,0.42188 -0.6875,0.40625 -0.6875,1.23437 0,0.75 0.57812,1.1875 0.57813,0.42188 1.65625,0.42188 z m 16.42371,2.1875 v -7.03125 q 0,-2.85938 -2.28125,-2.85938 -2.5,0 -2.5,2.8125 v 7.07813 h -2.8125 v -12.26563 h 2.8125 v 1.15625 q 1.20312,-1.4375 3.23437,-1.4375 1.92188,0 3.125,1.20313 1.21875,1.1875 1.21875,3.8125 v 7.53125 z m 10.76257,0.28125 q -2.34375,0 -3.71875,-1.70313 -1.35937,-1.70312 -1.35937,-4.71875 0,-2.95312 1.40625,-4.67187 1.42187,-1.73438 3.67187,-1.73438 1.78125,0 2.76563,1.14063 v -4.65625 l 2.8125,-1.26563 v 17.32813 h -2.8125 v -0.89063 q -0.90625,1.17188 -2.76563,1.17188 z m 0.4375,-2.6875 q 1.5625,0 2.32813,-1.17188 v -5.14062 q -0.79688,-1.17188 -2.32813,-1.17188 -1.29687,0 -2,0.98438 -0.70312,0.96875 -0.70312,2.76562 0,1.70313 0.71875,2.71875 0.71875,1.01563 1.98437,1.01563 z m 14.61408,2.40625 v -12.26563 h 2.8125 v 1.28125 q 0.75,-1.5625 2.51562,-1.5625 1.29688,0 2.28125,0.82813 l -0.40625,2.57812 q -0.90625,-0.65625 -2.09375,-0.65625 -0.95312,0 -1.625,0.67188 -0.67187,0.67187 -0.67187,2.26562 v 6.85938 z m 14.66247,0.28125 q -2.60937,0 -4.14062,-1.70313 -1.51563,-1.71875 -1.51563,-4.71875 0,-2.98437 1.53125,-4.6875 1.53125,-1.71875 4.125,-1.71875 2.35938,0 3.85938,1.46875 1.5,1.45313 1.5,4.28125 0,0.98438 -0.0937,1.73438 h -8.14063 q 0.0781,1.29687 0.90625,2.09375 0.82813,0.78125 1.96875,0.78125 1.64063,0 2.59375,-1.26563 l 1.78125,1.82813 q -1.60937,1.90625 -4.375,1.90625 z m -2.84375,-7.67188 h 5.42188 q -0.0937,-1.32812 -0.82813,-2 -0.71875,-0.6875 -1.75,-0.6875 -1.20312,0 -1.98437,0.65625 -0.76563,0.65625 -0.85938,2.03125 z m 15.56159,7.67188 q -2.25,0 -3.67188,-1.70313 -1.40625,-1.71875 -1.40625,-4.70312 0,-3.01563 1.40625,-4.71875 1.40625,-1.70313 3.75,-1.70313 1.70313,0 2.6875,1.21875 v -0.9375 h 2.8125 v 15.79688 l -2.8125,1.26562 v -5.78125 q -1.03125,1.26563 -2.76562,1.26563 z m 0.42187,-2.6875 q 1.5,0 2.34375,-1.1875 v -5.09375 q -0.79687,-1.20313 -2.34375,-1.20313 -1.28125,0 -1.98437,1.03125 -0.70313,1.03125 -0.70313,2.73438 0,1.8125 0.6875,2.76562 0.70313,0.95313 2,0.95313 z m 16.21851,2.40625 v -1.17188 q -1.15625,1.45313 -3.21875,1.45313 -1.92188,0 -3.14063,-1.20313 -1.21875,-1.21875 -1.21875,-3.82812 v -7.51563 h 2.79688 v 7.01563 q 0,2.84375 2.3125,2.84375 2.46875,0 2.46875,-2.79688 v -7.0625 h 2.8125 v 12.26563 z m 11.46569,0.28125 q -2.60937,0 -4.14062,-1.70313 -1.51563,-1.71875 -1.51563,-4.71875 0,-2.98437 1.53125,-4.6875 1.53125,-1.71875 4.125,-1.71875 2.35938,0 3.85938,1.46875 1.5,1.45313 1.5,4.28125 0,0.98438 -0.0937,1.73438 h -8.14063 q 0.0781,1.29687 0.90625,2.09375 0.82813,0.78125 1.96875,0.78125 1.64063,0 2.59375,-1.26563 l 1.78125,1.82813 q -1.60937,1.90625 -4.375,1.90625 z m -2.84375,-7.67188 h 5.42188 q -0.0937,-1.32812 -0.82813,-2 -0.71875,-0.6875 -1.75,-0.6875 -1.20312,0 -1.98437,0.65625 -0.76563,0.65625 -0.85938,2.03125 z m 14.94269,7.67188 q -1.48437,0 -2.79687,-0.5625 -1.3125,-0.57813 -1.98438,-1.54688 l 1.92188,-1.625 q 1.29687,1.29688 2.85937,1.29688 2,0 2,-1.20313 0,-0.40625 -0.35937,-0.73437 -0.34375,-0.34375 -0.75,-0.51563 -0.39063,-0.1875 -1.26563,-0.54687 -2.125,-0.70313 -3.09375,-1.59375 -0.96875,-0.90625 -0.96875,-2.39063 0,-1.60937 1.23438,-2.5 1.23437,-0.90625 3.125,-0.90625 2.79687,0 4.40625,1.89063 l -1.95313,1.57812 q -1.07812,-1.03125 -2.45312,-1.03125 -1.64063,0 -1.64063,1.01563 0,0.5 0.60938,0.85937 0.60937,0.35938 1.78125,0.75 2,0.67188 3.01562,1.59375 1.01563,0.90625 1.01563,2.53125 0,1.75 -1.28125,2.70313 -1.26563,0.9375 -3.42188,0.9375 z m 11.19184,0 q -2.85938,0 -2.85938,-3.14063 v -6.95312 h -1.82812 v -2.45313 h 1.82812 v -3.71875 l 2.8125,-1.34375 v 5.0625 h 2.82813 v 2.45313 h -2.82813 v 6.40625 q 0,1.17187 1.03125,1.17187 0.92188,0 1.90625,-0.54687 l -0.32812,2.51562 q -1.0625,0.54688 -2.5625,0.54688 z m 5.41461,-6.04688 v -2.70312 h 6.09375 v 2.70312 z m 14.18036,6.04688 q -2.34375,0 -3.71875,-1.70313 -1.35938,-1.70312 -1.35938,-4.71875 0,-2.95312 1.40625,-4.67187 1.42188,-1.73438 3.67188,-1.73438 1.78125,0 2.76562,1.14063 v -4.65625 l 2.8125,-1.26563 v 17.32813 h -2.8125 v -0.89063 q -0.90625,1.17188 -2.76562,1.17188 z m 0.4375,-2.6875 q 1.5625,0 2.32812,-1.17188 v -5.14062 q -0.79687,-1.17188 -2.32812,-1.17188 -1.29688,0 -2,0.98438 -0.70313,0.96875 -0.70313,2.76562 0,1.70313 0.71875,2.71875 0.71875,1.01563 1.98438,1.01563 z m 8.73407,2.40625 v -12.26563 h 2.8125 v 1.28125 q 0.75,-1.5625 2.51562,-1.5625 1.29688,0 2.28125,0.82813 l -0.40625,2.57812 q -0.90625,-0.65625 -2.09375,-0.65625 -0.95312,0 -1.625,0.67188 -0.67187,0.67187 -0.67187,2.26562 v 6.85938 z m 12.28137,-14.42188 q -0.46875,0.48438 -1.17188,0.48438 -0.6875,0 -1.1875,-0.48438 -0.48437,-0.5 -0.48437,-1.1875 0,-0.70312 0.48437,-1.1875 0.5,-0.48437 1.1875,-0.48437 0.70313,0 1.17188,0.48437 0.48437,0.48438 0.48437,1.1875 0,0.6875 -0.48437,1.1875 z m -2.57813,14.42188 v -12.26563 h 2.79688 v 12.26563 z m 9.72162,0 -4.5,-12.26563 h 2.85938 l 2.71875,7.65625 q 0.28125,0.96875 0.32812,1.10938 0.14063,-0.625 0.34375,-1.10938 l 2.65625,-7.65625 h 2.85938 l -4.48438,12.26563 z m 14.60559,0.28125 q -2.60937,0 -4.14062,-1.70313 -1.51563,-1.71875 -1.51563,-4.71875 0,-2.98437 1.53125,-4.6875 1.53125,-1.71875 4.125,-1.71875 2.35938,0 3.85938,1.46875 1.5,1.45313 1.5,4.28125 0,0.98438 -0.0937,1.73438 h -8.14063 q 0.0781,1.29687 0.90625,2.09375 0.82813,0.78125 1.96875,0.78125 1.64063,0 2.59375,-1.26563 l 1.78125,1.82813 q -1.60937,1.90625 -4.375,1.90625 z m -2.84375,-7.67188 h 5.42188 q -0.0937,-1.32812 -0.82813,-2 -0.71875,-0.6875 -1.75,-0.6875 -1.20312,0 -1.98437,0.65625 -0.76563,0.65625 -0.85938,2.03125 z m 18.67096,7.39063 v -7.03125 q 0,-2.85938 -2.28125,-2.85938 -2.5,0 -2.5,2.8125 v 7.07813 h -2.8125 v -12.26563 h 2.8125 v 1.15625 q 1.20313,-1.4375 3.23438,-1.4375 1.92187,0 3.125,1.20313 1.21875,1.1875 1.21875,3.8125 v 7.53125 z" />
  <path
     style="fill:#000000;fill-rule:nonzero"
     inkscape:connector-curvature="0"
     id="path122"
     d="m 163.24712,257.3783 q -2.51562,0 -4,-1.70313 -1.46875,-1.70312 -1.46875,-4.70312 0,-3 1.46875,-4.70313 1.48438,-1.71875 4,-1.71875 3.79688,0 4.875,3.375 l -2.67187,0.89063 q -0.59375,-1.57813 -2.10938,-1.57813 -1.26562,0 -1.98437,1.01563 -0.71875,1 -0.71875,2.71875 0,1.70312 0.70312,2.70312 0.70313,1 1.90625,1 1.70313,0 2.23438,-1.78125 l 2.6875,0.8125 q -1.0625,3.67188 -4.92188,3.67188 z m 12.8606,0 q -2.59375,0 -4.10941,-1.70313 -1.5,-1.70312 -1.5,-4.70312 0,-3 1.5,-4.70313 1.51566,-1.71875 4.10941,-1.71875 2.59375,0 4.10937,1.71875 1.53125,1.70313 1.53125,4.70313 0,3 -1.51562,4.70312 -1.5,1.70313 -4.125,1.70313 z m 0,-2.6875 q 1.32812,0 2.07812,-0.98438 0.75,-0.98437 0.75,-2.73437 0,-1.75 -0.75,-2.75 -0.75,-1.01563 -2.07812,-1.01563 -1.26563,0 -2.03125,1.03125 -0.76563,1.01563 -0.76563,2.75 0,1.71875 0.75,2.71875 0.75,0.98438 2.04688,0.98438 z m 23.04657,2.40625 v -7.03125 q 0,-2.85938 -2.09375,-2.85938 -1.07813,0 -1.6875,0.73438 -0.60938,0.73437 -0.60938,2.17187 v 6.98438 h -2.8125 v -7.03125 q 0,-2.85938 -2.09375,-2.85938 -1.07812,0 -1.6875,0.73438 -0.60937,0.73437 -0.60937,2.17187 v 6.98438 h -2.8125 v -12.26563 h 2.8125 v 1.125 q 1.04687,-1.40625 3,-1.40625 2.25,0 3.21875,1.71875 1.17187,-1.71875 3.6875,-1.71875 2.0625,0 3.28125,1.14063 1.21875,1.14062 1.21875,3.57812 v 7.82813 z m 11.87542,0.28125 q -1.78125,0 -2.78125,-1.26563 v 4.51563 l -2.8125,1.29687 v -17.09375 h 2.8125 v 0.9375 q 1,-1.21875 2.8125,-1.21875 2.32813,0 3.67188,1.6875 1.35937,1.6875 1.35937,4.73438 0,2.98437 -1.39062,4.70312 -1.39063,1.70313 -3.67188,1.70313 z m -0.40625,-2.6875 q 1.26563,0 1.95313,-0.95313 0.70312,-0.95312 0.70312,-2.76562 0,-1.70313 -0.70312,-2.73438 -0.6875,-1.03125 -1.95313,-1.03125 -1.5625,0 -2.375,1.20313 v 5.09375 q 0.84375,1.1875 2.375,1.1875 z m 15.9372,2.40625 v -1.17188 q -1.15625,1.45313 -3.21875,1.45313 -1.92188,0 -3.14063,-1.20313 -1.21875,-1.21875 -1.21875,-3.82812 v -7.51563 h 2.79688 v 7.01563 q 0,2.84375 2.3125,2.84375 2.46875,0 2.46875,-2.79688 v -7.0625 h 2.8125 v 12.26563 z m 10.01263,0.28125 q -2.85937,0 -2.85937,-3.14063 v -6.95312 h -1.82813 v -2.45313 h 1.82813 v -3.71875 l 2.8125,-1.34375 v 5.0625 h 2.82812 v 2.45313 h -2.82812 v 6.40625 q 0,1.17187 1.03125,1.17187 0.92187,0 1.90625,-0.54687 l -0.32813,2.51562 q -1.0625,0.54688 -2.5625,0.54688 z m 10.52509,0 q -2.60938,0 -4.14063,-1.70313 -1.51562,-1.71875 -1.51562,-4.71875 0,-2.98437 1.53125,-4.6875 1.53125,-1.71875 4.125,-1.71875 2.35937,0 3.85937,1.46875 1.5,1.45313 1.5,4.28125 0,0.98438 -0.0937,1.73438 h -8.14062 q 0.0781,1.29687 0.90625,2.09375 0.82812,0.78125 1.96875,0.78125 1.64062,0 2.59375,-1.26563 l 1.78125,1.82813 q -1.60938,1.90625 -4.375,1.90625 z m -2.84375,-7.67188 h 5.42187 q -0.0937,-1.32812 -0.82812,-2 -0.71875,-0.6875 -1.75,-0.6875 -1.20313,0 -1.98438,0.65625 -0.76562,0.65625 -0.85937,2.03125 z" />
  <path
     style="fill:#d9ead3;fill-rule:evenodd"
     inkscape:connector-curvature="0"
     id="path124"
     d="m 77.47453,312.93525 v 0 c 0,-9.43109 7.64539,-17.07648 17.07645,-17.07648 h 233.37466 c 4.52893,0 8.87237,1.79914 12.07483,5.00159 3.20251,3.20245 5.00158,7.5459 5.00158,12.07489 v 68.30377 c 0,9.43103 -7.64538,17.07642 -17.07641,17.07642 H 94.55098 v 0 c -9.43106,0 -17.07645,-7.64539 -17.07645,-17.07642 z" />
  <path
     style="fill-rule:evenodd;stroke:#595959;stroke-width:1;stroke-linecap:butt;stroke-linejoin:round"
     inkscape:connector-curvature="0"
     id="path126"
     d="m 77.47453,312.93525 v 0 c 0,-9.43109 7.64539,-17.07648 17.07645,-17.07648 h 233.37466 c 4.52893,0 8.87237,1.79914 12.07483,5.00159 3.20251,3.20245 5.00158,7.5459 5.00158,12.07489 v 68.30377 c 0,9.43103 -7.64538,17.07642 -17.07641,17.07642 H 94.55098 v 0 c -9.43106,0 -17.07645,-7.64539 -17.07645,-17.07642 z" />
  <path
     style="fill:#000000;fill-rule:nonzero"
     inkscape:connector-curvature="0"
     id="path128"
     d="m 118.13356,326.89094 -0.54688,0.17187 0.32813,0.125 4.76562,2.03125 -0.28125,1.57813 -6.42187,-3.20313 0.21875,-1.23437 7.53125,-3.20313 -0.26563,1.70313 z m 10.1701,0 -0.54687,0.17187 0.32812,0.125 4.76563,2.03125 -0.28125,1.57813 -6.42188,-3.20313 0.21875,-1.23437 7.53125,-3.20313 -0.26562,1.70313 z m 11.17014,4.51562 q 0.40625,0.0156 0.8125,-0.10937 0.40625,-0.125 0.73438,-0.35938 0.34375,-0.23437 0.57812,-0.5625 0.23438,-0.34375 0.32813,-0.75 l 1.45312,-0.0156 q -0.0781,0.70312 -0.46875,1.28125 -0.375,0.5625 -0.9375,0.96875 -0.54687,0.40625 -1.23437,0.625 -0.67188,0.20312 -1.34375,0.1875 -0.95313,-0.0156 -1.64063,-0.40625 -0.67187,-0.39063 -1.09375,-1.01563 -0.40625,-0.64062 -0.5625,-1.45312 -0.15625,-0.8125 -0.0625,-1.67188 l 0.0312,-0.35937 q 0.0781,-0.625 0.26563,-1.20313 0.20312,-0.57812 0.5,-1.09375 0.3125,-0.53125 0.70312,-0.95312 0.40625,-0.42188 0.90625,-0.71875 0.5,-0.3125 1.07813,-0.46875 0.59375,-0.17188 1.25,-0.15625 0.70312,0.0156 1.29687,0.28125 0.60938,0.25 1.03125,0.6875 0.4375,0.4375 0.65625,1.04687 0.23438,0.59375 0.20313,1.3125 h -1.4375 q 0.0156,-0.4375 -0.10938,-0.79687 -0.10937,-0.35938 -0.35937,-0.625 -0.23438,-0.28125 -0.57813,-0.4375 -0.34375,-0.17188 -0.78125,-0.1875 -0.70312,-0.0312 -1.25,0.26562 -0.53125,0.28125 -0.92187,0.75 -0.375,0.46875 -0.60938,1.07813 -0.23437,0.59375 -0.3125,1.21875 l -0.0469,0.35937 q -0.0312,0.35938 -0.0312,0.75 0,0.375 0.0625,0.73438 0.0625,0.35937 0.1875,0.6875 0.14062,0.3125 0.35937,0.5625 0.23438,0.23437 0.5625,0.39062 0.32813,0.15625 0.78125,0.15625 z m 12.24823,-0.17187 q -0.53125,0.67187 -1.23437,1.0625 -0.70313,0.39062 -1.59375,0.375 -0.82813,-0.0156 -1.34375,-0.35938 -0.51563,-0.34375 -0.79688,-0.89062 -0.28125,-0.5625 -0.35937,-1.25 -0.0781,-0.6875 0,-1.39063 l 0.92187,-5.4375 h 1.53125 l -0.90625,5.46875 q -0.0469,0.42188 -0.0625,0.875 -0.0156,0.4375 0.10938,0.79688 0.125,0.35937 0.40625,0.60937 0.29687,0.23438 0.82812,0.25 0.84375,0.0156 1.5,-0.35937 0.65625,-0.375 1.09375,-1.0625 l 1.14063,-6.57813 h 1.54687 l -1.59375,9.15625 h -1.375 z m 10.49826,-1.21875 q 0.0469,-0.39063 -0.14062,-0.64063 -0.17188,-0.26562 -0.46875,-0.42187 -0.28125,-0.15625 -0.625,-0.25 -0.34375,-0.10938 -0.625,-0.17188 -0.51563,-0.125 -1.0625,-0.3125 -0.54688,-0.1875 -1.01563,-0.48437 -0.45312,-0.29688 -0.73437,-0.73438 -0.28125,-0.45312 -0.25,-1.07812 0.0156,-0.46875 0.1875,-0.84375 0.17187,-0.39063 0.45312,-0.70313 0.28125,-0.3125 0.64063,-0.53125 0.375,-0.23437 0.78125,-0.375 0.40625,-0.15625 0.82812,-0.21875 0.4375,-0.0781 0.85938,-0.0781 0.64062,0.0156 1.23437,0.20312 0.59375,0.1875 1.04688,0.54688 0.45312,0.35937 0.70312,0.89062 0.26563,0.53125 0.26563,1.23438 l -1.51563,-0.0156 q 0,-0.375 -0.15625,-0.65625 -0.14062,-0.29687 -0.39062,-0.48437 -0.25,-0.20313 -0.57813,-0.29688 -0.3125,-0.10937 -0.67187,-0.125 -0.34375,0 -0.70313,0.0781 -0.35937,0.0625 -0.67187,0.23437 -0.3125,0.15625 -0.53125,0.4375 -0.21875,0.26563 -0.26563,0.64063 -0.0625,0.375 0.10938,0.625 0.1875,0.23437 0.45312,0.39062 0.28125,0.14063 0.60938,0.21875 0.34375,0.0781 0.625,0.14063 0.34375,0.0937 0.71875,0.20312 0.375,0.10938 0.71875,0.26563 0.35937,0.14062 0.67187,0.34375 0.32813,0.20312 0.54688,0.46875 0.23437,0.26562 0.35937,0.60937 0.14063,0.34375 0.10938,0.78125 -0.0312,0.73438 -0.40625,1.26563 -0.35938,0.53125 -0.92188,0.875 -0.5625,0.32812 -1.25,0.48437 -0.67187,0.15625 -1.3125,0.14063 -0.67187,-0.0156 -1.3125,-0.20313 -0.625,-0.20312 -1.10937,-0.57812 -0.48438,-0.375 -0.78125,-0.92188 -0.29688,-0.5625 -0.28125,-1.29687 l 1.53125,0.0156 q 0,0.4375 0.15625,0.76563 0.17187,0.3125 0.4375,0.53125 0.26562,0.20312 0.625,0.3125 0.375,0.0937 0.79687,0.0937 0.32813,0.0156 0.70313,-0.0469 0.39062,-0.0781 0.71875,-0.23437 0.34375,-0.15625 0.57812,-0.42188 0.25,-0.28125 0.3125,-0.67187 z m 9.37323,-8.89063 -0.39062,2.21875 h 3.39065 l -0.21875,1.21875 h -3.37503 l -0.82812,4.96875 q -0.0469,0.375 0,0.70313 0.0469,0.3125 0.1875,0.5625 0.14062,0.23437 0.40625,0.375 0.26562,0.14062 0.67187,0.15625 0.46875,0.0156 0.92188,-0.0625 0.46875,-0.0937 0.9219,-0.20313 l 0.15625,1.14063 q -0.5469,0.28125 -1.20315,0.375 -0.64063,0.0937 -1.23438,0.0781 -0.6875,0 -1.17187,-0.25 -0.46875,-0.26562 -0.76563,-0.6875 -0.28125,-0.4375 -0.39062,-1 -0.0937,-0.5625 -0.0312,-1.1875 l 0.82812,-4.96875 h -2.34375 l 0.21875,-1.21875 h 2.32813 l 0.375,-2.21875 z m 4.98264,6.76563 q 0.0625,-0.60938 0.25,-1.20313 0.20312,-0.59375 0.5,-1.125 0.29687,-0.53125 0.6875,-0.96875 0.40625,-0.45312 0.90625,-0.76562 0.5,-0.32813 1.07812,-0.5 0.59375,-0.17188 1.26563,-0.15625 0.96875,0.0312 1.64062,0.4375 0.6875,0.39062 1.09375,1.04687 0.42188,0.64063 0.57813,1.46875 0.15625,0.82813 0.0625,1.6875 l -0.0156,0.1875 q -0.125,0.92188 -0.5,1.78125 -0.375,0.85938 -0.98437,1.51563 -0.59375,0.64062 -1.40625,1.01562 -0.8125,0.375 -1.8125,0.35938 -0.95313,-0.0312 -1.64063,-0.42188 -0.67187,-0.39062 -1.09375,-1.03125 -0.40625,-0.64062 -0.57812,-1.45312 -0.15625,-0.8125 -0.0625,-1.6875 z m 1.5,0.1875 q -0.0469,0.35937 -0.0469,0.75 0.0156,0.375 0.0781,0.73437 0.0625,0.35938 0.1875,0.70313 0.14062,0.32812 0.35937,0.57812 0.23438,0.25 0.5625,0.40625 0.32813,0.14063 0.76563,0.15625 0.70312,0.0312 1.25,-0.26562 0.54687,-0.3125 0.92187,-0.79688 0.39063,-0.5 0.60938,-1.10937 0.23437,-0.625 0.32812,-1.23438 l 0.0156,-0.17187 q 0.0625,-0.54688 0.0156,-1.125 -0.0312,-0.57813 -0.25,-1.07813 -0.20312,-0.5 -0.60937,-0.8125 -0.40625,-0.32812 -1.0625,-0.35937 -0.71875,-0.0312 -1.26563,0.28125 -0.53125,0.3125 -0.92187,0.8125 -0.375,0.5 -0.60938,1.125 -0.21875,0.60937 -0.29687,1.21875 z m 10.56073,-4.73438 -0.17188,0.85938 q 0.35938,-0.48438 0.8125,-0.75 0.45313,-0.28125 1.0625,-0.28125 0.26563,0 0.5,0.0625 0.23438,0.0469 0.4375,0.17187 0.20313,0.10938 0.34375,0.29688 0.15625,0.1875 0.23438,0.45312 0.34375,-0.45312 0.79687,-0.71875 0.45313,-0.26562 1.04688,-0.26562 0.53125,0.0156 0.875,0.23437 0.35937,0.20313 0.5625,0.5625 0.20312,0.34375 0.26562,0.79688 0.0625,0.4375 0.0156,0.89062 l -1.14063,6.84375 h -1.45312 l 1.15625,-6.85937 q 0.0156,-0.23438 -0.0156,-0.4375 -0.0156,-0.21875 -0.10937,-0.375 -0.0781,-0.15625 -0.26563,-0.23438 -0.17187,-0.0937 -0.42187,-0.0937 -0.46875,0 -0.8125,0.25 -0.32813,0.25 -0.45313,0.6875 l -1.1875,7.0625 h -1.46875 l 1.17188,-6.875 q 0.0156,-0.21875 -0.0156,-0.42187 -0.0156,-0.20313 -0.10937,-0.34375 -0.0781,-0.15625 -0.23438,-0.25 -0.15625,-0.0937 -0.42187,-0.10938 -0.42188,0 -0.71875,0.1875 -0.29688,0.17188 -0.51563,0.51563 l -1.25,7.29687 h -1.46875 l 1.59375,-9.15625 z m 15.3576,4.40625 h -6.29687 l 0.23437,-1.28125 h 6.28125 z m 10.03797,-4.59375 q 0.40625,0.0156 0.8125,0.0625 0.40625,0.0469 0.79687,0.1875 l -0.39062,1.51563 q -0.40625,-0.0937 -0.8125,-0.14063 -0.40625,-0.0625 -0.8125,-0.0781 -1.07813,0 -1.84375,0.5 -0.75,0.5 -1.26563,1.42187 l -1.01562,5.875 h -1.53125 l 1.59375,-9.15625 h 1.45312 l -0.25,1.45313 q 0.3125,-0.375 0.67188,-0.67188 0.375,-0.3125 0.78125,-0.51562 0.40625,-0.21875 0.85937,-0.32813 0.45313,-0.125 0.95313,-0.125 z m 6.85766,9.51563 q -0.92187,-0.0156 -1.64062,-0.375 -0.70313,-0.375 -1.15625,-0.96875 -0.45313,-0.60938 -0.65625,-1.39063 -0.20313,-0.78125 -0.125,-1.67187 l 0.0469,-0.35938 q 0.0625,-0.59375 0.25,-1.1875 0.20313,-0.59375 0.51563,-1.125 0.3125,-0.53125 0.71875,-0.96875 0.40625,-0.45312 0.90625,-0.78125 0.51562,-0.32812 1.09375,-0.5 0.59375,-0.1875 1.25,-0.17187 0.9375,0.0312 1.59375,0.42187 0.65625,0.375 1.03125,1 0.39062,0.625 0.51562,1.4375 0.125,0.79688 0.0156,1.64063 l -0.10938,0.70312 h -6.3125 q -0.0625,0.54688 0.0312,1.09375 0.10938,0.53125 0.375,0.95313 0.28125,0.42187 0.73438,0.6875 0.45312,0.25 1.0625,0.28125 0.79687,0.0156 1.46875,-0.3125 0.67187,-0.34375 1.21875,-0.90625 l 0.875,0.75 q -0.3125,0.4375 -0.73438,0.78125 -0.42187,0.32812 -0.90625,0.54687 -0.46875,0.21875 -1,0.3125 -0.51562,0.10938 -1.0625,0.10938 z m 1.125,-8.20313 q -0.59375,-0.0312 -1.07812,0.20313 -0.46875,0.21875 -0.84375,0.59375 -0.35938,0.35937 -0.625,0.84375 -0.26563,0.48437 -0.45313,0.96875 l 4.78125,0.0312 0.0312,-0.15625 q 0.0781,-0.46875 -0.0156,-0.90625 -0.0781,-0.4375 -0.32813,-0.78125 -0.23437,-0.35938 -0.60937,-0.5625 -0.35938,-0.21875 -0.85938,-0.23438 z m 11.40448,5.54688 q 0.0469,-0.39063 -0.14062,-0.64063 -0.17188,-0.26562 -0.46875,-0.42187 -0.28125,-0.15625 -0.625,-0.25 -0.34375,-0.10938 -0.625,-0.17188 -0.51563,-0.125 -1.0625,-0.3125 -0.54688,-0.1875 -1.01563,-0.48437 -0.45312,-0.29688 -0.73437,-0.73438 -0.28125,-0.45312 -0.25,-1.07812 0.0156,-0.46875 0.1875,-0.84375 0.17187,-0.39063 0.45312,-0.70313 0.28125,-0.3125 0.64063,-0.53125 0.375,-0.23437 0.78125,-0.375 0.40625,-0.15625 0.82812,-0.21875 0.4375,-0.0781 0.85938,-0.0781 0.64062,0.0156 1.23437,0.20312 0.59375,0.1875 1.04688,0.54688 0.45312,0.35937 0.70312,0.89062 0.26563,0.53125 0.26563,1.23438 l -1.51563,-0.0156 q 0,-0.375 -0.15625,-0.65625 -0.14062,-0.29687 -0.39062,-0.48437 -0.25,-0.20313 -0.57813,-0.29688 -0.3125,-0.10937 -0.67187,-0.125 -0.34375,0 -0.70313,0.0781 -0.35937,0.0625 -0.67187,0.23437 -0.3125,0.15625 -0.53125,0.4375 -0.21875,0.26563 -0.26563,0.64063 -0.0625,0.375 0.10938,0.625 0.1875,0.23437 0.45312,0.39062 0.28125,0.14063 0.60938,0.21875 0.34375,0.0781 0.625,0.14063 0.34375,0.0937 0.71875,0.20312 0.375,0.10938 0.71875,0.26563 0.35937,0.14062 0.67187,0.34375 0.32813,0.20312 0.54688,0.46875 0.23437,0.26562 0.35937,0.60937 0.14063,0.34375 0.10938,0.78125 -0.0312,0.73438 -0.40625,1.26563 -0.35938,0.53125 -0.92188,0.875 -0.5625,0.32812 -1.25,0.48437 -0.67187,0.15625 -1.3125,0.14063 -0.67187,-0.0156 -1.3125,-0.20313 -0.625,-0.20312 -1.10937,-0.57812 -0.48438,-0.375 -0.78125,-0.92188 -0.29688,-0.5625 -0.28125,-1.29687 l 1.53125,0.0156 q 0,0.4375 0.15625,0.76563 0.17187,0.3125 0.4375,0.53125 0.26562,0.20312 0.625,0.3125 0.375,0.0937 0.79687,0.0937 0.32813,0.0156 0.70313,-0.0469 0.39062,-0.0781 0.71875,-0.23437 0.34375,-0.15625 0.57812,-0.42188 0.25,-0.28125 0.3125,-0.67187 z m 4.18573,-2.125 q 0.0625,-0.60938 0.25,-1.20313 0.20313,-0.59375 0.5,-1.125 0.29688,-0.53125 0.6875,-0.96875 0.40625,-0.45312 0.90625,-0.76562 0.5,-0.32813 1.07813,-0.5 0.59375,-0.17188 1.26562,-0.15625 0.96875,0.0312 1.64063,0.4375 0.6875,0.39062 1.09375,1.04687 0.42187,0.64063 0.57812,1.46875 0.15625,0.82813 0.0625,1.6875 l -0.0156,0.1875 q -0.125,0.92188 -0.5,1.78125 -0.375,0.85938 -0.98438,1.51563 -0.59375,0.64062 -1.40625,1.01562 -0.8125,0.375 -1.8125,0.35938 -0.95312,-0.0312 -1.64062,-0.42188 -0.67188,-0.39062 -1.09375,-1.03125 -0.40625,-0.64062 -0.57813,-1.45312 -0.15625,-0.8125 -0.0625,-1.6875 z m 1.5,0.1875 q -0.0469,0.35937 -0.0469,0.75 0.0156,0.375 0.0781,0.73437 0.0625,0.35938 0.1875,0.70313 0.14063,0.32812 0.35938,0.57812 0.23437,0.25 0.5625,0.40625 0.32812,0.14063 0.76562,0.15625 0.70313,0.0312 1.25,-0.26562 0.54688,-0.3125 0.92188,-0.79688 0.39062,-0.5 0.60937,-1.10937 0.23438,-0.625 0.32813,-1.23438 l 0.0156,-0.17187 q 0.0625,-0.54688 0.0156,-1.125 -0.0312,-0.57813 -0.25,-1.07813 -0.20313,-0.5 -0.60938,-0.8125 -0.40625,-0.32812 -1.0625,-0.35937 -0.71875,-0.0312 -1.26562,0.28125 -0.53125,0.3125 -0.92188,0.8125 -0.375,0.5 -0.60937,1.125 -0.21875,0.60937 -0.29688,1.21875 z m 14.32636,3.15625 q -0.53125,0.67187 -1.23438,1.0625 -0.70312,0.39062 -1.59375,0.375 -0.82812,-0.0156 -1.34375,-0.35938 -0.51562,-0.34375 -0.79687,-0.89062 -0.28125,-0.5625 -0.35938,-1.25 -0.0781,-0.6875 0,-1.39063 l 0.92188,-5.4375 h 1.53125 l -0.90625,5.46875 q -0.0469,0.42188 -0.0625,0.875 -0.0156,0.4375 0.10937,0.79688 0.125,0.35937 0.40625,0.60937 0.29688,0.23438 0.82813,0.25 0.84375,0.0156 1.5,-0.35937 0.65625,-0.375 1.09375,-1.0625 l 1.14062,-6.57813 h 1.54688 l -1.59375,9.15625 h -1.375 z m 11.45141,-8.07813 q 0.40625,0.0156 0.8125,0.0625 0.40625,0.0469 0.79688,0.1875 l -0.39063,1.51563 q -0.40625,-0.0937 -0.8125,-0.14063 -0.40625,-0.0625 -0.8125,-0.0781 -1.07812,0 -1.84375,0.5 -0.75,0.5 -1.26562,1.42187 l -1.01563,5.875 h -1.53125 l 1.59375,-9.15625 h 1.45313 l -0.25,1.45313 q 0.3125,-0.375 0.67187,-0.67188 0.375,-0.3125 0.78125,-0.51562 0.40625,-0.21875 0.85938,-0.32813 0.45312,-0.125 0.95312,-0.125 z m 6.81073,8.25 q 0.40625,0.0156 0.8125,-0.10937 0.40625,-0.125 0.73438,-0.35938 0.34375,-0.23437 0.57812,-0.5625 0.23438,-0.34375 0.32813,-0.75 l 1.45312,-0.0156 q -0.0781,0.70312 -0.46875,1.28125 -0.375,0.5625 -0.9375,0.96875 -0.54687,0.40625 -1.23437,0.625 -0.67188,0.20312 -1.34375,0.1875 -0.95313,-0.0156 -1.64063,-0.40625 -0.67187,-0.39063 -1.09375,-1.01563 -0.40625,-0.64062 -0.5625,-1.45312 -0.15625,-0.8125 -0.0625,-1.67188 l 0.0312,-0.35937 q 0.0781,-0.625 0.26563,-1.20313 0.20312,-0.57812 0.5,-1.09375 0.3125,-0.53125 0.70312,-0.95312 0.40625,-0.42188 0.90625,-0.71875 0.5,-0.3125 1.07813,-0.46875 0.59375,-0.17188 1.25,-0.15625 0.70312,0.0156 1.29687,0.28125 0.60938,0.25 1.03125,0.6875 0.4375,0.4375 0.65625,1.04687 0.23438,0.59375 0.20313,1.3125 h -1.4375 q 0.0156,-0.4375 -0.10938,-0.79687 -0.10937,-0.35938 -0.35937,-0.625 -0.23438,-0.28125 -0.57813,-0.4375 -0.34375,-0.17188 -0.78125,-0.1875 -0.70312,-0.0312 -1.25,0.26562 -0.53125,0.28125 -0.92187,0.75 -0.375,0.46875 -0.60938,1.07813 -0.23437,0.59375 -0.3125,1.21875 l -0.0469,0.35937 q -0.0312,0.35938 -0.0312,0.75 0,0.375 0.0625,0.73438 0.0625,0.35937 0.1875,0.6875 0.14062,0.3125 0.35937,0.5625 0.23438,0.23437 0.5625,0.39062 0.32813,0.15625 0.78125,0.15625 z m 10.21698,1.26563 q -0.92187,-0.0156 -1.64062,-0.375 -0.70313,-0.375 -1.15625,-0.96875 -0.45313,-0.60938 -0.65625,-1.39063 -0.20313,-0.78125 -0.125,-1.67187 l 0.0469,-0.35938 q 0.0625,-0.59375 0.25,-1.1875 0.20313,-0.59375 0.51563,-1.125 0.3125,-0.53125 0.71875,-0.96875 0.40625,-0.45312 0.90625,-0.78125 0.51562,-0.32812 1.09375,-0.5 0.59375,-0.1875 1.25,-0.17187 0.9375,0.0312 1.59375,0.42187 0.65625,0.375 1.03125,1 0.39062,0.625 0.51562,1.4375 0.125,0.79688 0.0156,1.64063 l -0.10938,0.70312 h -6.3125 q -0.0625,0.54688 0.0312,1.09375 0.10938,0.53125 0.375,0.95313 0.28125,0.42187 0.73438,0.6875 0.45312,0.25 1.0625,0.28125 0.79687,0.0156 1.46875,-0.3125 0.67187,-0.34375 1.21875,-0.90625 l 0.875,0.75 q -0.3125,0.4375 -0.73438,0.78125 -0.42187,0.32812 -0.90625,0.54687 -0.46875,0.21875 -1,0.3125 -0.51562,0.10938 -1.0625,0.10938 z m 1.125,-8.20313 q -0.59375,-0.0312 -1.07812,0.20313 -0.46875,0.21875 -0.84375,0.59375 -0.35938,0.35937 -0.625,0.84375 -0.26563,0.48437 -0.45313,0.96875 l 4.78125,0.0312 0.0312,-0.15625 q 0.0781,-0.46875 -0.0156,-0.90625 -0.0781,-0.4375 -0.32813,-0.78125 -0.23437,-0.35938 -0.60937,-0.5625 -0.35938,-0.21875 -0.85938,-0.23438 z m 6.38886,0.3125 0.28125,-1.54687 6.70312,3.20312 -0.21875,1.21875 -7.8125,3.21875 0.29688,-1.70312 5.57812,-2.03125 0.59375,-0.17188 -0.375,-0.125 z m 10.17016,0 0.28125,-1.54687 6.70313,3.20312 -0.21875,1.21875 -7.8125,3.21875 0.29687,-1.70312 5.57813,-2.03125 0.59375,-0.17188 -0.375,-0.125 z" />
  <path
     style="fill:#000000;fill-rule:nonzero"
     inkscape:connector-curvature="0"
     id="path130"
     d="m 163.04543,359.75465 q 0,-0.96875 -0.4375,-1.625 -0.4375,-0.65625 -1.125,-1.10937 -0.6875,-0.45313 -1.51563,-0.75 -0.8125,-0.29688 -1.57812,-0.54688 -1.10938,-0.35937 -2.25,-0.85937 -1.125,-0.5 -2.0625,-1.21875 -0.9375,-0.73438 -1.53125,-1.73438 -0.59375,-1 -0.59375,-2.34375 0,-1.34375 0.59375,-2.40625 0.59375,-1.0625 1.54687,-1.78125 0.95313,-0.73437 2.17188,-1.10937 1.21875,-0.39063 2.45312,-0.39063 1.35938,0 2.60938,0.45313 1.26562,0.45312 2.23437,1.26562 0.98438,0.8125 1.5625,1.98438 0.59375,1.15625 0.625,2.59375 h -2.71875 q -0.10937,-0.90625 -0.45312,-1.64063 -0.32813,-0.75 -0.875,-1.26562 -0.53125,-0.53125 -1.28125,-0.82813 -0.75,-0.29687 -1.70313,-0.29687 -0.76562,0 -1.48437,0.21875 -0.71875,0.21875 -1.28125,0.65625 -0.5625,0.42187 -0.90625,1.04687 -0.34375,0.625 -0.34375,1.45313 0.0156,0.90625 0.45312,1.53125 0.45313,0.625 1.125,1.0625 0.6875,0.42187 1.48438,0.70312 0.79687,0.28125 1.5,0.5 0.76562,0.25 1.54687,0.5625 0.79688,0.29688 1.53125,0.70313 0.73438,0.40625 1.35938,0.90625 0.625,0.5 1.09375,1.14062 0.48437,0.625 0.75,1.39063 0.26562,0.76562 0.26562,1.70312 0,1.40625 -0.625,2.45313 -0.625,1.04687 -1.60937,1.73437 -0.98438,0.6875 -2.23438,1.04688 -1.25,0.34375 -2.5,0.34375 -1.39062,0 -2.71875,-0.42188 -1.32812,-0.4375 -2.39062,-1.23437 -1.04688,-0.8125 -1.70313,-1.98438 -0.65625,-1.17187 -0.70312,-2.65625 h 2.70312 q 0.14063,0.96875 0.53125,1.73438 0.40625,0.75 1.03125,1.28125 0.64063,0.51562 1.45313,0.78125 0.82812,0.25 1.79687,0.25 0.78125,0 1.53125,-0.1875 0.75,-0.1875 1.32813,-0.59375 0.59375,-0.42188 0.96875,-1.03125 0.375,-0.625 0.375,-1.48438 z m 13.53726,5.54688 q -1.64062,0 -3.01562,-0.54688 -1.35938,-0.5625 -2.34375,-1.5625 -0.96875,-1 -1.51563,-2.375 -0.53125,-1.375 -0.53125,-3 v -0.59375 q 0,-1.89062 0.59375,-3.35937 0.60938,-1.48438 1.59375,-2.5 1,-1.03125 2.26563,-1.57813 1.26562,-0.54687 2.60937,-0.54687 1.67188,0 2.92188,0.57812 1.25,0.57813 2.07812,1.60938 0.82813,1.01562 1.23438,2.40625 0.42187,1.39062 0.42187,3.01562 v 1.1875 h -11.07812 q 0.0469,1.0625 0.40625,2 0.375,0.92188 1,1.625 0.64062,0.6875 1.53125,1.09375 0.89062,0.39063 1.96875,0.39063 1.40625,0 2.51562,-0.5625 1.10938,-0.57813 1.82813,-1.53125 l 1.625,1.26562 q -0.39063,0.57813 -0.96875,1.125 -0.57813,0.53125 -1.34375,0.95313 -0.75,0.40625 -1.71875,0.65625 -0.95313,0.25 -2.07813,0.25 z m -0.34375,-13.89063 q -0.8125,0 -1.53125,0.29688 -0.70312,0.29687 -1.28125,0.85937 -0.57812,0.5625 -0.96875,1.39063 -0.39062,0.82812 -0.54687,1.89062 h 8.32812 v -0.1875 q -0.0469,-0.78125 -0.29687,-1.53125 -0.25,-0.76562 -0.73438,-1.35937 -0.48437,-0.60938 -1.21875,-0.98438 -0.73437,-0.375 -1.75,-0.375 z m 21.24036,-2.17187 q 0.375,0 0.76562,0.0312 0.40625,0.0156 0.76563,0.0625 0.375,0.0469 0.6875,0.125 0.3125,0.0625 0.5,0.15625 l -0.35938,2.59375 q -0.76562,-0.17188 -1.46875,-0.25 -0.6875,-0.0781 -1.4375,-0.0781 -1.875,0 -3.03125,0.84375 -1.14062,0.84375 -1.6875,2.35938 v 9.9375 h -2.65625 v -15.5 h 2.51563 l 0.125,2.46875 q 0.95312,-1.28125 2.26562,-2.01563 1.32813,-0.73437 3.01563,-0.73437 z m 13.5216,11.96875 0.25,0.96875 0.25,-0.96875 4.34375,-11.6875 h 2.70313 l -6.3125,15.5 h -2.01563 l -6.375,-15.5 h 2.71875 z m 11.94355,-11.6875 h 7.92187 v 13.20312 h 5.04688 v 2.29688 h -12.96875 v -2.29688 h 5.26562 v -10.89062 h -5.26562 z m 4.92187,-4.0625 q 0,-0.65625 0.39063,-1.10938 0.40625,-0.45312 1.20312,-0.45312 0.78125,0 1.1875,0.45312 0.40625,0.45313 0.40625,1.10938 0,0.64062 -0.40625,1.07812 -0.40625,0.42188 -1.1875,0.42188 -0.79687,0 -1.20312,-0.42188 -0.39063,-0.4375 -0.39063,-1.07812 z m 18.86536,17.70312 q 0.71875,0 1.39062,-0.21875 0.6875,-0.23437 1.21875,-0.64062 0.53125,-0.42188 0.84375,-0.96875 0.32813,-0.54688 0.34375,-1.20313 h 2.5 q -0.0156,1.03125 -0.54687,1.98438 -0.51563,0.9375 -1.39063,1.64062 -0.85937,0.70313 -2,1.125 -1.125,0.42188 -2.35937,0.42188 -1.76563,0 -3.07813,-0.625 -1.3125,-0.625 -2.20312,-1.6875 -0.875,-1.07813 -1.32813,-2.46875 -0.4375,-1.40625 -0.4375,-2.95313 v -0.59375 q 0,-1.53125 0.4375,-2.9375 0.45313,-1.40625 1.32813,-2.46875 0.89062,-1.0625 2.20312,-1.6875 1.3125,-0.64062 3.07813,-0.64062 1.375,0 2.53125,0.4375 1.15625,0.4375 1.98437,1.1875 0.84375,0.75 1.3125,1.78125 0.46875,1.03125 0.46875,2.20312 h -2.5 q -0.0156,-0.70312 -0.3125,-1.3125 -0.29687,-0.625 -0.79687,-1.09375 -0.5,-0.48437 -1.20313,-0.75 -0.6875,-0.28125 -1.48437,-0.28125 -1.23438,0 -2.07813,0.5 -0.82812,0.5 -1.34375,1.29688 -0.51562,0.78125 -0.73437,1.78125 -0.21875,0.98437 -0.21875,1.98437 v 0.59375 q 0,1.01563 0.21875,2.01563 0.21875,1 0.71875,1.79687 0.51562,0.79688 1.34375,1.29688 0.84375,0.48437 2.09375,0.48437 z m 17.84973,2.14063 q -1.64063,0 -3.01563,-0.54688 -1.35937,-0.5625 -2.34375,-1.5625 -0.96875,-1 -1.51562,-2.375 -0.53125,-1.375 -0.53125,-3 v -0.59375 q 0,-1.89062 0.59375,-3.35937 0.60937,-1.48438 1.59375,-2.5 1,-1.03125 2.26562,-1.57813 1.26563,-0.54687 2.60938,-0.54687 1.67187,0 2.92187,0.57812 1.25,0.57813 2.07813,1.60938 0.82812,1.01562 1.23437,2.40625 0.42188,1.39062 0.42188,3.01562 v 1.1875 h -11.07813 q 0.0469,1.0625 0.40625,2 0.375,0.92188 1,1.625 0.64063,0.6875 1.53125,1.09375 0.89063,0.39063 1.96875,0.39063 1.40625,0 2.51563,-0.5625 1.10937,-0.57813 1.82812,-1.53125 l 1.625,1.26562 q -0.39062,0.57813 -0.96875,1.125 -0.57812,0.53125 -1.34375,0.95313 -0.75,0.40625 -1.71875,0.65625 -0.95312,0.25 -2.07812,0.25 z m -0.34375,-13.89063 q -0.8125,0 -1.53125,0.29688 -0.70313,0.29687 -1.28125,0.85937 -0.57813,0.5625 -0.96875,1.39063 -0.39063,0.82812 -0.54688,1.89062 h 8.32813 v -0.1875 q -0.0469,-0.78125 -0.29688,-1.53125 -0.25,-0.76562 -0.73437,-1.35937 -0.48438,-0.60938 -1.21875,-0.98438 -0.73438,-0.375 -1.75,-0.375 z" />
  <path
     style="fill:#d9ead3;fill-rule:evenodd"
     inkscape:connector-curvature="0"
     id="path132"
     d="m 93.47453,328.93525 v 0 c 0,-9.43109 7.64539,-17.07648 17.07645,-17.07648 h 233.37466 c 4.52893,0 8.87237,1.79914 12.07483,5.00159 3.20251,3.20245 5.00158,7.5459 5.00158,12.07489 v 68.30377 c 0,9.43103 -7.64538,17.07642 -17.07641,17.07642 H 110.55098 v 0 c -9.43106,0 -17.07645,-7.64539 -17.07645,-17.07642 z" />
  <path
     style="fill-rule:evenodd;stroke:#595959;stroke-width:1;stroke-linecap:butt;stroke-linejoin:round"
     inkscape:connector-curvature="0"
     id="path134"
     d="m 93.47453,328.93525 v 0 c 0,-9.43109 7.64539,-17.07648 17.07645,-17.07648 h 233.37466 c 4.52893,0 8.87237,1.79914 12.07483,5.00159 3.20251,3.20245 5.00158,7.5459 5.00158,12.07489 v 68.30377 c 0,9.43103 -7.64538,17.07642 -17.07641,17.07642 H 110.55098 v 0 c -9.43106,0 -17.07645,-7.64539 -17.07645,-17.07642 z" />
  <path
     style="fill:#000000;fill-rule:nonzero"
     inkscape:connector-curvature="0"
     id="path136"
     d="m 134.13356,342.89094 -0.54688,0.17187 0.32813,0.125 4.76562,2.03125 -0.28125,1.57813 -6.42187,-3.20313 0.21875,-1.23437 7.53125,-3.20313 -0.26563,1.70313 z m 10.1701,0 -0.54687,0.17187 0.32812,0.125 4.76563,2.03125 -0.28125,1.57813 -6.42188,-3.20313 0.21875,-1.23437 7.53125,-3.20313 -0.26562,1.70313 z m 11.17014,4.51562 q 0.40625,0.0156 0.8125,-0.10937 0.40625,-0.125 0.73438,-0.35938 0.34375,-0.23437 0.57812,-0.5625 0.23438,-0.34375 0.32813,-0.75 l 1.45312,-0.0156 q -0.0781,0.70312 -0.46875,1.28125 -0.375,0.5625 -0.9375,0.96875 -0.54687,0.40625 -1.23437,0.625 -0.67188,0.20312 -1.34375,0.1875 -0.95313,-0.0156 -1.64063,-0.40625 -0.67187,-0.39063 -1.09375,-1.01563 -0.40625,-0.64062 -0.5625,-1.45312 -0.15625,-0.8125 -0.0625,-1.67188 l 0.0312,-0.35937 q 0.0781,-0.625 0.26563,-1.20313 0.20312,-0.57812 0.5,-1.09375 0.3125,-0.53125 0.70312,-0.95312 0.40625,-0.42188 0.90625,-0.71875 0.5,-0.3125 1.07813,-0.46875 0.59375,-0.17188 1.25,-0.15625 0.70312,0.0156 1.29687,0.28125 0.60938,0.25 1.03125,0.6875 0.4375,0.4375 0.65625,1.04687 0.23438,0.59375 0.20313,1.3125 h -1.4375 q 0.0156,-0.4375 -0.10938,-0.79687 -0.10937,-0.35938 -0.35937,-0.625 -0.23438,-0.28125 -0.57813,-0.4375 -0.34375,-0.17188 -0.78125,-0.1875 -0.70312,-0.0312 -1.25,0.26562 -0.53125,0.28125 -0.92187,0.75 -0.375,0.46875 -0.60938,1.07813 -0.23437,0.59375 -0.3125,1.21875 l -0.0469,0.35937 q -0.0312,0.35938 -0.0312,0.75 0,0.375 0.0625,0.73438 0.0625,0.35937 0.1875,0.6875 0.14062,0.3125 0.35937,0.5625 0.23438,0.23437 0.5625,0.39062 0.32813,0.15625 0.78125,0.15625 z m 12.24823,-0.17187 q -0.53125,0.67187 -1.23437,1.0625 -0.70313,0.39062 -1.59375,0.375 -0.82813,-0.0156 -1.34375,-0.35938 -0.51563,-0.34375 -0.79688,-0.89062 -0.28125,-0.5625 -0.35937,-1.25 -0.0781,-0.6875 0,-1.39063 l 0.92187,-5.4375 h 1.53125 l -0.90625,5.46875 q -0.0469,0.42188 -0.0625,0.875 -0.0156,0.4375 0.10938,0.79688 0.125,0.35937 0.40625,0.60937 0.29687,0.23438 0.82812,0.25 0.84375,0.0156 1.5,-0.35937 0.65625,-0.375 1.09375,-1.0625 l 1.14063,-6.57813 h 1.54687 l -1.59375,9.15625 h -1.375 z m 10.49823,-1.21875 q 0.0469,-0.39063 -0.14062,-0.64063 -0.17188,-0.26562 -0.46875,-0.42187 -0.28125,-0.15625 -0.625,-0.25 -0.34375,-0.10938 -0.625,-0.17188 -0.51563,-0.125 -1.0625,-0.3125 -0.54688,-0.1875 -1.01563,-0.48437 -0.45312,-0.29688 -0.73437,-0.73438 -0.28125,-0.45312 -0.25,-1.07812 0.0156,-0.46875 0.1875,-0.84375 0.17187,-0.39063 0.45312,-0.70313 0.28125,-0.3125 0.64063,-0.53125 0.375,-0.23437 0.78125,-0.375 0.40625,-0.15625 0.82812,-0.21875 0.4375,-0.0781 0.85938,-0.0781 0.64062,0.0156 1.23437,0.20312 0.59375,0.1875 1.04688,0.54688 0.45312,0.35937 0.70312,0.89062 0.26563,0.53125 0.26563,1.23438 l -1.51563,-0.0156 q 0,-0.375 -0.15625,-0.65625 -0.14062,-0.29687 -0.39062,-0.48437 -0.25,-0.20313 -0.57813,-0.29688 -0.3125,-0.10937 -0.67187,-0.125 -0.34375,0 -0.70313,0.0781 -0.35937,0.0625 -0.67187,0.23437 -0.3125,0.15625 -0.53125,0.4375 -0.21875,0.26563 -0.26563,0.64063 -0.0625,0.375 0.10938,0.625 0.1875,0.23437 0.45312,0.39062 0.28125,0.14063 0.60938,0.21875 0.34375,0.0781 0.625,0.14063 0.34375,0.0937 0.71875,0.20312 0.375,0.10938 0.71875,0.26563 0.35937,0.14062 0.67187,0.34375 0.32813,0.20312 0.54688,0.46875 0.23437,0.26562 0.35937,0.60937 0.14063,0.34375 0.10938,0.78125 -0.0312,0.73438 -0.40625,1.26563 -0.35938,0.53125 -0.92188,0.875 -0.5625,0.32812 -1.25,0.48437 -0.67187,0.15625 -1.3125,0.14063 -0.67187,-0.0156 -1.3125,-0.20313 -0.625,-0.20312 -1.10937,-0.57812 -0.48435,-0.375 -0.78122,-0.92188 -0.29688,-0.5625 -0.28125,-1.29687 l 1.53122,0.0156 q 0,0.4375 0.15625,0.76563 0.17187,0.3125 0.4375,0.53125 0.26562,0.20312 0.625,0.3125 0.375,0.0937 0.79687,0.0937 0.32813,0.0156 0.70313,-0.0469 0.39062,-0.0781 0.71875,-0.23437 0.34375,-0.15625 0.57812,-0.42188 0.25,-0.28125 0.3125,-0.67187 z m 9.37329,-8.89063 -0.39062,2.21875 h 3.39062 l -0.21875,1.21875 h -3.375 l -0.82812,4.96875 q -0.0469,0.375 0,0.70313 0.0469,0.3125 0.1875,0.5625 0.14062,0.23437 0.40625,0.375 0.26562,0.14062 0.67187,0.15625 0.46875,0.0156 0.92188,-0.0625 0.46875,-0.0937 0.92187,-0.20313 l 0.15625,1.14063 q -0.54687,0.28125 -1.20312,0.375 -0.64063,0.0937 -1.23438,0.0781 -0.6875,0 -1.17187,-0.25 -0.46875,-0.26562 -0.76563,-0.6875 -0.28125,-0.4375 -0.39062,-1 -0.0937,-0.5625 -0.0312,-1.1875 l 0.82812,-4.96875 h -2.34375 l 0.21875,-1.21875 h 2.32813 l 0.375,-2.21875 z m 4.98261,6.76563 q 0.0625,-0.60938 0.25,-1.20313 0.20312,-0.59375 0.5,-1.125 0.29687,-0.53125 0.6875,-0.96875 0.40625,-0.45312 0.90625,-0.76562 0.5,-0.32813 1.07812,-0.5 0.59375,-0.17188 1.26563,-0.15625 0.96875,0.0312 1.64062,0.4375 0.6875,0.39062 1.09375,1.04687 0.42188,0.64063 0.57813,1.46875 0.15625,0.82813 0.0625,1.6875 l -0.0156,0.1875 q -0.125,0.92188 -0.5,1.78125 -0.375,0.85938 -0.98437,1.51563 -0.59375,0.64062 -1.40625,1.01562 -0.8125,0.375 -1.8125,0.35938 -0.95313,-0.0312 -1.64063,-0.42188 -0.67187,-0.39062 -1.09375,-1.03125 -0.40625,-0.64062 -0.57812,-1.45312 -0.15625,-0.8125 -0.0625,-1.6875 z m 1.5,0.1875 q -0.0469,0.35937 -0.0469,0.75 0.0156,0.375 0.0781,0.73437 0.0625,0.35938 0.1875,0.70313 0.14062,0.32812 0.35937,0.57812 0.23438,0.25 0.5625,0.40625 0.32813,0.14063 0.76563,0.15625 0.70312,0.0312 1.25,-0.26562 0.54687,-0.3125 0.92187,-0.79688 0.39063,-0.5 0.60938,-1.10937 0.23437,-0.625 0.32812,-1.23438 l 0.0156,-0.17187 q 0.0625,-0.54688 0.0156,-1.125 -0.0312,-0.57813 -0.25,-1.07813 -0.20312,-0.5 -0.60937,-0.8125 -0.40625,-0.32812 -1.0625,-0.35937 -0.71875,-0.0312 -1.26563,0.28125 -0.53125,0.3125 -0.92187,0.8125 -0.375,0.5 -0.60938,1.125 -0.21875,0.60937 -0.29687,1.21875 z m 10.56073,-4.73438 -0.17188,0.85938 q 0.35938,-0.48438 0.8125,-0.75 0.45313,-0.28125 1.0625,-0.28125 0.26563,0 0.5,0.0625 0.23438,0.0469 0.4375,0.17187 0.20313,0.10938 0.34375,0.29688 0.15625,0.1875 0.23438,0.45312 0.34375,-0.45312 0.79687,-0.71875 0.45313,-0.26562 1.04688,-0.26562 0.53125,0.0156 0.875,0.23437 0.35937,0.20313 0.5625,0.5625 0.20312,0.34375 0.26562,0.79688 0.0625,0.4375 0.0156,0.89062 l -1.14063,6.84375 h -1.45312 l 1.15625,-6.85937 q 0.0156,-0.23438 -0.0156,-0.4375 -0.0156,-0.21875 -0.10937,-0.375 -0.0781,-0.15625 -0.26563,-0.23438 -0.17187,-0.0937 -0.42187,-0.0937 -0.46875,0 -0.8125,0.25 -0.32813,0.25 -0.45313,0.6875 l -1.1875,7.0625 h -1.46875 l 1.17188,-6.875 q 0.0156,-0.21875 -0.0156,-0.42187 -0.0156,-0.20313 -0.10937,-0.34375 -0.0781,-0.15625 -0.23438,-0.25 -0.15625,-0.0937 -0.42187,-0.10938 -0.42188,0 -0.71875,0.1875 -0.29688,0.17188 -0.51563,0.51563 l -1.25,7.29687 h -1.46875 l 1.59375,-9.15625 z m 15.3576,4.40625 h -6.29687 l 0.23437,-1.28125 h 6.28125 z m 10.03797,-4.59375 q 0.40625,0.0156 0.8125,0.0625 0.40625,0.0469 0.79687,0.1875 l -0.39062,1.51563 q -0.40625,-0.0937 -0.8125,-0.14063 -0.40625,-0.0625 -0.8125,-0.0781 -1.07813,0 -1.84375,0.5 -0.75,0.5 -1.26563,1.42187 l -1.01562,5.875 h -1.53125 l 1.59375,-9.15625 h 1.45312 l -0.25,1.45313 q 0.3125,-0.375 0.67188,-0.67188 0.375,-0.3125 0.78125,-0.51562 0.40625,-0.21875 0.85937,-0.32813 0.45313,-0.125 0.95313,-0.125 z m 6.85766,9.51563 q -0.92187,-0.0156 -1.64062,-0.375 -0.70313,-0.375 -1.15625,-0.96875 -0.45313,-0.60938 -0.65625,-1.39063 -0.20313,-0.78125 -0.125,-1.67187 l 0.0469,-0.35938 q 0.0625,-0.59375 0.25,-1.1875 0.20313,-0.59375 0.51563,-1.125 0.3125,-0.53125 0.71875,-0.96875 0.40625,-0.45312 0.90625,-0.78125 0.51562,-0.32812 1.09375,-0.5 0.59375,-0.1875 1.25,-0.17187 0.9375,0.0312 1.59375,0.42187 0.65625,0.375 1.03125,1 0.39062,0.625 0.51562,1.4375 0.125,0.79688 0.0156,1.64063 l -0.10938,0.70312 h -6.3125 q -0.0625,0.54688 0.0312,1.09375 0.10938,0.53125 0.375,0.95313 0.28125,0.42187 0.73438,0.6875 0.45312,0.25 1.0625,0.28125 0.79687,0.0156 1.46875,-0.3125 0.67187,-0.34375 1.21875,-0.90625 l 0.875,0.75 q -0.3125,0.4375 -0.73438,0.78125 -0.42187,0.32812 -0.90625,0.54687 -0.46875,0.21875 -1,0.3125 -0.51562,0.10938 -1.0625,0.10938 z m 1.125,-8.20313 q -0.59375,-0.0312 -1.07812,0.20313 -0.46875,0.21875 -0.84375,0.59375 -0.35938,0.35937 -0.625,0.84375 -0.26563,0.48437 -0.45313,0.96875 l 4.78125,0.0312 0.0312,-0.15625 q 0.0781,-0.46875 -0.0156,-0.90625 -0.0781,-0.4375 -0.32813,-0.78125 -0.23437,-0.35938 -0.60937,-0.5625 -0.35938,-0.21875 -0.85938,-0.23438 z m 11.40448,5.54688 q 0.0469,-0.39063 -0.14062,-0.64063 -0.17188,-0.26562 -0.46875,-0.42187 -0.28125,-0.15625 -0.625,-0.25 -0.34375,-0.10938 -0.625,-0.17188 -0.51563,-0.125 -1.0625,-0.3125 -0.54688,-0.1875 -1.01563,-0.48437 -0.45312,-0.29688 -0.73437,-0.73438 -0.28125,-0.45312 -0.25,-1.07812 0.0156,-0.46875 0.1875,-0.84375 0.17187,-0.39063 0.45312,-0.70313 0.28125,-0.3125 0.64063,-0.53125 0.375,-0.23437 0.78125,-0.375 0.40625,-0.15625 0.82812,-0.21875 0.4375,-0.0781 0.85938,-0.0781 0.64062,0.0156 1.23437,0.20312 0.59375,0.1875 1.04688,0.54688 0.45312,0.35937 0.70312,0.89062 0.26563,0.53125 0.26563,1.23438 l -1.51563,-0.0156 q 0,-0.375 -0.15625,-0.65625 -0.14062,-0.29687 -0.39062,-0.48437 -0.25,-0.20313 -0.57813,-0.29688 -0.3125,-0.10937 -0.67187,-0.125 -0.34375,0 -0.70313,0.0781 -0.35937,0.0625 -0.67187,0.23437 -0.3125,0.15625 -0.53125,0.4375 -0.21875,0.26563 -0.26563,0.64063 -0.0625,0.375 0.10938,0.625 0.1875,0.23437 0.45312,0.39062 0.28125,0.14063 0.60938,0.21875 0.34375,0.0781 0.625,0.14063 0.34375,0.0937 0.71875,0.20312 0.375,0.10938 0.71875,0.26563 0.35937,0.14062 0.67187,0.34375 0.32813,0.20312 0.54688,0.46875 0.23437,0.26562 0.35937,0.60937 0.14063,0.34375 0.10938,0.78125 -0.0312,0.73438 -0.40625,1.26563 -0.35938,0.53125 -0.92188,0.875 -0.5625,0.32812 -1.25,0.48437 -0.67187,0.15625 -1.3125,0.14063 -0.67187,-0.0156 -1.3125,-0.20313 -0.625,-0.20312 -1.10937,-0.57812 -0.48438,-0.375 -0.78125,-0.92188 -0.29688,-0.5625 -0.28125,-1.29687 l 1.53125,0.0156 q 0,0.4375 0.15625,0.76563 0.17187,0.3125 0.4375,0.53125 0.26562,0.20312 0.625,0.3125 0.375,0.0937 0.79687,0.0937 0.32813,0.0156 0.70313,-0.0469 0.39062,-0.0781 0.71875,-0.23437 0.34375,-0.15625 0.57812,-0.42188 0.25,-0.28125 0.3125,-0.67187 z m 4.18573,-2.125 q 0.0625,-0.60938 0.25,-1.20313 0.20313,-0.59375 0.5,-1.125 0.29688,-0.53125 0.6875,-0.96875 0.40625,-0.45312 0.90625,-0.76562 0.5,-0.32813 1.07813,-0.5 0.59375,-0.17188 1.26562,-0.15625 0.96875,0.0312 1.64063,0.4375 0.6875,0.39062 1.09375,1.04687 0.42187,0.64063 0.57812,1.46875 0.15625,0.82813 0.0625,1.6875 l -0.0156,0.1875 q -0.125,0.92188 -0.5,1.78125 -0.375,0.85938 -0.98438,1.51563 -0.59375,0.64062 -1.40625,1.01562 -0.8125,0.375 -1.8125,0.35938 -0.95312,-0.0312 -1.64062,-0.42188 -0.67188,-0.39062 -1.09375,-1.03125 -0.40625,-0.64062 -0.57813,-1.45312 -0.15625,-0.8125 -0.0625,-1.6875 z m 1.5,0.1875 q -0.0469,0.35937 -0.0469,0.75 0.0156,0.375 0.0781,0.73437 0.0625,0.35938 0.1875,0.70313 0.14063,0.32812 0.35938,0.57812 0.23437,0.25 0.5625,0.40625 0.32812,0.14063 0.76562,0.15625 0.70313,0.0312 1.25,-0.26562 0.54688,-0.3125 0.92188,-0.79688 0.39062,-0.5 0.60937,-1.10937 0.23438,-0.625 0.32813,-1.23438 l 0.0156,-0.17187 q 0.0625,-0.54688 0.0156,-1.125 -0.0312,-0.57813 -0.25,-1.07813 -0.20313,-0.5 -0.60938,-0.8125 -0.40625,-0.32812 -1.0625,-0.35937 -0.71875,-0.0312 -1.26562,0.28125 -0.53125,0.3125 -0.92188,0.8125 -0.375,0.5 -0.60937,1.125 -0.21875,0.60937 -0.29688,1.21875 z m 14.32636,3.15625 q -0.53125,0.67187 -1.23438,1.0625 -0.70312,0.39062 -1.59375,0.375 -0.82812,-0.0156 -1.34375,-0.35938 -0.51562,-0.34375 -0.79687,-0.89062 -0.28125,-0.5625 -0.35938,-1.25 -0.0781,-0.6875 0,-1.39063 l 0.92188,-5.4375 h 1.53125 l -0.90625,5.46875 q -0.0469,0.42188 -0.0625,0.875 -0.0156,0.4375 0.10937,0.79688 0.125,0.35937 0.40625,0.60937 0.29688,0.23438 0.82813,0.25 0.84375,0.0156 1.5,-0.35937 0.65625,-0.375 1.09375,-1.0625 l 1.14062,-6.57813 h 1.54688 l -1.59375,9.15625 h -1.375 z m 11.45141,-8.07813 q 0.40625,0.0156 0.8125,0.0625 0.40625,0.0469 0.79688,0.1875 l -0.39063,1.51563 q -0.40625,-0.0937 -0.8125,-0.14063 -0.40625,-0.0625 -0.8125,-0.0781 -1.07812,0 -1.84375,0.5 -0.75,0.5 -1.26562,1.42187 l -1.01563,5.875 h -1.53125 l 1.59375,-9.15625 h 1.45313 l -0.25,1.45313 q 0.3125,-0.375 0.67187,-0.67188 0.375,-0.3125 0.78125,-0.51562 0.40625,-0.21875 0.85938,-0.32813 0.45312,-0.125 0.95312,-0.125 z m 6.81073,8.25 q 0.40625,0.0156 0.8125,-0.10937 0.40625,-0.125 0.73438,-0.35938 0.34375,-0.23437 0.57812,-0.5625 0.23438,-0.34375 0.32813,-0.75 l 1.45312,-0.0156 q -0.0781,0.70312 -0.46875,1.28125 -0.375,0.5625 -0.9375,0.96875 -0.54687,0.40625 -1.23437,0.625 -0.67188,0.20312 -1.34375,0.1875 -0.95313,-0.0156 -1.64063,-0.40625 -0.67187,-0.39063 -1.09375,-1.01563 -0.40625,-0.64062 -0.5625,-1.45312 -0.15625,-0.8125 -0.0625,-1.67188 l 0.0312,-0.35937 q 0.0781,-0.625 0.26563,-1.20313 0.20312,-0.57812 0.5,-1.09375 0.3125,-0.53125 0.70312,-0.95312 0.40625,-0.42188 0.90625,-0.71875 0.5,-0.3125 1.07813,-0.46875 0.59375,-0.17188 1.25,-0.15625 0.70312,0.0156 1.29687,0.28125 0.60938,0.25 1.03125,0.6875 0.4375,0.4375 0.65625,1.04687 0.23438,0.59375 0.20313,1.3125 h -1.4375 q 0.0156,-0.4375 -0.10938,-0.79687 -0.10937,-0.35938 -0.35937,-0.625 -0.23438,-0.28125 -0.57813,-0.4375 -0.34375,-0.17188 -0.78125,-0.1875 -0.70312,-0.0312 -1.25,0.26562 -0.53125,0.28125 -0.92187,0.75 -0.375,0.46875 -0.60938,1.07813 -0.23437,0.59375 -0.3125,1.21875 l -0.0469,0.35937 q -0.0312,0.35938 -0.0312,0.75 0,0.375 0.0625,0.73438 0.0625,0.35937 0.1875,0.6875 0.14062,0.3125 0.35937,0.5625 0.23438,0.23437 0.5625,0.39062 0.32813,0.15625 0.78125,0.15625 z m 10.21698,1.26563 q -0.92187,-0.0156 -1.64062,-0.375 -0.70313,-0.375 -1.15625,-0.96875 -0.45313,-0.60938 -0.65625,-1.39063 -0.20313,-0.78125 -0.125,-1.67187 l 0.0469,-0.35938 q 0.0625,-0.59375 0.25,-1.1875 0.20313,-0.59375 0.51563,-1.125 0.3125,-0.53125 0.71875,-0.96875 0.40625,-0.45312 0.90625,-0.78125 0.51562,-0.32812 1.09375,-0.5 0.59375,-0.1875 1.25,-0.17187 0.9375,0.0312 1.59375,0.42187 0.65625,0.375 1.03125,1 0.39062,0.625 0.51562,1.4375 0.125,0.79688 0.0156,1.64063 l -0.10938,0.70312 h -6.3125 q -0.0625,0.54688 0.0312,1.09375 0.10938,0.53125 0.375,0.95313 0.28125,0.42187 0.73438,0.6875 0.45312,0.25 1.0625,0.28125 0.79687,0.0156 1.46875,-0.3125 0.67187,-0.34375 1.21875,-0.90625 l 0.875,0.75 q -0.3125,0.4375 -0.73438,0.78125 -0.42187,0.32812 -0.90625,0.54687 -0.46875,0.21875 -1,0.3125 -0.51562,0.10938 -1.0625,0.10938 z m 1.125,-8.20313 q -0.59375,-0.0312 -1.07812,0.20313 -0.46875,0.21875 -0.84375,0.59375 -0.35938,0.35937 -0.625,0.84375 -0.26563,0.48437 -0.45313,0.96875 l 4.78125,0.0312 0.0312,-0.15625 q 0.0781,-0.46875 -0.0156,-0.90625 -0.0781,-0.4375 -0.32813,-0.78125 -0.23437,-0.35938 -0.60937,-0.5625 -0.35938,-0.21875 -0.85938,-0.23438 z m 6.38886,0.3125 0.28125,-1.54687 6.70312,3.20312 -0.21875,1.21875 -7.8125,3.21875 0.29688,-1.70312 5.57812,-2.03125 0.59375,-0.17188 -0.375,-0.125 z m 10.17016,0 0.28125,-1.54687 6.70313,3.20312 -0.21875,1.21875 -7.8125,3.21875 0.29687,-1.70312 5.57813,-2.03125 0.59375,-0.17188 -0.375,-0.125 z" />
  <path
     style="fill:#000000;fill-rule:nonzero"
     inkscape:connector-curvature="0"
     id="path138"
     d="m 179.04546,375.75465 q 0,-0.96875 -0.4375,-1.625 -0.4375,-0.65625 -1.125,-1.10937 -0.6875,-0.45313 -1.51563,-0.75 -0.8125,-0.29688 -1.57812,-0.54688 -1.10938,-0.35937 -2.25003,-0.85937 -1.125,-0.5 -2.0625,-1.21875 -0.9375,-0.73438 -1.53125,-1.73438 -0.59375,-1 -0.59375,-2.34375 0,-1.34375 0.59375,-2.40625 0.59375,-1.0625 1.54687,-1.78125 0.95313,-0.73437 2.17188,-1.10937 1.21878,-0.39063 2.45315,-0.39063 1.35938,0 2.60938,0.45313 1.26562,0.45312 2.23437,1.26562 0.98438,0.8125 1.5625,1.98438 0.59375,1.15625 0.625,2.59375 h -2.71875 q -0.10937,-0.90625 -0.45312,-1.64063 -0.32813,-0.75 -0.875,-1.26562 -0.53125,-0.53125 -1.28125,-0.82813 -0.75,-0.29687 -1.70313,-0.29687 -0.76562,0 -1.48437,0.21875 -0.71878,0.21875 -1.28128,0.65625 -0.5625,0.42187 -0.90625,1.04687 -0.34375,0.625 -0.34375,1.45313 0.0156,0.90625 0.45312,1.53125 0.45313,0.625 1.125,1.0625 0.6875,0.42187 1.48441,0.70312 0.79687,0.28125 1.5,0.5 0.76562,0.25 1.54687,0.5625 0.79688,0.29688 1.53125,0.70313 0.73438,0.40625 1.35938,0.90625 0.625,0.5 1.09375,1.14062 0.48437,0.625 0.75,1.39063 0.26562,0.76562 0.26562,1.70312 0,1.40625 -0.625,2.45313 -0.625,1.04687 -1.60937,1.73437 -0.98438,0.6875 -2.23438,1.04688 -1.25,0.34375 -2.5,0.34375 -1.39062,0 -2.71878,-0.42188 -1.32812,-0.4375 -2.39062,-1.23437 -1.04688,-0.8125 -1.70313,-1.98438 -0.65625,-1.17187 -0.70312,-2.65625 h 2.70312 q 0.14063,0.96875 0.53125,1.73438 0.40625,0.75 1.03125,1.28125 0.64063,0.51562 1.45313,0.78125 0.82815,0.25 1.7969,0.25 0.78125,0 1.53125,-0.1875 0.75,-0.1875 1.32813,-0.59375 0.59375,-0.42188 0.96875,-1.03125 0.375,-0.625 0.375,-1.48438 z m 13.53723,5.54688 q -1.64062,0 -3.01562,-0.54688 -1.35938,-0.5625 -2.34375,-1.5625 -0.96875,-1 -1.51563,-2.375 -0.53125,-1.375 -0.53125,-3 v -0.59375 q 0,-1.89062 0.59375,-3.35937 0.60938,-1.48438 1.59375,-2.5 1,-1.03125 2.26563,-1.57813 1.26562,-0.54687 2.60937,-0.54687 1.67188,0 2.92188,0.57812 1.25,0.57813 2.07812,1.60938 0.82813,1.01562 1.23438,2.40625 0.42187,1.39062 0.42187,3.01562 v 1.1875 h -11.07812 q 0.0469,1.0625 0.40625,2 0.375,0.92188 1,1.625 0.64062,0.6875 1.53125,1.09375 0.89062,0.39063 1.96875,0.39063 1.40625,0 2.51562,-0.5625 1.10938,-0.57813 1.82813,-1.53125 l 1.625,1.26562 q -0.39063,0.57813 -0.96875,1.125 -0.57813,0.53125 -1.34375,0.95313 -0.75,0.40625 -1.71875,0.65625 -0.95313,0.25 -2.07813,0.25 z m -0.34375,-13.89063 q -0.8125,0 -1.53125,0.29688 -0.70312,0.29687 -1.28125,0.85937 -0.57812,0.5625 -0.96875,1.39063 -0.39062,0.82812 -0.54687,1.89062 h 8.32812 v -0.1875 q -0.0469,-0.78125 -0.29687,-1.53125 -0.25,-0.76562 -0.73438,-1.35937 -0.48437,-0.60938 -1.21875,-0.98438 -0.73437,-0.375 -1.75,-0.375 z m 21.24036,-2.17187 q 0.375,0 0.76562,0.0312 0.40625,0.0156 0.76563,0.0625 0.375,0.0469 0.6875,0.125 0.3125,0.0625 0.5,0.15625 l -0.35938,2.59375 q -0.76562,-0.17188 -1.46875,-0.25 -0.6875,-0.0781 -1.4375,-0.0781 -1.875,0 -3.03125,0.84375 -1.14062,0.84375 -1.6875,2.35938 v 9.9375 h -2.65625 v -15.5 h 2.51563 l 0.125,2.46875 q 0.95312,-1.28125 2.26562,-2.01563 1.32813,-0.73437 3.01563,-0.73437 z m 13.5216,11.96875 0.25,0.96875 0.25,-0.96875 4.34375,-11.6875 h 2.70313 l -6.3125,15.5 h -2.01563 l -6.375,-15.5 h 2.71875 z m 11.94355,-11.6875 h 7.92187 v 13.20312 h 5.04688 v 2.29688 h -12.96875 v -2.29688 h 5.26562 v -10.89062 h -5.26562 z m 4.92187,-4.0625 q 0,-0.65625 0.39063,-1.10938 0.40625,-0.45312 1.20312,-0.45312 0.78125,0 1.1875,0.45312 0.40625,0.45313 0.40625,1.10938 0,0.64062 -0.40625,1.07812 -0.40625,0.42188 -1.1875,0.42188 -0.79687,0 -1.20312,-0.42188 -0.39063,-0.4375 -0.39063,-1.07812 z m 18.86536,17.70312 q 0.71875,0 1.39062,-0.21875 0.6875,-0.23437 1.21875,-0.64062 0.53125,-0.42188 0.84375,-0.96875 0.32813,-0.54688 0.34375,-1.20313 h 2.5 q -0.0156,1.03125 -0.54687,1.98438 -0.51563,0.9375 -1.39063,1.64062 -0.85937,0.70313 -2,1.125 -1.125,0.42188 -2.35937,0.42188 -1.76563,0 -3.07813,-0.625 -1.3125,-0.625 -2.20312,-1.6875 -0.875,-1.07813 -1.32813,-2.46875 -0.4375,-1.40625 -0.4375,-2.95313 v -0.59375 q 0,-1.53125 0.4375,-2.9375 0.45313,-1.40625 1.32813,-2.46875 0.89062,-1.0625 2.20312,-1.6875 1.3125,-0.64062 3.07813,-0.64062 1.375,0 2.53125,0.4375 1.15625,0.4375 1.98437,1.1875 0.84375,0.75 1.3125,1.78125 0.46875,1.03125 0.46875,2.20312 h -2.5 q -0.0156,-0.70312 -0.3125,-1.3125 -0.29687,-0.625 -0.79687,-1.09375 -0.5,-0.48437 -1.20313,-0.75 -0.6875,-0.28125 -1.48437,-0.28125 -1.23438,0 -2.07813,0.5 -0.82812,0.5 -1.34375,1.29688 -0.51562,0.78125 -0.73437,1.78125 -0.21875,0.98437 -0.21875,1.98437 v 0.59375 q 0,1.01563 0.21875,2.01563 0.21875,1 0.71875,1.79687 0.51562,0.79688 1.34375,1.29688 0.84375,0.48437 2.09375,0.48437 z m 17.84973,2.14063 q -1.64063,0 -3.01563,-0.54688 -1.35937,-0.5625 -2.34375,-1.5625 -0.96875,-1 -1.51562,-2.375 -0.53125,-1.375 -0.53125,-3 v -0.59375 q 0,-1.89062 0.59375,-3.35937 0.60937,-1.48438 1.59375,-2.5 1,-1.03125 2.26562,-1.57813 1.26563,-0.54687 2.60938,-0.54687 1.67187,0 2.92187,0.57812 1.25,0.57813 2.07813,1.60938 0.82812,1.01562 1.23437,2.40625 0.42188,1.39062 0.42188,3.01562 v 1.1875 h -11.07813 q 0.0469,1.0625 0.40625,2 0.375,0.92188 1,1.625 0.64063,0.6875 1.53125,1.09375 0.89063,0.39063 1.96875,0.39063 1.40625,0 2.51563,-0.5625 1.10937,-0.57813 1.82812,-1.53125 l 1.625,1.26562 q -0.39062,0.57813 -0.96875,1.125 -0.57812,0.53125 -1.34375,0.95313 -0.75,0.40625 -1.71875,0.65625 -0.95312,0.25 -2.07812,0.25 z m -0.34375,-13.89063 q -0.8125,0 -1.53125,0.29688 -0.70313,0.29687 -1.28125,0.85937 -0.57813,0.5625 -0.96875,1.39063 -0.39063,0.82812 -0.54688,1.89062 h 8.32813 v -0.1875 q -0.0469,-0.78125 -0.29688,-1.53125 -0.25,-0.76562 -0.73437,-1.35937 -0.48438,-0.60938 -1.21875,-0.98438 -0.73438,-0.375 -1.75,-0.375 z" />
</svg>
