<?xml version="1.0" encoding="UTF-8" standalone="no"?>
<svg
   xmlns:dc="http://purl.org/dc/elements/1.1/"
   xmlns:cc="http://creativecommons.org/ns#"
   xmlns:rdf="http://www.w3.org/1999/02/22-rdf-syntax-ns#"
   xmlns:svg="http://www.w3.org/2000/svg"
   xmlns="http://www.w3.org/2000/svg"
   xmlns:sodipodi="http://sodipodi.sourceforge.net/DTD/sodipodi-0.dtd"
   xmlns:inkscape="http://www.inkscape.org/namespaces/inkscape"
   version="1.1"
   viewBox="0 0 1405.6296 536.88885"
   stroke-miterlimit="10"
   id="svg238"
   sodipodi:docname="knative-eventing-details.svg"
   width="1405.6296"
   height="536.88885"
   style="fill:none;stroke:none;stroke-linecap:square;stroke-miterlimit:10"
   inkscape:version="0.92.4 (unknown)">
  <metadata
     id="metadata244">
    <rdf:RDF>
      <cc:Work
         rdf:about="">
        <dc:format>image/svg+xml</dc:format>
        <dc:type
           rdf:resource="http://purl.org/dc/dcmitype/StillImage" />
        <dc:title></dc:title>
      </cc:Work>
    </rdf:RDF>
  </metadata>
  <defs
     id="defs242">
    <clipPath
       id="g5eaaacc56d_0_1920.1">
      <path
         d="M 0,0.23606557 H 306 V 71.771086 H 0 Z"
         id="path17"
         inkscape:connector-curvature="0"
         style="clip-rule:evenodd" />
    </clipPath>
  </defs>
  <sodipodi:namedview
     pagecolor="#ffffff"
     bordercolor="#666666"
     borderopacity="1"
     objecttolerance="10"
     gridtolerance="10"
     guidetolerance="10"
     inkscape:pageopacity="0"
     inkscape:pageshadow="2"
     inkscape:window-width="1830"
     inkscape:window-height="1051"
     id="namedview240"
     showgrid="false"
     inkscape:pagecheckerboard="true"
     fit-margin-top="0"
     fit-margin-left="0"
     fit-margin-right="0"
     fit-margin-bottom="0"
     inkscape:zoom="0.59662135"
     inkscape:cx="626.63256"
     inkscape:cy="399.49507"
     inkscape:window-x="82"
     inkscape:window-y="0"
     inkscape:window-maximized="1"
     inkscape:current-layer="svg238" />
  <clipPath
     id="g5eaaacc56d_0_1920.0">
    <path
       d="M 0,0 H 1536 V 864 H 0 Z"
       id="path2"
       inkscape:connector-curvature="0"
       style="clip-rule:nonzero" />
  </clipPath>
  <path
     style="fill:#ffffff;fill-rule:evenodd;stroke-width:1"
     inkscape:connector-curvature="0"
     id="path5"
     d="M 0,0 H 1405.6297 V 536.88888 H 0 Z" />
  <path
     style="fill:#ffffff;fill-rule:evenodd"
     inkscape:connector-curvature="0"
     id="path28"
     d="m 515.95846,221.31943 v 0 c 0,-6.08539 4.93317,-11.01859 11.01862,-11.01859 h 309.64783 c 2.9223,0 5.72491,1.16089 7.79132,3.22727 2.0664,2.06641 3.22729,4.86902 3.22729,7.79132 v 44.07309 c 0,6.08539 -4.93323,11.01856 -11.01861,11.01856 H 526.97708 v 0 c -6.08545,0 -11.01862,-4.93317 -11.01862,-11.01856 z" />
  <path
     style="fill-rule:evenodd;stroke:#595959;stroke-width:1;stroke-linecap:butt;stroke-linejoin:round"
     inkscape:connector-curvature="0"
     id="path30"
     d="m 515.95846,221.31943 v 0 c 0,-6.08539 4.93317,-11.01859 11.01862,-11.01859 h 309.64783 c 2.9223,0 5.72491,1.16089 7.79132,3.22727 2.0664,2.06641 3.22729,4.86902 3.22729,7.79132 v 44.07309 c 0,6.08539 -4.93323,11.01856 -11.01861,11.01856 H 526.97708 v 0 c -6.08545,0 -11.01862,-4.93317 -11.01862,-11.01856 z" />
  <path
     style="fill:#000000;fill-rule:nonzero"
     inkscape:connector-curvature="0"
     id="path32"
     d="m 644.41026,246.65661 2.78125,0.70312 q -0.875,3.42188 -3.14063,5.21875 -2.26562,1.79688 -5.54687,1.79688 -3.39063,0 -5.51563,-1.375 -2.125,-1.39063 -3.25,-4 -1.10937,-2.625 -1.10937,-5.64063 0,-3.28125 1.25,-5.71878 1.26562,-2.4375 3.57812,-3.70312 2.3125,-1.28125 5.09375,-1.28125 3.14063,0 5.28125,1.60937 2.15625,1.60938 3,4.51563 l -2.73437,0.64065 q -0.71875,-2.2969 -2.10938,-3.32815 -1.39062,-1.04688 -3.5,-1.04688 -2.42187,0 -4.04687,1.15625 -1.625,1.15625 -2.28125,3.10938 -0.65625,1.95315 -0.65625,4.03128 0,2.6875 0.78125,4.6875 0.78125,1.98437 2.42187,2.98437 1.64063,0.98438 3.5625,0.98438 2.34375,0 3.95313,-1.34375 1.625,-1.35938 2.1875,-4 z m 5.883,7.35937 v -21.00003 h 2.57812 v 7.53129 q 1.79688,-2.07816 4.54688,-2.07816 1.6875,0 2.9375,0.67188 1.25,0.65628 1.78125,1.82815 0.54687,1.17188 0.54687,3.40625 v 9.64063 h -2.57812 v -9.64063 q 0,-1.9375 -0.84375,-2.8125 -0.84375,-0.875 -2.375,-0.875 -1.14063,0 -2.15625,0.59375 -1,0.59375 -1.4375,1.60938 -0.42188,1.01562 -0.42188,2.8125 v 8.3125 z m 26.23278,-1.875 q -1.4375,1.21875 -2.76562,1.71875 -1.3125,0.5 -2.82813,0.5 -2.51562,0 -3.85937,-1.21875 -1.34375,-1.23437 -1.34375,-3.14062 0,-1.10938 0.5,-2.03125 0.51562,-0.92188 1.32812,-1.48438 0.82813,-0.5625 1.85938,-0.84375 0.76562,-0.20312 2.29687,-0.39062 3.125,-0.375 4.59375,-0.89063 0.0156,-0.53125 0.0156,-0.67187 0,-1.57813 -0.73438,-2.21875 -0.98437,-0.875 -2.9375,-0.875 -1.8125,0 -2.6875,0.64062 -0.85937,0.64063 -1.26562,2.25 l -2.53125,-0.34375 q 0.34375,-1.60937 1.125,-2.60937 0.79687,-1 2.28125,-1.53128 1.5,-0.53125 3.45312,-0.53125 1.95313,0 3.17188,0.45312 1.21875,0.45313 1.78125,1.15628 0.57812,0.6875 0.8125,1.75 0.125,0.65625 0.125,2.375 v 3.4375 q 0,3.59375 0.15625,4.54688 0.17187,0.95312 0.65625,1.82812 h -2.6875 q -0.40625,-0.79687 -0.51563,-1.875 z m -0.21875,-5.75 q -1.40625,0.5625 -4.20312,0.96875 -1.59375,0.21875 -2.25,0.51563 -0.65625,0.28125 -1.01563,0.84375 -0.35937,0.54687 -0.35937,1.21875 0,1.03125 0.78125,1.71875 0.78125,0.6875 2.28125,0.6875 1.48437,0 2.64062,-0.65625 1.17188,-0.65625 1.71875,-1.78125 0.40625,-0.875 0.40625,-2.57813 z m 6.60779,7.625 v -15.20315 h 2.3125 v 2.15628 q 1.67188,-2.50003 4.84375,-2.50003 1.375,0 2.53125,0.5 1.15625,0.48441 1.71875,1.2969 0.57813,0.79688 0.8125,1.89063 0.14063,0.71875 0.14063,2.51562 v 9.34375 h -2.57813 v -9.25 q 0,-1.57812 -0.3125,-2.35937 -0.29687,-0.78125 -1.0625,-1.23438 -0.76562,-0.46875 -1.79687,-0.46875 -1.64063,0 -2.84375,1.04688 -1.1875,1.03125 -1.1875,3.95312 v 8.3125 z m 16.31091,0 v -15.20315 h 2.3125 v 2.15628 q 1.67188,-2.50003 4.84375,-2.50003 1.375,0 2.53125,0.5 1.15625,0.48441 1.71875,1.2969 0.57813,0.79688 0.8125,1.89063 0.14063,0.71875 0.14063,2.51562 v 9.34375 h -2.57813 v -9.25 q 0,-1.57812 -0.3125,-2.35937 -0.29687,-0.78125 -1.0625,-1.23438 -0.76562,-0.46875 -1.79687,-0.46875 -1.64063,0 -2.84375,1.04688 -1.1875,1.03125 -1.1875,3.95312 v 8.3125 z m 26.71717,-4.89062 2.65625,0.32812 q -0.625,2.32813 -2.32813,3.625 -1.70312,1.28125 -4.35937,1.28125 -3.32813,0 -5.28125,-2.04687 -1.95313,-2.0625 -1.95313,-5.76563 0,-3.84375 1.96875,-5.95312 1.98438,-2.12503 5.125,-2.12503 3.0625,0 4.98438,2.07815 1.9375,2.0625 1.9375,5.84375 0,0.21875 -0.0156,0.67188 h -11.34375 q 0.14063,2.51562 1.42188,3.84375 1.28125,1.32812 3.17187,1.32812 1.42188,0 2.42188,-0.73437 1,-0.75 1.59375,-2.375 z m -8.46875,-4.17188 h 8.5 q -0.17188,-1.92187 -0.96875,-2.875 -1.23438,-1.5 -3.20313,-1.5 -1.76562,0 -2.98437,1.1875 -1.20313,1.1875 -1.34375,3.1875 z m 14.31091,9.0625 v -21.00003 h 2.57813 v 21.00003 z" />
  <path
     style="fill:#c9daf8;fill-rule:evenodd"
     inkscape:connector-curvature="0"
     id="path34"
     d="m 171.26556,123.82105 v 0 c 0,-18.25757 14.80069,-33.05826 33.05827,-33.05826 v 0 c 8.76758,0 17.17609,3.48291 23.3757,9.68256 6.19965,6.19961 9.68256,14.60812 9.68256,23.3757 v 0 c 0,18.2576 -14.80069,33.05829 -33.05826,33.05829 v 0 c -18.25758,0 -33.05827,-14.80069 -33.05827,-33.05829 z" />
  <path
     style="fill-rule:evenodd;stroke:#595959;stroke-width:1;stroke-linecap:butt;stroke-linejoin:round"
     inkscape:connector-curvature="0"
     id="path36"
     d="m 171.26556,123.82105 v 0 c 0,-18.25757 14.80069,-33.05826 33.05827,-33.05826 v 0 c 8.76758,0 17.17609,3.48291 23.3757,9.68256 6.19965,6.19961 9.68256,14.60812 9.68256,23.3757 v 0 c 0,18.2576 -14.80069,33.05829 -33.05826,33.05829 v 0 c -18.25758,0 -33.05827,-14.80069 -33.05827,-33.05829 z" />
  <path
     style="fill:#c9daf8;fill-rule:evenodd"
     inkscape:connector-curvature="0"
     id="path38"
     d="m 171.26556,243.35911 v 0 c 0,-18.2576 14.80069,-33.05829 33.05827,-33.05829 v 0 c 8.76758,0 17.17609,3.48291 23.3757,9.68256 6.19965,6.19961 9.68256,14.60812 9.68256,23.37573 v 0 c 0,18.25757 -14.80069,33.05823 -33.05826,33.05823 v 0 c -18.25758,0 -33.05827,-14.80066 -33.05827,-33.05823 z" />
  <path
     style="fill-rule:evenodd;stroke:#595959;stroke-width:1;stroke-linecap:butt;stroke-linejoin:round"
     inkscape:connector-curvature="0"
     id="path40"
     d="m 171.26556,243.35911 v 0 c 0,-18.2576 14.80069,-33.05829 33.05827,-33.05829 v 0 c 8.76758,0 17.17609,3.48291 23.3757,9.68256 6.19965,6.19961 9.68256,14.60812 9.68256,23.37573 v 0 c 0,18.25757 -14.80069,33.05823 -33.05826,33.05823 v 0 c -18.25758,0 -33.05827,-14.80066 -33.05827,-33.05823 z" />
  <path
     style="fill:#c9daf8;fill-rule:evenodd"
     inkscape:connector-curvature="0"
     id="path42"
     d="m 171.26556,362.89716 v 0 c 0,-18.25757 14.80069,-33.05823 33.05827,-33.05823 v 0 c 8.76758,0 17.17609,3.48291 23.3757,9.6825 6.19965,6.19964 9.68256,14.60815 9.68256,23.37573 v 0 c 0,18.25757 -14.80069,33.05829 -33.05826,33.05829 v 0 c -18.25758,0 -33.05827,-14.80072 -33.05827,-33.05829 z" />
  <path
     style="fill-rule:evenodd;stroke:#595959;stroke-width:1;stroke-linecap:butt;stroke-linejoin:round"
     inkscape:connector-curvature="0"
     id="path44"
     d="m 171.26556,362.89716 v 0 c 0,-18.25757 14.80069,-33.05823 33.05827,-33.05823 v 0 c 8.76758,0 17.17609,3.48291 23.3757,9.6825 6.19965,6.19964 9.68256,14.60815 9.68256,23.37573 v 0 c 0,18.25757 -14.80069,33.05829 -33.05826,33.05829 v 0 c -18.25758,0 -33.05827,-14.80072 -33.05827,-33.05829 z" />
  <path
     style="fill:#000000;fill-opacity:0;fill-rule:evenodd"
     inkscape:connector-curvature="0"
     id="path46"
     d="m 237.38209,123.82105 278.5764,119.53387" />
  <path
     style="fill-rule:evenodd;stroke:#a4c2f4;stroke-width:3;stroke-linecap:butt;stroke-linejoin:round"
     inkscape:connector-curvature="0"
     id="path48"
     d="m 237.38209,123.82105 269.1282,115.47977" />
  <path
     style="fill:#a4c2f4;fill-rule:evenodd;stroke:#a4c2f4;stroke-width:3;stroke-linecap:butt"
     inkscape:connector-curvature="0"
     id="path50"
     d="m 506.5103,239.30081 -4.43073,1.77005 9.84858,0.55469 -7.18793,-6.75547 z" />
  <path
     style="fill:#000000;fill-opacity:0;fill-rule:evenodd"
     inkscape:connector-curvature="0"
     id="path52"
     d="m 237.38209,243.35911 h 278.5764" />
  <path
     style="fill-rule:evenodd;stroke:#a4c2f4;stroke-width:3;stroke-linecap:butt;stroke-linejoin:round"
     inkscape:connector-curvature="0"
     id="path54"
     d="M 237.38209,243.35907 H 505.67723" />
  <path
     style="fill:#a4c2f4;fill-rule:evenodd;stroke:#a4c2f4;stroke-width:3;stroke-linecap:butt"
     inkscape:connector-curvature="0"
     id="path56"
     d="m 505.67723,243.35907 -3.37378,3.37378 9.26935,-3.37378 -9.26935,-3.37372 z" />
  <path
     style="fill:#000000;fill-opacity:0;fill-rule:evenodd"
     inkscape:connector-curvature="0"
     id="path58"
     d="M 237.38209,362.89716 515.95849,243.36335" />
  <path
     style="fill-rule:evenodd;stroke:#a4c2f4;stroke-width:3;stroke-linecap:butt;stroke-linejoin:round"
     inkscape:connector-curvature="0"
     id="path60"
     d="M 237.38209,362.89716 506.51029,247.41742" />
  <path
     style="fill:#a4c2f4;fill-rule:evenodd;stroke:#a4c2f4;stroke-width:3;stroke-linecap:butt"
     inkscape:connector-curvature="0"
     id="path62"
     d="m 506.5103,247.41741 -1.77008,4.43073 7.18793,-6.75544 -9.84858,0.55469 z" />
  <path
     style="fill:#000000;fill-opacity:0;fill-rule:evenodd"
     inkscape:connector-curvature="0"
     id="path64"
     d="M -26.496121,218.41425 H 151.54483 v 49.88977 H -26.496121 Z" />
  <path
     style="fill:#000000;fill-rule:nonzero"
     inkscape:connector-curvature="0"
     id="path66"
     d="m 15.562245,253.89421 v -15.26562 h 5.765625 q 1.515625,0 2.328125,0.14062 1.109375,0.1875 1.875,0.71875 0.765625,0.53125 1.21875,1.48438 0.46875,0.9375 0.46875,2.07812 0,1.9375 -1.25,3.29688 -1.234375,1.34375 -4.46875,1.34375 h -3.90625 v 6.20312 z m 2.03125,-8.01562 h 3.9375 q 1.96875,0 2.78125,-0.71875 0.828125,-0.73438 0.828125,-2.04688 0,-0.96875 -0.484375,-1.64062 -0.484375,-0.6875 -1.28125,-0.90625 -0.5,-0.14063 -1.875,-0.14063 h -3.90625 z m 11.944443,8.01562 v -11.0625 h 1.6875 v 1.67188 q 0.640621,-1.17188 1.187501,-1.54688 0.54687,-0.375 1.20312,-0.375 0.95313,0 1.92188,0.60938 l -0.64063,1.73437 q -0.6875,-0.40625 -1.375,-0.40625 -0.60937,0 -1.10937,0.375 -0.48438,0.35938 -0.6875,1.01563 -0.3125,1 -0.3125,2.1875 v 5.79687 z m 6.414931,-5.53125 q 0,-3.07812 1.71875,-4.54687 1.42188,-1.23438 3.46875,-1.23438 2.28125,0 3.71875,1.5 1.45313,1.48438 1.45313,4.125 0,2.14063 -0.64063,3.35938 -0.625,1.21875 -1.85937,1.90625 -1.21875,0.67187 -2.67188,0.67187 -2.3125,0 -3.75,-1.48437 -1.4375,-1.5 -1.4375,-4.29688 z m 1.9375,0 q 0,2.125 0.92188,3.1875 0.92187,1.04688 2.32812,1.04688 1.40625,0 2.32813,-1.0625 0.92187,-1.0625 0.92187,-3.23438 0,-2.04687 -0.9375,-3.10937 -0.92187,-1.0625 -2.3125,-1.0625 -1.40625,0 -2.32812,1.0625 -0.92188,1.04687 -0.92188,3.17187 z m 17.7992,5.53125 v -1.39062 q -1.04688,1.64062 -3.09375,1.64062 -1.3125,0 -2.42188,-0.71875 -1.10937,-0.73437 -1.71875,-2.04687 -0.60937,-1.3125 -0.60937,-3 0,-1.65625 0.54687,-3 0.54688,-1.35938 1.65625,-2.07813 1.10938,-0.71875 2.46875,-0.71875 1,0 1.78125,0.42188 0.78125,0.42187 1.26563,1.09375 v -5.46875 h 1.875 v 15.26562 z m -5.92188,-5.51562 q 0,2.125 0.89063,3.17187 0.90625,1.04688 2.125,1.04688 1.21875,0 2.07812,-1 0.85938,-1 0.85938,-3.0625 0,-2.28125 -0.875,-3.34375 -0.875,-1.0625 -2.15625,-1.0625 -1.25,0 -2.09375,1.03125 -0.82813,1.01562 -0.82813,3.21875 z m 17.86169,5.51562 v -1.625 q -1.29688,1.875 -3.51563,1.875 -0.96875,0 -1.82812,-0.375 -0.84375,-0.375 -1.26563,-0.9375 -0.40625,-0.57812 -0.5625,-1.39062 -0.125,-0.5625 -0.125,-1.75 v -6.85938 h 1.875 v 6.14063 q 0,1.46875 0.125,1.96875 0.17188,0.75 0.73438,1.17187 0.57812,0.42188 1.42187,0.42188 0.84375,0 1.57813,-0.4375 0.75,-0.4375 1.04687,-1.17188 0.3125,-0.75 0.3125,-2.17187 v -5.92188 h 1.875 v 11.0625 z m 11.83044,-4.04687 1.84375,0.23437 q -0.29687,1.90625 -1.54687,2.98438 -1.25,1.07812 -3.0625,1.07812 -2.26563,0 -3.65625,-1.48437 -1.375,-1.48438 -1.375,-4.25 0,-1.79688 0.59375,-3.14063 0.59375,-1.34375 1.8125,-2.01562 1.21875,-0.67188 2.64062,-0.67188 1.79688,0 2.9375,0.92188 1.15625,0.90625 1.48438,2.57812 l -1.82813,0.28125 q -0.26562,-1.10937 -0.92187,-1.67187 -0.65625,-0.5625 -1.59375,-0.5625 -1.42188,0 -2.3125,1.01562 -0.875,1.01563 -0.875,3.20313 0,2.23437 0.84375,3.25 0.85937,1 2.23437,1 1.10938,0 1.84375,-0.67188 0.73438,-0.67187 0.9375,-2.07812 z m 11.02344,0.48437 1.92187,0.23438 q -0.45312,1.70312 -1.6875,2.64062 -1.23437,0.9375 -3.17187,0.9375 -2.42188,0 -3.84375,-1.48437 -1.42188,-1.5 -1.42188,-4.20313 0,-2.79687 1.4375,-4.32812 1.4375,-1.54688 3.73438,-1.54688 2.21875,0 3.60937,1.51563 1.40625,1.5 1.40625,4.25 0,0.15625 0,0.5 h -8.25 q 0.10938,1.8125 1.03125,2.78125 0.92188,0.96875 2.3125,0.96875 1.03125,0 1.75,-0.53125 0.73438,-0.54688 1.17188,-1.73438 z m -6.15625,-3.03125 h 6.17187 q -0.125,-1.39062 -0.70312,-2.09375 -0.90625,-1.07812 -2.32813,-1.07812 -1.29687,0 -2.17187,0.85937 -0.875,0.85938 -0.96875,2.3125 z m 10.42419,6.59375 v -11.0625 h 1.6875 v 1.67188 q 0.64063,-1.17188 1.1875,-1.54688 0.54688,-0.375 1.20313,-0.375 0.95312,0 1.921871,0.60938 l -0.64062,1.73437 q -0.687501,-0.40625 -1.375001,-0.40625 -0.60938,0 -1.10938,0.375 -0.48437,0.35938 -0.6875,1.01563 -0.3125,1 -0.3125,2.1875 v 5.79687 z m 6.368061,-3.29687 1.85938,-0.29688 q 0.15625,1.10938 0.85937,1.70313 0.71875,0.59375 2,0.59375 1.29688,0 1.92188,-0.51563 0.625,-0.53125 0.625,-1.23437 0,-0.64063 -0.5625,-1 -0.375,-0.25 -1.90625,-0.64063 -2.0625,-0.51562 -2.85938,-0.89062 -0.79687,-0.39063 -1.21875,-1.0625 -0.40625,-0.67188 -0.40625,-1.48438 0,-0.73437 0.32813,-1.35937 0.34375,-0.64063 0.9375,-1.0625 0.4375,-0.3125 1.1875,-0.53125 0.75,-0.23438 1.625,-0.23438 1.29687,0 2.28125,0.375 0.98437,0.375 1.45312,1.01563 0.46875,0.64062 0.64063,1.71875 l -1.82813,0.25 q -0.125,-0.85938 -0.73437,-1.32813 -0.59375,-0.48437 -1.6875,-0.48437 -1.28125,0 -1.84375,0.42187 -0.54688,0.42188 -0.54688,1 0,0.35938 0.23438,0.65625 0.21875,0.29688 0.71875,0.5 0.28125,0.10938 1.65625,0.48438 1.98437,0.53125 2.76562,0.875 0.79688,0.32812 1.23438,0.98437 0.45312,0.64063 0.45312,1.59375 0,0.9375 -0.54687,1.76563 -0.54688,0.82812 -1.57813,1.28125 -1.03125,0.45312 -2.32812,0.45312 -2.15625,0 -3.29688,-0.89062 -1.125,-0.90625 -1.4375,-2.65625 z" />
  <path
     style="fill:#000000;fill-opacity:0;fill-rule:evenodd"
     inkscape:connector-curvature="0"
     id="path68"
     d="m 492.22936,24.82684 h 366.0598 v 49.88974 h -366.0598 z" />
  <path
     style="fill:#000000;fill-opacity:0;fill-rule:evenodd"
     inkscape:connector-curvature="0"
     id="path82"
     d="M 675.25926,74.71658 383.53013,185.93548" />
  <path
     style="fill:#000000;fill-opacity:0;fill-rule:evenodd"
     inkscape:connector-curvature="0"
     id="path86"
     d="m 675.25926,74.71658 311.7355,105.42364" />
  <path
     style="fill:#000000;fill-opacity:0;fill-rule:evenodd"
     inkscape:connector-curvature="0"
     id="path90"
     d="M 681.80101,276.41107 424.84351,533.36859" />
  <path
     style="fill:#000000;fill-opacity:0;fill-rule:evenodd"
     inkscape:connector-curvature="0"
     id="path94"
     d="m 681.80101,276.41107 258.51965,258.5197" />
  <path
     style="fill:#c9daf8;fill-rule:evenodd"
     inkscape:connector-curvature="0"
     id="path152"
     d="m 1165.231,120.30191 v 0 c 0,-18.2576 14.8007,-33.05829 33.0582,-33.05829 v 0 c 8.7676,0 17.1762,3.48291 23.3758,9.68256 6.1995,6.19961 9.6825,14.60812 9.6825,23.37573 v 0 c 0,18.25757 -14.8007,33.05826 -33.0583,33.05826 v 0 c -18.2575,0 -33.0582,-14.80069 -33.0582,-33.05826 z" />
  <path
     style="fill-rule:evenodd;stroke:#595959;stroke-width:1;stroke-linecap:butt;stroke-linejoin:round"
     inkscape:connector-curvature="0"
     id="path154"
     d="m 1165.231,120.30191 v 0 c 0,-18.2576 14.8007,-33.05829 33.0582,-33.05829 v 0 c 8.7676,0 17.1762,3.48291 23.3758,9.68256 6.1995,6.19961 9.6825,14.60812 9.6825,23.37573 v 0 c 0,18.25757 -14.8007,33.05826 -33.0583,33.05826 v 0 c -18.2575,0 -33.0582,-14.80069 -33.0582,-33.05826 z" />
  <path
     style="fill:#c9daf8;fill-rule:evenodd"
     inkscape:connector-curvature="0"
     id="path156"
     d="m 1165.231,239.83997 v 0 c 0,-18.2576 14.8007,-33.05829 33.0582,-33.05829 v 0 c 8.7676,0 17.1762,3.48291 23.3758,9.68256 6.1995,6.19961 9.6825,14.60812 9.6825,23.37573 v 0 c 0,18.25757 -14.8007,33.05823 -33.0583,33.05823 v 0 c -18.2575,0 -33.0582,-14.80066 -33.0582,-33.05823 z" />
  <path
     style="fill-rule:evenodd;stroke:#595959;stroke-width:1;stroke-linecap:butt;stroke-linejoin:round"
     inkscape:connector-curvature="0"
     id="path158"
     d="m 1165.231,239.83997 v 0 c 0,-18.2576 14.8007,-33.05829 33.0582,-33.05829 v 0 c 8.7676,0 17.1762,3.48291 23.3758,9.68256 6.1995,6.19961 9.6825,14.60812 9.6825,23.37573 v 0 c 0,18.25757 -14.8007,33.05823 -33.0583,33.05823 v 0 c -18.2575,0 -33.0582,-14.80066 -33.0582,-33.05823 z" />
  <path
     style="fill:#c9daf8;fill-rule:evenodd"
     inkscape:connector-curvature="0"
     id="path160"
     d="m 1165.231,359.37801 v 0 c 0,-18.25757 14.8007,-33.05823 33.0582,-33.05823 v 0 c 8.7676,0 17.1762,3.48291 23.3758,9.6825 6.1995,6.19964 9.6825,14.60815 9.6825,23.37573 v 0 c 0,18.25763 -14.8007,33.05829 -33.0583,33.05829 v 0 c -18.2575,0 -33.0582,-14.80066 -33.0582,-33.05829 z" />
  <path
     style="fill-rule:evenodd;stroke:#595959;stroke-width:1;stroke-linecap:butt;stroke-linejoin:round"
     inkscape:connector-curvature="0"
     id="path162"
     d="m 1165.231,359.37801 v 0 c 0,-18.25757 14.8007,-33.05823 33.0582,-33.05823 v 0 c 8.7676,0 17.1762,3.48291 23.3758,9.6825 6.1995,6.19964 9.6825,14.60815 9.6825,23.37573 v 0 c 0,18.25763 -14.8007,33.05829 -33.0583,33.05829 v 0 c -18.2575,0 -33.0582,-14.80066 -33.0582,-33.05829 z" />
  <path
     style="fill:#000000;fill-opacity:0;fill-rule:evenodd"
     inkscape:connector-curvature="0"
     id="path164"
     d="M 847.64356,243.35596 1165.2247,120.29456" />
  <path
     style="fill-rule:evenodd;stroke:#a4c2f4;stroke-width:3;stroke-linecap:butt;stroke-linejoin:round"
     inkscape:connector-curvature="0"
     id="path166"
     d="M 847.64356,243.35596 1155.638,124.00937" />
  <path
     style="fill:#a4c2f4;fill-rule:evenodd;stroke:#a4c2f4;stroke-width:3;stroke-linecap:butt"
     inkscape:connector-curvature="0"
     id="path168"
     d="m 1155.638,124.00934 -1.9268,4.36484 7.4241,-6.495 -9.862,0.20334 z" />
  <path
     style="fill:#000000;fill-opacity:0;fill-rule:evenodd"
     inkscape:connector-curvature="0"
     id="path170"
     d="m 847.64356,243.35596 317.58114,-3.52753" />
  <path
     style="fill-rule:evenodd;stroke:#a4c2f4;stroke-width:3;stroke-linecap:butt;stroke-linejoin:round"
     inkscape:connector-curvature="0"
     id="path172"
     d="m 847.64356,243.35596 307.30054,-3.41333" />
  <path
     style="fill:#a4c2f4;fill-rule:evenodd;stroke:#a4c2f4;stroke-width:3;stroke-linecap:butt"
     inkscape:connector-curvature="0"
     id="path174"
     d="m 1154.9441,239.94261 -3.3362,3.41101 9.2313,-3.4765 -9.3061,-3.2706 z" />
  <path
     style="fill:#000000;fill-opacity:0;fill-rule:evenodd"
     inkscape:connector-curvature="0"
     id="path176"
     d="M 847.44126,243.48331 1166.131,366.99832" />
  <path
     style="fill-rule:evenodd;stroke:#a4c2f4;stroke-width:3;stroke-linecap:butt;stroke-linejoin:round"
     inkscape:connector-curvature="0"
     id="path178"
     d="M 847.44126,243.48331 1156.5446,363.28287" />
  <path
     style="fill:#a4c2f4;fill-rule:evenodd;stroke:#a4c2f4;stroke-width:3;stroke-linecap:butt"
     inkscape:connector-curvature="0"
     id="path180"
     d="m 1156.5446,363.28291 -4.365,1.92657 9.8621,0.20398 -7.4236,-6.49548 z" />
  <path
     style="fill:#000000;fill-opacity:0;fill-rule:evenodd"
     inkscape:connector-curvature="0"
     id="path182"
     d="m 1246.9738,214.89508 h 178.0409 v 49.88977 h -178.0409 z" />
  <path
     style="fill:#000000;fill-rule:nonzero"
     inkscape:connector-curvature="0"
     id="path184"
     d="m 1294.0023,245.01571 2.0313,0.51562 q -0.6407,2.48438 -2.2969,3.79688 -1.6406,1.3125 -4.0313,1.3125 -2.4687,0 -4.0156,-1 -1.5469,-1.01563 -2.3594,-2.92188 -0.7968,-1.90625 -0.7968,-4.09375 0,-2.39062 0.9062,-4.15625 0.9219,-1.78125 2.5938,-2.70312 1.6875,-0.92188 3.7031,-0.92188 2.2969,0 3.8594,1.17188 1.5625,1.17187 2.1718,3.28125 l -1.9843,0.46875 q -0.5313,-1.67188 -1.5469,-2.42188 -1,-0.76562 -2.5313,-0.76562 -1.7656,0 -2.9531,0.84375 -1.1719,0.84375 -1.6562,2.26562 -0.4844,1.42188 -0.4844,2.92188 0,1.95312 0.5625,3.40625 0.5781,1.45312 1.7656,2.17187 1.2031,0.71875 2.6094,0.71875 1.6875,0 2.8594,-0.96875 1.1875,-0.98437 1.5937,-2.92187 z m 3.5743,-0.17188 q 0,-3.07812 1.7188,-4.54687 1.4219,-1.23438 3.4687,-1.23438 2.2813,0 3.7188,1.5 1.4531,1.48438 1.4531,4.125 0,2.14063 -0.6406,3.35938 -0.625,1.21875 -1.8594,1.90625 -1.2187,0.67187 -2.6719,0.67187 -2.3125,0 -3.75,-1.48437 -1.4375,-1.5 -1.4375,-4.29688 z m 1.9375,0 q 0,2.125 0.9219,3.1875 0.9219,1.04688 2.3281,1.04688 1.4063,0 2.3282,-1.0625 0.9218,-1.0625 0.9218,-3.23438 0,-2.04687 -0.9375,-3.10937 -0.9218,-1.0625 -2.3125,-1.0625 -1.4062,0 -2.3281,1.0625 -0.9219,1.04687 -0.9219,3.17187 z m 10.6274,5.53125 v -11.0625 h 1.6875 v 1.57813 q 1.2187,-1.82813 3.5156,-1.82813 1,0 1.8437,0.35938 0.8438,0.35937 1.25,0.95312 0.4219,0.57813 0.5938,1.375 0.094,0.51563 0.094,1.82813 v 6.79687 h -1.875 v -6.73437 q 0,-1.14063 -0.2187,-1.70313 -0.2188,-0.57812 -0.7813,-0.90625 -0.5468,-0.34375 -1.2968,-0.34375 -1.2032,0 -2.0782,0.76563 -0.8593,0.75 -0.8593,2.875 v 6.04687 z m 11.1117,-3.29687 1.8593,-0.29688 q 0.1563,1.10938 0.8594,1.70313 0.7188,0.59375 2,0.59375 1.2969,0 1.9219,-0.51563 0.625,-0.53125 0.625,-1.23437 0,-0.64063 -0.5625,-1 -0.375,-0.25 -1.9063,-0.64063 -2.0625,-0.51562 -2.8593,-0.89062 -0.7969,-0.39063 -1.2188,-1.0625 -0.4062,-0.67188 -0.4062,-1.48438 0,-0.73437 0.3281,-1.35937 0.3437,-0.64063 0.9375,-1.0625 0.4375,-0.3125 1.1875,-0.53125 0.75,-0.23438 1.625,-0.23438 1.2969,0 2.2812,0.375 0.9844,0.375 1.4532,1.01563 0.4687,0.64062 0.6406,1.71875 l -1.8281,0.25 q -0.125,-0.85938 -0.7344,-1.32813 -0.5938,-0.48437 -1.6875,-0.48437 -1.2813,0 -1.8438,0.42187 -0.5468,0.42188 -0.5468,1 0,0.35938 0.2343,0.65625 0.2188,0.29688 0.7188,0.5 0.2812,0.10938 1.6562,0.48438 1.9844,0.53125 2.7657,0.875 0.7968,0.32812 1.2343,0.98437 0.4532,0.64063 0.4532,1.59375 0,0.9375 -0.5469,1.76563 -0.5469,0.82812 -1.5781,1.28125 -1.0313,0.45312 -2.3282,0.45312 -2.1562,0 -3.2968,-0.89062 -1.125,-0.90625 -1.4375,-2.65625 z m 18.664,3.29687 v -1.625 q -1.2969,1.875 -3.5156,1.875 -0.9688,0 -1.8281,-0.375 -0.8438,-0.375 -1.2657,-0.9375 -0.4062,-0.57812 -0.5625,-1.39062 -0.125,-0.5625 -0.125,-1.75 v -6.85938 h 1.875 v 6.14063 q 0,1.46875 0.125,1.96875 0.1719,0.75 0.7344,1.17187 0.5781,0.42188 1.4219,0.42188 0.8437,0 1.5781,-0.4375 0.75,-0.4375 1.0469,-1.17188 0.3125,-0.75 0.3125,-2.17187 v -5.92188 h 1.875 v 11.0625 z m 4.6117,0 v -11.0625 h 1.6719 v 1.54688 q 0.5312,-0.8125 1.3906,-1.29688 0.8594,-0.5 1.9688,-0.5 1.2343,0 2.0156,0.51563 0.7812,0.5 1.1094,1.42187 1.3125,-1.9375 3.4062,-1.9375 1.6563,0 2.5313,0.92188 0.8906,0.90625 0.8906,2.79687 v 7.59375 h -1.8594 v -6.96875 q 0,-1.125 -0.1875,-1.60937 -0.1875,-0.5 -0.6719,-0.79688 -0.4687,-0.3125 -1.1093,-0.3125 -1.1719,0 -1.9375,0.78125 -0.7657,0.76563 -0.7657,2.48438 v 6.42187 h -1.875 v -7.1875 q 0,-1.25 -0.4687,-1.875 -0.4531,-0.625 -1.5,-0.625 -0.7813,0 -1.4531,0.42188 -0.6719,0.40625 -0.9844,1.21875 -0.2969,0.79687 -0.2969,2.3125 v 5.73437 z m 25.3446,-3.5625 1.9219,0.23438 q -0.4531,1.70312 -1.6875,2.64062 -1.2344,0.9375 -3.1719,0.9375 -2.4219,0 -3.8437,-1.48437 -1.4219,-1.5 -1.4219,-4.20313 0,-2.79687 1.4375,-4.32812 1.4375,-1.54688 3.7344,-1.54688 2.2187,0 3.6093,1.51563 1.4063,1.5 1.4063,4.25 0,0.15625 0,0.5 h -8.25 q 0.1094,1.8125 1.0312,2.78125 0.9219,0.96875 2.3125,0.96875 1.0313,0 1.75,-0.53125 0.7344,-0.54688 1.1719,-1.73438 z m -6.1562,-3.03125 h 6.1718 q -0.125,-1.39062 -0.7031,-2.09375 -0.9062,-1.07812 -2.3281,-1.07812 -1.2969,0 -2.1719,0.85937 -0.875,0.85938 -0.9687,2.3125 z m 10.4242,6.59375 v -11.0625 h 1.6875 v 1.67188 q 0.6406,-1.17188 1.1875,-1.54688 0.5468,-0.375 1.2031,-0.375 0.9531,0 1.9219,0.60938 l -0.6407,1.73437 q -0.6875,-0.40625 -1.375,-0.40625 -0.6093,0 -1.1093,0.375 -0.4844,0.35938 -0.6875,1.01563 -0.3125,1 -0.3125,2.1875 v 5.79687 z m 6.368,-3.29687 1.8594,-0.29688 q 0.1562,1.10938 0.8594,1.70313 0.7187,0.59375 2,0.59375 1.2968,0 1.9218,-0.51563 0.625,-0.53125 0.625,-1.23437 0,-0.64063 -0.5625,-1 -0.375,-0.25 -1.9062,-0.64063 -2.0625,-0.51562 -2.8594,-0.89062 -0.7969,-0.39063 -1.2187,-1.0625 -0.4063,-0.67188 -0.4063,-1.48438 0,-0.73437 0.3281,-1.35937 0.3438,-0.64063 0.9375,-1.0625 0.4375,-0.3125 1.1875,-0.53125 0.75,-0.23438 1.625,-0.23438 1.2969,0 2.2813,0.375 0.9844,0.375 1.4531,1.01563 0.4688,0.64062 0.6406,1.71875 l -1.8281,0.25 q -0.125,-0.85938 -0.7344,-1.32813 -0.5937,-0.48437 -1.6875,-0.48437 -1.2812,0 -1.8437,0.42187 -0.5469,0.42188 -0.5469,1 0,0.35938 0.2344,0.65625 0.2187,0.29688 0.7187,0.5 0.2813,0.10938 1.6563,0.48438 1.9844,0.53125 2.7656,0.875 0.7969,0.32812 1.2344,0.98437 0.4531,0.64063 0.4531,1.59375 0,0.9375 -0.5469,1.76563 -0.5468,0.82812 -1.5781,1.28125 -1.0312,0.45312 -2.3281,0.45312 -2.1563,0 -3.2969,-0.89062 -1.125,-0.90625 -1.4375,-2.65625 z" />
  <path
     style="fill:#f4cccc;fill-rule:evenodd"
     inkscape:connector-curvature="0"
     id="path186"
     d="m 1003.6399,153.60373 v 0 c -0.7793,-2.03638 0.2399,-4.31888 2.2762,-5.09808 l 99.964,-38.24915 c 0.9779,-0.37418 2.0645,-0.34454 3.0207,0.0823 0.956,0.42691 1.7035,1.21612 2.0777,2.19403 l 5.6441,14.74841 c 0.7793,2.03638 -0.2399,4.31888 -2.2763,5.09808 l -99.964,38.24912 c -2.0365,0.7792 -4.3191,-0.23996 -5.0984,-2.27634 z" />
  <path
     style="fill-rule:evenodd;stroke:#595959;stroke-width:1;stroke-linecap:butt;stroke-linejoin:round"
     inkscape:connector-curvature="0"
     id="path188"
     d="m 1003.6399,153.60373 v 0 c -0.7793,-2.03638 0.2399,-4.31888 2.2762,-5.09808 l 99.964,-38.24915 c 0.9779,-0.37418 2.0645,-0.34454 3.0207,0.0823 0.956,0.42691 1.7035,1.21612 2.0777,2.19403 l 5.6441,14.74841 c 0.7793,2.03638 -0.2399,4.31888 -2.2763,5.09808 l -99.964,38.24912 c -2.0365,0.7792 -4.3191,-0.23996 -5.0984,-2.27634 z" />
  <path
     style="fill:#000000;fill-rule:nonzero"
     inkscape:connector-curvature="0"
     id="path190"
     d="m 1027.0565,154.95821 1.0845,-0.5321 q 0.3299,0.64334 0.7893,0.96945 0.4538,0.31152 1.1527,0.34527 0.7134,0.0281 1.4723,-0.2622 0.6712,-0.25687 1.1037,-0.65659 0.4473,-0.40533 0.5669,-0.83588 0.114,-0.44516 -0.048,-0.86834 -0.1619,-0.42322 -0.5273,-0.63474 -0.3508,-0.2171 -0.9891,-0.22381 -0.4207,-0.006 -1.7582,0.17083 -1.3375,0.17719 -1.9342,0.10437 -0.756,-0.0955 -1.2668,-0.46887 -0.4964,-0.37887 -0.731,-0.99179 -0.2568,-0.67126 -0.1008,-1.40018 0.156,-0.72888 0.7684,-1.31454 0.627,-0.59122 1.5318,-0.93741 0.9777,-0.37411 1.8595,-0.34341 0.8817,0.0307 1.5304,0.50183 0.6431,0.45654 0.9683,1.21881 l -1.0902,0.51752 q -0.426,-0.80732 -1.1133,-1.02948 -0.693,-0.23679 -1.7144,0.15408 -1.0653,0.40762 -1.4107,0.99148 -0.3308,0.57825 -0.1186,1.13279 0.1843,0.48156 0.6372,0.6596 0.4675,0.17243 2.0261,-0.0391 1.5676,-0.23175 2.1822,-0.19928 0.9278,0.0633 1.5048,0.47821 0.5714,0.40036 0.8507,1.13001 0.2681,0.70047 0.1051,1.4989 -0.1538,0.77826 -0.7932,1.4244 -0.6305,0.62601 -1.579,0.98896 -1.2113,0.46344 -2.1624,0.4259 -0.9513,-0.0375 -1.6864,-0.5593 -0.7406,-0.53637 -1.1104,-1.41537 z m 13.892,-2.03647 -0.3631,-0.94855 q -0.3399,1.38483 -1.6241,1.87622 -0.5692,0.21775 -1.1492,0.18873 -0.5798,-0.0291 -0.9508,-0.25519 -0.3619,-0.24628 -0.6484,-0.68875 -0.1812,-0.29874 -0.4492,-0.99918 l -1.5302,-3.99847 1.0945,-0.4188 1.3681,3.57529 q 0.3295,0.86096 0.4996,1.13049 0.2697,0.39872 0.7003,0.51838 0.425,0.10504 0.9211,-0.0848 0.4816,-0.18427 0.8245,-0.59986 0.3429,-0.41559 0.3504,-0.92038 0.01,-0.50479 -0.3051,-1.32199 l -1.3235,-3.45852 1.0945,-0.4188 2.4684,6.45008 z m 3.6978,-1.41492 -1.0069,0.38529 -3.4121,-8.91629 1.0945,-0.41879 1.2174,3.18127 q 0.3564,-1.12341 1.4362,-1.53662 0.5984,-0.22894 1.2187,-0.18189 0.6292,0.0269 1.1324,0.33625 0.5122,0.28918 0.9365,0.8295 0.4242,0.54031 0.6923,1.24078 0.6367,1.6636 0.1657,2.88104 -0.471,1.21747 -1.6238,1.65857 -1.1383,0.43555 -2.158,-0.26172 z m -1.2509,-3.26882 q 0.4411,1.15286 0.9431,1.54635 0.8492,0.64536 1.7248,0.31033 0.7151,-0.27362 1.0059,-1.08752 0.2853,-0.82852 -0.1895,-2.06891 -0.4802,-1.255 -1.2199,-1.65787 -0.7307,-0.42306 -1.4458,-0.14944 -0.7151,0.27359 -1.0003,1.10211 -0.2706,0.82294 0.1817,2.00495 z m 5.992,-0.75361 1.013,-0.58828 q 0.3534,0.61758 0.8961,0.81146 0.5516,0.17371 1.2959,-0.11105 0.7588,-0.29038 1.0063,-0.73642 0.2476,-0.44605 0.091,-0.85465 -0.1396,-0.36481 -0.5589,-0.45529 -0.2748,-0.0622 -1.2488,0.0595 -1.3285,0.15701 -1.8793,0.11679 -0.5417,-0.0604 -0.9349,-0.34488 -0.3843,-0.30466 -0.5686,-0.78622 -0.162,-0.42319 -0.1118,-0.8606 0.059,-0.45761 0.2998,-0.83411 0.1956,-0.27563 0.5831,-0.57446 0.3876,-0.29886 0.8983,-0.49429 0.7589,-0.29038 1.4117,-0.28925 0.653,0.001 1.0755,0.27448 0.4169,0.25873 0.7591,0.84714 l -1.0095,0.55352 q -0.2628,-0.46823 -0.7191,-0.61148 -0.4619,-0.15787 -1.1041,0.0878 -0.7588,0.29035 -0.9849,0.66129 -0.2262,0.37091 -0.098,0.70654 0.084,0.2189 0.2821,0.34378 0.2129,0.11926 0.5349,0.12991 0.1828,-0.003 1.0692,-0.0912 1.2847,-0.14026 1.8153,-0.10907 0.5395,0.011 0.9474,0.28994 0.4079,0.2789 0.6201,0.83344 0.2123,0.55453 0.075,1.15893 -0.1367,0.60441 -0.6491,1.1016 -0.4978,0.49161 -1.2566,0.78198 -1.255,0.48019 -2.1128,0.20612 -0.8577,-0.27405 -1.4384,-1.223 z m 10.7117,-4.60049 1.1359,-0.26727 q 0.2492,1.17608 -0.2403,2.08276 -0.4896,0.90668 -1.5549,1.3143 -1.3134,0.50253 -2.4601,-0.0457 -1.1377,-0.56849 -1.7519,-2.17371 -0.4021,-1.05069 -0.3534,-1.97272 0.049,-0.92203 0.6039,-1.56946 0.5643,-0.6676 1.3961,-0.9859 1.0508,-0.40201 1.9287,-0.11892 0.8723,0.26849 1.4361,1.17361 l -1.0039,0.56815 q -0.4118,-0.59528 -0.9287,-0.76554 -0.5078,-0.19046 -1.0478,0.0161 -0.8318,0.31829 -1.1282,1.11761 -0.2817,0.79373 0.2041,2.06332 0.5026,1.31336 1.2222,1.70725 0.7341,0.38827 1.5367,0.0812 0.6421,-0.2457 0.9146,-0.80164 0.2869,-0.56152 0.091,-1.4234 z m 2.8967,1.60187 -2.4684,-6.45008 0.9924,-0.3797 0.3742,0.97773 q 0.117,-0.83103 0.3396,-1.16718 0.2373,-0.34176 0.6312,-0.49252 0.5546,-0.21219 1.2579,-0.0797 l 0.01,1.1521 q -0.4979,-0.0772 -0.8919,0.0736 -0.3649,0.13959 -0.5729,0.47016 -0.1936,0.32501 -0.1652,0.74908 0.034,0.65631 0.2962,1.34217 l 1.2956,3.38555 z m 1.2482,-9.24396 -0.4858,-1.26959 1.0944,-0.4188 0.4859,1.2696 z m 2.9263,7.6467 -2.4684,-6.45008 1.0946,-0.41879 2.4683,6.45008 z m 3.7003,1.42819 -3.4177,-8.93088 1.0069,-0.38528 0.3184,0.83182 q 0.1603,-0.63019 0.5088,-1.03119 0.3574,-0.42118 0.985,-0.66129 0.8171,-0.31268 1.6066,-0.12958 0.804,0.17749 1.4211,0.82807 0.617,0.6506 0.9745,1.58453 0.3741,0.97772 0.331,1.91437 -0.049,0.92203 -0.5726,1.60763 -0.5093,0.68006 -1.2682,0.97043 -0.5399,0.20661 -1.067,0.14063 -0.5273,-0.066 -0.9385,-0.31012 l 1.2063,3.15207 z m -1.1801,-6.05634 q 0.4804,1.25498 1.2055,1.66346 0.7341,0.38827 1.4492,0.11465 0.7296,-0.27917 1.0205,-1.09311 0.2908,-0.8139 -0.2063,-2.11267 -0.469,-1.2258 -1.2143,-1.64328 -0.7509,-0.43207 -1.4515,-0.16403 -0.7004,0.268 -0.9891,1.13129 -0.2886,0.86328 0.186,2.10369 z m 9.1729,-0.96688 0.529,0.90173 q -0.4278,0.28082 -0.7927,0.42041 -0.5983,0.22894 -1.0065,0.16766 -0.3936,-0.0669 -0.6423,-0.32306 -0.2485,-0.25619 -0.6283,-1.2485 l -1.4184,-3.7066 -0.8028,0.30709 -0.3238,-0.8464 0.8026,-0.3071 -0.6143,-1.60522 0.8432,-1.07547 0.8656,2.2619 1.0944,-0.41876 0.324,0.84637 -1.0945,0.41879 1.4465,3.77957 q 0.1787,0.46695 0.2727,0.58155 0.1086,0.10901 0.2734,0.1463 0.1593,0.0227 0.4073,-0.0722 0.1897,-0.0726 0.4649,-0.22805 z m -1.4724,-7.0821 -0.4859,-1.26959 1.0945,-0.41879 0.486,1.26959 z m 2.9264,7.64667 -2.4684,-6.45007 1.0945,-0.41876 2.4683,6.45007 z m 1.1081,-4.12128 q -0.6869,-1.79492 -0.01,-3.04119 0.5582,-1.03333 1.7549,-1.49118 1.328,-0.50815 2.5094,0.0436 1.1759,0.53711 1.7679,2.08399 0.4746,1.24039 0.3689,2.10062 -0.091,0.85464 -0.6555,1.52227 -0.5643,0.66761 -1.4106,0.99146 -1.3572,0.51929 -2.5331,-0.0178 -1.1669,-0.55732 -1.7924,-2.19172 z m 1.1237,-0.42996 q 0.4747,1.24042 1.2491,1.64673 0.7892,0.4007 1.6063,0.088 0.8173,-0.31268 1.1227,-1.1322 0.2998,-0.83407 -0.186,-2.10367 -0.458,-1.19662 -1.2471,-1.59735 -0.7745,-0.40631 -1.5771,-0.0992 -0.8172,0.31268 -1.1372,1.13779 -0.3055,0.81949 0.1693,2.05987 z m 7.4421,0.8497 -2.4684,-6.45007 0.9923,-0.3797 0.3518,0.91937 q 0.2929,-1.33331 1.6354,-1.84701 0.5838,-0.22336 1.1581,-0.2089 0.5743,0.0144 0.9419,0.27533 0.3766,0.24073 0.6573,0.66861 0.1757,0.28412 0.4661,1.04294 l 1.5191,3.96927 -1.0945,0.41879 -1.5023,-3.9255 q -0.2569,-0.67127 -0.511,-0.94205 -0.2598,-0.2854 -0.6535,-0.35226 -0.3993,-0.0815 -0.837,0.0861 -0.7006,0.26804 -1.0437,0.90125 -0.3433,0.63321 0.1315,1.87363 l 1.3514,3.53149 z" />
  <path
     style="fill:#f4cccc;fill-rule:evenodd"
     inkscape:connector-curvature="0"
     id="path192"
     d="m 1018.3023,280.08771 v 0 c 0.8071,-2.0271 3.105,-3.0166 5.1323,-2.21002 l 99.4427,39.56109 c 0.9735,0.38733 1.7532,1.14551 2.1676,2.10773 0.4143,0.96216 0.4293,2.04962 0.042,3.02307 l -5.8456,14.68122 c -0.8071,2.02716 -3.105,3.0166 -5.1323,2.21008 l -99.4425,-39.56116 c -2.0273,-0.80658 -3.0166,-3.1037 -2.2095,-5.1308 z" />
  <path
     style="fill-rule:evenodd;stroke:#595959;stroke-width:1;stroke-linecap:butt;stroke-linejoin:round"
     inkscape:connector-curvature="0"
     id="path194"
     d="m 1018.3023,280.08771 v 0 c 0.8071,-2.0271 3.105,-3.0166 5.1323,-2.21002 l 99.4427,39.56109 c 0.9735,0.38733 1.7532,1.14551 2.1676,2.10773 0.4143,0.96216 0.4293,2.04962 0.042,3.02307 l -5.8456,14.68122 c -0.8071,2.02716 -3.105,3.0166 -5.1323,2.21008 l -99.4425,-39.56116 c -2.0273,-0.80658 -3.0166,-3.1037 -2.2095,-5.1308 z" />
  <path
     style="fill:#000000;fill-rule:nonzero"
     inkscape:connector-curvature="0"
     id="path196"
     d="m 1034.6061,296.94714 1.1584,0.34314 q -0.1933,0.69665 -0.076,1.24768 0.1228,0.5365 0.614,1.03461 0.5058,0.50384 1.2607,0.8042 0.6678,0.26568 1.2569,0.26458 0.6035,0.005 0.9833,-0.23095 0.3856,-0.25025 0.5532,-0.67121 0.1676,-0.42096 0.042,-0.82403 -0.1108,-0.39722 -0.5758,-0.83448 -0.3051,-0.28955 -1.4091,-1.06506 -1.1039,-0.77551 -1.4935,-1.23315 -0.4914,-0.58228 -0.6142,-1.20288 -0.1084,-0.61487 0.1344,-1.22455 0.2659,-0.66779 0.8745,-1.09827 0.6086,-0.43048 1.4561,-0.44653 0.8618,-0.0103 1.7618,0.34778 0.9728,0.38702 1.6006,1.00671 0.6278,0.61969 0.7857,1.40564 0.1637,0.77142 -0.1135,1.55237 l -1.1527,-0.35767 q 0.2337,-0.88238 -0.1213,-1.51129 -0.3493,-0.64343 -1.3656,-1.04773 -1.0598,-0.42163 -1.7095,-0.22607 -0.6351,0.20135 -0.8549,0.75299 -0.1906,0.479 0.022,0.91675 0.227,0.44342 1.5168,1.34338 1.3102,0.89111 1.7404,1.33136 0.6395,0.6748 0.7828,1.37079 0.1491,0.68152 -0.1399,1.40735 -0.2774,0.69677 -0.9383,1.17382 -0.6405,0.46827 -1.5487,0.51056 -0.8878,0.0335 -1.8316,-0.34192 -1.205,-0.47937 -1.8792,-1.15124 -0.6744,-0.67181 -0.8615,-1.55347 -0.1814,-0.89612 0.1421,-1.79321 z m 11.5989,7.91034 0.3757,-0.9436 q -1.1885,0.78845 -2.4661,0.28015 -0.5662,-0.22528 -0.9731,-0.63941 -0.407,-0.41412 -0.5266,-0.83166 -0.099,-0.42627 -0.01,-0.94574 0.069,-0.34247 0.3466,-1.03931 l 1.5837,-3.97754 1.0889,0.43317 -1.4161,3.55658 q -0.341,0.85651 -0.3986,1.16992 -0.072,0.47595 0.1639,0.85559 0.2415,0.36505 0.7352,0.56146 0.479,0.19062 1.0128,0.11707 0.5338,-0.0735 0.8814,-0.4397 0.3477,-0.36615 0.6713,-1.17908 l 1.3699,-3.44042 1.0888,0.43316 -2.5546,6.41632 z m 3.6789,1.46356 -1.0018,-0.3985 3.5316,-8.86963 1.0889,0.43317 -1.26,3.16461 q 1.0234,-0.58502 2.0978,-0.15759 0.5952,0.23682 1.0196,0.69153 0.4447,0.44592 0.6051,1.01428 0.1809,0.55963 0.1268,1.24438 -0.054,0.68476 -0.3314,1.3816 -0.6589,1.6549 -1.8303,2.23144 -1.1714,0.5766 -2.3184,0.1203 -1.1324,-0.4505 -1.41,-1.65399 z m 1.2947,-3.25171 q -0.4567,1.14679 -0.354,1.77619 0.1874,1.04986 1.0585,1.39642 0.7114,0.28302 1.4768,-0.11871 0.7712,-0.41632 1.2626,-1.65021 0.497,-1.24841 0.2259,-2.04578 -0.251,-0.80609 -0.9623,-1.08905 -0.7114,-0.28302 -1.4826,0.13324 -0.7566,0.42206 -1.2249,1.5979 z m 4.9185,3.50379 1.1436,0.25317 q -0.1584,0.69366 0.1093,1.2038 0.2881,0.5014 1.0286,0.79596 0.755,0.30035 1.2392,0.13989 0.4844,-0.16046 0.6463,-0.5669 0.1445,-0.36291 -0.1028,-0.71356 -0.1599,-0.23175 -0.9589,-0.80188 -1.0836,-0.78424 -1.4615,-1.18677 -0.3576,-0.41131 -0.4541,-0.88696 -0.076,-0.48437 0.1145,-0.96338 0.1676,-0.42102 0.5008,-0.7088 0.3535,-0.29657 0.7858,-0.41052 0.3307,-0.0702 0.8182,-0.0276 0.4876,0.0427 0.9958,0.24481 0.755,0.30036 1.2344,0.74335 0.4795,0.44299 0.605,0.93018 0.1314,0.47265 -0.016,1.13726 l -1.1176,-0.27642 q 0.124,-0.52247 -0.1147,-0.93689 -0.2329,-0.42896 -0.8717,-0.68311 -0.7549,-0.30035 -1.1726,-0.1806 -0.4176,0.11969 -0.5505,0.45361 -0.087,0.21771 -0.025,0.44391 0.076,0.23193 0.3054,0.45782 0.1366,0.12159 0.8484,0.65705 1.04,0.7669 1.4092,1.14917 0.3894,0.37353 0.5005,0.85492 0.111,0.48138 -0.1087,1.03302 -0.2196,0.55163 -0.7297,0.90362 -0.5101,0.35199 -1.224,0.37073 -0.6992,0.0245 -1.4542,-0.27588 -1.2486,-0.4967 -1.6938,-1.27924 -0.4453,-0.78247 -0.2293,-1.87371 z m 10.9967,3.87036 1.0166,0.57257 q -0.6136,1.03393 -1.588,1.36932 -0.9745,0.33545 -2.0343,-0.0862 -1.3067,-0.51984 -1.7786,-1.69977 -0.4518,-1.18866 0.1841,-2.78546 0.4161,-1.04523 1.0766,-1.69049 0.6607,-0.64526 1.5078,-0.74548 0.8675,-0.10889 1.695,0.22033 1.0453,0.41584 1.4993,1.21863 0.4598,0.78827 0.2612,1.836 l -1.1234,-0.26196 q 0.1004,-0.7168 -0.1644,-1.19208 -0.2446,-0.48407 -0.7818,-0.69775 -0.8275,-0.32923 -1.5871,0.058 -0.7452,0.39301 -1.248,1.65595 -0.5202,1.30651 -0.2578,2.08355 0.277,0.78278 1.0755,1.10047 0.6388,0.25415 1.2159,0.0297 0.5916,-0.21863 1.0314,-0.98535 z m 1.0454,3.14007 2.5548,-6.41638 0.9872,0.39276 -0.3872,0.97266 q 0.6491,-0.53211 1.0406,-0.6286 0.4061,-0.0907 0.7981,0.0653 0.5518,0.21942 0.9793,0.79309 l -0.7764,0.8515 q -0.314,-0.39398 -0.7059,-0.54993 -0.3631,-0.14441 -0.7402,-0.0422 -0.3625,0.10797 -0.6289,0.4392 -0.4199,0.50562 -0.6916,1.18787 l -1.341,3.36786 z m 7.1817,-5.95453 0.503,-1.26293 1.0888,0.43316 -0.5029,1.263 z m -3.0286,7.60669 2.5546,-6.41632 1.0889,0.43317 -2.5547,6.41638 z m 1.7541,3.55664 3.5375,-8.88415 1.0017,0.3985 -0.3295,0.82745 q 0.5449,-0.35492 1.073,-0.41394 0.5484,-0.0677 1.1726,0.18067 0.813,0.32342 1.2697,0.99279 0.4712,0.67511 0.4842,1.57154 0.013,0.89642 -0.3568,1.8255 -0.3873,0.97259 -1.0536,1.63244 -0.6606,0.64527 -1.5106,0.79474 -0.8354,0.15534 -1.5903,-0.14502 -0.5372,-0.21368 -0.8803,-0.61926 -0.3431,-0.40552 -0.4802,-0.86365 l -1.2485,3.13556 z m 3.2357,-5.25421 q -0.497,1.24842 -0.2405,2.03998 0.277,0.78284 0.9885,1.06586 0.7258,0.28876 1.4913,-0.11298 0.7654,-0.40179 1.2798,-1.69378 0.4856,-1.21936 0.2202,-2.03119 -0.2597,-0.82642 -0.9566,-1.10364 -0.6969,-0.27722 -1.4941,0.16229 -0.7972,0.43958 -1.2886,1.67346 z m 7.4026,5.50104 -0.2217,1.02161 q -0.5051,-0.0832 -0.868,-0.2276 -0.5952,-0.23682 -0.854,-0.55835 -0.2443,-0.3158 -0.2536,-0.67261 -0.01,-0.35681 0.3837,-1.34399 l 1.4682,-3.6872 -0.7985,-0.31769 0.3352,-0.84192 0.7986,0.31763 0.6357,-1.5968 1.349,-0.22003 -0.8959,2.25006 1.0889,0.43317 -0.3353,0.84198 -1.0889,-0.43323 -1.4969,3.75982 q -0.185,0.46454 -0.1935,0.61249 0.01,0.15375 0.102,0.29285 0.1018,0.12457 0.3487,0.22278 0.1887,0.0751 0.4963,0.14703 z m 3.7158,-6.20673 0.5028,-1.26293 1.0889,0.43316 -0.5028,1.26294 z m -3.0288,7.60669 2.5548,-6.41632 1.0889,0.43317 -2.5548,6.41632 z m 3.6078,-2.28106 q 0.711,-1.78559 2.0537,-2.24353 1.1107,-0.38208 2.3013,0.0915 1.3212,0.52557 1.8164,1.73157 0.501,1.19146 -0.1117,2.73022 -0.4913,1.23395 -1.152,1.79505 -0.6462,0.56695 -1.5136,0.6759 -0.8675,0.10889 -1.7095,-0.22608 -1.3502,-0.53717 -1.8513,-1.72863 -0.4807,-1.2002 0.1667,-2.82605 z m 1.1178,0.4447 q -0.4912,1.23395 -0.1969,2.05731 0.309,0.82916 1.1221,1.15265 0.813,0.32343 1.5929,-0.0726 0.7857,-0.41052 1.2886,-1.67346 0.474,-1.19037 0.165,-2.01953 -0.2944,-0.82337 -1.0929,-1.14106 -0.813,-0.32342 -1.6075,0.0668 -0.78,0.39599 -1.2713,1.62988 z m 4.8987,5.66522 2.5548,-6.41638 0.9873,0.39276 -0.3641,0.91455 q 1.1187,-0.78247 2.4544,-0.2511 0.5807,0.23102 0.9934,0.63068 0.4128,0.3996 0.5063,0.84039 0.1139,0.43207 0.031,0.93701 -0.063,0.32795 -0.3639,1.08283 l -1.5722,3.94855 -1.0889,-0.43323 1.5549,-3.90497 q 0.2659,-0.66772 0.2623,-1.03906 0,-0.38587 -0.2419,-0.70166 -0.2385,-0.33032 -0.6741,-0.5036 -0.6969,-0.27723 -1.3784,-0.0439 -0.6815,0.23334 -1.1728,1.46729 l -1.3988,3.513 z" />
  <path
     style="fill:#f4cccc;fill-rule:evenodd"
     inkscape:connector-curvature="0"
     id="path198"
     d="m 1011.2969,216.35781 v 0 c 0,-2.18021 1.7675,-3.94836 3.9476,-3.94934 l 107.0529,-0.0469 c 1.047,-4.8e-4 2.051,0.41498 2.7914,1.15497 0.7402,0.74002 1.1561,1.7439 1.1561,2.79086 v 15.78989 c 0,2.18018 -1.7673,3.94837 -3.9475,3.94931 l -107.0529,0.0469 c -2.1801,9.4e-4 -3.9476,-1.76566 -3.9476,-3.94586 z" />
  <path
     style="fill-rule:evenodd;stroke:#595959;stroke-width:1;stroke-linecap:butt;stroke-linejoin:round"
     inkscape:connector-curvature="0"
     id="path200"
     d="m 1011.2969,216.35781 v 0 c 0,-2.18021 1.7675,-3.94836 3.9476,-3.94934 l 107.0529,-0.0469 c 1.047,-4.8e-4 2.051,0.41498 2.7914,1.15497 0.7402,0.74002 1.1561,1.7439 1.1561,2.79086 v 15.78989 c 0,2.18018 -1.7673,3.94837 -3.9475,3.94931 l -107.0529,0.0469 c -2.1801,9.4e-4 -3.9476,-1.76566 -3.9476,-3.94586 z" />
  <path
     style="fill:#000000;fill-rule:nonzero"
     inkscape:connector-curvature="0"
     id="path202"
     d="m 1032.6928,225.98087 1.2031,-0.10989 q 0.078,0.71869 0.3907,1.18731 0.3125,0.45298 0.9531,0.73395 0.6562,0.28098 1.4687,0.28061 0.7188,-3.1e-4 1.2657,-0.2193 0.5625,-0.21899 0.8281,-0.57849 0.2656,-0.37512 0.2656,-0.82825 0,-0.45312 -0.2656,-0.78113 -0.25,-0.328 -0.8438,-0.56213 -0.3906,-0.15607 -1.7031,-0.46799 -1.3125,-0.31195 -1.8437,-0.59295 -0.6719,-0.35907 -1.0157,-0.89017 -0.3281,-0.53113 -0.3281,-1.18738 0,-0.71875 0.4063,-1.3439 0.4062,-0.62518 1.1875,-0.95367 0.7968,-0.32847 1.7656,-0.32889 1.0469,-4.6e-4 1.8594,0.34292 0.8125,0.34342 1.25,1.01508 0.4375,0.65607 0.4687,1.48419 l -1.2031,0.0943 q -0.1094,-0.90619 -0.6719,-1.35907 -0.5625,-0.46851 -1.6562,-0.46805 -1.1407,5.2e-4 -1.6719,0.42261 -0.5156,0.42212 -0.5156,1.01587 0,0.51562 0.3593,0.8436 0.375,0.32794 1.9063,0.68664 1.5469,0.34308 2.1094,0.59284 0.8437,0.39025 1.2343,0.98382 0.3907,0.57797 0.3907,1.35922 0,0.75 -0.4375,1.43769 -0.4219,0.67205 -1.25,1.04742 -0.8125,0.35974 -1.8282,0.36017 -1.2968,5.8e-4 -2.1718,-0.37405 -0.875,-0.37461 -1.375,-1.12439 -0.5,-0.76542 -0.5313,-1.71851 z m 13.7023,3.05649 v -1.01563 q -0.8125,1.17224 -2.1875,1.17282 -0.6094,2.8e-4 -1.1407,-0.23385 -0.5312,-0.23416 -0.7968,-0.57779 -0.25,-0.35925 -0.3594,-0.87485 -0.062,-0.34372 -0.062,-1.09372 v -4.28125 l 1.1719,-5.2e-4 v 3.82813 q 0,0.92187 0.062,1.23437 0.1093,0.46869 0.4687,0.73416 0.3594,0.24985 0.8906,0.24961 0.5157,-2.2e-4 0.9844,-0.26605 0.4688,-0.26584 0.6563,-0.73468 0.1875,-0.46882 0.1875,-1.34382 v -3.70312 l 1.1718,-5.2e-4 v 6.90625 z m 3.9593,-0.002 -1.0781,4.9e-4 v -9.54688 l 1.1719,-5.2e-4 v 3.40625 q 0.7343,-0.92221 1.8906,-0.9227 0.6406,-3e-4 1.2031,0.26508 0.5781,0.24976 0.9375,0.71835 0.375,0.45294 0.5781,1.10913 0.2032,0.65616 0.2032,1.40616 0,1.78125 -0.875,2.75037 -0.875,0.96915 -2.1094,0.96966 -1.2188,5.5e-4 -1.9219,-1.01477 z m 0,-3.5 q 0,1.23437 0.3281,1.7811 0.5625,0.906 1.5,0.90561 0.7657,-3.4e-4 1.3282,-0.65683 0.5625,-0.67212 0.5625,-2.00025 0,-1.34375 -0.5469,-1.98413 -0.5313,-0.65604 -1.2969,-0.6557 -0.7656,3.4e-4 -1.3281,0.67245 -0.5469,0.67212 -0.5469,1.93775 z m 5.8656,1.43493 1.1563,-0.18801 q 0.1093,0.70309 0.5468,1.07788 0.4532,0.35919 1.25,0.35882 0.8125,-3.3e-4 1.2032,-0.32864 0.3906,-0.32828 0.3906,-0.76578 0,-0.39065 -0.3594,-0.62485 -0.2344,-0.15615 -1.1875,-0.3901 -1.2969,-0.32758 -1.7969,-0.56171 -0.4843,-0.24982 -0.75,-0.65594 -0.25,-0.42176 -0.25,-0.93738 0,-0.45313 0.2032,-0.84384 0.2187,-0.40634 0.5781,-0.67212 0.2812,-0.18762 0.75,-0.32846 0.4687,-0.14084 1.0156,-0.14109 0.8125,-3.3e-4 1.4219,0.23377 0.6094,0.2341 0.9062,0.64023 0.2969,0.3905 0.4063,1.06231 l -1.1406,0.15674 q -0.078,-0.53119 -0.4532,-0.82791 -0.375,-0.31235 -1.0625,-0.31204 -0.8125,3.7e-4 -1.1562,0.26614 -0.3438,0.26578 -0.3438,0.62516 0,0.23437 0.1407,0.42181 0.1562,0.18741 0.4531,0.31229 0.1719,0.0624 1.0312,0.29641 1.25,0.32758 1.7344,0.54611 0.5,0.20292 0.7813,0.60904 0.2812,0.40613 0.2812,0.99988 0,0.59375 -0.3437,1.10953 -0.3438,0.51578 -1,0.79733 -0.6407,0.28153 -1.4532,0.28186 -1.3437,6.1e-4 -2.0468,-0.56158 -0.7032,-0.5622 -0.9063,-1.65586 z m 11.6485,-0.47387 1.1562,0.15576 q -0.1875,1.18759 -0.9687,1.8598 -0.7813,0.67221 -1.9219,0.6727 -1.4063,6.4e-4 -2.2813,-0.92087 -0.8593,-0.9371 -0.8593,-2.65585 0,-1.125 0.375,-1.96893 0.375,-0.84391 1.125,-1.25049 0.7656,-0.42221 1.6562,-0.42261 1.125,-4.9e-4 1.8438,0.57733 0.7187,0.56217 0.9218,1.60895 l -1.1406,0.17239 q -0.1719,-0.70306 -0.5937,-1.04663 -0.4063,-0.35919 -0.9844,-0.35894 -0.8906,3.9e-4 -1.4531,0.64126 -0.5469,0.64087 -0.5469,2.00025 0,1.40625 0.5312,2.03103 0.5469,0.62476 1.4063,0.62436 0.6875,-2.7e-4 1.1406,-0.42236 0.4688,-0.42209 0.5938,-1.29715 z m 2.1328,2.53033 v -6.90625 l 1.0625,-4.6e-4 v 1.04688 q 0.4062,-0.73456 0.7343,-0.96909 0.3438,-0.23452 0.7657,-0.23471 0.5937,-2.7e-4 1.2031,0.37448 l -0.4063,1.07831 q -0.4375,-0.24981 -0.8593,-0.24963 -0.3907,1.8e-4 -0.7032,0.23468 -0.2968,0.2345 -0.4218,0.64081 -0.2032,0.62509 -0.2032,1.35946 v 3.625 z m 4.4696,-8.18945 v -1.35938 l 1.1719,-5.1e-4 v 1.35937 z m 0,8.1875 v -6.90625 l 1.1719,-5.2e-4 v 6.90625 z m 2.9454,2.65494 v -9.5625 l 1.0781,-4.6e-4 v 0.89062 q 0.375,-0.53143 0.8438,-0.78161 0.4844,-0.26584 1.1562,-0.26615 0.875,-3.6e-4 1.5469,0.45246 0.6875,0.45282 1.0313,1.28079 0.3437,0.82797 0.3437,1.82797 0,1.04688 -0.375,1.90644 -0.375,0.8439 -1.1094,1.29733 -0.7187,0.45346 -1.5312,0.45379 -0.5781,2.8e-4 -1.0469,-0.24954 -0.4687,-0.24978 -0.7656,-0.62466 v 3.375 z m 1.0625,-6.07859 q 0,1.34375 0.5313,1.98414 0.5468,0.62478 1.3125,0.62445 0.7812,-3.7e-4 1.3437,-0.65686 0.5625,-0.6565 0.5625,-2.04712 0,-1.3125 -0.5469,-1.96851 -0.5468,-0.67163 -1.2968,-0.67129 -0.75,3e-4 -1.3282,0.7037 -0.5781,0.70337 -0.5781,2.03149 z m 8.9125,2.3711 0.1719,1.03119 q -0.5,0.10959 -0.8907,0.10974 -0.6406,3e-4 -1,-0.20267 -0.3437,-0.20297 -0.4843,-0.53104 -0.1407,-0.32806 -0.1407,-1.39056 v -3.96875 l -0.8593,3.7e-4 v -0.90625 l 0.8593,-3.7e-4 v -1.71875 l 1.1719,-0.70364 v 2.42187 l 1.1719,-5.2e-4 v 0.90625 l -1.1719,5.2e-4 v 4.04688 q 0,0.5 0.047,0.64059 0.062,0.1406 0.2031,0.23428 0.1406,0.0781 0.4063,0.0779 0.2031,-6e-5 0.5156,-0.0471 z m 1.1561,-7.14115 v -1.35937 l 1.1719,-4.9e-4 v 1.35938 z m 0,8.1875 v -6.90625 l 1.1719,-4.8e-4 v 6.90625 z m 2.5079,-3.45422 q 0,-1.92187 1.0782,-2.84421 0.8906,-0.76602 2.1718,-0.76657 1.4219,-6.4e-4 2.3282,0.93646 0.9062,0.92148 0.9062,2.57773 0,1.32813 -0.4062,2.09394 -0.3907,0.7658 -1.1563,1.18801 -0.7656,0.42221 -1.6719,0.42261 -1.4531,6.4e-4 -2.3593,-0.92084 -0.8907,-0.93713 -0.8907,-2.68713 z m 1.2032,-5.2e-4 q 0,1.32813 0.5781,1.98413 0.5937,0.65598 1.4687,0.65561 0.875,-4e-4 1.4532,-0.65689 0.5781,-0.67212 0.5781,-2.03149 0,-1.28125 -0.5938,-1.93726 -0.5781,-0.65601 -1.4375,-0.65561 -0.875,3.7e-4 -1.4687,0.65689 -0.5781,0.6565 -0.5781,1.98462 z m 6.6468,3.45023 v -6.90625 l 1.0625,-4.9e-4 v 0.98437 q 0.75,-1.14093 2.1875,-1.14157 0.625,-2.7e-4 1.1563,0.21823 0.5312,0.21854 0.7812,0.59342 0.2656,0.35925 0.375,0.85922 0.062,0.3281 0.062,1.1406 v 4.25 l -1.1719,5.1e-4 v -4.20312 q 0,-0.71875 -0.1406,-1.06244 -0.1406,-0.35931 -0.4844,-0.56229 -0.3437,-0.21859 -0.8125,-0.21841 -0.75,3.4e-4 -1.2968,0.46933 -0.5469,0.46899 -0.5469,1.79712 v 3.78125 z" />
  <path
     style="fill:#000000;fill-opacity:0;fill-rule:evenodd"
     inkscape:connector-curvature="0"
     id="path204"
     d="M 847.64356,243.35596 1165.9302,471.53864" />
  <path
     style="fill-rule:evenodd;stroke:#a4c2f4;stroke-width:3;stroke-linecap:butt;stroke-linejoin:round"
     inkscape:connector-curvature="0"
     id="path206"
     d="M 847.64356,243.35596 1157.5744,465.54822" />
  <path
     style="fill:#a4c2f4;fill-rule:evenodd;stroke:#a4c2f4;stroke-width:3;stroke-linecap:butt"
     inkscape:connector-curvature="0"
     id="path208"
     d="m 1157.5744,465.54828 -4.7076,0.77618 9.499,2.65888 -5.5676,-8.1427 z" />
  <path
     style="fill:#c9daf8;fill-rule:evenodd"
     inkscape:connector-curvature="0"
     id="path210"
     d="m 1165.9364,471.49981 v 0 c 0,-18.25757 14.8008,-33.05829 33.0584,-33.05829 v 0 c 8.7675,0 17.176,3.48291 23.3757,9.68256 6.1996,6.19964 9.6825,14.60809 9.6825,23.37573 v 0 c 0,18.25757 -14.8007,33.05823 -33.0583,33.05823 v 0 c -18.2575,0 -33.0583,-14.80066 -33.0583,-33.05823 z" />
  <path
     style="fill-rule:evenodd;stroke:#595959;stroke-width:1;stroke-linecap:butt;stroke-linejoin:round"
     inkscape:connector-curvature="0"
     id="path212"
     d="m 1165.9364,471.49981 v 0 c 0,-18.25757 14.8008,-33.05829 33.0584,-33.05829 v 0 c 8.7675,0 17.176,3.48291 23.3757,9.68256 6.1996,6.19964 9.6825,14.60809 9.6825,23.37573 v 0 c 0,18.25757 -14.8007,33.05823 -33.0583,33.05823 v 0 c -18.2575,0 -33.0583,-14.80066 -33.0583,-33.05823 z" />
  <path
     style="fill:#f4cccc;fill-rule:evenodd"
     inkscape:connector-curvature="0"
     id="path214"
     d="m 1015.9992,330.70381 v 0 c 1.2385,-1.79517 3.6981,-2.24677 5.4937,-1.00867 l 88.1373,60.77631 c 0.8622,0.59454 1.4529,1.5072 1.642,2.53723 0.189,1.02997 -0.039,2.0929 -0.6336,2.95502 l -8.97,13.0014 c -1.2385,1.79517 -3.6981,2.24683 -5.4935,1.00873 l -88.1374,-60.77631 c -1.7955,-1.23809 -2.247,-3.69708 -1.0085,-5.49225 z" />
  <path
     style="fill-rule:evenodd;stroke:#595959;stroke-width:1;stroke-linecap:butt;stroke-linejoin:round"
     inkscape:connector-curvature="0"
     id="path216"
     d="m 1015.9992,330.70381 v 0 c 1.2385,-1.79517 3.6981,-2.24677 5.4937,-1.00867 l 88.1373,60.77631 c 0.8622,0.59454 1.4529,1.5072 1.642,2.53723 0.189,1.02997 -0.039,2.0929 -0.6336,2.95502 l -8.97,13.0014 c -1.2385,1.79517 -3.6981,2.24683 -5.4935,1.00873 l -88.1374,-60.77631 c -1.7955,-1.23809 -2.247,-3.69708 -1.0085,-5.49225 z" />
  <path
     style="fill:#000000;fill-rule:nonzero"
     inkscape:connector-curvature="0"
     id="path218"
     d="m 1028.1459,350.78371 1.0526,0.59296 q -0.3439,0.63598 -0.3528,1.19922 0,0.55035 0.3677,1.14556 0.3805,0.60401 1.0494,1.06525 0.5917,0.40802 1.1662,0.53845 0.5873,0.13922 1.01,-0.006 0.4316,-0.15783 0.689,-0.53082 0.2573,-0.37298 0.2249,-0.79382 -0.019,-0.41205 -0.3752,-0.94202 -0.2328,-0.35034 -1.1359,-1.35266 -0.9031,-1.00232 -1.1806,-1.5354 -0.349,-0.67718 -0.3304,-1.30963 0.032,-0.62354 0.4042,-1.1637 0.4082,-0.59161 1.0975,-0.87542 0.6895,-0.28382 1.519,-0.11042 0.8424,0.18232 1.6399,0.73224 0.8618,0.5943 1.3354,1.3385 0.4738,0.74414 0.4524,1.54553 -0.013,0.78852 -0.457,1.48792 l -1.0439,-0.60583 q 0.4247,-0.80805 0.2189,-1.50031 -0.1969,-0.70514 -1.0973,-1.32605 -0.9389,-0.64752 -1.6159,-0.60187 -0.6641,0.0546 -1.0013,0.54328 -0.2928,0.42443 -0.1832,0.89849 0.1223,0.48298 1.1788,1.64802 1.0783,1.16113 1.3995,1.68621 0.4727,0.80048 0.4571,1.51099 -0.01,0.69757 -0.4504,1.34064 -0.4259,0.61737 -1.1765,0.93487 -0.7288,0.31354 -1.6236,0.1521 -0.8729,-0.16546 -1.7091,-0.742 -1.0676,-0.73621 -1.5749,-1.54163 -0.5075,-0.80536 -0.4932,-1.70654 0.023,-0.914 0.5387,-1.71631 z m 9.5413,10.29932 0.5767,-0.836 q -1.3343,0.50335 -2.4664,-0.27722 -0.5016,-0.34589 -0.8059,-0.8404 -0.3042,-0.4945 -0.3276,-0.92822 0,-0.43774 0.201,-0.92426 0.1437,-0.31842 0.5696,-0.93573 l 2.4313,-3.52398 0.9647,0.66528 -2.174,3.15094 q -0.5234,0.75885 -0.6494,1.05151 -0.1761,0.44794 -0.031,0.87061 0.1539,0.40979 0.5913,0.71136 0.4244,0.29267 0.9612,0.34015 0.5367,0.0475 0.9572,-0.23193 0.4207,-0.27936 0.9175,-0.99963 l 2.1029,-3.04804 0.9649,0.66522 -3.922,5.68464 z m 3.2595,2.24762 -0.8876,-0.612 5.4215,-7.85816 0.9647,0.66528 -1.9343,2.80372 q 1.1281,-0.34192 2.08,0.31445 0.5273,0.36371 0.8396,0.90167 0.334,0.53394 0.3636,1.12378 0.051,0.58588 -0.154,1.24133 -0.2055,0.65546 -0.6314,1.27283 -1.0115,1.46613 -2.282,1.76679 -1.2705,0.30072 -2.2867,-0.40003 -1.0033,-0.69189 -1.0054,-1.927 z m 1.9875,-2.88086 q -0.7009,1.01605 -0.7413,1.65246 -0.052,1.06525 0.7202,1.59741 0.6303,0.43464 1.4661,0.21381 0.8446,-0.2337 1.5987,-1.3269 0.7632,-1.10602 0.6768,-1.94379 -0.065,-0.84174 -0.6951,-1.27637 -0.6302,-0.43463 -1.4748,-0.20093 -0.8318,0.24256 -1.5506,1.28431 z m 4.0126,4.513 1.0584,0.50207 q -0.3093,0.64081 -0.162,1.19788 0.1689,0.55304 0.8249,1.00537 0.6688,0.46124 1.1768,0.4129 0.5079,-0.0483 0.7563,-0.40845 0.2218,-0.32147 0.059,-0.71844 -0.1042,-0.26166 -0.7557,-0.99561 -0.8814,-1.00634 -1.1599,-1.48309 -0.2568,-0.48071 -0.2448,-0.96594 0.034,-0.48914 0.3267,-0.91358 0.2573,-0.37292 0.6463,-0.57916 0.4108,-0.2102 0.8574,-0.22485 0.3381,0.005 0.8039,0.1557 0.4657,0.15033 0.9159,0.46081 0.6689,0.46125 1.0375,1.00007 0.3686,0.53881 0.3823,1.04174 0.023,0.49005 -0.2689,1.10517 l -1.0279,-0.51886 q 0.2374,-0.48163 0.097,-0.93891 -0.1312,-0.47009 -0.6973,-0.86035 -0.6688,-0.46124 -1.1026,-0.43774 -0.4339,0.0235 -0.638,0.31927 -0.133,0.19293 -0.1237,0.42713 0.022,0.24298 0.1955,0.5144 0.106,0.14905 0.6804,0.82983 0.8427,0.97968 1.1172,1.4347 0.2963,0.45105 0.2971,0.94507 9e-4,0.49408 -0.3363,0.98278 -0.3371,0.48871 -0.9129,0.71802 -0.5758,0.22925 -1.2759,0.0882 -0.687,-0.13214 -1.356,-0.59339 -1.1062,-0.76281 -1.3656,-1.625 -0.2595,-0.86212 0.1945,-1.87774 z m 9.8557,6.2268 0.8632,0.78498 q -0.8288,0.87103 -1.8534,0.98053 -1.0248,0.10949 -1.9638,-0.53797 -1.1577,-0.79834 -1.3545,-2.05383 -0.1751,-1.25952 0.8009,-2.67426 0.639,-0.92602 1.4268,-1.40759 0.7878,-0.48163 1.636,-0.39026 0.8699,0.0873 1.6031,0.59296 0.9262,0.63867 1.1895,1.52252 0.2723,0.87103 -0.1549,1.84802 l -1.0366,-0.50604 q 0.2577,-0.67633 0.1056,-1.19873 -0.1303,-0.52643 -0.6062,-0.85461 -0.7333,-0.50562 -1.5602,-0.29761 -0.814,0.21686 -1.586,1.33575 -0.7985,1.15747 -0.7161,1.97351 0.095,0.82489 0.8028,1.31275 0.5659,0.39032 1.1786,0.30029 0.6255,-0.0812 1.2252,-0.73041 z m 0.3184,3.29425 3.922,-5.68463 0.8746,0.60315 -0.5945,0.8617 q 0.7515,-0.37384 1.1548,-0.3805 0.416,0.002 0.7633,0.24176 0.4889,0.33704 0.7776,0.99164 l -0.9468,0.6568 q -0.2181,-0.45416 -0.5654,-0.69366 -0.3217,-0.22174 -0.7119,-0.20618 -0.3776,0.0244 -0.7112,0.28778 -0.5221,0.39911 -0.9392,1.0036 l -2.0586,2.98377 z m 8.3292,-4.2019 0.772,-1.1189 0.9647,0.66523 -0.772,1.11889 z m -4.6495,6.7392 3.9218,-5.68457 0.9648,0.66522 -3.9219,5.68463 z m 0.9163,3.85846 5.4303,-7.87098 0.8876,0.61206 -0.5057,0.73304 q 0.6105,-0.22437 1.1383,-0.16407 0.5495,0.0563 1.1026,0.43775 0.7204,0.49676 1.0163,1.2511 0.3086,0.7633 0.1213,1.64007 -0.1872,0.87677 -0.7551,1.69989 -0.5946,0.8617 -1.3912,1.35614 -0.788,0.48163 -1.6498,0.43769 -0.8491,-0.035 -1.518,-0.49628 -0.4759,-0.32819 -0.7198,-0.80005 -0.244,-0.47186 -0.2754,-0.9491 l -1.9166,2.77802 z m 4.3263,-4.39978 q -0.763,1.10607 -0.6894,1.93493 0.095,0.82489 0.7256,1.25952 0.643,0.44355 1.4789,0.22266 0.8356,-0.22083 1.6254,-1.36548 0.7454,-1.08032 0.6678,-1.93097 -0.069,-0.86346 -0.6861,-1.28918 -0.6174,-0.42578 -1.4926,-0.17523 -0.8753,0.25055 -1.6296,1.34375 z m 5.9886,7.01434 -0.4441,0.94641 q -0.4738,-0.19385 -0.7954,-0.41559 -0.5274,-0.36365 -0.7079,-0.73486 -0.1676,-0.36237 -0.097,-0.71222 0.071,-0.34992 0.674,-1.22449 l 2.2538,-3.26672 -0.7076,-0.48786 0.5147,-0.74597 0.7075,0.48786 0.9761,-1.41468 1.364,0.0865 -1.3754,1.99347 0.9648,0.66522 -0.5147,0.74597 -0.9647,-0.66528 -2.2981,3.33106 q -0.2839,0.41156 -0.3253,0.55389 -0.028,0.15124 0.034,0.30823 0.071,0.14416 0.29,0.29492 0.1672,0.11536 0.4512,0.25415 z m 5.0068,-5.22119 0.7719,-1.11896 0.9648,0.66528 -0.772,1.1189 z m -4.6495,6.73919 3.9218,-5.68463 0.9648,0.66529 -3.9219,5.68457 z m 4.0256,-1.41857 q 1.0913,-1.58191 2.5024,-1.7287 1.168,-0.12458 2.2228,0.60272 1.1706,0.80719 1.3843,2.09332 0.2225,1.27326 -0.718,2.63654 -0.7543,1.0932 -1.5235,1.4928 -0.7564,0.40838 -1.6263,0.32104 -0.8699,-0.0874 -1.6158,-0.60187 -1.1963,-0.82489 -1.4189,-2.09814 -0.2009,-1.27728 0.793,-2.71771 z m 0.9905,0.68298 q -0.7543,1.0932 -0.651,1.96155 0.1161,0.87726 0.8364,1.37396 0.7203,0.4967 1.569,0.28473 0.8575,-0.22486 1.6295,-1.34375 0.7275,-1.05463 0.6114,-1.93183 -0.1032,-0.86834 -0.8108,-1.3562 -0.7203,-0.49676 -1.5817,-0.29364 -0.8487,0.21198 -1.6028,1.30518 z m 3.511,6.6156 3.922,-5.68463 0.8746,0.60321 -0.559,0.81024 q 1.2652,-0.51312 2.4486,0.30292 0.5146,0.3548 0.8277,0.83642 0.3131,0.48163 0.3059,0.93225 0.015,0.4466 -0.1793,0.92023 -0.1349,0.30554 -0.5962,0.97437 l -2.4136,3.49817 -0.9647,-0.66523 2.3868,-3.45965 q 0.4082,-0.59162 0.4877,-0.95435 0.088,-0.37567 -0.079,-0.73797 -0.1588,-0.37519 -0.5446,-0.6413 -0.6175,-0.42578 -1.3339,-0.3504 -0.7164,0.0754 -1.4706,1.16858 l -2.1473,3.11236 z" />
</svg>
