<?xml version="1.0" encoding="UTF-8" standalone="no"?>
<svg
   xmlns:dc="http://purl.org/dc/elements/1.1/"
   xmlns:cc="http://creativecommons.org/ns#"
   xmlns:rdf="http://www.w3.org/1999/02/22-rdf-syntax-ns#"
   xmlns:svg="http://www.w3.org/2000/svg"
   xmlns="http://www.w3.org/2000/svg"
   xmlns:sodipodi="http://sodipodi.sourceforge.net/DTD/sodipodi-0.dtd"
   xmlns:inkscape="http://www.inkscape.org/namespaces/inkscape"
   viewBox="0 0 616 224"
   version="1.1"
   id="svg1639"
   sodipodi:docname="red-hat-fuse-logo.svg"
   inkscape:version="0.92.4 (unknown)">
  <metadata
     id="metadata1643">
    <rdf:RDF>
      <cc:Work
         rdf:about="">
        <dc:format>image/svg+xml</dc:format>
        <dc:type
           rdf:resource="http://purl.org/dc/dcmitype/StillImage" />
        <dc:title>Logo-Red_Hat-AMQ-A-Standard copy 2-RGB</dc:title>
      </cc:Work>
    </rdf:RDF>
  </metadata>
  <sodipodi:namedview
     pagecolor="#ffffff"
     bordercolor="#666666"
     borderopacity="1"
     objecttolerance="10"
     gridtolerance="10"
     guidetolerance="10"
     inkscape:pageopacity="0"
     inkscape:pageshadow="2"
     inkscape:window-width="1830"
     inkscape:window-height="1051"
     id="namedview1641"
     showgrid="false"
     inkscape:pagecheckerboard="true"
     inkscape:zoom="0.52597403"
     inkscape:cx="-43.728393"
     inkscape:cy="112"
     inkscape:window-x="82"
     inkscape:window-y="0"
     inkscape:window-maximized="1"
     inkscape:current-layer="svg1639" />
  <defs
     id="defs1621">
    <style
       id="style1619">.a{fill:#e00;}</style>
  </defs>
  <title
     id="title1623">Logo-Red_Hat-AMQ-A-Standard copy 2-RGB</title>
  <path
     d="M228.65,146.74h54.08v9.56H239.57v22.37h28.6V188h-28.6v31.51H228.65Z"
     id="path1625"
     style="fill:#000000;fill-opacity:1" />
  <path
     d="M297.5,198.11c0,8.22,5,13.42,13.21,13.42a14.91,14.91,0,0,0,13-6.86V166.6h10.4v52.94h-10.4v-5.31a21.63,21.63,0,0,1-15.91,6.35c-12.17,0-20.6-8.53-20.6-20.7V166.6h10.3Z"
     id="path1627"
     style="fill:#000000;fill-opacity:1" />
  <path
     d="M346.9,205.81a27.23,27.23,0,0,0,17.26,6.66c8.32,0,12.69-3.64,12.69-7.91,0-3.74-2.6-5.93-8.53-6.76l-9.57-1.35C348.35,195,343,190,343,181.79c0-9.68,8.52-16,20.69-16A36.32,36.32,0,0,1,385,172.53l-5.3,6.86c-5.1-3.43-10.4-5.51-16.75-5.51-6.13,0-10.6,2.7-10.6,7.18,0,3.95,2.49,5.72,8.73,6.65l9.57,1.36c10.71,1.56,16,6.65,16,14.76,0,9.57-9.57,16.64-22.16,16.64-8.84,0-17.16-2.59-23.19-7.8Z"
     id="path1629"
     style="fill:#000000;fill-opacity:1" />
  <path
     d="M419.28,165.77c14.56,0,25.59,12.06,25.59,27.66v3H403.06A17.84,17.84,0,0,0,421,211.63,20.53,20.53,0,0,0,434.36,207l6.66,6.56a31.25,31.25,0,0,1-20.49,7c-15.6,0-27.77-12-27.77-27.45C392.76,177.83,404.3,165.77,419.28,165.77Zm-16.12,22.88h31.41c-1.46-8.11-7.8-14.15-15.5-14.15C411,174.5,404.72,180.33,403.16,188.65Z"
     id="path1631"
     style="fill:#000000;fill-opacity:1" />
  <path
     class="a"
     d="M129,85c12.51,0,30.61-2.58,30.61-17.46a14,14,0,0,0-.31-3.42l-7.45-32.36c-1.72-7.12-3.23-10.35-15.73-16.6C126.39,10.19,105.26,2,99,2c-5.82,0-7.55,7.54-14.45,7.54-6.68,0-11.64-5.6-17.89-5.6-6,0-9.91,4.09-12.93,12.5,0,0-8.41,23.72-9.49,27.16A6.43,6.43,0,0,0,44,45.54C44,54.76,80.33,85,129,85m32.55-11.42c1.73,8.19,1.73,9.05,1.73,10.13,0,14-15.74,21.77-36.43,21.77C80,105.47,39.08,78.1,39.08,60a18.45,18.45,0,0,1,1.51-7.33C23.77,53.52,2,56.54,2,75.72,2,107.2,76.59,146,135.65,146c45.28,0,56.7-20.48,56.7-36.65,0-12.72-11-27.16-30.83-35.78"
     id="path1633" />
  <path
     d="M161.52,73.57c1.73,8.19,1.73,9.05,1.73,10.13,0,14-15.74,21.77-36.43,21.77C80,105.47,39.08,78.1,39.08,60a18.45,18.45,0,0,1,1.51-7.33l3.66-9.06A6.43,6.43,0,0,0,44,45.54C44,54.76,80.33,85,129,85c12.51,0,30.61-2.58,30.61-17.46a14,14,0,0,0-.31-3.42Z"
     id="path1635" />
  <path
     d="M581.24,94.3c0,11.89,7.15,17.67,20.19,17.67a52.11,52.11,0,0,0,11.89-1.68V96.51a24.84,24.84,0,0,1-7.68,1.16c-5.37,0-7.36-1.68-7.36-6.73V69.8h15.56V55.6H598.28v-18l-17,3.68V55.6H570V69.8h11.25Zm-53,.32c0-3.68,3.69-5.47,9.26-5.47a43.12,43.12,0,0,1,10.1,1.26v7.15A21.51,21.51,0,0,1,537,100.19c-5.46,0-8.73-2.1-8.73-5.57m5.2,17.56c6,0,10.84-1.26,15.36-4.31v3.37h16.82V75.58c0-13.56-9.14-21-24.39-21-8.52,0-16.94,2-26,6.1l6.1,12.52c6.52-2.74,12-4.42,16.83-4.42,7,0,10.62,2.73,10.62,8.31v2.73a49.53,49.53,0,0,0-12.62-1.58c-14.31,0-22.93,6-22.93,16.73,0,9.78,7.78,17.24,20.19,17.24m-92.44-.94h18.09V82.42h30.29v28.82h18.09V37.62H489.43V65.91H459.14V37.62H441.05ZM372.12,83.37c0-8,6.31-14.1,14.62-14.1a17.22,17.22,0,0,1,11.78,4.32V93a16.36,16.36,0,0,1-11.78,4.42c-8.2,0-14.62-6.1-14.62-14.09m26.61,27.87h16.83V33.94l-17,3.68V58.55a28.3,28.3,0,0,0-14.2-3.68c-16.19,0-28.92,12.51-28.92,28.5A28.25,28.25,0,0,0,383.8,112a25.12,25.12,0,0,0,14.93-4.83Zm-77.19-42.7c5.36,0,9.88,3.47,11.67,8.83H310c1.68-5.57,5.89-8.83,11.57-8.83M292.83,83.47c0,16.2,13.25,28.82,30.28,28.82,9.36,0,16.2-2.53,23.25-8.42l-11.26-10c-2.63,2.74-6.52,4.21-11.14,4.21a14.39,14.39,0,0,1-13.68-8.83h39.65V85.05c0-17.67-11.88-30.39-28.08-30.39a28.57,28.57,0,0,0-29,28.81M263.49,53.08c6,0,9.36,3.78,9.36,8.31s-3.37,8.31-9.36,8.31H245.61V53.08Zm-36,58.16h18.09V84.42h13.77l13.89,26.82h20.19l-16.2-29.45a22.27,22.27,0,0,0,13.88-20.72c0-13.25-10.41-23.45-26-23.45H227.52Z"
     id="path1637"
     style="fill:#000000;fill-opacity:1" />
</svg>
