<?xml version="1.0" encoding="UTF-8" standalone="no"?>
<!DOCTYPE svg PUBLIC "-//W3C//DTD SVG 1.1//EN"
 "http://www.w3.org/Graphics/SVG/1.1/DTD/svg11.dtd">
<!-- Generated by graphviz version 2.38.0 (20140413.2041)
 -->
<!-- Title: %3 Pages: 1 -->
<svg width="939pt" height="492pt"
 viewBox="0.00 0.00 939.00 492.00" xmlns="http://www.w3.org/2000/svg" xmlns:xlink="http://www.w3.org/1999/xlink">
<g id="graph0" class="graph" transform="scale(1 1) rotate(0) translate(4 488)">
<title>%3</title>
<!-- org.wildfly -->
<g id="node1" class="node"><title>org.wildfly</title>
<polygon fill="beige" stroke="black" stroke-width="2" points="618,-484 506,-484 506,-416 618,-416 618,-484"/>
<text text-anchor="middle" x="562" y="-468.8" font-family="Helvetica,sans-Serif" font-size="14.00">Code &#45;&gt;</text>
<text text-anchor="middle" x="562" y="-453.8" font-family="Helvetica,sans-Serif" font-size="14.00">Build &#45;&gt;</text>
<text text-anchor="middle" x="562" y="-438.8" font-family="Helvetica,sans-Serif" font-size="14.00">Test &#45;&gt;</text>
<text text-anchor="middle" x="562" y="-423.8" font-family="Helvetica,sans-Serif" font-size="14.00">Release/Deliver</text>
</g>
<!-- org.wildfly.core -->
<g id="node2" class="node"><title>org.wildfly.core</title>
<polygon fill="beige" stroke="black" stroke-width="2" points="680,-380 568,-380 568,-312 680,-312 680,-380"/>
<text text-anchor="middle" x="624" y="-364.8" font-family="Helvetica,sans-Serif" font-size="14.00">Code &#45;&gt;</text>
<text text-anchor="middle" x="624" y="-349.8" font-family="Helvetica,sans-Serif" font-size="14.00">Build &#45;&gt;</text>
<text text-anchor="middle" x="624" y="-334.8" font-family="Helvetica,sans-Serif" font-size="14.00">Test &#45;&gt;</text>
<text text-anchor="middle" x="624" y="-319.8" font-family="Helvetica,sans-Serif" font-size="14.00">Release/Deliver</text>
</g>
<!-- org.wildfly&#45;&gt;org.wildfly.core -->
<g id="edge6" class="edge"><title>org.wildfly&#45;&gt;org.wildfly.core</title>
<path fill="none" stroke="black" d="M582.13,-415.884C587.327,-407.332 592.992,-398.013 598.427,-389.072"/>
<polygon fill="black" stroke="black" points="601.556,-390.663 603.759,-380.299 595.574,-387.027 601.556,-390.663"/>
</g>
<!-- org.jboss.log* -->
<g id="node4" class="node"><title>org.jboss.log*</title>
<polygon fill="beige" stroke="black" stroke-width="2" points="112,-172 -7.10543e-15,-172 -7.10543e-15,-104 112,-104 112,-172"/>
<text text-anchor="middle" x="56" y="-156.8" font-family="Helvetica,sans-Serif" font-size="14.00">Code &#45;&gt;</text>
<text text-anchor="middle" x="56" y="-141.8" font-family="Helvetica,sans-Serif" font-size="14.00">Build &#45;&gt;</text>
<text text-anchor="middle" x="56" y="-126.8" font-family="Helvetica,sans-Serif" font-size="14.00">Test &#45;&gt;</text>
<text text-anchor="middle" x="56" y="-111.8" font-family="Helvetica,sans-Serif" font-size="14.00">Release/Deliver</text>
</g>
<!-- org.wildfly&#45;&gt;org.jboss.log* -->
<g id="edge2" class="edge"><title>org.wildfly&#45;&gt;org.jboss.log*</title>
<path fill="none" stroke="black" d="M505.8,-447.555C402.05,-441.542 181.6,-412.458 78,-276 57.8914,-249.514 53.0725,-211.755 52.9007,-182.583"/>
<polygon fill="black" stroke="black" points="56.4044,-182.303 53.028,-172.261 49.4049,-182.217 56.4044,-182.303"/>
</g>
<!-- 20+ other jboss\ncomponents -->
<g id="node6" class="node"><title>20+ other jboss\ncomponents</title>
<polygon fill="none" stroke="royalblue" points="434,-365 324,-365 324,-327 434,-327 434,-365"/>
<text text-anchor="middle" x="379" y="-349.8" font-family="Helvetica,sans-Serif" font-size="14.00" fill="royalblue">20+ other jboss</text>
<text text-anchor="middle" x="379" y="-334.8" font-family="Helvetica,sans-Serif" font-size="14.00" fill="royalblue">components</text>
</g>
<!-- org.wildfly&#45;&gt;20+ other jboss\ncomponents -->
<g id="edge7" class="edge"><title>org.wildfly&#45;&gt;20+ other jboss\ncomponents</title>
<path fill="none" stroke="royalblue" d="M505.601,-417.564C478.102,-402.237 445.618,-384.131 420.44,-370.098"/>
<polygon fill="royalblue" stroke="royalblue" points="421.956,-366.936 411.517,-365.124 418.548,-373.05 421.956,-366.936"/>
</g>
<!-- 50+ 3rd party\ncomponents -->
<g id="node7" class="node"><title>50+ 3rd party\ncomponents</title>
<polygon fill="none" stroke="dimgray" points="549.5,-365 452.5,-365 452.5,-327 549.5,-327 549.5,-365"/>
<text text-anchor="middle" x="501" y="-349.8" font-family="Helvetica,sans-Serif" font-size="14.00" fill="dimgray">50+ 3rd party</text>
<text text-anchor="middle" x="501" y="-334.8" font-family="Helvetica,sans-Serif" font-size="14.00" fill="dimgray">components</text>
</g>
<!-- org.wildfly&#45;&gt;50+ 3rd party\ncomponents -->
<g id="edge8" class="edge"><title>org.wildfly&#45;&gt;50+ 3rd party\ncomponents</title>
<path fill="none" stroke="dimgray" d="M542.195,-415.884C534.077,-402.309 524.801,-386.799 517.11,-373.937"/>
<polygon fill="dimgray" stroke="dimgray" points="519.965,-371.892 511.828,-365.106 513.957,-375.485 519.965,-371.892"/>
</g>
<!-- org.jboss\n.jandex -->
<g id="node12" class="node"><title>org.jboss\n.jandex</title>
<polygon fill="none" stroke="black" points="719.5,-261 648.5,-261 648.5,-223 719.5,-223 719.5,-261"/>
<text text-anchor="middle" x="684" y="-245.8" font-family="Helvetica,sans-Serif" font-size="14.00">org.jboss</text>
<text text-anchor="middle" x="684" y="-230.8" font-family="Helvetica,sans-Serif" font-size="14.00">.jandex</text>
</g>
<!-- org.wildfly&#45;&gt;org.jboss\n.jandex -->
<g id="edge1" class="edge"><title>org.wildfly&#45;&gt;org.jboss\n.jandex</title>
<path fill="none" stroke="black" d="M618.084,-433.313C644.5,-422.798 673.544,-405.988 689,-380 708.807,-346.697 701.399,-300.344 693.381,-271.009"/>
<polygon fill="black" stroke="black" points="696.733,-270.004 690.562,-261.392 690.016,-271.972 696.733,-270.004"/>
</g>
<!-- org.jboss\n.shrinkwrap.* -->
<g id="node13" class="node"><title>org.jboss\n.shrinkwrap.*</title>
<polygon fill="none" stroke="black" points="832.5,-261 737.5,-261 737.5,-223 832.5,-223 832.5,-261"/>
<text text-anchor="middle" x="785" y="-245.8" font-family="Helvetica,sans-Serif" font-size="14.00">org.jboss</text>
<text text-anchor="middle" x="785" y="-230.8" font-family="Helvetica,sans-Serif" font-size="14.00">.shrinkwrap.*</text>
</g>
<!-- org.wildfly&#45;&gt;org.jboss\n.shrinkwrap.* -->
<g id="edge3" class="edge"><title>org.wildfly&#45;&gt;org.jboss\n.shrinkwrap.*</title>
<path fill="none" stroke="black" d="M618.291,-432.326C648.254,-421.254 684.146,-404.235 710,-380 742.704,-349.344 764.445,-301.152 775.745,-270.855"/>
<polygon fill="black" stroke="black" points="779.084,-271.912 779.177,-261.318 772.498,-269.542 779.084,-271.912"/>
</g>
<!-- org.jboss.spec.* -->
<g id="node14" class="node"><title>org.jboss.spec.*</title>
<polygon fill="none" stroke="black" points="576.5,-156 463.5,-156 463.5,-120 576.5,-120 576.5,-156"/>
<text text-anchor="middle" x="520" y="-134.3" font-family="Helvetica,sans-Serif" font-size="14.00">org.jboss.spec.*</text>
</g>
<!-- org.wildfly&#45;&gt;org.jboss.spec.* -->
<g id="edge4" class="edge"><title>org.wildfly&#45;&gt;org.jboss.spec.*</title>
<path fill="none" stroke="black" d="M505.715,-441.214C440.19,-430.863 337.98,-410.279 315,-380 302.581,-363.636 306.487,-223.655 319,-208 357.771,-159.494 395.931,-193.999 454,-172 462.53,-168.769 471.421,-164.782 479.812,-160.71"/>
<polygon fill="black" stroke="black" points="481.642,-163.708 489.027,-156.112 478.517,-157.445 481.642,-163.708"/>
</g>
<!-- org.picket* -->
<g id="node15" class="node"><title>org.picket*</title>
<polygon fill="none" stroke="black" points="931,-260 851,-260 851,-224 931,-224 931,-260"/>
<text text-anchor="middle" x="891" y="-238.3" font-family="Helvetica,sans-Serif" font-size="14.00">org.picket*</text>
</g>
<!-- org.wildfly&#45;&gt;org.picket* -->
<g id="edge5" class="edge"><title>org.wildfly&#45;&gt;org.picket*</title>
<path fill="none" stroke="black" d="M618.033,-434.74C656.448,-423.442 707.574,-405.323 748,-380 797.804,-348.803 844.852,-298.19 870.621,-267.996"/>
<polygon fill="black" stroke="black" points="873.544,-269.958 877.309,-260.055 868.19,-265.449 873.544,-269.958"/>
</g>
<!-- io.undertow -->
<g id="node3" class="node"><title>io.undertow</title>
<polygon fill="beige" stroke="black" stroke-width="2" points="272,-276 160,-276 160,-208 272,-208 272,-276"/>
<text text-anchor="middle" x="216" y="-260.8" font-family="Helvetica,sans-Serif" font-size="14.00">Code &#45;&gt;</text>
<text text-anchor="middle" x="216" y="-245.8" font-family="Helvetica,sans-Serif" font-size="14.00">Build &#45;&gt;</text>
<text text-anchor="middle" x="216" y="-230.8" font-family="Helvetica,sans-Serif" font-size="14.00">Test &#45;&gt;</text>
<text text-anchor="middle" x="216" y="-215.8" font-family="Helvetica,sans-Serif" font-size="14.00">Release/Deliver</text>
</g>
<!-- org.wildfly.core&#45;&gt;io.undertow -->
<g id="edge10" class="edge"><title>org.wildfly.core&#45;&gt;io.undertow</title>
<path fill="none" stroke="black" d="M567.964,-315.53C564.634,-314.235 561.298,-313.044 558,-312 455.588,-279.581 423.597,-300.466 319,-276 306.881,-273.165 294.133,-269.586 281.894,-265.838"/>
<polygon fill="black" stroke="black" points="282.799,-262.454 272.21,-262.808 280.708,-269.135 282.799,-262.454"/>
</g>
<!-- org.wildfly.core&#45;&gt;org.jboss.log* -->
<g id="edge12" class="edge"><title>org.wildfly.core&#45;&gt;org.jboss.log*</title>
<path fill="none" stroke="black" d="M567.669,-315.136C564.442,-313.961 561.206,-312.902 558,-312 466.971,-286.397 213.664,-326.946 134,-276 100.462,-254.552 79.8546,-213.25 68.3111,-181.578"/>
<polygon fill="black" stroke="black" points="71.6031,-180.389 65.0153,-172.091 64.9907,-182.686 71.6031,-180.389"/>
</g>
<!-- org.jboss.modules -->
<g id="node5" class="node"><title>org.jboss.modules</title>
<polygon fill="beige" stroke="black" stroke-width="2" points="454,-68 342,-68 342,-0 454,-0 454,-68"/>
<text text-anchor="middle" x="398" y="-52.8" font-family="Helvetica,sans-Serif" font-size="14.00">Code &#45;&gt;</text>
<text text-anchor="middle" x="398" y="-37.8" font-family="Helvetica,sans-Serif" font-size="14.00">Build &#45;&gt;</text>
<text text-anchor="middle" x="398" y="-22.8" font-family="Helvetica,sans-Serif" font-size="14.00">Test &#45;&gt;</text>
<text text-anchor="middle" x="398" y="-7.8" font-family="Helvetica,sans-Serif" font-size="14.00">Release/Deliver</text>
</g>
<!-- org.wildfly.core&#45;&gt;org.jboss.modules -->
<g id="edge13" class="edge"><title>org.wildfly.core&#45;&gt;org.jboss.modules</title>
<path fill="none" stroke="black" d="M628.322,-311.993C633.048,-261.3 634.305,-163.876 585,-104 555.33,-67.9689 505.015,-50.7514 464.045,-42.5247"/>
<polygon fill="black" stroke="black" points="464.592,-39.0663 454.119,-40.6677 463.304,-45.9469 464.592,-39.0663"/>
</g>
<!-- 25+ other jboss\ncomponents -->
<g id="node8" class="node"><title>25+ other jboss\ncomponents</title>
<polygon fill="none" stroke="royalblue" points="438,-261 328,-261 328,-223 438,-223 438,-261"/>
<text text-anchor="middle" x="383" y="-245.8" font-family="Helvetica,sans-Serif" font-size="14.00" fill="royalblue">25+ other jboss</text>
<text text-anchor="middle" x="383" y="-230.8" font-family="Helvetica,sans-Serif" font-size="14.00" fill="royalblue">components</text>
</g>
<!-- org.wildfly.core&#45;&gt;25+ other jboss\ncomponents -->
<g id="edge17" class="edge"><title>org.wildfly.core&#45;&gt;25+ other jboss\ncomponents</title>
<path fill="none" stroke="royalblue" d="M567.732,-316.17C564.461,-314.712 561.201,-313.311 558,-312 510.004,-292.348 494.873,-295.95 447,-276 439.617,-272.923 431.926,-269.323 424.543,-265.653"/>
<polygon fill="royalblue" stroke="royalblue" points="425.902,-262.417 415.402,-261.001 422.727,-268.656 425.902,-262.417"/>
</g>
<!-- 20+ 3rd party\ncomponents -->
<g id="node9" class="node"><title>20+ 3rd party\ncomponents</title>
<polygon fill="none" stroke="dimgray" points="553.5,-261 456.5,-261 456.5,-223 553.5,-223 553.5,-261"/>
<text text-anchor="middle" x="505" y="-245.8" font-family="Helvetica,sans-Serif" font-size="14.00" fill="dimgray">20+ 3rd party</text>
<text text-anchor="middle" x="505" y="-230.8" font-family="Helvetica,sans-Serif" font-size="14.00" fill="dimgray">components</text>
</g>
<!-- org.wildfly.core&#45;&gt;20+ 3rd party\ncomponents -->
<g id="edge18" class="edge"><title>org.wildfly.core&#45;&gt;20+ 3rd party\ncomponents</title>
<path fill="none" stroke="dimgray" d="M585.364,-311.884C568.604,-297.518 549.316,-280.985 533.837,-267.718"/>
<polygon fill="dimgray" stroke="dimgray" points="535.994,-264.957 526.124,-261.106 531.439,-270.271 535.994,-264.957"/>
</g>
<!-- org.wildfly.core&#45;&gt;org.jboss\n.jandex -->
<g id="edge9" class="edge"><title>org.wildfly.core&#45;&gt;org.jboss\n.jandex</title>
<path fill="none" stroke="black" d="M643.48,-311.884C651.465,-298.309 660.589,-282.799 668.154,-269.937"/>
<polygon fill="black" stroke="black" points="671.296,-271.5 673.349,-261.106 665.262,-267.951 671.296,-271.5"/>
</g>
<!-- org.wildfly.core&#45;&gt;org.jboss\n.shrinkwrap.* -->
<g id="edge14" class="edge"><title>org.wildfly.core&#45;&gt;org.jboss\n.shrinkwrap.*</title>
<path fill="none" stroke="black" d="M676.272,-311.884C699.571,-297.123 726.482,-280.074 747.702,-266.63"/>
<polygon fill="black" stroke="black" points="749.846,-269.415 756.421,-261.106 746.1,-263.501 749.846,-269.415"/>
</g>
<!-- org.wildfly.core&#45;&gt;org.jboss.spec.* -->
<g id="edge15" class="edge"><title>org.wildfly.core&#45;&gt;org.jboss.spec.*</title>
<path fill="none" stroke="black" d="M610.32,-311.797C598.43,-283.712 580.288,-242.628 562,-208 554.306,-193.431 544.828,-177.702 536.824,-164.946"/>
<polygon fill="black" stroke="black" points="539.615,-162.812 531.303,-156.242 533.704,-166.562 539.615,-162.812"/>
</g>
<!-- org.wildfly.core&#45;&gt;org.picket* -->
<g id="edge16" class="edge"><title>org.wildfly.core&#45;&gt;org.picket*</title>
<path fill="none" stroke="black" d="M680,-331.748C724.795,-320.081 788.563,-301.047 841,-276 847.243,-273.018 853.617,-269.358 859.632,-265.573"/>
<polygon fill="black" stroke="black" points="861.687,-268.412 868.133,-260.004 857.85,-262.557 861.687,-268.412"/>
</g>
<!-- org.jboss\n.classfilewriter -->
<g id="node16" class="node"><title>org.jboss\n.classfilewriter</title>
<polygon fill="none" stroke="black" points="231.5,-157 130.5,-157 130.5,-119 231.5,-119 231.5,-157"/>
<text text-anchor="middle" x="181" y="-141.8" font-family="Helvetica,sans-Serif" font-size="14.00">org.jboss</text>
<text text-anchor="middle" x="181" y="-126.8" font-family="Helvetica,sans-Serif" font-size="14.00">.classfilewriter</text>
</g>
<!-- org.wildfly.core&#45;&gt;org.jboss\n.classfilewriter -->
<g id="edge11" class="edge"><title>org.wildfly.core&#45;&gt;org.jboss\n.classfilewriter</title>
<path fill="none" stroke="black" d="M567.665,-315.15C564.439,-313.971 561.205,-312.907 558,-312 470.637,-287.263 212.31,-342.972 151,-276 123.436,-245.89 144.843,-196.459 162.9,-165.928"/>
<polygon fill="black" stroke="black" points="166.072,-167.451 168.339,-157.102 160.113,-163.779 166.072,-167.451"/>
</g>
<!-- io.undertow&#45;&gt;org.jboss.log* -->
<g id="edge21" class="edge"><title>io.undertow&#45;&gt;org.jboss.log*</title>
<path fill="none" stroke="black" d="M164.053,-207.884C148.885,-198.214 132.178,-187.563 116.529,-177.587"/>
<polygon fill="black" stroke="black" points="118.274,-174.549 107.96,-172.125 114.511,-180.452 118.274,-174.549"/>
</g>
<!-- 8 3rd party\ncomponents -->
<g id="node10" class="node"><title>8 3rd party\ncomponents</title>
<polygon fill="none" stroke="dimgray" points="445.5,-157 354.5,-157 354.5,-119 445.5,-119 445.5,-157"/>
<text text-anchor="middle" x="400" y="-141.8" font-family="Helvetica,sans-Serif" font-size="14.00" fill="dimgray">8 3rd party</text>
<text text-anchor="middle" x="400" y="-126.8" font-family="Helvetica,sans-Serif" font-size="14.00" fill="dimgray">components</text>
</g>
<!-- io.undertow&#45;&gt;8 3rd party\ncomponents -->
<g id="edge23" class="edge"><title>io.undertow&#45;&gt;8 3rd party\ncomponents</title>
<path fill="none" stroke="dimgray" d="M272.205,-211.708C294.945,-199.657 321.359,-185.404 345,-172 350.467,-168.9 356.197,-165.563 361.807,-162.245"/>
<polygon fill="dimgray" stroke="dimgray" points="363.673,-165.207 370.472,-157.081 360.09,-159.194 363.673,-165.207"/>
</g>
<!-- io.undertow&#45;&gt;org.jboss.spec.* -->
<g id="edge22" class="edge"><title>io.undertow&#45;&gt;org.jboss.spec.*</title>
<path fill="none" stroke="black" d="M272.084,-213.204C276.74,-211.313 281.418,-209.548 286,-208 358.344,-183.558 381.943,-197.276 454,-172 462.878,-168.886 472.093,-164.843 480.722,-160.66"/>
<polygon fill="black" stroke="black" points="482.44,-163.714 489.811,-156.104 479.303,-157.456 482.44,-163.714"/>
</g>
<!-- io.undertow&#45;&gt;org.jboss\n.classfilewriter -->
<g id="edge20" class="edge"><title>io.undertow&#45;&gt;org.jboss\n.classfilewriter</title>
<path fill="none" stroke="black" d="M204.637,-207.884C200.069,-194.572 194.863,-179.4 190.501,-166.69"/>
<polygon fill="black" stroke="black" points="193.769,-165.429 187.213,-157.106 187.148,-167.701 193.769,-165.429"/>
</g>
<!-- io.undertow\n.jastow -->
<g id="node17" class="node"><title>io.undertow\n.jastow</title>
<polygon fill="none" stroke="black" points="336,-157 250,-157 250,-119 336,-119 336,-157"/>
<text text-anchor="middle" x="293" y="-141.8" font-family="Helvetica,sans-Serif" font-size="14.00">io.undertow</text>
<text text-anchor="middle" x="293" y="-126.8" font-family="Helvetica,sans-Serif" font-size="14.00">.jastow</text>
</g>
<!-- io.undertow&#45;&gt;io.undertow\n.jastow -->
<g id="edge19" class="edge"><title>io.undertow&#45;&gt;io.undertow\n.jastow</title>
<path fill="none" stroke="black" d="M241,-207.884C251.446,-194.045 263.411,-178.196 273.228,-165.191"/>
<polygon fill="black" stroke="black" points="276.1,-167.196 279.332,-157.106 270.513,-162.979 276.1,-167.196"/>
</g>
<!-- org.jboss.log*&#45;&gt;org.jboss.modules -->
<g id="edge24" class="edge"><title>org.jboss.log*&#45;&gt;org.jboss.modules</title>
<path fill="none" stroke="black" d="M112.02,-107.583C115.03,-106.31 118.035,-105.106 121,-104 191.199,-77.8208 275.084,-58.499 332.012,-47.0648"/>
<polygon fill="black" stroke="black" points="332.837,-50.4693 341.966,-45.0907 331.476,-43.603 332.837,-50.4693"/>
</g>
<!-- ? 3rd party\ncomponents -->
<g id="node11" class="node"><title>? 3rd party\ncomponents</title>
<polygon fill="none" stroke="dimgray" points="101.5,-53 10.5,-53 10.5,-15 101.5,-15 101.5,-53"/>
<text text-anchor="middle" x="56" y="-37.8" font-family="Helvetica,sans-Serif" font-size="14.00" fill="dimgray">? 3rd party</text>
<text text-anchor="middle" x="56" y="-22.8" font-family="Helvetica,sans-Serif" font-size="14.00" fill="dimgray">components</text>
</g>
<!-- org.jboss.log*&#45;&gt;? 3rd party\ncomponents -->
<g id="edge25" class="edge"><title>org.jboss.log*&#45;&gt;? 3rd party\ncomponents</title>
<path fill="none" stroke="dimgray" d="M56,-103.884C56,-90.836 56,-76.0005 56,-63.4476"/>
<polygon fill="dimgray" stroke="dimgray" points="59.5001,-63.1061 56,-53.1061 52.5001,-63.1061 59.5001,-63.1061"/>
</g>
</g>
</svg>
