<?xml version="1.0" encoding="UTF-8" standalone="no"?>
<!-- Generated by graphviz version 2.38.0 (20140413.2041)
 -->

<!-- Title: %3 Pages: 1 -->

<svg
   xmlns:dc="http://purl.org/dc/elements/1.1/"
   xmlns:cc="http://creativecommons.org/ns#"
   xmlns:rdf="http://www.w3.org/1999/02/22-rdf-syntax-ns#"
   xmlns:svg="http://www.w3.org/2000/svg"
   xmlns="http://www.w3.org/2000/svg"
   xmlns:sodipodi="http://sodipodi.sourceforge.net/DTD/sodipodi-0.dtd"
   xmlns:inkscape="http://www.inkscape.org/namespaces/inkscape"
   width="910pt"
   height="340pt"
   viewBox="0.00 0.00 910.00 340.00"
   version="1.1"
   id="svg319"
   sodipodi:docname="wf-component-dependencies.svg"
   inkscape:version="0.92.1 r">
  <metadata
     id="metadata325">
    <rdf:RDF>
      <cc:Work
         rdf:about="">
        <dc:format>image/svg+xml</dc:format>
        <dc:type
           rdf:resource="http://purl.org/dc/dcmitype/StillImage" />
        <dc:title></dc:title>
      </cc:Work>
    </rdf:RDF>
  </metadata>
  <defs
     id="defs323" />
  <sodipodi:namedview
     pagecolor="#ffffff"
     bordercolor="#666666"
     borderopacity="1"
     objecttolerance="10"
     gridtolerance="10"
     guidetolerance="10"
     inkscape:pageopacity="1"
     inkscape:pageshadow="2"
     inkscape:window-width="1830"
     inkscape:window-height="1047"
     id="namedview321"
     showgrid="false"
     inkscape:zoom="1.2914412"
     inkscape:cx="284.73117"
     inkscape:cy="232.87657"
     inkscape:window-x="82"
     inkscape:window-y="0"
     inkscape:window-maximized="1"
     inkscape:current-layer="svg319"
     inkscape:pagecheckerboard="true"
     borderlayer="true" />
  <rect
     id="rect327"
     width="964.03931"
     height="418.13748"
     x="-13.937917"
     y="-46.777199"
     style="fill:#ffffff;fill-opacity:1;stroke-width:0.75" />
  <g
     class="node"
     id="node1"
     transform="translate(4,336)">
    <title
       id="title4">org.wildfly</title>
    <polygon
       style="fill:#f5f5dc;stroke:#000000;stroke-width:2"
       id="polygon6"
       points="494.5,-296 571.5,-296 571.5,-332 494.5,-332 " />
    <text
       style="font-size:14px;font-family:Helvetica, sans-Serif;text-anchor:middle"
       id="text8"
       font-size="14.00"
       y="-310.29999"
       x="533">org.wildfly</text>
  </g>
  <g
     class="node"
     id="node2"
     transform="translate(4,336)">
    <title
       id="title11">org.wildfly.core</title>
    <polygon
       style="fill:#f5f5dc;stroke:#000000;stroke-width:2"
       id="polygon13"
       points="539.5,-223 646.5,-223 646.5,-259 539.5,-259 " />
    <text
       style="font-size:14px;font-family:Helvetica, sans-Serif;text-anchor:middle"
       id="text15"
       font-size="14.00"
       y="-237.3"
       x="593">org.wildfly.core</text>
  </g>
  <g
     class="edge"
     id="edge6"
     transform="translate(4,336)">
    <title
       id="title18">org.wildfly-&gt;org.wildfly.core</title>
    <path
       style="fill:none;stroke:#000000"
       inkscape:connector-curvature="0"
       id="path20"
       d="m 547.524,-295.813 c 7.37,8.721 16.456,19.473 24.564,29.067" />
    <polygon
       style="fill:#000000;stroke:#000000"
       id="polygon22"
       points="569.482,-264.408 574.828,-268.926 578.609,-259.029 " />
  </g>
  <g
     class="node"
     id="node4"
     transform="translate(4,336)">
    <title
       id="title25">org.jboss.log*</title>
    <polygon
       style="fill:#f5f5dc;stroke:#000000;stroke-width:2"
       id="polygon27"
       points="0,-75 98,-75 98,-111 0,-111 " />
    <text
       style="font-size:14px;font-family:Helvetica, sans-Serif;text-anchor:middle"
       id="text29"
       font-size="14.00"
       y="-89.300003"
       x="49">org.jboss.log*</text>
  </g>
  <g
     class="edge"
     id="edge2"
     transform="translate(4,336)">
    <title
       id="title32">org.wildfly-&gt;org.jboss.log*</title>
    <path
       style="fill:none;stroke:#000000"
       inkscape:connector-curvature="0"
       id="path34"
       d="M 494.472,-313.632 C 408.924,-312.874 201.66,-298.76 87,-186 c -17.8369,17.541 -27.6522,44.663 -32.8143,64.921" />
    <polygon
       style="fill:#000000;stroke:#000000"
       id="polygon36"
       points="50.7439,-121.73 57.5627,-120.148 51.8925,-111.198 " />
  </g>
  <g
     class="node"
     id="node6"
     transform="translate(4,336)">
    <title
       id="title39">20+ other jboss\ncomponents</title>
    <polygon
       style="fill:none;stroke:#4169e1"
       id="polygon41"
       points="296,-222 406,-222 406,-260 296,-260 " />
    <text
       style="font-size:14px;font-family:Helvetica, sans-Serif;text-anchor:middle;fill:#4169e1"
       id="text43"
       font-size="14.00"
       y="-244.8"
       x="351">20+ other jboss</text>
    <text
       style="font-size:14px;font-family:Helvetica, sans-Serif;text-anchor:middle;fill:#4169e1"
       id="text45"
       font-size="14.00"
       y="-229.8"
       x="351">components</text>
  </g>
  <g
     class="edge"
     id="edge7"
     transform="translate(4,336)">
    <title
       id="title48">org.wildfly-&gt;20+ other jboss\ncomponents</title>
    <path
       style="fill:none;stroke:#4169e1"
       inkscape:connector-curvature="0"
       id="path50"
       d="m 494.402,-297.943 c -25.499,9.948 -59.325,23.144 -87.721,34.221" />
    <polygon
       style="fill:#4169e1;stroke:#4169e1"
       id="polygon52"
       points="405.323,-266.949 407.868,-260.428 397.279,-260.054 " />
  </g>
  <g
     class="node"
     id="node7"
     transform="translate(4,336)">
    <title
       id="title55">50+ 3rd party\ncomponents</title>
    <polygon
       style="fill:none;stroke:#696969"
       id="polygon57"
       points="424.5,-222 521.5,-222 521.5,-260 424.5,-260 " />
    <text
       style="font-size:14px;font-family:Helvetica, sans-Serif;text-anchor:middle;fill:#696969"
       id="text59"
       font-size="14.00"
       y="-244.8"
       x="473">50+ 3rd party</text>
    <text
       style="font-size:14px;font-family:Helvetica, sans-Serif;text-anchor:middle;fill:#696969"
       id="text61"
       font-size="14.00"
       y="-229.8"
       x="473">components</text>
  </g>
  <g
     class="edge"
     id="edge8"
     transform="translate(4,336)">
    <title
       id="title64">org.wildfly-&gt;50+ 3rd party\ncomponents</title>
    <path
       style="fill:none;stroke:#696969"
       inkscape:connector-curvature="0"
       id="path66"
       d="m 518.476,-295.813 c -7.082,8.38 -15.748,18.635 -23.608,27.936" />
    <polygon
       style="fill:#696969;stroke:#696969"
       id="polygon68"
       points="492.009,-269.917 497.356,-265.398 488.228,-260.02 " />
  </g>
  <g
     class="node"
     id="node12"
     transform="translate(4,336)">
    <title
       id="title71">org.jboss\n.jandex</title>
    <polygon
       style="fill:none;stroke:#000000"
       id="polygon73"
       points="619.5,-148 690.5,-148 690.5,-186 619.5,-186 " />
    <text
       style="font-size:14px;font-family:Helvetica, sans-Serif;text-anchor:middle"
       id="text75"
       font-size="14.00"
       y="-170.8"
       x="655">org.jboss</text>
    <text
       style="font-size:14px;font-family:Helvetica, sans-Serif;text-anchor:middle"
       id="text77"
       font-size="14.00"
       y="-155.8"
       x="655">.jandex</text>
  </g>
  <g
     class="edge"
     id="edge1"
     transform="translate(4,336)">
    <title
       id="title80">org.wildfly-&gt;org.jboss\n.jandex</title>
    <path
       style="fill:none;stroke:#000000"
       inkscape:connector-curvature="0"
       id="path82"
       d="m 571.562,-307.54 c 28.373,6.256 65.074,19.54 83.438,47.54 12.252,18.68 11.116,44.41 7.564,63.91" />
    <polygon
       style="fill:#000000;stroke:#000000"
       id="polygon84"
       points="659.13,-196.765 665.977,-195.313 660.479,-186.256 " />
  </g>
  <g
     class="node"
     id="node13"
     transform="translate(4,336)">
    <title
       id="title87">org.jboss\n.shrinkwrap.*</title>
    <polygon
       style="fill:none;stroke:#000000"
       id="polygon89"
       points="708.5,-148 803.5,-148 803.5,-186 708.5,-186 " />
    <text
       style="font-size:14px;font-family:Helvetica, sans-Serif;text-anchor:middle"
       id="text91"
       font-size="14.00"
       y="-170.8"
       x="756">org.jboss</text>
    <text
       style="font-size:14px;font-family:Helvetica, sans-Serif;text-anchor:middle"
       id="text93"
       font-size="14.00"
       y="-155.8"
       x="756">.shrinkwrap.*</text>
  </g>
  <g
     class="edge"
     id="edge3"
     transform="translate(4,336)">
    <title
       id="title96">org.wildfly-&gt;org.jboss\n.shrinkwrap.*</title>
    <path
       style="fill:none;stroke:#000000"
       inkscape:connector-curvature="0"
       id="path98"
       d="m 571.593,-303.93 c 29.771,8.23 71.028,22.408 102.407,43.93 25.783,17.684 48.849,45.154 63.899,65.478" />
    <polygon
       style="fill:#000000;stroke:#000000"
       id="polygon100"
       points="735.148,-192.353 740.821,-196.454 743.843,-186.299 " />
  </g>
  <g
     class="node"
     id="node14"
     transform="translate(4,336)">
    <title
       id="title103">org.jboss.spec.*</title>
    <polygon
       style="fill:none;stroke:#000000"
       id="polygon105"
       points="449.5,-75 562.5,-75 562.5,-111 449.5,-111 " />
    <text
       style="font-size:14px;font-family:Helvetica, sans-Serif;text-anchor:middle"
       id="text107"
       font-size="14.00"
       y="-89.300003"
       x="506">org.jboss.spec.*</text>
  </g>
  <g
     class="edge"
     id="edge4"
     transform="translate(4,336)">
    <title
       id="title110">org.wildfly-&gt;org.jboss.spec.*</title>
    <path
       style="fill:none;stroke:#000000"
       inkscape:connector-curvature="0"
       id="path112"
       d="M 494.362,-310.431 C 431.777,-305.375 312.629,-291.738 287,-260 c -11.088,13.731 -13.926,91.404 3,112 41.574,50.5892 79.981,21.857 149.176,36.072" />
    <polygon
       style="fill:#000000;stroke:#000000"
       id="polygon114"
       points="438.616,-108.465 440.192,-115.285 449.148,-109.624 " />
  </g>
  <g
     class="node"
     id="node15"
     transform="translate(4,336)">
    <title
       id="title117">org.picket*</title>
    <polygon
       style="fill:none;stroke:#000000"
       id="polygon119"
       points="822,-149 902,-149 902,-185 822,-185 " />
    <text
       style="font-size:14px;font-family:Helvetica, sans-Serif;text-anchor:middle"
       id="text121"
       font-size="14.00"
       y="-163.3"
       x="862">org.picket*</text>
  </g>
  <g
     class="edge"
     id="edge5"
     transform="translate(4,336)">
    <title
       id="title124">org.wildfly-&gt;org.picket*</title>
    <path
       style="fill:none;stroke:#000000"
       inkscape:connector-curvature="0"
       id="path126"
       d="m 571.514,-304.223 c 36.117,8.897 91.194,24.198 136.486,44.223 43.943,19.428 90.849,48.851 121.19,69.167" />
    <polygon
       style="fill:#000000;stroke:#000000"
       id="polygon128"
       points="827.426,-187.801 831.346,-193.601 837.672,-185.101 " />
  </g>
  <g
     class="node"
     id="node3"
     transform="translate(4,336)">
    <title
       id="title131">io.undertow</title>
    <polygon
       style="fill:#f5f5dc;stroke:#000000;stroke-width:2"
       id="polygon133"
       points="157,-149 243,-149 243,-185 157,-185 " />
    <text
       style="font-size:14px;font-family:Helvetica, sans-Serif;text-anchor:middle"
       id="text135"
       font-size="14.00"
       y="-163.3"
       x="200">io.undertow</text>
  </g>
  <g
     class="edge"
     id="edge10"
     transform="translate(4,336)">
    <title
       id="title138">org.wildfly.core-&gt;io.undertow</title>
    <path
       style="fill:none;stroke:#000000"
       inkscape:connector-curvature="0"
       id="path140"
       d="m 539.16,-224.121 c -3.089,0.756 -6.158,1.47 -9.16,2.121 -105.409,22.864 -133.753,17.418 -240,36 -11.895,2.08 -24.634,4.506 -36.675,6.891" />
    <polygon
       style="fill:#000000;stroke:#000000"
       id="polygon142"
       points="252.527,-182.519 253.901,-175.655 243.408,-177.124 " />
  </g>
  <g
     class="edge"
     id="edge12"
     transform="translate(4,336)">
    <title
       id="title145">org.wildfly.core-&gt;org.jboss.log*</title>
    <path
       style="fill:none;stroke:#000000"
       inkscape:connector-curvature="0"
       id="path147"
       d="m 539.202,-223.913 c -3.1,0.704 -6.183,1.349 -9.202,1.913 -86.425,16.147 -314.918,-2.418 -394,36 -30.239,14.69 -55.3968,44.661 -70.753,66.413" />
    <polygon
       style="fill:#000000;stroke:#000000"
       id="polygon149"
       points="62.2182,-121.358 67.9994,-117.411 59.4703,-111.126 " />
  </g>
  <g
     class="node"
     id="node5"
     transform="translate(4,336)">
    <title
       id="title152">org.jboss.modules</title>
    <polygon
       style="fill:#f5f5dc;stroke:#000000;stroke-width:2"
       id="polygon154"
       points="319.5,-1 446.5,-1 446.5,-37 319.5,-37 " />
    <text
       style="font-size:14px;font-family:Helvetica, sans-Serif;text-anchor:middle"
       id="text156"
       font-size="14.00"
       y="-15.3"
       x="383">org.jboss.modules</text>
  </g>
  <g
     class="edge"
     id="edge13"
     transform="translate(4,336)">
    <title
       id="title159">org.wildfly.core-&gt;org.jboss.modules</title>
    <path
       style="fill:none;stroke:#000000"
       inkscape:connector-curvature="0"
       id="path161"
       d="M 596.274,-222.767 C 601.503,-189.644 607.729,-116.608 571,-74 542.793,-41.2777 496.193,-27.7423 456.446,-22.405" />
    <polygon
       style="fill:#000000;stroke:#000000"
       id="polygon163"
       points="456.019,-25.8789 456.849,-18.9282 446.504,-21.218 " />
  </g>
  <g
     class="node"
     id="node8"
     transform="translate(4,336)">
    <title
       id="title166">25+ other jboss\ncomponents</title>
    <polygon
       style="fill:none;stroke:#4169e1"
       id="polygon168"
       points="299,-148 409,-148 409,-186 299,-186 " />
    <text
       style="font-size:14px;font-family:Helvetica, sans-Serif;text-anchor:middle;fill:#4169e1"
       id="text170"
       font-size="14.00"
       y="-170.8"
       x="354">25+ other jboss</text>
    <text
       style="font-size:14px;font-family:Helvetica, sans-Serif;text-anchor:middle;fill:#4169e1"
       id="text172"
       font-size="14.00"
       y="-155.8"
       x="354">components</text>
  </g>
  <g
     class="edge"
     id="edge17"
     transform="translate(4,336)">
    <title
       id="title175">org.wildfly.core-&gt;25+ other jboss\ncomponents</title>
    <path
       style="fill:none;stroke:#4169e1"
       inkscape:connector-curvature="0"
       id="path177"
       d="m 539.364,-223.842 c -35.627,10.733 -82.613,24.888 -120.364,36.261" />
    <polygon
       style="fill:#4169e1;stroke:#4169e1"
       id="polygon179"
       points="417.68,-190.84 419.7,-184.137 409.115,-184.604 " />
  </g>
  <g
     class="node"
     id="node9"
     transform="translate(4,336)">
    <title
       id="title182">20+ 3rd party\ncomponents</title>
    <polygon
       style="fill:none;stroke:#696969"
       id="polygon184"
       points="427.5,-148 524.5,-148 524.5,-186 427.5,-186 " />
    <text
       style="font-size:14px;font-family:Helvetica, sans-Serif;text-anchor:middle;fill:#696969"
       id="text186"
       font-size="14.00"
       y="-170.8"
       x="476">20+ 3rd party</text>
    <text
       style="font-size:14px;font-family:Helvetica, sans-Serif;text-anchor:middle;fill:#696969"
       id="text188"
       font-size="14.00"
       y="-155.8"
       x="476">components</text>
  </g>
  <g
     class="edge"
     id="edge18"
     transform="translate(4,336)">
    <title
       id="title191">org.wildfly.core-&gt;20+ 3rd party\ncomponents</title>
    <path
       style="fill:none;stroke:#696969"
       inkscape:connector-curvature="0"
       id="path193"
       d="m 565.273,-222.937 c -15.167,9.333 -34.191,21.04 -50.776,31.247" />
    <polygon
       style="fill:#696969;stroke:#696969"
       id="polygon195"
       points="512.256,-194.421 515.925,-188.459 505.574,-186.199 " />
  </g>
  <g
     class="edge"
     id="edge9"
     transform="translate(4,336)">
    <title
       id="title198">org.wildfly.core-&gt;org.jboss\n.jandex</title>
    <path
       style="fill:none;stroke:#000000"
       inkscape:connector-curvature="0"
       id="path200"
       d="m 607.693,-222.937 c 7.442,8.642 16.636,19.319 24.934,28.955" />
    <polygon
       style="fill:#000000;stroke:#000000"
       id="polygon202"
       points="630.151,-191.493 635.455,-196.061 639.328,-186.199 " />
  </g>
  <g
     class="edge"
     id="edge14"
     transform="translate(4,336)">
    <title
       id="title205">org.wildfly.core-&gt;org.jboss\n.shrinkwrap.*</title>
    <path
       style="fill:none;stroke:#000000"
       inkscape:connector-curvature="0"
       id="path207"
       d="m 631.629,-222.937 c 22.19,9.802 50.309,22.222 74.194,32.773" />
    <polygon
       style="fill:#000000;stroke:#000000"
       id="polygon209"
       points="704.525,-186.911 707.354,-193.314 715.087,-186.072 " />
  </g>
  <g
     class="edge"
     id="edge15"
     transform="translate(4,336)">
    <title
       id="title212">org.wildfly.core-&gt;org.jboss.spec.*</title>
    <path
       style="fill:none;stroke:#000000"
       inkscape:connector-curvature="0"
       id="path214"
       d="m 582.85,-222.966 c -15.111,25.359 -43.641,73.236 -61.367,102.983" />
    <polygon
       style="fill:#000000;stroke:#000000"
       id="polygon216"
       points="518.468,-121.76 524.481,-118.177 516.355,-111.378 " />
  </g>
  <g
     class="edge"
     id="edge16"
     transform="translate(4,336)">
    <title
       id="title219">org.wildfly.core-&gt;org.picket*</title>
    <path
       style="fill:none;stroke:#000000"
       inkscape:connector-curvature="0"
       id="path221"
       d="m 646.524,-228.436 c 44.6,10.025 109.626,25.547 165.476,42.436 0.099,0.03 0.199,0.06 0.298,0.09" />
    <polygon
       style="fill:#000000;stroke:#000000"
       id="polygon223"
       points="811.141,-182.605 813.267,-189.274 821.732,-182.902 " />
  </g>
  <g
     class="node"
     id="node16"
     transform="translate(4,336)">
    <title
       id="title226">org.jboss\n.classfilewriter</title>
    <polygon
       style="fill:none;stroke:#000000"
       id="polygon228"
       points="116.5,-74 217.5,-74 217.5,-112 116.5,-112 " />
    <text
       style="font-size:14px;font-family:Helvetica, sans-Serif;text-anchor:middle"
       id="text230"
       font-size="14.00"
       y="-96.800003"
       x="167">org.jboss</text>
    <text
       style="font-size:14px;font-family:Helvetica, sans-Serif;text-anchor:middle"
       id="text232"
       font-size="14.00"
       y="-81.800003"
       x="167">.classfilewriter</text>
  </g>
  <g
     class="edge"
     id="edge11"
     transform="translate(4,336)">
    <title
       id="title235">org.wildfly.core-&gt;org.jboss\n.classfilewriter</title>
    <path
       style="fill:none;stroke:#000000"
       inkscape:connector-curvature="0"
       id="path237"
       d="m 539.2,-223.923 c -3.099,0.706 -6.182,1.355 -9.2,1.923 -83.792,15.779 -324.607,-27.056 -382,36 -15.827,17.389 -7.802,44.369 2.23,64.624" />
    <polygon
       style="fill:#000000;stroke:#000000"
       id="polygon239"
       points="147.264,-119.498 153.44,-122.794 155.06,-112.324 " />
  </g>
  <g
     class="edge"
     id="edge21"
     transform="translate(4,336)">
    <title
       id="title242">io.undertow-&gt;org.jboss.log*</title>
    <path
       style="fill:none;stroke:#000000"
       inkscape:connector-curvature="0"
       id="path244"
       d="m 164.215,-148.937 c -20.985,10.006 -47.694,22.741 -70.1104,33.43" />
    <polygon
       style="fill:#000000;stroke:#000000"
       id="polygon246"
       points="92.3094,-118.528 95.3222,-112.21 84.7894,-111.065 " />
  </g>
  <g
     class="node"
     id="node10"
     transform="translate(4,336)">
    <title
       id="title249">8 3rd party\ncomponents</title>
    <polygon
       style="fill:none;stroke:#696969"
       id="polygon251"
       points="340.5,-74 431.5,-74 431.5,-112 340.5,-112 " />
    <text
       style="font-size:14px;font-family:Helvetica, sans-Serif;text-anchor:middle;fill:#696969"
       id="text253"
       font-size="14.00"
       y="-96.800003"
       x="386">8 3rd party</text>
    <text
       style="font-size:14px;font-family:Helvetica, sans-Serif;text-anchor:middle;fill:#696969"
       id="text255"
       font-size="14.00"
       y="-81.800003"
       x="386">components</text>
  </g>
  <g
     class="edge"
     id="edge23"
     transform="translate(4,336)">
    <title
       id="title258">io.undertow-&gt;8 3rd party\ncomponents</title>
    <path
       style="fill:none;stroke:#696969"
       inkscape:connector-curvature="0"
       id="path260"
       d="m 243.14,-149.301 c 26.111,10.108 59.668,23.098 87.697,33.948" />
    <polygon
       style="fill:#696969;stroke:#696969"
       id="polygon262"
       points="329.91,-111.959 332.437,-118.487 340.499,-111.613 " />
  </g>
  <g
     class="edge"
     id="edge22"
     transform="translate(4,336)">
    <title
       id="title265">io.undertow-&gt;org.jboss.spec.*</title>
    <path
       style="fill:none;stroke:#000000"
       inkscape:connector-curvature="0"
       id="path267"
       d="m 243.114,-151.828 c 4.666,1.367 9.361,2.672 13.886,3.828 77.177,19.711 100.489,17.314 181.954,35.858" />
    <polygon
       style="fill:#000000;stroke:#000000"
       id="polygon269"
       points="438.653,-108.62 440.231,-115.439 449.184,-109.774 " />
  </g>
  <g
     class="edge"
     id="edge20"
     transform="translate(4,336)">
    <title
       id="title272">io.undertow-&gt;org.jboss\n.classfilewriter</title>
    <path
       style="fill:none;stroke:#000000"
       inkscape:connector-curvature="0"
       id="path274"
       d="m 192.179,-148.937 c -3.762,8.21 -8.367,18.256 -12.605,27.503" />
    <polygon
       style="fill:#000000;stroke:#000000"
       id="polygon276"
       points="176.326,-122.748 182.69,-119.832 175.341,-112.199 " />
  </g>
  <g
     class="node"
     id="node17"
     transform="translate(4,336)">
    <title
       id="title279">io.undertow\n.jastow</title>
    <polygon
       style="fill:none;stroke:#000000"
       id="polygon281"
       points="236,-74 322,-74 322,-112 236,-112 " />
    <text
       style="font-size:14px;font-family:Helvetica, sans-Serif;text-anchor:middle"
       id="text283"
       font-size="14.00"
       y="-96.800003"
       x="279">io.undertow</text>
    <text
       style="font-size:14px;font-family:Helvetica, sans-Serif;text-anchor:middle"
       id="text285"
       font-size="14.00"
       y="-81.800003"
       x="279">.jastow</text>
  </g>
  <g
     class="edge"
     id="edge19"
     transform="translate(4,336)">
    <title
       id="title288">io.undertow-&gt;io.undertow\n.jastow</title>
    <path
       style="fill:none;stroke:#000000"
       inkscape:connector-curvature="0"
       id="path290"
       d="m 218.722,-148.937 c 9.766,8.901 21.902,19.961 32.719,29.82" />
    <polygon
       style="fill:#000000;stroke:#000000"
       id="polygon292"
       points="249.283,-116.348 253.998,-121.522 259.031,-112.199 " />
  </g>
  <g
     class="edge"
     id="edge24"
     transform="translate(4,336)">
    <title
       id="title295">org.jboss.log*-&gt;org.jboss.modules</title>
    <path
       style="fill:none;stroke:#000000"
       inkscape:connector-curvature="0"
       id="path297"
       d="m 98.2586,-76.3169 c 2.9484,0.8156 5.8794,1.5949 8.7414,2.3169 67.856,17.1145 146.246,31.992 202.104,41.7726" />
    <polygon
       style="fill:#000000;stroke:#000000"
       id="polygon299"
       points="308.812,-28.7257 310.011,-35.6223 319.264,-30.4611 " />
  </g>
  <g
     class="node"
     id="node11"
     transform="translate(4,336)">
    <title
       id="title302">? 3rd party\ncomponents</title>
    <polygon
       style="fill:none;stroke:#696969"
       id="polygon304"
       points="3.5,0 94.5,0 94.5,-38 3.5,-38 " />
    <text
       style="font-size:14px;font-family:Helvetica, sans-Serif;text-anchor:middle;fill:#696969"
       id="text306"
       font-size="14.00"
       y="-22.799999"
       x="49">? 3rd party</text>
    <text
       style="font-size:14px;font-family:Helvetica, sans-Serif;text-anchor:middle;fill:#696969"
       id="text308"
       font-size="14.00"
       y="-7.8000002"
       x="49">components</text>
  </g>
  <g
     class="edge"
     id="edge25"
     transform="translate(4,336)">
    <title
       id="title311">org.jboss.log*-&gt;? 3rd party\ncomponents</title>
    <path
       style="fill:none;stroke:#696969"
       inkscape:connector-curvature="0"
       id="path313"
       d="m 49,-74.937 c 0,7.9505 0,17.6236 0,26.6243" />
    <polygon
       style="fill:#696969;stroke:#696969"
       id="polygon315"
       points="45.5001,-48.1992 52.5001,-48.1991 49,-38.1992 " />
  </g>
  <g
     class="node"
     id="node16-3"
     transform="translate(-26.459341,167.59882)"
     style="stroke:none">
    <title
       id="title226-6">org.jboss\n.classfilewriter</title>
    <text
       style="font-style:normal;font-variant:normal;font-weight:normal;font-stretch:normal;font-size:14px;font-family:Helvetica, sans-Serif;-inkscape-font-specification:'Helvetica, sans-Serif, Normal';font-variant-ligatures:normal;font-variant-caps:normal;font-variant-numeric:normal;font-feature-settings:normal;text-align:center;writing-mode:lr-tb;text-anchor:middle;stroke:none"
       id="text230-5"
       font-size="14.00"
       y="-140.93674"
       x="139.70491">
      <tspan
         sodipodi:role="line"
         id="tspan5191"
         x="139.70491"
         y="-140.93674"
         style="font-style:normal;font-variant:normal;font-weight:normal;font-stretch:normal;font-size:20px;font-family:Helvetica, sans-Serif;-inkscape-font-specification:'Helvetica, sans-Serif, Normal';font-variant-ligatures:normal;font-variant-caps:normal;font-variant-numeric:normal;font-feature-settings:normal;text-align:center;writing-mode:lr-tb;text-anchor:middle">WildFly components</tspan>
      <tspan
         sodipodi:role="line"
         id="tspan5193"
         x="139.70491"
         y="-115.93674"
         style="font-style:normal;font-variant:normal;font-weight:normal;font-stretch:normal;font-size:20px;font-family:Helvetica, sans-Serif;-inkscape-font-specification:'Helvetica, sans-Serif, Normal';font-variant-ligatures:normal;font-variant-caps:normal;font-variant-numeric:normal;font-feature-settings:normal;text-align:center;writing-mode:lr-tb;text-anchor:middle">and their dependencies</tspan>
    </text>
  </g>
</svg>
